<?xml version="1.0" encoding="UTF-8"?>
<svg width="20px" height="20px" viewBox="0 0 20 20" version="1.1" xmlns="http://www.w3.org/2000/svg" xmlns:xlink="http://www.w3.org/1999/xlink">
    <title>03s</title>
    <g id="文件图标" stroke="none" stroke-width="1" fill="none" fill-rule="evenodd">
        <g id="编组-3">
            <g id="编组" transform="translate(4.444444, 0.000000)" fill-rule="nonzero">
                <path d="M0.729143889,19.5242862 L14.8264117,19.5242862 C14.960342,19.5235005 15.0684874,19.4169183 15.0684874,19.2857149 L15.0684874,5.23858516 L10.9371582,5.23858516 C10.5344632,5.23858516 10.2080143,4.91878886 10.2080143,4.52430012 L10.2080143,0.475732442 L0.729143889,0.475732442 C0.664554638,0.475732442 0.602610796,0.500867553 0.556939301,0.545608337 C0.511267806,0.590349121 0.485609836,0.651030645 0.485609836,0.714303666 L0.485609836,19.2857149 C0.485609836,19.4171434 0.594981412,19.5242862 0.729143889,19.5242862 Z" id="路径" fill="#FFFFFF"></path>
                <path d="M14.9678656,4.76144275 L10.6950824,0.575732349 L10.6950824,4.52430012 C10.6950824,4.65572857 10.8029957,4.76144275 10.9371582,4.76144275 L14.9678656,4.76144275 L14.9678656,4.76144275 Z" id="路径" fill="#FFFFFF"></path>
                <path d="M15.3411873,4.45430019 L11.0100726,0.210018412 C10.8733184,0.0747249558 10.6867371,-0.000961027697 10.4923805,9.2146362e-06 L0.729143889,9.2146362e-06 C0.326448839,9.2146362e-06 0,0.319814921 0,0.714303666 L0,19.2857149 C0,19.6802037 0.326448839,20.0000092 0.729143889,20.0000092 L14.8264117,20.0000092 C15.2291067,20.0000092 15.5555556,19.6802037 15.5555556,19.2857149 L15.5555556,4.95858542 C15.5555556,4.76924268 15.4782987,4.58775259 15.3411873,4.45430019 Z M10.6936242,0.574303796 L14.9678656,4.76144275 L10.9371582,4.76144275 C10.8032255,4.76144275 10.6944262,4.65550112 10.6936242,4.52430012 L10.6936242,0.574303796 Z M14.8264117,19.5242862 L0.729143889,19.5242862 C0.664554638,19.5242862 0.602610796,19.4991511 0.556939301,19.4544103 C0.511267806,19.4096695 0.485609836,19.348988 0.485609836,19.2857149 L0.485609836,0.714303666 C0.485609836,0.582875214 0.594981412,0.475732442 0.729143889,0.475732442 L10.2080143,0.475732442 L10.2080143,4.52430012 C10.2080143,4.91878886 10.5344632,5.23858516 10.9371582,5.23858516 L15.0684874,5.23858516 L15.0684874,19.2857149 C15.0684874,19.4169183 14.960342,19.5235005 14.8264117,19.5242862 L14.8264117,19.5242862 Z" id="形状" fill="#605E5C" opacity="0.64"></path>
            </g>
            <rect id="矩形" fill="#0563B2" x="0" y="6.66666667" width="20" height="8.88888889" rx="1"></rect>
            <g id="03s" transform="translate(3.672000, 8.176000)" fill="#FFFFFF" fill-rule="nonzero">
                <path d="M2.088,0 C1.416,0 0.896,0.272 0.528,0.832 C0.176,1.36 0,2.072 0,2.968 C0,3.864 0.176,4.576 0.528,5.104 C0.896,5.656 1.416,5.936 2.088,5.936 C2.752,5.936 3.272,5.656 3.648,5.104 C4,4.576 4.176,3.864 4.176,2.968 C4.176,2.072 4,1.36 3.648,0.832 C3.272,0.272 2.752,0 2.088,0 Z M2.088,0.792 C2.536,0.792 2.856,1.04 3.048,1.552 C3.176,1.896 3.24,2.368 3.24,2.968 C3.24,3.56 3.176,4.032 3.048,4.384 C2.856,4.888 2.536,5.144 2.088,5.144 C1.632,5.144 1.312,4.888 1.128,4.384 C1,4.032 0.936,3.56 0.936,2.968 C0.936,2.368 1,1.896 1.128,1.552 C1.312,1.04 1.632,0.792 2.088,0.792 Z" id="形状"></path>
                <path d="M6.89066667,0 C6.33066667,0 5.86666667,0.152 5.50666667,0.472 C5.12266667,0.792 4.91466667,1.24 4.86666667,1.816 L5.78666667,1.816 C5.81866667,1.472 5.93066667,1.216 6.12266667,1.048 C6.30666667,0.88 6.56266667,0.8 6.89866667,0.8 C7.22666667,0.8 7.47466667,0.872 7.64266667,1.016 C7.79466667,1.16 7.87466667,1.368 7.87466667,1.648 C7.87466667,1.928 7.78666667,2.144 7.61866667,2.288 C7.44266667,2.432 7.18666667,2.504 6.85066667,2.504 L6.45066667,2.504 L6.45066667,3.208 L6.85066667,3.208 C7.21866667,3.208 7.49866667,3.28 7.69066667,3.44 C7.88266667,3.592 7.98666667,3.832 7.98666667,4.16 C7.98666667,4.432 7.89066667,4.656 7.70666667,4.84 C7.49866667,5.04 7.21066667,5.144 6.85066667,5.144 C6.52266667,5.144 6.25866667,5.048 6.05866667,4.864 C5.83466667,4.664 5.72266667,4.376 5.70666667,4.008 L4.75466667,4.008 C4.80266667,4.648 5.02666667,5.144 5.42666667,5.48 C5.78666667,5.784 6.26666667,5.936 6.85866667,5.936 C7.48266667,5.936 7.98666667,5.76 8.37066667,5.416 C8.73866667,5.08 8.92266667,4.648 8.92266667,4.12 C8.92266667,3.784 8.82666667,3.504 8.63466667,3.288 C8.45866667,3.08 8.19466667,2.928 7.85866667,2.824 C8.49066667,2.616 8.81066667,2.2 8.81066667,1.576 C8.81066667,1.08 8.63466667,0.696 8.29066667,0.416 C7.93866667,0.136 7.46666667,0 6.89066667,0 Z" id="路径"></path>
                <path d="M11.2213333,1.576 C10.7093333,1.576 10.3013333,1.68 9.98933333,1.904 C9.66933333,2.112 9.51733333,2.408 9.51733333,2.792 C9.51733333,3.152 9.67733333,3.432 9.99733333,3.632 C10.1973333,3.76 10.5413333,3.88 11.0293333,3.992 C11.4453333,4.088 11.7173333,4.16 11.8453333,4.224 C12.0853333,4.336 12.2053333,4.488 12.2053333,4.68 C12.2053333,5.016 11.8853333,5.192 11.2453333,5.192 C10.9413333,5.192 10.7253333,5.136 10.5893333,5.04 C10.4533333,4.928 10.3573333,4.744 10.3093333,4.48 L9.42133333,4.48 C9.50933333,5.448 10.1253333,5.936 11.2773333,5.936 C12.5173333,5.936 13.1413333,5.496 13.1413333,4.616 C13.1413333,4.248 12.9733333,3.952 12.6453333,3.744 C12.4213333,3.592 12.0693333,3.464 11.6053333,3.352 C11.1893333,3.248 10.9173333,3.168 10.7813333,3.112 C10.5573333,3.016 10.4533333,2.896 10.4533333,2.768 C10.4533333,2.608 10.5173333,2.496 10.6613333,2.424 C10.7813333,2.352 10.9653333,2.32 11.2053333,2.32 C11.4853333,2.32 11.6933333,2.36 11.8293333,2.448 C11.9573333,2.528 12.0533333,2.68 12.1173333,2.888 L13.0053333,2.888 C12.9093333,2.008 12.3093333,1.576 11.2213333,1.576 Z" id="路径"></path>
            </g>
        </g>
    </g>
</svg>