<?xml version="1.0" encoding="UTF-8"?>
<svg width="20px" height="20px" viewBox="0 0 20 20" version="1.1" xmlns="http://www.w3.org/2000/svg" xmlns:xlink="http://www.w3.org/1999/xlink">
    <title>3dm</title>
    <g id="文件图标" stroke="none" stroke-width="1" fill="none" fill-rule="evenodd">
        <g id="编组-3">
            <g id="编组" transform="translate(4.444444, 0.000000)" fill-rule="nonzero">
                <path d="M0.729143889,19.5242862 L14.8264117,19.5242862 C14.960342,19.5235005 15.0684874,19.4169183 15.0684874,19.2857149 L15.0684874,5.23858516 L10.9371582,5.23858516 C10.5344632,5.23858516 10.2080143,4.91878886 10.2080143,4.52430012 L10.2080143,0.475732442 L0.729143889,0.475732442 C0.664554638,0.475732442 0.602610796,0.500867553 0.556939301,0.545608337 C0.511267806,0.590349121 0.485609836,0.651030645 0.485609836,0.714303666 L0.485609836,19.2857149 C0.485609836,19.4171434 0.594981412,19.5242862 0.729143889,19.5242862 Z" id="路径" fill="#FFFFFF"></path>
                <path d="M14.9678656,4.76144275 L10.6950824,0.575732349 L10.6950824,4.52430012 C10.6950824,4.65572857 10.8029957,4.76144275 10.9371582,4.76144275 L14.9678656,4.76144275 L14.9678656,4.76144275 Z" id="路径" fill="#FFFFFF"></path>
                <path d="M15.3411873,4.45430019 L11.0100726,0.210018412 C10.8733184,0.0747249558 10.6867371,-0.000961027697 10.4923805,9.2146362e-06 L0.729143889,9.2146362e-06 C0.326448839,9.2146362e-06 0,0.319814921 0,0.714303666 L0,19.2857149 C0,19.6802037 0.326448839,20.0000092 0.729143889,20.0000092 L14.8264117,20.0000092 C15.2291067,20.0000092 15.5555556,19.6802037 15.5555556,19.2857149 L15.5555556,4.95858542 C15.5555556,4.76924268 15.4782987,4.58775259 15.3411873,4.45430019 Z M10.6936242,0.574303796 L14.9678656,4.76144275 L10.9371582,4.76144275 C10.8032255,4.76144275 10.6944262,4.65550112 10.6936242,4.52430012 L10.6936242,0.574303796 Z M14.8264117,19.5242862 L0.729143889,19.5242862 C0.664554638,19.5242862 0.602610796,19.4991511 0.556939301,19.4544103 C0.511267806,19.4096695 0.485609836,19.348988 0.485609836,19.2857149 L0.485609836,0.714303666 C0.485609836,0.582875214 0.594981412,0.475732442 0.729143889,0.475732442 L10.2080143,0.475732442 L10.2080143,4.52430012 C10.2080143,4.91878886 10.5344632,5.23858516 10.9371582,5.23858516 L15.0684874,5.23858516 L15.0684874,19.2857149 C15.0684874,19.4169183 14.960342,19.5235005 14.8264117,19.5242862 L14.8264117,19.5242862 Z" id="形状" fill="#605E5C" opacity="0.64"></path>
            </g>
            <rect id="矩形" fill="#0563B2" x="0" y="6.66666667" width="20" height="8.88888889" rx="1"></rect>
            <g id="3dm" transform="translate(2.292000, 8.176000)" fill="#FFFFFF" fill-rule="nonzero">
                <path d="M2.136,0 C1.576,0 1.112,0.152 0.752,0.472 C0.368,0.792 0.16,1.24 0.112,1.816 L1.032,1.816 C1.064,1.472 1.176,1.216 1.368,1.048 C1.552,0.88 1.808,0.8 2.144,0.8 C2.472,0.8 2.72,0.872 2.888,1.016 C3.04,1.16 3.12,1.368 3.12,1.648 C3.12,1.928 3.032,2.144 2.864,2.288 C2.688,2.432 2.432,2.504 2.096,2.504 L1.696,2.504 L1.696,3.208 L2.096,3.208 C2.464,3.208 2.744,3.28 2.936,3.44 C3.128,3.592 3.232,3.832 3.232,4.16 C3.232,4.432 3.136,4.656 2.952,4.84 C2.744,5.04 2.456,5.144 2.096,5.144 C1.768,5.144 1.504,5.048 1.304,4.864 C1.08,4.664 0.968,4.376 0.952,4.008 L0,4.008 C0.048,4.648 0.272,5.144 0.672,5.48 C1.032,5.784 1.512,5.936 2.104,5.936 C2.728,5.936 3.232,5.76 3.616,5.416 C3.984,5.08 4.168,4.648 4.168,4.12 C4.168,3.784 4.072,3.504 3.88,3.288 C3.704,3.08 3.44,2.928 3.104,2.824 C3.736,2.616 4.056,2.2 4.056,1.576 C4.056,1.08 3.88,0.696 3.536,0.416 C3.184,0.136 2.712,0 2.136,0 Z" id="路径"></path>
                <path d="M7.85066667,0 L7.85066667,2.256 C7.50666667,1.8 7.09866667,1.576 6.61866667,1.576 C6.02666667,1.576 5.55466667,1.792 5.21866667,2.224 C4.89866667,2.624 4.74666667,3.128 4.74666667,3.736 C4.74666667,4.368 4.90666667,4.888 5.22666667,5.288 C5.57066667,5.72 6.05066667,5.936 6.66666667,5.936 C7.21066667,5.936 7.62666667,5.752 7.91466667,5.384 L7.91466667,5.824 L8.76266667,5.824 L8.76266667,0 L7.85066667,0 Z M6.83466667,2.312 C7.12266667,2.312 7.37066667,2.432 7.56266667,2.672 C7.77066667,2.928 7.88266667,3.28 7.88266667,3.72 L7.88266667,3.784 C7.88266667,4.184 7.79466667,4.52 7.62666667,4.776 C7.43466667,5.056 7.15466667,5.2 6.80266667,5.2 C6.39466667,5.2 6.09866667,5.056 5.91466667,4.768 C5.75466667,4.528 5.68266667,4.184 5.68266667,3.736 C5.68266667,3.288 5.76266667,2.952 5.93066667,2.72 C6.12266667,2.448 6.41866667,2.312 6.83466667,2.312 Z" id="形状"></path>
                <path d="M11.7013333,1.576 C11.3013333,1.576 10.9253333,1.752 10.5813333,2.112 L10.5813333,1.688 L9.66933333,1.688 L9.66933333,5.824 L10.5813333,5.824 L10.5813333,3.344 C10.5813333,3.072 10.6613333,2.832 10.8213333,2.64 C10.9813333,2.432 11.1893333,2.336 11.4533333,2.336 C11.9973333,2.336 12.2693333,2.648 12.2693333,3.28 L12.2693333,5.824 L13.1813333,5.824 L13.1813333,3.296 C13.1813333,2.992 13.2533333,2.76 13.4133333,2.592 C13.5653333,2.416 13.7493333,2.336 13.9733333,2.336 C14.2933333,2.336 14.5173333,2.408 14.6613333,2.56 C14.7973333,2.704 14.8693333,2.944 14.8693333,3.272 L14.8693333,5.824 L15.7813333,5.824 L15.7813333,3.112 C15.7813333,2.656 15.6373333,2.288 15.3653333,2 C15.0773333,1.712 14.7253333,1.576 14.3013333,1.576 C14.0213333,1.576 13.7893333,1.624 13.6053333,1.72 C13.3973333,1.816 13.1973333,1.992 13.0053333,2.248 C12.7413333,1.8 12.3093333,1.576 11.7013333,1.576 Z" id="路径"></path>
            </g>
        </g>
    </g>
</svg>