<?xml version="1.0" encoding="UTF-8"?>
<svg width="20px" height="20px" viewBox="0 0 20 20" version="1.1" xmlns="http://www.w3.org/2000/svg" xmlns:xlink="http://www.w3.org/1999/xlink">
    <title>3dxml</title>
    <g id="文件图标" stroke="none" stroke-width="1" fill="none" fill-rule="evenodd">
        <g id="编组-3">
            <g id="编组" transform="translate(4.444444, 0.000000)" fill-rule="nonzero">
                <path d="M0.729143889,19.5242862 L14.8264117,19.5242862 C14.960342,19.5235005 15.0684874,19.4169183 15.0684874,19.2857149 L15.0684874,5.23858516 L10.9371582,5.23858516 C10.5344632,5.23858516 10.2080143,4.91878886 10.2080143,4.52430012 L10.2080143,0.475732442 L0.729143889,0.475732442 C0.664554638,0.475732442 0.602610796,0.500867553 0.556939301,0.545608337 C0.511267806,0.590349121 0.485609836,0.651030645 0.485609836,0.714303666 L0.485609836,19.2857149 C0.485609836,19.4171434 0.594981412,19.5242862 0.729143889,19.5242862 Z" id="路径" fill="#FFFFFF"></path>
                <path d="M14.9678656,4.76144275 L10.6950824,0.575732349 L10.6950824,4.52430012 C10.6950824,4.65572857 10.8029957,4.76144275 10.9371582,4.76144275 L14.9678656,4.76144275 L14.9678656,4.76144275 Z" id="路径" fill="#FFFFFF"></path>
                <path d="M15.3411873,4.45430019 L11.0100726,0.210018412 C10.8733184,0.0747249558 10.6867371,-0.000961027697 10.4923805,9.2146362e-06 L0.729143889,9.2146362e-06 C0.326448839,9.2146362e-06 0,0.319814921 0,0.714303666 L0,19.2857149 C0,19.6802037 0.326448839,20.0000092 0.729143889,20.0000092 L14.8264117,20.0000092 C15.2291067,20.0000092 15.5555556,19.6802037 15.5555556,19.2857149 L15.5555556,4.95858542 C15.5555556,4.76924268 15.4782987,4.58775259 15.3411873,4.45430019 Z M10.6936242,0.574303796 L14.9678656,4.76144275 L10.9371582,4.76144275 C10.8032255,4.76144275 10.6944262,4.65550112 10.6936242,4.52430012 L10.6936242,0.574303796 Z M14.8264117,19.5242862 L0.729143889,19.5242862 C0.664554638,19.5242862 0.602610796,19.4991511 0.556939301,19.4544103 C0.511267806,19.4096695 0.485609836,19.348988 0.485609836,19.2857149 L0.485609836,0.714303666 C0.485609836,0.582875214 0.594981412,0.475732442 0.729143889,0.475732442 L10.2080143,0.475732442 L10.2080143,4.52430012 C10.2080143,4.91878886 10.5344632,5.23858516 10.9371582,5.23858516 L15.0684874,5.23858516 L15.0684874,19.2857149 C15.0684874,19.4169183 14.960342,19.5235005 14.8264117,19.5242862 L14.8264117,19.5242862 Z" id="形状" fill="#605E5C" opacity="0.64"></path>
            </g>
            <rect id="矩形" fill="#0563B2" x="0" y="6.66666667" width="20" height="8.88888889" rx="1"></rect>
            <g id="3dxml" transform="translate(0.874335, 8.404000)" fill="#FFFFFF" fill-rule="nonzero">
                <path d="M1.869,0 C1.379,0 0.973,0.133 0.658,0.413 C0.322,0.693 0.14,1.085 0.098,1.589 L0.903,1.589 C0.931,1.288 1.029,1.064 1.197,0.917 C1.358,0.77 1.582,0.7 1.876,0.7 C2.163,0.7 2.38,0.763 2.527,0.889 C2.66,1.015 2.73,1.197 2.73,1.442 C2.73,1.687 2.653,1.876 2.506,2.002 C2.352,2.128 2.128,2.191 1.834,2.191 L1.484,2.191 L1.484,2.807 L1.834,2.807 C2.156,2.807 2.401,2.87 2.569,3.01 C2.737,3.143 2.828,3.353 2.828,3.64 C2.828,3.878 2.744,4.074 2.583,4.235 C2.401,4.41 2.149,4.501 1.834,4.501 C1.547,4.501 1.316,4.417 1.141,4.256 C0.945,4.081 0.847,3.829 0.833,3.507 L0,3.507 C0.042,4.067 0.238,4.501 0.588,4.795 C0.903,5.061 1.323,5.194 1.841,5.194 C2.387,5.194 2.828,5.04 3.164,4.739 C3.486,4.445 3.647,4.067 3.647,3.605 C3.647,3.311 3.563,3.066 3.395,2.877 C3.241,2.695 3.01,2.562 2.716,2.471 C3.269,2.289 3.549,1.925 3.549,1.379 C3.549,0.945 3.395,0.609 3.094,0.364 C2.786,0.119 2.373,0 1.869,0 Z" id="路径"></path>
                <path d="M6.669333,0 L6.669333,1.974 C6.368333,1.575 6.011333,1.379 5.591333,1.379 C5.073333,1.379 4.660333,1.568 4.366333,1.946 C4.086333,2.296 3.953333,2.737 3.953333,3.269 C3.953333,3.822 4.093333,4.277 4.373333,4.627 C4.674333,5.005 5.094333,5.194 5.633333,5.194 C6.109333,5.194 6.473333,5.033 6.725333,4.711 L6.725333,5.096 L7.467333,5.096 L7.467333,0 L6.669333,0 Z M5.780333,2.023 C6.032333,2.023 6.249333,2.128 6.417333,2.338 C6.599333,2.562 6.697333,2.87 6.697333,3.255 L6.697333,3.311 C6.697333,3.661 6.620333,3.955 6.473333,4.179 C6.305333,4.424 6.060333,4.55 5.752333,4.55 C5.395333,4.55 5.136333,4.424 4.975333,4.172 C4.835333,3.962 4.772333,3.661 4.772333,3.269 C4.772333,2.877 4.842333,2.583 4.989333,2.38 C5.157333,2.142 5.416333,2.023 5.780333,2.023 Z" id="形状"></path>
                <polygon id="路径" points="7.836666 1.477 9.082666 3.171 7.675666 5.096 8.613666 5.096 9.523666 3.759 10.426666 5.096 11.364666 5.096 9.957666 3.171 11.203666 1.477 10.272666 1.477 9.523666 2.583 8.767666 1.477"></polygon>
                <path d="M13.350999,1.379 C13.000999,1.379 12.671999,1.533 12.370999,1.848 L12.370999,1.477 L11.572999,1.477 L11.572999,5.096 L12.370999,5.096 L12.370999,2.926 C12.370999,2.688 12.440999,2.478 12.580999,2.31 C12.720999,2.128 12.902999,2.044 13.133999,2.044 C13.609999,2.044 13.847999,2.317 13.847999,2.87 L13.847999,5.096 L14.645999,5.096 L14.645999,2.884 C14.645999,2.618 14.708999,2.415 14.848999,2.268 C14.981999,2.114 15.142999,2.044 15.338999,2.044 C15.618999,2.044 15.814999,2.107 15.940999,2.24 C16.059999,2.366 16.122999,2.576 16.122999,2.863 L16.122999,5.096 L16.920999,5.096 L16.920999,2.723 C16.920999,2.324 16.794999,2.002 16.556999,1.75 C16.304999,1.498 15.996999,1.379 15.625999,1.379 C15.380999,1.379 15.177999,1.421 15.016999,1.505 C14.834999,1.589 14.659999,1.743 14.491999,1.967 C14.260999,1.575 13.882999,1.379 13.350999,1.379 Z" id="路径"></path>
                <polygon id="路径" points="17.584332 0 17.584332 5.096 18.382332 5.096 18.382332 0"></polygon>
            </g>
        </g>
    </g>
</svg>