<?xml version="1.0" encoding="UTF-8"?>
<svg width="20px" height="20px" viewBox="0 0 20 20" version="1.1" xmlns="http://www.w3.org/2000/svg" xmlns:xlink="http://www.w3.org/1999/xlink">
    <title>accdb2</title>
    <g id="文件图标" stroke="none" stroke-width="1" fill="none" fill-rule="evenodd">
        <g id="编组-3">
            <g id="编组" transform="translate(4.444444, 0.000000)" fill-rule="nonzero">
                <path d="M0.729143889,19.5242862 L14.8264117,19.5242862 C14.960342,19.5235005 15.0684874,19.4169183 15.0684874,19.2857149 L15.0684874,5.23858516 L10.9371582,5.23858516 C10.5344632,5.23858516 10.2080143,4.91878886 10.2080143,4.52430012 L10.2080143,0.475732442 L0.729143889,0.475732442 C0.664554638,0.475732442 0.602610796,0.500867553 0.556939301,0.545608337 C0.511267806,0.590349121 0.485609836,0.651030645 0.485609836,0.714303666 L0.485609836,19.2857149 C0.485609836,19.4171434 0.594981412,19.5242862 0.729143889,19.5242862 Z" id="路径" fill="#FFFFFF"></path>
                <path d="M14.9678656,4.76144275 L10.6950824,0.575732349 L10.6950824,4.52430012 C10.6950824,4.65572857 10.8029957,4.76144275 10.9371582,4.76144275 L14.9678656,4.76144275 L14.9678656,4.76144275 Z" id="路径" fill="#FFFFFF"></path>
                <path d="M15.3411873,4.45430019 L11.0100726,0.210018412 C10.8733184,0.0747249558 10.6867371,-0.000961027697 10.4923805,9.2146362e-06 L0.729143889,9.2146362e-06 C0.326448839,9.2146362e-06 0,0.319814921 0,0.714303666 L0,19.2857149 C0,19.6802037 0.326448839,20.0000092 0.729143889,20.0000092 L14.8264117,20.0000092 C15.2291067,20.0000092 15.5555556,19.6802037 15.5555556,19.2857149 L15.5555556,4.95858542 C15.5555556,4.76924268 15.4782987,4.58775259 15.3411873,4.45430019 Z M10.6936242,0.574303796 L14.9678656,4.76144275 L10.9371582,4.76144275 C10.8032255,4.76144275 10.6944262,4.65550112 10.6936242,4.52430012 L10.6936242,0.574303796 Z M14.8264117,19.5242862 L0.729143889,19.5242862 C0.664554638,19.5242862 0.602610796,19.4991511 0.556939301,19.4544103 C0.511267806,19.4096695 0.485609836,19.348988 0.485609836,19.2857149 L0.485609836,0.714303666 C0.485609836,0.582875214 0.594981412,0.475732442 0.729143889,0.475732442 L10.2080143,0.475732442 L10.2080143,4.52430012 C10.2080143,4.91878886 10.5344632,5.23858516 10.9371582,5.23858516 L15.0684874,5.23858516 L15.0684874,19.2857149 C15.0684874,19.4169183 14.960342,19.5235005 14.8264117,19.5242862 L14.8264117,19.5242862 Z" id="形状" fill="#605E5C" opacity="0.64"></path>
            </g>
            <g id="编组-4备份" transform="translate(0.000000, 7.000000)">
                <path d="M19,0 C19.5522847,-1.01453063e-16 20,0.44771525 20,1 L20,7.88888889 C20,8.44117364 19.5522847,8.88888889 19,8.88888889 L1,8.88888889 C0.44771525,8.88888889 6.76353751e-17,8.44117364 0,7.88888889 L0,1 C-6.76353751e-17,0.44771525 0.44771525,1.01453063e-16 1,0 L19,0 Z M19.0444832,0.504211426 L1.03848839,0.504211426 C0.762346013,0.504211426 0.538488388,0.728069051 0.538488388,1.00421143 L0.538488388,7.94127083 C0.538488388,8.2174132 0.762346013,8.44127083 1.03848839,8.44127083 L19.0444832,8.44127083 C19.3206256,8.44127083 19.5444832,8.2174132 19.5444832,7.94127083 L19.5444832,1.00421143 C19.5444832,0.728069051 19.3206256,0.504211426 19.0444832,0.504211426 Z" id="形状结合" fill="#0563B2"></path>
                <path d="M1.03848839,0.504211426 L19.0444832,0.504211426 C19.3206256,0.504211426 19.5444832,0.728069051 19.5444832,1.00421143 L19.5444832,7.94127083 C19.5444832,8.2174132 19.3206256,8.44127083 19.0444832,8.44127083 L1.03848839,8.44127083 C0.762346013,8.44127083 0.538488388,8.2174132 0.538488388,7.94127083 L0.538488388,1.00421143 C0.538488388,0.728069051 0.762346013,0.504211426 1.03848839,0.504211426 Z" id="矩形备份-25" fill="#FFFFFF"></path>
            </g>
            <g id="accdb" transform="translate(0.927335, 7.904000)" fill="#0563B2" fill-rule="nonzero">
                <path d="M1.785,1.379 C1.323,1.379 0.959,1.456 0.693,1.624 C0.378,1.806 0.182,2.1 0.105,2.499 L0.896,2.562 C0.938,2.373 1.043,2.233 1.197,2.142 C1.33,2.058 1.505,2.023 1.729,2.023 C2.247,2.023 2.506,2.254 2.506,2.73 L2.506,2.87 L1.715,2.891 C1.183,2.905 0.77,3.017 0.476,3.227 C0.154,3.444 0,3.759 0,4.165 C0,4.466 0.112,4.711 0.336,4.907 C0.553,5.096 0.847,5.194 1.225,5.194 C1.54,5.194 1.813,5.138 2.044,5.033 C2.247,4.935 2.422,4.802 2.562,4.62 L2.562,5.096 L3.304,5.096 L3.304,2.786 C3.304,2.345 3.192,2.009 2.968,1.778 C2.716,1.512 2.317,1.379 1.785,1.379 Z M2.506,3.444 L2.506,3.626 C2.506,3.906 2.394,4.137 2.184,4.319 C1.974,4.494 1.715,4.585 1.407,4.585 C1.232,4.585 1.092,4.536 0.98,4.452 C0.868,4.368 0.819,4.263 0.819,4.137 C0.819,3.703 1.134,3.479 1.771,3.465 L2.506,3.444 Z" id="形状"></path>
                <path d="M5.421333,1.379 C4.854333,1.379 4.413333,1.568 4.098333,1.946 C3.804333,2.289 3.657333,2.737 3.657333,3.283 C3.657333,3.843 3.804333,4.298 4.105333,4.648 C4.413333,5.012 4.847333,5.194 5.407333,5.194 C5.876333,5.194 6.254333,5.075 6.534333,4.844 C6.821333,4.606 7.010333,4.242 7.094333,3.752 L6.303333,3.752 C6.240333,4.277 5.946333,4.543 5.414333,4.543 C5.106333,4.543 4.875333,4.431 4.721333,4.214 C4.553333,3.99 4.476333,3.675 4.476333,3.276 C4.476333,2.884 4.560333,2.576 4.728333,2.359 C4.896333,2.135 5.127333,2.03 5.421333,2.03 C5.659333,2.03 5.855333,2.086 6.002333,2.198 C6.142333,2.31 6.240333,2.478 6.289333,2.709 L7.080333,2.709 C7.010333,2.254 6.828333,1.918 6.541333,1.694 C6.261333,1.484 5.890333,1.379 5.421333,1.379 Z" id="路径"></path>
                <path d="M9.001666,1.379 C8.434666,1.379 7.993666,1.568 7.678666,1.946 C7.384666,2.289 7.237666,2.737 7.237666,3.283 C7.237666,3.843 7.384666,4.298 7.685666,4.648 C7.993666,5.012 8.427666,5.194 8.987666,5.194 C9.456666,5.194 9.834666,5.075 10.114666,4.844 C10.401666,4.606 10.590666,4.242 10.674666,3.752 L9.883666,3.752 C9.820666,4.277 9.526666,4.543 8.994666,4.543 C8.686666,4.543 8.455666,4.431 8.301666,4.214 C8.133666,3.99 8.056666,3.675 8.056666,3.276 C8.056666,2.884 8.140666,2.576 8.308666,2.359 C8.476666,2.135 8.707666,2.03 9.001666,2.03 C9.239666,2.03 9.435666,2.086 9.582666,2.198 C9.722666,2.31 9.820666,2.478 9.869666,2.709 L10.660666,2.709 C10.590666,2.254 10.408666,1.918 10.121666,1.694 C9.841666,1.484 9.470666,1.379 9.001666,1.379 Z" id="路径"></path>
                <path d="M13.533999,0 L13.533999,1.974 C13.232999,1.575 12.875999,1.379 12.455999,1.379 C11.937999,1.379 11.524999,1.568 11.230999,1.946 C10.950999,2.296 10.817999,2.737 10.817999,3.269 C10.817999,3.822 10.957999,4.277 11.237999,4.627 C11.538999,5.005 11.958999,5.194 12.497999,5.194 C12.973999,5.194 13.337999,5.033 13.589999,4.711 L13.589999,5.096 L14.331999,5.096 L14.331999,0 L13.533999,0 Z M12.644999,2.023 C12.896999,2.023 13.113999,2.128 13.281999,2.338 C13.463999,2.562 13.561999,2.87 13.561999,3.255 L13.561999,3.311 C13.561999,3.661 13.484999,3.955 13.337999,4.179 C13.169999,4.424 12.924999,4.55 12.616999,4.55 C12.259999,4.55 12.000999,4.424 11.839999,4.172 C11.699999,3.962 11.636999,3.661 11.636999,3.269 C11.636999,2.877 11.706999,2.583 11.853999,2.38 C12.021999,2.142 12.280999,2.023 12.644999,2.023 Z" id="形状"></path>
                <path d="M14.825332,0 L14.825332,5.096 L15.567332,5.096 L15.567332,4.711 C15.819332,5.033 16.183332,5.194 16.659332,5.194 C17.191332,5.194 17.611332,5.005 17.919332,4.627 C18.199332,4.277 18.339332,3.822 18.339332,3.269 C18.339332,2.737 18.199332,2.296 17.926332,1.946 C17.625332,1.568 17.219332,1.379 16.701332,1.379 C16.281332,1.379 15.917332,1.575 15.623332,1.974 L15.623332,0 L14.825332,0 Z M16.512332,2.023 C16.869332,2.023 17.135332,2.142 17.303332,2.38 C17.443332,2.583 17.520332,2.877 17.520332,3.269 C17.520332,3.661 17.450332,3.962 17.317332,4.172 C17.149332,4.424 16.890332,4.55 16.540332,4.55 C16.225332,4.55 15.987332,4.424 15.819332,4.179 C15.665332,3.955 15.595332,3.661 15.595332,3.311 L15.595332,3.255 C15.595332,2.87 15.686332,2.562 15.875332,2.338 C16.043332,2.128 16.253332,2.023 16.512332,2.023 Z" id="形状"></path>
            </g>
        </g>
    </g>
</svg>