<?xml version="1.0" encoding="UTF-8"?>
<svg width="20px" height="20px" viewBox="0 0 20 20" version="1.1" xmlns="http://www.w3.org/2000/svg" xmlns:xlink="http://www.w3.org/1999/xlink">
    <title>accdb</title>
    <g id="文件图标" stroke="none" stroke-width="1" fill="none" fill-rule="evenodd">
        <g id="编组-3">
            <g id="编组" transform="translate(4.444444, 0.000000)" fill-rule="nonzero">
                <path d="M0.729143889,19.5242862 L14.8264117,19.5242862 C14.960342,19.5235005 15.0684874,19.4169183 15.0684874,19.2857149 L15.0684874,5.23858516 L10.9371582,5.23858516 C10.5344632,5.23858516 10.2080143,4.91878886 10.2080143,4.52430012 L10.2080143,0.475732442 L0.729143889,0.475732442 C0.664554638,0.475732442 0.602610796,0.500867553 0.556939301,0.545608337 C0.511267806,0.590349121 0.485609836,0.651030645 0.485609836,0.714303666 L0.485609836,19.2857149 C0.485609836,19.4171434 0.594981412,19.5242862 0.729143889,19.5242862 Z" id="路径" fill="#FFFFFF"></path>
                <path d="M14.9678656,4.76144275 L10.6950824,0.575732349 L10.6950824,4.52430012 C10.6950824,4.65572857 10.8029957,4.76144275 10.9371582,4.76144275 L14.9678656,4.76144275 L14.9678656,4.76144275 Z" id="路径" fill="#FFFFFF"></path>
                <path d="M15.3411873,4.45430019 L11.0100726,0.210018412 C10.8733184,0.0747249558 10.6867371,-0.000961027697 10.4923805,9.2146362e-06 L0.729143889,9.2146362e-06 C0.326448839,9.2146362e-06 0,0.319814921 0,0.714303666 L0,19.2857149 C0,19.6802037 0.326448839,20.0000092 0.729143889,20.0000092 L14.8264117,20.0000092 C15.2291067,20.0000092 15.5555556,19.6802037 15.5555556,19.2857149 L15.5555556,4.95858542 C15.5555556,4.76924268 15.4782987,4.58775259 15.3411873,4.45430019 Z M10.6936242,0.574303796 L14.9678656,4.76144275 L10.9371582,4.76144275 C10.8032255,4.76144275 10.6944262,4.65550112 10.6936242,4.52430012 L10.6936242,0.574303796 Z M14.8264117,19.5242862 L0.729143889,19.5242862 C0.664554638,19.5242862 0.602610796,19.4991511 0.556939301,19.4544103 C0.511267806,19.4096695 0.485609836,19.348988 0.485609836,19.2857149 L0.485609836,0.714303666 C0.485609836,0.582875214 0.594981412,0.475732442 0.729143889,0.475732442 L10.2080143,0.475732442 L10.2080143,4.52430012 C10.2080143,4.91878886 10.5344632,5.23858516 10.9371582,5.23858516 L15.0684874,5.23858516 L15.0684874,19.2857149 C15.0684874,19.4169183 14.960342,19.5235005 14.8264117,19.5242862 L14.8264117,19.5242862 Z" id="形状" fill="#605E5C" opacity="0.64"></path>
            </g>
            <rect id="矩形" fill="#0563B2" x="0" y="6.66666667" width="20" height="8.88888889" rx="1"></rect>
            <g id="accdb" transform="translate(0.927335, 7.904000)" fill="#FFFFFF" fill-rule="nonzero">
                <path d="M1.785,1.379 C1.323,1.379 0.959,1.456 0.693,1.624 C0.378,1.806 0.182,2.1 0.105,2.499 L0.896,2.562 C0.938,2.373 1.043,2.233 1.197,2.142 C1.33,2.058 1.505,2.023 1.729,2.023 C2.247,2.023 2.506,2.254 2.506,2.73 L2.506,2.87 L1.715,2.891 C1.183,2.905 0.77,3.017 0.476,3.227 C0.154,3.444 0,3.759 0,4.165 C0,4.466 0.112,4.711 0.336,4.907 C0.553,5.096 0.847,5.194 1.225,5.194 C1.54,5.194 1.813,5.138 2.044,5.033 C2.247,4.935 2.422,4.802 2.562,4.62 L2.562,5.096 L3.304,5.096 L3.304,2.786 C3.304,2.345 3.192,2.009 2.968,1.778 C2.716,1.512 2.317,1.379 1.785,1.379 Z M2.506,3.444 L2.506,3.626 C2.506,3.906 2.394,4.137 2.184,4.319 C1.974,4.494 1.715,4.585 1.407,4.585 C1.232,4.585 1.092,4.536 0.98,4.452 C0.868,4.368 0.819,4.263 0.819,4.137 C0.819,3.703 1.134,3.479 1.771,3.465 L2.506,3.444 Z" id="形状"></path>
                <path d="M5.521333,1.379 C4.954333,1.379 4.513333,1.568 4.198333,1.946 C3.904333,2.289 3.757333,2.737 3.757333,3.283 C3.757333,3.843 3.904333,4.298 4.205333,4.648 C4.513333,5.012 4.947333,5.194 5.507333,5.194 C5.976333,5.194 6.354333,5.075 6.634333,4.844 C6.921333,4.606 7.110333,4.242 7.194333,3.752 L6.403333,3.752 C6.340333,4.277 6.046333,4.543 5.514333,4.543 C5.206333,4.543 4.975333,4.431 4.821333,4.214 C4.653333,3.99 4.576333,3.675 4.576333,3.276 C4.576333,2.884 4.660333,2.576 4.828333,2.359 C4.996333,2.135 5.227333,2.03 5.521333,2.03 C5.759333,2.03 5.955333,2.086 6.102333,2.198 C6.242333,2.31 6.340333,2.478 6.389333,2.709 L7.180333,2.709 C7.110333,2.254 6.928333,1.918 6.641333,1.694 C6.361333,1.484 5.990333,1.379 5.521333,1.379 Z" id="路径"></path>
                <path d="M9.201666,1.379 C8.634666,1.379 8.193666,1.568 7.878666,1.946 C7.584666,2.289 7.437666,2.737 7.437666,3.283 C7.437666,3.843 7.584666,4.298 7.885666,4.648 C8.193666,5.012 8.627666,5.194 9.187666,5.194 C9.656666,5.194 10.034666,5.075 10.314666,4.844 C10.601666,4.606 10.790666,4.242 10.874666,3.752 L10.083666,3.752 C10.020666,4.277 9.726666,4.543 9.194666,4.543 C8.886666,4.543 8.655666,4.431 8.501666,4.214 C8.333666,3.99 8.256666,3.675 8.256666,3.276 C8.256666,2.884 8.340666,2.576 8.508666,2.359 C8.676666,2.135 8.907666,2.03 9.201666,2.03 C9.439666,2.03 9.635666,2.086 9.782666,2.198 C9.922666,2.31 10.020666,2.478 10.069666,2.709 L10.860666,2.709 C10.790666,2.254 10.608666,1.918 10.321666,1.694 C10.041666,1.484 9.670666,1.379 9.201666,1.379 Z" id="路径"></path>
                <path d="M13.833999,0 L13.833999,1.974 C13.532999,1.575 13.175999,1.379 12.755999,1.379 C12.237999,1.379 11.824999,1.568 11.530999,1.946 C11.250999,2.296 11.117999,2.737 11.117999,3.269 C11.117999,3.822 11.257999,4.277 11.537999,4.627 C11.838999,5.005 12.258999,5.194 12.797999,5.194 C13.273999,5.194 13.637999,5.033 13.889999,4.711 L13.889999,5.096 L14.631999,5.096 L14.631999,0 L13.833999,0 Z M12.944999,2.023 C13.196999,2.023 13.413999,2.128 13.581999,2.338 C13.763999,2.562 13.861999,2.87 13.861999,3.255 L13.861999,3.311 C13.861999,3.661 13.784999,3.955 13.637999,4.179 C13.469999,4.424 13.224999,4.55 12.916999,4.55 C12.559999,4.55 12.300999,4.424 12.139999,4.172 C11.999999,3.962 11.936999,3.661 11.936999,3.269 C11.936999,2.877 12.006999,2.583 12.153999,2.38 C12.321999,2.142 12.580999,2.023 12.944999,2.023 Z" id="形状"></path>
                <path d="M15.225332,0 L15.225332,5.096 L15.967332,5.096 L15.967332,4.711 C16.219332,5.033 16.583332,5.194 17.059332,5.194 C17.591332,5.194 18.011332,5.005 18.319332,4.627 C18.599332,4.277 18.739332,3.822 18.739332,3.269 C18.739332,2.737 18.599332,2.296 18.326332,1.946 C18.025332,1.568 17.619332,1.379 17.101332,1.379 C16.681332,1.379 16.317332,1.575 16.023332,1.974 L16.023332,0 L15.225332,0 Z M16.912332,2.023 C17.269332,2.023 17.535332,2.142 17.703332,2.38 C17.843332,2.583 17.920332,2.877 17.920332,3.269 C17.920332,3.661 17.850332,3.962 17.717332,4.172 C17.549332,4.424 17.290332,4.55 16.940332,4.55 C16.625332,4.55 16.387332,4.424 16.219332,4.179 C16.065332,3.955 15.995332,3.661 15.995332,3.311 L15.995332,3.255 C15.995332,2.87 16.086332,2.562 16.275332,2.338 C16.443332,2.128 16.653332,2.023 16.912332,2.023 Z" id="形状"></path>
            </g>
        </g>
    </g>
</svg>