<?xml version="1.0" encoding="UTF-8"?>
<svg width="20px" height="20px" viewBox="0 0 20 20" version="1.1" xmlns="http://www.w3.org/2000/svg" xmlns:xlink="http://www.w3.org/1999/xlink">
    <title>art</title>
    <g id="文件图标" stroke="none" stroke-width="1" fill="none" fill-rule="evenodd">
        <g id="编组-3">
            <g id="编组" transform="translate(4.444444, 0.000000)" fill-rule="nonzero">
                <path d="M0.729143889,19.5242862 L14.8264117,19.5242862 C14.960342,19.5235005 15.0684874,19.4169183 15.0684874,19.2857149 L15.0684874,5.23858516 L10.9371582,5.23858516 C10.5344632,5.23858516 10.2080143,4.91878886 10.2080143,4.52430012 L10.2080143,0.475732442 L0.729143889,0.475732442 C0.664554638,0.475732442 0.602610796,0.500867553 0.556939301,0.545608337 C0.511267806,0.590349121 0.485609836,0.651030645 0.485609836,0.714303666 L0.485609836,19.2857149 C0.485609836,19.4171434 0.594981412,19.5242862 0.729143889,19.5242862 Z" id="路径" fill="#FFFFFF"></path>
                <path d="M14.9678656,4.76144275 L10.6950824,0.575732349 L10.6950824,4.52430012 C10.6950824,4.65572857 10.8029957,4.76144275 10.9371582,4.76144275 L14.9678656,4.76144275 L14.9678656,4.76144275 Z" id="路径" fill="#FFFFFF"></path>
                <path d="M15.3411873,4.45430019 L11.0100726,0.210018412 C10.8733184,0.0747249558 10.6867371,-0.000961027697 10.4923805,9.2146362e-06 L0.729143889,9.2146362e-06 C0.326448839,9.2146362e-06 0,0.319814921 0,0.714303666 L0,19.2857149 C0,19.6802037 0.326448839,20.0000092 0.729143889,20.0000092 L14.8264117,20.0000092 C15.2291067,20.0000092 15.5555556,19.6802037 15.5555556,19.2857149 L15.5555556,4.95858542 C15.5555556,4.76924268 15.4782987,4.58775259 15.3411873,4.45430019 Z M10.6936242,0.574303796 L14.9678656,4.76144275 L10.9371582,4.76144275 C10.8032255,4.76144275 10.6944262,4.65550112 10.6936242,4.52430012 L10.6936242,0.574303796 Z M14.8264117,19.5242862 L0.729143889,19.5242862 C0.664554638,19.5242862 0.602610796,19.4991511 0.556939301,19.4544103 C0.511267806,19.4096695 0.485609836,19.348988 0.485609836,19.2857149 L0.485609836,0.714303666 C0.485609836,0.582875214 0.594981412,0.475732442 0.729143889,0.475732442 L10.2080143,0.475732442 L10.2080143,4.52430012 C10.2080143,4.91878886 10.5344632,5.23858516 10.9371582,5.23858516 L15.0684874,5.23858516 L15.0684874,19.2857149 C15.0684874,19.4169183 14.960342,19.5235005 14.8264117,19.5242862 L14.8264117,19.5242862 Z" id="形状" fill="#605E5C" opacity="0.64"></path>
            </g>
            <rect id="矩形" fill="#0563B2" x="0" y="6.66666667" width="20" height="8.88888889" rx="1"></rect>
            <g id="art" transform="translate(3.768000, 7.844000)" fill="#FFFFFF" fill-rule="nonzero">
                <path d="M2.295,1.377 C1.701,1.377 1.233,1.476 0.891,1.692 C0.486,1.926 0.234,2.304 0.135,2.817 L1.152,2.898 C1.206,2.655 1.341,2.475 1.539,2.358 C1.71,2.25 1.935,2.205 2.223,2.205 C2.889,2.205 3.222,2.502 3.222,3.114 L3.222,3.294 L2.205,3.321 C1.521,3.339 0.99,3.483 0.612,3.753 C0.198,4.032 0,4.437 0,4.959 C0,5.346 0.144,5.661 0.432,5.913 C0.711,6.156 1.089,6.282 1.575,6.282 C1.98,6.282 2.331,6.21 2.628,6.075 C2.889,5.949 3.114,5.778 3.294,5.544 L3.294,6.156 L4.248,6.156 L4.248,3.186 C4.248,2.619 4.104,2.187 3.816,1.89 C3.492,1.548 2.979,1.377 2.295,1.377 Z M3.222,4.032 L3.222,4.266 C3.222,4.626 3.078,4.923 2.808,5.157 C2.538,5.382 2.205,5.499 1.809,5.499 C1.584,5.499 1.404,5.436 1.26,5.328 C1.116,5.22 1.053,5.085 1.053,4.923 C1.053,4.365 1.458,4.077 2.277,4.059 L3.222,4.032 Z" id="形状"></path>
                <path d="M7.464,1.377 C7.176,1.377 6.933,1.458 6.726,1.629 C6.555,1.755 6.411,1.935 6.285,2.169 L6.285,1.503 L5.268,1.503 L5.268,6.156 L6.285,6.156 L6.285,3.69 C6.285,3.294 6.402,2.979 6.654,2.736 C6.87,2.52 7.113,2.421 7.383,2.421 C7.599,2.421 7.815,2.448 8.049,2.52 L8.049,1.494 C7.887,1.413 7.689,1.377 7.464,1.377 Z" id="路径"></path>
                <path d="M10.032,0 L9.006,0.423 L9.006,1.503 L8.169,1.503 L8.169,2.349 L9.006,2.349 L9.006,4.977 C9.006,5.355 9.096,5.634 9.276,5.832 C9.465,6.048 9.762,6.156 10.167,6.156 L10.95,6.156 L10.95,5.31 L10.338,5.31 C10.23,5.31 10.158,5.283 10.104,5.229 C10.05,5.166 10.032,5.085 10.032,4.977 L10.032,2.349 L11.067,2.349 L11.067,1.503 L10.032,1.503 L10.032,0 Z" id="路径"></path>
            </g>
        </g>
    </g>
</svg>