<?xml version="1.0" encoding="UTF-8"?>
<svg width="20px" height="20px" viewBox="0 0 20 20" version="1.1" xmlns="http://www.w3.org/2000/svg" xmlns:xlink="http://www.w3.org/1999/xlink">
    <title>asab2</title>
    <g id="文件图标" stroke="none" stroke-width="1" fill="none" fill-rule="evenodd">
        <g id="编组-3">
            <g id="编组" transform="translate(4.444444, 0.000000)" fill-rule="nonzero">
                <path d="M0.729143889,19.5242862 L14.8264117,19.5242862 C14.960342,19.5235005 15.0684874,19.4169183 15.0684874,19.2857149 L15.0684874,5.23858516 L10.9371582,5.23858516 C10.5344632,5.23858516 10.2080143,4.91878886 10.2080143,4.52430012 L10.2080143,0.475732442 L0.729143889,0.475732442 C0.664554638,0.475732442 0.602610796,0.500867553 0.556939301,0.545608337 C0.511267806,0.590349121 0.485609836,0.651030645 0.485609836,0.714303666 L0.485609836,19.2857149 C0.485609836,19.4171434 0.594981412,19.5242862 0.729143889,19.5242862 Z" id="路径" fill="#FFFFFF"></path>
                <path d="M14.9678656,4.76144275 L10.6950824,0.575732349 L10.6950824,4.52430012 C10.6950824,4.65572857 10.8029957,4.76144275 10.9371582,4.76144275 L14.9678656,4.76144275 L14.9678656,4.76144275 Z" id="路径" fill="#FFFFFF"></path>
                <path d="M15.3411873,4.45430019 L11.0100726,0.210018412 C10.8733184,0.0747249558 10.6867371,-0.000961027697 10.4923805,9.2146362e-06 L0.729143889,9.2146362e-06 C0.326448839,9.2146362e-06 0,0.319814921 0,0.714303666 L0,19.2857149 C0,19.6802037 0.326448839,20.0000092 0.729143889,20.0000092 L14.8264117,20.0000092 C15.2291067,20.0000092 15.5555556,19.6802037 15.5555556,19.2857149 L15.5555556,4.95858542 C15.5555556,4.76924268 15.4782987,4.58775259 15.3411873,4.45430019 Z M10.6936242,0.574303796 L14.9678656,4.76144275 L10.9371582,4.76144275 C10.8032255,4.76144275 10.6944262,4.65550112 10.6936242,4.52430012 L10.6936242,0.574303796 Z M14.8264117,19.5242862 L0.729143889,19.5242862 C0.664554638,19.5242862 0.602610796,19.4991511 0.556939301,19.4544103 C0.511267806,19.4096695 0.485609836,19.348988 0.485609836,19.2857149 L0.485609836,0.714303666 C0.485609836,0.582875214 0.594981412,0.475732442 0.729143889,0.475732442 L10.2080143,0.475732442 L10.2080143,4.52430012 C10.2080143,4.91878886 10.5344632,5.23858516 10.9371582,5.23858516 L15.0684874,5.23858516 L15.0684874,19.2857149 C15.0684874,19.4169183 14.960342,19.5235005 14.8264117,19.5242862 L14.8264117,19.5242862 Z" id="形状" fill="#605E5C" opacity="0.64"></path>
            </g>
            <g id="编组-4备份" transform="translate(0.000000, 7.000000)">
                <path d="M19,0 C19.5522847,-1.01453063e-16 20,0.44771525 20,1 L20,7.88888889 C20,8.44117364 19.5522847,8.88888889 19,8.88888889 L1,8.88888889 C0.44771525,8.88888889 6.76353751e-17,8.44117364 0,7.88888889 L0,1 C-6.76353751e-17,0.44771525 0.44771525,1.01453063e-16 1,0 L19,0 Z M19.0444832,0.504211426 L1.03848839,0.504211426 C0.762346013,0.504211426 0.538488388,0.728069051 0.538488388,1.00421143 L0.538488388,7.94127083 C0.538488388,8.2174132 0.762346013,8.44127083 1.03848839,8.44127083 L19.0444832,8.44127083 C19.3206256,8.44127083 19.5444832,8.2174132 19.5444832,7.94127083 L19.5444832,1.00421143 C19.5444832,0.728069051 19.3206256,0.504211426 19.0444832,0.504211426 Z" id="形状结合" fill="#0563B2"></path>
                <path d="M1.03848839,0.504211426 L19.0444832,0.504211426 C19.3206256,0.504211426 19.5444832,0.728069051 19.5444832,1.00421143 L19.5444832,7.94127083 C19.5444832,8.2174132 19.3206256,8.44127083 19.0444832,8.44127083 L1.03848839,8.44127083 C0.762346013,8.44127083 0.538488388,8.2174132 0.538488388,7.94127083 L0.538488388,1.00421143 C0.538488388,0.728069051 0.762346013,0.504211426 1.03848839,0.504211426 Z" id="矩形备份-25" fill="#FFFFFF"></path>
            </g>
            <g id="asab" transform="translate(0.461000, 7.848000)" fill="#0563B2" fill-rule="nonzero">
                <path d="M2.295,1.773 C1.701,1.773 1.233,1.872 0.891,2.088 C0.486,2.322 0.234,2.7 0.135,3.213 L1.152,3.294 C1.206,3.051 1.341,2.871 1.539,2.754 C1.71,2.646 1.935,2.601 2.223,2.601 C2.889,2.601 3.222,2.898 3.222,3.51 L3.222,3.69 L2.205,3.717 C1.521,3.735 0.99,3.879 0.612,4.149 C0.198,4.428 0,4.833 0,5.355 C0,5.742 0.144,6.057 0.432,6.309 C0.711,6.552 1.089,6.678 1.575,6.678 C1.98,6.678 2.331,6.606 2.628,6.471 C2.889,6.345 3.114,6.174 3.294,5.94 L3.294,6.552 L4.248,6.552 L4.248,3.582 C4.248,3.015 4.104,2.583 3.816,2.286 C3.492,1.944 2.979,1.773 2.295,1.773 Z M3.222,4.428 L3.222,4.662 C3.222,5.022 3.078,5.319 2.808,5.553 C2.538,5.778 2.205,5.895 1.809,5.895 C1.584,5.895 1.404,5.832 1.26,5.724 C1.116,5.616 1.053,5.481 1.053,5.319 C1.053,4.761 1.458,4.473 2.277,4.455 L3.222,4.428 Z" id="形状"></path>
                <path d="M6.823,1.773 C6.247,1.773 5.788,1.89 5.437,2.142 C5.077,2.376 4.906,2.709 4.906,3.141 C4.906,3.546 5.086,3.861 5.446,4.086 C5.671,4.23 6.058,4.365 6.607,4.491 C7.075,4.599 7.381,4.68 7.525,4.752 C7.795,4.878 7.93,5.049 7.93,5.265 C7.93,5.643 7.57,5.841 6.85,5.841 C6.508,5.841 6.265,5.778 6.112,5.67 C5.959,5.544 5.851,5.337 5.797,5.04 L4.798,5.04 C4.897,6.129 5.59,6.678 6.886,6.678 C8.281,6.678 8.983,6.183 8.983,5.193 C8.983,4.779 8.794,4.446 8.425,4.212 C8.173,4.041 7.777,3.897 7.255,3.771 C6.787,3.654 6.481,3.564 6.328,3.501 C6.076,3.393 5.959,3.258 5.959,3.114 C5.959,2.934 6.031,2.808 6.193,2.727 C6.328,2.646 6.535,2.61 6.805,2.61 C7.12,2.61 7.354,2.655 7.507,2.754 C7.651,2.844 7.759,3.015 7.831,3.249 L8.83,3.249 C8.722,2.259 8.047,1.773 6.823,1.773 Z" id="路径"></path>
                <path d="M11.648,1.773 C11.054,1.773 10.586,1.872 10.244,2.088 C9.839,2.322 9.587,2.7 9.488,3.213 L10.505,3.294 C10.559,3.051 10.694,2.871 10.892,2.754 C11.063,2.646 11.288,2.601 11.576,2.601 C12.242,2.601 12.575,2.898 12.575,3.51 L12.575,3.69 L11.558,3.717 C10.874,3.735 10.343,3.879 9.965,4.149 C9.551,4.428 9.353,4.833 9.353,5.355 C9.353,5.742 9.497,6.057 9.785,6.309 C10.064,6.552 10.442,6.678 10.928,6.678 C11.333,6.678 11.684,6.606 11.981,6.471 C12.242,6.345 12.467,6.174 12.647,5.94 L12.647,6.552 L13.601,6.552 L13.601,3.582 C13.601,3.015 13.457,2.583 13.169,2.286 C12.845,1.944 12.332,1.773 11.648,1.773 Z M12.575,4.428 L12.575,4.662 C12.575,5.022 12.431,5.319 12.161,5.553 C11.891,5.778 11.558,5.895 11.162,5.895 C10.937,5.895 10.757,5.832 10.613,5.724 C10.469,5.616 10.406,5.481 10.406,5.319 C10.406,4.761 10.811,4.473 11.63,4.455 L12.575,4.428 Z" id="形状"></path>
                <path d="M14.421,0 L14.421,6.552 L15.375,6.552 L15.375,6.057 C15.699,6.471 16.167,6.678 16.779,6.678 C17.463,6.678 18.003,6.435 18.399,5.949 C18.759,5.499 18.939,4.914 18.939,4.203 C18.939,3.519 18.759,2.952 18.408,2.502 C18.021,2.016 17.499,1.773 16.833,1.773 C16.293,1.773 15.825,2.025 15.447,2.538 L15.447,0 L14.421,0 Z M16.59,2.601 C17.049,2.601 17.391,2.754 17.607,3.06 C17.787,3.321 17.886,3.699 17.886,4.203 C17.886,4.707 17.796,5.094 17.625,5.364 C17.409,5.688 17.076,5.85 16.626,5.85 C16.221,5.85 15.915,5.688 15.699,5.373 C15.501,5.085 15.411,4.707 15.411,4.257 L15.411,4.185 C15.411,3.69 15.528,3.294 15.771,3.006 C15.987,2.736 16.257,2.601 16.59,2.601 Z" id="形状"></path>
            </g>
        </g>
    </g>
</svg>