<?xml version="1.0" encoding="UTF-8"?>
<svg width="20px" height="20px" viewBox="0 0 20 20" version="1.1" xmlns="http://www.w3.org/2000/svg" xmlns:xlink="http://www.w3.org/1999/xlink">
    <title>asat</title>
    <g id="文件图标" stroke="none" stroke-width="1" fill="none" fill-rule="evenodd">
        <g id="编组-3">
            <g id="编组" transform="translate(4.444444, 0.000000)" fill-rule="nonzero">
                <path d="M0.729143889,19.5242862 L14.8264117,19.5242862 C14.960342,19.5235005 15.0684874,19.4169183 15.0684874,19.2857149 L15.0684874,5.23858516 L10.9371582,5.23858516 C10.5344632,5.23858516 10.2080143,4.91878886 10.2080143,4.52430012 L10.2080143,0.475732442 L0.729143889,0.475732442 C0.664554638,0.475732442 0.602610796,0.500867553 0.556939301,0.545608337 C0.511267806,0.590349121 0.485609836,0.651030645 0.485609836,0.714303666 L0.485609836,19.2857149 C0.485609836,19.4171434 0.594981412,19.5242862 0.729143889,19.5242862 Z" id="路径" fill="#FFFFFF"></path>
                <path d="M14.9678656,4.76144275 L10.6950824,0.575732349 L10.6950824,4.52430012 C10.6950824,4.65572857 10.8029957,4.76144275 10.9371582,4.76144275 L14.9678656,4.76144275 L14.9678656,4.76144275 Z" id="路径" fill="#FFFFFF"></path>
                <path d="M15.3411873,4.45430019 L11.0100726,0.210018412 C10.8733184,0.0747249558 10.6867371,-0.000961027697 10.4923805,9.2146362e-06 L0.729143889,9.2146362e-06 C0.326448839,9.2146362e-06 0,0.319814921 0,0.714303666 L0,19.2857149 C0,19.6802037 0.326448839,20.0000092 0.729143889,20.0000092 L14.8264117,20.0000092 C15.2291067,20.0000092 15.5555556,19.6802037 15.5555556,19.2857149 L15.5555556,4.95858542 C15.5555556,4.76924268 15.4782987,4.58775259 15.3411873,4.45430019 Z M10.6936242,0.574303796 L14.9678656,4.76144275 L10.9371582,4.76144275 C10.8032255,4.76144275 10.6944262,4.65550112 10.6936242,4.52430012 L10.6936242,0.574303796 Z M14.8264117,19.5242862 L0.729143889,19.5242862 C0.664554638,19.5242862 0.602610796,19.4991511 0.556939301,19.4544103 C0.511267806,19.4096695 0.485609836,19.348988 0.485609836,19.2857149 L0.485609836,0.714303666 C0.485609836,0.582875214 0.594981412,0.475732442 0.729143889,0.475732442 L10.2080143,0.475732442 L10.2080143,4.52430012 C10.2080143,4.91878886 10.5344632,5.23858516 10.9371582,5.23858516 L15.0684874,5.23858516 L15.0684874,19.2857149 C15.0684874,19.4169183 14.960342,19.5235005 14.8264117,19.5242862 L14.8264117,19.5242862 Z" id="形状" fill="#605E5C" opacity="0.64"></path>
            </g>
            <rect id="矩形" fill="#0563B2" x="0" y="6.66666667" width="20" height="8.88888889" rx="1"></rect>
            <g id="asat" transform="translate(1.321000, 7.644000)" fill="#FFFFFF" fill-rule="nonzero">
                <path d="M2.295,1.377 C1.701,1.377 1.233,1.476 0.891,1.692 C0.486,1.926 0.234,2.304 0.135,2.817 L1.152,2.898 C1.206,2.655 1.341,2.475 1.539,2.358 C1.71,2.25 1.935,2.205 2.223,2.205 C2.889,2.205 3.222,2.502 3.222,3.114 L3.222,3.294 L2.205,3.321 C1.521,3.339 0.99,3.483 0.612,3.753 C0.198,4.032 0,4.437 0,4.959 C0,5.346 0.144,5.661 0.432,5.913 C0.711,6.156 1.089,6.282 1.575,6.282 C1.98,6.282 2.331,6.21 2.628,6.075 C2.889,5.949 3.114,5.778 3.294,5.544 L3.294,6.156 L4.248,6.156 L4.248,3.186 C4.248,2.619 4.104,2.187 3.816,1.89 C3.492,1.548 2.979,1.377 2.295,1.377 Z M3.222,4.032 L3.222,4.266 C3.222,4.626 3.078,4.923 2.808,5.157 C2.538,5.382 2.205,5.499 1.809,5.499 C1.584,5.499 1.404,5.436 1.26,5.328 C1.116,5.22 1.053,5.085 1.053,4.923 C1.053,4.365 1.458,4.077 2.277,4.059 L3.222,4.032 Z" id="形状"></path>
                <path d="M7.023,1.377 C6.447,1.377 5.988,1.494 5.637,1.746 C5.277,1.98 5.106,2.313 5.106,2.745 C5.106,3.15 5.286,3.465 5.646,3.69 C5.871,3.834 6.258,3.969 6.807,4.095 C7.275,4.203 7.581,4.284 7.725,4.356 C7.995,4.482 8.13,4.653 8.13,4.869 C8.13,5.247 7.77,5.445 7.05,5.445 C6.708,5.445 6.465,5.382 6.312,5.274 C6.159,5.148 6.051,4.941 5.997,4.644 L4.998,4.644 C5.097,5.733 5.79,6.282 7.086,6.282 C8.481,6.282 9.183,5.787 9.183,4.797 C9.183,4.383 8.994,4.05 8.625,3.816 C8.373,3.645 7.977,3.501 7.455,3.375 C6.987,3.258 6.681,3.168 6.528,3.105 C6.276,2.997 6.159,2.862 6.159,2.718 C6.159,2.538 6.231,2.412 6.393,2.331 C6.528,2.25 6.735,2.214 7.005,2.214 C7.32,2.214 7.554,2.259 7.707,2.358 C7.851,2.448 7.959,2.619 8.031,2.853 L9.03,2.853 C8.922,1.863 8.247,1.377 7.023,1.377 Z" id="路径"></path>
                <path d="M12.048,1.377 C11.454,1.377 10.986,1.476 10.644,1.692 C10.239,1.926 9.987,2.304 9.888,2.817 L10.905,2.898 C10.959,2.655 11.094,2.475 11.292,2.358 C11.463,2.25 11.688,2.205 11.976,2.205 C12.642,2.205 12.975,2.502 12.975,3.114 L12.975,3.294 L11.958,3.321 C11.274,3.339 10.743,3.483 10.365,3.753 C9.951,4.032 9.753,4.437 9.753,4.959 C9.753,5.346 9.897,5.661 10.185,5.913 C10.464,6.156 10.842,6.282 11.328,6.282 C11.733,6.282 12.084,6.21 12.381,6.075 C12.642,5.949 12.867,5.778 13.047,5.544 L13.047,6.156 L14.001,6.156 L14.001,3.186 C14.001,2.619 13.857,2.187 13.569,1.89 C13.245,1.548 12.732,1.377 12.048,1.377 Z M12.975,4.032 L12.975,4.266 C12.975,4.626 12.831,4.923 12.561,5.157 C12.291,5.382 11.958,5.499 11.562,5.499 C11.337,5.499 11.157,5.436 11.013,5.328 C10.869,5.22 10.806,5.085 10.806,4.923 C10.806,4.365 11.211,4.077 12.03,4.059 L12.975,4.032 Z" id="形状"></path>
                <path d="M16.479,0 L15.453,0.423 L15.453,1.503 L14.616,1.503 L14.616,2.349 L15.453,2.349 L15.453,4.977 C15.453,5.355 15.543,5.634 15.723,5.832 C15.912,6.048 16.209,6.156 16.614,6.156 L17.397,6.156 L17.397,5.31 L16.785,5.31 C16.677,5.31 16.605,5.283 16.551,5.229 C16.497,5.166 16.479,5.085 16.479,4.977 L16.479,2.349 L17.514,2.349 L17.514,1.503 L16.479,1.503 L16.479,0 Z" id="路径"></path>
            </g>
        </g>
    </g>
</svg>