<?xml version="1.0" encoding="UTF-8"?>
<svg width="20px" height="20px" viewBox="0 0 20 20" version="1.1" xmlns="http://www.w3.org/2000/svg" xmlns:xlink="http://www.w3.org/1999/xlink">
    <title>asm</title>
    <g id="文件图标" stroke="none" stroke-width="1" fill="none" fill-rule="evenodd">
        <g id="编组-3">
            <g id="编组" transform="translate(4.444444, 0.000000)" fill-rule="nonzero">
                <path d="M0.729143889,19.5242862 L14.8264117,19.5242862 C14.960342,19.5235005 15.0684874,19.4169183 15.0684874,19.2857149 L15.0684874,5.23858516 L10.9371582,5.23858516 C10.5344632,5.23858516 10.2080143,4.91878886 10.2080143,4.52430012 L10.2080143,0.475732442 L0.729143889,0.475732442 C0.664554638,0.475732442 0.602610796,0.500867553 0.556939301,0.545608337 C0.511267806,0.590349121 0.485609836,0.651030645 0.485609836,0.714303666 L0.485609836,19.2857149 C0.485609836,19.4171434 0.594981412,19.5242862 0.729143889,19.5242862 Z" id="路径" fill="#FFFFFF"></path>
                <path d="M14.9678656,4.76144275 L10.6950824,0.575732349 L10.6950824,4.52430012 C10.6950824,4.65572857 10.8029957,4.76144275 10.9371582,4.76144275 L14.9678656,4.76144275 L14.9678656,4.76144275 Z" id="路径" fill="#FFFFFF"></path>
                <path d="M15.3411873,4.45430019 L11.0100726,0.210018412 C10.8733184,0.0747249558 10.6867371,-0.000961027697 10.4923805,9.2146362e-06 L0.729143889,9.2146362e-06 C0.326448839,9.2146362e-06 0,0.319814921 0,0.714303666 L0,19.2857149 C0,19.6802037 0.326448839,20.0000092 0.729143889,20.0000092 L14.8264117,20.0000092 C15.2291067,20.0000092 15.5555556,19.6802037 15.5555556,19.2857149 L15.5555556,4.95858542 C15.5555556,4.76924268 15.4782987,4.58775259 15.3411873,4.45430019 Z M10.6936242,0.574303796 L14.9678656,4.76144275 L10.9371582,4.76144275 C10.8032255,4.76144275 10.6944262,4.65550112 10.6936242,4.52430012 L10.6936242,0.574303796 Z M14.8264117,19.5242862 L0.729143889,19.5242862 C0.664554638,19.5242862 0.602610796,19.4991511 0.556939301,19.4544103 C0.511267806,19.4096695 0.485609836,19.348988 0.485609836,19.2857149 L0.485609836,0.714303666 C0.485609836,0.582875214 0.594981412,0.475732442 0.729143889,0.475732442 L10.2080143,0.475732442 L10.2080143,4.52430012 C10.2080143,4.91878886 10.5344632,5.23858516 10.9371582,5.23858516 L15.0684874,5.23858516 L15.0684874,19.2857149 C15.0684874,19.4169183 14.960342,19.5235005 14.8264117,19.5242862 L14.8264117,19.5242862 Z" id="形状" fill="#605E5C" opacity="0.64"></path>
            </g>
            <rect id="矩形" fill="#0563B2" x="0" y="6.66666667" width="20" height="8.88888889" rx="1"></rect>
            <g id="asm" transform="translate(1.711000, 9.221000)" fill="#FFFFFF" fill-rule="nonzero">
                <path d="M2.295,0 C1.701,0 1.233,0.099 0.891,0.315 C0.486,0.549 0.234,0.927 0.135,1.44 L1.152,1.521 C1.206,1.278 1.341,1.098 1.539,0.981 C1.71,0.873 1.935,0.828 2.223,0.828 C2.889,0.828 3.222,1.125 3.222,1.737 L3.222,1.917 L2.205,1.944 C1.521,1.962 0.99,2.106 0.612,2.376 C0.198,2.655 0,3.06 0,3.582 C0,3.969 0.144,4.284 0.432,4.536 C0.711,4.779 1.089,4.905 1.575,4.905 C1.98,4.905 2.331,4.833 2.628,4.698 C2.889,4.572 3.114,4.401 3.294,4.167 L3.294,4.779 L4.248,4.779 L4.248,1.809 C4.248,1.242 4.104,0.81 3.816,0.513 C3.492,0.171 2.979,0 2.295,0 Z M3.222,2.655 L3.222,2.889 C3.222,3.249 3.078,3.546 2.808,3.78 C2.538,4.005 2.205,4.122 1.809,4.122 C1.584,4.122 1.404,4.059 1.26,3.951 C1.116,3.843 1.053,3.708 1.053,3.546 C1.053,2.988 1.458,2.7 2.277,2.682 L3.222,2.655 Z" id="形状"></path>
                <path d="M7.023,0 C6.447,0 5.988,0.117 5.637,0.369 C5.277,0.603 5.106,0.936 5.106,1.368 C5.106,1.773 5.286,2.088 5.646,2.313 C5.871,2.457 6.258,2.592 6.807,2.718 C7.275,2.826 7.581,2.907 7.725,2.979 C7.995,3.105 8.13,3.276 8.13,3.492 C8.13,3.87 7.77,4.068 7.05,4.068 C6.708,4.068 6.465,4.005 6.312,3.897 C6.159,3.771 6.051,3.564 5.997,3.267 L4.998,3.267 C5.097,4.356 5.79,4.905 7.086,4.905 C8.481,4.905 9.183,4.41 9.183,3.42 C9.183,3.006 8.994,2.673 8.625,2.439 C8.373,2.268 7.977,2.124 7.455,1.998 C6.987,1.881 6.681,1.791 6.528,1.728 C6.276,1.62 6.159,1.485 6.159,1.341 C6.159,1.161 6.231,1.035 6.393,0.954 C6.528,0.873 6.735,0.837 7.005,0.837 C7.32,0.837 7.554,0.882 7.707,0.981 C7.851,1.071 7.959,1.242 8.031,1.476 L9.03,1.476 C8.922,0.486 8.247,0 7.023,0 Z" id="路径"></path>
                <path d="M12.219,0 C11.769,0 11.346,0.198 10.959,0.603 L10.959,0.126 L9.933,0.126 L9.933,4.779 L10.959,4.779 L10.959,1.989 C10.959,1.683 11.049,1.413 11.229,1.197 C11.409,0.963 11.643,0.855 11.94,0.855 C12.552,0.855 12.858,1.206 12.858,1.917 L12.858,4.779 L13.884,4.779 L13.884,1.935 C13.884,1.593 13.965,1.332 14.145,1.143 C14.316,0.945 14.523,0.855 14.775,0.855 C15.135,0.855 15.387,0.936 15.549,1.107 C15.702,1.269 15.783,1.539 15.783,1.908 L15.783,4.779 L16.809,4.779 L16.809,1.728 C16.809,1.215 16.647,0.801 16.341,0.477 C16.017,0.153 15.621,0 15.144,0 C14.829,0 14.568,0.054 14.361,0.162 C14.127,0.27 13.902,0.468 13.686,0.756 C13.389,0.252 12.903,0 12.219,0 Z" id="路径"></path>
            </g>
        </g>
    </g>
</svg>