<?xml version="1.0" encoding="UTF-8"?>
<svg width="20px" height="20px" viewBox="0 0 20 20" version="1.1" xmlns="http://www.w3.org/2000/svg" xmlns:xlink="http://www.w3.org/1999/xlink">
    <title>bin</title>
    <g id="文件图标" stroke="none" stroke-width="1" fill="none" fill-rule="evenodd">
        <g id="编组-3">
            <g id="编组" transform="translate(4.444444, 0.000000)" fill-rule="nonzero">
                <path d="M0.729143889,19.5242862 L14.8264117,19.5242862 C14.960342,19.5235005 15.0684874,19.4169183 15.0684874,19.2857149 L15.0684874,5.23858516 L10.9371582,5.23858516 C10.5344632,5.23858516 10.2080143,4.91878886 10.2080143,4.52430012 L10.2080143,0.475732442 L0.729143889,0.475732442 C0.664554638,0.475732442 0.602610796,0.500867553 0.556939301,0.545608337 C0.511267806,0.590349121 0.485609836,0.651030645 0.485609836,0.714303666 L0.485609836,19.2857149 C0.485609836,19.4171434 0.594981412,19.5242862 0.729143889,19.5242862 Z" id="路径" fill="#FFFFFF"></path>
                <path d="M14.9678656,4.76144275 L10.6950824,0.575732349 L10.6950824,4.52430012 C10.6950824,4.65572857 10.8029957,4.76144275 10.9371582,4.76144275 L14.9678656,4.76144275 L14.9678656,4.76144275 Z" id="路径" fill="#FFFFFF"></path>
                <path d="M15.3411873,4.45430019 L11.0100726,0.210018412 C10.8733184,0.0747249558 10.6867371,-0.000961027697 10.4923805,9.2146362e-06 L0.729143889,9.2146362e-06 C0.326448839,9.2146362e-06 0,0.319814921 0,0.714303666 L0,19.2857149 C0,19.6802037 0.326448839,20.0000092 0.729143889,20.0000092 L14.8264117,20.0000092 C15.2291067,20.0000092 15.5555556,19.6802037 15.5555556,19.2857149 L15.5555556,4.95858542 C15.5555556,4.76924268 15.4782987,4.58775259 15.3411873,4.45430019 Z M10.6936242,0.574303796 L14.9678656,4.76144275 L10.9371582,4.76144275 C10.8032255,4.76144275 10.6944262,4.65550112 10.6936242,4.52430012 L10.6936242,0.574303796 Z M14.8264117,19.5242862 L0.729143889,19.5242862 C0.664554638,19.5242862 0.602610796,19.4991511 0.556939301,19.4544103 C0.511267806,19.4096695 0.485609836,19.348988 0.485609836,19.2857149 L0.485609836,0.714303666 C0.485609836,0.582875214 0.594981412,0.475732442 0.729143889,0.475732442 L10.2080143,0.475732442 L10.2080143,4.52430012 C10.2080143,4.91878886 10.5344632,5.23858516 10.9371582,5.23858516 L15.0684874,5.23858516 L15.0684874,19.2857149 C15.0684874,19.4169183 14.960342,19.5235005 14.8264117,19.5242862 L14.8264117,19.5242862 Z" id="形状" fill="#605E5C" opacity="0.64"></path>
            </g>
            <rect id="矩形" fill="#0563B2" x="0" y="6.66666667" width="20" height="8.88888889" rx="1"></rect>
            <g id="bin" transform="translate(4.598000, 7.448000)" fill="#FFFFFF" fill-rule="nonzero">
                <path d="M0,0 L0,6.552 L0.954,6.552 L0.954,6.057 C1.278,6.471 1.746,6.678 2.358,6.678 C3.042,6.678 3.582,6.435 3.978,5.949 C4.338,5.499 4.518,4.914 4.518,4.203 C4.518,3.519 4.338,2.952 3.987,2.502 C3.6,2.016 3.078,1.773 2.412,1.773 C1.872,1.773 1.404,2.025 1.026,2.538 L1.026,0 L0,0 Z M2.169,2.601 C2.628,2.601 2.97,2.754 3.186,3.06 C3.366,3.321 3.465,3.699 3.465,4.203 C3.465,4.707 3.375,5.094 3.204,5.364 C2.988,5.688 2.655,5.85 2.205,5.85 C1.8,5.85 1.494,5.688 1.278,5.373 C1.08,5.085 0.99,4.707 0.99,4.257 L0.99,4.185 C0.99,3.69 1.107,3.294 1.35,3.006 C1.566,2.736 1.836,2.601 2.169,2.601 Z" id="形状"></path>
                <path d="M6.051,0 C5.853,0 5.691,0.063 5.556,0.189 C5.421,0.315 5.358,0.477 5.358,0.675 C5.358,0.873 5.421,1.035 5.556,1.17 C5.691,1.296 5.853,1.359 6.051,1.359 C6.249,1.359 6.411,1.296 6.546,1.17 C6.681,1.044 6.753,0.873 6.753,0.675 C6.753,0.477 6.681,0.315 6.555,0.189 C6.42,0.063 6.249,0 6.051,0 Z M5.538,1.899 L5.538,6.552 L6.564,6.552 L6.564,1.899 L5.538,1.899 Z" id="形状"></path>
                <path d="M10.176,1.773 C9.897,1.773 9.645,1.827 9.411,1.944 C9.186,2.052 8.979,2.223 8.799,2.439 L8.799,1.899 L7.773,1.899 L7.773,6.552 L8.799,6.552 L8.799,3.753 C8.835,3.384 8.961,3.096 9.177,2.898 C9.366,2.718 9.591,2.628 9.843,2.628 C10.545,2.628 10.896,3.006 10.896,3.771 L10.896,6.552 L11.922,6.552 L11.922,3.681 C11.922,2.403 11.337,1.773 10.176,1.773 Z" id="路径"></path>
            </g>
        </g>
    </g>
</svg>