<?xml version="1.0" encoding="UTF-8"?>
<svg width="20px" height="20px" viewBox="0 0 20 20" version="1.1" xmlns="http://www.w3.org/2000/svg" xmlns:xlink="http://www.w3.org/1999/xlink">
    <title>bmp</title>
    <g id="文件图标" stroke="none" stroke-width="1" fill="none" fill-rule="evenodd">
        <g id="编组-3">
            <g id="编组" transform="translate(4.444444, 0.000000)" fill-rule="nonzero">
                <path d="M0.729143889,19.5242862 L14.8264117,19.5242862 C14.960342,19.5235005 15.0684874,19.4169183 15.0684874,19.2857149 L15.0684874,5.23858516 L10.9371582,5.23858516 C10.5344632,5.23858516 10.2080143,4.91878886 10.2080143,4.52430012 L10.2080143,0.475732442 L0.729143889,0.475732442 C0.664554638,0.475732442 0.602610796,0.500867553 0.556939301,0.545608337 C0.511267806,0.590349121 0.485609836,0.651030645 0.485609836,0.714303666 L0.485609836,19.2857149 C0.485609836,19.4171434 0.594981412,19.5242862 0.729143889,19.5242862 Z" id="路径" fill="#FFFFFF"></path>
                <path d="M14.9678656,4.76144275 L10.6950824,0.575732349 L10.6950824,4.52430012 C10.6950824,4.65572857 10.8029957,4.76144275 10.9371582,4.76144275 L14.9678656,4.76144275 L14.9678656,4.76144275 Z" id="路径" fill="#FFFFFF"></path>
                <path d="M15.3411873,4.45430019 L11.0100726,0.210018412 C10.8733184,0.0747249558 10.6867371,-0.000961027697 10.4923805,9.2146362e-06 L0.729143889,9.2146362e-06 C0.326448839,9.2146362e-06 0,0.319814921 0,0.714303666 L0,19.2857149 C0,19.6802037 0.326448839,20.0000092 0.729143889,20.0000092 L14.8264117,20.0000092 C15.2291067,20.0000092 15.5555556,19.6802037 15.5555556,19.2857149 L15.5555556,4.95858542 C15.5555556,4.76924268 15.4782987,4.58775259 15.3411873,4.45430019 Z M10.6936242,0.574303796 L14.9678656,4.76144275 L10.9371582,4.76144275 C10.8032255,4.76144275 10.6944262,4.65550112 10.6936242,4.52430012 L10.6936242,0.574303796 Z M14.8264117,19.5242862 L0.729143889,19.5242862 C0.664554638,19.5242862 0.602610796,19.4991511 0.556939301,19.4544103 C0.511267806,19.4096695 0.485609836,19.348988 0.485609836,19.2857149 L0.485609836,0.714303666 C0.485609836,0.582875214 0.594981412,0.475732442 0.729143889,0.475732442 L10.2080143,0.475732442 L10.2080143,4.52430012 C10.2080143,4.91878886 10.5344632,5.23858516 10.9371582,5.23858516 L15.0684874,5.23858516 L15.0684874,19.2857149 C15.0684874,19.4169183 14.960342,19.5235005 14.8264117,19.5242862 L14.8264117,19.5242862 Z" id="形状" fill="#605E5C" opacity="0.64"></path>
            </g>
            <rect id="矩形" fill="#0563B2" x="0" y="6.66666667" width="20" height="8.88888889" rx="1"></rect>
            <g id="bmp" transform="translate(1.928000, 7.248000)" fill="#FFFFFF" fill-rule="nonzero">
                <path d="M2.27373675e-13,0 L2.27373675e-13,6.552 L0.954,6.552 L0.954,6.057 C1.278,6.471 1.746,6.678 2.358,6.678 C3.042,6.678 3.582,6.435 3.978,5.949 C4.338,5.499 4.518,4.914 4.518,4.203 C4.518,3.519 4.338,2.952 3.987,2.502 C3.6,2.016 3.078,1.773 2.412,1.773 C1.872,1.773 1.404,2.025 1.026,2.538 L1.026,0 L2.27373675e-13,0 Z M2.169,2.601 C2.628,2.601 2.97,2.754 3.186,3.06 C3.366,3.321 3.465,3.699 3.465,4.203 C3.465,4.707 3.375,5.094 3.204,5.364 C2.988,5.688 2.655,5.85 2.205,5.85 C1.8,5.85 1.494,5.688 1.278,5.373 C1.08,5.085 0.99,4.707 0.99,4.257 L0.99,4.185 C0.99,3.69 1.107,3.294 1.35,3.006 C1.566,2.736 1.836,2.601 2.169,2.601 Z" id="形状"></path>
                <path d="M7.644,1.773 C7.194,1.773 6.771,1.971 6.384,2.376 L6.384,1.899 L5.358,1.899 L5.358,6.552 L6.384,6.552 L6.384,3.762 C6.384,3.456 6.474,3.186 6.654,2.97 C6.834,2.736 7.068,2.628 7.365,2.628 C7.977,2.628 8.283,2.979 8.283,3.69 L8.283,6.552 L9.309,6.552 L9.309,3.708 C9.309,3.366 9.39,3.105 9.57,2.916 C9.741,2.718 9.948,2.628 10.2,2.628 C10.56,2.628 10.812,2.709 10.974,2.88 C11.127,3.042 11.208,3.312 11.208,3.681 L11.208,6.552 L12.234,6.552 L12.234,3.501 C12.234,2.988 12.072,2.574 11.766,2.25 C11.442,1.926 11.046,1.773 10.569,1.773 C10.254,1.773 9.993,1.827 9.786,1.935 C9.552,2.043 9.327,2.241 9.111,2.529 C8.814,2.025 8.328,1.773 7.644,1.773 Z" id="路径"></path>
                <path d="M15.612,1.773 C15,1.773 14.532,1.98 14.208,2.394 L14.208,1.899 L13.254,1.899 L13.254,8.334 L14.28,8.334 L14.28,5.913 C14.658,6.417 15.126,6.678 15.666,6.678 C16.332,6.678 16.863,6.435 17.241,5.949 C17.592,5.499 17.772,4.932 17.772,4.248 C17.772,3.528 17.592,2.952 17.232,2.502 C16.836,2.016 16.296,1.773 15.612,1.773 Z M15.459,2.601 C15.909,2.601 16.242,2.763 16.458,3.087 C16.629,3.357 16.719,3.744 16.719,4.248 C16.719,4.752 16.62,5.139 16.431,5.409 C16.215,5.697 15.873,5.85 15.423,5.85 C15.09,5.85 14.82,5.715 14.604,5.445 C14.361,5.148 14.244,4.752 14.244,4.266 L14.244,4.194 C14.244,3.726 14.334,3.357 14.532,3.078 C14.748,2.754 15.054,2.601 15.459,2.601 Z" id="形状"></path>
            </g>
        </g>
    </g>
</svg>