<?xml version="1.0" encoding="UTF-8"?>
<svg width="20px" height="20px" viewBox="0 0 20 20" version="1.1" xmlns="http://www.w3.org/2000/svg" xmlns:xlink="http://www.w3.org/1999/xlink">
    <title>c3s</title>
    <g id="文件图标" stroke="none" stroke-width="1" fill="none" fill-rule="evenodd">
        <g id="编组-3">
            <g id="编组" transform="translate(4.444444, 0.000000)" fill-rule="nonzero">
                <path d="M0.729143889,19.5242862 L14.8264117,19.5242862 C14.960342,19.5235005 15.0684874,19.4169183 15.0684874,19.2857149 L15.0684874,5.23858516 L10.9371582,5.23858516 C10.5344632,5.23858516 10.2080143,4.91878886 10.2080143,4.52430012 L10.2080143,0.475732442 L0.729143889,0.475732442 C0.664554638,0.475732442 0.602610796,0.500867553 0.556939301,0.545608337 C0.511267806,0.590349121 0.485609836,0.651030645 0.485609836,0.714303666 L0.485609836,19.2857149 C0.485609836,19.4171434 0.594981412,19.5242862 0.729143889,19.5242862 Z" id="路径" fill="#FFFFFF"></path>
                <path d="M14.9678656,4.76144275 L10.6950824,0.575732349 L10.6950824,4.52430012 C10.6950824,4.65572857 10.8029957,4.76144275 10.9371582,4.76144275 L14.9678656,4.76144275 L14.9678656,4.76144275 Z" id="路径" fill="#FFFFFF"></path>
                <path d="M15.3411873,4.45430019 L11.0100726,0.210018412 C10.8733184,0.0747249558 10.6867371,-0.000961027697 10.4923805,9.2146362e-06 L0.729143889,9.2146362e-06 C0.326448839,9.2146362e-06 0,0.319814921 0,0.714303666 L0,19.2857149 C0,19.6802037 0.326448839,20.0000092 0.729143889,20.0000092 L14.8264117,20.0000092 C15.2291067,20.0000092 15.5555556,19.6802037 15.5555556,19.2857149 L15.5555556,4.95858542 C15.5555556,4.76924268 15.4782987,4.58775259 15.3411873,4.45430019 Z M10.6936242,0.574303796 L14.9678656,4.76144275 L10.9371582,4.76144275 C10.8032255,4.76144275 10.6944262,4.65550112 10.6936242,4.52430012 L10.6936242,0.574303796 Z M14.8264117,19.5242862 L0.729143889,19.5242862 C0.664554638,19.5242862 0.602610796,19.4991511 0.556939301,19.4544103 C0.511267806,19.4096695 0.485609836,19.348988 0.485609836,19.2857149 L0.485609836,0.714303666 C0.485609836,0.582875214 0.594981412,0.475732442 0.729143889,0.475732442 L10.2080143,0.475732442 L10.2080143,4.52430012 C10.2080143,4.91878886 10.5344632,5.23858516 10.9371582,5.23858516 L15.0684874,5.23858516 L15.0684874,19.2857149 C15.0684874,19.4169183 14.960342,19.5235005 14.8264117,19.5242862 L14.8264117,19.5242862 Z" id="形状" fill="#605E5C" opacity="0.64"></path>
            </g>
            <rect id="矩形" fill="#0563B2" x="0" y="6.66666667" width="20" height="8.88888889" rx="1"></rect>
            <g id="c3s" transform="translate(3.366000, 7.448000)" fill="#FFFFFF" fill-rule="nonzero">
                <path d="M2.268,1.773 C1.539,1.773 0.972,2.016 0.567,2.502 C0.189,2.943 0,3.519 0,4.221 C0,4.941 0.189,5.526 0.576,5.976 C0.972,6.444 1.53,6.678 2.25,6.678 C2.853,6.678 3.339,6.525 3.699,6.228 C4.068,5.922 4.311,5.454 4.419,4.824 L3.402,4.824 C3.321,5.499 2.943,5.841 2.259,5.841 C1.863,5.841 1.566,5.697 1.368,5.418 C1.152,5.13 1.053,4.725 1.053,4.212 C1.053,3.708 1.161,3.312 1.377,3.033 C1.593,2.745 1.89,2.61 2.268,2.61 C2.574,2.61 2.826,2.682 3.015,2.826 C3.195,2.97 3.321,3.186 3.384,3.483 L4.401,3.483 C4.311,2.898 4.077,2.466 3.708,2.178 C3.348,1.908 2.871,1.773 2.268,1.773 Z" id="路径"></path>
                <path d="M7.392,0 C6.762,0 6.24,0.171 5.835,0.531 C5.403,0.891 5.169,1.395 5.115,2.043 L6.15,2.043 C6.186,1.656 6.312,1.368 6.528,1.179 C6.735,0.99 7.023,0.9 7.401,0.9 C7.77,0.9 8.049,0.981 8.238,1.143 C8.409,1.305 8.499,1.539 8.499,1.854 C8.499,2.169 8.4,2.412 8.211,2.574 C8.013,2.736 7.725,2.817 7.347,2.817 L6.897,2.817 L6.897,3.609 L7.347,3.609 C7.761,3.609 8.076,3.69 8.292,3.87 C8.508,4.041 8.625,4.311 8.625,4.68 C8.625,4.986 8.517,5.238 8.31,5.445 C8.076,5.67 7.752,5.787 7.347,5.787 C6.978,5.787 6.681,5.679 6.456,5.472 C6.204,5.247 6.078,4.923 6.06,4.509 L4.989,4.509 C5.043,5.229 5.295,5.787 5.745,6.165 C6.15,6.507 6.69,6.678 7.356,6.678 C8.058,6.678 8.625,6.48 9.057,6.093 C9.471,5.715 9.678,5.229 9.678,4.635 C9.678,4.257 9.57,3.942 9.354,3.699 C9.156,3.465 8.859,3.294 8.481,3.177 C9.192,2.943 9.552,2.475 9.552,1.773 C9.552,1.215 9.354,0.783 8.967,0.468 C8.571,0.153 8.04,0 7.392,0 Z" id="路径"></path>
                <path d="M12.264,1.773 C11.688,1.773 11.229,1.89 10.878,2.142 C10.518,2.376 10.347,2.709 10.347,3.141 C10.347,3.546 10.527,3.861 10.887,4.086 C11.112,4.23 11.499,4.365 12.048,4.491 C12.516,4.599 12.822,4.68 12.966,4.752 C13.236,4.878 13.371,5.049 13.371,5.265 C13.371,5.643 13.011,5.841 12.291,5.841 C11.949,5.841 11.706,5.778 11.553,5.67 C11.4,5.544 11.292,5.337 11.238,5.04 L10.239,5.04 C10.338,6.129 11.031,6.678 12.327,6.678 C13.722,6.678 14.424,6.183 14.424,5.193 C14.424,4.779 14.235,4.446 13.866,4.212 C13.614,4.041 13.218,3.897 12.696,3.771 C12.228,3.654 11.922,3.564 11.769,3.501 C11.517,3.393 11.4,3.258 11.4,3.114 C11.4,2.934 11.472,2.808 11.634,2.727 C11.769,2.646 11.976,2.61 12.246,2.61 C12.561,2.61 12.795,2.655 12.948,2.754 C13.092,2.844 13.2,3.015 13.272,3.249 L14.271,3.249 C14.163,2.259 13.488,1.773 12.264,1.773 Z" id="路径"></path>
            </g>
        </g>
    </g>
</svg>