<?xml version="1.0" encoding="UTF-8"?>
<svg width="20px" height="20px" viewBox="0 0 20 20" version="1.1" xmlns="http://www.w3.org/2000/svg" xmlns:xlink="http://www.w3.org/1999/xlink">
    <title>catprod2</title>
    <g id="文件图标" stroke="none" stroke-width="1" fill="none" fill-rule="evenodd">
        <g id="编组-3">
            <g id="编组" transform="translate(4.444444, 0.000000)" fill-rule="nonzero">
                <path d="M0.729143889,19.5242862 L14.8264117,19.5242862 C14.960342,19.5235005 15.0684874,19.4169183 15.0684874,19.2857149 L15.0684874,5.23858516 L10.9371582,5.23858516 C10.5344632,5.23858516 10.2080143,4.91878886 10.2080143,4.52430012 L10.2080143,0.475732442 L0.729143889,0.475732442 C0.664554638,0.475732442 0.602610796,0.500867553 0.556939301,0.545608337 C0.511267806,0.590349121 0.485609836,0.651030645 0.485609836,0.714303666 L0.485609836,19.2857149 C0.485609836,19.4171434 0.594981412,19.5242862 0.729143889,19.5242862 Z" id="路径" fill="#FFFFFF"></path>
                <path d="M14.9678656,4.76144275 L10.6950824,0.575732349 L10.6950824,4.52430012 C10.6950824,4.65572857 10.8029957,4.76144275 10.9371582,4.76144275 L14.9678656,4.76144275 L14.9678656,4.76144275 Z" id="路径" fill="#FFFFFF"></path>
                <path d="M15.3411873,4.45430019 L11.0100726,0.210018412 C10.8733184,0.0747249558 10.6867371,-0.000961027697 10.4923805,9.2146362e-06 L0.729143889,9.2146362e-06 C0.326448839,9.2146362e-06 0,0.319814921 0,0.714303666 L0,19.2857149 C0,19.6802037 0.326448839,20.0000092 0.729143889,20.0000092 L14.8264117,20.0000092 C15.2291067,20.0000092 15.5555556,19.6802037 15.5555556,19.2857149 L15.5555556,4.95858542 C15.5555556,4.76924268 15.4782987,4.58775259 15.3411873,4.45430019 Z M10.6936242,0.574303796 L14.9678656,4.76144275 L10.9371582,4.76144275 C10.8032255,4.76144275 10.6944262,4.65550112 10.6936242,4.52430012 L10.6936242,0.574303796 Z M14.8264117,19.5242862 L0.729143889,19.5242862 C0.664554638,19.5242862 0.602610796,19.4991511 0.556939301,19.4544103 C0.511267806,19.4096695 0.485609836,19.348988 0.485609836,19.2857149 L0.485609836,0.714303666 C0.485609836,0.582875214 0.594981412,0.475732442 0.729143889,0.475732442 L10.2080143,0.475732442 L10.2080143,4.52430012 C10.2080143,4.91878886 10.5344632,5.23858516 10.9371582,5.23858516 L15.0684874,5.23858516 L15.0684874,19.2857149 C15.0684874,19.4169183 14.960342,19.5235005 14.8264117,19.5242862 L14.8264117,19.5242862 Z" id="形状" fill="#605E5C" opacity="0.64"></path>
            </g>
            <g id="编组-4备份" transform="translate(0.000000, 7.000000)">
                <path d="M19,0 C19.5522847,-1.01453063e-16 20,0.44771525 20,1 L20,7.88888889 C20,8.44117364 19.5522847,8.88888889 19,8.88888889 L1,8.88888889 C0.44771525,8.88888889 6.76353751e-17,8.44117364 0,7.88888889 L0,1 C-6.76353751e-17,0.44771525 0.44771525,1.01453063e-16 1,0 L19,0 Z M19.0444832,0.504211426 L1.03848839,0.504211426 C0.762346013,0.504211426 0.538488388,0.728069051 0.538488388,1.00421143 L0.538488388,7.94127083 C0.538488388,8.2174132 0.762346013,8.44127083 1.03848839,8.44127083 L19.0444832,8.44127083 C19.3206256,8.44127083 19.5444832,8.2174132 19.5444832,7.94127083 L19.5444832,1.00421143 C19.5444832,0.728069051 19.3206256,0.504211426 19.0444832,0.504211426 Z" id="形状结合" fill="#0563B2"></path>
                <path d="M1.03848839,0.504211426 L19.0444832,0.504211426 C19.3206256,0.504211426 19.5444832,0.728069051 19.5444832,1.00421143 L19.5444832,7.94127083 C19.5444832,8.2174132 19.3206256,8.44127083 19.0444832,8.44127083 L1.03848839,8.44127083 C0.762346013,8.44127083 0.538488388,8.2174132 0.538488388,7.94127083 L0.538488388,1.00421143 C0.538488388,0.728069051 0.762346013,0.504211426 1.03848839,0.504211426 Z" id="矩形备份-25" fill="#FFFFFF"></path>
            </g>
            <g id="catprod" transform="translate(0.835000, 9.360000)" fill="#0563B2" fill-rule="nonzero">
                <path d="M1.26,0.985 C0.855,0.985 0.54,1.12 0.315,1.39 C0.105,1.635 0,1.955 0,2.345 C0,2.745 0.105,3.07 0.32,3.32 C0.54,3.58 0.85,3.71 1.25,3.71 C1.585,3.71 1.855,3.625 2.055,3.46 C2.26,3.29 2.395,3.03 2.455,2.68 L1.89,2.68 C1.845,3.055 1.635,3.245 1.255,3.245 C1.035,3.245 0.87,3.165 0.76,3.01 C0.64,2.85 0.585,2.625 0.585,2.34 C0.585,2.06 0.645,1.84 0.765,1.685 C0.885,1.525 1.05,1.45 1.26,1.45 C1.43,1.45 1.57,1.49 1.675,1.57 C1.775,1.65 1.845,1.77 1.88,1.935 L2.445,1.935 C2.395,1.61 2.265,1.37 2.06,1.21 C1.86,1.06 1.595,0.985 1.26,0.985 Z" id="路径"></path>
                <path d="M4.08,0.985 C3.75,0.985 3.49,1.04 3.3,1.16 C3.075,1.29 2.935,1.5 2.88,1.785 L3.445,1.83 C3.475,1.695 3.55,1.595 3.66,1.53 C3.755,1.47 3.88,1.445 4.04,1.445 C4.41,1.445 4.595,1.61 4.595,1.95 L4.595,2.05 L4.03,2.065 C3.65,2.075 3.355,2.155 3.145,2.305 C2.915,2.46 2.805,2.685 2.805,2.975 C2.805,3.19 2.885,3.365 3.045,3.505 C3.2,3.64 3.41,3.71 3.68,3.71 C3.905,3.71 4.1,3.67 4.265,3.595 C4.41,3.525 4.535,3.43 4.635,3.3 L4.635,3.64 L5.165,3.64 L5.165,1.99 C5.165,1.675 5.085,1.435 4.925,1.27 C4.745,1.08 4.46,0.985 4.08,0.985 Z M4.595,2.46 L4.595,2.59 C4.595,2.79 4.515,2.955 4.365,3.085 C4.215,3.21 4.03,3.275 3.81,3.275 C3.685,3.275 3.585,3.24 3.505,3.18 C3.425,3.12 3.39,3.045 3.39,2.955 C3.39,2.645 3.615,2.485 4.07,2.475 L4.595,2.46 Z" id="形状"></path>
                <path d="M6.575,0.22 L6.005,0.455 L6.005,1.055 L5.54,1.055 L5.54,1.525 L6.005,1.525 L6.005,2.985 C6.005,3.195 6.055,3.35 6.155,3.46 C6.26,3.58 6.425,3.64 6.65,3.64 L7.085,3.64 L7.085,3.17 L6.745,3.17 C6.685,3.17 6.645,3.155 6.615,3.125 C6.585,3.09 6.575,3.045 6.575,2.985 L6.575,1.525 L7.15,1.525 L7.15,1.055 L6.575,1.055 L6.575,0.22 Z" id="路径"></path>
                <path d="M8.885,0.985 C8.545,0.985 8.285,1.1 8.105,1.33 L8.105,1.055 L7.575,1.055 L7.575,4.63 L8.145,4.63 L8.145,3.285 C8.355,3.565 8.615,3.71 8.915,3.71 C9.285,3.71 9.58,3.575 9.79,3.305 C9.985,3.055 10.085,2.74 10.085,2.36 C10.085,1.96 9.985,1.64 9.785,1.39 C9.565,1.12 9.265,0.985 8.885,0.985 Z M8.8,1.445 C9.05,1.445 9.235,1.535 9.355,1.715 C9.45,1.865 9.5,2.08 9.5,2.36 C9.5,2.64 9.445,2.855 9.34,3.005 C9.22,3.165 9.03,3.25 8.78,3.25 C8.595,3.25 8.445,3.175 8.325,3.025 C8.19,2.86 8.125,2.64 8.125,2.37 L8.125,2.33 C8.125,2.07 8.175,1.865 8.285,1.71 C8.405,1.53 8.575,1.445 8.8,1.445 Z" id="形状"></path>
                <path d="M11.805,0.985 C11.645,0.985 11.51,1.03 11.395,1.125 C11.3,1.195 11.22,1.295 11.15,1.425 L11.15,1.055 L10.585,1.055 L10.585,3.64 L11.15,3.64 L11.15,2.27 C11.15,2.05 11.215,1.875 11.355,1.74 C11.475,1.62 11.61,1.565 11.76,1.565 C11.88,1.565 12,1.58 12.13,1.62 L12.13,1.05 C12.04,1.005 11.93,0.985 11.805,0.985 Z" id="路径"></path>
                <path d="M13.655,0.985 C13.26,0.985 12.945,1.11 12.71,1.37 C12.47,1.625 12.355,1.95 12.355,2.35 C12.355,2.745 12.47,3.07 12.705,3.32 C12.945,3.58 13.26,3.71 13.655,3.71 C14.045,3.71 14.365,3.58 14.605,3.32 C14.835,3.07 14.955,2.745 14.955,2.35 C14.955,1.95 14.835,1.625 14.6,1.37 C14.36,1.11 14.045,0.985 13.655,0.985 Z M13.655,1.45 C13.89,1.45 14.075,1.54 14.205,1.73 C14.315,1.89 14.375,2.1 14.375,2.35 C14.375,2.595 14.315,2.8 14.205,2.965 C14.075,3.15 13.89,3.245 13.655,3.245 C13.415,3.245 13.235,3.15 13.105,2.965 C12.995,2.805 12.94,2.6 12.94,2.35 C12.94,2.1 12.995,1.89 13.105,1.73 C13.235,1.54 13.415,1.45 13.655,1.45 Z" id="形状"></path>
                <path d="M17.295,0 L17.295,1.41 C17.08,1.125 16.825,0.985 16.525,0.985 C16.155,0.985 15.86,1.12 15.65,1.39 C15.45,1.64 15.355,1.955 15.355,2.335 C15.355,2.73 15.455,3.055 15.655,3.305 C15.87,3.575 16.17,3.71 16.555,3.71 C16.895,3.71 17.155,3.595 17.335,3.365 L17.335,3.64 L17.865,3.64 L17.865,0 L17.295,0 Z M16.66,1.445 C16.84,1.445 16.995,1.52 17.115,1.67 C17.245,1.83 17.315,2.05 17.315,2.325 L17.315,2.365 C17.315,2.615 17.26,2.825 17.155,2.985 C17.035,3.16 16.86,3.25 16.64,3.25 C16.385,3.25 16.2,3.16 16.085,2.98 C15.985,2.83 15.94,2.615 15.94,2.335 C15.94,2.055 15.99,1.845 16.095,1.7 C16.215,1.53 16.4,1.445 16.66,1.445 Z" id="形状"></path>
            </g>
        </g>
    </g>
</svg>