<?xml version="1.0" encoding="UTF-8"?>
<svg width="20px" height="20px" viewBox="0 0 20 20" version="1.1" xmlns="http://www.w3.org/2000/svg" xmlns:xlink="http://www.w3.org/1999/xlink">
    <title>catpart2</title>
    <g id="文件图标" stroke="none" stroke-width="1" fill="none" fill-rule="evenodd">
        <g id="编组-3">
            <g id="编组" transform="translate(4.444444, 0.000000)" fill-rule="nonzero">
                <path d="M0.729143889,19.5242862 L14.8264117,19.5242862 C14.960342,19.5235005 15.0684874,19.4169183 15.0684874,19.2857149 L15.0684874,5.23858516 L10.9371582,5.23858516 C10.5344632,5.23858516 10.2080143,4.91878886 10.2080143,4.52430012 L10.2080143,0.475732442 L0.729143889,0.475732442 C0.664554638,0.475732442 0.602610796,0.500867553 0.556939301,0.545608337 C0.511267806,0.590349121 0.485609836,0.651030645 0.485609836,0.714303666 L0.485609836,19.2857149 C0.485609836,19.4171434 0.594981412,19.5242862 0.729143889,19.5242862 Z" id="路径" fill="#FFFFFF"></path>
                <path d="M14.9678656,4.76144275 L10.6950824,0.575732349 L10.6950824,4.52430012 C10.6950824,4.65572857 10.8029957,4.76144275 10.9371582,4.76144275 L14.9678656,4.76144275 L14.9678656,4.76144275 Z" id="路径" fill="#FFFFFF"></path>
                <path d="M15.3411873,4.45430019 L11.0100726,0.210018412 C10.8733184,0.0747249558 10.6867371,-0.000961027697 10.4923805,9.2146362e-06 L0.729143889,9.2146362e-06 C0.326448839,9.2146362e-06 0,0.319814921 0,0.714303666 L0,19.2857149 C0,19.6802037 0.326448839,20.0000092 0.729143889,20.0000092 L14.8264117,20.0000092 C15.2291067,20.0000092 15.5555556,19.6802037 15.5555556,19.2857149 L15.5555556,4.95858542 C15.5555556,4.76924268 15.4782987,4.58775259 15.3411873,4.45430019 Z M10.6936242,0.574303796 L14.9678656,4.76144275 L10.9371582,4.76144275 C10.8032255,4.76144275 10.6944262,4.65550112 10.6936242,4.52430012 L10.6936242,0.574303796 Z M14.8264117,19.5242862 L0.729143889,19.5242862 C0.664554638,19.5242862 0.602610796,19.4991511 0.556939301,19.4544103 C0.511267806,19.4096695 0.485609836,19.348988 0.485609836,19.2857149 L0.485609836,0.714303666 C0.485609836,0.582875214 0.594981412,0.475732442 0.729143889,0.475732442 L10.2080143,0.475732442 L10.2080143,4.52430012 C10.2080143,4.91878886 10.5344632,5.23858516 10.9371582,5.23858516 L15.0684874,5.23858516 L15.0684874,19.2857149 C15.0684874,19.4169183 14.960342,19.5235005 14.8264117,19.5242862 L14.8264117,19.5242862 Z" id="形状" fill="#605E5C" opacity="0.64"></path>
            </g>
            <g id="编组-4备份" transform="translate(0.000000, 7.000000)">
                <path d="M19,0 C19.5522847,-1.01453063e-16 20,0.44771525 20,1 L20,7.88888889 C20,8.44117364 19.5522847,8.88888889 19,8.88888889 L1,8.88888889 C0.44771525,8.88888889 6.76353751e-17,8.44117364 0,7.88888889 L0,1 C-6.76353751e-17,0.44771525 0.44771525,1.01453063e-16 1,0 L19,0 Z M19.0444832,0.504211426 L1.03848839,0.504211426 C0.762346013,0.504211426 0.538488388,0.728069051 0.538488388,1.00421143 L0.538488388,7.94127083 C0.538488388,8.2174132 0.762346013,8.44127083 1.03848839,8.44127083 L19.0444832,8.44127083 C19.3206256,8.44127083 19.5444832,8.2174132 19.5444832,7.94127083 L19.5444832,1.00421143 C19.5444832,0.728069051 19.3206256,0.504211426 19.0444832,0.504211426 Z" id="形状结合" fill="#0563B2"></path>
                <path d="M1.03848839,0.504211426 L19.0444832,0.504211426 C19.3206256,0.504211426 19.5444832,0.728069051 19.5444832,1.00421143 L19.5444832,7.94127083 C19.5444832,8.2174132 19.3206256,8.44127083 19.0444832,8.44127083 L1.03848839,8.44127083 C0.762346013,8.44127083 0.538488388,8.2174132 0.538488388,7.94127083 L0.538488388,1.00421143 C0.538488388,0.728069051 0.762346013,0.504211426 1.03848839,0.504211426 Z" id="矩形备份-25" fill="#FFFFFF"></path>
            </g>
            <g id="catpart" transform="translate(1.675000, 9.580000)" fill="#0563B2" fill-rule="nonzero">
                <path d="M1.26,0.765 C0.855,0.765 0.54,0.9 0.315,1.17 C0.105,1.415 0,1.735 0,2.125 C0,2.525 0.105,2.85 0.32,3.1 C0.54,3.36 0.85,3.49 1.25,3.49 C1.585,3.49 1.855,3.405 2.055,3.24 C2.26,3.07 2.395,2.81 2.455,2.46 L1.89,2.46 C1.845,2.835 1.635,3.025 1.255,3.025 C1.035,3.025 0.87,2.945 0.76,2.79 C0.64,2.63 0.585,2.405 0.585,2.12 C0.585,1.84 0.645,1.62 0.765,1.465 C0.885,1.305 1.05,1.23 1.26,1.23 C1.43,1.23 1.57,1.27 1.675,1.35 C1.775,1.43 1.845,1.55 1.88,1.715 L2.445,1.715 C2.395,1.39 2.265,1.15 2.06,0.99 C1.86,0.84 1.595,0.765 1.26,0.765 Z" id="路径"></path>
                <path d="M4.08,0.765 C3.75,0.765 3.49,0.82 3.3,0.94 C3.075,1.07 2.935,1.28 2.88,1.565 L3.445,1.61 C3.475,1.475 3.55,1.375 3.66,1.31 C3.755,1.25 3.88,1.225 4.04,1.225 C4.41,1.225 4.595,1.39 4.595,1.73 L4.595,1.83 L4.03,1.845 C3.65,1.855 3.355,1.935 3.145,2.085 C2.915,2.24 2.805,2.465 2.805,2.755 C2.805,2.97 2.885,3.145 3.045,3.285 C3.2,3.42 3.41,3.49 3.68,3.49 C3.905,3.49 4.1,3.45 4.265,3.375 C4.41,3.305 4.535,3.21 4.635,3.08 L4.635,3.42 L5.165,3.42 L5.165,1.77 C5.165,1.455 5.085,1.215 4.925,1.05 C4.745,0.86 4.46,0.765 4.08,0.765 Z M4.595,2.24 L4.595,2.37 C4.595,2.57 4.515,2.735 4.365,2.865 C4.215,2.99 4.03,3.055 3.81,3.055 C3.685,3.055 3.585,3.02 3.505,2.96 C3.425,2.9 3.39,2.825 3.39,2.735 C3.39,2.425 3.615,2.265 4.07,2.255 L4.595,2.24 Z" id="形状"></path>
                <path d="M6.575,0 L6.005,0.235 L6.005,0.835 L5.54,0.835 L5.54,1.305 L6.005,1.305 L6.005,2.765 C6.005,2.975 6.055,3.13 6.155,3.24 C6.26,3.36 6.425,3.42 6.65,3.42 L7.085,3.42 L7.085,2.95 L6.745,2.95 C6.685,2.95 6.645,2.935 6.615,2.905 C6.585,2.87 6.575,2.825 6.575,2.765 L6.575,1.305 L7.15,1.305 L7.15,0.835 L6.575,0.835 L6.575,0 Z" id="路径"></path>
                <path d="M8.885,0.765 C8.545,0.765 8.285,0.88 8.105,1.11 L8.105,0.835 L7.575,0.835 L7.575,4.41 L8.145,4.41 L8.145,3.065 C8.355,3.345 8.615,3.49 8.915,3.49 C9.285,3.49 9.58,3.355 9.79,3.085 C9.985,2.835 10.085,2.52 10.085,2.14 C10.085,1.74 9.985,1.42 9.785,1.17 C9.565,0.9 9.265,0.765 8.885,0.765 Z M8.8,1.225 C9.05,1.225 9.235,1.315 9.355,1.495 C9.45,1.645 9.5,1.86 9.5,2.14 C9.5,2.42 9.445,2.635 9.34,2.785 C9.22,2.945 9.03,3.03 8.78,3.03 C8.595,3.03 8.445,2.955 8.325,2.805 C8.19,2.64 8.125,2.42 8.125,2.15 L8.125,2.11 C8.125,1.85 8.175,1.645 8.285,1.49 C8.405,1.31 8.575,1.225 8.8,1.225 Z" id="形状"></path>
                <path d="M11.76,0.765 C11.43,0.765 11.17,0.82 10.98,0.94 C10.755,1.07 10.615,1.28 10.56,1.565 L11.125,1.61 C11.155,1.475 11.23,1.375 11.34,1.31 C11.435,1.25 11.56,1.225 11.72,1.225 C12.09,1.225 12.275,1.39 12.275,1.73 L12.275,1.83 L11.71,1.845 C11.33,1.855 11.035,1.935 10.825,2.085 C10.595,2.24 10.485,2.465 10.485,2.755 C10.485,2.97 10.565,3.145 10.725,3.285 C10.88,3.42 11.09,3.49 11.36,3.49 C11.585,3.49 11.78,3.45 11.945,3.375 C12.09,3.305 12.215,3.21 12.315,3.08 L12.315,3.42 L12.845,3.42 L12.845,1.77 C12.845,1.455 12.765,1.215 12.605,1.05 C12.425,0.86 12.14,0.765 11.76,0.765 Z M12.275,2.24 L12.275,2.37 C12.275,2.57 12.195,2.735 12.045,2.865 C11.895,2.99 11.71,3.055 11.49,3.055 C11.365,3.055 11.265,3.02 11.185,2.96 C11.105,2.9 11.07,2.825 11.07,2.735 C11.07,2.425 11.295,2.265 11.75,2.255 L12.275,2.24 Z" id="形状"></path>
                <path d="M14.665,0.765 C14.505,0.765 14.37,0.81 14.255,0.905 C14.16,0.975 14.08,1.075 14.01,1.205 L14.01,0.835 L13.445,0.835 L13.445,3.42 L14.01,3.42 L14.01,2.05 C14.01,1.83 14.075,1.655 14.215,1.52 C14.335,1.4 14.47,1.345 14.62,1.345 C14.74,1.345 14.86,1.36 14.99,1.4 L14.99,0.83 C14.9,0.785 14.79,0.765 14.665,0.765 Z" id="路径"></path>
                <path d="M16.125,0 L15.555,0.235 L15.555,0.835 L15.09,0.835 L15.09,1.305 L15.555,1.305 L15.555,2.765 C15.555,2.975 15.605,3.13 15.705,3.24 C15.81,3.36 15.975,3.42 16.2,3.42 L16.635,3.42 L16.635,2.95 L16.295,2.95 C16.235,2.95 16.195,2.935 16.165,2.905 C16.135,2.87 16.125,2.825 16.125,2.765 L16.125,1.305 L16.7,1.305 L16.7,0.835 L16.125,0.835 L16.125,0 Z" id="路径"></path>
            </g>
        </g>
    </g>
</svg>