<?xml version="1.0" encoding="UTF-8"?>
<svg width="20px" height="20px" viewBox="0 0 20 20" version="1.1" xmlns="http://www.w3.org/2000/svg" xmlns:xlink="http://www.w3.org/1999/xlink">
    <title>cdr2</title>
    <g id="文件图标" stroke="none" stroke-width="1" fill="none" fill-rule="evenodd">
        <g id="编组-3">
            <g id="编组" transform="translate(4.444444, 0.000000)" fill-rule="nonzero">
                <path d="M0.729143889,19.5242862 L14.8264117,19.5242862 C14.960342,19.5235005 15.0684874,19.4169183 15.0684874,19.2857149 L15.0684874,5.23858516 L10.9371582,5.23858516 C10.5344632,5.23858516 10.2080143,4.91878886 10.2080143,4.52430012 L10.2080143,0.475732442 L0.729143889,0.475732442 C0.664554638,0.475732442 0.602610796,0.500867553 0.556939301,0.545608337 C0.511267806,0.590349121 0.485609836,0.651030645 0.485609836,0.714303666 L0.485609836,19.2857149 C0.485609836,19.4171434 0.594981412,19.5242862 0.729143889,19.5242862 Z" id="路径" fill="#FFFFFF"></path>
                <path d="M14.9678656,4.76144275 L10.6950824,0.575732349 L10.6950824,4.52430012 C10.6950824,4.65572857 10.8029957,4.76144275 10.9371582,4.76144275 L14.9678656,4.76144275 L14.9678656,4.76144275 Z" id="路径" fill="#FFFFFF"></path>
                <path d="M15.3411873,4.45430019 L11.0100726,0.210018412 C10.8733184,0.0747249558 10.6867371,-0.000961027697 10.4923805,9.2146362e-06 L0.729143889,9.2146362e-06 C0.326448839,9.2146362e-06 0,0.319814921 0,0.714303666 L0,19.2857149 C0,19.6802037 0.326448839,20.0000092 0.729143889,20.0000092 L14.8264117,20.0000092 C15.2291067,20.0000092 15.5555556,19.6802037 15.5555556,19.2857149 L15.5555556,4.95858542 C15.5555556,4.76924268 15.4782987,4.58775259 15.3411873,4.45430019 Z M10.6936242,0.574303796 L14.9678656,4.76144275 L10.9371582,4.76144275 C10.8032255,4.76144275 10.6944262,4.65550112 10.6936242,4.52430012 L10.6936242,0.574303796 Z M14.8264117,19.5242862 L0.729143889,19.5242862 C0.664554638,19.5242862 0.602610796,19.4991511 0.556939301,19.4544103 C0.511267806,19.4096695 0.485609836,19.348988 0.485609836,19.2857149 L0.485609836,0.714303666 C0.485609836,0.582875214 0.594981412,0.475732442 0.729143889,0.475732442 L10.2080143,0.475732442 L10.2080143,4.52430012 C10.2080143,4.91878886 10.5344632,5.23858516 10.9371582,5.23858516 L15.0684874,5.23858516 L15.0684874,19.2857149 C15.0684874,19.4169183 14.960342,19.5235005 14.8264117,19.5242862 L14.8264117,19.5242862 Z" id="形状" fill="#605E5C" opacity="0.64"></path>
            </g>
            <g id="编组-4备份" transform="translate(0.000000, 7.000000)">
                <path d="M19,0 C19.5522847,-1.01453063e-16 20,0.44771525 20,1 L20,7.88888889 C20,8.44117364 19.5522847,8.88888889 19,8.88888889 L1,8.88888889 C0.44771525,8.88888889 6.76353751e-17,8.44117364 0,7.88888889 L0,1 C-6.76353751e-17,0.44771525 0.44771525,1.01453063e-16 1,0 L19,0 Z M19.0444832,0.504211426 L1.03848839,0.504211426 C0.762346013,0.504211426 0.538488388,0.728069051 0.538488388,1.00421143 L0.538488388,7.94127083 C0.538488388,8.2174132 0.762346013,8.44127083 1.03848839,8.44127083 L19.0444832,8.44127083 C19.3206256,8.44127083 19.5444832,8.2174132 19.5444832,7.94127083 L19.5444832,1.00421143 C19.5444832,0.728069051 19.3206256,0.504211426 19.0444832,0.504211426 Z" id="形状结合" fill="#0563B2"></path>
                <path d="M1.03848839,0.504211426 L19.0444832,0.504211426 C19.3206256,0.504211426 19.5444832,0.728069051 19.5444832,1.00421143 L19.5444832,7.94127083 C19.5444832,8.2174132 19.3206256,8.44127083 19.0444832,8.44127083 L1.03848839,8.44127083 C0.762346013,8.44127083 0.538488388,8.2174132 0.538488388,7.94127083 L0.538488388,1.00421143 C0.538488388,0.728069051 0.762346013,0.504211426 1.03848839,0.504211426 Z" id="矩形备份-25" fill="#FFFFFF"></path>
            </g>
            <g id="cdr" transform="translate(3.707000, 7.648000)" fill="#0563B2" fill-rule="nonzero">
                <path d="M2.268,1.773 C1.539,1.773 0.972,2.016 0.567,2.502 C0.189,2.943 0,3.519 0,4.221 C0,4.941 0.189,5.526 0.576,5.976 C0.972,6.444 1.53,6.678 2.25,6.678 C2.853,6.678 3.339,6.525 3.699,6.228 C4.068,5.922 4.311,5.454 4.419,4.824 L3.402,4.824 C3.321,5.499 2.943,5.841 2.259,5.841 C1.863,5.841 1.566,5.697 1.368,5.418 C1.152,5.13 1.053,4.725 1.053,4.212 C1.053,3.708 1.161,3.312 1.377,3.033 C1.593,2.745 1.89,2.61 2.268,2.61 C2.574,2.61 2.826,2.682 3.015,2.826 C3.195,2.97 3.321,3.186 3.384,3.483 L4.401,3.483 C4.311,2.898 4.077,2.466 3.708,2.178 C3.348,1.908 2.871,1.773 2.268,1.773 Z" id="路径"></path>
                <path d="M8.481,0 L8.481,2.538 C8.094,2.025 7.635,1.773 7.095,1.773 C6.429,1.773 5.898,2.016 5.52,2.502 C5.16,2.952 4.989,3.519 4.989,4.203 C4.989,4.914 5.169,5.499 5.529,5.949 C5.916,6.435 6.456,6.678 7.149,6.678 C7.761,6.678 8.229,6.471 8.553,6.057 L8.553,6.552 L9.507,6.552 L9.507,0 L8.481,0 Z M7.338,2.601 C7.662,2.601 7.941,2.736 8.157,3.006 C8.391,3.294 8.517,3.69 8.517,4.185 L8.517,4.257 C8.517,4.707 8.418,5.085 8.229,5.373 C8.013,5.688 7.698,5.85 7.302,5.85 C6.843,5.85 6.51,5.688 6.303,5.364 C6.123,5.094 6.042,4.707 6.042,4.203 C6.042,3.699 6.132,3.321 6.321,3.06 C6.537,2.754 6.87,2.601 7.338,2.601 Z" id="形状"></path>
                <path d="M12.723,1.773 C12.435,1.773 12.192,1.854 11.985,2.025 C11.814,2.151 11.67,2.331 11.544,2.565 L11.544,1.899 L10.527,1.899 L10.527,6.552 L11.544,6.552 L11.544,4.086 C11.544,3.69 11.661,3.375 11.913,3.132 C12.129,2.916 12.372,2.817 12.642,2.817 C12.858,2.817 13.074,2.844 13.308,2.916 L13.308,1.89 C13.146,1.809 12.948,1.773 12.723,1.773 Z" id="路径"></path>
            </g>
        </g>
    </g>
</svg>