<?xml version="1.0" encoding="UTF-8"?>
<svg width="20px" height="20px" viewBox="0 0 20 20" version="1.1" xmlns="http://www.w3.org/2000/svg" xmlns:xlink="http://www.w3.org/1999/xlink">
    <title>cdt</title>
    <g id="文件图标" stroke="none" stroke-width="1" fill="none" fill-rule="evenodd">
        <g id="编组-3">
            <g id="编组" transform="translate(4.444444, 0.000000)" fill-rule="nonzero">
                <path d="M0.729143889,19.5242862 L14.8264117,19.5242862 C14.960342,19.5235005 15.0684874,19.4169183 15.0684874,19.2857149 L15.0684874,5.23858516 L10.9371582,5.23858516 C10.5344632,5.23858516 10.2080143,4.91878886 10.2080143,4.52430012 L10.2080143,0.475732442 L0.729143889,0.475732442 C0.664554638,0.475732442 0.602610796,0.500867553 0.556939301,0.545608337 C0.511267806,0.590349121 0.485609836,0.651030645 0.485609836,0.714303666 L0.485609836,19.2857149 C0.485609836,19.4171434 0.594981412,19.5242862 0.729143889,19.5242862 Z" id="路径" fill="#FFFFFF"></path>
                <path d="M14.9678656,4.76144275 L10.6950824,0.575732349 L10.6950824,4.52430012 C10.6950824,4.65572857 10.8029957,4.76144275 10.9371582,4.76144275 L14.9678656,4.76144275 L14.9678656,4.76144275 Z" id="路径" fill="#FFFFFF"></path>
                <path d="M15.3411873,4.45430019 L11.0100726,0.210018412 C10.8733184,0.0747249558 10.6867371,-0.000961027697 10.4923805,9.2146362e-06 L0.729143889,9.2146362e-06 C0.326448839,9.2146362e-06 0,0.319814921 0,0.714303666 L0,19.2857149 C0,19.6802037 0.326448839,20.0000092 0.729143889,20.0000092 L14.8264117,20.0000092 C15.2291067,20.0000092 15.5555556,19.6802037 15.5555556,19.2857149 L15.5555556,4.95858542 C15.5555556,4.76924268 15.4782987,4.58775259 15.3411873,4.45430019 Z M10.6936242,0.574303796 L14.9678656,4.76144275 L10.9371582,4.76144275 C10.8032255,4.76144275 10.6944262,4.65550112 10.6936242,4.52430012 L10.6936242,0.574303796 Z M14.8264117,19.5242862 L0.729143889,19.5242862 C0.664554638,19.5242862 0.602610796,19.4991511 0.556939301,19.4544103 C0.511267806,19.4096695 0.485609836,19.348988 0.485609836,19.2857149 L0.485609836,0.714303666 C0.485609836,0.582875214 0.594981412,0.475732442 0.729143889,0.475732442 L10.2080143,0.475732442 L10.2080143,4.52430012 C10.2080143,4.91878886 10.5344632,5.23858516 10.9371582,5.23858516 L15.0684874,5.23858516 L15.0684874,19.2857149 C15.0684874,19.4169183 14.960342,19.5235005 14.8264117,19.5242862 L14.8264117,19.5242862 Z" id="形状" fill="#605E5C" opacity="0.64"></path>
            </g>
            <rect id="矩形" fill="#0563B2" x="0" y="6.66666667" width="20" height="8.88888889" rx="1"></rect>
            <g id="cdt" transform="translate(3.815000, 7.448000)" fill="#FFFFFF" fill-rule="nonzero">
                <path d="M2.268,1.773 C1.539,1.773 0.972,2.016 0.567,2.502 C0.189,2.943 0,3.519 0,4.221 C0,4.941 0.189,5.526 0.576,5.976 C0.972,6.444 1.53,6.678 2.25,6.678 C2.853,6.678 3.339,6.525 3.699,6.228 C4.068,5.922 4.311,5.454 4.419,4.824 L3.402,4.824 C3.321,5.499 2.943,5.841 2.259,5.841 C1.863,5.841 1.566,5.697 1.368,5.418 C1.152,5.13 1.053,4.725 1.053,4.212 C1.053,3.708 1.161,3.312 1.377,3.033 C1.593,2.745 1.89,2.61 2.268,2.61 C2.574,2.61 2.826,2.682 3.015,2.826 C3.195,2.97 3.321,3.186 3.384,3.483 L4.401,3.483 C4.311,2.898 4.077,2.466 3.708,2.178 C3.348,1.908 2.871,1.773 2.268,1.773 Z" id="路径"></path>
                <path d="M8.481,0 L8.481,2.538 C8.094,2.025 7.635,1.773 7.095,1.773 C6.429,1.773 5.898,2.016 5.52,2.502 C5.16,2.952 4.989,3.519 4.989,4.203 C4.989,4.914 5.169,5.499 5.529,5.949 C5.916,6.435 6.456,6.678 7.149,6.678 C7.761,6.678 8.229,6.471 8.553,6.057 L8.553,6.552 L9.507,6.552 L9.507,0 L8.481,0 Z M7.338,2.601 C7.662,2.601 7.941,2.736 8.157,3.006 C8.391,3.294 8.517,3.69 8.517,4.185 L8.517,4.257 C8.517,4.707 8.418,5.085 8.229,5.373 C8.013,5.688 7.698,5.85 7.302,5.85 C6.843,5.85 6.51,5.688 6.303,5.364 C6.123,5.094 6.042,4.707 6.042,4.203 C6.042,3.699 6.132,3.321 6.321,3.06 C6.537,2.754 6.87,2.601 7.338,2.601 Z" id="形状"></path>
                <path d="M11.985,0.396 L10.959,0.819 L10.959,1.899 L10.122,1.899 L10.122,2.745 L10.959,2.745 L10.959,5.373 C10.959,5.751 11.049,6.03 11.229,6.228 C11.418,6.444 11.715,6.552 12.12,6.552 L12.903,6.552 L12.903,5.706 L12.291,5.706 C12.183,5.706 12.111,5.679 12.057,5.625 C12.003,5.562 11.985,5.481 11.985,5.373 L11.985,2.745 L13.02,2.745 L13.02,1.899 L11.985,1.899 L11.985,0.396 Z" id="路径"></path>
            </g>
        </g>
    </g>
</svg>