<?xml version="1.0" encoding="UTF-8"?>
<svg width="20px" height="20px" viewBox="0 0 20 20" version="1.1" xmlns="http://www.w3.org/2000/svg" xmlns:xlink="http://www.w3.org/1999/xlink">
    <title>cgr</title>
    <g id="文件图标" stroke="none" stroke-width="1" fill="none" fill-rule="evenodd">
        <g id="编组-3">
            <g id="编组" transform="translate(4.444444, 0.000000)" fill-rule="nonzero">
                <path d="M0.729143889,19.5242862 L14.8264117,19.5242862 C14.960342,19.5235005 15.0684874,19.4169183 15.0684874,19.2857149 L15.0684874,5.23858516 L10.9371582,5.23858516 C10.5344632,5.23858516 10.2080143,4.91878886 10.2080143,4.52430012 L10.2080143,0.475732442 L0.729143889,0.475732442 C0.664554638,0.475732442 0.602610796,0.500867553 0.556939301,0.545608337 C0.511267806,0.590349121 0.485609836,0.651030645 0.485609836,0.714303666 L0.485609836,19.2857149 C0.485609836,19.4171434 0.594981412,19.5242862 0.729143889,19.5242862 Z" id="路径" fill="#FFFFFF"></path>
                <path d="M14.9678656,4.76144275 L10.6950824,0.575732349 L10.6950824,4.52430012 C10.6950824,4.65572857 10.8029957,4.76144275 10.9371582,4.76144275 L14.9678656,4.76144275 L14.9678656,4.76144275 Z" id="路径" fill="#FFFFFF"></path>
                <path d="M15.3411873,4.45430019 L11.0100726,0.210018412 C10.8733184,0.0747249558 10.6867371,-0.000961027697 10.4923805,9.2146362e-06 L0.729143889,9.2146362e-06 C0.326448839,9.2146362e-06 0,0.319814921 0,0.714303666 L0,19.2857149 C0,19.6802037 0.326448839,20.0000092 0.729143889,20.0000092 L14.8264117,20.0000092 C15.2291067,20.0000092 15.5555556,19.6802037 15.5555556,19.2857149 L15.5555556,4.95858542 C15.5555556,4.76924268 15.4782987,4.58775259 15.3411873,4.45430019 Z M10.6936242,0.574303796 L14.9678656,4.76144275 L10.9371582,4.76144275 C10.8032255,4.76144275 10.6944262,4.65550112 10.6936242,4.52430012 L10.6936242,0.574303796 Z M14.8264117,19.5242862 L0.729143889,19.5242862 C0.664554638,19.5242862 0.602610796,19.4991511 0.556939301,19.4544103 C0.511267806,19.4096695 0.485609836,19.348988 0.485609836,19.2857149 L0.485609836,0.714303666 C0.485609836,0.582875214 0.594981412,0.475732442 0.729143889,0.475732442 L10.2080143,0.475732442 L10.2080143,4.52430012 C10.2080143,4.91878886 10.5344632,5.23858516 10.9371582,5.23858516 L15.0684874,5.23858516 L15.0684874,19.2857149 C15.0684874,19.4169183 14.960342,19.5235005 14.8264117,19.5242862 L14.8264117,19.5242862 Z" id="形状" fill="#605E5C" opacity="0.64"></path>
            </g>
            <rect id="矩形" fill="#0563B2" x="0" y="6.66666667" width="20" height="8.88888889" rx="1"></rect>
            <g id="cgr" transform="translate(3.707000, 8.221000)" fill="#FFFFFF" fill-rule="nonzero">
                <path d="M2.268,0 C1.539,0 0.972,0.243 0.567,0.729 C0.189,1.17 0,1.746 0,2.448 C0,3.168 0.189,3.753 0.576,4.203 C0.972,4.671 1.53,4.905 2.25,4.905 C2.853,4.905 3.339,4.752 3.699,4.455 C4.068,4.149 4.311,3.681 4.419,3.051 L3.402,3.051 C3.321,3.726 2.943,4.068 2.259,4.068 C1.863,4.068 1.566,3.924 1.368,3.645 C1.152,3.357 1.053,2.952 1.053,2.439 C1.053,1.935 1.161,1.539 1.377,1.26 C1.593,0.972 1.89,0.837 2.268,0.837 C2.574,0.837 2.826,0.909 3.015,1.053 C3.195,1.197 3.321,1.413 3.384,1.71 L4.401,1.71 C4.311,1.125 4.077,0.693 3.708,0.405 C3.348,0.135 2.871,0 2.268,0 Z" id="路径"></path>
                <path d="M7.104,0 C6.474,0 5.961,0.216 5.574,0.648 C5.178,1.08 4.989,1.647 4.989,2.349 C4.989,3.051 5.178,3.618 5.574,4.041 C5.961,4.455 6.474,4.671 7.104,4.671 C7.68,4.671 8.139,4.428 8.481,3.951 L8.481,4.635 C8.481,5.463 8.094,5.877 7.32,5.877 C6.96,5.877 6.699,5.823 6.537,5.724 C6.366,5.616 6.258,5.436 6.204,5.175 L5.178,5.175 C5.268,5.697 5.484,6.075 5.826,6.327 C6.168,6.561 6.663,6.687 7.32,6.687 C8.778,6.687 9.507,5.949 9.507,4.482 L9.507,0.126 L8.481,0.126 L8.481,0.693 C8.139,0.225 7.68,0 7.104,0 Z M7.266,0.828 C7.653,0.828 7.959,0.963 8.175,1.233 C8.382,1.503 8.49,1.872 8.49,2.349 C8.49,2.817 8.382,3.177 8.175,3.447 C7.959,3.699 7.653,3.834 7.257,3.834 C6.807,3.834 6.492,3.681 6.294,3.384 C6.123,3.132 6.042,2.79 6.042,2.349 C6.042,1.863 6.15,1.494 6.366,1.233 C6.582,0.963 6.879,0.828 7.266,0.828 Z" id="形状"></path>
                <path d="M12.723,0 C12.435,0 12.192,0.081 11.985,0.252 C11.814,0.378 11.67,0.558 11.544,0.792 L11.544,0.126 L10.527,0.126 L10.527,4.779 L11.544,4.779 L11.544,2.313 C11.544,1.917 11.661,1.602 11.913,1.359 C12.129,1.143 12.372,1.044 12.642,1.044 C12.858,1.044 13.074,1.071 13.308,1.143 L13.308,0.117 C13.146,0.036 12.948,0 12.723,0 Z" id="路径"></path>
            </g>
        </g>
    </g>
</svg>