<?xml version="1.0" encoding="UTF-8"?>
<svg width="20px" height="20px" viewBox="0 0 20 20" version="1.1" xmlns="http://www.w3.org/2000/svg" xmlns:xlink="http://www.w3.org/1999/xlink">
    <title>csv2</title>
    <g id="文件图标" stroke="none" stroke-width="1" fill="none" fill-rule="evenodd">
        <g id="编组-3">
            <g id="编组" transform="translate(4.444444, 0.000000)" fill-rule="nonzero">
                <path d="M0.729143889,19.5242862 L14.8264117,19.5242862 C14.960342,19.5235005 15.0684874,19.4169183 15.0684874,19.2857149 L15.0684874,5.23858516 L10.9371582,5.23858516 C10.5344632,5.23858516 10.2080143,4.91878886 10.2080143,4.52430012 L10.2080143,0.475732442 L0.729143889,0.475732442 C0.664554638,0.475732442 0.602610796,0.500867553 0.556939301,0.545608337 C0.511267806,0.590349121 0.485609836,0.651030645 0.485609836,0.714303666 L0.485609836,19.2857149 C0.485609836,19.4171434 0.594981412,19.5242862 0.729143889,19.5242862 Z" id="路径" fill="#FFFFFF"></path>
                <path d="M14.9678656,4.76144275 L10.6950824,0.575732349 L10.6950824,4.52430012 C10.6950824,4.65572857 10.8029957,4.76144275 10.9371582,4.76144275 L14.9678656,4.76144275 L14.9678656,4.76144275 Z" id="路径" fill="#FFFFFF"></path>
                <path d="M15.3411873,4.45430019 L11.0100726,0.210018412 C10.8733184,0.0747249558 10.6867371,-0.000961027697 10.4923805,9.2146362e-06 L0.729143889,9.2146362e-06 C0.326448839,9.2146362e-06 0,0.319814921 0,0.714303666 L0,19.2857149 C0,19.6802037 0.326448839,20.0000092 0.729143889,20.0000092 L14.8264117,20.0000092 C15.2291067,20.0000092 15.5555556,19.6802037 15.5555556,19.2857149 L15.5555556,4.95858542 C15.5555556,4.76924268 15.4782987,4.58775259 15.3411873,4.45430019 Z M10.6936242,0.574303796 L14.9678656,4.76144275 L10.9371582,4.76144275 C10.8032255,4.76144275 10.6944262,4.65550112 10.6936242,4.52430012 L10.6936242,0.574303796 Z M14.8264117,19.5242862 L0.729143889,19.5242862 C0.664554638,19.5242862 0.602610796,19.4991511 0.556939301,19.4544103 C0.511267806,19.4096695 0.485609836,19.348988 0.485609836,19.2857149 L0.485609836,0.714303666 C0.485609836,0.582875214 0.594981412,0.475732442 0.729143889,0.475732442 L10.2080143,0.475732442 L10.2080143,4.52430012 C10.2080143,4.91878886 10.5344632,5.23858516 10.9371582,5.23858516 L15.0684874,5.23858516 L15.0684874,19.2857149 C15.0684874,19.4169183 14.960342,19.5235005 14.8264117,19.5242862 L14.8264117,19.5242862 Z" id="形状" fill="#605E5C" opacity="0.64"></path>
            </g>
            <g id="编组-4备份" transform="translate(0.000000, 7.000000)">
                <path d="M19,0 C19.5522847,-1.01453063e-16 20,0.44771525 20,1 L20,7.88888889 C20,8.44117364 19.5522847,8.88888889 19,8.88888889 L1,8.88888889 C0.44771525,8.88888889 6.76353751e-17,8.44117364 0,7.88888889 L0,1 C-6.76353751e-17,0.44771525 0.44771525,1.01453063e-16 1,0 L19,0 Z M19.0444832,0.504211426 L1.03848839,0.504211426 C0.762346013,0.504211426 0.538488388,0.728069051 0.538488388,1.00421143 L0.538488388,7.94127083 C0.538488388,8.2174132 0.762346013,8.44127083 1.03848839,8.44127083 L19.0444832,8.44127083 C19.3206256,8.44127083 19.5444832,8.2174132 19.5444832,7.94127083 L19.5444832,1.00421143 C19.5444832,0.728069051 19.3206256,0.504211426 19.0444832,0.504211426 Z" id="形状结合" fill="#0563B2"></path>
                <path d="M1.03848839,0.504211426 L19.0444832,0.504211426 C19.3206256,0.504211426 19.5444832,0.728069051 19.5444832,1.00421143 L19.5444832,7.94127083 C19.5444832,8.2174132 19.3206256,8.44127083 19.0444832,8.44127083 L1.03848839,8.44127083 C0.762346013,8.44127083 0.538488388,8.2174132 0.538488388,7.94127083 L0.538488388,1.00421143 C0.538488388,0.728069051 0.762346013,0.504211426 1.03848839,0.504211426 Z" id="矩形备份-25" fill="#FFFFFF"></path>
            </g>
            <g id="csv" transform="translate(3.212000, 9.221000)" fill="#0563B2" fill-rule="nonzero">
                <path d="M2.268,0 C1.539,0 0.972,0.243 0.567,0.729 C0.189,1.17 0,1.746 0,2.448 C0,3.168 0.189,3.753 0.576,4.203 C0.972,4.671 1.53,4.905 2.25,4.905 C2.853,4.905 3.339,4.752 3.699,4.455 C4.068,4.149 4.311,3.681 4.419,3.051 L3.402,3.051 C3.321,3.726 2.943,4.068 2.259,4.068 C1.863,4.068 1.566,3.924 1.368,3.645 C1.152,3.357 1.053,2.952 1.053,2.439 C1.053,1.935 1.161,1.539 1.377,1.26 C1.593,0.972 1.89,0.837 2.268,0.837 C2.574,0.837 2.826,0.909 3.015,1.053 C3.195,1.197 3.321,1.413 3.384,1.71 L4.401,1.71 C4.311,1.125 4.077,0.693 3.708,0.405 C3.348,0.135 2.871,0 2.268,0 Z" id="路径"></path>
                <path d="M6.924,0 C6.348,0 5.889,0.117 5.538,0.369 C5.178,0.603 5.007,0.936 5.007,1.368 C5.007,1.773 5.187,2.088 5.547,2.313 C5.772,2.457 6.159,2.592 6.708,2.718 C7.176,2.826 7.482,2.907 7.626,2.979 C7.896,3.105 8.031,3.276 8.031,3.492 C8.031,3.87 7.671,4.068 6.951,4.068 C6.609,4.068 6.366,4.005 6.213,3.897 C6.06,3.771 5.952,3.564 5.898,3.267 L4.899,3.267 C4.998,4.356 5.691,4.905 6.987,4.905 C8.382,4.905 9.084,4.41 9.084,3.42 C9.084,3.006 8.895,2.673 8.526,2.439 C8.274,2.268 7.878,2.124 7.356,1.998 C6.888,1.881 6.582,1.791 6.429,1.728 C6.177,1.62 6.06,1.485 6.06,1.341 C6.06,1.161 6.132,1.035 6.294,0.954 C6.429,0.873 6.636,0.837 6.906,0.837 C7.221,0.837 7.455,0.882 7.608,0.981 C7.752,1.071 7.86,1.242 7.932,1.476 L8.931,1.476 C8.823,0.486 8.148,0 6.924,0 Z" id="路径"></path>
                <polygon id="路径" points="9.339 0.126 11.058 4.779 12.084 4.779 13.803 0.126 12.687 0.126 11.571 3.501 10.455 0.126"></polygon>
            </g>
        </g>
    </g>
</svg>