<?xml version="1.0" encoding="UTF-8"?>
<svg width="20px" height="20px" viewBox="0 0 20 20" version="1.1" xmlns="http://www.w3.org/2000/svg" xmlns:xlink="http://www.w3.org/1999/xlink">
    <title>dcm</title>
    <g id="文件图标" stroke="none" stroke-width="1" fill="none" fill-rule="evenodd">
        <g id="编组-3">
            <g id="编组" transform="translate(4.444444, 0.000000)" fill-rule="nonzero">
                <path d="M0.729143889,19.5242862 L14.8264117,19.5242862 C14.960342,19.5235005 15.0684874,19.4169183 15.0684874,19.2857149 L15.0684874,5.23858516 L10.9371582,5.23858516 C10.5344632,5.23858516 10.2080143,4.91878886 10.2080143,4.52430012 L10.2080143,0.475732442 L0.729143889,0.475732442 C0.664554638,0.475732442 0.602610796,0.500867553 0.556939301,0.545608337 C0.511267806,0.590349121 0.485609836,0.651030645 0.485609836,0.714303666 L0.485609836,19.2857149 C0.485609836,19.4171434 0.594981412,19.5242862 0.729143889,19.5242862 Z" id="路径" fill="#FFFFFF"></path>
                <path d="M14.9678656,4.76144275 L10.6950824,0.575732349 L10.6950824,4.52430012 C10.6950824,4.65572857 10.8029957,4.76144275 10.9371582,4.76144275 L14.9678656,4.76144275 L14.9678656,4.76144275 Z" id="路径" fill="#FFFFFF"></path>
                <path d="M15.3411873,4.45430019 L11.0100726,0.210018412 C10.8733184,0.0747249558 10.6867371,-0.000961027697 10.4923805,9.2146362e-06 L0.729143889,9.2146362e-06 C0.326448839,9.2146362e-06 0,0.319814921 0,0.714303666 L0,19.2857149 C0,19.6802037 0.326448839,20.0000092 0.729143889,20.0000092 L14.8264117,20.0000092 C15.2291067,20.0000092 15.5555556,19.6802037 15.5555556,19.2857149 L15.5555556,4.95858542 C15.5555556,4.76924268 15.4782987,4.58775259 15.3411873,4.45430019 Z M10.6936242,0.574303796 L14.9678656,4.76144275 L10.9371582,4.76144275 C10.8032255,4.76144275 10.6944262,4.65550112 10.6936242,4.52430012 L10.6936242,0.574303796 Z M14.8264117,19.5242862 L0.729143889,19.5242862 C0.664554638,19.5242862 0.602610796,19.4991511 0.556939301,19.4544103 C0.511267806,19.4096695 0.485609836,19.348988 0.485609836,19.2857149 L0.485609836,0.714303666 C0.485609836,0.582875214 0.594981412,0.475732442 0.729143889,0.475732442 L10.2080143,0.475732442 L10.2080143,4.52430012 C10.2080143,4.91878886 10.5344632,5.23858516 10.9371582,5.23858516 L15.0684874,5.23858516 L15.0684874,19.2857149 C15.0684874,19.4169183 14.960342,19.5235005 14.8264117,19.5242862 L14.8264117,19.5242862 Z" id="形状" fill="#605E5C" opacity="0.64"></path>
            </g>
            <rect id="矩形" fill="#0563B2" x="0" y="6.66666667" width="20" height="8.88888889" rx="1"></rect>
            <g id="dcm" transform="translate(1.117000, 7.448000)" fill="#FFFFFF" fill-rule="nonzero">
                <path d="M3.492,0 L3.492,2.538 C3.105,2.025 2.646,1.773 2.106,1.773 C1.44,1.773 0.909,2.016 0.531,2.502 C0.171,2.952 0,3.519 0,4.203 C0,4.914 0.18,5.499 0.54,5.949 C0.927,6.435 1.467,6.678 2.16,6.678 C2.772,6.678 3.24,6.471 3.564,6.057 L3.564,6.552 L4.518,6.552 L4.518,0 L3.492,0 Z M2.349,2.601 C2.673,2.601 2.952,2.736 3.168,3.006 C3.402,3.294 3.528,3.69 3.528,4.185 L3.528,4.257 C3.528,4.707 3.429,5.085 3.24,5.373 C3.024,5.688 2.709,5.85 2.313,5.85 C1.854,5.85 1.521,5.688 1.314,5.364 C1.134,5.094 1.053,4.707 1.053,4.203 C1.053,3.699 1.143,3.321 1.332,3.06 C1.548,2.754 1.881,2.601 2.349,2.601 Z" id="形状"></path>
                <path d="M7.626,1.773 C6.897,1.773 6.33,2.016 5.925,2.502 C5.547,2.943 5.358,3.519 5.358,4.221 C5.358,4.941 5.547,5.526 5.934,5.976 C6.33,6.444 6.888,6.678 7.608,6.678 C8.211,6.678 8.697,6.525 9.057,6.228 C9.426,5.922 9.669,5.454 9.777,4.824 L8.76,4.824 C8.679,5.499 8.301,5.841 7.617,5.841 C7.221,5.841 6.924,5.697 6.726,5.418 C6.51,5.13 6.411,4.725 6.411,4.212 C6.411,3.708 6.519,3.312 6.735,3.033 C6.951,2.745 7.248,2.61 7.626,2.61 C7.932,2.61 8.184,2.682 8.373,2.826 C8.553,2.97 8.679,3.186 8.742,3.483 L9.759,3.483 C9.669,2.898 9.435,2.466 9.066,2.178 C8.706,1.908 8.229,1.773 7.626,1.773 Z" id="路径"></path>
                <path d="M12.813,1.773 C12.363,1.773 11.94,1.971 11.553,2.376 L11.553,1.899 L10.527,1.899 L10.527,6.552 L11.553,6.552 L11.553,3.762 C11.553,3.456 11.643,3.186 11.823,2.97 C12.003,2.736 12.237,2.628 12.534,2.628 C13.146,2.628 13.452,2.979 13.452,3.69 L13.452,6.552 L14.478,6.552 L14.478,3.708 C14.478,3.366 14.559,3.105 14.739,2.916 C14.91,2.718 15.117,2.628 15.369,2.628 C15.729,2.628 15.981,2.709 16.143,2.88 C16.296,3.042 16.377,3.312 16.377,3.681 L16.377,6.552 L17.403,6.552 L17.403,3.501 C17.403,2.988 17.241,2.574 16.935,2.25 C16.611,1.926 16.215,1.773 15.738,1.773 C15.423,1.773 15.162,1.827 14.955,1.935 C14.721,2.043 14.496,2.241 14.28,2.529 C13.983,2.025 13.497,1.773 12.813,1.773 Z" id="路径"></path>
            </g>
        </g>
    </g>
</svg>