<?xml version="1.0" encoding="UTF-8"?>
<svg width="20px" height="20px" viewBox="0 0 20 20" version="1.1" xmlns="http://www.w3.org/2000/svg" xmlns:xlink="http://www.w3.org/1999/xlink">
    <title>docm</title>
    <g id="文件图标" stroke="none" stroke-width="1" fill="none" fill-rule="evenodd">
        <g id="编组-3">
            <g id="编组" transform="translate(4.444444, 0.000000)" fill-rule="nonzero">
                <path d="M0.729143889,19.5242862 L14.8264117,19.5242862 C14.960342,19.5235005 15.0684874,19.4169183 15.0684874,19.2857149 L15.0684874,5.23858516 L10.9371582,5.23858516 C10.5344632,5.23858516 10.2080143,4.91878886 10.2080143,4.52430012 L10.2080143,0.475732442 L0.729143889,0.475732442 C0.664554638,0.475732442 0.602610796,0.500867553 0.556939301,0.545608337 C0.511267806,0.590349121 0.485609836,0.651030645 0.485609836,0.714303666 L0.485609836,19.2857149 C0.485609836,19.4171434 0.594981412,19.5242862 0.729143889,19.5242862 Z" id="路径" fill="#FFFFFF"></path>
                <path d="M14.9678656,4.76144275 L10.6950824,0.575732349 L10.6950824,4.52430012 C10.6950824,4.65572857 10.8029957,4.76144275 10.9371582,4.76144275 L14.9678656,4.76144275 L14.9678656,4.76144275 Z" id="路径" fill="#FFFFFF"></path>
                <path d="M15.3411873,4.45430019 L11.0100726,0.210018412 C10.8733184,0.0747249558 10.6867371,-0.000961027697 10.4923805,9.2146362e-06 L0.729143889,9.2146362e-06 C0.326448839,9.2146362e-06 0,0.319814921 0,0.714303666 L0,19.2857149 C0,19.6802037 0.326448839,20.0000092 0.729143889,20.0000092 L14.8264117,20.0000092 C15.2291067,20.0000092 15.5555556,19.6802037 15.5555556,19.2857149 L15.5555556,4.95858542 C15.5555556,4.76924268 15.4782987,4.58775259 15.3411873,4.45430019 Z M10.6936242,0.574303796 L14.9678656,4.76144275 L10.9371582,4.76144275 C10.8032255,4.76144275 10.6944262,4.65550112 10.6936242,4.52430012 L10.6936242,0.574303796 Z M14.8264117,19.5242862 L0.729143889,19.5242862 C0.664554638,19.5242862 0.602610796,19.4991511 0.556939301,19.4544103 C0.511267806,19.4096695 0.485609836,19.348988 0.485609836,19.2857149 L0.485609836,0.714303666 C0.485609836,0.582875214 0.594981412,0.475732442 0.729143889,0.475732442 L10.2080143,0.475732442 L10.2080143,4.52430012 C10.2080143,4.91878886 10.5344632,5.23858516 10.9371582,5.23858516 L15.0684874,5.23858516 L15.0684874,19.2857149 C15.0684874,19.4169183 14.960342,19.5235005 14.8264117,19.5242862 L14.8264117,19.5242862 Z" id="形状" fill="#605E5C" opacity="0.64"></path>
            </g>
            <rect id="矩形" fill="#0563B2" x="0" y="6.66666667" width="20" height="8.88888889" rx="1"></rect>
            <g id="docm" transform="translate(0.457332, 8.176000)" fill="#FFFFFF" fill-rule="nonzero">
                <path d="M3.104,0 L3.104,2.256 C2.76,1.8 2.352,1.576 1.872,1.576 C1.28,1.576 0.808,1.792 0.472,2.224 C0.152,2.624 0,3.128 0,3.736 C0,4.368 0.16,4.888 0.48,5.288 C0.824,5.72 1.304,5.936 1.92,5.936 C2.464,5.936 2.88,5.752 3.168,5.384 L3.168,5.824 L4.016,5.824 L4.016,0 L3.104,0 Z M2.088,2.312 C2.376,2.312 2.624,2.432 2.816,2.672 C3.024,2.928 3.136,3.28 3.136,3.72 L3.136,3.784 C3.136,4.184 3.048,4.52 2.88,4.776 C2.688,5.056 2.408,5.2 2.056,5.2 C1.648,5.2 1.352,5.056 1.168,4.768 C1.008,4.528 0.936,4.184 0.936,3.736 C0.936,3.288 1.016,2.952 1.184,2.72 C1.376,2.448 1.672,2.312 2.088,2.312 Z" id="形状"></path>
                <path d="M6.442667,1.576 C5.810667,1.576 5.306667,1.776 4.930667,2.192 C4.546667,2.6 4.362667,3.12 4.362667,3.76 C4.362667,4.392 4.546667,4.912 4.922667,5.312 C5.306667,5.728 5.810667,5.936 6.442667,5.936 C7.066667,5.936 7.578667,5.728 7.962667,5.312 C8.330667,4.912 8.522667,4.392 8.522667,3.76 C8.522667,3.12 8.330667,2.6 7.954667,2.192 C7.570667,1.776 7.066667,1.576 6.442667,1.576 Z M6.442667,2.32 C6.818667,2.32 7.114667,2.464 7.322667,2.768 C7.498667,3.024 7.594667,3.36 7.594667,3.76 C7.594667,4.152 7.498667,4.48 7.322667,4.744 C7.114667,5.04 6.818667,5.192 6.442667,5.192 C6.058667,5.192 5.770667,5.04 5.562667,4.744 C5.386667,4.488 5.298667,4.16 5.298667,3.76 C5.298667,3.36 5.386667,3.024 5.562667,2.768 C5.770667,2.464 6.058667,2.32 6.442667,2.32 Z" id="形状"></path>
                <path d="M10.725334,1.576 C10.077334,1.576 9.573334,1.792 9.213334,2.224 C8.877334,2.616 8.709334,3.128 8.709334,3.752 C8.709334,4.392 8.877334,4.912 9.221334,5.312 C9.573334,5.728 10.069334,5.936 10.709334,5.936 C11.245334,5.936 11.677334,5.8 11.997334,5.536 C12.325334,5.264 12.541334,4.848 12.637334,4.288 L11.733334,4.288 C11.661334,4.888 11.325334,5.192 10.717334,5.192 C10.365334,5.192 10.101334,5.064 9.925334,4.816 C9.733334,4.56 9.645334,4.2 9.645334,3.744 C9.645334,3.296 9.741334,2.944 9.933334,2.696 C10.125334,2.44 10.389334,2.32 10.725334,2.32 C10.997334,2.32 11.221334,2.384 11.389334,2.512 C11.549334,2.64 11.661334,2.832 11.717334,3.096 L12.621334,3.096 C12.541334,2.576 12.333334,2.192 12.005334,1.936 C11.685334,1.696 11.261334,1.576 10.725334,1.576 Z" id="路径"></path>
                <path d="M14.936001,1.576 C14.536001,1.576 14.160001,1.752 13.816001,2.112 L13.816001,1.688 L12.904001,1.688 L12.904001,5.824 L13.816001,5.824 L13.816001,3.344 C13.816001,3.072 13.896001,2.832 14.056001,2.64 C14.216001,2.432 14.424001,2.336 14.688001,2.336 C15.232001,2.336 15.504001,2.648 15.504001,3.28 L15.504001,5.824 L16.416001,5.824 L16.416001,3.296 C16.416001,2.992 16.488001,2.76 16.648001,2.592 C16.800001,2.416 16.984001,2.336 17.208001,2.336 C17.528001,2.336 17.752001,2.408 17.896001,2.56 C18.032001,2.704 18.104001,2.944 18.104001,3.272 L18.104001,5.824 L19.016001,5.824 L19.016001,3.112 C19.016001,2.656 18.872001,2.288 18.600001,2 C18.312001,1.712 17.960001,1.576 17.536001,1.576 C17.256001,1.576 17.024001,1.624 16.840001,1.72 C16.632001,1.816 16.432001,1.992 16.240001,2.248 C15.976001,1.8 15.544001,1.576 14.936001,1.576 Z" id="路径"></path>
            </g>
        </g>
    </g>
</svg>