<?xml version="1.0" encoding="UTF-8"?>
<svg width="20px" height="20px" viewBox="0 0 20 20" version="1.1" xmlns="http://www.w3.org/2000/svg" xmlns:xlink="http://www.w3.org/1999/xlink">
    <title>docx</title>
    <g id="文件图标" stroke="none" stroke-width="1" fill="none" fill-rule="evenodd">
        <g id="编组-3">
            <g id="编组" transform="translate(4.444444, 0.000000)" fill-rule="nonzero">
                <path d="M0.729143889,19.5242862 L14.8264117,19.5242862 C14.960342,19.5235005 15.0684874,19.4169183 15.0684874,19.2857149 L15.0684874,5.23858516 L10.9371582,5.23858516 C10.5344632,5.23858516 10.2080143,4.91878886 10.2080143,4.52430012 L10.2080143,0.475732442 L0.729143889,0.475732442 C0.664554638,0.475732442 0.602610796,0.500867553 0.556939301,0.545608337 C0.511267806,0.590349121 0.485609836,0.651030645 0.485609836,0.714303666 L0.485609836,19.2857149 C0.485609836,19.4171434 0.594981412,19.5242862 0.729143889,19.5242862 Z" id="路径" fill="#FFFFFF"></path>
                <path d="M14.9678656,4.76144275 L10.6950824,0.575732349 L10.6950824,4.52430012 C10.6950824,4.65572857 10.8029957,4.76144275 10.9371582,4.76144275 L14.9678656,4.76144275 L14.9678656,4.76144275 Z" id="路径" fill="#FFFFFF"></path>
                <path d="M15.3411873,4.45430019 L11.0100726,0.210018412 C10.8733184,0.0747249558 10.6867371,-0.000961027697 10.4923805,9.2146362e-06 L0.729143889,9.2146362e-06 C0.326448839,9.2146362e-06 0,0.319814921 0,0.714303666 L0,19.2857149 C0,19.6802037 0.326448839,20.0000092 0.729143889,20.0000092 L14.8264117,20.0000092 C15.2291067,20.0000092 15.5555556,19.6802037 15.5555556,19.2857149 L15.5555556,4.95858542 C15.5555556,4.76924268 15.4782987,4.58775259 15.3411873,4.45430019 Z M10.6936242,0.574303796 L14.9678656,4.76144275 L10.9371582,4.76144275 C10.8032255,4.76144275 10.6944262,4.65550112 10.6936242,4.52430012 L10.6936242,0.574303796 Z M14.8264117,19.5242862 L0.729143889,19.5242862 C0.664554638,19.5242862 0.602610796,19.4991511 0.556939301,19.4544103 C0.511267806,19.4096695 0.485609836,19.348988 0.485609836,19.2857149 L0.485609836,0.714303666 C0.485609836,0.582875214 0.594981412,0.475732442 0.729143889,0.475732442 L10.2080143,0.475732442 L10.2080143,4.52430012 C10.2080143,4.91878886 10.5344632,5.23858516 10.9371582,5.23858516 L15.0684874,5.23858516 L15.0684874,19.2857149 C15.0684874,19.4169183 14.960342,19.5235005 14.8264117,19.5242862 L14.8264117,19.5242862 Z" id="形状" fill="#605E5C" opacity="0.64"></path>
            </g>
            <rect id="矩形" fill="#0563B2" x="0" y="6.66666667" width="20" height="8.88888889" rx="1"></rect>
            <g id="docx" transform="translate(1.133333, 8.176000)" fill="#FFFFFF" fill-rule="nonzero">
                <path d="M3.104,0 L3.104,2.256 C2.76,1.8 2.352,1.576 1.872,1.576 C1.28,1.576 0.808,1.792 0.472,2.224 C0.152,2.624 0,3.128 0,3.736 C0,4.368 0.16,4.888 0.48,5.288 C0.824,5.72 1.304,5.936 1.92,5.936 C2.464,5.936 2.88,5.752 3.168,5.384 L3.168,5.824 L4.016,5.824 L4.016,0 L3.104,0 Z M2.088,2.312 C2.376,2.312 2.624,2.432 2.816,2.672 C3.024,2.928 3.136,3.28 3.136,3.72 L3.136,3.784 C3.136,4.184 3.048,4.52 2.88,4.776 C2.688,5.056 2.408,5.2 2.056,5.2 C1.648,5.2 1.352,5.056 1.168,4.768 C1.008,4.528 0.936,4.184 0.936,3.736 C0.936,3.288 1.016,2.952 1.184,2.72 C1.376,2.448 1.672,2.312 2.088,2.312 Z" id="形状"></path>
                <path d="M6.84266667,1.576 C6.21066667,1.576 5.70666667,1.776 5.33066667,2.192 C4.94666667,2.6 4.76266667,3.12 4.76266667,3.76 C4.76266667,4.392 4.94666667,4.912 5.32266667,5.312 C5.70666667,5.728 6.21066667,5.936 6.84266667,5.936 C7.46666667,5.936 7.97866667,5.728 8.36266667,5.312 C8.73066667,4.912 8.92266667,4.392 8.92266667,3.76 C8.92266667,3.12 8.73066667,2.6 8.35466667,2.192 C7.97066667,1.776 7.46666667,1.576 6.84266667,1.576 Z M6.84266667,2.32 C7.21866667,2.32 7.51466667,2.464 7.72266667,2.768 C7.89866667,3.024 7.99466667,3.36 7.99466667,3.76 C7.99466667,4.152 7.89866667,4.48 7.72266667,4.744 C7.51466667,5.04 7.21866667,5.192 6.84266667,5.192 C6.45866667,5.192 6.17066667,5.04 5.96266667,4.744 C5.78666667,4.488 5.69866667,4.16 5.69866667,3.76 C5.69866667,3.36 5.78666667,3.024 5.96266667,2.768 C6.17066667,2.464 6.45866667,2.32 6.84266667,2.32 Z" id="形状"></path>
                <path d="M11.5253333,1.576 C10.8773333,1.576 10.3733333,1.792 10.0133333,2.224 C9.67733333,2.616 9.50933333,3.128 9.50933333,3.752 C9.50933333,4.392 9.67733333,4.912 10.0213333,5.312 C10.3733333,5.728 10.8693333,5.936 11.5093333,5.936 C12.0453333,5.936 12.4773333,5.8 12.7973333,5.536 C13.1253333,5.264 13.3413333,4.848 13.4373333,4.288 L12.5333333,4.288 C12.4613333,4.888 12.1253333,5.192 11.5173333,5.192 C11.1653333,5.192 10.9013333,5.064 10.7253333,4.816 C10.5333333,4.56 10.4453333,4.2 10.4453333,3.744 C10.4453333,3.296 10.5413333,2.944 10.7333333,2.696 C10.9253333,2.44 11.1893333,2.32 11.5253333,2.32 C11.7973333,2.32 12.0213333,2.384 12.1893333,2.512 C12.3493333,2.64 12.4613333,2.832 12.5173333,3.096 L13.4213333,3.096 C13.3413333,2.576 13.1333333,2.192 12.8053333,1.936 C12.4853333,1.696 12.0613333,1.576 11.5253333,1.576 Z" id="路径"></path>
                <polygon id="路径" points="13.848 1.688 15.272 3.624 13.664 5.824 14.736 5.824 15.776 4.296 16.808 5.824 17.88 5.824 16.272 3.624 17.696 1.688 16.632 1.688 15.776 2.952 14.912 1.688"></polygon>
            </g>
        </g>
    </g>
</svg>