<?xml version="1.0" encoding="UTF-8"?>
<svg width="20px" height="20px" viewBox="0 0 20 20" version="1.1" xmlns="http://www.w3.org/2000/svg" xmlns:xlink="http://www.w3.org/1999/xlink">
    <title>dotm2</title>
    <g id="文件图标" stroke="none" stroke-width="1" fill="none" fill-rule="evenodd">
        <g id="编组-3">
            <g id="编组" transform="translate(4.444444, 0.000000)" fill-rule="nonzero">
                <path d="M0.729143889,19.5242862 L14.8264117,19.5242862 C14.960342,19.5235005 15.0684874,19.4169183 15.0684874,19.2857149 L15.0684874,5.23858516 L10.9371582,5.23858516 C10.5344632,5.23858516 10.2080143,4.91878886 10.2080143,4.52430012 L10.2080143,0.475732442 L0.729143889,0.475732442 C0.664554638,0.475732442 0.602610796,0.500867553 0.556939301,0.545608337 C0.511267806,0.590349121 0.485609836,0.651030645 0.485609836,0.714303666 L0.485609836,19.2857149 C0.485609836,19.4171434 0.594981412,19.5242862 0.729143889,19.5242862 Z" id="路径" fill="#FFFFFF"></path>
                <path d="M14.9678656,4.76144275 L10.6950824,0.575732349 L10.6950824,4.52430012 C10.6950824,4.65572857 10.8029957,4.76144275 10.9371582,4.76144275 L14.9678656,4.76144275 L14.9678656,4.76144275 Z" id="路径" fill="#FFFFFF"></path>
                <path d="M15.3411873,4.45430019 L11.0100726,0.210018412 C10.8733184,0.0747249558 10.6867371,-0.000961027697 10.4923805,9.2146362e-06 L0.729143889,9.2146362e-06 C0.326448839,9.2146362e-06 0,0.319814921 0,0.714303666 L0,19.2857149 C0,19.6802037 0.326448839,20.0000092 0.729143889,20.0000092 L14.8264117,20.0000092 C15.2291067,20.0000092 15.5555556,19.6802037 15.5555556,19.2857149 L15.5555556,4.95858542 C15.5555556,4.76924268 15.4782987,4.58775259 15.3411873,4.45430019 Z M10.6936242,0.574303796 L14.9678656,4.76144275 L10.9371582,4.76144275 C10.8032255,4.76144275 10.6944262,4.65550112 10.6936242,4.52430012 L10.6936242,0.574303796 Z M14.8264117,19.5242862 L0.729143889,19.5242862 C0.664554638,19.5242862 0.602610796,19.4991511 0.556939301,19.4544103 C0.511267806,19.4096695 0.485609836,19.348988 0.485609836,19.2857149 L0.485609836,0.714303666 C0.485609836,0.582875214 0.594981412,0.475732442 0.729143889,0.475732442 L10.2080143,0.475732442 L10.2080143,4.52430012 C10.2080143,4.91878886 10.5344632,5.23858516 10.9371582,5.23858516 L15.0684874,5.23858516 L15.0684874,19.2857149 C15.0684874,19.4169183 14.960342,19.5235005 14.8264117,19.5242862 L14.8264117,19.5242862 Z" id="形状" fill="#605E5C" opacity="0.64"></path>
            </g>
            <g id="编组-4备份" transform="translate(0.000000, 7.000000)">
                <path d="M19,0 C19.5522847,-1.01453063e-16 20,0.44771525 20,1 L20,7.88888889 C20,8.44117364 19.5522847,8.88888889 19,8.88888889 L1,8.88888889 C0.44771525,8.88888889 6.76353751e-17,8.44117364 0,7.88888889 L0,1 C-6.76353751e-17,0.44771525 0.44771525,1.01453063e-16 1,0 L19,0 Z M19.0444832,0.504211426 L1.03848839,0.504211426 C0.762346013,0.504211426 0.538488388,0.728069051 0.538488388,1.00421143 L0.538488388,7.94127083 C0.538488388,8.2174132 0.762346013,8.44127083 1.03848839,8.44127083 L19.0444832,8.44127083 C19.3206256,8.44127083 19.5444832,8.2174132 19.5444832,7.94127083 L19.5444832,1.00421143 C19.5444832,0.728069051 19.3206256,0.504211426 19.0444832,0.504211426 Z" id="形状结合" fill="#0563B2"></path>
                <path d="M1.03848839,0.504211426 L19.0444832,0.504211426 C19.3206256,0.504211426 19.5444832,0.728069051 19.5444832,1.00421143 L19.5444832,7.94127083 C19.5444832,8.2174132 19.3206256,8.44127083 19.0444832,8.44127083 L1.03848839,8.44127083 C0.762346013,8.44127083 0.538488388,8.2174132 0.538488388,7.94127083 L0.538488388,1.00421143 C0.538488388,0.728069051 0.762346013,0.504211426 1.03848839,0.504211426 Z" id="矩形备份-25" fill="#FFFFFF"></path>
            </g>
            <g id="dotm" transform="translate(0.647556, 7.812000)" fill="#0563B2" fill-rule="nonzero">
                <path d="M3.298,0 L3.298,2.397 C2.9325,1.9125 2.499,1.6745 1.989,1.6745 C1.36,1.6745 0.8585,1.904 0.5015,2.363 C0.1615,2.788 0,3.3235 0,3.9695 C0,4.641 0.17,5.1935 0.51,5.6185 C0.8755,6.0775 1.3855,6.307 2.04,6.307 C2.618,6.307 3.06,6.1115 3.366,5.7205 L3.366,6.188 L4.267,6.188 L4.267,0 L3.298,0 Z M2.2185,2.4565 C2.5245,2.4565 2.788,2.584 2.992,2.839 C3.213,3.111 3.332,3.485 3.332,3.9525 L3.332,4.0205 C3.332,4.4455 3.2385,4.8025 3.06,5.0745 C2.856,5.372 2.5585,5.525 2.1845,5.525 C1.751,5.525 1.4365,5.372 1.241,5.066 C1.071,4.811 0.9945,4.4455 0.9945,3.9695 C0.9945,3.4935 1.0795,3.1365 1.258,2.89 C1.462,2.601 1.7765,2.4565 2.2185,2.4565 Z" id="形状"></path>
                <path d="M6.998111,1.6745 C6.326611,1.6745 5.791111,1.887 5.391611,2.329 C4.983611,2.7625 4.788111,3.315 4.788111,3.995 C4.788111,4.6665 4.983611,5.219 5.383111,5.644 C5.791111,6.086 6.326611,6.307 6.998111,6.307 C7.661111,6.307 8.205111,6.086 8.613111,5.644 C9.004111,5.219 9.208111,4.6665 9.208111,3.995 C9.208111,3.315 9.004111,2.7625 8.604611,2.329 C8.196611,1.887 7.661111,1.6745 6.998111,1.6745 Z M6.998111,2.465 C7.397611,2.465 7.712111,2.618 7.933111,2.941 C8.120111,3.213 8.222111,3.57 8.222111,3.995 C8.222111,4.4115 8.120111,4.76 7.933111,5.0405 C7.712111,5.355 7.397611,5.5165 6.998111,5.5165 C6.590111,5.5165 6.284111,5.355 6.063111,5.0405 C5.876111,4.7685 5.782611,4.42 5.782611,3.995 C5.782611,3.57 5.876111,3.213 6.063111,2.941 C6.284111,2.618 6.590111,2.465 6.998111,2.465 Z" id="形状"></path>
                <path d="M11.106222,0.374 L10.137222,0.7735 L10.137222,1.7935 L9.346722,1.7935 L9.346722,2.5925 L10.137222,2.5925 L10.137222,5.0745 C10.137222,5.4315 10.222222,5.695 10.392222,5.882 C10.570722,6.086 10.851222,6.188 11.233722,6.188 L11.973222,6.188 L11.973222,5.389 L11.395222,5.389 C11.293222,5.389 11.225222,5.3635 11.174222,5.3125 C11.123222,5.253 11.106222,5.1765 11.106222,5.0745 L11.106222,2.5925 L12.083722,2.5925 L12.083722,1.7935 L11.106222,1.7935 L11.106222,0.374 Z" id="路径"></path>
                <path d="M14.636333,1.6745 C14.211333,1.6745 13.811833,1.8615 13.446333,2.244 L13.446333,1.7935 L12.477333,1.7935 L12.477333,6.188 L13.446333,6.188 L13.446333,3.553 C13.446333,3.264 13.531333,3.009 13.701333,2.805 C13.871333,2.584 14.092333,2.482 14.372833,2.482 C14.950833,2.482 15.239833,2.8135 15.239833,3.485 L15.239833,6.188 L16.208833,6.188 L16.208833,3.502 C16.208833,3.179 16.285333,2.9325 16.455333,2.754 C16.616833,2.567 16.812333,2.482 17.050333,2.482 C17.390333,2.482 17.628333,2.5585 17.781333,2.72 C17.925833,2.873 18.002333,3.128 18.002333,3.4765 L18.002333,6.188 L18.971333,6.188 L18.971333,3.3065 C18.971333,2.822 18.818333,2.431 18.529333,2.125 C18.223333,1.819 17.849333,1.6745 17.398833,1.6745 C17.101333,1.6745 16.854833,1.7255 16.659333,1.8275 C16.438333,1.9295 16.225833,2.1165 16.021833,2.3885 C15.741333,1.9125 15.282333,1.6745 14.636333,1.6745 Z" id="路径"></path>
            </g>
        </g>
    </g>
</svg>