<?xml version="1.0" encoding="UTF-8"?>
<svg width="20px" height="20px" viewBox="0 0 20 20" version="1.1" xmlns="http://www.w3.org/2000/svg" xmlns:xlink="http://www.w3.org/1999/xlink">
    <title>dwg</title>
    <g id="文件图标" stroke="none" stroke-width="1" fill="none" fill-rule="evenodd">
        <g id="编组-3">
            <g id="编组" transform="translate(4.444444, 0.000000)" fill-rule="nonzero">
                <path d="M0.729143889,19.5242862 L14.8264117,19.5242862 C14.960342,19.5235005 15.0684874,19.4169183 15.0684874,19.2857149 L15.0684874,5.23858516 L10.9371582,5.23858516 C10.5344632,5.23858516 10.2080143,4.91878886 10.2080143,4.52430012 L10.2080143,0.475732442 L0.729143889,0.475732442 C0.664554638,0.475732442 0.602610796,0.500867553 0.556939301,0.545608337 C0.511267806,0.590349121 0.485609836,0.651030645 0.485609836,0.714303666 L0.485609836,19.2857149 C0.485609836,19.4171434 0.594981412,19.5242862 0.729143889,19.5242862 Z" id="路径" fill="#FFFFFF"></path>
                <path d="M14.9678656,4.76144275 L10.6950824,0.575732349 L10.6950824,4.52430012 C10.6950824,4.65572857 10.8029957,4.76144275 10.9371582,4.76144275 L14.9678656,4.76144275 L14.9678656,4.76144275 Z" id="路径" fill="#FFFFFF"></path>
                <path d="M15.3411873,4.45430019 L11.0100726,0.210018412 C10.8733184,0.0747249558 10.6867371,-0.000961027697 10.4923805,9.2146362e-06 L0.729143889,9.2146362e-06 C0.326448839,9.2146362e-06 0,0.319814921 0,0.714303666 L0,19.2857149 C0,19.6802037 0.326448839,20.0000092 0.729143889,20.0000092 L14.8264117,20.0000092 C15.2291067,20.0000092 15.5555556,19.6802037 15.5555556,19.2857149 L15.5555556,4.95858542 C15.5555556,4.76924268 15.4782987,4.58775259 15.3411873,4.45430019 Z M10.6936242,0.574303796 L14.9678656,4.76144275 L10.9371582,4.76144275 C10.8032255,4.76144275 10.6944262,4.65550112 10.6936242,4.52430012 L10.6936242,0.574303796 Z M14.8264117,19.5242862 L0.729143889,19.5242862 C0.664554638,19.5242862 0.602610796,19.4991511 0.556939301,19.4544103 C0.511267806,19.4096695 0.485609836,19.348988 0.485609836,19.2857149 L0.485609836,0.714303666 C0.485609836,0.582875214 0.594981412,0.475732442 0.729143889,0.475732442 L10.2080143,0.475732442 L10.2080143,4.52430012 C10.2080143,4.91878886 10.5344632,5.23858516 10.9371582,5.23858516 L15.0684874,5.23858516 L15.0684874,19.2857149 C15.0684874,19.4169183 14.960342,19.5235005 14.8264117,19.5242862 L14.8264117,19.5242862 Z" id="形状" fill="#605E5C" opacity="0.64"></path>
            </g>
            <rect id="矩形" fill="#0563B2" x="0" y="6.66666667" width="20" height="8.88888889" rx="1"></rect>
            <g id="dwg" transform="translate(1.711000, 6.948000)" fill="#FFFFFF" fill-rule="nonzero">
                <path d="M3.492,0 L3.492,2.538 C3.105,2.025 2.646,1.773 2.106,1.773 C1.44,1.773 0.909,2.016 0.531,2.502 C0.171,2.952 0,3.519 0,4.203 C0,4.914 0.18,5.499 0.54,5.949 C0.927,6.435 1.467,6.678 2.16,6.678 C2.772,6.678 3.24,6.471 3.564,6.057 L3.564,6.552 L4.518,6.552 L4.518,0 L3.492,0 Z M2.349,2.601 C2.673,2.601 2.952,2.736 3.168,3.006 C3.402,3.294 3.528,3.69 3.528,4.185 L3.528,4.257 C3.528,4.707 3.429,5.085 3.24,5.373 C3.024,5.688 2.709,5.85 2.313,5.85 C1.854,5.85 1.521,5.688 1.314,5.364 C1.134,5.094 1.053,4.707 1.053,4.203 C1.053,3.699 1.143,3.321 1.332,3.06 C1.548,2.754 1.881,2.601 2.349,2.601 Z" id="形状"></path>
                <polygon id="路径" points="5.043 1.899 6.609 6.552 7.563 6.552 8.499 3.15 9.426 6.552 10.38 6.552 11.946 1.899 10.812 1.899 9.885 5.337 8.967 1.899 8.022 1.899 7.104 5.337 6.177 1.899"></polygon>
                <path d="M14.406,1.773 C13.776,1.773 13.263,1.989 12.876,2.421 C12.48,2.853 12.291,3.42 12.291,4.122 C12.291,4.824 12.48,5.391 12.876,5.814 C13.263,6.228 13.776,6.444 14.406,6.444 C14.982,6.444 15.441,6.201 15.783,5.724 L15.783,6.408 C15.783,7.236 15.396,7.65 14.622,7.65 C14.262,7.65 14.001,7.596 13.839,7.497 C13.668,7.389 13.56,7.209 13.506,6.948 L12.48,6.948 C12.57,7.47 12.786,7.848 13.128,8.1 C13.47,8.334 13.965,8.46 14.622,8.46 C16.08,8.46 16.809,7.722 16.809,6.255 L16.809,1.899 L15.783,1.899 L15.783,2.466 C15.441,1.998 14.982,1.773 14.406,1.773 Z M14.568,2.601 C14.955,2.601 15.261,2.736 15.477,3.006 C15.684,3.276 15.792,3.645 15.792,4.122 C15.792,4.59 15.684,4.95 15.477,5.22 C15.261,5.472 14.955,5.607 14.559,5.607 C14.109,5.607 13.794,5.454 13.596,5.157 C13.425,4.905 13.344,4.563 13.344,4.122 C13.344,3.636 13.452,3.267 13.668,3.006 C13.884,2.736 14.181,2.601 14.568,2.601 Z" id="形状"></path>
            </g>
        </g>
    </g>
</svg>