<?xml version="1.0" encoding="UTF-8"?>
<svg width="20px" height="20px" viewBox="0 0 20 20" version="1.1" xmlns="http://www.w3.org/2000/svg" xmlns:xlink="http://www.w3.org/1999/xlink">
    <title>edz</title>
    <g id="文件图标" stroke="none" stroke-width="1" fill="none" fill-rule="evenodd">
        <g id="编组-3">
            <g id="编组" transform="translate(4.444444, 0.000000)" fill-rule="nonzero">
                <path d="M0.729143889,19.5242862 L14.8264117,19.5242862 C14.960342,19.5235005 15.0684874,19.4169183 15.0684874,19.2857149 L15.0684874,5.23858516 L10.9371582,5.23858516 C10.5344632,5.23858516 10.2080143,4.91878886 10.2080143,4.52430012 L10.2080143,0.475732442 L0.729143889,0.475732442 C0.664554638,0.475732442 0.602610796,0.500867553 0.556939301,0.545608337 C0.511267806,0.590349121 0.485609836,0.651030645 0.485609836,0.714303666 L0.485609836,19.2857149 C0.485609836,19.4171434 0.594981412,19.5242862 0.729143889,19.5242862 Z" id="路径" fill="#FFFFFF"></path>
                <path d="M14.9678656,4.76144275 L10.6950824,0.575732349 L10.6950824,4.52430012 C10.6950824,4.65572857 10.8029957,4.76144275 10.9371582,4.76144275 L14.9678656,4.76144275 L14.9678656,4.76144275 Z" id="路径" fill="#FFFFFF"></path>
                <path d="M15.3411873,4.45430019 L11.0100726,0.210018412 C10.8733184,0.0747249558 10.6867371,-0.000961027697 10.4923805,9.2146362e-06 L0.729143889,9.2146362e-06 C0.326448839,9.2146362e-06 0,0.319814921 0,0.714303666 L0,19.2857149 C0,19.6802037 0.326448839,20.0000092 0.729143889,20.0000092 L14.8264117,20.0000092 C15.2291067,20.0000092 15.5555556,19.6802037 15.5555556,19.2857149 L15.5555556,4.95858542 C15.5555556,4.76924268 15.4782987,4.58775259 15.3411873,4.45430019 Z M10.6936242,0.574303796 L14.9678656,4.76144275 L10.9371582,4.76144275 C10.8032255,4.76144275 10.6944262,4.65550112 10.6936242,4.52430012 L10.6936242,0.574303796 Z M14.8264117,19.5242862 L0.729143889,19.5242862 C0.664554638,19.5242862 0.602610796,19.4991511 0.556939301,19.4544103 C0.511267806,19.4096695 0.485609836,19.348988 0.485609836,19.2857149 L0.485609836,0.714303666 C0.485609836,0.582875214 0.594981412,0.475732442 0.729143889,0.475732442 L10.2080143,0.475732442 L10.2080143,4.52430012 C10.2080143,4.91878886 10.5344632,5.23858516 10.9371582,5.23858516 L15.0684874,5.23858516 L15.0684874,19.2857149 C15.0684874,19.4169183 14.960342,19.5235005 14.8264117,19.5242862 L14.8264117,19.5242862 Z" id="形状" fill="#605E5C" opacity="0.64"></path>
            </g>
            <rect id="矩形" fill="#0563B2" x="0" y="6.66666667" width="20" height="8.88888889" rx="1"></rect>
            <g id="edz" transform="translate(2.375000, 7.448000)" fill="#FFFFFF" fill-rule="nonzero">
                <path d="M2.25,1.773 C1.557,1.773 1.008,2.007 0.612,2.484 C0.198,2.952 0,3.528 0,4.221 C0,4.995 0.216,5.598 0.648,6.039 C1.053,6.462 1.602,6.678 2.295,6.678 C2.916,6.678 3.429,6.498 3.843,6.147 C4.167,5.859 4.383,5.49 4.491,5.058 L3.465,5.058 C3.339,5.319 3.204,5.508 3.051,5.625 C2.853,5.769 2.601,5.841 2.286,5.841 C1.917,5.841 1.629,5.724 1.431,5.499 C1.233,5.274 1.116,4.941 1.08,4.509 L4.563,4.509 C4.563,3.672 4.374,3.015 4.005,2.547 C3.6,2.025 3.015,1.773 2.25,1.773 Z M2.277,2.61 C2.997,2.61 3.402,2.979 3.492,3.735 L1.098,3.735 C1.161,3.366 1.287,3.087 1.476,2.898 C1.674,2.7 1.935,2.61 2.277,2.61 Z" id="形状"></path>
                <path d="M8.625,0 L8.625,2.538 C8.238,2.025 7.779,1.773 7.239,1.773 C6.573,1.773 6.042,2.016 5.664,2.502 C5.304,2.952 5.133,3.519 5.133,4.203 C5.133,4.914 5.313,5.499 5.673,5.949 C6.06,6.435 6.6,6.678 7.293,6.678 C7.905,6.678 8.373,6.471 8.697,6.057 L8.697,6.552 L9.651,6.552 L9.651,0 L8.625,0 Z M7.482,2.601 C7.806,2.601 8.085,2.736 8.301,3.006 C8.535,3.294 8.661,3.69 8.661,4.185 L8.661,4.257 C8.661,4.707 8.562,5.085 8.373,5.373 C8.157,5.688 7.842,5.85 7.446,5.85 C6.987,5.85 6.654,5.688 6.447,5.364 C6.267,5.094 6.186,4.707 6.186,4.203 C6.186,3.699 6.276,3.321 6.465,3.06 C6.681,2.754 7.014,2.601 7.482,2.601 Z" id="形状"></path>
                <polygon id="路径" points="10.446 1.899 10.446 2.736 12.93 2.736 10.356 5.859 10.356 6.552 14.46 6.552 14.46 5.715 11.706 5.715 14.316 2.556 14.316 1.899"></polygon>
            </g>
        </g>
    </g>
</svg>