<?xml version="1.0" standalone="no"?><!DOCTYPE svg PUBLIC "-//W3C//DTD SVG 1.1//EN" "http://www.w3.org/Graphics/SVG/1.1/DTD/svg11.dtd"><svg t="1626332576028" class="icon" viewBox="0 0 1024 1024" version="1.1" xmlns="http://www.w3.org/2000/svg" p-id="2324" xmlns:xlink="http://www.w3.org/1999/xlink" width="200" height="200"><defs><style type="text/css"></style></defs><path d="M866.43302 103.808834H157.56698A153.488776 153.488776 0 0 0 0 252.107169v519.044171a153.488776 153.488776 0 0 0 157.56698 148.298334h708.86604a153.488776 153.488776 0 0 0 157.56698-148.298334v-519.044171a153.859522 153.859522 0 0 0-157.56698-148.298335z m-708.86604 74.149167h708.86604a74.149167 74.149167 0 0 1 23.356987 3.707459 37.074584 37.074584 0 0 0-10.010137 6.673425l-366.296887 344.052136-367.779869-344.052136a31.513396 31.513396 0 0 0-10.380884-6.673425 76.373642 76.373642 0 0 1 22.24475-4.44895z m787.464157 593.193339a76.373642 76.373642 0 0 1-78.598117 74.149167H157.56698a76.373642 76.373642 0 0 1-78.598117-74.149167v-519.044171a67.104996 67.104996 0 0 1 4.44895-20.761767 28.918175 28.918175 0 0 0 6.302679 9.639392L481.969587 610.247647a47.826213 47.826213 0 0 0 60.060826 0l392.249095-370.745837a49.679942 49.679942 0 0 0 7.04417-9.639391 101.955105 101.955105 0 0 1 3.707459 20.761766z" p-id="2325"></path></svg>