<?xml version="1.0" encoding="UTF-8"?>
<svg width="20px" height="20px" viewBox="0 0 20 20" version="1.1" xmlns="http://www.w3.org/2000/svg" xmlns:xlink="http://www.w3.org/1999/xlink">
    <title>et</title>
    <g id="文件图标" stroke="none" stroke-width="1" fill="none" fill-rule="evenodd">
        <g id="编组-3">
            <g id="编组" transform="translate(4.444444, 0.000000)" fill-rule="nonzero">
                <path d="M0.729143889,19.5242862 L14.8264117,19.5242862 C14.960342,19.5235005 15.0684874,19.4169183 15.0684874,19.2857149 L15.0684874,5.23858516 L10.9371582,5.23858516 C10.5344632,5.23858516 10.2080143,4.91878886 10.2080143,4.52430012 L10.2080143,0.475732442 L0.729143889,0.475732442 C0.664554638,0.475732442 0.602610796,0.500867553 0.556939301,0.545608337 C0.511267806,0.590349121 0.485609836,0.651030645 0.485609836,0.714303666 L0.485609836,19.2857149 C0.485609836,19.4171434 0.594981412,19.5242862 0.729143889,19.5242862 Z" id="路径" fill="#FFFFFF"></path>
                <path d="M14.9678656,4.76144275 L10.6950824,0.575732349 L10.6950824,4.52430012 C10.6950824,4.65572857 10.8029957,4.76144275 10.9371582,4.76144275 L14.9678656,4.76144275 L14.9678656,4.76144275 Z" id="路径" fill="#FFFFFF"></path>
                <path d="M15.3411873,4.45430019 L11.0100726,0.210018412 C10.8733184,0.0747249558 10.6867371,-0.000961027697 10.4923805,9.2146362e-06 L0.729143889,9.2146362e-06 C0.326448839,9.2146362e-06 0,0.319814921 0,0.714303666 L0,19.2857149 C0,19.6802037 0.326448839,20.0000092 0.729143889,20.0000092 L14.8264117,20.0000092 C15.2291067,20.0000092 15.5555556,19.6802037 15.5555556,19.2857149 L15.5555556,4.95858542 C15.5555556,4.76924268 15.4782987,4.58775259 15.3411873,4.45430019 Z M10.6936242,0.574303796 L14.9678656,4.76144275 L10.9371582,4.76144275 C10.8032255,4.76144275 10.6944262,4.65550112 10.6936242,4.52430012 L10.6936242,0.574303796 Z M14.8264117,19.5242862 L0.729143889,19.5242862 C0.664554638,19.5242862 0.602610796,19.4991511 0.556939301,19.4544103 C0.511267806,19.4096695 0.485609836,19.348988 0.485609836,19.2857149 L0.485609836,0.714303666 C0.485609836,0.582875214 0.594981412,0.475732442 0.729143889,0.475732442 L10.2080143,0.475732442 L10.2080143,4.52430012 C10.2080143,4.91878886 10.5344632,5.23858516 10.9371582,5.23858516 L15.0684874,5.23858516 L15.0684874,19.2857149 C15.0684874,19.4169183 14.960342,19.5235005 14.8264117,19.5242862 L14.8264117,19.5242862 Z" id="形状" fill="#605E5C" opacity="0.64"></path>
            </g>
            <rect id="矩形" fill="#0563B2" x="0" y="6.66666667" width="20" height="8.88888889" rx="1"></rect>
        </g>
        <g id="et" transform="translate(6.270000, 7.844000)" fill="#FFFFFF" fill-rule="nonzero">
            <path d="M2.241,1.377 C1.557,1.377 1.008,1.611 0.612,2.088 C0.198,2.556 0,3.132 0,3.825 C0,4.59 0.216,5.193 0.648,5.643 C1.044,6.066 1.593,6.282 2.277,6.282 C2.898,6.282 3.411,6.102 3.816,5.751 C4.14,5.463 4.347,5.094 4.455,4.662 L3.501,4.662 C3.375,4.932 3.24,5.139 3.078,5.265 C2.871,5.418 2.601,5.499 2.268,5.499 C1.89,5.499 1.593,5.373 1.377,5.139 C1.161,4.896 1.044,4.545 1.008,4.095 L4.536,4.095 C4.527,3.267 4.338,2.619 3.978,2.151 C3.582,1.629 2.997,1.377 2.241,1.377 Z M2.268,2.16 C3.024,2.16 3.447,2.565 3.537,3.375 L1.026,3.375 C1.08,2.979 1.215,2.682 1.413,2.475 C1.629,2.259 1.908,2.16 2.268,2.16 Z" id="形状"></path>
            <path d="M6.759,-9.09494702e-13 L5.805,0.396 L5.805,1.503 L4.941,1.503 L4.941,2.295 L5.805,2.295 L5.805,4.995 C5.805,5.364 5.886,5.643 6.066,5.841 C6.246,6.048 6.543,6.156 6.939,6.156 L7.704,6.156 L7.704,5.364 L7.092,5.364 C6.975,5.364 6.894,5.328 6.84,5.274 C6.786,5.211 6.759,5.121 6.759,4.995 L6.759,2.295 L7.821,2.295 L7.821,1.503 L6.759,1.503 L6.759,-9.09494702e-13 Z" id="路径"></path>
        </g>
    </g>
</svg>