<?xml version="1.0" encoding="UTF-8"?>
<svg width="20px" height="20px" viewBox="0 0 20 20" version="1.1" xmlns="http://www.w3.org/2000/svg" xmlns:xlink="http://www.w3.org/1999/xlink">
    <title>exp</title>
    <g id="文件图标" stroke="none" stroke-width="1" fill="none" fill-rule="evenodd">
        <g id="编组-3">
            <g id="编组" transform="translate(4.444444, 0.000000)" fill-rule="nonzero">
                <path d="M0.729143889,19.5242862 L14.8264117,19.5242862 C14.960342,19.5235005 15.0684874,19.4169183 15.0684874,19.2857149 L15.0684874,5.23858516 L10.9371582,5.23858516 C10.5344632,5.23858516 10.2080143,4.91878886 10.2080143,4.52430012 L10.2080143,0.475732442 L0.729143889,0.475732442 C0.664554638,0.475732442 0.602610796,0.500867553 0.556939301,0.545608337 C0.511267806,0.590349121 0.485609836,0.651030645 0.485609836,0.714303666 L0.485609836,19.2857149 C0.485609836,19.4171434 0.594981412,19.5242862 0.729143889,19.5242862 Z" id="路径" fill="#FFFFFF"></path>
                <path d="M14.9678656,4.76144275 L10.6950824,0.575732349 L10.6950824,4.52430012 C10.6950824,4.65572857 10.8029957,4.76144275 10.9371582,4.76144275 L14.9678656,4.76144275 L14.9678656,4.76144275 Z" id="路径" fill="#FFFFFF"></path>
                <path d="M15.3411873,4.45430019 L11.0100726,0.210018412 C10.8733184,0.0747249558 10.6867371,-0.000961027697 10.4923805,9.2146362e-06 L0.729143889,9.2146362e-06 C0.326448839,9.2146362e-06 0,0.319814921 0,0.714303666 L0,19.2857149 C0,19.6802037 0.326448839,20.0000092 0.729143889,20.0000092 L14.8264117,20.0000092 C15.2291067,20.0000092 15.5555556,19.6802037 15.5555556,19.2857149 L15.5555556,4.95858542 C15.5555556,4.76924268 15.4782987,4.58775259 15.3411873,4.45430019 Z M10.6936242,0.574303796 L14.9678656,4.76144275 L10.9371582,4.76144275 C10.8032255,4.76144275 10.6944262,4.65550112 10.6936242,4.52430012 L10.6936242,0.574303796 Z M14.8264117,19.5242862 L0.729143889,19.5242862 C0.664554638,19.5242862 0.602610796,19.4991511 0.556939301,19.4544103 C0.511267806,19.4096695 0.485609836,19.348988 0.485609836,19.2857149 L0.485609836,0.714303666 C0.485609836,0.582875214 0.594981412,0.475732442 0.729143889,0.475732442 L10.2080143,0.475732442 L10.2080143,4.52430012 C10.2080143,4.91878886 10.5344632,5.23858516 10.9371582,5.23858516 L15.0684874,5.23858516 L15.0684874,19.2857149 C15.0684874,19.4169183 14.960342,19.5235005 14.8264117,19.5242862 L14.8264117,19.5242862 Z" id="形状" fill="#605E5C" opacity="0.64"></path>
            </g>
            <rect id="矩形" fill="#0563B2" x="0" y="6.66666667" width="20" height="8.88888889" rx="1"></rect>
            <g id="exp" transform="translate(3.096000, 9.221000)" fill="#FFFFFF" fill-rule="nonzero">
                <path d="M2.25,0 C1.557,0 1.008,0.234 0.612,0.711 C0.198,1.179 0,1.755 0,2.448 C0,3.222 0.216,3.825 0.648,4.266 C1.053,4.689 1.602,4.905 2.295,4.905 C2.916,4.905 3.429,4.725 3.843,4.374 C4.167,4.086 4.383,3.717 4.491,3.285 L3.465,3.285 C3.339,3.546 3.204,3.735 3.051,3.852 C2.853,3.996 2.601,4.068 2.286,4.068 C1.917,4.068 1.629,3.951 1.431,3.726 C1.233,3.501 1.116,3.168 1.08,2.736 L4.563,2.736 C4.563,1.899 4.374,1.242 4.005,0.774 C3.6,0.252 3.015,0 2.25,0 Z M2.277,0.837 C2.997,0.837 3.402,1.206 3.492,1.962 L1.098,1.962 C1.161,1.593 1.287,1.314 1.476,1.125 C1.674,0.927 1.935,0.837 2.277,0.837 Z" id="形状"></path>
                <polygon id="路径" points="5.025 0.126 6.627 2.304 4.818 4.779 6.024 4.779 7.194 3.06 8.355 4.779 9.561 4.779 7.752 2.304 9.354 0.126 8.157 0.126 7.194 1.548 6.222 0.126"></polygon>
                <path d="M12.444,0 C11.832,0 11.364,0.207 11.04,0.621 L11.04,0.126 L10.086,0.126 L10.086,6.561 L11.112,6.561 L11.112,4.14 C11.49,4.644 11.958,4.905 12.498,4.905 C13.164,4.905 13.695,4.662 14.073,4.176 C14.424,3.726 14.604,3.159 14.604,2.475 C14.604,1.755 14.424,1.179 14.064,0.729 C13.668,0.243 13.128,0 12.444,0 Z M12.291,0.828 C12.741,0.828 13.074,0.99 13.29,1.314 C13.461,1.584 13.551,1.971 13.551,2.475 C13.551,2.979 13.452,3.366 13.263,3.636 C13.047,3.924 12.705,4.077 12.255,4.077 C11.922,4.077 11.652,3.942 11.436,3.672 C11.193,3.375 11.076,2.979 11.076,2.493 L11.076,2.421 C11.076,1.953 11.166,1.584 11.364,1.305 C11.58,0.981 11.886,0.828 12.291,0.828 Z" id="形状"></path>
            </g>
        </g>
    </g>
</svg>