<?xml version="1.0" encoding="UTF-8"?>
<svg width="20px" height="20px" viewBox="0 0 20 20" version="1.1" xmlns="http://www.w3.org/2000/svg" xmlns:xlink="http://www.w3.org/1999/xlink">
    <title>f3d2</title>
    <g id="文件图标" stroke="none" stroke-width="1" fill="none" fill-rule="evenodd">
        <g id="编组-3">
            <g id="编组" transform="translate(4.444444, 0.000000)" fill-rule="nonzero">
                <path d="M0.729143889,19.5242862 L14.8264117,19.5242862 C14.960342,19.5235005 15.0684874,19.4169183 15.0684874,19.2857149 L15.0684874,5.23858516 L10.9371582,5.23858516 C10.5344632,5.23858516 10.2080143,4.91878886 10.2080143,4.52430012 L10.2080143,0.475732442 L0.729143889,0.475732442 C0.664554638,0.475732442 0.602610796,0.500867553 0.556939301,0.545608337 C0.511267806,0.590349121 0.485609836,0.651030645 0.485609836,0.714303666 L0.485609836,19.2857149 C0.485609836,19.4171434 0.594981412,19.5242862 0.729143889,19.5242862 Z" id="路径" fill="#FFFFFF"></path>
                <path d="M14.9678656,4.76144275 L10.6950824,0.575732349 L10.6950824,4.52430012 C10.6950824,4.65572857 10.8029957,4.76144275 10.9371582,4.76144275 L14.9678656,4.76144275 L14.9678656,4.76144275 Z" id="路径" fill="#FFFFFF"></path>
                <path d="M15.3411873,4.45430019 L11.0100726,0.210018412 C10.8733184,0.0747249558 10.6867371,-0.000961027697 10.4923805,9.2146362e-06 L0.729143889,9.2146362e-06 C0.326448839,9.2146362e-06 0,0.319814921 0,0.714303666 L0,19.2857149 C0,19.6802037 0.326448839,20.0000092 0.729143889,20.0000092 L14.8264117,20.0000092 C15.2291067,20.0000092 15.5555556,19.6802037 15.5555556,19.2857149 L15.5555556,4.95858542 C15.5555556,4.76924268 15.4782987,4.58775259 15.3411873,4.45430019 Z M10.6936242,0.574303796 L14.9678656,4.76144275 L10.9371582,4.76144275 C10.8032255,4.76144275 10.6944262,4.65550112 10.6936242,4.52430012 L10.6936242,0.574303796 Z M14.8264117,19.5242862 L0.729143889,19.5242862 C0.664554638,19.5242862 0.602610796,19.4991511 0.556939301,19.4544103 C0.511267806,19.4096695 0.485609836,19.348988 0.485609836,19.2857149 L0.485609836,0.714303666 C0.485609836,0.582875214 0.594981412,0.475732442 0.729143889,0.475732442 L10.2080143,0.475732442 L10.2080143,4.52430012 C10.2080143,4.91878886 10.5344632,5.23858516 10.9371582,5.23858516 L15.0684874,5.23858516 L15.0684874,19.2857149 C15.0684874,19.4169183 14.960342,19.5235005 14.8264117,19.5242862 L14.8264117,19.5242862 Z" id="形状" fill="#605E5C" opacity="0.64"></path>
            </g>
            <g id="编组-4备份" transform="translate(0.000000, 7.000000)">
                <path d="M19,0 C19.5522847,-1.01453063e-16 20,0.44771525 20,1 L20,7.88888889 C20,8.44117364 19.5522847,8.88888889 19,8.88888889 L1,8.88888889 C0.44771525,8.88888889 6.76353751e-17,8.44117364 0,7.88888889 L0,1 C-6.76353751e-17,0.44771525 0.44771525,1.01453063e-16 1,0 L19,0 Z M19.0444832,0.504211426 L1.03848839,0.504211426 C0.762346013,0.504211426 0.538488388,0.728069051 0.538488388,1.00421143 L0.538488388,7.94127083 C0.538488388,8.2174132 0.762346013,8.44127083 1.03848839,8.44127083 L19.0444832,8.44127083 C19.3206256,8.44127083 19.5444832,8.2174132 19.5444832,7.94127083 L19.5444832,1.00421143 C19.5444832,0.728069051 19.3206256,0.504211426 19.0444832,0.504211426 Z" id="形状结合" fill="#0563B2"></path>
                <path d="M1.03848839,0.504211426 L19.0444832,0.504211426 C19.3206256,0.504211426 19.5444832,0.728069051 19.5444832,1.00421143 L19.5444832,7.94127083 C19.5444832,8.2174132 19.3206256,8.44127083 19.0444832,8.44127083 L1.03848839,8.44127083 C0.762346013,8.44127083 0.538488388,8.2174132 0.538488388,7.94127083 L0.538488388,1.00421143 C0.538488388,0.728069051 0.762346013,0.504211426 1.03848839,0.504211426 Z" id="矩形备份-25" fill="#FFFFFF"></path>
            </g>
            <g id="f3d" transform="translate(3.005000, 7.948000)" fill="#0563B2" fill-rule="nonzero">
                <path d="M2.322,0.126 C1.908,0.126 1.584,0.234 1.368,0.468 C1.143,0.693 1.035,1.008 1.035,1.404 L1.035,1.899 L0,1.899 L0,2.736 L1.035,2.736 L1.035,6.552 L2.061,6.552 L2.061,2.736 L3.249,2.736 L3.249,1.899 L2.061,1.899 L2.061,1.431 C2.061,1.278 2.088,1.17 2.16,1.098 C2.232,1.026 2.331,0.99 2.466,0.99 L3.312,0.99 L3.312,0.126 L2.322,0.126 Z" id="路径"></path>
                <path d="M6.06,0 C5.43,0 4.908,0.171 4.503,0.531 C4.071,0.891 3.837,1.395 3.783,2.043 L4.818,2.043 C4.854,1.656 4.98,1.368 5.196,1.179 C5.403,0.99 5.691,0.9 6.069,0.9 C6.438,0.9 6.717,0.981 6.906,1.143 C7.077,1.305 7.167,1.539 7.167,1.854 C7.167,2.169 7.068,2.412 6.879,2.574 C6.681,2.736 6.393,2.817 6.015,2.817 L5.565,2.817 L5.565,3.609 L6.015,3.609 C6.429,3.609 6.744,3.69 6.96,3.87 C7.176,4.041 7.293,4.311 7.293,4.68 C7.293,4.986 7.185,5.238 6.978,5.445 C6.744,5.67 6.42,5.787 6.015,5.787 C5.646,5.787 5.349,5.679 5.124,5.472 C4.872,5.247 4.746,4.923 4.728,4.509 L3.657,4.509 C3.711,5.229 3.963,5.787 4.413,6.165 C4.818,6.507 5.358,6.678 6.024,6.678 C6.726,6.678 7.293,6.48 7.725,6.093 C8.139,5.715 8.346,5.229 8.346,4.635 C8.346,4.257 8.238,3.942 8.022,3.699 C7.824,3.465 7.527,3.294 7.149,3.177 C7.86,2.943 8.22,2.475 8.22,1.773 C8.22,1.215 8.022,0.783 7.635,0.468 C7.239,0.153 6.708,0 6.06,0 Z" id="路径"></path>
                <path d="M12.489,0 L12.489,2.538 C12.102,2.025 11.643,1.773 11.103,1.773 C10.437,1.773 9.906,2.016 9.528,2.502 C9.168,2.952 8.997,3.519 8.997,4.203 C8.997,4.914 9.177,5.499 9.537,5.949 C9.924,6.435 10.464,6.678 11.157,6.678 C11.769,6.678 12.237,6.471 12.561,6.057 L12.561,6.552 L13.515,6.552 L13.515,0 L12.489,0 Z M11.346,2.601 C11.67,2.601 11.949,2.736 12.165,3.006 C12.399,3.294 12.525,3.69 12.525,4.185 L12.525,4.257 C12.525,4.707 12.426,5.085 12.237,5.373 C12.021,5.688 11.706,5.85 11.31,5.85 C10.851,5.85 10.518,5.688 10.311,5.364 C10.131,5.094 10.05,4.707 10.05,4.203 C10.05,3.699 10.14,3.321 10.329,3.06 C10.545,2.754 10.878,2.601 11.346,2.601 Z" id="形状"></path>
            </g>
        </g>
    </g>
</svg>