<?xml version="1.0" encoding="UTF-8"?>
<svg width="20px" height="20px" viewBox="0 0 20 20" version="1.1" xmlns="http://www.w3.org/2000/svg" xmlns:xlink="http://www.w3.org/1999/xlink">
    <title>fbx2</title>
    <g id="文件图标" stroke="none" stroke-width="1" fill="none" fill-rule="evenodd">
        <g id="编组-3">
            <g id="编组" transform="translate(4.444444, 0.000000)" fill-rule="nonzero">
                <path d="M0.729143889,19.5242862 L14.8264117,19.5242862 C14.960342,19.5235005 15.0684874,19.4169183 15.0684874,19.2857149 L15.0684874,5.23858516 L10.9371582,5.23858516 C10.5344632,5.23858516 10.2080143,4.91878886 10.2080143,4.52430012 L10.2080143,0.475732442 L0.729143889,0.475732442 C0.664554638,0.475732442 0.602610796,0.500867553 0.556939301,0.545608337 C0.511267806,0.590349121 0.485609836,0.651030645 0.485609836,0.714303666 L0.485609836,19.2857149 C0.485609836,19.4171434 0.594981412,19.5242862 0.729143889,19.5242862 Z" id="路径" fill="#FFFFFF"></path>
                <path d="M14.9678656,4.76144275 L10.6950824,0.575732349 L10.6950824,4.52430012 C10.6950824,4.65572857 10.8029957,4.76144275 10.9371582,4.76144275 L14.9678656,4.76144275 L14.9678656,4.76144275 Z" id="路径" fill="#FFFFFF"></path>
                <path d="M15.3411873,4.45430019 L11.0100726,0.210018412 C10.8733184,0.0747249558 10.6867371,-0.000961027697 10.4923805,9.2146362e-06 L0.729143889,9.2146362e-06 C0.326448839,9.2146362e-06 0,0.319814921 0,0.714303666 L0,19.2857149 C0,19.6802037 0.326448839,20.0000092 0.729143889,20.0000092 L14.8264117,20.0000092 C15.2291067,20.0000092 15.5555556,19.6802037 15.5555556,19.2857149 L15.5555556,4.95858542 C15.5555556,4.76924268 15.4782987,4.58775259 15.3411873,4.45430019 Z M10.6936242,0.574303796 L14.9678656,4.76144275 L10.9371582,4.76144275 C10.8032255,4.76144275 10.6944262,4.65550112 10.6936242,4.52430012 L10.6936242,0.574303796 Z M14.8264117,19.5242862 L0.729143889,19.5242862 C0.664554638,19.5242862 0.602610796,19.4991511 0.556939301,19.4544103 C0.511267806,19.4096695 0.485609836,19.348988 0.485609836,19.2857149 L0.485609836,0.714303666 C0.485609836,0.582875214 0.594981412,0.475732442 0.729143889,0.475732442 L10.2080143,0.475732442 L10.2080143,4.52430012 C10.2080143,4.91878886 10.5344632,5.23858516 10.9371582,5.23858516 L15.0684874,5.23858516 L15.0684874,19.2857149 C15.0684874,19.4169183 14.960342,19.5235005 14.8264117,19.5242862 L14.8264117,19.5242862 Z" id="形状" fill="#605E5C" opacity="0.64"></path>
            </g>
            <g id="编组-4备份" transform="translate(0.000000, 7.000000)">
                <path d="M19,0 C19.5522847,-1.01453063e-16 20,0.44771525 20,1 L20,7.88888889 C20,8.44117364 19.5522847,8.88888889 19,8.88888889 L1,8.88888889 C0.44771525,8.88888889 6.76353751e-17,8.44117364 0,7.88888889 L0,1 C-6.76353751e-17,0.44771525 0.44771525,1.01453063e-16 1,0 L19,0 Z M19.0444832,0.504211426 L1.03848839,0.504211426 C0.762346013,0.504211426 0.538488388,0.728069051 0.538488388,1.00421143 L0.538488388,7.94127083 C0.538488388,8.2174132 0.762346013,8.44127083 1.03848839,8.44127083 L19.0444832,8.44127083 C19.3206256,8.44127083 19.5444832,8.2174132 19.5444832,7.94127083 L19.5444832,1.00421143 C19.5444832,0.728069051 19.3206256,0.504211426 19.0444832,0.504211426 Z" id="形状结合" fill="#0563B2"></path>
                <path d="M1.03848839,0.504211426 L19.0444832,0.504211426 C19.3206256,0.504211426 19.5444832,0.728069051 19.5444832,1.00421143 L19.5444832,7.94127083 C19.5444832,8.2174132 19.3206256,8.44127083 19.0444832,8.44127083 L1.03848839,8.44127083 C0.762346013,8.44127083 0.538488388,8.2174132 0.538488388,7.94127083 L0.538488388,1.00421143 C0.538488388,0.728069051 0.762346013,0.504211426 1.03848839,0.504211426 Z" id="矩形备份-25" fill="#FFFFFF"></path>
            </g>
            <g id="fbx" transform="translate(3.392000, 7.948000)" fill="#0563B2" fill-rule="nonzero">
                <path d="M2.322,0.126 C1.908,0.126 1.584,0.234 1.368,0.468 C1.143,0.693 1.035,1.008 1.035,1.404 L1.035,1.899 L0,1.899 L0,2.736 L1.035,2.736 L1.035,6.552 L2.061,6.552 L2.061,2.736 L3.249,2.736 L3.249,1.899 L2.061,1.899 L2.061,1.431 C2.061,1.278 2.088,1.17 2.16,1.098 C2.232,1.026 2.331,0.99 2.466,0.99 L3.312,0.99 L3.312,0.126 L2.322,0.126 Z" id="路径"></path>
                <path d="M3.897,0 L3.897,6.552 L4.851,6.552 L4.851,6.057 C5.175,6.471 5.643,6.678 6.255,6.678 C6.939,6.678 7.479,6.435 7.875,5.949 C8.235,5.499 8.415,4.914 8.415,4.203 C8.415,3.519 8.235,2.952 7.884,2.502 C7.497,2.016 6.975,1.773 6.309,1.773 C5.769,1.773 5.301,2.025 4.923,2.538 L4.923,0 L3.897,0 Z M6.066,2.601 C6.525,2.601 6.867,2.754 7.083,3.06 C7.263,3.321 7.362,3.699 7.362,4.203 C7.362,4.707 7.272,5.094 7.101,5.364 C6.885,5.688 6.552,5.85 6.102,5.85 C5.697,5.85 5.391,5.688 5.175,5.373 C4.977,5.085 4.887,4.707 4.887,4.257 L4.887,4.185 C4.887,3.69 5.004,3.294 5.247,3.006 C5.463,2.736 5.733,2.601 6.066,2.601 Z" id="形状"></path>
                <polygon id="路径" points="9.027 1.899 10.629 4.077 8.82 6.552 10.026 6.552 11.196 4.833 12.357 6.552 13.563 6.552 11.754 4.077 13.356 1.899 12.159 1.899 11.196 3.321 10.224 1.899"></polygon>
            </g>
        </g>
    </g>
</svg>