<?xml version="1.0" encoding="UTF-8"?>
<svg width="20px" height="20px" viewBox="0 0 20 20" version="1.1" xmlns="http://www.w3.org/2000/svg" xmlns:xlink="http://www.w3.org/1999/xlink">
    <title>file</title>
    <g id="文件图标" stroke="none" stroke-width="1" fill="none" fill-rule="evenodd">
        <g id="编组-3">
            <g id="编组" transform="translate(4.444444, 0.000000)" fill-rule="nonzero">
                <path d="M0.729143889,19.5242862 L14.8264117,19.5242862 C14.960342,19.5235005 15.0684874,19.4169183 15.0684874,19.2857149 L15.0684874,5.23858516 L10.9371582,5.23858516 C10.5344632,5.23858516 10.2080143,4.91878886 10.2080143,4.52430012 L10.2080143,0.475732442 L0.729143889,0.475732442 C0.664554638,0.475732442 0.602610796,0.500867553 0.556939301,0.545608337 C0.511267806,0.590349121 0.485609836,0.651030645 0.485609836,0.714303666 L0.485609836,19.2857149 C0.485609836,19.4171434 0.594981412,19.5242862 0.729143889,19.5242862 Z" id="路径" fill="#FFFFFF"></path>
                <path d="M14.9678656,4.76144275 L10.6950824,0.575732349 L10.6950824,4.52430012 C10.6950824,4.65572857 10.8029957,4.76144275 10.9371582,4.76144275 L14.9678656,4.76144275 L14.9678656,4.76144275 Z" id="路径" fill="#FFFFFF"></path>
                <path d="M15.3411873,4.45430019 L11.0100726,0.210018412 C10.8733184,0.0747249558 10.6867371,-0.000961027697 10.4923805,9.2146362e-06 L0.729143889,9.2146362e-06 C0.326448839,9.2146362e-06 0,0.319814921 0,0.714303666 L0,19.2857149 C0,19.6802037 0.326448839,20.0000092 0.729143889,20.0000092 L14.8264117,20.0000092 C15.2291067,20.0000092 15.5555556,19.6802037 15.5555556,19.2857149 L15.5555556,4.95858542 C15.5555556,4.76924268 15.4782987,4.58775259 15.3411873,4.45430019 Z M10.6936242,0.574303796 L14.9678656,4.76144275 L10.9371582,4.76144275 C10.8032255,4.76144275 10.6944262,4.65550112 10.6936242,4.52430012 L10.6936242,0.574303796 Z M14.8264117,19.5242862 L0.729143889,19.5242862 C0.664554638,19.5242862 0.602610796,19.4991511 0.556939301,19.4544103 C0.511267806,19.4096695 0.485609836,19.348988 0.485609836,19.2857149 L0.485609836,0.714303666 C0.485609836,0.582875214 0.594981412,0.475732442 0.729143889,0.475732442 L10.2080143,0.475732442 L10.2080143,4.52430012 C10.2080143,4.91878886 10.5344632,5.23858516 10.9371582,5.23858516 L15.0684874,5.23858516 L15.0684874,19.2857149 C15.0684874,19.4169183 14.960342,19.5235005 14.8264117,19.5242862 L14.8264117,19.5242862 Z" id="形状" fill="#605E5C" opacity="0.64"></path>
            </g>
            <rect id="矩形" fill="#0563B2" x="0" y="6.66666667" width="20" height="8.88888889" rx="1"></rect>
            <g id="File" transform="translate(4.136000, 8.176000)" fill="#FFFFFF" fill-rule="nonzero">
                <polygon id="路径" points="0 0.112 0 5.824 0.936 5.824 0.936 3.296 3.728 3.296 3.728 2.496 0.936 2.496 0.936 0.912 3.896 0.912 3.896 0.112"></polygon>
                <path d="M5.192,0 C5.016,0 4.872,0.056 4.752,0.168 C4.632,0.28 4.576,0.424 4.576,0.6 C4.576,0.776 4.632,0.92 4.752,1.04 C4.872,1.152 5.016,1.208 5.192,1.208 C5.368,1.208 5.512,1.152 5.632,1.04 C5.752,0.928 5.816,0.776 5.816,0.6 C5.816,0.424 5.752,0.28 5.64,0.168 C5.52,0.056 5.368,0 5.192,0 Z M4.736,1.688 L4.736,5.824 L5.648,5.824 L5.648,1.688 L4.736,1.688 Z" id="形状"></path>
                <polygon id="路径" points="6.856 0 6.856 5.824 7.768 5.824 7.768 0"></polygon>
                <path d="M10.568,1.576 C9.952,1.576 9.464,1.784 9.112,2.208 C8.744,2.624 8.568,3.136 8.568,3.752 C8.568,4.44 8.76,4.976 9.144,5.368 C9.504,5.744 9.992,5.936 10.608,5.936 C11.16,5.936 11.616,5.776 11.984,5.464 C12.272,5.208 12.464,4.88 12.56,4.496 L11.648,4.496 C11.536,4.728 11.416,4.896 11.28,5 C11.104,5.128 10.88,5.192 10.6,5.192 C10.272,5.192 10.016,5.088 9.84,4.888 C9.664,4.688 9.56,4.392 9.528,4.008 L12.624,4.008 C12.624,3.264 12.456,2.68 12.128,2.264 C11.768,1.8 11.248,1.576 10.568,1.576 Z M10.592,2.32 C11.232,2.32 11.592,2.648 11.672,3.32 L9.544,3.32 C9.6,2.992 9.712,2.744 9.88,2.576 C10.056,2.4 10.288,2.32 10.592,2.32 Z" id="形状"></path>
            </g>
        </g>
    </g>
</svg>