<?xml version="1.0" encoding="UTF-8"?>
<svg width="20px" height="20px" viewBox="0 0 20 20" version="1.1" xmlns="http://www.w3.org/2000/svg" xmlns:xlink="http://www.w3.org/1999/xlink">
    <title>gif</title>
    <g id="文件图标" stroke="none" stroke-width="1" fill="none" fill-rule="evenodd">
        <g id="编组-3">
            <g id="编组" transform="translate(4.444444, 0.000000)" fill-rule="nonzero">
                <path d="M0.729143889,19.5242862 L14.8264117,19.5242862 C14.960342,19.5235005 15.0684874,19.4169183 15.0684874,19.2857149 L15.0684874,5.23858516 L10.9371582,5.23858516 C10.5344632,5.23858516 10.2080143,4.91878886 10.2080143,4.52430012 L10.2080143,0.475732442 L0.729143889,0.475732442 C0.664554638,0.475732442 0.602610796,0.500867553 0.556939301,0.545608337 C0.511267806,0.590349121 0.485609836,0.651030645 0.485609836,0.714303666 L0.485609836,19.2857149 C0.485609836,19.4171434 0.594981412,19.5242862 0.729143889,19.5242862 Z" id="路径" fill="#FFFFFF"></path>
                <path d="M14.9678656,4.76144275 L10.6950824,0.575732349 L10.6950824,4.52430012 C10.6950824,4.65572857 10.8029957,4.76144275 10.9371582,4.76144275 L14.9678656,4.76144275 L14.9678656,4.76144275 Z" id="路径" fill="#FFFFFF"></path>
                <path d="M15.3411873,4.45430019 L11.0100726,0.210018412 C10.8733184,0.0747249558 10.6867371,-0.000961027697 10.4923805,9.2146362e-06 L0.729143889,9.2146362e-06 C0.326448839,9.2146362e-06 0,0.319814921 0,0.714303666 L0,19.2857149 C0,19.6802037 0.326448839,20.0000092 0.729143889,20.0000092 L14.8264117,20.0000092 C15.2291067,20.0000092 15.5555556,19.6802037 15.5555556,19.2857149 L15.5555556,4.95858542 C15.5555556,4.76924268 15.4782987,4.58775259 15.3411873,4.45430019 Z M10.6936242,0.574303796 L14.9678656,4.76144275 L10.9371582,4.76144275 C10.8032255,4.76144275 10.6944262,4.65550112 10.6936242,4.52430012 L10.6936242,0.574303796 Z M14.8264117,19.5242862 L0.729143889,19.5242862 C0.664554638,19.5242862 0.602610796,19.4991511 0.556939301,19.4544103 C0.511267806,19.4096695 0.485609836,19.348988 0.485609836,19.2857149 L0.485609836,0.714303666 C0.485609836,0.582875214 0.594981412,0.475732442 0.729143889,0.475732442 L10.2080143,0.475732442 L10.2080143,4.52430012 C10.2080143,4.91878886 10.5344632,5.23858516 10.9371582,5.23858516 L15.0684874,5.23858516 L15.0684874,19.2857149 C15.0684874,19.4169183 14.960342,19.5235005 14.8264117,19.5242862 L14.8264117,19.5242862 Z" id="形状" fill="#605E5C" opacity="0.64"></path>
            </g>
            <rect id="矩形" fill="#0563B2" x="0" y="6.66666667" width="20" height="8.88888889" rx="1"></rect>
            <g id="gif" transform="translate(4.245000, 6.948000)" fill="#FFFFFF" fill-rule="nonzero">
                <path d="M2.115,1.773 C1.485,1.773 0.972,1.989 0.585,2.421 C0.189,2.853 0,3.42 0,4.122 C0,4.824 0.189,5.391 0.585,5.814 C0.972,6.228 1.485,6.444 2.115,6.444 C2.691,6.444 3.15,6.201 3.492,5.724 L3.492,6.408 C3.492,7.236 3.105,7.65 2.331,7.65 C1.971,7.65 1.71,7.596 1.548,7.497 C1.377,7.389 1.269,7.209 1.215,6.948 L0.189,6.948 C0.279,7.47 0.495,7.848 0.837,8.1 C1.179,8.334 1.674,8.46 2.331,8.46 C3.789,8.46 4.518,7.722 4.518,6.255 L4.518,1.899 L3.492,1.899 L3.492,2.466 C3.15,1.998 2.691,1.773 2.115,1.773 Z M2.277,2.601 C2.664,2.601 2.97,2.736 3.186,3.006 C3.393,3.276 3.501,3.645 3.501,4.122 C3.501,4.59 3.393,4.95 3.186,5.22 C2.97,5.472 2.664,5.607 2.268,5.607 C1.818,5.607 1.503,5.454 1.305,5.157 C1.134,4.905 1.053,4.563 1.053,4.122 C1.053,3.636 1.161,3.267 1.377,3.006 C1.593,2.736 1.89,2.601 2.277,2.601 Z" id="形状"></path>
                <path d="M6.231,0 C6.033,0 5.871,0.063 5.736,0.189 C5.601,0.315 5.538,0.477 5.538,0.675 C5.538,0.873 5.601,1.035 5.736,1.17 C5.871,1.296 6.033,1.359 6.231,1.359 C6.429,1.359 6.591,1.296 6.726,1.17 C6.861,1.044 6.933,0.873 6.933,0.675 C6.933,0.477 6.861,0.315 6.735,0.189 C6.6,0.063 6.429,0 6.231,0 Z M5.718,1.899 L5.718,6.552 L6.744,6.552 L6.744,1.899 L5.718,1.899 Z" id="形状"></path>
                <path d="M9.78,0.126 C9.366,0.126 9.042,0.234 8.826,0.468 C8.601,0.693 8.493,1.008 8.493,1.404 L8.493,1.899 L7.458,1.899 L7.458,2.736 L8.493,2.736 L8.493,6.552 L9.519,6.552 L9.519,2.736 L10.707,2.736 L10.707,1.899 L9.519,1.899 L9.519,1.431 C9.519,1.278 9.546,1.17 9.618,1.098 C9.69,1.026 9.789,0.99 9.924,0.99 L10.77,0.99 L10.77,0.126 L9.78,0.126 Z" id="路径"></path>
            </g>
        </g>
    </g>
</svg>