<?xml version="1.0" encoding="UTF-8"?>
<svg width="20px" height="20px" viewBox="0 0 20 20" version="1.1" xmlns="http://www.w3.org/2000/svg" xmlns:xlink="http://www.w3.org/1999/xlink">
    <title>go2</title>
    <g id="文件图标" stroke="none" stroke-width="1" fill="none" fill-rule="evenodd">
        <g id="编组-3">
            <g id="编组" transform="translate(4.444444, 0.000000)" fill-rule="nonzero">
                <path d="M0.729143889,19.5242862 L14.8264117,19.5242862 C14.960342,19.5235005 15.0684874,19.4169183 15.0684874,19.2857149 L15.0684874,5.23858516 L10.9371582,5.23858516 C10.5344632,5.23858516 10.2080143,4.91878886 10.2080143,4.52430012 L10.2080143,0.475732442 L0.729143889,0.475732442 C0.664554638,0.475732442 0.602610796,0.500867553 0.556939301,0.545608337 C0.511267806,0.590349121 0.485609836,0.651030645 0.485609836,0.714303666 L0.485609836,19.2857149 C0.485609836,19.4171434 0.594981412,19.5242862 0.729143889,19.5242862 Z" id="路径" fill="#FFFFFF"></path>
                <path d="M14.9678656,4.76144275 L10.6950824,0.575732349 L10.6950824,4.52430012 C10.6950824,4.65572857 10.8029957,4.76144275 10.9371582,4.76144275 L14.9678656,4.76144275 L14.9678656,4.76144275 Z" id="路径" fill="#FFFFFF"></path>
                <path d="M15.3411873,4.45430019 L11.0100726,0.210018412 C10.8733184,0.0747249558 10.6867371,-0.000961027697 10.4923805,9.2146362e-06 L0.729143889,9.2146362e-06 C0.326448839,9.2146362e-06 0,0.319814921 0,0.714303666 L0,19.2857149 C0,19.6802037 0.326448839,20.0000092 0.729143889,20.0000092 L14.8264117,20.0000092 C15.2291067,20.0000092 15.5555556,19.6802037 15.5555556,19.2857149 L15.5555556,4.95858542 C15.5555556,4.76924268 15.4782987,4.58775259 15.3411873,4.45430019 Z M10.6936242,0.574303796 L14.9678656,4.76144275 L10.9371582,4.76144275 C10.8032255,4.76144275 10.6944262,4.65550112 10.6936242,4.52430012 L10.6936242,0.574303796 Z M14.8264117,19.5242862 L0.729143889,19.5242862 C0.664554638,19.5242862 0.602610796,19.4991511 0.556939301,19.4544103 C0.511267806,19.4096695 0.485609836,19.348988 0.485609836,19.2857149 L0.485609836,0.714303666 C0.485609836,0.582875214 0.594981412,0.475732442 0.729143889,0.475732442 L10.2080143,0.475732442 L10.2080143,4.52430012 C10.2080143,4.91878886 10.5344632,5.23858516 10.9371582,5.23858516 L15.0684874,5.23858516 L15.0684874,19.2857149 C15.0684874,19.4169183 14.960342,19.5235005 14.8264117,19.5242862 L14.8264117,19.5242862 Z" id="形状" fill="#605E5C" opacity="0.64"></path>
            </g>
            <g id="编组-4备份" transform="translate(0.000000, 7.000000)">
                <path d="M19,0 C19.5522847,-1.01453063e-16 20,0.44771525 20,1 L20,7.88888889 C20,8.44117364 19.5522847,8.88888889 19,8.88888889 L1,8.88888889 C0.44771525,8.88888889 6.76353751e-17,8.44117364 0,7.88888889 L0,1 C-6.76353751e-17,0.44771525 0.44771525,1.01453063e-16 1,0 L19,0 Z M19.0444832,0.504211426 L1.03848839,0.504211426 C0.762346013,0.504211426 0.538488388,0.728069051 0.538488388,1.00421143 L0.538488388,7.94127083 C0.538488388,8.2174132 0.762346013,8.44127083 1.03848839,8.44127083 L19.0444832,8.44127083 C19.3206256,8.44127083 19.5444832,8.2174132 19.5444832,7.94127083 L19.5444832,1.00421143 C19.5444832,0.728069051 19.3206256,0.504211426 19.0444832,0.504211426 Z" id="形状结合" fill="#0563B2"></path>
                <path d="M1.03848839,0.504211426 L19.0444832,0.504211426 C19.3206256,0.504211426 19.5444832,0.728069051 19.5444832,1.00421143 L19.5444832,7.94127083 C19.5444832,8.2174132 19.3206256,8.44127083 19.0444832,8.44127083 L1.03848839,8.44127083 C0.762346013,8.44127083 0.538488388,8.2174132 0.538488388,7.94127083 L0.538488388,1.00421143 C0.538488388,0.728069051 0.762346013,0.504211426 1.03848839,0.504211426 Z" id="矩形备份-25" fill="#FFFFFF"></path>
            </g>
            <g id="go" transform="translate(4.662000, 7.821000)" fill="#0563B2" fill-rule="nonzero">
                <path d="M2.115,0 C1.485,0 0.972,0.216 0.585,0.648 C0.189,1.08 0,1.647 0,2.349 C0,3.051 0.189,3.618 0.585,4.041 C0.972,4.455 1.485,4.671 2.115,4.671 C2.691,4.671 3.15,4.428 3.492,3.951 L3.492,4.635 C3.492,5.463 3.105,5.877 2.331,5.877 C1.971,5.877 1.71,5.823 1.548,5.724 C1.377,5.616 1.269,5.436 1.215,5.175 L0.189,5.175 C0.279,5.697 0.495,6.075 0.837,6.327 C1.179,6.561 1.674,6.687 2.331,6.687 C3.789,6.687 4.518,5.949 4.518,4.482 L4.518,0.126 L3.492,0.126 L3.492,0.693 C3.15,0.225 2.691,0 2.115,0 Z M2.277,0.828 C2.664,0.828 2.97,0.963 3.186,1.233 C3.393,1.503 3.501,1.872 3.501,2.349 C3.501,2.817 3.393,3.177 3.186,3.447 C2.97,3.699 2.664,3.834 2.268,3.834 C1.818,3.834 1.503,3.681 1.305,3.384 C1.134,3.132 1.053,2.79 1.053,2.349 C1.053,1.863 1.161,1.494 1.377,1.233 C1.593,0.963 1.89,0.828 2.277,0.828 Z" id="形状"></path>
                <path d="M7.698,0 C6.987,0 6.42,0.225 5.997,0.693 C5.565,1.152 5.358,1.737 5.358,2.457 C5.358,3.168 5.565,3.753 5.988,4.203 C6.42,4.671 6.987,4.905 7.698,4.905 C8.4,4.905 8.976,4.671 9.408,4.203 C9.822,3.753 10.038,3.168 10.038,2.457 C10.038,1.737 9.822,1.152 9.399,0.693 C8.967,0.225 8.4,0 7.698,0 Z M7.698,0.837 C8.121,0.837 8.454,0.999 8.688,1.341 C8.886,1.629 8.994,2.007 8.994,2.457 C8.994,2.898 8.886,3.267 8.688,3.564 C8.454,3.897 8.121,4.068 7.698,4.068 C7.266,4.068 6.942,3.897 6.708,3.564 C6.51,3.276 6.411,2.907 6.411,2.457 C6.411,2.007 6.51,1.629 6.708,1.341 C6.942,0.999 7.266,0.837 7.698,0.837 Z" id="形状"></path>
            </g>
        </g>
    </g>
</svg>