<?xml version="1.0" encoding="UTF-8"?>
<svg width="20px" height="20px" viewBox="0 0 20 20" version="1.1" xmlns="http://www.w3.org/2000/svg" xmlns:xlink="http://www.w3.org/1999/xlink">
    <title>html</title>
    <g id="文件图标" stroke="none" stroke-width="1" fill="none" fill-rule="evenodd">
        <g id="编组-3">
            <g id="编组" transform="translate(4.444444, 0.000000)" fill-rule="nonzero">
                <path d="M0.729143889,19.5242862 L14.8264117,19.5242862 C14.960342,19.5235005 15.0684874,19.4169183 15.0684874,19.2857149 L15.0684874,5.23858516 L10.9371582,5.23858516 C10.5344632,5.23858516 10.2080143,4.91878886 10.2080143,4.52430012 L10.2080143,0.475732442 L0.729143889,0.475732442 C0.664554638,0.475732442 0.602610796,0.500867553 0.556939301,0.545608337 C0.511267806,0.590349121 0.485609836,0.651030645 0.485609836,0.714303666 L0.485609836,19.2857149 C0.485609836,19.4171434 0.594981412,19.5242862 0.729143889,19.5242862 Z" id="路径" fill="#FFFFFF"></path>
                <path d="M14.9678656,4.76144275 L10.6950824,0.575732349 L10.6950824,4.52430012 C10.6950824,4.65572857 10.8029957,4.76144275 10.9371582,4.76144275 L14.9678656,4.76144275 L14.9678656,4.76144275 Z" id="路径" fill="#FFFFFF"></path>
                <path d="M15.3411873,4.45430019 L11.0100726,0.210018412 C10.8733184,0.0747249558 10.6867371,-0.000961027697 10.4923805,9.2146362e-06 L0.729143889,9.2146362e-06 C0.326448839,9.2146362e-06 0,0.319814921 0,0.714303666 L0,19.2857149 C0,19.6802037 0.326448839,20.0000092 0.729143889,20.0000092 L14.8264117,20.0000092 C15.2291067,20.0000092 15.5555556,19.6802037 15.5555556,19.2857149 L15.5555556,4.95858542 C15.5555556,4.76924268 15.4782987,4.58775259 15.3411873,4.45430019 Z M10.6936242,0.574303796 L14.9678656,4.76144275 L10.9371582,4.76144275 C10.8032255,4.76144275 10.6944262,4.65550112 10.6936242,4.52430012 L10.6936242,0.574303796 Z M14.8264117,19.5242862 L0.729143889,19.5242862 C0.664554638,19.5242862 0.602610796,19.4991511 0.556939301,19.4544103 C0.511267806,19.4096695 0.485609836,19.348988 0.485609836,19.2857149 L0.485609836,0.714303666 C0.485609836,0.582875214 0.594981412,0.475732442 0.729143889,0.475732442 L10.2080143,0.475732442 L10.2080143,4.52430012 C10.2080143,4.91878886 10.5344632,5.23858516 10.9371582,5.23858516 L15.0684874,5.23858516 L15.0684874,19.2857149 C15.0684874,19.4169183 14.960342,19.5235005 14.8264117,19.5242862 L14.8264117,19.5242862 Z" id="形状" fill="#605E5C" opacity="0.64"></path>
            </g>
            <rect id="矩形" fill="#0563B2" x="0" y="6.66666667" width="20" height="8.88888889" rx="1"></rect>
            <g id="html" transform="translate(1.587000, 7.948000)" fill="#FFFFFF" fill-rule="nonzero">
                <path d="M0,0 L0,6.552 L1.026,6.552 L1.026,3.951 C1.026,3.555 1.116,3.24 1.305,2.988 C1.485,2.736 1.737,2.61 2.061,2.61 C2.412,2.61 2.673,2.718 2.853,2.943 C3.006,3.15 3.087,3.456 3.087,3.852 L3.087,6.552 L4.113,6.552 L4.113,3.672 C4.113,3.051 3.978,2.583 3.717,2.268 C3.438,1.935 3.015,1.773 2.448,1.773 C2.151,1.773 1.89,1.827 1.665,1.944 C1.413,2.07 1.197,2.259 1.026,2.52 L1.026,0 L0,0 Z" id="路径"></path>
                <path d="M6.591,0.396 L5.565,0.819 L5.565,1.899 L4.728,1.899 L4.728,2.745 L5.565,2.745 L5.565,5.373 C5.565,5.751 5.655,6.03 5.835,6.228 C6.024,6.444 6.321,6.552 6.726,6.552 L7.509,6.552 L7.509,5.706 L6.897,5.706 C6.789,5.706 6.717,5.679 6.663,5.625 C6.609,5.562 6.591,5.481 6.591,5.373 L6.591,2.745 L7.626,2.745 L7.626,1.899 L6.591,1.899 L6.591,0.396 Z" id="路径"></path>
                <path d="M10.617,1.773 C10.167,1.773 9.744,1.971 9.357,2.376 L9.357,1.899 L8.331,1.899 L8.331,6.552 L9.357,6.552 L9.357,3.762 C9.357,3.456 9.447,3.186 9.627,2.97 C9.807,2.736 10.041,2.628 10.338,2.628 C10.95,2.628 11.256,2.979 11.256,3.69 L11.256,6.552 L12.282,6.552 L12.282,3.708 C12.282,3.366 12.363,3.105 12.543,2.916 C12.714,2.718 12.921,2.628 13.173,2.628 C13.533,2.628 13.785,2.709 13.947,2.88 C14.1,3.042 14.181,3.312 14.181,3.681 L14.181,6.552 L15.207,6.552 L15.207,3.501 C15.207,2.988 15.045,2.574 14.739,2.25 C14.415,1.926 14.019,1.773 13.542,1.773 C13.227,1.773 12.966,1.827 12.759,1.935 C12.525,2.043 12.3,2.241 12.084,2.529 C11.787,2.025 11.301,1.773 10.617,1.773 Z" id="路径"></path>
                <polygon id="路径" points="16.317 0 16.317 6.552 17.343 6.552 17.343 0"></polygon>
            </g>
        </g>
    </g>
</svg>