<?xml version="1.0" encoding="UTF-8"?>
<svg width="20px" height="20px" viewBox="0 0 20 20" version="1.1" xmlns="http://www.w3.org/2000/svg" xmlns:xlink="http://www.w3.org/1999/xlink">
    <title>iam2</title>
    <g id="文件图标" stroke="none" stroke-width="1" fill="none" fill-rule="evenodd">
        <g id="编组-3">
            <g id="编组" transform="translate(4.444444, 0.000000)" fill-rule="nonzero">
                <path d="M0.729143889,19.5242862 L14.8264117,19.5242862 C14.960342,19.5235005 15.0684874,19.4169183 15.0684874,19.2857149 L15.0684874,5.23858516 L10.9371582,5.23858516 C10.5344632,5.23858516 10.2080143,4.91878886 10.2080143,4.52430012 L10.2080143,0.475732442 L0.729143889,0.475732442 C0.664554638,0.475732442 0.602610796,0.500867553 0.556939301,0.545608337 C0.511267806,0.590349121 0.485609836,0.651030645 0.485609836,0.714303666 L0.485609836,19.2857149 C0.485609836,19.4171434 0.594981412,19.5242862 0.729143889,19.5242862 Z" id="路径" fill="#FFFFFF"></path>
                <path d="M14.9678656,4.76144275 L10.6950824,0.575732349 L10.6950824,4.52430012 C10.6950824,4.65572857 10.8029957,4.76144275 10.9371582,4.76144275 L14.9678656,4.76144275 L14.9678656,4.76144275 Z" id="路径" fill="#FFFFFF"></path>
                <path d="M15.3411873,4.45430019 L11.0100726,0.210018412 C10.8733184,0.0747249558 10.6867371,-0.000961027697 10.4923805,9.2146362e-06 L0.729143889,9.2146362e-06 C0.326448839,9.2146362e-06 0,0.319814921 0,0.714303666 L0,19.2857149 C0,19.6802037 0.326448839,20.0000092 0.729143889,20.0000092 L14.8264117,20.0000092 C15.2291067,20.0000092 15.5555556,19.6802037 15.5555556,19.2857149 L15.5555556,4.95858542 C15.5555556,4.76924268 15.4782987,4.58775259 15.3411873,4.45430019 Z M10.6936242,0.574303796 L14.9678656,4.76144275 L10.9371582,4.76144275 C10.8032255,4.76144275 10.6944262,4.65550112 10.6936242,4.52430012 L10.6936242,0.574303796 Z M14.8264117,19.5242862 L0.729143889,19.5242862 C0.664554638,19.5242862 0.602610796,19.4991511 0.556939301,19.4544103 C0.511267806,19.4096695 0.485609836,19.348988 0.485609836,19.2857149 L0.485609836,0.714303666 C0.485609836,0.582875214 0.594981412,0.475732442 0.729143889,0.475732442 L10.2080143,0.475732442 L10.2080143,4.52430012 C10.2080143,4.91878886 10.5344632,5.23858516 10.9371582,5.23858516 L15.0684874,5.23858516 L15.0684874,19.2857149 C15.0684874,19.4169183 14.960342,19.5235005 14.8264117,19.5242862 L14.8264117,19.5242862 Z" id="形状" fill="#605E5C" opacity="0.64"></path>
            </g>
            <g id="编组-4备份" transform="translate(0.000000, 7.000000)">
                <path d="M19,0 C19.5522847,-1.01453063e-16 20,0.44771525 20,1 L20,7.88888889 C20,8.44117364 19.5522847,8.88888889 19,8.88888889 L1,8.88888889 C0.44771525,8.88888889 6.76353751e-17,8.44117364 0,7.88888889 L0,1 C-6.76353751e-17,0.44771525 0.44771525,1.01453063e-16 1,0 L19,0 Z M19.0444832,0.504211426 L1.03848839,0.504211426 C0.762346013,0.504211426 0.538488388,0.728069051 0.538488388,1.00421143 L0.538488388,7.94127083 C0.538488388,8.2174132 0.762346013,8.44127083 1.03848839,8.44127083 L19.0444832,8.44127083 C19.3206256,8.44127083 19.5444832,8.2174132 19.5444832,7.94127083 L19.5444832,1.00421143 C19.5444832,0.728069051 19.3206256,0.504211426 19.0444832,0.504211426 Z" id="形状结合" fill="#0563B2"></path>
                <path d="M1.03848839,0.504211426 L19.0444832,0.504211426 C19.3206256,0.504211426 19.5444832,0.728069051 19.5444832,1.00421143 L19.5444832,7.94127083 C19.5444832,8.2174132 19.3206256,8.44127083 19.0444832,8.44127083 L1.03848839,8.44127083 C0.762346013,8.44127083 0.538488388,8.2174132 0.538488388,7.94127083 L0.538488388,1.00421143 C0.538488388,0.728069051 0.762346013,0.504211426 1.03848839,0.504211426 Z" id="矩形备份-25" fill="#FFFFFF"></path>
            </g>
            <g id="iam" transform="translate(3.141000, 7.748000)" fill="#0563B2" fill-rule="nonzero">
                <path d="M0.693,0 C0.495,0 0.333,0.063 0.198,0.189 C0.063,0.315 0,0.477 0,0.675 C0,0.873 0.063,1.035 0.198,1.17 C0.333,1.296 0.495,1.359 0.693,1.359 C0.891,1.359 1.053,1.296 1.188,1.17 C1.323,1.044 1.395,0.873 1.395,0.675 C1.395,0.477 1.323,0.315 1.197,0.189 C1.062,0.063 0.891,0 0.693,0 Z M0.18,1.899 L0.18,6.552 L1.206,6.552 L1.206,1.899 L0.18,1.899 Z" id="形状"></path>
                <path d="M4.53,1.773 C3.936,1.773 3.468,1.872 3.126,2.088 C2.721,2.322 2.469,2.7 2.37,3.213 L3.387,3.294 C3.441,3.051 3.576,2.871 3.774,2.754 C3.945,2.646 4.17,2.601 4.458,2.601 C5.124,2.601 5.457,2.898 5.457,3.51 L5.457,3.69 L4.44,3.717 C3.756,3.735 3.225,3.879 2.847,4.149 C2.433,4.428 2.235,4.833 2.235,5.355 C2.235,5.742 2.379,6.057 2.667,6.309 C2.946,6.552 3.324,6.678 3.81,6.678 C4.215,6.678 4.566,6.606 4.863,6.471 C5.124,6.345 5.349,6.174 5.529,5.94 L5.529,6.552 L6.483,6.552 L6.483,3.582 C6.483,3.015 6.339,2.583 6.051,2.286 C5.727,1.944 5.214,1.773 4.53,1.773 Z M5.457,4.428 L5.457,4.662 C5.457,5.022 5.313,5.319 5.043,5.553 C4.773,5.778 4.44,5.895 4.044,5.895 C3.819,5.895 3.639,5.832 3.495,5.724 C3.351,5.616 3.288,5.481 3.288,5.319 C3.288,4.761 3.693,4.473 4.512,4.455 L5.457,4.428 Z" id="形状"></path>
                <path d="M9.789,1.773 C9.339,1.773 8.916,1.971 8.529,2.376 L8.529,1.899 L7.503,1.899 L7.503,6.552 L8.529,6.552 L8.529,3.762 C8.529,3.456 8.619,3.186 8.799,2.97 C8.979,2.736 9.213,2.628 9.51,2.628 C10.122,2.628 10.428,2.979 10.428,3.69 L10.428,6.552 L11.454,6.552 L11.454,3.708 C11.454,3.366 11.535,3.105 11.715,2.916 C11.886,2.718 12.093,2.628 12.345,2.628 C12.705,2.628 12.957,2.709 13.119,2.88 C13.272,3.042 13.353,3.312 13.353,3.681 L13.353,6.552 L14.379,6.552 L14.379,3.501 C14.379,2.988 14.217,2.574 13.911,2.25 C13.587,1.926 13.191,1.773 12.714,1.773 C12.399,1.773 12.138,1.827 11.931,1.935 C11.697,2.043 11.472,2.241 11.256,2.529 C10.959,2.025 10.473,1.773 9.789,1.773 Z" id="路径"></path>
            </g>
        </g>
    </g>
</svg>