<?xml version="1.0" encoding="UTF-8"?>
<svg width="20px" height="20px" viewBox="0 0 20 20" version="1.1" xmlns="http://www.w3.org/2000/svg" xmlns:xlink="http://www.w3.org/1999/xlink">
    <title>idt</title>
    <g id="文件图标" stroke="none" stroke-width="1" fill="none" fill-rule="evenodd">
        <g id="编组-3">
            <g id="编组" transform="translate(4.444444, 0.000000)" fill-rule="nonzero">
                <path d="M0.729143889,19.5242862 L14.8264117,19.5242862 C14.960342,19.5235005 15.0684874,19.4169183 15.0684874,19.2857149 L15.0684874,5.23858516 L10.9371582,5.23858516 C10.5344632,5.23858516 10.2080143,4.91878886 10.2080143,4.52430012 L10.2080143,0.475732442 L0.729143889,0.475732442 C0.664554638,0.475732442 0.602610796,0.500867553 0.556939301,0.545608337 C0.511267806,0.590349121 0.485609836,0.651030645 0.485609836,0.714303666 L0.485609836,19.2857149 C0.485609836,19.4171434 0.594981412,19.5242862 0.729143889,19.5242862 Z" id="路径" fill="#FFFFFF"></path>
                <path d="M14.9678656,4.76144275 L10.6950824,0.575732349 L10.6950824,4.52430012 C10.6950824,4.65572857 10.8029957,4.76144275 10.9371582,4.76144275 L14.9678656,4.76144275 L14.9678656,4.76144275 Z" id="路径" fill="#FFFFFF"></path>
                <path d="M15.3411873,4.45430019 L11.0100726,0.210018412 C10.8733184,0.0747249558 10.6867371,-0.000961027697 10.4923805,9.2146362e-06 L0.729143889,9.2146362e-06 C0.326448839,9.2146362e-06 0,0.319814921 0,0.714303666 L0,19.2857149 C0,19.6802037 0.326448839,20.0000092 0.729143889,20.0000092 L14.8264117,20.0000092 C15.2291067,20.0000092 15.5555556,19.6802037 15.5555556,19.2857149 L15.5555556,4.95858542 C15.5555556,4.76924268 15.4782987,4.58775259 15.3411873,4.45430019 Z M10.6936242,0.574303796 L14.9678656,4.76144275 L10.9371582,4.76144275 C10.8032255,4.76144275 10.6944262,4.65550112 10.6936242,4.52430012 L10.6936242,0.574303796 Z M14.8264117,19.5242862 L0.729143889,19.5242862 C0.664554638,19.5242862 0.602610796,19.4991511 0.556939301,19.4544103 C0.511267806,19.4096695 0.485609836,19.348988 0.485609836,19.2857149 L0.485609836,0.714303666 C0.485609836,0.582875214 0.594981412,0.475732442 0.729143889,0.475732442 L10.2080143,0.475732442 L10.2080143,4.52430012 C10.2080143,4.91878886 10.5344632,5.23858516 10.9371582,5.23858516 L15.0684874,5.23858516 L15.0684874,19.2857149 C15.0684874,19.4169183 14.960342,19.5235005 14.8264117,19.5242862 L14.8264117,19.5242862 Z" id="形状" fill="#605E5C" opacity="0.64"></path>
            </g>
            <rect id="矩形" fill="#0563B2" x="0" y="6.66666667" width="20" height="8.88888889" rx="1"></rect>
            <g id="idt" transform="translate(5.389000, 7.448000)" fill="#FFFFFF" fill-rule="nonzero">
                <path d="M0.693,0 C0.495,0 0.333,0.063 0.198,0.189 C0.063,0.315 0,0.477 0,0.675 C0,0.873 0.063,1.035 0.198,1.17 C0.333,1.296 0.495,1.359 0.693,1.359 C0.891,1.359 1.053,1.296 1.188,1.17 C1.323,1.044 1.395,0.873 1.395,0.675 C1.395,0.477 1.323,0.315 1.197,0.189 C1.062,0.063 0.891,0 0.693,0 Z M0.18,1.899 L0.18,6.552 L1.206,6.552 L1.206,1.899 L0.18,1.899 Z" id="形状"></path>
                <path d="M5.787,0 L5.787,2.538 C5.4,2.025 4.941,1.773 4.401,1.773 C3.735,1.773 3.204,2.016 2.826,2.502 C2.466,2.952 2.295,3.519 2.295,4.203 C2.295,4.914 2.475,5.499 2.835,5.949 C3.222,6.435 3.762,6.678 4.455,6.678 C5.067,6.678 5.535,6.471 5.859,6.057 L5.859,6.552 L6.813,6.552 L6.813,0 L5.787,0 Z M4.644,2.601 C4.968,2.601 5.247,2.736 5.463,3.006 C5.697,3.294 5.823,3.69 5.823,4.185 L5.823,4.257 C5.823,4.707 5.724,5.085 5.535,5.373 C5.319,5.688 5.004,5.85 4.608,5.85 C4.149,5.85 3.816,5.688 3.609,5.364 C3.429,5.094 3.348,4.707 3.348,4.203 C3.348,3.699 3.438,3.321 3.627,3.06 C3.843,2.754 4.176,2.601 4.644,2.601 Z" id="形状"></path>
                <path d="M9.351,0.396 L8.325,0.819 L8.325,1.899 L7.488,1.899 L7.488,2.745 L8.325,2.745 L8.325,5.373 C8.325,5.751 8.415,6.03 8.595,6.228 C8.784,6.444 9.081,6.552 9.486,6.552 L10.269,6.552 L10.269,5.706 L9.657,5.706 C9.549,5.706 9.477,5.679 9.423,5.625 C9.369,5.562 9.351,5.481 9.351,5.373 L9.351,2.745 L10.386,2.745 L10.386,1.899 L9.351,1.899 L9.351,0.396 Z" id="路径"></path>
            </g>
        </g>
    </g>
</svg>