<?xml version="1.0" encoding="UTF-8"?>
<svg width="20px" height="20px" viewBox="0 0 20 20" version="1.1" xmlns="http://www.w3.org/2000/svg" xmlns:xlink="http://www.w3.org/1999/xlink">
    <title>ifc</title>
    <g id="文件图标" stroke="none" stroke-width="1" fill="none" fill-rule="evenodd">
        <g id="编组-3">
            <g id="编组" transform="translate(4.444444, 0.000000)" fill-rule="nonzero">
                <path d="M0.729143889,19.5242862 L14.8264117,19.5242862 C14.960342,19.5235005 15.0684874,19.4169183 15.0684874,19.2857149 L15.0684874,5.23858516 L10.9371582,5.23858516 C10.5344632,5.23858516 10.2080143,4.91878886 10.2080143,4.52430012 L10.2080143,0.475732442 L0.729143889,0.475732442 C0.664554638,0.475732442 0.602610796,0.500867553 0.556939301,0.545608337 C0.511267806,0.590349121 0.485609836,0.651030645 0.485609836,0.714303666 L0.485609836,19.2857149 C0.485609836,19.4171434 0.594981412,19.5242862 0.729143889,19.5242862 Z" id="路径" fill="#FFFFFF"></path>
                <path d="M14.9678656,4.76144275 L10.6950824,0.575732349 L10.6950824,4.52430012 C10.6950824,4.65572857 10.8029957,4.76144275 10.9371582,4.76144275 L14.9678656,4.76144275 L14.9678656,4.76144275 Z" id="路径" fill="#FFFFFF"></path>
                <path d="M15.3411873,4.45430019 L11.0100726,0.210018412 C10.8733184,0.0747249558 10.6867371,-0.000961027697 10.4923805,9.2146362e-06 L0.729143889,9.2146362e-06 C0.326448839,9.2146362e-06 0,0.319814921 0,0.714303666 L0,19.2857149 C0,19.6802037 0.326448839,20.0000092 0.729143889,20.0000092 L14.8264117,20.0000092 C15.2291067,20.0000092 15.5555556,19.6802037 15.5555556,19.2857149 L15.5555556,4.95858542 C15.5555556,4.76924268 15.4782987,4.58775259 15.3411873,4.45430019 Z M10.6936242,0.574303796 L14.9678656,4.76144275 L10.9371582,4.76144275 C10.8032255,4.76144275 10.6944262,4.65550112 10.6936242,4.52430012 L10.6936242,0.574303796 Z M14.8264117,19.5242862 L0.729143889,19.5242862 C0.664554638,19.5242862 0.602610796,19.4991511 0.556939301,19.4544103 C0.511267806,19.4096695 0.485609836,19.348988 0.485609836,19.2857149 L0.485609836,0.714303666 C0.485609836,0.582875214 0.594981412,0.475732442 0.729143889,0.475732442 L10.2080143,0.475732442 L10.2080143,4.52430012 C10.2080143,4.91878886 10.5344632,5.23858516 10.9371582,5.23858516 L15.0684874,5.23858516 L15.0684874,19.2857149 C15.0684874,19.4169183 14.960342,19.5235005 14.8264117,19.5242862 L14.8264117,19.5242862 Z" id="形状" fill="#605E5C" opacity="0.64"></path>
            </g>
            <rect id="矩形" fill="#0563B2" x="0" y="6.66666667" width="20" height="8.88888889" rx="1"></rect>
            <g id="ifc" transform="translate(5.794000, 7.448000)" fill="#FFFFFF" fill-rule="nonzero">
                <path d="M0.693,0 C0.495,0 0.333,0.063 0.198,0.189 C0.063,0.315 0,0.477 0,0.675 C0,0.873 0.063,1.035 0.198,1.17 C0.333,1.296 0.495,1.359 0.693,1.359 C0.891,1.359 1.053,1.296 1.188,1.17 C1.323,1.044 1.395,0.873 1.395,0.675 C1.395,0.477 1.323,0.315 1.197,0.189 C1.062,0.063 0.891,0 0.693,0 Z M0.18,1.899 L0.18,6.552 L1.206,6.552 L1.206,1.899 L0.18,1.899 Z" id="形状"></path>
                <path d="M4.242,0.126 C3.828,0.126 3.504,0.234 3.288,0.468 C3.063,0.693 2.955,1.008 2.955,1.404 L2.955,1.899 L1.92,1.899 L1.92,2.736 L2.955,2.736 L2.955,6.552 L3.981,6.552 L3.981,2.736 L5.169,2.736 L5.169,1.899 L3.981,1.899 L3.981,1.431 C3.981,1.278 4.008,1.17 4.08,1.098 C4.152,1.026 4.251,0.99 4.386,0.99 L5.232,0.99 L5.232,0.126 L4.242,0.126 Z" id="路径"></path>
                <path d="M7.845,1.773 C7.116,1.773 6.549,2.016 6.144,2.502 C5.766,2.943 5.577,3.519 5.577,4.221 C5.577,4.941 5.766,5.526 6.153,5.976 C6.549,6.444 7.107,6.678 7.827,6.678 C8.43,6.678 8.916,6.525 9.276,6.228 C9.645,5.922 9.888,5.454 9.996,4.824 L8.979,4.824 C8.898,5.499 8.52,5.841 7.836,5.841 C7.44,5.841 7.143,5.697 6.945,5.418 C6.729,5.13 6.63,4.725 6.63,4.212 C6.63,3.708 6.738,3.312 6.954,3.033 C7.17,2.745 7.467,2.61 7.845,2.61 C8.151,2.61 8.403,2.682 8.592,2.826 C8.772,2.97 8.898,3.186 8.961,3.483 L9.978,3.483 C9.888,2.898 9.654,2.466 9.285,2.178 C8.925,1.908 8.448,1.773 7.845,1.773 Z" id="路径"></path>
            </g>
        </g>
    </g>
</svg>