<?xml version="1.0" encoding="UTF-8"?>
<svg width="20px" height="20px" viewBox="0 0 20 20" version="1.1" xmlns="http://www.w3.org/2000/svg" xmlns:xlink="http://www.w3.org/1999/xlink">
    <title>ifczip</title>
    <g id="文件图标" stroke="none" stroke-width="1" fill="none" fill-rule="evenodd">
        <g id="编组-3">
            <g id="编组" transform="translate(4.444444, 0.000000)" fill-rule="nonzero">
                <path d="M0.729143889,19.5242862 L14.8264117,19.5242862 C14.960342,19.5235005 15.0684874,19.4169183 15.0684874,19.2857149 L15.0684874,5.23858516 L10.9371582,5.23858516 C10.5344632,5.23858516 10.2080143,4.91878886 10.2080143,4.52430012 L10.2080143,0.475732442 L0.729143889,0.475732442 C0.664554638,0.475732442 0.602610796,0.500867553 0.556939301,0.545608337 C0.511267806,0.590349121 0.485609836,0.651030645 0.485609836,0.714303666 L0.485609836,19.2857149 C0.485609836,19.4171434 0.594981412,19.5242862 0.729143889,19.5242862 Z" id="路径" fill="#FFFFFF"></path>
                <path d="M14.9678656,4.76144275 L10.6950824,0.575732349 L10.6950824,4.52430012 C10.6950824,4.65572857 10.8029957,4.76144275 10.9371582,4.76144275 L14.9678656,4.76144275 L14.9678656,4.76144275 Z" id="路径" fill="#FFFFFF"></path>
                <path d="M15.3411873,4.45430019 L11.0100726,0.210018412 C10.8733184,0.0747249558 10.6867371,-0.000961027697 10.4923805,9.2146362e-06 L0.729143889,9.2146362e-06 C0.326448839,9.2146362e-06 0,0.319814921 0,0.714303666 L0,19.2857149 C0,19.6802037 0.326448839,20.0000092 0.729143889,20.0000092 L14.8264117,20.0000092 C15.2291067,20.0000092 15.5555556,19.6802037 15.5555556,19.2857149 L15.5555556,4.95858542 C15.5555556,4.76924268 15.4782987,4.58775259 15.3411873,4.45430019 Z M10.6936242,0.574303796 L14.9678656,4.76144275 L10.9371582,4.76144275 C10.8032255,4.76144275 10.6944262,4.65550112 10.6936242,4.52430012 L10.6936242,0.574303796 Z M14.8264117,19.5242862 L0.729143889,19.5242862 C0.664554638,19.5242862 0.602610796,19.4991511 0.556939301,19.4544103 C0.511267806,19.4096695 0.485609836,19.348988 0.485609836,19.2857149 L0.485609836,0.714303666 C0.485609836,0.582875214 0.594981412,0.475732442 0.729143889,0.475732442 L10.2080143,0.475732442 L10.2080143,4.52430012 C10.2080143,4.91878886 10.5344632,5.23858516 10.9371582,5.23858516 L15.0684874,5.23858516 L15.0684874,19.2857149 C15.0684874,19.4169183 14.960342,19.5235005 14.8264117,19.5242862 L14.8264117,19.5242862 Z" id="形状" fill="#605E5C" opacity="0.64"></path>
            </g>
            <rect id="矩形" fill="#0563B2" x="0" y="6.66666667" width="20" height="8.88888889" rx="1"></rect>
            <g id="ifczip" transform="translate(1.521000, 8.404000)" fill="#FFFFFF" fill-rule="nonzero">
                <path d="M0.539,0 C0.385,0 0.259,0.049 0.154,0.147 C0.049,0.245 0,0.371 0,0.525 C0,0.679 0.049,0.805 0.154,0.91 C0.259,1.008 0.385,1.057 0.539,1.057 C0.693,1.057 0.819,1.008 0.924,0.91 C1.029,0.812 1.085,0.679 1.085,0.525 C1.085,0.371 1.029,0.245 0.931,0.147 C0.826,0.049 0.693,0 0.539,0 Z M0.14,1.477 L0.14,5.096 L0.938,5.096 L0.938,1.477 L0.14,1.477 Z" id="形状"></path>
                <path d="M3.29933333,0.098 C2.97733333,0.098 2.72533333,0.182 2.55733333,0.364 C2.38233333,0.539 2.29833333,0.784 2.29833333,1.092 L2.29833333,1.477 L1.49333333,1.477 L1.49333333,2.128 L2.29833333,2.128 L2.29833333,5.096 L3.09633333,5.096 L3.09633333,2.128 L4.02033333,2.128 L4.02033333,1.477 L3.09633333,1.477 L3.09633333,1.113 C3.09633333,0.994 3.11733333,0.91 3.17333333,0.854 C3.22933333,0.798 3.30633333,0.77 3.41133333,0.77 L4.06933333,0.77 L4.06933333,0.098 L3.29933333,0.098 Z" id="路径"></path>
                <path d="M6.10166667,1.379 C5.53466667,1.379 5.09366667,1.568 4.77866667,1.946 C4.48466667,2.289 4.33766667,2.737 4.33766667,3.283 C4.33766667,3.843 4.48466667,4.298 4.78566667,4.648 C5.09366667,5.012 5.52766667,5.194 6.08766667,5.194 C6.55666667,5.194 6.93466667,5.075 7.21466667,4.844 C7.50166667,4.606 7.69066667,4.242 7.77466667,3.752 L6.98366667,3.752 C6.92066667,4.277 6.62666667,4.543 6.09466667,4.543 C5.78666667,4.543 5.55566667,4.431 5.40166667,4.214 C5.23366667,3.99 5.15666667,3.675 5.15666667,3.276 C5.15666667,2.884 5.24066667,2.576 5.40866667,2.359 C5.57666667,2.135 5.80766667,2.03 6.10166667,2.03 C6.33966667,2.03 6.53566667,2.086 6.68266667,2.198 C6.82266667,2.31 6.92066667,2.478 6.96966667,2.709 L7.76066667,2.709 C7.69066667,2.254 7.50866667,1.918 7.22166667,1.694 C6.94166667,1.484 6.57066667,1.379 6.10166667,1.379 Z" id="路径"></path>
                <polygon id="路径" points="8.183 1.477 8.183 2.128 10.115 2.128 8.113 4.557 8.113 5.096 11.305 5.096 11.305 4.445 9.163 4.445 11.193 1.988 11.193 1.477"></polygon>
                <path d="M12.3923333,0 C12.2383333,0 12.1123333,0.049 12.0073333,0.147 C11.9023333,0.245 11.8533333,0.371 11.8533333,0.525 C11.8533333,0.679 11.9023333,0.805 12.0073333,0.91 C12.1123333,1.008 12.2383333,1.057 12.3923333,1.057 C12.5463333,1.057 12.6723333,1.008 12.7773333,0.91 C12.8823333,0.812 12.9383333,0.679 12.9383333,0.525 C12.9383333,0.371 12.8823333,0.245 12.7843333,0.147 C12.6793333,0.049 12.5463333,0 12.3923333,0 Z M11.9933333,1.477 L11.9933333,5.096 L12.7913333,5.096 L12.7913333,1.477 L11.9933333,1.477 Z" id="形状"></path>
                <path d="M15.5656667,1.379 C15.0896667,1.379 14.7256667,1.54 14.4736667,1.862 L14.4736667,1.477 L13.7316667,1.477 L13.7316667,6.482 L14.5296667,6.482 L14.5296667,4.599 C14.8236667,4.991 15.1876667,5.194 15.6076667,5.194 C16.1256667,5.194 16.5386667,5.005 16.8326667,4.627 C17.1056667,4.277 17.2456667,3.836 17.2456667,3.304 C17.2456667,2.744 17.1056667,2.296 16.8256667,1.946 C16.5176667,1.568 16.0976667,1.379 15.5656667,1.379 Z M15.4466667,2.023 C15.7966667,2.023 16.0556667,2.149 16.2236667,2.401 C16.3566667,2.611 16.4266667,2.912 16.4266667,3.304 C16.4266667,3.696 16.3496667,3.997 16.2026667,4.207 C16.0346667,4.431 15.7686667,4.55 15.4186667,4.55 C15.1596667,4.55 14.9496667,4.445 14.7816667,4.235 C14.5926667,4.004 14.5016667,3.696 14.5016667,3.318 L14.5016667,3.262 C14.5016667,2.898 14.5716667,2.611 14.7256667,2.394 C14.8936667,2.142 15.1316667,2.023 15.4466667,2.023 Z" id="形状"></path>
            </g>
        </g>
    </g>
</svg>