<?xml version="1.0" encoding="UTF-8"?>
<svg width="20px" height="20px" viewBox="0 0 20 20" version="1.1" xmlns="http://www.w3.org/2000/svg" xmlns:xlink="http://www.w3.org/1999/xlink">
    <title>ifexml2</title>
    <g id="文件图标" stroke="none" stroke-width="1" fill="none" fill-rule="evenodd">
        <g id="编组-3">
            <g id="编组" transform="translate(4.444444, 0.000000)" fill-rule="nonzero">
                <path d="M0.729143889,19.5242862 L14.8264117,19.5242862 C14.960342,19.5235005 15.0684874,19.4169183 15.0684874,19.2857149 L15.0684874,5.23858516 L10.9371582,5.23858516 C10.5344632,5.23858516 10.2080143,4.91878886 10.2080143,4.52430012 L10.2080143,0.475732442 L0.729143889,0.475732442 C0.664554638,0.475732442 0.602610796,0.500867553 0.556939301,0.545608337 C0.511267806,0.590349121 0.485609836,0.651030645 0.485609836,0.714303666 L0.485609836,19.2857149 C0.485609836,19.4171434 0.594981412,19.5242862 0.729143889,19.5242862 Z" id="路径" fill="#FFFFFF"></path>
                <path d="M14.9678656,4.76144275 L10.6950824,0.575732349 L10.6950824,4.52430012 C10.6950824,4.65572857 10.8029957,4.76144275 10.9371582,4.76144275 L14.9678656,4.76144275 L14.9678656,4.76144275 Z" id="路径" fill="#FFFFFF"></path>
                <path d="M15.3411873,4.45430019 L11.0100726,0.210018412 C10.8733184,0.0747249558 10.6867371,-0.000961027697 10.4923805,9.2146362e-06 L0.729143889,9.2146362e-06 C0.326448839,9.2146362e-06 0,0.319814921 0,0.714303666 L0,19.2857149 C0,19.6802037 0.326448839,20.0000092 0.729143889,20.0000092 L14.8264117,20.0000092 C15.2291067,20.0000092 15.5555556,19.6802037 15.5555556,19.2857149 L15.5555556,4.95858542 C15.5555556,4.76924268 15.4782987,4.58775259 15.3411873,4.45430019 Z M10.6936242,0.574303796 L14.9678656,4.76144275 L10.9371582,4.76144275 C10.8032255,4.76144275 10.6944262,4.65550112 10.6936242,4.52430012 L10.6936242,0.574303796 Z M14.8264117,19.5242862 L0.729143889,19.5242862 C0.664554638,19.5242862 0.602610796,19.4991511 0.556939301,19.4544103 C0.511267806,19.4096695 0.485609836,19.348988 0.485609836,19.2857149 L0.485609836,0.714303666 C0.485609836,0.582875214 0.594981412,0.475732442 0.729143889,0.475732442 L10.2080143,0.475732442 L10.2080143,4.52430012 C10.2080143,4.91878886 10.5344632,5.23858516 10.9371582,5.23858516 L15.0684874,5.23858516 L15.0684874,19.2857149 C15.0684874,19.4169183 14.960342,19.5235005 14.8264117,19.5242862 L14.8264117,19.5242862 Z" id="形状" fill="#605E5C" opacity="0.64"></path>
            </g>
            <g id="编组-4备份" transform="translate(0.000000, 7.000000)">
                <path d="M19,0 C19.5522847,-1.01453063e-16 20,0.44771525 20,1 L20,7.88888889 C20,8.44117364 19.5522847,8.88888889 19,8.88888889 L1,8.88888889 C0.44771525,8.88888889 6.76353751e-17,8.44117364 0,7.88888889 L0,1 C-6.76353751e-17,0.44771525 0.44771525,1.01453063e-16 1,0 L19,0 Z M19.0444832,0.504211426 L1.03848839,0.504211426 C0.762346013,0.504211426 0.538488388,0.728069051 0.538488388,1.00421143 L0.538488388,7.94127083 C0.538488388,8.2174132 0.762346013,8.44127083 1.03848839,8.44127083 L19.0444832,8.44127083 C19.3206256,8.44127083 19.5444832,8.2174132 19.5444832,7.94127083 L19.5444832,1.00421143 C19.5444832,0.728069051 19.3206256,0.504211426 19.0444832,0.504211426 Z" id="形状结合" fill="#0563B2"></path>
                <path d="M1.03848839,0.504211426 L19.0444832,0.504211426 C19.3206256,0.504211426 19.5444832,0.728069051 19.5444832,1.00421143 L19.5444832,7.94127083 C19.5444832,8.2174132 19.3206256,8.44127083 19.0444832,8.44127083 L1.03848839,8.44127083 C0.762346013,8.44127083 0.538488388,8.2174132 0.538488388,7.94127083 L0.538488388,1.00421143 C0.538488388,0.728069051 0.762346013,0.504211426 1.03848839,0.504211426 Z" id="矩形备份-25" fill="#FFFFFF"></path>
            </g>
            <g id="ifexml" transform="translate(0.935002, 8.904000)" fill="#0563B2" fill-rule="nonzero">
                <path d="M0.539,0 C0.385,0 0.259,0.049 0.154,0.147 C0.049,0.245 0,0.371 0,0.525 C0,0.679 0.049,0.805 0.154,0.91 C0.259,1.008 0.385,1.057 0.539,1.057 C0.693,1.057 0.819,1.008 0.924,0.91 C1.029,0.812 1.085,0.679 1.085,0.525 C1.085,0.371 1.029,0.245 0.931,0.147 C0.826,0.049 0.693,0 0.539,0 Z M0.14,1.477 L0.14,5.096 L0.938,5.096 L0.938,1.477 L0.14,1.477 Z" id="形状"></path>
                <path d="M3.099333,0.098 C2.777333,0.098 2.525333,0.182 2.357333,0.364 C2.182333,0.539 2.098333,0.784 2.098333,1.092 L2.098333,1.477 L1.293333,1.477 L1.293333,2.128 L2.098333,2.128 L2.098333,5.096 L2.896333,5.096 L2.896333,2.128 L3.820333,2.128 L3.820333,1.477 L2.896333,1.477 L2.896333,1.113 C2.896333,0.994 2.917333,0.91 2.973333,0.854 C3.029333,0.798 3.106333,0.77 3.211333,0.77 L3.869333,0.77 L3.869333,0.098 L3.099333,0.098 Z" id="路径"></path>
                <path d="M5.617666,1.379 C5.078666,1.379 4.651666,1.561 4.343666,1.932 C4.021666,2.296 3.867666,2.744 3.867666,3.283 C3.867666,3.885 4.035666,4.354 4.371666,4.697 C4.686666,5.026 5.113666,5.194 5.652666,5.194 C6.135666,5.194 6.534666,5.054 6.856666,4.781 C7.108666,4.557 7.276666,4.27 7.360666,3.934 L6.562666,3.934 C6.464666,4.137 6.359666,4.284 6.240666,4.375 C6.086666,4.487 5.890666,4.543 5.645666,4.543 C5.358666,4.543 5.134666,4.452 4.980666,4.277 C4.826666,4.102 4.735666,3.843 4.707666,3.507 L7.416666,3.507 C7.416666,2.856 7.269666,2.345 6.982666,1.981 C6.667666,1.575 6.212666,1.379 5.617666,1.379 Z M5.638666,2.03 C6.198666,2.03 6.513666,2.317 6.583666,2.905 L4.721666,2.905 C4.770666,2.618 4.868666,2.401 5.015666,2.254 C5.169666,2.1 5.372666,2.03 5.638666,2.03 Z" id="形状"></path>
                <polygon id="路径" points="7.575999 1.477 8.821999 3.171 7.414999 5.096 8.352999 5.096 9.262999 3.759 10.165999 5.096 11.103999 5.096 9.696999 3.171 10.942999 1.477 10.011999 1.477 9.262999 2.583 8.506999 1.477"></polygon>
                <path d="M13.090332,1.379 C12.740332,1.379 12.411332,1.533 12.110332,1.848 L12.110332,1.477 L11.312332,1.477 L11.312332,5.096 L12.110332,5.096 L12.110332,2.926 C12.110332,2.688 12.180332,2.478 12.320332,2.31 C12.460332,2.128 12.642332,2.044 12.873332,2.044 C13.349332,2.044 13.587332,2.317 13.587332,2.87 L13.587332,5.096 L14.385332,5.096 L14.385332,2.884 C14.385332,2.618 14.448332,2.415 14.588332,2.268 C14.721332,2.114 14.882332,2.044 15.078332,2.044 C15.358332,2.044 15.554332,2.107 15.680332,2.24 C15.799332,2.366 15.862332,2.576 15.862332,2.863 L15.862332,5.096 L16.660332,5.096 L16.660332,2.723 C16.660332,2.324 16.534332,2.002 16.296332,1.75 C16.044332,1.498 15.736332,1.379 15.365332,1.379 C15.120332,1.379 14.917332,1.421 14.756332,1.505 C14.574332,1.589 14.399332,1.743 14.231332,1.967 C14.000332,1.575 13.622332,1.379 13.090332,1.379 Z" id="路径"></path>
                <polygon id="路径" points="17.323665 0 17.323665 5.096 18.121665 5.096 18.121665 0"></polygon>
            </g>
        </g>
    </g>
</svg>