<?xml version="1.0" encoding="UTF-8"?>
<svg width="20px" height="20px" viewBox="0 0 20 20" version="1.1" xmlns="http://www.w3.org/2000/svg" xmlns:xlink="http://www.w3.org/1999/xlink">
    <title>ifexml</title>
    <g id="文件图标" stroke="none" stroke-width="1" fill="none" fill-rule="evenodd">
        <g id="编组-3">
            <g id="编组" transform="translate(4.444444, 0.000000)" fill-rule="nonzero">
                <path d="M0.729143889,19.5242862 L14.8264117,19.5242862 C14.960342,19.5235005 15.0684874,19.4169183 15.0684874,19.2857149 L15.0684874,5.23858516 L10.9371582,5.23858516 C10.5344632,5.23858516 10.2080143,4.91878886 10.2080143,4.52430012 L10.2080143,0.475732442 L0.729143889,0.475732442 C0.664554638,0.475732442 0.602610796,0.500867553 0.556939301,0.545608337 C0.511267806,0.590349121 0.485609836,0.651030645 0.485609836,0.714303666 L0.485609836,19.2857149 C0.485609836,19.4171434 0.594981412,19.5242862 0.729143889,19.5242862 Z" id="路径" fill="#FFFFFF"></path>
                <path d="M14.9678656,4.76144275 L10.6950824,0.575732349 L10.6950824,4.52430012 C10.6950824,4.65572857 10.8029957,4.76144275 10.9371582,4.76144275 L14.9678656,4.76144275 L14.9678656,4.76144275 Z" id="路径" fill="#FFFFFF"></path>
                <path d="M15.3411873,4.45430019 L11.0100726,0.210018412 C10.8733184,0.0747249558 10.6867371,-0.000961027697 10.4923805,9.2146362e-06 L0.729143889,9.2146362e-06 C0.326448839,9.2146362e-06 0,0.319814921 0,0.714303666 L0,19.2857149 C0,19.6802037 0.326448839,20.0000092 0.729143889,20.0000092 L14.8264117,20.0000092 C15.2291067,20.0000092 15.5555556,19.6802037 15.5555556,19.2857149 L15.5555556,4.95858542 C15.5555556,4.76924268 15.4782987,4.58775259 15.3411873,4.45430019 Z M10.6936242,0.574303796 L14.9678656,4.76144275 L10.9371582,4.76144275 C10.8032255,4.76144275 10.6944262,4.65550112 10.6936242,4.52430012 L10.6936242,0.574303796 Z M14.8264117,19.5242862 L0.729143889,19.5242862 C0.664554638,19.5242862 0.602610796,19.4991511 0.556939301,19.4544103 C0.511267806,19.4096695 0.485609836,19.348988 0.485609836,19.2857149 L0.485609836,0.714303666 C0.485609836,0.582875214 0.594981412,0.475732442 0.729143889,0.475732442 L10.2080143,0.475732442 L10.2080143,4.52430012 C10.2080143,4.91878886 10.5344632,5.23858516 10.9371582,5.23858516 L15.0684874,5.23858516 L15.0684874,19.2857149 C15.0684874,19.4169183 14.960342,19.5235005 14.8264117,19.5242862 L14.8264117,19.5242862 Z" id="形状" fill="#605E5C" opacity="0.64"></path>
            </g>
            <rect id="矩形" fill="#0563B2" x="0" y="6.66666667" width="20" height="8.88888889" rx="1"></rect>
            <g id="ifexml" transform="translate(0.435000, 8.904000)" fill="#FFFFFF" fill-rule="nonzero">
                <path d="M0.539,0 C0.385,0 0.259,0.049 0.154,0.147 C0.049,0.245 0,0.371 0,0.525 C0,0.679 0.049,0.805 0.154,0.91 C0.259,1.008 0.385,1.057 0.539,1.057 C0.693,1.057 0.819,1.008 0.924,0.91 C1.029,0.812 1.085,0.679 1.085,0.525 C1.085,0.371 1.029,0.245 0.931,0.147 C0.826,0.049 0.693,0 0.539,0 Z M0.14,1.477 L0.14,5.096 L0.938,5.096 L0.938,1.477 L0.14,1.477 Z" id="形状"></path>
                <path d="M3.29933333,0.098 C2.97733333,0.098 2.72533333,0.182 2.55733333,0.364 C2.38233333,0.539 2.29833333,0.784 2.29833333,1.092 L2.29833333,1.477 L1.49333333,1.477 L1.49333333,2.128 L2.29833333,2.128 L2.29833333,5.096 L3.09633333,5.096 L3.09633333,2.128 L4.02033333,2.128 L4.02033333,1.477 L3.09633333,1.477 L3.09633333,1.113 C3.09633333,0.994 3.11733333,0.91 3.17333333,0.854 C3.22933333,0.798 3.30633333,0.77 3.41133333,0.77 L4.06933333,0.77 L4.06933333,0.098 L3.29933333,0.098 Z" id="路径"></path>
                <path d="M6.01766667,1.379 C5.47866667,1.379 5.05166667,1.561 4.74366667,1.932 C4.42166667,2.296 4.26766667,2.744 4.26766667,3.283 C4.26766667,3.885 4.43566667,4.354 4.77166667,4.697 C5.08666667,5.026 5.51366667,5.194 6.05266667,5.194 C6.53566667,5.194 6.93466667,5.054 7.25666667,4.781 C7.50866667,4.557 7.67666667,4.27 7.76066667,3.934 L6.96266667,3.934 C6.86466667,4.137 6.75966667,4.284 6.64066667,4.375 C6.48666667,4.487 6.29066667,4.543 6.04566667,4.543 C5.75866667,4.543 5.53466667,4.452 5.38066667,4.277 C5.22666667,4.102 5.13566667,3.843 5.10766667,3.507 L7.81666667,3.507 C7.81666667,2.856 7.66966667,2.345 7.38266667,1.981 C7.06766667,1.575 6.61266667,1.379 6.01766667,1.379 Z M6.03866667,2.03 C6.59866667,2.03 6.91366667,2.317 6.98366667,2.905 L5.12166667,2.905 C5.17066667,2.618 5.26866667,2.401 5.41566667,2.254 C5.56966667,2.1 5.77266667,2.03 6.03866667,2.03 Z" id="形状"></path>
                <polygon id="路径" points="8.176 1.477 9.422 3.171 8.015 5.096 8.953 5.096 9.863 3.759 10.766 5.096 11.704 5.096 10.297 3.171 11.543 1.477 10.612 1.477 9.863 2.583 9.107 1.477"></polygon>
                <path d="M13.8903333,1.379 C13.5403333,1.379 13.2113333,1.533 12.9103333,1.848 L12.9103333,1.477 L12.1123333,1.477 L12.1123333,5.096 L12.9103333,5.096 L12.9103333,2.926 C12.9103333,2.688 12.9803333,2.478 13.1203333,2.31 C13.2603333,2.128 13.4423333,2.044 13.6733333,2.044 C14.1493333,2.044 14.3873333,2.317 14.3873333,2.87 L14.3873333,5.096 L15.1853333,5.096 L15.1853333,2.884 C15.1853333,2.618 15.2483333,2.415 15.3883333,2.268 C15.5213333,2.114 15.6823333,2.044 15.8783333,2.044 C16.1583333,2.044 16.3543333,2.107 16.4803333,2.24 C16.5993333,2.366 16.6623333,2.576 16.6623333,2.863 L16.6623333,5.096 L17.4603333,5.096 L17.4603333,2.723 C17.4603333,2.324 17.3343333,2.002 17.0963333,1.75 C16.8443333,1.498 16.5363333,1.379 16.1653333,1.379 C15.9203333,1.379 15.7173333,1.421 15.5563333,1.505 C15.3743333,1.589 15.1993333,1.743 15.0313333,1.967 C14.8003333,1.575 14.4223333,1.379 13.8903333,1.379 Z" id="路径"></path>
                <polygon id="路径" points="18.3236667 0 18.3236667 5.096 19.1216667 5.096 19.1216667 0"></polygon>
            </g>
        </g>
    </g>
</svg>