<?xml version="1.0" encoding="UTF-8"?>
<svg width="20px" height="20px" viewBox="0 0 20 20" version="1.1" xmlns="http://www.w3.org/2000/svg" xmlns:xlink="http://www.w3.org/1999/xlink">
    <title>iges2</title>
    <g id="文件图标" stroke="none" stroke-width="1" fill="none" fill-rule="evenodd">
        <g id="编组-3">
            <g id="编组" transform="translate(4.444444, 0.000000)" fill-rule="nonzero">
                <path d="M0.729143889,19.5242862 L14.8264117,19.5242862 C14.960342,19.5235005 15.0684874,19.4169183 15.0684874,19.2857149 L15.0684874,5.23858516 L10.9371582,5.23858516 C10.5344632,5.23858516 10.2080143,4.91878886 10.2080143,4.52430012 L10.2080143,0.475732442 L0.729143889,0.475732442 C0.664554638,0.475732442 0.602610796,0.500867553 0.556939301,0.545608337 C0.511267806,0.590349121 0.485609836,0.651030645 0.485609836,0.714303666 L0.485609836,19.2857149 C0.485609836,19.4171434 0.594981412,19.5242862 0.729143889,19.5242862 Z" id="路径" fill="#FFFFFF"></path>
                <path d="M14.9678656,4.76144275 L10.6950824,0.575732349 L10.6950824,4.52430012 C10.6950824,4.65572857 10.8029957,4.76144275 10.9371582,4.76144275 L14.9678656,4.76144275 L14.9678656,4.76144275 Z" id="路径" fill="#FFFFFF"></path>
                <path d="M15.3411873,4.45430019 L11.0100726,0.210018412 C10.8733184,0.0747249558 10.6867371,-0.000961027697 10.4923805,9.2146362e-06 L0.729143889,9.2146362e-06 C0.326448839,9.2146362e-06 0,0.319814921 0,0.714303666 L0,19.2857149 C0,19.6802037 0.326448839,20.0000092 0.729143889,20.0000092 L14.8264117,20.0000092 C15.2291067,20.0000092 15.5555556,19.6802037 15.5555556,19.2857149 L15.5555556,4.95858542 C15.5555556,4.76924268 15.4782987,4.58775259 15.3411873,4.45430019 Z M10.6936242,0.574303796 L14.9678656,4.76144275 L10.9371582,4.76144275 C10.8032255,4.76144275 10.6944262,4.65550112 10.6936242,4.52430012 L10.6936242,0.574303796 Z M14.8264117,19.5242862 L0.729143889,19.5242862 C0.664554638,19.5242862 0.602610796,19.4991511 0.556939301,19.4544103 C0.511267806,19.4096695 0.485609836,19.348988 0.485609836,19.2857149 L0.485609836,0.714303666 C0.485609836,0.582875214 0.594981412,0.475732442 0.729143889,0.475732442 L10.2080143,0.475732442 L10.2080143,4.52430012 C10.2080143,4.91878886 10.5344632,5.23858516 10.9371582,5.23858516 L15.0684874,5.23858516 L15.0684874,19.2857149 C15.0684874,19.4169183 14.960342,19.5235005 14.8264117,19.5242862 L14.8264117,19.5242862 Z" id="形状" fill="#605E5C" opacity="0.64"></path>
            </g>
            <g id="编组-4备份" transform="translate(0.000000, 7.000000)">
                <path d="M19,0 C19.5522847,-1.01453063e-16 20,0.44771525 20,1 L20,7.88888889 C20,8.44117364 19.5522847,8.88888889 19,8.88888889 L1,8.88888889 C0.44771525,8.88888889 6.76353751e-17,8.44117364 0,7.88888889 L0,1 C-6.76353751e-17,0.44771525 0.44771525,1.01453063e-16 1,0 L19,0 Z M19.0444832,0.504211426 L1.03848839,0.504211426 C0.762346013,0.504211426 0.538488388,0.728069051 0.538488388,1.00421143 L0.538488388,7.94127083 C0.538488388,8.2174132 0.762346013,8.44127083 1.03848839,8.44127083 L19.0444832,8.44127083 C19.3206256,8.44127083 19.5444832,8.2174132 19.5444832,7.94127083 L19.5444832,1.00421143 C19.5444832,0.728069051 19.3206256,0.504211426 19.0444832,0.504211426 Z" id="形状结合" fill="#0563B2"></path>
                <path d="M1.03848839,0.504211426 L19.0444832,0.504211426 C19.3206256,0.504211426 19.5444832,0.728069051 19.5444832,1.00421143 L19.5444832,7.94127083 C19.5444832,8.2174132 19.3206256,8.44127083 19.0444832,8.44127083 L1.03848839,8.44127083 C0.762346013,8.44127083 0.538488388,8.2174132 0.538488388,7.94127083 L0.538488388,1.00421143 C0.538488388,0.728069051 0.762346013,0.504211426 1.03848839,0.504211426 Z" id="矩形备份-25" fill="#FFFFFF"></path>
            </g>
            <g id="iges" transform="translate(2.059000, 7.948000)" fill="#0563B2" fill-rule="nonzero">
                <path d="M0.693,0 C0.495,0 0.333,0.063 0.198,0.189 C0.063,0.315 0,0.477 0,0.675 C0,0.873 0.063,1.035 0.198,1.17 C0.333,1.296 0.495,1.359 0.693,1.359 C0.891,1.359 1.053,1.296 1.188,1.17 C1.323,1.044 1.395,0.873 1.395,0.675 C1.395,0.477 1.323,0.315 1.197,0.189 C1.062,0.063 0.891,0 0.693,0 Z M0.18,1.899 L0.18,6.552 L1.206,6.552 L1.206,1.899 L0.18,1.899 Z" id="形状"></path>
                <path d="M4.35,0.773 C3.72,0.773 3.207,0.989 2.82,1.421 C2.424,1.853 2.235,2.42 2.235,3.122 C2.235,3.824 2.424,4.391 2.82,4.814 C3.207,5.228 3.72,5.444 4.35,5.444 C4.926,5.444 5.385,5.201 5.727,4.724 L5.727,5.408 C5.727,6.236 5.34,6.65 4.566,6.65 C4.206,6.65 3.945,6.596 3.783,6.497 C3.612,6.389 3.504,6.209 3.45,5.948 L2.424,5.948 C2.514,6.47 2.73,6.848 3.072,7.1 C3.414,7.334 3.909,7.46 4.566,7.46 C6.024,7.46 6.753,6.722 6.753,5.255 L6.753,0.899 L5.727,0.899 L5.727,1.466 C5.385,0.998 4.926,0.773 4.35,0.773 Z M4.512,1.601 C4.899,1.601 5.205,1.736 5.421,2.006 C5.628,2.276 5.736,2.645 5.736,3.122 C5.736,3.59 5.628,3.95 5.421,4.22 C5.205,4.472 4.899,4.607 4.503,4.607 C4.053,4.607 3.738,4.454 3.54,4.157 C3.369,3.905 3.288,3.563 3.288,3.122 C3.288,2.636 3.396,2.267 3.612,2.006 C3.828,1.736 4.125,1.601 4.512,1.601 Z" id="形状"></path>
                <path d="M9.753,0.773 C9.06,0.773 8.511,1.007 8.115,1.484 C7.701,1.952 7.503,2.528 7.503,3.221 C7.503,3.995 7.719,4.598 8.151,5.039 C8.556,5.462 9.105,5.678 9.798,5.678 C10.419,5.678 10.932,5.498 11.346,5.147 C11.67,4.859 11.886,4.49 11.994,4.058 L10.968,4.058 C10.842,4.319 10.707,4.508 10.554,4.625 C10.356,4.769 10.104,4.841 9.789,4.841 C9.42,4.841 9.132,4.724 8.934,4.499 C8.736,4.274 8.619,3.941 8.583,3.509 L12.066,3.509 C12.066,2.672 11.877,2.015 11.508,1.547 C11.103,1.025 10.518,0.773 9.753,0.773 Z M9.78,1.61 C10.5,1.61 10.905,1.979 10.995,2.735 L8.601,2.735 C8.664,2.366 8.79,2.087 8.979,1.898 C9.177,1.7 9.438,1.61 9.78,1.61 Z" id="形状"></path>
                <path d="M14.571,0.773 C13.995,0.773 13.536,0.89 13.185,1.142 C12.825,1.376 12.654,1.709 12.654,2.141 C12.654,2.546 12.834,2.861 13.194,3.086 C13.419,3.23 13.806,3.365 14.355,3.491 C14.823,3.599 15.129,3.68 15.273,3.752 C15.543,3.878 15.678,4.049 15.678,4.265 C15.678,4.643 15.318,4.841 14.598,4.841 C14.256,4.841 14.013,4.778 13.86,4.67 C13.707,4.544 13.599,4.337 13.545,4.04 L12.546,4.04 C12.645,5.129 13.338,5.678 14.634,5.678 C16.029,5.678 16.731,5.183 16.731,4.193 C16.731,3.779 16.542,3.446 16.173,3.212 C15.921,3.041 15.525,2.897 15.003,2.771 C14.535,2.654 14.229,2.564 14.076,2.501 C13.824,2.393 13.707,2.258 13.707,2.114 C13.707,1.934 13.779,1.808 13.941,1.727 C14.076,1.646 14.283,1.61 14.553,1.61 C14.868,1.61 15.102,1.655 15.255,1.754 C15.399,1.844 15.507,2.015 15.579,2.249 L16.578,2.249 C16.47,1.259 15.795,0.773 14.571,0.773 Z" id="路径"></path>
            </g>
        </g>
    </g>
</svg>