<?xml version="1.0" encoding="UTF-8"?>
<svg width="20px" height="20px" viewBox="0 0 20 20" version="1.1" xmlns="http://www.w3.org/2000/svg" xmlns:xlink="http://www.w3.org/1999/xlink">
    <title>jpeg2</title>
    <g id="文件图标" stroke="none" stroke-width="1" fill="none" fill-rule="evenodd">
        <g id="编组-3">
            <g id="编组" transform="translate(4.444444, 0.000000)" fill-rule="nonzero">
                <path d="M0.729143889,19.5242862 L14.8264117,19.5242862 C14.960342,19.5235005 15.0684874,19.4169183 15.0684874,19.2857149 L15.0684874,5.23858516 L10.9371582,5.23858516 C10.5344632,5.23858516 10.2080143,4.91878886 10.2080143,4.52430012 L10.2080143,0.475732442 L0.729143889,0.475732442 C0.664554638,0.475732442 0.602610796,0.500867553 0.556939301,0.545608337 C0.511267806,0.590349121 0.485609836,0.651030645 0.485609836,0.714303666 L0.485609836,19.2857149 C0.485609836,19.4171434 0.594981412,19.5242862 0.729143889,19.5242862 Z" id="路径" fill="#FFFFFF"></path>
                <path d="M14.9678656,4.76144275 L10.6950824,0.575732349 L10.6950824,4.52430012 C10.6950824,4.65572857 10.8029957,4.76144275 10.9371582,4.76144275 L14.9678656,4.76144275 L14.9678656,4.76144275 Z" id="路径" fill="#FFFFFF"></path>
                <path d="M15.3411873,4.45430019 L11.0100726,0.210018412 C10.8733184,0.0747249558 10.6867371,-0.000961027697 10.4923805,9.2146362e-06 L0.729143889,9.2146362e-06 C0.326448839,9.2146362e-06 0,0.319814921 0,0.714303666 L0,19.2857149 C0,19.6802037 0.326448839,20.0000092 0.729143889,20.0000092 L14.8264117,20.0000092 C15.2291067,20.0000092 15.5555556,19.6802037 15.5555556,19.2857149 L15.5555556,4.95858542 C15.5555556,4.76924268 15.4782987,4.58775259 15.3411873,4.45430019 Z M10.6936242,0.574303796 L14.9678656,4.76144275 L10.9371582,4.76144275 C10.8032255,4.76144275 10.6944262,4.65550112 10.6936242,4.52430012 L10.6936242,0.574303796 Z M14.8264117,19.5242862 L0.729143889,19.5242862 C0.664554638,19.5242862 0.602610796,19.4991511 0.556939301,19.4544103 C0.511267806,19.4096695 0.485609836,19.348988 0.485609836,19.2857149 L0.485609836,0.714303666 C0.485609836,0.582875214 0.594981412,0.475732442 0.729143889,0.475732442 L10.2080143,0.475732442 L10.2080143,4.52430012 C10.2080143,4.91878886 10.5344632,5.23858516 10.9371582,5.23858516 L15.0684874,5.23858516 L15.0684874,19.2857149 C15.0684874,19.4169183 14.960342,19.5235005 14.8264117,19.5242862 L14.8264117,19.5242862 Z" id="形状" fill="#605E5C" opacity="0.64"></path>
            </g>
            <g id="编组-4备份" transform="translate(0.000000, 7.000000)">
                <path d="M19,0 C19.5522847,-1.01453063e-16 20,0.44771525 20,1 L20,7.88888889 C20,8.44117364 19.5522847,8.88888889 19,8.88888889 L1,8.88888889 C0.44771525,8.88888889 6.76353751e-17,8.44117364 0,7.88888889 L0,1 C-6.76353751e-17,0.44771525 0.44771525,1.01453063e-16 1,0 L19,0 Z M19.0444832,0.504211426 L1.03848839,0.504211426 C0.762346013,0.504211426 0.538488388,0.728069051 0.538488388,1.00421143 L0.538488388,7.94127083 C0.538488388,8.2174132 0.762346013,8.44127083 1.03848839,8.44127083 L19.0444832,8.44127083 C19.3206256,8.44127083 19.5444832,8.2174132 19.5444832,7.94127083 L19.5444832,1.00421143 C19.5444832,0.728069051 19.3206256,0.504211426 19.0444832,0.504211426 Z" id="形状结合" fill="#0563B2"></path>
                <path d="M1.03848839,0.504211426 L19.0444832,0.504211426 C19.3206256,0.504211426 19.5444832,0.728069051 19.5444832,1.00421143 L19.5444832,7.94127083 C19.5444832,8.2174132 19.3206256,8.44127083 19.0444832,8.44127083 L1.03848839,8.44127083 C0.762346013,8.44127083 0.538488388,8.2174132 0.538488388,7.94127083 L0.538488388,1.00421143 C0.538488388,0.728069051 0.762346013,0.504211426 1.03848839,0.504211426 Z" id="矩形备份-25" fill="#FFFFFF"></path>
            </g>
            <g id="jpeg" transform="translate(0.682000, 6.948000)" fill="#0563B2" fill-rule="nonzero">
                <path d="M1.377,0 C1.179,0 1.017,0.063 0.891,0.189 C0.747,0.315 0.684,0.477 0.684,0.675 C0.684,0.873 0.747,1.035 0.891,1.17 C1.017,1.296 1.179,1.359 1.377,1.359 C1.575,1.359 1.737,1.296 1.881,1.17 C2.007,1.044 2.079,0.873 2.079,0.675 C2.079,0.477 2.007,0.315 1.881,0.189 C1.746,0.063 1.575,0 1.377,0 Z M0.864,1.899 L0.864,6.93 C0.864,7.308 0.693,7.497 0.351,7.497 L0,7.497 L0,8.334 L0.441,8.334 C1.404,8.334 1.89,7.875 1.89,6.975 L1.89,1.899 L0.864,1.899 Z" id="形状"></path>
                <path d="M5.457,1.773 C4.845,1.773 4.377,1.98 4.053,2.394 L4.053,1.899 L3.099,1.899 L3.099,8.334 L4.125,8.334 L4.125,5.913 C4.503,6.417 4.971,6.678 5.511,6.678 C6.177,6.678 6.708,6.435 7.086,5.949 C7.437,5.499 7.617,4.932 7.617,4.248 C7.617,3.528 7.437,2.952 7.077,2.502 C6.681,2.016 6.141,1.773 5.457,1.773 Z M5.304,2.601 C5.754,2.601 6.087,2.763 6.303,3.087 C6.474,3.357 6.564,3.744 6.564,4.248 C6.564,4.752 6.465,5.139 6.276,5.409 C6.06,5.697 5.718,5.85 5.268,5.85 C4.935,5.85 4.665,5.715 4.449,5.445 C4.206,5.148 4.089,4.752 4.089,4.266 L4.089,4.194 C4.089,3.726 4.179,3.357 4.377,3.078 C4.593,2.754 4.899,2.601 5.304,2.601 Z" id="形状"></path>
                <path d="M10.437,1.773 C9.744,1.773 9.195,2.007 8.799,2.484 C8.385,2.952 8.187,3.528 8.187,4.221 C8.187,4.995 8.403,5.598 8.835,6.039 C9.24,6.462 9.789,6.678 10.482,6.678 C11.103,6.678 11.616,6.498 12.03,6.147 C12.354,5.859 12.57,5.49 12.678,5.058 L11.652,5.058 C11.526,5.319 11.391,5.508 11.238,5.625 C11.04,5.769 10.788,5.841 10.473,5.841 C10.104,5.841 9.816,5.724 9.618,5.499 C9.42,5.274 9.303,4.941 9.267,4.509 L12.75,4.509 C12.75,3.672 12.561,3.015 12.192,2.547 C11.787,2.025 11.202,1.773 10.437,1.773 Z M10.464,2.61 C11.184,2.61 11.589,2.979 11.679,3.735 L9.285,3.735 C9.348,3.366 9.474,3.087 9.663,2.898 C9.861,2.7 10.122,2.61 10.464,2.61 Z" id="形状"></path>
                <path d="M15.435,1.773 C14.805,1.773 14.292,1.989 13.905,2.421 C13.509,2.853 13.32,3.42 13.32,4.122 C13.32,4.824 13.509,5.391 13.905,5.814 C14.292,6.228 14.805,6.444 15.435,6.444 C16.011,6.444 16.47,6.201 16.812,5.724 L16.812,6.408 C16.812,7.236 16.425,7.65 15.651,7.65 C15.291,7.65 15.03,7.596 14.868,7.497 C14.697,7.389 14.589,7.209 14.535,6.948 L13.509,6.948 C13.599,7.47 13.815,7.848 14.157,8.1 C14.499,8.334 14.994,8.46 15.651,8.46 C17.109,8.46 17.838,7.722 17.838,6.255 L17.838,1.899 L16.812,1.899 L16.812,2.466 C16.47,1.998 16.011,1.773 15.435,1.773 Z M15.597,2.601 C15.984,2.601 16.29,2.736 16.506,3.006 C16.713,3.276 16.821,3.645 16.821,4.122 C16.821,4.59 16.713,4.95 16.506,5.22 C16.29,5.472 15.984,5.607 15.588,5.607 C15.138,5.607 14.823,5.454 14.625,5.157 C14.454,4.905 14.373,4.563 14.373,4.122 C14.373,3.636 14.481,3.267 14.697,3.006 C14.913,2.736 15.21,2.601 15.597,2.601 Z" id="形状"></path>
            </g>
        </g>
    </g>
</svg>