<?xml version="1.0" encoding="UTF-8"?>
<svg width="20px" height="20px" viewBox="0 0 20 20" version="1.1" xmlns="http://www.w3.org/2000/svg" xmlns:xlink="http://www.w3.org/1999/xlink">
    <title>jpg</title>
    <g id="文件图标" stroke="none" stroke-width="1" fill="none" fill-rule="evenodd">
        <g id="编组-3">
            <g id="编组" transform="translate(4.444444, 0.000000)" fill-rule="nonzero">
                <path d="M0.729143889,19.5242862 L14.8264117,19.5242862 C14.960342,19.5235005 15.0684874,19.4169183 15.0684874,19.2857149 L15.0684874,5.23858516 L10.9371582,5.23858516 C10.5344632,5.23858516 10.2080143,4.91878886 10.2080143,4.52430012 L10.2080143,0.475732442 L0.729143889,0.475732442 C0.664554638,0.475732442 0.602610796,0.500867553 0.556939301,0.545608337 C0.511267806,0.590349121 0.485609836,0.651030645 0.485609836,0.714303666 L0.485609836,19.2857149 C0.485609836,19.4171434 0.594981412,19.5242862 0.729143889,19.5242862 Z" id="路径" fill="#FFFFFF"></path>
                <path d="M14.9678656,4.76144275 L10.6950824,0.575732349 L10.6950824,4.52430012 C10.6950824,4.65572857 10.8029957,4.76144275 10.9371582,4.76144275 L14.9678656,4.76144275 L14.9678656,4.76144275 Z" id="路径" fill="#FFFFFF"></path>
                <path d="M15.3411873,4.45430019 L11.0100726,0.210018412 C10.8733184,0.0747249558 10.6867371,-0.000961027697 10.4923805,9.2146362e-06 L0.729143889,9.2146362e-06 C0.326448839,9.2146362e-06 0,0.319814921 0,0.714303666 L0,19.2857149 C0,19.6802037 0.326448839,20.0000092 0.729143889,20.0000092 L14.8264117,20.0000092 C15.2291067,20.0000092 15.5555556,19.6802037 15.5555556,19.2857149 L15.5555556,4.95858542 C15.5555556,4.76924268 15.4782987,4.58775259 15.3411873,4.45430019 Z M10.6936242,0.574303796 L14.9678656,4.76144275 L10.9371582,4.76144275 C10.8032255,4.76144275 10.6944262,4.65550112 10.6936242,4.52430012 L10.6936242,0.574303796 Z M14.8264117,19.5242862 L0.729143889,19.5242862 C0.664554638,19.5242862 0.602610796,19.4991511 0.556939301,19.4544103 C0.511267806,19.4096695 0.485609836,19.348988 0.485609836,19.2857149 L0.485609836,0.714303666 C0.485609836,0.582875214 0.594981412,0.475732442 0.729143889,0.475732442 L10.2080143,0.475732442 L10.2080143,4.52430012 C10.2080143,4.91878886 10.5344632,5.23858516 10.9371582,5.23858516 L15.0684874,5.23858516 L15.0684874,19.2857149 C15.0684874,19.4169183 14.960342,19.5235005 14.8264117,19.5242862 L14.8264117,19.5242862 Z" id="形状" fill="#605E5C" opacity="0.64"></path>
            </g>
            <rect id="矩形" fill="#0563B2" x="0" y="6.66666667" width="20" height="8.88888889" rx="1"></rect>
            <g id="jpg" transform="translate(3.725000, 6.448000)" fill="#FFFFFF" fill-rule="nonzero">
                <path d="M1.377,0 C1.179,0 1.017,0.063 0.891,0.189 C0.747,0.315 0.684,0.477 0.684,0.675 C0.684,0.873 0.747,1.035 0.891,1.17 C1.017,1.296 1.179,1.359 1.377,1.359 C1.575,1.359 1.737,1.296 1.881,1.17 C2.007,1.044 2.079,0.873 2.079,0.675 C2.079,0.477 2.007,0.315 1.881,0.189 C1.746,0.063 1.575,0 1.377,0 Z M0.864,1.899 L0.864,6.93 C0.864,7.308 0.693,7.497 0.351,7.497 L0,7.497 L0,8.334 L0.441,8.334 C1.404,8.334 1.89,7.875 1.89,6.975 L1.89,1.899 L0.864,1.899 Z" id="形状"></path>
                <path d="M5.457,1.773 C4.845,1.773 4.377,1.98 4.053,2.394 L4.053,1.899 L3.099,1.899 L3.099,8.334 L4.125,8.334 L4.125,5.913 C4.503,6.417 4.971,6.678 5.511,6.678 C6.177,6.678 6.708,6.435 7.086,5.949 C7.437,5.499 7.617,4.932 7.617,4.248 C7.617,3.528 7.437,2.952 7.077,2.502 C6.681,2.016 6.141,1.773 5.457,1.773 Z M5.304,2.601 C5.754,2.601 6.087,2.763 6.303,3.087 C6.474,3.357 6.564,3.744 6.564,4.248 C6.564,4.752 6.465,5.139 6.276,5.409 C6.06,5.697 5.718,5.85 5.268,5.85 C4.935,5.85 4.665,5.715 4.449,5.445 C4.206,5.148 4.089,4.752 4.089,4.266 L4.089,4.194 C4.089,3.726 4.179,3.357 4.377,3.078 C4.593,2.754 4.899,2.601 5.304,2.601 Z" id="形状"></path>
                <path d="M10.392,1.773 C9.762,1.773 9.249,1.989 8.862,2.421 C8.466,2.853 8.277,3.42 8.277,4.122 C8.277,4.824 8.466,5.391 8.862,5.814 C9.249,6.228 9.762,6.444 10.392,6.444 C10.968,6.444 11.427,6.201 11.769,5.724 L11.769,6.408 C11.769,7.236 11.382,7.65 10.608,7.65 C10.248,7.65 9.987,7.596 9.825,7.497 C9.654,7.389 9.546,7.209 9.492,6.948 L8.466,6.948 C8.556,7.47 8.772,7.848 9.114,8.1 C9.456,8.334 9.951,8.46 10.608,8.46 C12.066,8.46 12.795,7.722 12.795,6.255 L12.795,1.899 L11.769,1.899 L11.769,2.466 C11.427,1.998 10.968,1.773 10.392,1.773 Z M10.554,2.601 C10.941,2.601 11.247,2.736 11.463,3.006 C11.67,3.276 11.778,3.645 11.778,4.122 C11.778,4.59 11.67,4.95 11.463,5.22 C11.247,5.472 10.941,5.607 10.545,5.607 C10.095,5.607 9.78,5.454 9.582,5.157 C9.411,4.905 9.33,4.563 9.33,4.122 C9.33,3.636 9.438,3.267 9.654,3.006 C9.87,2.736 10.167,2.601 10.554,2.601 Z" id="形状"></path>
            </g>
        </g>
    </g>
</svg>