<?xml version="1.0" standalone="no"?><!DOCTYPE svg PUBLIC "-//W3C//DTD SVG 1.1//EN" "http://www.w3.org/Graphics/SVG/1.1/DTD/svg11.dtd"><svg t="1626337616240" class="icon" viewBox="0 0 1024 1024" version="1.1" xmlns="http://www.w3.org/2000/svg" p-id="1449" xmlns:xlink="http://www.w3.org/1999/xlink" width="200" height="200"><defs><style type="text/css"></style></defs><path d="M602.496 64a320 320 0 1 1-165.12 594.112l-1.92 2.24-87.808 87.744 70.656 70.656a32 32 0 0 1-45.312 45.248l-70.592-70.656-82.752 82.752 70.656 70.656a32 32 0 0 1-45.312 45.248l-70.592-70.656-55.744 55.808a32 32 0 0 1-40.832 3.712l-4.48-3.712a32 32 0 0 1 0-45.248l312.448-312.448A320 320 0 0 1 602.496 64z m0 64a256 256 0 1 0 0 512 256 256 0 0 0 0-512z" p-id="1450"></path></svg>