<?xml version="1.0" standalone="no"?><!DOCTYPE svg PUBLIC "-//W3C//DTD SVG 1.1//EN" "http://www.w3.org/Graphics/SVG/1.1/DTD/svg11.dtd"><svg t="1626337568993" class="icon" viewBox="0 0 1024 1024" version="1.1" xmlns="http://www.w3.org/2000/svg" p-id="1053" xmlns:xlink="http://www.w3.org/1999/xlink" width="200" height="200"><defs><style type="text/css"></style></defs><path d="M512 0a256 256 0 0 1 256 256v128h32A160 160 0 0 1 960 544v320a160 160 0 0 1-160 160h-576A160 160 0 0 1 64 864v-320A160 160 0 0 1 224 384H256V256a256 256 0 0 1 256-256z m288 448h-576a96 96 0 0 0-95.552 86.784L128 544v320a96 96 0 0 0 86.784 95.552L224 960h576a96 96 0 0 0 95.552-86.784L896 864v-320a96 96 0 0 0-86.784-95.552L800 448zM512 576a32 32 0 0 1 32 32v192a32 32 0 1 1-64 0v-192A32 32 0 0 1 512 576z m0-512a192 192 0 0 0-191.68 180.736L320 256v128h384V256a192 192 0 0 0-180.736-191.68L512 64z" p-id="1054"></path></svg>