<?xml version="1.0" standalone="no"?><!DOCTYPE svg PUBLIC "-//W3C//DTD SVG 1.1//EN" "http://www.w3.org/Graphics/SVG/1.1/DTD/svg11.dtd"><svg t="1648170890099" class="icon" viewBox="0 0 1024 1024" version="1.1" xmlns="http://www.w3.org/2000/svg" p-id="7773" xmlns:xlink="http://www.w3.org/1999/xlink" width="200" height="200"><defs><style type="text/css">@font-face { font-family: feedback-iconfont; src: url("//at.alicdn.com/t/font_1031158_u69w8yhxdu.woff2?t=1630033759944") format("woff2"), url("//at.alicdn.com/t/font_1031158_u69w8yhxdu.woff?t=1630033759944") format("woff"), url("//at.alicdn.com/t/font_1031158_u69w8yhxdu.ttf?t=1630033759944") format("truetype"); }
</style></defs><path d="M741.517241 564.965517H264.827586V240.128C264.827586 117.442207 371.74731 17.655172 503.172414 17.655172S741.517241 117.442207 741.517241 240.128V564.965517z m-406.068965-70.620689h335.448276V240.128C670.896552 156.389517 595.650207 88.275862 503.172414 88.275862S335.448276 156.389517 335.448276 240.128V494.344828z" fill="#C7CAC7" p-id="7774"></path><path d="M141.241379 459.034483h741.517242v564.965517H141.241379z" fill="#7383BF" p-id="7775"></path><path d="M512 459.034483h370.758621v564.965517H512z" fill="#6879AF" p-id="7776"></path><path d="M751.863172 1006.344828L865.103448 893.104552V829.793103h-98.621793l-176.551724 176.551725z" fill="#EBBA16" p-id="7777"></path><path d="M158.896552 829.793103v133.932138L292.82869 829.793103z" fill="#4F5970" p-id="7778"></path><path d="M540.001103 1006.344828l176.551725-176.551725h-161.933242l-176.551724 176.551725z" fill="#424A60" p-id="7779"></path><path d="M504.690759 829.793103h-161.933242l-171.378758 171.378759A17.602207 17.602207 0 0 1 158.896552 1006.344828h169.242482l176.551725-176.551725z" fill="#EACC18" p-id="7780"></path><path d="M865.103448 1006.344828v-63.311449L801.792 1006.344828z" fill="#424A60" p-id="7781"></path><path d="M512 872.41269L378.067862 1006.344828H512z" fill="#4F5970" p-id="7782"></path></svg>