<?xml version="1.0" standalone="no"?><!DOCTYPE svg PUBLIC "-//W3C//DTD SVG 1.1//EN" "http://www.w3.org/Graphics/SVG/1.1/DTD/svg11.dtd"><svg t="1648174167941" class="icon" viewBox="0 0 1024 1024" version="1.1" xmlns="http://www.w3.org/2000/svg" p-id="2421" xmlns:xlink="http://www.w3.org/1999/xlink" width="200" height="200"><defs><style type="text/css">@font-face { font-family: feedback-iconfont; src: url("//at.alicdn.com/t/font_1031158_u69w8yhxdu.woff2?t=1630033759944") format("woff2"), url("//at.alicdn.com/t/font_1031158_u69w8yhxdu.woff?t=1630033759944") format("woff"), url("//at.alicdn.com/t/font_1031158_u69w8yhxdu.ttf?t=1630033759944") format("truetype"); }
</style></defs><path d="M737 122.3H287L62 512l225 389.7h450L962 512 737 122.3zM578.3 742.5c-21.1 6-43.3 9.3-66.3 9.3-132.4 0-239.8-107.4-239.8-239.8S379.6 272.2 512 272.2c24.8 0 48.8 3.8 71.3 10.8 97.6 30.4 168.5 121.4 168.5 229 0 109.5-73.3 201.8-173.5 230.5z" fill="#D98C28" p-id="2422"></path><path d="M704.9 864.6H512c-10.2 0-18.5-8.3-18.5-18.5s8.3-18.5 18.5-18.5h182.3L876.5 512 694.3 196.3H512c-10.2 0-18.5-8.3-18.5-18.5s8.3-18.5 18.5-18.5h192.9c6.6 0 12.7 3.5 16 9.2l192.9 334.1c3.3 5.7 3.3 12.7 0 18.5L720.9 855.4c-3.3 5.7-9.4 9.2-16 9.2z" fill="#6A3906" p-id="2423"></path><path d="M737 920.2H287c-6.6 0-12.7-3.5-16-9.2L46 521.2c-3.3-5.7-3.3-12.7 0-18.5L271 113c3.3-5.7 9.4-9.2 16-9.2h450c6.6 0 12.7 3.5 16 9.2l225 389.7c3.3 5.7 3.3 12.7 0 18.5L753 910.9c-3.3 5.8-9.4 9.3-16 9.3z m-439.3-36.9h428.7L940.7 512 726.3 140.8H297.7L83.3 512l214.4 371.3z" fill="#6A3906" p-id="2424"></path><path d="M512 705.7c-26.1 0-51.3-5.1-75.1-15.1-72-30.3-118.6-100.4-118.6-178.6 0-78 46.4-148.1 118.3-178.5 23.9-10.1 49.3-15.2 75.4-15.2 10.2 0 18.5 8.3 18.5 18.5s-8.3 18.5-18.5 18.5c-21.2 0-41.7 4.1-61 12.3-58.2 24.6-95.8 81.3-95.8 144.5 0 63.3 37.7 120 96 144.6 19.2 8.1 39.7 12.2 60.8 12.2 10.2 0 18.5 8.3 18.5 18.5s-8.3 18.3-18.5 18.3z" fill="#6A3906" p-id="2425"></path><path d="M512 770.3c-69 0-133.8-26.9-182.6-75.6-48.8-48.9-75.7-113.7-75.7-182.7 0-69 26.9-133.8 75.6-182.6 48.8-48.8 113.6-75.6 182.6-75.6 26.2 0 52 3.9 76.8 11.6 51.5 16 97.7 48.7 130.2 92.1 33.6 44.9 51.3 98.3 51.3 154.5 0 57.2-18.3 111.4-53 156.7-33.5 43.9-81.1 76.4-133.9 91.5-23 6.7-47 10.1-71.3 10.1z m0-479.6c-59.1 0-114.7 23-156.5 64.8s-64.8 97.4-64.8 156.5c0 59.1 23 114.7 64.8 156.5s97.4 64.8 156.5 64.8c20.8 0 41.4-2.9 61.2-8.6 45.2-13 86-40.8 114.8-78.5 29.7-38.8 45.4-85.3 45.4-134.3 0-48.2-15.2-94-44-132.4-27.8-37.2-67.4-65.3-111.6-79-21.2-6.5-43.4-9.8-65.8-9.8z" fill="#6A3906" p-id="2426"></path></svg>