<?xml version="1.0" standalone="no"?><!DOCTYPE svg PUBLIC "-//W3C//DTD SVG 1.1//EN" "http://www.w3.org/Graphics/SVG/1.1/DTD/svg11.dtd"><svg t="1648174190402" class="icon" viewBox="0 0 1024 1024" version="1.1" xmlns="http://www.w3.org/2000/svg" p-id="3236" xmlns:xlink="http://www.w3.org/1999/xlink" width="200" height="200"><defs><style type="text/css">@font-face { font-family: feedback-iconfont; src: url("//at.alicdn.com/t/font_1031158_u69w8yhxdu.woff2?t=1630033759944") format("woff2"), url("//at.alicdn.com/t/font_1031158_u69w8yhxdu.woff?t=1630033759944") format("woff"), url("//at.alicdn.com/t/font_1031158_u69w8yhxdu.ttf?t=1630033759944") format("truetype"); }
</style></defs><path d="M375.259429 588.763429l-13.2096 18.000457-17.963886-14.0288-153.490286 159.495314 94.047086 93.103543L436.553143 682.934857l-11.629714-18.256457 12.156342-15.074743z" fill="#FFD300" p-id="3237"></path><path d="M367.067429 572.635429l82.161371 83.317028 17.437257-0.263314 3.437714-17.466514-7.921371-12.960915 40.945371-42.569143 19.287772-1.3312 11.6224-19.039085-16.910629-25.402515 332.097829-349.5936 9.998628-34.223542-38.421942 11.051885L488.594286 512.599771l-22.718172-21.167542-12.946285 5.288228-13.202286 18.512457 2.106514 9.2672-42.269257 40.989257-11.863771-7.277714-16.113372 3.167086z" fill="#FFFFFF" p-id="3238"></path><path d="M855.552 146.746514l-2.274743 0.314515c-11.242057 1.579886-29.001143 4.052114-35.086628 10.386285L488.338286 500.757943l-9.5744-9.201372a22.776686 22.776686 0 0 0-16.252343-6.334171 22.769371 22.769371 0 0 0-15.9744 6.977829l-7.007086 7.299657a22.688914 22.688914 0 0 0-5.6832 21.204114l-35.693714 37.141943-0.014629-0.007314a22.074514 22.074514 0 0 0-15.733028-6.144 22.0672 22.0672 0 0 0-15.484343 6.7584 22.059886 22.059886 0 0 0-6.129372 15.747657c0.109714 5.639314 2.362514 11.271314 6.7584 15.469714l0.014629 0.014629-6.180571 6.443885-7.094858-6.8096a11.856457 11.856457 0 0 0-8.513828-3.306057h-0.043886a11.951543 11.951543 0 0 0-8.382171 3.642514L187.457829 745.691429a11.863771 11.863771 0 0 0-3.313372 8.513828v0.043886c0.065829 3.072 1.287314 6.114743 3.649829 8.382171l7.080228 6.802286-4.878628 5.083429-1.031315-0.994743c-8.118857-7.804343-11.6736-9.647543-17.788342-3.284115-1.623771 1.674971-2.552686 3.744914-3.905829 6.794972l-1.1776 2.552686c-6.531657 14.0288-8.740571 29.271771-6.590171 43.556571 2.121143 14.116571 8.462629 27.274971 19.0976 37.485714 10.642286 10.218057 24.049371 16.032914 38.231771 17.590857 14.372571 1.579886 29.498514-1.250743 43.256686-8.330971v-0.021943l2.018743-1.031314c3.2768-1.667657 5.412571-2.728229 7.080228-4.461714 6.685257-6.948571 3.9424-9.991314-4.469028-18.080915l-1.682286-1.631085 4.878628-5.0688 7.753143 7.445942c2.362514 2.274743 5.449143 3.371886 8.513829 3.313372h0.043886c3.064686-0.073143 6.107429-1.301943 8.382171-3.649829L442.514286 690.680686a11.922286 11.922286 0 0 0 3.306057-8.521143v-0.036572a11.966171 11.966171 0 0 0-3.649829-8.382171l-7.760457-7.445943 6.1952-6.443886 0.687543 0.658286a22.074514 22.074514 0 0 0 30.588343-31.839086l-0.687543-0.658285 35.306057-36.739657a22.7328 22.7328 0 0 0 22.008686-6.282972l7.0144-7.299657a22.827886 22.827886 0 0 0-0.643657-32.219429l-9.589029-9.201371 329.3696-342.813257c6.612114-6.875429 8.074971-21.928229 9.501257-36.651886l0.1536-1.6384 0.958172-9.793828-9.720686 1.375085zM304.625371 646.202514c-1.6384 14.474971-9.303771 34.442971-38.304914 39.877486l38.304914-39.877486z m-86.1184 216.605257c-10.817829-1.1776-21.021257-5.624686-29.118171-13.399771-8.0896-7.775086-12.931657-17.810286-14.5408-28.547657-1.674971-11.1616 0.073143-23.178971 5.185829-34.362514l72.608914 69.763657c-10.986057 5.558857-22.901029 7.775086-34.135772 6.546285z m33.309258-28.898742l-50.600229-48.610743 4.878629-5.083429 50.600228 48.618057-4.878628 5.076115z m6.165942 19.697371l-0.117028 0.073143c1.199543-1.214171 1.806629-1.828571 0.117028-0.073143z m5.258972-40.060343l-16.259657-15.608686c9.552457-8.96 26.207086-23.2448 37.193143-25.029485 2.933029-0.475429 4.359314-4.717714 4.308114-3.115886l-0.021943 0.014629c-0.087771 2.830629-3.84 8.916114-10.305829 17.642057a128.570514 128.570514 0 0 0-14.913828 26.097371z m53.313828-31.422171c0.768 6.100114 1.536 12.097829 0.789943 16.369371l-33.4848 34.8672-8.565028-8.228571c2.421029-6.765714 7.072914-17.3568 15.286857-28.437943 8.352914-11.249371 13.231543-20.099657 13.399771-26.455772h-0.021943c0.299886-10.759314-6.495086-15.191771-22.272-12.617142-14.979657 2.442971-35.1744 19.5584-45.889828 29.557028l-18.197943-17.503086c14.409143-6.407314 51.024457-23.493486 74.5984-41.720685l-9.537829-12.273372c-28.277029 21.8624-77.019429 42.276571-77.173028 42.3424l0.021943 0.043886-4.359315-4.176457 48.917943-50.929372c74.752 0.117029 71.482514-59.779657 69.917257-72.7552l26.112-27.194514 22.140343 21.269943a155.384686 155.384686 0 0 1-15.996343 27.318857c-8.9088 12.309943-20.750629 25.4464-36.476342 39.029029l10.159542 11.702857c16.735086-14.445714 29.381486-28.474514 38.875429-41.610972a174.0288 174.0288 0 0 0 15.242971-25.095314l23.061943 22.162286c-5.5296 8.235886-18.066286 26.382629-28.181943 36.9152-4.981029 5.185829-12.258743 11.834514-19.931428 18.848914-14.365257 13.136457-30.0544 27.487086-35.569372 36.461714-5.749029 9.4208-4.3008 20.8896-2.8672 32.109715z m15.725715 0.826514l-0.351086-2.816c-1.0752-8.4992-2.179657-17.217829 0.738743-21.957486 4.417829-7.182629 19.265829-20.772571 32.841143-33.184914 8.053029-7.358171 15.6672-14.314057 20.648228-19.499886 9.969371-10.386286 21.950171-27.370057 28.328229-36.768914l14.321371 13.765486-96.526628 100.461714z m90.923885-127.414857l-50.607542-48.610743 6.1952-6.436571 50.600228 48.610742-6.187886 6.436572z m38.085486-6.4a6.421943 6.421943 0 0 1-4.578743 1.982171 6.538971 6.538971 0 0 1-4.6592-1.813943l-73.728-70.831542a6.495086 6.495086 0 0 1-1.982171-4.586058 6.524343 6.524343 0 0 1 1.806628-4.6592 6.414629 6.414629 0 0 1 4.586058-1.989485 6.473143 6.473143 0 0 1 4.651885 1.806628l73.728 70.846172a6.4512 6.4512 0 0 1 1.982172 4.578743 6.509714 6.509714 0 0 1-1.806629 4.666514z m-1.309257-31.882972l-50.600229-48.610742 33.2288-34.589258 50.600229 48.610743-33.2288 34.589257z m66.333257-55.493485a7.233829 7.233829 0 0 1-1.9968 5.149257l-7.0144 7.299657a7.2192 7.2192 0 0 1-5.0688 2.208914 7.204571 7.204571 0 0 1-5.149257-1.989485l-56.1152-53.906286a7.277714 7.277714 0 0 1-0.219429-10.225372l7.0144-7.299657a7.197257 7.197257 0 0 1 5.0688-2.2016 7.168 7.168 0 0 1 5.149258 1.9968l56.122514 53.9136a7.168 7.168 0 0 1 2.208914 5.054172z m317.140114-379.070172l-329.362285 342.820572-14.533486-13.970286 329.852343-343.317943c1.784686-1.865143 10.459429-3.474286 18.527086-4.703086-0.980114 8.974629-2.208914 16.800914-4.483658 19.170743z" fill="#231F20" p-id="3239"></path></svg>