<?xml version="1.0" encoding="UTF-8"?>
<svg width="20px" height="20px" viewBox="0 0 20 20" version="1.1" xmlns="http://www.w3.org/2000/svg" xmlns:xlink="http://www.w3.org/1999/xlink">
    <title>model</title>
    <g id="文件图标" stroke="none" stroke-width="1" fill="none" fill-rule="evenodd">
        <g id="编组-3">
            <g id="编组" transform="translate(4.444444, 0.000000)" fill-rule="nonzero">
                <path d="M0.729143889,19.5242862 L14.8264117,19.5242862 C14.960342,19.5235005 15.0684874,19.4169183 15.0684874,19.2857149 L15.0684874,5.23858516 L10.9371582,5.23858516 C10.5344632,5.23858516 10.2080143,4.91878886 10.2080143,4.52430012 L10.2080143,0.475732442 L0.729143889,0.475732442 C0.664554638,0.475732442 0.602610796,0.500867553 0.556939301,0.545608337 C0.511267806,0.590349121 0.485609836,0.651030645 0.485609836,0.714303666 L0.485609836,19.2857149 C0.485609836,19.4171434 0.594981412,19.5242862 0.729143889,19.5242862 Z" id="路径" fill="#FFFFFF"></path>
                <path d="M14.9678656,4.76144275 L10.6950824,0.575732349 L10.6950824,4.52430012 C10.6950824,4.65572857 10.8029957,4.76144275 10.9371582,4.76144275 L14.9678656,4.76144275 L14.9678656,4.76144275 Z" id="路径" fill="#FFFFFF"></path>
                <path d="M15.3411873,4.45430019 L11.0100726,0.210018412 C10.8733184,0.0747249558 10.6867371,-0.000961027697 10.4923805,9.2146362e-06 L0.729143889,9.2146362e-06 C0.326448839,9.2146362e-06 0,0.319814921 0,0.714303666 L0,19.2857149 C0,19.6802037 0.326448839,20.0000092 0.729143889,20.0000092 L14.8264117,20.0000092 C15.2291067,20.0000092 15.5555556,19.6802037 15.5555556,19.2857149 L15.5555556,4.95858542 C15.5555556,4.76924268 15.4782987,4.58775259 15.3411873,4.45430019 Z M10.6936242,0.574303796 L14.9678656,4.76144275 L10.9371582,4.76144275 C10.8032255,4.76144275 10.6944262,4.65550112 10.6936242,4.52430012 L10.6936242,0.574303796 Z M14.8264117,19.5242862 L0.729143889,19.5242862 C0.664554638,19.5242862 0.602610796,19.4991511 0.556939301,19.4544103 C0.511267806,19.4096695 0.485609836,19.348988 0.485609836,19.2857149 L0.485609836,0.714303666 C0.485609836,0.582875214 0.594981412,0.475732442 0.729143889,0.475732442 L10.2080143,0.475732442 L10.2080143,4.52430012 C10.2080143,4.91878886 10.5344632,5.23858516 10.9371582,5.23858516 L15.0684874,5.23858516 L15.0684874,19.2857149 C15.0684874,19.4169183 14.960342,19.5235005 14.8264117,19.5242862 L14.8264117,19.5242862 Z" id="形状" fill="#605E5C" opacity="0.64"></path>
            </g>
            <rect id="矩形" fill="#0563B2" x="0" y="6.66666667" width="20" height="8.88888889" rx="1"></rect>
            <g id="model" transform="translate(0.304333, 8.904000)" fill="#FFFFFF" fill-rule="nonzero">
                <path d="M1.778,1.379 C1.428,1.379 1.099,1.533 0.798,1.848 L0.798,1.477 L0,1.477 L0,5.096 L0.798,5.096 L0.798,2.926 C0.798,2.688 0.868,2.478 1.008,2.31 C1.148,2.128 1.33,2.044 1.561,2.044 C2.037,2.044 2.275,2.317 2.275,2.87 L2.275,5.096 L3.073,5.096 L3.073,2.884 C3.073,2.618 3.136,2.415 3.276,2.268 C3.409,2.114 3.57,2.044 3.766,2.044 C4.046,2.044 4.242,2.107 4.368,2.24 C4.487,2.366 4.55,2.576 4.55,2.863 L4.55,5.096 L5.348,5.096 L5.348,2.723 C5.348,2.324 5.222,2.002 4.984,1.75 C4.732,1.498 4.424,1.379 4.053,1.379 C3.808,1.379 3.605,1.421 3.444,1.505 C3.262,1.589 3.087,1.743 2.919,1.967 C2.688,1.575 2.31,1.379 1.778,1.379 Z" id="路径"></path>
                <path d="M7.82133333,1.379 C7.26833333,1.379 6.82733333,1.554 6.49833333,1.918 C6.16233333,2.275 6.00133333,2.73 6.00133333,3.29 C6.00133333,3.843 6.16233333,4.298 6.49133333,4.648 C6.82733333,5.012 7.26833333,5.194 7.82133333,5.194 C8.36733333,5.194 8.81533333,5.012 9.15133333,4.648 C9.47333333,4.298 9.64133333,3.843 9.64133333,3.29 C9.64133333,2.73 9.47333333,2.275 9.14433333,1.918 C8.80833333,1.554 8.36733333,1.379 7.82133333,1.379 Z M7.82133333,2.03 C8.15033333,2.03 8.40933333,2.156 8.59133333,2.422 C8.74533333,2.646 8.82933333,2.94 8.82933333,3.29 C8.82933333,3.633 8.74533333,3.92 8.59133333,4.151 C8.40933333,4.41 8.15033333,4.543 7.82133333,4.543 C7.48533333,4.543 7.23333333,4.41 7.05133333,4.151 C6.89733333,3.927 6.82033333,3.64 6.82033333,3.29 C6.82033333,2.94 6.89733333,2.646 7.05133333,2.422 C7.23333333,2.156 7.48533333,2.03 7.82133333,2.03 Z" id="形状"></path>
                <path d="M12.8706667,0 L12.8706667,1.974 C12.5696667,1.575 12.2126667,1.379 11.7926667,1.379 C11.2746667,1.379 10.8616667,1.568 10.5676667,1.946 C10.2876667,2.296 10.1546667,2.737 10.1546667,3.269 C10.1546667,3.822 10.2946667,4.277 10.5746667,4.627 C10.8756667,5.005 11.2956667,5.194 11.8346667,5.194 C12.3106667,5.194 12.6746667,5.033 12.9266667,4.711 L12.9266667,5.096 L13.6686667,5.096 L13.6686667,0 L12.8706667,0 Z M11.9816667,2.023 C12.2336667,2.023 12.4506667,2.128 12.6186667,2.338 C12.8006667,2.562 12.8986667,2.87 12.8986667,3.255 L12.8986667,3.311 C12.8986667,3.661 12.8216667,3.955 12.6746667,4.179 C12.5066667,4.424 12.2616667,4.55 11.9536667,4.55 C11.5966667,4.55 11.3376667,4.424 11.1766667,4.172 C11.0366667,3.962 10.9736667,3.661 10.9736667,3.269 C10.9736667,2.877 11.0436667,2.583 11.1906667,2.38 C11.3586667,2.142 11.6176667,2.023 11.9816667,2.023 Z" id="形状"></path>
                <path d="M16.002,1.379 C15.463,1.379 15.036,1.561 14.728,1.932 C14.406,2.296 14.252,2.744 14.252,3.283 C14.252,3.885 14.42,4.354 14.756,4.697 C15.071,5.026 15.498,5.194 16.037,5.194 C16.52,5.194 16.919,5.054 17.241,4.781 C17.493,4.557 17.661,4.27 17.745,3.934 L16.947,3.934 C16.849,4.137 16.744,4.284 16.625,4.375 C16.471,4.487 16.275,4.543 16.03,4.543 C15.743,4.543 15.519,4.452 15.365,4.277 C15.211,4.102 15.12,3.843 15.092,3.507 L17.801,3.507 C17.801,2.856 17.654,2.345 17.367,1.981 C17.052,1.575 16.597,1.379 16.002,1.379 Z M16.023,2.03 C16.583,2.03 16.898,2.317 16.968,2.905 L15.106,2.905 C15.155,2.618 15.253,2.401 15.4,2.254 C15.554,2.1 15.757,2.03 16.023,2.03 Z" id="形状"></path>
                <polygon id="路径" points="18.4543333 0 18.4543333 5.096 19.2523333 5.096 19.2523333 0"></polygon>
            </g>
        </g>
    </g>
</svg>