<?xml version="1.0" encoding="UTF-8"?>
<svg width="20px" height="20px" viewBox="0 0 20 20" version="1.1" xmlns="http://www.w3.org/2000/svg" xmlns:xlink="http://www.w3.org/1999/xlink">
    <title>model2</title>
    <g id="文件图标" stroke="none" stroke-width="1" fill="none" fill-rule="evenodd">
        <g id="编组-3">
            <g id="编组" transform="translate(4.444444, 0.000000)" fill-rule="nonzero">
                <path d="M0.729143889,19.5242862 L14.8264117,19.5242862 C14.960342,19.5235005 15.0684874,19.4169183 15.0684874,19.2857149 L15.0684874,5.23858516 L10.9371582,5.23858516 C10.5344632,5.23858516 10.2080143,4.91878886 10.2080143,4.52430012 L10.2080143,0.475732442 L0.729143889,0.475732442 C0.664554638,0.475732442 0.602610796,0.500867553 0.556939301,0.545608337 C0.511267806,0.590349121 0.485609836,0.651030645 0.485609836,0.714303666 L0.485609836,19.2857149 C0.485609836,19.4171434 0.594981412,19.5242862 0.729143889,19.5242862 Z" id="路径" fill="#FFFFFF"></path>
                <path d="M14.9678656,4.76144275 L10.6950824,0.575732349 L10.6950824,4.52430012 C10.6950824,4.65572857 10.8029957,4.76144275 10.9371582,4.76144275 L14.9678656,4.76144275 L14.9678656,4.76144275 Z" id="路径" fill="#FFFFFF"></path>
                <path d="M15.3411873,4.45430019 L11.0100726,0.210018412 C10.8733184,0.0747249558 10.6867371,-0.000961027697 10.4923805,9.2146362e-06 L0.729143889,9.2146362e-06 C0.326448839,9.2146362e-06 0,0.319814921 0,0.714303666 L0,19.2857149 C0,19.6802037 0.326448839,20.0000092 0.729143889,20.0000092 L14.8264117,20.0000092 C15.2291067,20.0000092 15.5555556,19.6802037 15.5555556,19.2857149 L15.5555556,4.95858542 C15.5555556,4.76924268 15.4782987,4.58775259 15.3411873,4.45430019 Z M10.6936242,0.574303796 L14.9678656,4.76144275 L10.9371582,4.76144275 C10.8032255,4.76144275 10.6944262,4.65550112 10.6936242,4.52430012 L10.6936242,0.574303796 Z M14.8264117,19.5242862 L0.729143889,19.5242862 C0.664554638,19.5242862 0.602610796,19.4991511 0.556939301,19.4544103 C0.511267806,19.4096695 0.485609836,19.348988 0.485609836,19.2857149 L0.485609836,0.714303666 C0.485609836,0.582875214 0.594981412,0.475732442 0.729143889,0.475732442 L10.2080143,0.475732442 L10.2080143,4.52430012 C10.2080143,4.91878886 10.5344632,5.23858516 10.9371582,5.23858516 L15.0684874,5.23858516 L15.0684874,19.2857149 C15.0684874,19.4169183 14.960342,19.5235005 14.8264117,19.5242862 L14.8264117,19.5242862 Z" id="形状" fill="#605E5C" opacity="0.64"></path>
            </g>
            <g id="编组-4备份" transform="translate(0.000000, 7.000000)">
                <path d="M19,0 C19.5522847,-1.01453063e-16 20,0.44771525 20,1 L20,7.88888889 C20,8.44117364 19.5522847,8.88888889 19,8.88888889 L1,8.88888889 C0.44771525,8.88888889 6.76353751e-17,8.44117364 0,7.88888889 L0,1 C-6.76353751e-17,0.44771525 0.44771525,1.01453063e-16 1,0 L19,0 Z M19.0444832,0.504211426 L1.03848839,0.504211426 C0.762346013,0.504211426 0.538488388,0.728069051 0.538488388,1.00421143 L0.538488388,7.94127083 C0.538488388,8.2174132 0.762346013,8.44127083 1.03848839,8.44127083 L19.0444832,8.44127083 C19.3206256,8.44127083 19.5444832,8.2174132 19.5444832,7.94127083 L19.5444832,1.00421143 C19.5444832,0.728069051 19.3206256,0.504211426 19.0444832,0.504211426 Z" id="形状结合" fill="#0563B2"></path>
                <path d="M1.03848839,0.504211426 L19.0444832,0.504211426 C19.3206256,0.504211426 19.5444832,0.728069051 19.5444832,1.00421143 L19.5444832,7.94127083 C19.5444832,8.2174132 19.3206256,8.44127083 19.0444832,8.44127083 L1.03848839,8.44127083 C0.762346013,8.44127083 0.538488388,8.2174132 0.538488388,7.94127083 L0.538488388,1.00421143 C0.538488388,0.728069051 0.762346013,0.504211426 1.03848839,0.504211426 Z" id="矩形备份-25" fill="#FFFFFF"></path>
            </g>
            <g id="model" transform="translate(0.804335, 8.904000)" fill="#0563B2" fill-rule="nonzero">
                <path d="M1.778,1.379 C1.428,1.379 1.099,1.533 0.798,1.848 L0.798,1.477 L0,1.477 L0,5.096 L0.798,5.096 L0.798,2.926 C0.798,2.688 0.868,2.478 1.008,2.31 C1.148,2.128 1.33,2.044 1.561,2.044 C2.037,2.044 2.275,2.317 2.275,2.87 L2.275,5.096 L3.073,5.096 L3.073,2.884 C3.073,2.618 3.136,2.415 3.276,2.268 C3.409,2.114 3.57,2.044 3.766,2.044 C4.046,2.044 4.242,2.107 4.368,2.24 C4.487,2.366 4.55,2.576 4.55,2.863 L4.55,5.096 L5.348,5.096 L5.348,2.723 C5.348,2.324 5.222,2.002 4.984,1.75 C4.732,1.498 4.424,1.379 4.053,1.379 C3.808,1.379 3.605,1.421 3.444,1.505 C3.262,1.589 3.087,1.743 2.919,1.967 C2.688,1.575 2.31,1.379 1.778,1.379 Z" id="路径"></path>
                <path d="M7.621333,1.379 C7.068333,1.379 6.627333,1.554 6.298333,1.918 C5.962333,2.275 5.801333,2.73 5.801333,3.29 C5.801333,3.843 5.962333,4.298 6.291333,4.648 C6.627333,5.012 7.068333,5.194 7.621333,5.194 C8.167333,5.194 8.615333,5.012 8.951333,4.648 C9.273333,4.298 9.441333,3.843 9.441333,3.29 C9.441333,2.73 9.273333,2.275 8.944333,1.918 C8.608333,1.554 8.167333,1.379 7.621333,1.379 Z M7.621333,2.03 C7.950333,2.03 8.209333,2.156 8.391333,2.422 C8.545333,2.646 8.629333,2.94 8.629333,3.29 C8.629333,3.633 8.545333,3.92 8.391333,4.151 C8.209333,4.41 7.950333,4.543 7.621333,4.543 C7.285333,4.543 7.033333,4.41 6.851333,4.151 C6.697333,3.927 6.620333,3.64 6.620333,3.29 C6.620333,2.94 6.697333,2.646 6.851333,2.422 C7.033333,2.156 7.285333,2.03 7.621333,2.03 Z" id="形状"></path>
                <path d="M12.470666,0 L12.470666,1.974 C12.169666,1.575 11.812666,1.379 11.392666,1.379 C10.874666,1.379 10.461666,1.568 10.167666,1.946 C9.887666,2.296 9.754666,2.737 9.754666,3.269 C9.754666,3.822 9.894666,4.277 10.174666,4.627 C10.475666,5.005 10.895666,5.194 11.434666,5.194 C11.910666,5.194 12.274666,5.033 12.526666,4.711 L12.526666,5.096 L13.268666,5.096 L13.268666,0 L12.470666,0 Z M11.581666,2.023 C11.833666,2.023 12.050666,2.128 12.218666,2.338 C12.400666,2.562 12.498666,2.87 12.498666,3.255 L12.498666,3.311 C12.498666,3.661 12.421666,3.955 12.274666,4.179 C12.106666,4.424 11.861666,4.55 11.553666,4.55 C11.196666,4.55 10.937666,4.424 10.776666,4.172 C10.636666,3.962 10.573666,3.661 10.573666,3.269 C10.573666,2.877 10.643666,2.583 10.790666,2.38 C10.958666,2.142 11.217666,2.023 11.581666,2.023 Z" id="形状"></path>
                <path d="M15.401999,1.379 C14.862999,1.379 14.435999,1.561 14.127999,1.932 C13.805999,2.296 13.651999,2.744 13.651999,3.283 C13.651999,3.885 13.819999,4.354 14.155999,4.697 C14.470999,5.026 14.897999,5.194 15.436999,5.194 C15.919999,5.194 16.318999,5.054 16.640999,4.781 C16.892999,4.557 17.060999,4.27 17.144999,3.934 L16.346999,3.934 C16.248999,4.137 16.143999,4.284 16.024999,4.375 C15.870999,4.487 15.674999,4.543 15.429999,4.543 C15.142999,4.543 14.918999,4.452 14.764999,4.277 C14.610999,4.102 14.519999,3.843 14.491999,3.507 L17.200999,3.507 C17.200999,2.856 17.053999,2.345 16.766999,1.981 C16.451999,1.575 15.996999,1.379 15.401999,1.379 Z M15.422999,2.03 C15.982999,2.03 16.297999,2.317 16.367999,2.905 L14.505999,2.905 C14.554999,2.618 14.652999,2.401 14.799999,2.254 C14.953999,2.1 15.156999,2.03 15.422999,2.03 Z" id="形状"></path>
                <polygon id="路径" points="17.654332 0 17.654332 5.096 18.452332 5.096 18.452332 0"></polygon>
            </g>
        </g>
    </g>
</svg>