<?xml version="1.0" encoding="UTF-8"?>
<svg width="20px" height="20px" viewBox="0 0 20 20" version="1.1" xmlns="http://www.w3.org/2000/svg" xmlns:xlink="http://www.w3.org/1999/xlink">
    <title>mp4</title>
    <g id="文件图标" stroke="none" stroke-width="1" fill="none" fill-rule="evenodd">
        <g id="编组-3">
            <g id="编组" transform="translate(4.444444, 0.000000)" fill-rule="nonzero">
                <path d="M0.729143889,19.5242862 L14.8264117,19.5242862 C14.960342,19.5235005 15.0684874,19.4169183 15.0684874,19.2857149 L15.0684874,5.23858516 L10.9371582,5.23858516 C10.5344632,5.23858516 10.2080143,4.91878886 10.2080143,4.52430012 L10.2080143,0.475732442 L0.729143889,0.475732442 C0.664554638,0.475732442 0.602610796,0.500867553 0.556939301,0.545608337 C0.511267806,0.590349121 0.485609836,0.651030645 0.485609836,0.714303666 L0.485609836,19.2857149 C0.485609836,19.4171434 0.594981412,19.5242862 0.729143889,19.5242862 Z" id="路径" fill="#FFFFFF"></path>
                <path d="M14.9678656,4.76144275 L10.6950824,0.575732349 L10.6950824,4.52430012 C10.6950824,4.65572857 10.8029957,4.76144275 10.9371582,4.76144275 L14.9678656,4.76144275 L14.9678656,4.76144275 Z" id="路径" fill="#FFFFFF"></path>
                <path d="M15.3411873,4.45430019 L11.0100726,0.210018412 C10.8733184,0.0747249558 10.6867371,-0.000961027697 10.4923805,9.2146362e-06 L0.729143889,9.2146362e-06 C0.326448839,9.2146362e-06 0,0.319814921 0,0.714303666 L0,19.2857149 C0,19.6802037 0.326448839,20.0000092 0.729143889,20.0000092 L14.8264117,20.0000092 C15.2291067,20.0000092 15.5555556,19.6802037 15.5555556,19.2857149 L15.5555556,4.95858542 C15.5555556,4.76924268 15.4782987,4.58775259 15.3411873,4.45430019 Z M10.6936242,0.574303796 L14.9678656,4.76144275 L10.9371582,4.76144275 C10.8032255,4.76144275 10.6944262,4.65550112 10.6936242,4.52430012 L10.6936242,0.574303796 Z M14.8264117,19.5242862 L0.729143889,19.5242862 C0.664554638,19.5242862 0.602610796,19.4991511 0.556939301,19.4544103 C0.511267806,19.4096695 0.485609836,19.348988 0.485609836,19.2857149 L0.485609836,0.714303666 C0.485609836,0.582875214 0.594981412,0.475732442 0.729143889,0.475732442 L10.2080143,0.475732442 L10.2080143,4.52430012 C10.2080143,4.91878886 10.5344632,5.23858516 10.9371582,5.23858516 L15.0684874,5.23858516 L15.0684874,19.2857149 C15.0684874,19.4169183 14.960342,19.5235005 14.8264117,19.5242862 L14.8264117,19.5242862 Z" id="形状" fill="#605E5C" opacity="0.64"></path>
            </g>
            <rect id="矩形" fill="#0563B2" x="0" y="6.66666667" width="20" height="8.88888889" rx="1"></rect>
            <g id="mp4" transform="translate(0.946000, 7.574000)" fill="#FFFFFF" fill-rule="nonzero">
                <path d="M2.286,1.647 C1.836,1.647 1.413,1.845 1.026,2.25 L1.026,1.773 L0,1.773 L0,6.426 L1.026,6.426 L1.026,3.636 C1.026,3.33 1.116,3.06 1.296,2.844 C1.476,2.61 1.71,2.502 2.007,2.502 C2.619,2.502 2.925,2.853 2.925,3.564 L2.925,6.426 L3.951,6.426 L3.951,3.582 C3.951,3.24 4.032,2.979 4.212,2.79 C4.383,2.592 4.59,2.502 4.842,2.502 C5.202,2.502 5.454,2.583 5.616,2.754 C5.769,2.916 5.85,3.186 5.85,3.555 L5.85,6.426 L6.876,6.426 L6.876,3.375 C6.876,2.862 6.714,2.448 6.408,2.124 C6.084,1.8 5.688,1.647 5.211,1.647 C4.896,1.647 4.635,1.701 4.428,1.809 C4.194,1.917 3.969,2.115 3.753,2.403 C3.456,1.899 2.97,1.647 2.286,1.647 Z" id="路径"></path>
                <path d="M10.254,1.647 C9.642,1.647 9.174,1.854 8.85,2.268 L8.85,1.773 L7.896,1.773 L7.896,8.208 L8.922,8.208 L8.922,5.787 C9.3,6.291 9.768,6.552 10.308,6.552 C10.974,6.552 11.505,6.309 11.883,5.823 C12.234,5.373 12.414,4.806 12.414,4.122 C12.414,3.402 12.234,2.826 11.874,2.376 C11.478,1.89 10.938,1.647 10.254,1.647 Z M10.101,2.475 C10.551,2.475 10.884,2.637 11.1,2.961 C11.271,3.231 11.361,3.618 11.361,4.122 C11.361,4.626 11.262,5.013 11.073,5.283 C10.857,5.571 10.515,5.724 10.065,5.724 C9.732,5.724 9.462,5.589 9.246,5.319 C9.003,5.022 8.886,4.626 8.886,4.14 L8.886,4.068 C8.886,3.6 8.976,3.231 9.174,2.952 C9.39,2.628 9.696,2.475 10.101,2.475 Z" id="形状"></path>
                <path d="M16.026,0 L12.885,4.05 L12.885,5.049 L15.99,5.049 L15.99,6.426 L16.989,6.426 L16.989,5.049 L17.943,5.049 L17.943,4.212 L16.989,4.212 L16.989,0 L16.026,0 Z M15.963,1.332 L15.99,1.332 L15.99,4.212 L13.74,4.212 L15.963,1.332 Z" id="形状"></path>
            </g>
        </g>
    </g>
</svg>