<?xml version="1.0" encoding="UTF-8"?>
<svg width="20px" height="20px" viewBox="0 0 20 20" version="1.1" xmlns="http://www.w3.org/2000/svg" xmlns:xlink="http://www.w3.org/1999/xlink">
    <title>nwd2</title>
    <g id="文件图标" stroke="none" stroke-width="1" fill="none" fill-rule="evenodd">
        <g id="编组-3">
            <g id="编组" transform="translate(4.444444, 0.000000)" fill-rule="nonzero">
                <path d="M0.729143889,19.5242862 L14.8264117,19.5242862 C14.960342,19.5235005 15.0684874,19.4169183 15.0684874,19.2857149 L15.0684874,5.23858516 L10.9371582,5.23858516 C10.5344632,5.23858516 10.2080143,4.91878886 10.2080143,4.52430012 L10.2080143,0.475732442 L0.729143889,0.475732442 C0.664554638,0.475732442 0.602610796,0.500867553 0.556939301,0.545608337 C0.511267806,0.590349121 0.485609836,0.651030645 0.485609836,0.714303666 L0.485609836,19.2857149 C0.485609836,19.4171434 0.594981412,19.5242862 0.729143889,19.5242862 Z" id="路径" fill="#FFFFFF"></path>
                <path d="M14.9678656,4.76144275 L10.6950824,0.575732349 L10.6950824,4.52430012 C10.6950824,4.65572857 10.8029957,4.76144275 10.9371582,4.76144275 L14.9678656,4.76144275 L14.9678656,4.76144275 Z" id="路径" fill="#FFFFFF"></path>
                <path d="M15.3411873,4.45430019 L11.0100726,0.210018412 C10.8733184,0.0747249558 10.6867371,-0.000961027697 10.4923805,9.2146362e-06 L0.729143889,9.2146362e-06 C0.326448839,9.2146362e-06 0,0.319814921 0,0.714303666 L0,19.2857149 C0,19.6802037 0.326448839,20.0000092 0.729143889,20.0000092 L14.8264117,20.0000092 C15.2291067,20.0000092 15.5555556,19.6802037 15.5555556,19.2857149 L15.5555556,4.95858542 C15.5555556,4.76924268 15.4782987,4.58775259 15.3411873,4.45430019 Z M10.6936242,0.574303796 L14.9678656,4.76144275 L10.9371582,4.76144275 C10.8032255,4.76144275 10.6944262,4.65550112 10.6936242,4.52430012 L10.6936242,0.574303796 Z M14.8264117,19.5242862 L0.729143889,19.5242862 C0.664554638,19.5242862 0.602610796,19.4991511 0.556939301,19.4544103 C0.511267806,19.4096695 0.485609836,19.348988 0.485609836,19.2857149 L0.485609836,0.714303666 C0.485609836,0.582875214 0.594981412,0.475732442 0.729143889,0.475732442 L10.2080143,0.475732442 L10.2080143,4.52430012 C10.2080143,4.91878886 10.5344632,5.23858516 10.9371582,5.23858516 L15.0684874,5.23858516 L15.0684874,19.2857149 C15.0684874,19.4169183 14.960342,19.5235005 14.8264117,19.5242862 L14.8264117,19.5242862 Z" id="形状" fill="#605E5C" opacity="0.64"></path>
            </g>
            <g id="编组-4备份" transform="translate(0.000000, 7.000000)">
                <path d="M19,0 C19.5522847,-1.01453063e-16 20,0.44771525 20,1 L20,7.88888889 C20,8.44117364 19.5522847,8.88888889 19,8.88888889 L1,8.88888889 C0.44771525,8.88888889 6.76353751e-17,8.44117364 0,7.88888889 L0,1 C-6.76353751e-17,0.44771525 0.44771525,1.01453063e-16 1,0 L19,0 Z M19.0444832,0.504211426 L1.03848839,0.504211426 C0.762346013,0.504211426 0.538488388,0.728069051 0.538488388,1.00421143 L0.538488388,7.94127083 C0.538488388,8.2174132 0.762346013,8.44127083 1.03848839,8.44127083 L19.0444832,8.44127083 C19.3206256,8.44127083 19.5444832,8.2174132 19.5444832,7.94127083 L19.5444832,1.00421143 C19.5444832,0.728069051 19.3206256,0.504211426 19.0444832,0.504211426 Z" id="形状结合" fill="#0563B2"></path>
                <path d="M1.03848839,0.504211426 L19.0444832,0.504211426 C19.3206256,0.504211426 19.5444832,0.728069051 19.5444832,1.00421143 L19.5444832,7.94127083 C19.5444832,8.2174132 19.3206256,8.44127083 19.0444832,8.44127083 L1.03848839,8.44127083 C0.762346013,8.44127083 0.538488388,8.2174132 0.538488388,7.94127083 L0.538488388,1.00421143 C0.538488388,0.728069051 0.762346013,0.504211426 1.03848839,0.504211426 Z" id="矩形备份-25" fill="#FFFFFF"></path>
            </g>
            <g id="nwd" transform="translate(2.080000, 7.448000)" fill="#0563B2" fill-rule="nonzero">
                <path d="M2.403,1.773 C2.124,1.773 1.872,1.827 1.638,1.944 C1.413,2.052 1.206,2.223 1.026,2.439 L1.026,1.899 L0,1.899 L0,6.552 L1.026,6.552 L1.026,3.753 C1.062,3.384 1.188,3.096 1.404,2.898 C1.593,2.718 1.818,2.628 2.07,2.628 C2.772,2.628 3.123,3.006 3.123,3.771 L3.123,6.552 L4.149,6.552 L4.149,3.681 C4.149,2.403 3.564,1.773 2.403,1.773 Z" id="路径"></path>
                <polygon id="路径" points="4.674 1.899 6.24 6.552 7.194 6.552 8.13 3.15 9.057 6.552 10.011 6.552 11.577 1.899 10.443 1.899 9.516 5.337 8.598 1.899 7.653 1.899 6.735 5.337 5.808 1.899"></polygon>
                <path d="M15.414,0 L15.414,2.538 C15.027,2.025 14.568,1.773 14.028,1.773 C13.362,1.773 12.831,2.016 12.453,2.502 C12.093,2.952 11.922,3.519 11.922,4.203 C11.922,4.914 12.102,5.499 12.462,5.949 C12.849,6.435 13.389,6.678 14.082,6.678 C14.694,6.678 15.162,6.471 15.486,6.057 L15.486,6.552 L16.44,6.552 L16.44,0 L15.414,0 Z M14.271,2.601 C14.595,2.601 14.874,2.736 15.09,3.006 C15.324,3.294 15.45,3.69 15.45,4.185 L15.45,4.257 C15.45,4.707 15.351,5.085 15.162,5.373 C14.946,5.688 14.631,5.85 14.235,5.85 C13.776,5.85 13.443,5.688 13.236,5.364 C13.056,5.094 12.975,4.707 12.975,4.203 C12.975,3.699 13.065,3.321 13.254,3.06 C13.47,2.754 13.803,2.601 14.271,2.601 Z" id="形状"></path>
            </g>
        </g>
    </g>
</svg>