<?xml version="1.0" encoding="UTF-8"?>
<svg width="20px" height="20px" viewBox="0 0 20 20" version="1.1" xmlns="http://www.w3.org/2000/svg" xmlns:xlink="http://www.w3.org/1999/xlink">
    <title>obj2</title>
    <g id="文件图标" stroke="none" stroke-width="1" fill="none" fill-rule="evenodd">
        <g id="编组-3">
            <g id="编组" transform="translate(4.444444, 0.000000)" fill-rule="nonzero">
                <path d="M0.729143889,19.5242862 L14.8264117,19.5242862 C14.960342,19.5235005 15.0684874,19.4169183 15.0684874,19.2857149 L15.0684874,5.23858516 L10.9371582,5.23858516 C10.5344632,5.23858516 10.2080143,4.91878886 10.2080143,4.52430012 L10.2080143,0.475732442 L0.729143889,0.475732442 C0.664554638,0.475732442 0.602610796,0.500867553 0.556939301,0.545608337 C0.511267806,0.590349121 0.485609836,0.651030645 0.485609836,0.714303666 L0.485609836,19.2857149 C0.485609836,19.4171434 0.594981412,19.5242862 0.729143889,19.5242862 Z" id="路径" fill="#FFFFFF"></path>
                <path d="M14.9678656,4.76144275 L10.6950824,0.575732349 L10.6950824,4.52430012 C10.6950824,4.65572857 10.8029957,4.76144275 10.9371582,4.76144275 L14.9678656,4.76144275 L14.9678656,4.76144275 Z" id="路径" fill="#FFFFFF"></path>
                <path d="M15.3411873,4.45430019 L11.0100726,0.210018412 C10.8733184,0.0747249558 10.6867371,-0.000961027697 10.4923805,9.2146362e-06 L0.729143889,9.2146362e-06 C0.326448839,9.2146362e-06 0,0.319814921 0,0.714303666 L0,19.2857149 C0,19.6802037 0.326448839,20.0000092 0.729143889,20.0000092 L14.8264117,20.0000092 C15.2291067,20.0000092 15.5555556,19.6802037 15.5555556,19.2857149 L15.5555556,4.95858542 C15.5555556,4.76924268 15.4782987,4.58775259 15.3411873,4.45430019 Z M10.6936242,0.574303796 L14.9678656,4.76144275 L10.9371582,4.76144275 C10.8032255,4.76144275 10.6944262,4.65550112 10.6936242,4.52430012 L10.6936242,0.574303796 Z M14.8264117,19.5242862 L0.729143889,19.5242862 C0.664554638,19.5242862 0.602610796,19.4991511 0.556939301,19.4544103 C0.511267806,19.4096695 0.485609836,19.348988 0.485609836,19.2857149 L0.485609836,0.714303666 C0.485609836,0.582875214 0.594981412,0.475732442 0.729143889,0.475732442 L10.2080143,0.475732442 L10.2080143,4.52430012 C10.2080143,4.91878886 10.5344632,5.23858516 10.9371582,5.23858516 L15.0684874,5.23858516 L15.0684874,19.2857149 C15.0684874,19.4169183 14.960342,19.5235005 14.8264117,19.5242862 L14.8264117,19.5242862 Z" id="形状" fill="#605E5C" opacity="0.64"></path>
            </g>
            <g id="编组-4备份" transform="translate(0.000000, 7.000000)">
                <path d="M19,0 C19.5522847,-1.01453063e-16 20,0.44771525 20,1 L20,7.88888889 C20,8.44117364 19.5522847,8.88888889 19,8.88888889 L1,8.88888889 C0.44771525,8.88888889 6.76353751e-17,8.44117364 0,7.88888889 L0,1 C-6.76353751e-17,0.44771525 0.44771525,1.01453063e-16 1,0 L19,0 Z M19.0444832,0.504211426 L1.03848839,0.504211426 C0.762346013,0.504211426 0.538488388,0.728069051 0.538488388,1.00421143 L0.538488388,7.94127083 C0.538488388,8.2174132 0.762346013,8.44127083 1.03848839,8.44127083 L19.0444832,8.44127083 C19.3206256,8.44127083 19.5444832,8.2174132 19.5444832,7.94127083 L19.5444832,1.00421143 C19.5444832,0.728069051 19.3206256,0.504211426 19.0444832,0.504211426 Z" id="形状结合" fill="#0563B2"></path>
                <path d="M1.03848839,0.504211426 L19.0444832,0.504211426 C19.3206256,0.504211426 19.5444832,0.728069051 19.5444832,1.00421143 L19.5444832,7.94127083 C19.5444832,8.2174132 19.3206256,8.44127083 19.0444832,8.44127083 L1.03848839,8.44127083 C0.762346013,8.44127083 0.538488388,8.2174132 0.538488388,7.94127083 L0.538488388,1.00421143 C0.538488388,0.728069051 0.762346013,0.504211426 1.03848839,0.504211426 Z" id="矩形备份-25" fill="#FFFFFF"></path>
            </g>
            <g id="obj" transform="translate(3.238000, 7.248000)" fill="#0563B2" fill-rule="nonzero">
                <path d="M2.34,1.773 C1.629,1.773 1.062,1.998 0.639,2.466 C0.207,2.925 0,3.51 0,4.23 C0,4.941 0.207,5.526 0.63,5.976 C1.062,6.444 1.629,6.678 2.34,6.678 C3.042,6.678 3.618,6.444 4.05,5.976 C4.464,5.526 4.68,4.941 4.68,4.23 C4.68,3.51 4.464,2.925 4.041,2.466 C3.609,1.998 3.042,1.773 2.34,1.773 Z M2.34,2.61 C2.763,2.61 3.096,2.772 3.33,3.114 C3.528,3.402 3.636,3.78 3.636,4.23 C3.636,4.671 3.528,5.04 3.33,5.337 C3.096,5.67 2.763,5.841 2.34,5.841 C1.908,5.841 1.584,5.67 1.35,5.337 C1.152,5.049 1.053,4.68 1.053,4.23 C1.053,3.78 1.152,3.402 1.35,3.114 C1.584,2.772 1.908,2.61 2.34,2.61 Z" id="形状"></path>
                <path d="M5.52,0 L5.52,6.552 L6.474,6.552 L6.474,6.057 C6.798,6.471 7.266,6.678 7.878,6.678 C8.562,6.678 9.102,6.435 9.498,5.949 C9.858,5.499 10.038,4.914 10.038,4.203 C10.038,3.519 9.858,2.952 9.507,2.502 C9.12,2.016 8.598,1.773 7.932,1.773 C7.392,1.773 6.924,2.025 6.546,2.538 L6.546,0 L5.52,0 Z M7.689,2.601 C8.148,2.601 8.49,2.754 8.706,3.06 C8.886,3.321 8.985,3.699 8.985,4.203 C8.985,4.707 8.895,5.094 8.724,5.364 C8.508,5.688 8.175,5.85 7.725,5.85 C7.32,5.85 7.014,5.688 6.798,5.373 C6.6,5.085 6.51,4.707 6.51,4.257 L6.51,4.185 C6.51,3.69 6.627,3.294 6.87,3.006 C7.086,2.736 7.356,2.601 7.689,2.601 Z" id="形状"></path>
                <path d="M11.58,0 C11.382,0 11.22,0.063 11.094,0.189 C10.95,0.315 10.887,0.477 10.887,0.675 C10.887,0.873 10.95,1.035 11.094,1.17 C11.22,1.296 11.382,1.359 11.58,1.359 C11.778,1.359 11.94,1.296 12.084,1.17 C12.21,1.044 12.282,0.873 12.282,0.675 C12.282,0.477 12.21,0.315 12.084,0.189 C11.949,0.063 11.778,0 11.58,0 Z M11.067,1.899 L11.067,6.93 C11.067,7.308 10.896,7.497 10.554,7.497 L10.203,7.497 L10.203,8.334 L10.644,8.334 C11.607,8.334 12.093,7.875 12.093,6.975 L12.093,1.899 L11.067,1.899 Z" id="形状"></path>
            </g>
        </g>
    </g>
</svg>