<?xml version="1.0" encoding="UTF-8"?>
<svg width="20px" height="20px" viewBox="0 0 20 20" version="1.1" xmlns="http://www.w3.org/2000/svg" xmlns:xlink="http://www.w3.org/1999/xlink">
    <title>onetoc2</title>
    <g id="文件图标" stroke="none" stroke-width="1" fill="none" fill-rule="evenodd">
        <g id="编组-3">
            <g id="编组" transform="translate(4.444444, 0.000000)" fill-rule="nonzero">
                <path d="M0.729143889,19.5242862 L14.8264117,19.5242862 C14.960342,19.5235005 15.0684874,19.4169183 15.0684874,19.2857149 L15.0684874,5.23858516 L10.9371582,5.23858516 C10.5344632,5.23858516 10.2080143,4.91878886 10.2080143,4.52430012 L10.2080143,0.475732442 L0.729143889,0.475732442 C0.664554638,0.475732442 0.602610796,0.500867553 0.556939301,0.545608337 C0.511267806,0.590349121 0.485609836,0.651030645 0.485609836,0.714303666 L0.485609836,19.2857149 C0.485609836,19.4171434 0.594981412,19.5242862 0.729143889,19.5242862 Z" id="路径" fill="#FFFFFF"></path>
                <path d="M14.9678656,4.76144275 L10.6950824,0.575732349 L10.6950824,4.52430012 C10.6950824,4.65572857 10.8029957,4.76144275 10.9371582,4.76144275 L14.9678656,4.76144275 L14.9678656,4.76144275 Z" id="路径" fill="#FFFFFF"></path>
                <path d="M15.3411873,4.45430019 L11.0100726,0.210018412 C10.8733184,0.0747249558 10.6867371,-0.000961027697 10.4923805,9.2146362e-06 L0.729143889,9.2146362e-06 C0.326448839,9.2146362e-06 0,0.319814921 0,0.714303666 L0,19.2857149 C0,19.6802037 0.326448839,20.0000092 0.729143889,20.0000092 L14.8264117,20.0000092 C15.2291067,20.0000092 15.5555556,19.6802037 15.5555556,19.2857149 L15.5555556,4.95858542 C15.5555556,4.76924268 15.4782987,4.58775259 15.3411873,4.45430019 Z M10.6936242,0.574303796 L14.9678656,4.76144275 L10.9371582,4.76144275 C10.8032255,4.76144275 10.6944262,4.65550112 10.6936242,4.52430012 L10.6936242,0.574303796 Z M14.8264117,19.5242862 L0.729143889,19.5242862 C0.664554638,19.5242862 0.602610796,19.4991511 0.556939301,19.4544103 C0.511267806,19.4096695 0.485609836,19.348988 0.485609836,19.2857149 L0.485609836,0.714303666 C0.485609836,0.582875214 0.594981412,0.475732442 0.729143889,0.475732442 L10.2080143,0.475732442 L10.2080143,4.52430012 C10.2080143,4.91878886 10.5344632,5.23858516 10.9371582,5.23858516 L15.0684874,5.23858516 L15.0684874,19.2857149 C15.0684874,19.4169183 14.960342,19.5235005 14.8264117,19.5242862 L14.8264117,19.5242862 Z" id="形状" fill="#605E5C" opacity="0.64"></path>
            </g>
            <g id="编组-4备份" transform="translate(0.000000, 7.000000)">
                <path d="M19,0 C19.5522847,-1.01453063e-16 20,0.44771525 20,1 L20,7.88888889 C20,8.44117364 19.5522847,8.88888889 19,8.88888889 L1,8.88888889 C0.44771525,8.88888889 6.76353751e-17,8.44117364 0,7.88888889 L0,1 C-6.76353751e-17,0.44771525 0.44771525,1.01453063e-16 1,0 L19,0 Z M19.0444832,0.504211426 L1.03848839,0.504211426 C0.762346013,0.504211426 0.538488388,0.728069051 0.538488388,1.00421143 L0.538488388,7.94127083 C0.538488388,8.2174132 0.762346013,8.44127083 1.03848839,8.44127083 L19.0444832,8.44127083 C19.3206256,8.44127083 19.5444832,8.2174132 19.5444832,7.94127083 L19.5444832,1.00421143 C19.5444832,0.728069051 19.3206256,0.504211426 19.0444832,0.504211426 Z" id="形状结合" fill="#0563B2"></path>
                <path d="M1.03848839,0.504211426 L19.0444832,0.504211426 C19.3206256,0.504211426 19.5444832,0.728069051 19.5444832,1.00421143 L19.5444832,7.94127083 C19.5444832,8.2174132 19.3206256,8.44127083 19.0444832,8.44127083 L1.03848839,8.44127083 C0.762346013,8.44127083 0.538488388,8.2174132 0.538488388,7.94127083 L0.538488388,1.00421143 C0.538488388,0.728069051 0.762346013,0.504211426 1.03848839,0.504211426 Z" id="矩形备份-25" fill="#FFFFFF"></path>
            </g>
            <g id="onetoc" transform="translate(1.054000, 8.896000)" fill="#0563B2" fill-rule="nonzero">
                <path d="M1.56,0.918 C1.086,0.918 0.708,1.068 0.426,1.38 C0.138,1.686 0,2.076 0,2.556 C0,3.03 0.138,3.42 0.42,3.72 C0.708,4.032 1.086,4.188 1.56,4.188 C2.028,4.188 2.412,4.032 2.7,3.72 C2.976,3.42 3.12,3.03 3.12,2.556 C3.12,2.076 2.976,1.686 2.694,1.38 C2.406,1.068 2.028,0.918 1.56,0.918 Z M1.56,1.476 C1.842,1.476 2.064,1.584 2.22,1.812 C2.352,2.004 2.424,2.256 2.424,2.556 C2.424,2.85 2.352,3.096 2.22,3.294 C2.064,3.516 1.842,3.63 1.56,3.63 C1.272,3.63 1.056,3.516 0.9,3.294 C0.768,3.102 0.702,2.856 0.702,2.556 C0.702,2.256 0.768,2.004 0.9,1.812 C1.056,1.584 1.272,1.476 1.56,1.476 Z" id="形状"></path>
                <path d="M5.082,0.918 C4.896,0.918 4.728,0.954 4.572,1.032 C4.422,1.104 4.284,1.218 4.164,1.362 L4.164,1.002 L3.48,1.002 L3.48,4.104 L4.164,4.104 L4.164,2.238 C4.188,1.992 4.272,1.8 4.416,1.668 C4.542,1.548 4.692,1.488 4.86,1.488 C5.328,1.488 5.562,1.74 5.562,2.25 L5.562,4.104 L6.246,4.104 L6.246,2.19 C6.246,1.338 5.856,0.918 5.082,0.918 Z" id="路径"></path>
                <path d="M8.046,0.918 C7.584,0.918 7.218,1.074 6.954,1.392 C6.678,1.704 6.546,2.088 6.546,2.55 C6.546,3.066 6.69,3.468 6.978,3.762 C7.248,4.044 7.614,4.188 8.076,4.188 C8.49,4.188 8.832,4.068 9.108,3.834 C9.324,3.642 9.468,3.396 9.54,3.108 L8.856,3.108 C8.772,3.282 8.682,3.408 8.58,3.486 C8.448,3.582 8.28,3.63 8.07,3.63 C7.824,3.63 7.632,3.552 7.5,3.402 C7.368,3.252 7.29,3.03 7.266,2.742 L9.588,2.742 C9.588,2.184 9.462,1.746 9.216,1.434 C8.946,1.086 8.556,0.918 8.046,0.918 Z M8.064,1.476 C8.544,1.476 8.814,1.722 8.874,2.226 L7.278,2.226 C7.32,1.98 7.404,1.794 7.53,1.668 C7.662,1.536 7.836,1.476 8.064,1.476 Z" id="形状"></path>
                <path d="M10.86,0 L10.176,0.282 L10.176,1.002 L9.618,1.002 L9.618,1.566 L10.176,1.566 L10.176,3.318 C10.176,3.57 10.236,3.756 10.356,3.888 C10.482,4.032 10.68,4.104 10.95,4.104 L11.472,4.104 L11.472,3.54 L11.064,3.54 C10.992,3.54 10.944,3.522 10.908,3.486 C10.872,3.444 10.86,3.39 10.86,3.318 L10.86,1.566 L11.55,1.566 L11.55,1.002 L10.86,1.002 L10.86,0 Z" id="路径"></path>
                <path d="M13.26,0.918 C12.786,0.918 12.408,1.068 12.126,1.38 C11.838,1.686 11.7,2.076 11.7,2.556 C11.7,3.03 11.838,3.42 12.12,3.72 C12.408,4.032 12.786,4.188 13.26,4.188 C13.728,4.188 14.112,4.032 14.4,3.72 C14.676,3.42 14.82,3.03 14.82,2.556 C14.82,2.076 14.676,1.686 14.394,1.38 C14.106,1.068 13.728,0.918 13.26,0.918 Z M13.26,1.476 C13.542,1.476 13.764,1.584 13.92,1.812 C14.052,2.004 14.124,2.256 14.124,2.556 C14.124,2.85 14.052,3.096 13.92,3.294 C13.764,3.516 13.542,3.63 13.26,3.63 C12.972,3.63 12.756,3.516 12.6,3.294 C12.468,3.102 12.402,2.856 12.402,2.556 C12.402,2.256 12.468,2.004 12.6,1.812 C12.756,1.584 12.972,1.476 13.26,1.476 Z" id="形状"></path>
                <path d="M16.572,0.918 C16.086,0.918 15.708,1.08 15.438,1.404 C15.186,1.698 15.06,2.082 15.06,2.55 C15.06,3.03 15.186,3.42 15.444,3.72 C15.708,4.032 16.08,4.188 16.56,4.188 C16.962,4.188 17.286,4.086 17.526,3.888 C17.772,3.684 17.934,3.372 18.006,2.952 L17.328,2.952 C17.274,3.402 17.022,3.63 16.566,3.63 C16.302,3.63 16.104,3.534 15.972,3.348 C15.828,3.156 15.762,2.886 15.762,2.544 C15.762,2.208 15.834,1.944 15.978,1.758 C16.122,1.566 16.32,1.476 16.572,1.476 C16.776,1.476 16.944,1.524 17.07,1.62 C17.19,1.716 17.274,1.86 17.316,2.058 L17.994,2.058 C17.934,1.668 17.778,1.38 17.532,1.188 C17.292,1.008 16.974,0.918 16.572,0.918 Z" id="路径"></path>
            </g>
        </g>
    </g>
</svg>