<?xml version="1.0" encoding="UTF-8"?>
<svg width="20px" height="20px" viewBox="0 0 20 20" version="1.1" xmlns="http://www.w3.org/2000/svg" xmlns:xlink="http://www.w3.org/1999/xlink">
    <title>outlook2</title>
    <g id="文件图标" stroke="none" stroke-width="1" fill="none" fill-rule="evenodd">
        <g id="编组-3">
            <g id="编组" transform="translate(4.444444, 0.000000)" fill-rule="nonzero">
                <path d="M0.729143889,19.5242862 L14.8264117,19.5242862 C14.960342,19.5235005 15.0684874,19.4169183 15.0684874,19.2857149 L15.0684874,5.23858516 L10.9371582,5.23858516 C10.5344632,5.23858516 10.2080143,4.91878886 10.2080143,4.52430012 L10.2080143,0.475732442 L0.729143889,0.475732442 C0.664554638,0.475732442 0.602610796,0.500867553 0.556939301,0.545608337 C0.511267806,0.590349121 0.485609836,0.651030645 0.485609836,0.714303666 L0.485609836,19.2857149 C0.485609836,19.4171434 0.594981412,19.5242862 0.729143889,19.5242862 Z" id="路径" fill="#FFFFFF"></path>
                <path d="M14.9678656,4.76144275 L10.6950824,0.575732349 L10.6950824,4.52430012 C10.6950824,4.65572857 10.8029957,4.76144275 10.9371582,4.76144275 L14.9678656,4.76144275 L14.9678656,4.76144275 Z" id="路径" fill="#FFFFFF"></path>
                <path d="M15.3411873,4.45430019 L11.0100726,0.210018412 C10.8733184,0.0747249558 10.6867371,-0.000961027697 10.4923805,9.2146362e-06 L0.729143889,9.2146362e-06 C0.326448839,9.2146362e-06 0,0.319814921 0,0.714303666 L0,19.2857149 C0,19.6802037 0.326448839,20.0000092 0.729143889,20.0000092 L14.8264117,20.0000092 C15.2291067,20.0000092 15.5555556,19.6802037 15.5555556,19.2857149 L15.5555556,4.95858542 C15.5555556,4.76924268 15.4782987,4.58775259 15.3411873,4.45430019 Z M10.6936242,0.574303796 L14.9678656,4.76144275 L10.9371582,4.76144275 C10.8032255,4.76144275 10.6944262,4.65550112 10.6936242,4.52430012 L10.6936242,0.574303796 Z M14.8264117,19.5242862 L0.729143889,19.5242862 C0.664554638,19.5242862 0.602610796,19.4991511 0.556939301,19.4544103 C0.511267806,19.4096695 0.485609836,19.348988 0.485609836,19.2857149 L0.485609836,0.714303666 C0.485609836,0.582875214 0.594981412,0.475732442 0.729143889,0.475732442 L10.2080143,0.475732442 L10.2080143,4.52430012 C10.2080143,4.91878886 10.5344632,5.23858516 10.9371582,5.23858516 L15.0684874,5.23858516 L15.0684874,19.2857149 C15.0684874,19.4169183 14.960342,19.5235005 14.8264117,19.5242862 L14.8264117,19.5242862 Z" id="形状" fill="#605E5C" opacity="0.64"></path>
            </g>
            <g id="编组-4备份" transform="translate(0.000000, 7.000000)">
                <path d="M19,0 C19.5522847,-1.01453063e-16 20,0.44771525 20,1 L20,7.88888889 C20,8.44117364 19.5522847,8.88888889 19,8.88888889 L1,8.88888889 C0.44771525,8.88888889 6.76353751e-17,8.44117364 0,7.88888889 L0,1 C-6.76353751e-17,0.44771525 0.44771525,1.01453063e-16 1,0 L19,0 Z M19.0444832,0.504211426 L1.03848839,0.504211426 C0.762346013,0.504211426 0.538488388,0.728069051 0.538488388,1.00421143 L0.538488388,7.94127083 C0.538488388,8.2174132 0.762346013,8.44127083 1.03848839,8.44127083 L19.0444832,8.44127083 C19.3206256,8.44127083 19.5444832,8.2174132 19.5444832,7.94127083 L19.5444832,1.00421143 C19.5444832,0.728069051 19.3206256,0.504211426 19.0444832,0.504211426 Z" id="形状结合" fill="#0563B2"></path>
                <path d="M1.03848839,0.504211426 L19.0444832,0.504211426 C19.3206256,0.504211426 19.5444832,0.728069051 19.5444832,1.00421143 L19.5444832,7.94127083 C19.5444832,8.2174132 19.3206256,8.44127083 19.0444832,8.44127083 L1.03848839,8.44127083 C0.762346013,8.44127083 0.538488388,8.2174132 0.538488388,7.94127083 L0.538488388,1.00421143 C0.538488388,0.728069051 0.762346013,0.504211426 1.03848839,0.504211426 Z" id="矩形备份-25" fill="#FFFFFF"></path>
            </g>
            <g id="outlook" transform="translate(1.445000, 9.360000)" fill="#0563B2" fill-rule="nonzero">
                <path d="M1.3,0.985 C0.905,0.985 0.59,1.11 0.355,1.37 C0.115,1.625 0,1.95 0,2.35 C0,2.745 0.115,3.07 0.35,3.32 C0.59,3.58 0.905,3.71 1.3,3.71 C1.69,3.71 2.01,3.58 2.25,3.32 C2.48,3.07 2.6,2.745 2.6,2.35 C2.6,1.95 2.48,1.625 2.245,1.37 C2.005,1.11 1.69,0.985 1.3,0.985 Z M1.3,1.45 C1.535,1.45 1.72,1.54 1.85,1.73 C1.96,1.89 2.02,2.1 2.02,2.35 C2.02,2.595 1.96,2.8 1.85,2.965 C1.72,3.15 1.535,3.245 1.3,3.245 C1.06,3.245 0.88,3.15 0.75,2.965 C0.64,2.805 0.585,2.6 0.585,2.35 C0.585,2.1 0.64,1.89 0.75,1.73 C0.88,1.54 1.06,1.45 1.3,1.45 Z" id="形状"></path>
                <path d="M3.1,1.055 L3.1,2.665 C3.1,3.36 3.41,3.71 4.03,3.71 C4.35,3.71 4.62,3.575 4.84,3.305 L4.84,3.64 L5.41,3.64 L5.41,1.055 L4.84,1.055 L4.84,2.635 C4.79,2.82 4.705,2.965 4.59,3.075 C4.475,3.18 4.355,3.235 4.23,3.235 C4.03,3.235 3.89,3.185 3.8,3.09 C3.71,2.99 3.67,2.84 3.67,2.63 L3.67,1.055 L3.1,1.055 Z" id="路径"></path>
                <path d="M6.82,0.22 L6.25,0.455 L6.25,1.055 L5.785,1.055 L5.785,1.525 L6.25,1.525 L6.25,2.985 C6.25,3.195 6.3,3.35 6.4,3.46 C6.505,3.58 6.67,3.64 6.895,3.64 L7.33,3.64 L7.33,3.17 L6.99,3.17 C6.93,3.17 6.89,3.155 6.86,3.125 C6.83,3.09 6.82,3.045 6.82,2.985 L6.82,1.525 L7.395,1.525 L7.395,1.055 L6.82,1.055 L6.82,0.22 Z" id="路径"></path>
                <polygon id="路径" points="7.87 0 7.87 3.64 8.44 3.64 8.44 0"></polygon>
                <path d="M10.29,0.985 C9.895,0.985 9.58,1.11 9.345,1.37 C9.105,1.625 8.99,1.95 8.99,2.35 C8.99,2.745 9.105,3.07 9.34,3.32 C9.58,3.58 9.895,3.71 10.29,3.71 C10.68,3.71 11,3.58 11.24,3.32 C11.47,3.07 11.59,2.745 11.59,2.35 C11.59,1.95 11.47,1.625 11.235,1.37 C10.995,1.11 10.68,0.985 10.29,0.985 Z M10.29,1.45 C10.525,1.45 10.71,1.54 10.84,1.73 C10.95,1.89 11.01,2.1 11.01,2.35 C11.01,2.595 10.95,2.8 10.84,2.965 C10.71,3.15 10.525,3.245 10.29,3.245 C10.05,3.245 9.87,3.15 9.74,2.965 C9.63,2.805 9.575,2.6 9.575,2.35 C9.575,2.1 9.63,1.89 9.74,1.73 C9.87,1.54 10.05,1.45 10.29,1.45 Z" id="形状"></path>
                <path d="M13.29,0.985 C12.895,0.985 12.58,1.11 12.345,1.37 C12.105,1.625 11.99,1.95 11.99,2.35 C11.99,2.745 12.105,3.07 12.34,3.32 C12.58,3.58 12.895,3.71 13.29,3.71 C13.68,3.71 14,3.58 14.24,3.32 C14.47,3.07 14.59,2.745 14.59,2.35 C14.59,1.95 14.47,1.625 14.235,1.37 C13.995,1.11 13.68,0.985 13.29,0.985 Z M13.29,1.45 C13.525,1.45 13.71,1.54 13.84,1.73 C13.95,1.89 14.01,2.1 14.01,2.35 C14.01,2.595 13.95,2.8 13.84,2.965 C13.71,3.15 13.525,3.245 13.29,3.245 C13.05,3.245 12.87,3.15 12.74,2.965 C12.63,2.805 12.575,2.6 12.575,2.35 C12.575,2.1 12.63,1.89 12.74,1.73 C12.87,1.54 13.05,1.45 13.29,1.45 Z" id="形状"></path>
                <polygon id="路径" points="15.09 0 15.09 3.64 15.66 3.64 15.66 2.735 15.92 2.49 16.825 3.64 17.555 3.64 16.31 2.125 17.455 1.055 16.72 1.055 15.66 2.08 15.66 0"></polygon>
            </g>
        </g>
    </g>
</svg>