<?xml version="1.0" encoding="UTF-8"?>
<svg width="20px" height="20px" viewBox="0 0 20 20" version="1.1" xmlns="http://www.w3.org/2000/svg" xmlns:xlink="http://www.w3.org/1999/xlink">
    <title>par</title>
    <g id="文件图标" stroke="none" stroke-width="1" fill="none" fill-rule="evenodd">
        <g id="编组-3">
            <g id="编组" transform="translate(4.444444, 0.000000)" fill-rule="nonzero">
                <path d="M0.729143889,19.5242862 L14.8264117,19.5242862 C14.960342,19.5235005 15.0684874,19.4169183 15.0684874,19.2857149 L15.0684874,5.23858516 L10.9371582,5.23858516 C10.5344632,5.23858516 10.2080143,4.91878886 10.2080143,4.52430012 L10.2080143,0.475732442 L0.729143889,0.475732442 C0.664554638,0.475732442 0.602610796,0.500867553 0.556939301,0.545608337 C0.511267806,0.590349121 0.485609836,0.651030645 0.485609836,0.714303666 L0.485609836,19.2857149 C0.485609836,19.4171434 0.594981412,19.5242862 0.729143889,19.5242862 Z" id="路径" fill="#FFFFFF"></path>
                <path d="M14.9678656,4.76144275 L10.6950824,0.575732349 L10.6950824,4.52430012 C10.6950824,4.65572857 10.8029957,4.76144275 10.9371582,4.76144275 L14.9678656,4.76144275 L14.9678656,4.76144275 Z" id="路径" fill="#FFFFFF"></path>
                <path d="M15.3411873,4.45430019 L11.0100726,0.210018412 C10.8733184,0.0747249558 10.6867371,-0.000961027697 10.4923805,9.2146362e-06 L0.729143889,9.2146362e-06 C0.326448839,9.2146362e-06 0,0.319814921 0,0.714303666 L0,19.2857149 C0,19.6802037 0.326448839,20.0000092 0.729143889,20.0000092 L14.8264117,20.0000092 C15.2291067,20.0000092 15.5555556,19.6802037 15.5555556,19.2857149 L15.5555556,4.95858542 C15.5555556,4.76924268 15.4782987,4.58775259 15.3411873,4.45430019 Z M10.6936242,0.574303796 L14.9678656,4.76144275 L10.9371582,4.76144275 C10.8032255,4.76144275 10.6944262,4.65550112 10.6936242,4.52430012 L10.6936242,0.574303796 Z M14.8264117,19.5242862 L0.729143889,19.5242862 C0.664554638,19.5242862 0.602610796,19.4991511 0.556939301,19.4544103 C0.511267806,19.4096695 0.485609836,19.348988 0.485609836,19.2857149 L0.485609836,0.714303666 C0.485609836,0.582875214 0.594981412,0.475732442 0.729143889,0.475732442 L10.2080143,0.475732442 L10.2080143,4.52430012 C10.2080143,4.91878886 10.5344632,5.23858516 10.9371582,5.23858516 L15.0684874,5.23858516 L15.0684874,19.2857149 C15.0684874,19.4169183 14.960342,19.5235005 14.8264117,19.5242862 L14.8264117,19.5242862 Z" id="形状" fill="#605E5C" opacity="0.64"></path>
            </g>
            <rect id="矩形" fill="#0563B2" x="0" y="6.66666667" width="20" height="8.88888889" rx="1"></rect>
            <g id="par" transform="translate(3.788000, 8.221000)" fill="#FFFFFF" fill-rule="nonzero">
                <path d="M2.358,0 C1.746,0 1.278,0.207 0.954,0.621 L0.954,0.126 L0,0.126 L0,6.561 L1.026,6.561 L1.026,4.14 C1.404,4.644 1.872,4.905 2.412,4.905 C3.078,4.905 3.609,4.662 3.987,4.176 C4.338,3.726 4.518,3.159 4.518,2.475 C4.518,1.755 4.338,1.179 3.978,0.729 C3.582,0.243 3.042,0 2.358,0 Z M2.205,0.828 C2.655,0.828 2.988,0.99 3.204,1.314 C3.375,1.584 3.465,1.971 3.465,2.475 C3.465,2.979 3.366,3.366 3.177,3.636 C2.961,3.924 2.619,4.077 2.169,4.077 C1.836,4.077 1.566,3.942 1.35,3.672 C1.107,3.375 0.99,2.979 0.99,2.493 L0.99,2.421 C0.99,1.953 1.08,1.584 1.278,1.305 C1.494,0.981 1.8,0.828 2.205,0.828 Z" id="形状"></path>
                <path d="M7.473,0 C6.879,0 6.411,0.099 6.069,0.315 C5.664,0.549 5.412,0.927 5.313,1.44 L6.33,1.521 C6.384,1.278 6.519,1.098 6.717,0.981 C6.888,0.873 7.113,0.828 7.401,0.828 C8.067,0.828 8.4,1.125 8.4,1.737 L8.4,1.917 L7.383,1.944 C6.699,1.962 6.168,2.106 5.79,2.376 C5.376,2.655 5.178,3.06 5.178,3.582 C5.178,3.969 5.322,4.284 5.61,4.536 C5.889,4.779 6.267,4.905 6.753,4.905 C7.158,4.905 7.509,4.833 7.806,4.698 C8.067,4.572 8.292,4.401 8.472,4.167 L8.472,4.779 L9.426,4.779 L9.426,1.809 C9.426,1.242 9.282,0.81 8.994,0.513 C8.67,0.171 8.157,0 7.473,0 Z M8.4,2.655 L8.4,2.889 C8.4,3.249 8.256,3.546 7.986,3.78 C7.716,4.005 7.383,4.122 6.987,4.122 C6.762,4.122 6.582,4.059 6.438,3.951 C6.294,3.843 6.231,3.708 6.231,3.546 C6.231,2.988 6.636,2.7 7.455,2.682 L8.4,2.655 Z" id="形状"></path>
                <path d="M12.642,0 C12.354,0 12.111,0.081 11.904,0.252 C11.733,0.378 11.589,0.558 11.463,0.792 L11.463,0.126 L10.446,0.126 L10.446,4.779 L11.463,4.779 L11.463,2.313 C11.463,1.917 11.58,1.602 11.832,1.359 C12.048,1.143 12.291,1.044 12.561,1.044 C12.777,1.044 12.993,1.071 13.227,1.143 L13.227,0.117 C13.065,0.036 12.867,0 12.642,0 Z" id="路径"></path>
            </g>
        </g>
    </g>
</svg>