<?xml version="1.0" encoding="UTF-8"?>
<svg width="20px" height="20px" viewBox="0 0 20 20" version="1.1" xmlns="http://www.w3.org/2000/svg" xmlns:xlink="http://www.w3.org/1999/xlink">
    <title>pcbdoc</title>
    <g id="文件图标" stroke="none" stroke-width="1" fill="none" fill-rule="evenodd">
        <g id="编组-3">
            <g id="编组" transform="translate(4.444444, 0.000000)" fill-rule="nonzero">
                <path d="M0.729143889,19.5242862 L14.8264117,19.5242862 C14.960342,19.5235005 15.0684874,19.4169183 15.0684874,19.2857149 L15.0684874,5.23858516 L10.9371582,5.23858516 C10.5344632,5.23858516 10.2080143,4.91878886 10.2080143,4.52430012 L10.2080143,0.475732442 L0.729143889,0.475732442 C0.664554638,0.475732442 0.602610796,0.500867553 0.556939301,0.545608337 C0.511267806,0.590349121 0.485609836,0.651030645 0.485609836,0.714303666 L0.485609836,19.2857149 C0.485609836,19.4171434 0.594981412,19.5242862 0.729143889,19.5242862 Z" id="路径" fill="#FFFFFF"></path>
                <path d="M14.9678656,4.76144275 L10.6950824,0.575732349 L10.6950824,4.52430012 C10.6950824,4.65572857 10.8029957,4.76144275 10.9371582,4.76144275 L14.9678656,4.76144275 L14.9678656,4.76144275 Z" id="路径" fill="#FFFFFF"></path>
                <path d="M15.3411873,4.45430019 L11.0100726,0.210018412 C10.8733184,0.0747249558 10.6867371,-0.000961027697 10.4923805,9.2146362e-06 L0.729143889,9.2146362e-06 C0.326448839,9.2146362e-06 0,0.319814921 0,0.714303666 L0,19.2857149 C0,19.6802037 0.326448839,20.0000092 0.729143889,20.0000092 L14.8264117,20.0000092 C15.2291067,20.0000092 15.5555556,19.6802037 15.5555556,19.2857149 L15.5555556,4.95858542 C15.5555556,4.76924268 15.4782987,4.58775259 15.3411873,4.45430019 Z M10.6936242,0.574303796 L14.9678656,4.76144275 L10.9371582,4.76144275 C10.8032255,4.76144275 10.6944262,4.65550112 10.6936242,4.52430012 L10.6936242,0.574303796 Z M14.8264117,19.5242862 L0.729143889,19.5242862 C0.664554638,19.5242862 0.602610796,19.4991511 0.556939301,19.4544103 C0.511267806,19.4096695 0.485609836,19.348988 0.485609836,19.2857149 L0.485609836,0.714303666 C0.485609836,0.582875214 0.594981412,0.475732442 0.729143889,0.475732442 L10.2080143,0.475732442 L10.2080143,4.52430012 C10.2080143,4.91878886 10.5344632,5.23858516 10.9371582,5.23858516 L15.0684874,5.23858516 L15.0684874,19.2857149 C15.0684874,19.4169183 14.960342,19.5235005 14.8264117,19.5242862 L14.8264117,19.5242862 Z" id="形状" fill="#605E5C" opacity="0.64"></path>
            </g>
            <rect id="矩形" fill="#0563B2" x="0" y="6.66666667" width="20" height="8.88888889" rx="1"></rect>
            <g id="pcbdoc" transform="translate(1.860000, 9.360000)" fill="#FFFFFF" fill-rule="nonzero">
                <path d="M1.31,0.985 C0.97,0.985 0.71,1.1 0.53,1.33 L0.53,1.055 L0,1.055 L0,4.63 L0.57,4.63 L0.57,3.285 C0.78,3.565 1.04,3.71 1.34,3.71 C1.71,3.71 2.005,3.575 2.215,3.305 C2.41,3.055 2.51,2.74 2.51,2.36 C2.51,1.96 2.41,1.64 2.21,1.39 C1.99,1.12 1.69,0.985 1.31,0.985 Z M1.225,1.445 C1.475,1.445 1.66,1.535 1.78,1.715 C1.875,1.865 1.925,2.08 1.925,2.36 C1.925,2.64 1.87,2.855 1.765,3.005 C1.645,3.165 1.455,3.25 1.205,3.25 C1.02,3.25 0.87,3.175 0.75,3.025 C0.615,2.86 0.55,2.64 0.55,2.37 L0.55,2.33 C0.55,2.07 0.6,1.865 0.71,1.71 C0.83,1.53 1,1.445 1.225,1.445 Z" id="形状"></path>
                <path d="M4.17,0.985 C3.765,0.985 3.45,1.12 3.225,1.39 C3.015,1.635 2.91,1.955 2.91,2.345 C2.91,2.745 3.015,3.07 3.23,3.32 C3.45,3.58 3.76,3.71 4.16,3.71 C4.495,3.71 4.765,3.625 4.965,3.46 C5.17,3.29 5.305,3.03 5.365,2.68 L4.8,2.68 C4.755,3.055 4.545,3.245 4.165,3.245 C3.945,3.245 3.78,3.165 3.67,3.01 C3.55,2.85 3.495,2.625 3.495,2.34 C3.495,2.06 3.555,1.84 3.675,1.685 C3.795,1.525 3.96,1.45 4.17,1.45 C4.34,1.45 4.48,1.49 4.585,1.57 C4.685,1.65 4.755,1.77 4.79,1.935 L5.355,1.935 C5.305,1.61 5.175,1.37 4.97,1.21 C4.77,1.06 4.505,0.985 4.17,0.985 Z" id="路径"></path>
                <path d="M5.815,0 L5.815,3.64 L6.345,3.64 L6.345,3.365 C6.525,3.595 6.785,3.71 7.125,3.71 C7.505,3.71 7.805,3.575 8.025,3.305 C8.225,3.055 8.325,2.73 8.325,2.335 C8.325,1.955 8.225,1.64 8.03,1.39 C7.815,1.12 7.525,0.985 7.155,0.985 C6.855,0.985 6.595,1.125 6.385,1.41 L6.385,0 L5.815,0 Z M7.02,1.445 C7.275,1.445 7.465,1.53 7.585,1.7 C7.685,1.845 7.74,2.055 7.74,2.335 C7.74,2.615 7.69,2.83 7.595,2.98 C7.475,3.16 7.29,3.25 7.04,3.25 C6.815,3.25 6.645,3.16 6.525,2.985 C6.415,2.825 6.365,2.615 6.365,2.365 L6.365,2.325 C6.365,2.05 6.43,1.83 6.565,1.67 C6.685,1.52 6.835,1.445 7.02,1.445 Z" id="形状"></path>
                <path d="M10.665,0 L10.665,1.41 C10.45,1.125 10.195,0.985 9.895,0.985 C9.525,0.985 9.23,1.12 9.02,1.39 C8.82,1.64 8.725,1.955 8.725,2.335 C8.725,2.73 8.825,3.055 9.025,3.305 C9.24,3.575 9.54,3.71 9.925,3.71 C10.265,3.71 10.525,3.595 10.705,3.365 L10.705,3.64 L11.235,3.64 L11.235,0 L10.665,0 Z M10.03,1.445 C10.21,1.445 10.365,1.52 10.485,1.67 C10.615,1.83 10.685,2.05 10.685,2.325 L10.685,2.365 C10.685,2.615 10.63,2.825 10.525,2.985 C10.405,3.16 10.23,3.25 10.01,3.25 C9.755,3.25 9.57,3.16 9.455,2.98 C9.355,2.83 9.31,2.615 9.31,2.335 C9.31,2.055 9.36,1.845 9.465,1.7 C9.585,1.53 9.77,1.445 10.03,1.445 Z" id="形状"></path>
                <path d="M13.035,0.985 C12.64,0.985 12.325,1.11 12.09,1.37 C11.85,1.625 11.735,1.95 11.735,2.35 C11.735,2.745 11.85,3.07 12.085,3.32 C12.325,3.58 12.64,3.71 13.035,3.71 C13.425,3.71 13.745,3.58 13.985,3.32 C14.215,3.07 14.335,2.745 14.335,2.35 C14.335,1.95 14.215,1.625 13.98,1.37 C13.74,1.11 13.425,0.985 13.035,0.985 Z M13.035,1.45 C13.27,1.45 13.455,1.54 13.585,1.73 C13.695,1.89 13.755,2.1 13.755,2.35 C13.755,2.595 13.695,2.8 13.585,2.965 C13.455,3.15 13.27,3.245 13.035,3.245 C12.795,3.245 12.615,3.15 12.485,2.965 C12.375,2.805 12.32,2.6 12.32,2.35 C12.32,2.1 12.375,1.89 12.485,1.73 C12.615,1.54 12.795,1.45 13.035,1.45 Z" id="形状"></path>
                <path d="M15.995,0.985 C15.59,0.985 15.275,1.12 15.05,1.39 C14.84,1.635 14.735,1.955 14.735,2.345 C14.735,2.745 14.84,3.07 15.055,3.32 C15.275,3.58 15.585,3.71 15.985,3.71 C16.32,3.71 16.59,3.625 16.79,3.46 C16.995,3.29 17.13,3.03 17.19,2.68 L16.625,2.68 C16.58,3.055 16.37,3.245 15.99,3.245 C15.77,3.245 15.605,3.165 15.495,3.01 C15.375,2.85 15.32,2.625 15.32,2.34 C15.32,2.06 15.38,1.84 15.5,1.685 C15.62,1.525 15.785,1.45 15.995,1.45 C16.165,1.45 16.305,1.49 16.41,1.57 C16.51,1.65 16.58,1.77 16.615,1.935 L17.18,1.935 C17.13,1.61 17,1.37 16.795,1.21 C16.595,1.06 16.33,0.985 15.995,0.985 Z" id="路径"></path>
            </g>
        </g>
    </g>
</svg>