<?xml version="1.0" encoding="UTF-8"?>
<svg width="20px" height="20px" viewBox="0 0 20 20" version="1.1" xmlns="http://www.w3.org/2000/svg" xmlns:xlink="http://www.w3.org/1999/xlink">
    <title>pd2</title>
    <g id="文件图标" stroke="none" stroke-width="1" fill="none" fill-rule="evenodd">
        <g id="编组-3">
            <g id="编组" transform="translate(4.444444, 0.000000)" fill-rule="nonzero">
                <path d="M0.729143889,19.5242862 L14.8264117,19.5242862 C14.960342,19.5235005 15.0684874,19.4169183 15.0684874,19.2857149 L15.0684874,5.23858516 L10.9371582,5.23858516 C10.5344632,5.23858516 10.2080143,4.91878886 10.2080143,4.52430012 L10.2080143,0.475732442 L0.729143889,0.475732442 C0.664554638,0.475732442 0.602610796,0.500867553 0.556939301,0.545608337 C0.511267806,0.590349121 0.485609836,0.651030645 0.485609836,0.714303666 L0.485609836,19.2857149 C0.485609836,19.4171434 0.594981412,19.5242862 0.729143889,19.5242862 Z" id="路径" fill="#FFFFFF"></path>
                <path d="M14.9678656,4.76144275 L10.6950824,0.575732349 L10.6950824,4.52430012 C10.6950824,4.65572857 10.8029957,4.76144275 10.9371582,4.76144275 L14.9678656,4.76144275 L14.9678656,4.76144275 Z" id="路径" fill="#FFFFFF"></path>
                <path d="M15.3411873,4.45430019 L11.0100726,0.210018412 C10.8733184,0.0747249558 10.6867371,-0.000961027697 10.4923805,9.2146362e-06 L0.729143889,9.2146362e-06 C0.326448839,9.2146362e-06 0,0.319814921 0,0.714303666 L0,19.2857149 C0,19.6802037 0.326448839,20.0000092 0.729143889,20.0000092 L14.8264117,20.0000092 C15.2291067,20.0000092 15.5555556,19.6802037 15.5555556,19.2857149 L15.5555556,4.95858542 C15.5555556,4.76924268 15.4782987,4.58775259 15.3411873,4.45430019 Z M10.6936242,0.574303796 L14.9678656,4.76144275 L10.9371582,4.76144275 C10.8032255,4.76144275 10.6944262,4.65550112 10.6936242,4.52430012 L10.6936242,0.574303796 Z M14.8264117,19.5242862 L0.729143889,19.5242862 C0.664554638,19.5242862 0.602610796,19.4991511 0.556939301,19.4544103 C0.511267806,19.4096695 0.485609836,19.348988 0.485609836,19.2857149 L0.485609836,0.714303666 C0.485609836,0.582875214 0.594981412,0.475732442 0.729143889,0.475732442 L10.2080143,0.475732442 L10.2080143,4.52430012 C10.2080143,4.91878886 10.5344632,5.23858516 10.9371582,5.23858516 L15.0684874,5.23858516 L15.0684874,19.2857149 C15.0684874,19.4169183 14.960342,19.5235005 14.8264117,19.5242862 L14.8264117,19.5242862 Z" id="形状" fill="#605E5C" opacity="0.64"></path>
            </g>
            <g id="编组-4备份" transform="translate(0.000000, 7.000000)">
                <path d="M19,0 C19.5522847,-1.01453063e-16 20,0.44771525 20,1 L20,7.88888889 C20,8.44117364 19.5522847,8.88888889 19,8.88888889 L1,8.88888889 C0.44771525,8.88888889 6.76353751e-17,8.44117364 0,7.88888889 L0,1 C-6.76353751e-17,0.44771525 0.44771525,1.01453063e-16 1,0 L19,0 Z M19.0444832,0.504211426 L1.03848839,0.504211426 C0.762346013,0.504211426 0.538488388,0.728069051 0.538488388,1.00421143 L0.538488388,7.94127083 C0.538488388,8.2174132 0.762346013,8.44127083 1.03848839,8.44127083 L19.0444832,8.44127083 C19.3206256,8.44127083 19.5444832,8.2174132 19.5444832,7.94127083 L19.5444832,1.00421143 C19.5444832,0.728069051 19.3206256,0.504211426 19.0444832,0.504211426 Z" id="形状结合" fill="#0563B2"></path>
                <path d="M1.03848839,0.504211426 L19.0444832,0.504211426 C19.3206256,0.504211426 19.5444832,0.728069051 19.5444832,1.00421143 L19.5444832,7.94127083 C19.5444832,8.2174132 19.3206256,8.44127083 19.0444832,8.44127083 L1.03848839,8.44127083 C0.762346013,8.44127083 0.538488388,8.2174132 0.538488388,7.94127083 L0.538488388,1.00421143 C0.538488388,0.728069051 0.762346013,0.504211426 1.03848839,0.504211426 Z" id="矩形备份-25" fill="#FFFFFF"></path>
            </g>
            <g id="pd" transform="translate(5.824000, 7.048000)" fill="#0563B2" fill-rule="nonzero">
                <path d="M2.358,1.773 C1.746,1.773 1.278,1.98 0.954,2.394 L0.954,1.899 L0,1.899 L0,8.334 L1.026,8.334 L1.026,5.913 C1.404,6.417 1.872,6.678 2.412,6.678 C3.078,6.678 3.609,6.435 3.987,5.949 C4.338,5.499 4.518,4.932 4.518,4.248 C4.518,3.528 4.338,2.952 3.978,2.502 C3.582,2.016 3.042,1.773 2.358,1.773 Z M2.205,2.601 C2.655,2.601 2.988,2.763 3.204,3.087 C3.375,3.357 3.465,3.744 3.465,4.248 C3.465,4.752 3.366,5.139 3.177,5.409 C2.961,5.697 2.619,5.85 2.169,5.85 C1.836,5.85 1.566,5.715 1.35,5.445 C1.107,5.148 0.99,4.752 0.99,4.266 L0.99,4.194 C0.99,3.726 1.08,3.357 1.278,3.078 C1.494,2.754 1.8,2.601 2.205,2.601 Z" id="形状"></path>
                <path d="M8.67,0 L8.67,2.538 C8.283,2.025 7.824,1.773 7.284,1.773 C6.618,1.773 6.087,2.016 5.709,2.502 C5.349,2.952 5.178,3.519 5.178,4.203 C5.178,4.914 5.358,5.499 5.718,5.949 C6.105,6.435 6.645,6.678 7.338,6.678 C7.95,6.678 8.418,6.471 8.742,6.057 L8.742,6.552 L9.696,6.552 L9.696,0 L8.67,0 Z M7.527,2.601 C7.851,2.601 8.13,2.736 8.346,3.006 C8.58,3.294 8.706,3.69 8.706,4.185 L8.706,4.257 C8.706,4.707 8.607,5.085 8.418,5.373 C8.202,5.688 7.887,5.85 7.491,5.85 C7.032,5.85 6.699,5.688 6.492,5.364 C6.312,5.094 6.231,4.707 6.231,4.203 C6.231,3.699 6.321,3.321 6.51,3.06 C6.726,2.754 7.059,2.601 7.527,2.601 Z" id="形状"></path>
            </g>
        </g>
    </g>
</svg>