<?xml version="1.0" encoding="UTF-8"?>
<svg width="20px" height="20px" viewBox="0 0 20 20" version="1.1" xmlns="http://www.w3.org/2000/svg" xmlns:xlink="http://www.w3.org/1999/xlink">
    <title>plmxml</title>
    <g id="文件图标" stroke="none" stroke-width="1" fill="none" fill-rule="evenodd">
        <g id="编组-3">
            <g id="编组" transform="translate(4.444444, 0.000000)" fill-rule="nonzero">
                <path d="M0.729143889,19.5242862 L14.8264117,19.5242862 C14.960342,19.5235005 15.0684874,19.4169183 15.0684874,19.2857149 L15.0684874,5.23858516 L10.9371582,5.23858516 C10.5344632,5.23858516 10.2080143,4.91878886 10.2080143,4.52430012 L10.2080143,0.475732442 L0.729143889,0.475732442 C0.664554638,0.475732442 0.602610796,0.500867553 0.556939301,0.545608337 C0.511267806,0.590349121 0.485609836,0.651030645 0.485609836,0.714303666 L0.485609836,19.2857149 C0.485609836,19.4171434 0.594981412,19.5242862 0.729143889,19.5242862 Z" id="路径" fill="#FFFFFF"></path>
                <path d="M14.9678656,4.76144275 L10.6950824,0.575732349 L10.6950824,4.52430012 C10.6950824,4.65572857 10.8029957,4.76144275 10.9371582,4.76144275 L14.9678656,4.76144275 L14.9678656,4.76144275 Z" id="路径" fill="#FFFFFF"></path>
                <path d="M15.3411873,4.45430019 L11.0100726,0.210018412 C10.8733184,0.0747249558 10.6867371,-0.000961027697 10.4923805,9.2146362e-06 L0.729143889,9.2146362e-06 C0.326448839,9.2146362e-06 0,0.319814921 0,0.714303666 L0,19.2857149 C0,19.6802037 0.326448839,20.0000092 0.729143889,20.0000092 L14.8264117,20.0000092 C15.2291067,20.0000092 15.5555556,19.6802037 15.5555556,19.2857149 L15.5555556,4.95858542 C15.5555556,4.76924268 15.4782987,4.58775259 15.3411873,4.45430019 Z M10.6936242,0.574303796 L14.9678656,4.76144275 L10.9371582,4.76144275 C10.8032255,4.76144275 10.6944262,4.65550112 10.6936242,4.52430012 L10.6936242,0.574303796 Z M14.8264117,19.5242862 L0.729143889,19.5242862 C0.664554638,19.5242862 0.602610796,19.4991511 0.556939301,19.4544103 C0.511267806,19.4096695 0.485609836,19.348988 0.485609836,19.2857149 L0.485609836,0.714303666 C0.485609836,0.582875214 0.594981412,0.475732442 0.729143889,0.475732442 L10.2080143,0.475732442 L10.2080143,4.52430012 C10.2080143,4.91878886 10.5344632,5.23858516 10.9371582,5.23858516 L15.0684874,5.23858516 L15.0684874,19.2857149 C15.0684874,19.4169183 14.960342,19.5235005 14.8264117,19.5242862 L14.8264117,19.5242862 Z" id="形状" fill="#605E5C" opacity="0.64"></path>
            </g>
            <rect id="矩形" fill="#0563B2" x="0" y="6.66666667" width="20" height="8.88888889" rx="1"></rect>
            <g id="plmxml" transform="translate(1.170000, 8.632000)" fill="#FFFFFF" fill-rule="nonzero">
                <path d="M1.572,1.182 C1.164,1.182 0.852,1.32 0.636,1.596 L0.636,1.266 L0,1.266 L0,5.556 L0.684,5.556 L0.684,3.942 C0.936,4.278 1.248,4.452 1.608,4.452 C2.052,4.452 2.406,4.29 2.658,3.966 C2.892,3.666 3.012,3.288 3.012,2.832 C3.012,2.352 2.892,1.968 2.652,1.668 C2.388,1.344 2.028,1.182 1.572,1.182 Z M1.47,1.734 C1.77,1.734 1.992,1.842 2.136,2.058 C2.25,2.238 2.31,2.496 2.31,2.832 C2.31,3.168 2.244,3.426 2.118,3.606 C1.974,3.798 1.746,3.9 1.446,3.9 C1.224,3.9 1.044,3.81 0.9,3.63 C0.738,3.432 0.66,3.168 0.66,2.844 L0.66,2.796 C0.66,2.484 0.72,2.238 0.852,2.052 C0.996,1.836 1.2,1.734 1.47,1.734 Z" id="形状"></path>
                <polygon id="路径" points="3.372 0 3.372 4.368 4.056 4.368 4.056 0"></polygon>
                <path d="M6.06,1.182 C5.76,1.182 5.478,1.314 5.22,1.584 L5.22,1.266 L4.536,1.266 L4.536,4.368 L5.22,4.368 L5.22,2.508 C5.22,2.304 5.28,2.124 5.4,1.98 C5.52,1.824 5.676,1.752 5.874,1.752 C6.282,1.752 6.486,1.986 6.486,2.46 L6.486,4.368 L7.17,4.368 L7.17,2.472 C7.17,2.244 7.224,2.07 7.344,1.944 C7.458,1.812 7.596,1.752 7.764,1.752 C8.004,1.752 8.172,1.806 8.28,1.92 C8.382,2.028 8.436,2.208 8.436,2.454 L8.436,4.368 L9.12,4.368 L9.12,2.334 C9.12,1.992 9.012,1.716 8.808,1.5 C8.592,1.284 8.328,1.182 8.01,1.182 C7.8,1.182 7.626,1.218 7.488,1.29 C7.332,1.362 7.182,1.494 7.038,1.686 C6.84,1.35 6.516,1.182 6.06,1.182 Z" id="路径"></path>
                <polygon id="路径" points="9.348 1.266 10.416 2.718 9.21 4.368 10.014 4.368 10.794 3.222 11.568 4.368 12.372 4.368 11.166 2.718 12.234 1.266 11.436 1.266 10.794 2.214 10.146 1.266"></polygon>
                <path d="M13.986,1.182 C13.686,1.182 13.404,1.314 13.146,1.584 L13.146,1.266 L12.462,1.266 L12.462,4.368 L13.146,4.368 L13.146,2.508 C13.146,2.304 13.206,2.124 13.326,1.98 C13.446,1.824 13.602,1.752 13.8,1.752 C14.208,1.752 14.412,1.986 14.412,2.46 L14.412,4.368 L15.096,4.368 L15.096,2.472 C15.096,2.244 15.15,2.07 15.27,1.944 C15.384,1.812 15.522,1.752 15.69,1.752 C15.93,1.752 16.098,1.806 16.206,1.92 C16.308,2.028 16.362,2.208 16.362,2.454 L16.362,4.368 L17.046,4.368 L17.046,2.334 C17.046,1.992 16.938,1.716 16.734,1.5 C16.518,1.284 16.254,1.182 15.936,1.182 C15.726,1.182 15.552,1.218 15.414,1.29 C15.258,1.362 15.108,1.494 14.964,1.686 C14.766,1.35 14.442,1.182 13.986,1.182 Z" id="路径"></path>
                <polygon id="路径" points="17.526 0 17.526 4.368 18.21 4.368 18.21 0"></polygon>
            </g>
        </g>
    </g>
</svg>