<?xml version="1.0" encoding="UTF-8"?>
<svg width="20px" height="20px" viewBox="0 0 20 20" version="1.1" xmlns="http://www.w3.org/2000/svg" xmlns:xlink="http://www.w3.org/1999/xlink">
    <title>png</title>
    <g id="文件图标" stroke="none" stroke-width="1" fill="none" fill-rule="evenodd">
        <g id="编组-3">
            <g id="编组" transform="translate(4.444444, 0.000000)" fill-rule="nonzero">
                <path d="M0.729143889,19.5242862 L14.8264117,19.5242862 C14.960342,19.5235005 15.0684874,19.4169183 15.0684874,19.2857149 L15.0684874,5.23858516 L10.9371582,5.23858516 C10.5344632,5.23858516 10.2080143,4.91878886 10.2080143,4.52430012 L10.2080143,0.475732442 L0.729143889,0.475732442 C0.664554638,0.475732442 0.602610796,0.500867553 0.556939301,0.545608337 C0.511267806,0.590349121 0.485609836,0.651030645 0.485609836,0.714303666 L0.485609836,19.2857149 C0.485609836,19.4171434 0.594981412,19.5242862 0.729143889,19.5242862 Z" id="路径" fill="#FFFFFF"></path>
                <path d="M14.9678656,4.76144275 L10.6950824,0.575732349 L10.6950824,4.52430012 C10.6950824,4.65572857 10.8029957,4.76144275 10.9371582,4.76144275 L14.9678656,4.76144275 L14.9678656,4.76144275 Z" id="路径" fill="#FFFFFF"></path>
                <path d="M15.3411873,4.45430019 L11.0100726,0.210018412 C10.8733184,0.0747249558 10.6867371,-0.000961027697 10.4923805,9.2146362e-06 L0.729143889,9.2146362e-06 C0.326448839,9.2146362e-06 0,0.319814921 0,0.714303666 L0,19.2857149 C0,19.6802037 0.326448839,20.0000092 0.729143889,20.0000092 L14.8264117,20.0000092 C15.2291067,20.0000092 15.5555556,19.6802037 15.5555556,19.2857149 L15.5555556,4.95858542 C15.5555556,4.76924268 15.4782987,4.58775259 15.3411873,4.45430019 Z M10.6936242,0.574303796 L14.9678656,4.76144275 L10.9371582,4.76144275 C10.8032255,4.76144275 10.6944262,4.65550112 10.6936242,4.52430012 L10.6936242,0.574303796 Z M14.8264117,19.5242862 L0.729143889,19.5242862 C0.664554638,19.5242862 0.602610796,19.4991511 0.556939301,19.4544103 C0.511267806,19.4096695 0.485609836,19.348988 0.485609836,19.2857149 L0.485609836,0.714303666 C0.485609836,0.582875214 0.594981412,0.475732442 0.729143889,0.475732442 L10.2080143,0.475732442 L10.2080143,4.52430012 C10.2080143,4.91878886 10.5344632,5.23858516 10.9371582,5.23858516 L15.0684874,5.23858516 L15.0684874,19.2857149 C15.0684874,19.4169183 14.960342,19.5235005 14.8264117,19.5242862 L14.8264117,19.5242862 Z" id="形状" fill="#605E5C" opacity="0.64"></path>
            </g>
            <rect id="矩形" fill="#0563B2" x="0" y="6.66666667" width="20" height="8.88888889" rx="1"></rect>
            <g id="png" transform="translate(2.655000, 9.221000)" fill="#FFFFFF" fill-rule="nonzero">
                <path d="M2.358,0 C1.746,0 1.278,0.207 0.954,0.621 L0.954,0.126 L0,0.126 L0,6.561 L1.026,6.561 L1.026,4.14 C1.404,4.644 1.872,4.905 2.412,4.905 C3.078,4.905 3.609,4.662 3.987,4.176 C4.338,3.726 4.518,3.159 4.518,2.475 C4.518,1.755 4.338,1.179 3.978,0.729 C3.582,0.243 3.042,0 2.358,0 Z M2.205,0.828 C2.655,0.828 2.988,0.99 3.204,1.314 C3.375,1.584 3.465,1.971 3.465,2.475 C3.465,2.979 3.366,3.366 3.177,3.636 C2.961,3.924 2.619,4.077 2.169,4.077 C1.836,4.077 1.566,3.942 1.35,3.672 C1.107,3.375 0.99,2.979 0.99,2.493 L0.99,2.421 C0.99,1.953 1.08,1.584 1.278,1.305 C1.494,0.981 1.8,0.828 2.205,0.828 Z" id="形状"></path>
                <path d="M7.761,0 C7.482,0 7.23,0.054 6.996,0.171 C6.771,0.279 6.564,0.45 6.384,0.666 L6.384,0.126 L5.358,0.126 L5.358,4.779 L6.384,4.779 L6.384,1.98 C6.42,1.611 6.546,1.323 6.762,1.125 C6.951,0.945 7.176,0.855 7.428,0.855 C8.13,0.855 8.481,1.233 8.481,1.998 L8.481,4.779 L9.507,4.779 L9.507,1.908 C9.507,0.63 8.922,0 7.761,0 Z" id="路径"></path>
                <path d="M12.462,0 C11.832,0 11.319,0.216 10.932,0.648 C10.536,1.08 10.347,1.647 10.347,2.349 C10.347,3.051 10.536,3.618 10.932,4.041 C11.319,4.455 11.832,4.671 12.462,4.671 C13.038,4.671 13.497,4.428 13.839,3.951 L13.839,4.635 C13.839,5.463 13.452,5.877 12.678,5.877 C12.318,5.877 12.057,5.823 11.895,5.724 C11.724,5.616 11.616,5.436 11.562,5.175 L10.536,5.175 C10.626,5.697 10.842,6.075 11.184,6.327 C11.526,6.561 12.021,6.687 12.678,6.687 C14.136,6.687 14.865,5.949 14.865,4.482 L14.865,0.126 L13.839,0.126 L13.839,0.693 C13.497,0.225 13.038,0 12.462,0 Z M12.624,0.828 C13.011,0.828 13.317,0.963 13.533,1.233 C13.74,1.503 13.848,1.872 13.848,2.349 C13.848,2.817 13.74,3.177 13.533,3.447 C13.317,3.699 13.011,3.834 12.615,3.834 C12.165,3.834 11.85,3.681 11.652,3.384 C11.481,3.132 11.4,2.79 11.4,2.349 C11.4,1.863 11.508,1.494 11.724,1.233 C11.94,0.963 12.237,0.828 12.624,0.828 Z" id="形状"></path>
            </g>
        </g>
    </g>
</svg>