<?xml version="1.0" encoding="UTF-8"?>
<svg width="20px" height="20px" viewBox="0 0 20 20" version="1.1" xmlns="http://www.w3.org/2000/svg" xmlns:xlink="http://www.w3.org/1999/xlink">
    <title>pot</title>
    <g id="文件图标" stroke="none" stroke-width="1" fill="none" fill-rule="evenodd">
        <g id="编组-3">
            <g id="编组" transform="translate(4.444444, 0.000000)" fill-rule="nonzero">
                <path d="M0.729143889,19.5242862 L14.8264117,19.5242862 C14.960342,19.5235005 15.0684874,19.4169183 15.0684874,19.2857149 L15.0684874,5.23858516 L10.9371582,5.23858516 C10.5344632,5.23858516 10.2080143,4.91878886 10.2080143,4.52430012 L10.2080143,0.475732442 L0.729143889,0.475732442 C0.664554638,0.475732442 0.602610796,0.500867553 0.556939301,0.545608337 C0.511267806,0.590349121 0.485609836,0.651030645 0.485609836,0.714303666 L0.485609836,19.2857149 C0.485609836,19.4171434 0.594981412,19.5242862 0.729143889,19.5242862 Z" id="路径" fill="#FFFFFF"></path>
                <path d="M14.9678656,4.76144275 L10.6950824,0.575732349 L10.6950824,4.52430012 C10.6950824,4.65572857 10.8029957,4.76144275 10.9371582,4.76144275 L14.9678656,4.76144275 L14.9678656,4.76144275 Z" id="路径" fill="#FFFFFF"></path>
                <path d="M15.3411873,4.45430019 L11.0100726,0.210018412 C10.8733184,0.0747249558 10.6867371,-0.000961027697 10.4923805,9.2146362e-06 L0.729143889,9.2146362e-06 C0.326448839,9.2146362e-06 0,0.319814921 0,0.714303666 L0,19.2857149 C0,19.6802037 0.326448839,20.0000092 0.729143889,20.0000092 L14.8264117,20.0000092 C15.2291067,20.0000092 15.5555556,19.6802037 15.5555556,19.2857149 L15.5555556,4.95858542 C15.5555556,4.76924268 15.4782987,4.58775259 15.3411873,4.45430019 Z M10.6936242,0.574303796 L14.9678656,4.76144275 L10.9371582,4.76144275 C10.8032255,4.76144275 10.6944262,4.65550112 10.6936242,4.52430012 L10.6936242,0.574303796 Z M14.8264117,19.5242862 L0.729143889,19.5242862 C0.664554638,19.5242862 0.602610796,19.4991511 0.556939301,19.4544103 C0.511267806,19.4096695 0.485609836,19.348988 0.485609836,19.2857149 L0.485609836,0.714303666 C0.485609836,0.582875214 0.594981412,0.475732442 0.729143889,0.475732442 L10.2080143,0.475732442 L10.2080143,4.52430012 C10.2080143,4.91878886 10.5344632,5.23858516 10.9371582,5.23858516 L15.0684874,5.23858516 L15.0684874,19.2857149 C15.0684874,19.4169183 14.960342,19.5235005 14.8264117,19.5242862 L14.8264117,19.5242862 Z" id="形状" fill="#605E5C" opacity="0.64"></path>
            </g>
            <rect id="矩形" fill="#0563B2" x="0" y="6.66666667" width="20" height="8.88888889" rx="1"></rect>
            <g id="pot" transform="translate(3.644000, 7.844000)" fill="#FFFFFF" fill-rule="nonzero">
                <path d="M2.358,1.377 C1.746,1.377 1.278,1.584 0.954,1.998 L0.954,1.503 L0,1.503 L0,7.938 L1.026,7.938 L1.026,5.517 C1.404,6.021 1.872,6.282 2.412,6.282 C3.078,6.282 3.609,6.039 3.987,5.553 C4.338,5.103 4.518,4.536 4.518,3.852 C4.518,3.132 4.338,2.556 3.978,2.106 C3.582,1.62 3.042,1.377 2.358,1.377 Z M2.205,2.205 C2.655,2.205 2.988,2.367 3.204,2.691 C3.375,2.961 3.465,3.348 3.465,3.852 C3.465,4.356 3.366,4.743 3.177,5.013 C2.961,5.301 2.619,5.454 2.169,5.454 C1.836,5.454 1.566,5.319 1.35,5.049 C1.107,4.752 0.99,4.356 0.99,3.87 L0.99,3.798 C0.99,3.33 1.08,2.961 1.278,2.682 C1.494,2.358 1.8,2.205 2.205,2.205 Z" id="形状"></path>
                <path d="M7.518,1.377 C6.807,1.377 6.24,1.602 5.817,2.07 C5.385,2.529 5.178,3.114 5.178,3.834 C5.178,4.545 5.385,5.13 5.808,5.58 C6.24,6.048 6.807,6.282 7.518,6.282 C8.22,6.282 8.796,6.048 9.228,5.58 C9.642,5.13 9.858,4.545 9.858,3.834 C9.858,3.114 9.642,2.529 9.219,2.07 C8.787,1.602 8.22,1.377 7.518,1.377 Z M7.518,2.214 C7.941,2.214 8.274,2.376 8.508,2.718 C8.706,3.006 8.814,3.384 8.814,3.834 C8.814,4.275 8.706,4.644 8.508,4.941 C8.274,5.274 7.941,5.445 7.518,5.445 C7.086,5.445 6.762,5.274 6.528,4.941 C6.33,4.653 6.231,4.284 6.231,3.834 C6.231,3.384 6.33,3.006 6.528,2.718 C6.762,2.376 7.086,2.214 7.518,2.214 Z" id="形状"></path>
                <path d="M12.156,0 L11.13,0.423 L11.13,1.503 L10.293,1.503 L10.293,2.349 L11.13,2.349 L11.13,4.977 C11.13,5.355 11.22,5.634 11.4,5.832 C11.589,6.048 11.886,6.156 12.291,6.156 L13.074,6.156 L13.074,5.31 L12.462,5.31 C12.354,5.31 12.282,5.283 12.228,5.229 C12.174,5.166 12.156,5.085 12.156,4.977 L12.156,2.349 L13.191,2.349 L13.191,1.503 L12.156,1.503 L12.156,0 Z" id="路径"></path>
            </g>
        </g>
    </g>
</svg>