<?xml version="1.0" encoding="UTF-8"?>
<svg width="20px" height="20px" viewBox="0 0 20 20" version="1.1" xmlns="http://www.w3.org/2000/svg" xmlns:xlink="http://www.w3.org/1999/xlink">
    <title>potm2</title>
    <g id="文件图标" stroke="none" stroke-width="1" fill="none" fill-rule="evenodd">
        <g id="编组-3">
            <g id="编组" transform="translate(4.444444, 0.000000)" fill-rule="nonzero">
                <path d="M0.729143889,19.5242862 L14.8264117,19.5242862 C14.960342,19.5235005 15.0684874,19.4169183 15.0684874,19.2857149 L15.0684874,5.23858516 L10.9371582,5.23858516 C10.5344632,5.23858516 10.2080143,4.91878886 10.2080143,4.52430012 L10.2080143,0.475732442 L0.729143889,0.475732442 C0.664554638,0.475732442 0.602610796,0.500867553 0.556939301,0.545608337 C0.511267806,0.590349121 0.485609836,0.651030645 0.485609836,0.714303666 L0.485609836,19.2857149 C0.485609836,19.4171434 0.594981412,19.5242862 0.729143889,19.5242862 Z" id="路径" fill="#FFFFFF"></path>
                <path d="M14.9678656,4.76144275 L10.6950824,0.575732349 L10.6950824,4.52430012 C10.6950824,4.65572857 10.8029957,4.76144275 10.9371582,4.76144275 L14.9678656,4.76144275 L14.9678656,4.76144275 Z" id="路径" fill="#FFFFFF"></path>
                <path d="M15.3411873,4.45430019 L11.0100726,0.210018412 C10.8733184,0.0747249558 10.6867371,-0.000961027697 10.4923805,9.2146362e-06 L0.729143889,9.2146362e-06 C0.326448839,9.2146362e-06 0,0.319814921 0,0.714303666 L0,19.2857149 C0,19.6802037 0.326448839,20.0000092 0.729143889,20.0000092 L14.8264117,20.0000092 C15.2291067,20.0000092 15.5555556,19.6802037 15.5555556,19.2857149 L15.5555556,4.95858542 C15.5555556,4.76924268 15.4782987,4.58775259 15.3411873,4.45430019 Z M10.6936242,0.574303796 L14.9678656,4.76144275 L10.9371582,4.76144275 C10.8032255,4.76144275 10.6944262,4.65550112 10.6936242,4.52430012 L10.6936242,0.574303796 Z M14.8264117,19.5242862 L0.729143889,19.5242862 C0.664554638,19.5242862 0.602610796,19.4991511 0.556939301,19.4544103 C0.511267806,19.4096695 0.485609836,19.348988 0.485609836,19.2857149 L0.485609836,0.714303666 C0.485609836,0.582875214 0.594981412,0.475732442 0.729143889,0.475732442 L10.2080143,0.475732442 L10.2080143,4.52430012 C10.2080143,4.91878886 10.5344632,5.23858516 10.9371582,5.23858516 L15.0684874,5.23858516 L15.0684874,19.2857149 C15.0684874,19.4169183 14.960342,19.5235005 14.8264117,19.5242862 L14.8264117,19.5242862 Z" id="形状" fill="#605E5C" opacity="0.64"></path>
            </g>
            <g id="编组-4备份" transform="translate(0.000000, 7.000000)">
                <path d="M19,0 C19.5522847,-1.01453063e-16 20,0.44771525 20,1 L20,7.88888889 C20,8.44117364 19.5522847,8.88888889 19,8.88888889 L1,8.88888889 C0.44771525,8.88888889 6.76353751e-17,8.44117364 0,7.88888889 L0,1 C-6.76353751e-17,0.44771525 0.44771525,1.01453063e-16 1,0 L19,0 Z M19.0444832,0.504211426 L1.03848839,0.504211426 C0.762346013,0.504211426 0.538488388,0.728069051 0.538488388,1.00421143 L0.538488388,7.94127083 C0.538488388,8.2174132 0.762346013,8.44127083 1.03848839,8.44127083 L19.0444832,8.44127083 C19.3206256,8.44127083 19.5444832,8.2174132 19.5444832,7.94127083 L19.5444832,1.00421143 C19.5444832,0.728069051 19.3206256,0.504211426 19.0444832,0.504211426 Z" id="形状结合" fill="#0563B2"></path>
                <path d="M1.03848839,0.504211426 L19.0444832,0.504211426 C19.3206256,0.504211426 19.5444832,0.728069051 19.5444832,1.00421143 L19.5444832,7.94127083 C19.5444832,8.2174132 19.3206256,8.44127083 19.0444832,8.44127083 L1.03848839,8.44127083 C0.762346013,8.44127083 0.538488388,8.2174132 0.538488388,7.94127083 L0.538488388,1.00421143 C0.538488388,0.728069051 0.762346013,0.504211426 1.03848839,0.504211426 Z" id="矩形备份-25" fill="#FFFFFF"></path>
            </g>
            <g id="potm" transform="translate(1.109333, 7.528000)" fill="#0563B2" fill-rule="nonzero">
                <path d="M2.096,1.224 C1.552,1.224 1.136,1.408 0.848,1.776 L0.848,1.336 L0,1.336 L0,7.056 L0.912,7.056 L0.912,4.904 C1.248,5.352 1.664,5.584 2.144,5.584 C2.736,5.584 3.208,5.368 3.544,4.936 C3.856,4.536 4.016,4.032 4.016,3.424 C4.016,2.784 3.856,2.272 3.536,1.872 C3.184,1.44 2.704,1.224 2.096,1.224 Z M1.96,1.96 C2.36,1.96 2.656,2.104 2.848,2.392 C3,2.632 3.08,2.976 3.08,3.424 C3.08,3.872 2.992,4.216 2.824,4.456 C2.632,4.712 2.328,4.848 1.928,4.848 C1.632,4.848 1.392,4.728 1.2,4.488 C0.984,4.224 0.88,3.872 0.88,3.44 L0.88,3.376 C0.88,2.96 0.96,2.632 1.136,2.384 C1.328,2.096 1.6,1.96 1.96,1.96 Z" id="形状"></path>
                <path d="M6.68266667,1.224 C6.05066667,1.224 5.54666667,1.424 5.17066667,1.84 C4.78666667,2.248 4.60266667,2.768 4.60266667,3.408 C4.60266667,4.04 4.78666667,4.56 5.16266667,4.96 C5.54666667,5.376 6.05066667,5.584 6.68266667,5.584 C7.30666667,5.584 7.81866667,5.376 8.20266667,4.96 C8.57066667,4.56 8.76266667,4.04 8.76266667,3.408 C8.76266667,2.768 8.57066667,2.248 8.19466667,1.84 C7.81066667,1.424 7.30666667,1.224 6.68266667,1.224 Z M6.68266667,1.968 C7.05866667,1.968 7.35466667,2.112 7.56266667,2.416 C7.73866667,2.672 7.83466667,3.008 7.83466667,3.408 C7.83466667,3.8 7.73866667,4.128 7.56266667,4.392 C7.35466667,4.688 7.05866667,4.84 6.68266667,4.84 C6.29866667,4.84 6.01066667,4.688 5.80266667,4.392 C5.62666667,4.136 5.53866667,3.808 5.53866667,3.408 C5.53866667,3.008 5.62666667,2.672 5.80266667,2.416 C6.01066667,2.112 6.29866667,1.968 6.68266667,1.968 Z" id="形状"></path>
                <path d="M10.8053333,0 L9.89333333,0.376 L9.89333333,1.336 L9.14933333,1.336 L9.14933333,2.088 L9.89333333,2.088 L9.89333333,4.424 C9.89333333,4.76 9.97333333,5.008 10.1333333,5.184 C10.3013333,5.376 10.5653333,5.472 10.9253333,5.472 L11.6213333,5.472 L11.6213333,4.72 L11.0773333,4.72 C10.9813333,4.72 10.9173333,4.696 10.8693333,4.648 C10.8213333,4.592 10.8053333,4.52 10.8053333,4.424 L10.8053333,2.088 L11.7253333,2.088 L11.7253333,1.336 L10.8053333,1.336 L10.8053333,0 Z" id="路径"></path>
                <path d="M14.384,1.224 C13.984,1.224 13.608,1.4 13.264,1.76 L13.264,1.336 L12.352,1.336 L12.352,5.472 L13.264,5.472 L13.264,2.992 C13.264,2.72 13.344,2.48 13.504,2.288 C13.664,2.08 13.872,1.984 14.136,1.984 C14.68,1.984 14.952,2.296 14.952,2.928 L14.952,5.472 L15.864,5.472 L15.864,2.944 C15.864,2.64 15.936,2.408 16.096,2.24 C16.248,2.064 16.432,1.984 16.656,1.984 C16.976,1.984 17.2,2.056 17.344,2.208 C17.48,2.352 17.552,2.592 17.552,2.92 L17.552,5.472 L18.464,5.472 L18.464,2.76 C18.464,2.304 18.32,1.936 18.048,1.648 C17.76,1.36 17.408,1.224 16.984,1.224 C16.704,1.224 16.472,1.272 16.288,1.368 C16.08,1.464 15.88,1.64 15.688,1.896 C15.424,1.448 14.992,1.224 14.384,1.224 Z" id="路径"></path>
            </g>
        </g>
    </g>
</svg>