<?xml version="1.0" encoding="UTF-8"?>
<svg width="20px" height="20px" viewBox="0 0 20 20" version="1.1" xmlns="http://www.w3.org/2000/svg" xmlns:xlink="http://www.w3.org/1999/xlink">
    <title>pps</title>
    <g id="文件图标" stroke="none" stroke-width="1" fill="none" fill-rule="evenodd">
        <g id="编组-3">
            <g id="编组" transform="translate(4.444444, 0.000000)" fill-rule="nonzero">
                <path d="M0.729143889,19.5242862 L14.8264117,19.5242862 C14.960342,19.5235005 15.0684874,19.4169183 15.0684874,19.2857149 L15.0684874,5.23858516 L10.9371582,5.23858516 C10.5344632,5.23858516 10.2080143,4.91878886 10.2080143,4.52430012 L10.2080143,0.475732442 L0.729143889,0.475732442 C0.664554638,0.475732442 0.602610796,0.500867553 0.556939301,0.545608337 C0.511267806,0.590349121 0.485609836,0.651030645 0.485609836,0.714303666 L0.485609836,19.2857149 C0.485609836,19.4171434 0.594981412,19.5242862 0.729143889,19.5242862 Z" id="路径" fill="#FFFFFF"></path>
                <path d="M14.9678656,4.76144275 L10.6950824,0.575732349 L10.6950824,4.52430012 C10.6950824,4.65572857 10.8029957,4.76144275 10.9371582,4.76144275 L14.9678656,4.76144275 L14.9678656,4.76144275 Z" id="路径" fill="#FFFFFF"></path>
                <path d="M15.3411873,4.45430019 L11.0100726,0.210018412 C10.8733184,0.0747249558 10.6867371,-0.000961027697 10.4923805,9.2146362e-06 L0.729143889,9.2146362e-06 C0.326448839,9.2146362e-06 0,0.319814921 0,0.714303666 L0,19.2857149 C0,19.6802037 0.326448839,20.0000092 0.729143889,20.0000092 L14.8264117,20.0000092 C15.2291067,20.0000092 15.5555556,19.6802037 15.5555556,19.2857149 L15.5555556,4.95858542 C15.5555556,4.76924268 15.4782987,4.58775259 15.3411873,4.45430019 Z M10.6936242,0.574303796 L14.9678656,4.76144275 L10.9371582,4.76144275 C10.8032255,4.76144275 10.6944262,4.65550112 10.6936242,4.52430012 L10.6936242,0.574303796 Z M14.8264117,19.5242862 L0.729143889,19.5242862 C0.664554638,19.5242862 0.602610796,19.4991511 0.556939301,19.4544103 C0.511267806,19.4096695 0.485609836,19.348988 0.485609836,19.2857149 L0.485609836,0.714303666 C0.485609836,0.582875214 0.594981412,0.475732442 0.729143889,0.475732442 L10.2080143,0.475732442 L10.2080143,4.52430012 C10.2080143,4.91878886 10.5344632,5.23858516 10.9371582,5.23858516 L15.0684874,5.23858516 L15.0684874,19.2857149 C15.0684874,19.4169183 14.960342,19.5235005 14.8264117,19.5242862 L14.8264117,19.5242862 Z" id="形状" fill="#605E5C" opacity="0.64"></path>
            </g>
            <rect id="矩形" fill="#0563B2" x="0" y="6.66666667" width="20" height="8.88888889" rx="1"></rect>
            <g id="pps" transform="translate(3.159000, 8.221000)" fill="#FFFFFF" fill-rule="nonzero">
                <path d="M2.358,0 C1.746,0 1.278,0.207 0.954,0.621 L0.954,0.126 L0,0.126 L0,6.561 L1.026,6.561 L1.026,4.14 C1.404,4.644 1.872,4.905 2.412,4.905 C3.078,4.905 3.609,4.662 3.987,4.176 C4.338,3.726 4.518,3.159 4.518,2.475 C4.518,1.755 4.338,1.179 3.978,0.729 C3.582,0.243 3.042,0 2.358,0 Z M2.205,0.828 C2.655,0.828 2.988,0.99 3.204,1.314 C3.375,1.584 3.465,1.971 3.465,2.475 C3.465,2.979 3.366,3.366 3.177,3.636 C2.961,3.924 2.619,4.077 2.169,4.077 C1.836,4.077 1.566,3.942 1.35,3.672 C1.107,3.375 0.99,2.979 0.99,2.493 L0.99,2.421 C0.99,1.953 1.08,1.584 1.278,1.305 C1.494,0.981 1.8,0.828 2.205,0.828 Z" id="形状"></path>
                <path d="M7.716,0 C7.104,0 6.636,0.207 6.312,0.621 L6.312,0.126 L5.358,0.126 L5.358,6.561 L6.384,6.561 L6.384,4.14 C6.762,4.644 7.23,4.905 7.77,4.905 C8.436,4.905 8.967,4.662 9.345,4.176 C9.696,3.726 9.876,3.159 9.876,2.475 C9.876,1.755 9.696,1.179 9.336,0.729 C8.94,0.243 8.4,0 7.716,0 Z M7.563,0.828 C8.013,0.828 8.346,0.99 8.562,1.314 C8.733,1.584 8.823,1.971 8.823,2.475 C8.823,2.979 8.724,3.366 8.535,3.636 C8.319,3.924 7.977,4.077 7.527,4.077 C7.194,4.077 6.924,3.942 6.708,3.672 C6.465,3.375 6.348,2.979 6.348,2.493 L6.348,2.421 C6.348,1.953 6.438,1.584 6.636,1.305 C6.852,0.981 7.158,0.828 7.563,0.828 Z" id="形状"></path>
                <path d="M12.471,0 C11.895,0 11.436,0.117 11.085,0.369 C10.725,0.603 10.554,0.936 10.554,1.368 C10.554,1.773 10.734,2.088 11.094,2.313 C11.319,2.457 11.706,2.592 12.255,2.718 C12.723,2.826 13.029,2.907 13.173,2.979 C13.443,3.105 13.578,3.276 13.578,3.492 C13.578,3.87 13.218,4.068 12.498,4.068 C12.156,4.068 11.913,4.005 11.76,3.897 C11.607,3.771 11.499,3.564 11.445,3.267 L10.446,3.267 C10.545,4.356 11.238,4.905 12.534,4.905 C13.929,4.905 14.631,4.41 14.631,3.42 C14.631,3.006 14.442,2.673 14.073,2.439 C13.821,2.268 13.425,2.124 12.903,1.998 C12.435,1.881 12.129,1.791 11.976,1.728 C11.724,1.62 11.607,1.485 11.607,1.341 C11.607,1.161 11.679,1.035 11.841,0.954 C11.976,0.873 12.183,0.837 12.453,0.837 C12.768,0.837 13.002,0.882 13.155,0.981 C13.299,1.071 13.407,1.242 13.479,1.476 L14.478,1.476 C14.37,0.486 13.695,0 12.471,0 Z" id="路径"></path>
            </g>
        </g>
    </g>
</svg>