<?xml version="1.0" encoding="UTF-8"?>
<svg width="20px" height="20px" viewBox="0 0 20 20" version="1.1" xmlns="http://www.w3.org/2000/svg" xmlns:xlink="http://www.w3.org/1999/xlink">
    <title>ppsm2</title>
    <g id="文件图标" stroke="none" stroke-width="1" fill="none" fill-rule="evenodd">
        <g id="编组-3">
            <g id="编组" transform="translate(4.444444, 0.000000)" fill-rule="nonzero">
                <path d="M0.729143889,19.5242862 L14.8264117,19.5242862 C14.960342,19.5235005 15.0684874,19.4169183 15.0684874,19.2857149 L15.0684874,5.23858516 L10.9371582,5.23858516 C10.5344632,5.23858516 10.2080143,4.91878886 10.2080143,4.52430012 L10.2080143,0.475732442 L0.729143889,0.475732442 C0.664554638,0.475732442 0.602610796,0.500867553 0.556939301,0.545608337 C0.511267806,0.590349121 0.485609836,0.651030645 0.485609836,0.714303666 L0.485609836,19.2857149 C0.485609836,19.4171434 0.594981412,19.5242862 0.729143889,19.5242862 Z" id="路径" fill="#FFFFFF"></path>
                <path d="M14.9678656,4.76144275 L10.6950824,0.575732349 L10.6950824,4.52430012 C10.6950824,4.65572857 10.8029957,4.76144275 10.9371582,4.76144275 L14.9678656,4.76144275 L14.9678656,4.76144275 Z" id="路径" fill="#FFFFFF"></path>
                <path d="M15.3411873,4.45430019 L11.0100726,0.210018412 C10.8733184,0.0747249558 10.6867371,-0.000961027697 10.4923805,9.2146362e-06 L0.729143889,9.2146362e-06 C0.326448839,9.2146362e-06 0,0.319814921 0,0.714303666 L0,19.2857149 C0,19.6802037 0.326448839,20.0000092 0.729143889,20.0000092 L14.8264117,20.0000092 C15.2291067,20.0000092 15.5555556,19.6802037 15.5555556,19.2857149 L15.5555556,4.95858542 C15.5555556,4.76924268 15.4782987,4.58775259 15.3411873,4.45430019 Z M10.6936242,0.574303796 L14.9678656,4.76144275 L10.9371582,4.76144275 C10.8032255,4.76144275 10.6944262,4.65550112 10.6936242,4.52430012 L10.6936242,0.574303796 Z M14.8264117,19.5242862 L0.729143889,19.5242862 C0.664554638,19.5242862 0.602610796,19.4991511 0.556939301,19.4544103 C0.511267806,19.4096695 0.485609836,19.348988 0.485609836,19.2857149 L0.485609836,0.714303666 C0.485609836,0.582875214 0.594981412,0.475732442 0.729143889,0.475732442 L10.2080143,0.475732442 L10.2080143,4.52430012 C10.2080143,4.91878886 10.5344632,5.23858516 10.9371582,5.23858516 L15.0684874,5.23858516 L15.0684874,19.2857149 C15.0684874,19.4169183 14.960342,19.5235005 14.8264117,19.5242862 L14.8264117,19.5242862 Z" id="形状" fill="#605E5C" opacity="0.64"></path>
            </g>
            <g id="编组-4备份" transform="translate(0.000000, 7.000000)">
                <path d="M19,0 C19.5522847,-1.01453063e-16 20,0.44771525 20,1 L20,7.88888889 C20,8.44117364 19.5522847,8.88888889 19,8.88888889 L1,8.88888889 C0.44771525,8.88888889 6.76353751e-17,8.44117364 0,7.88888889 L0,1 C-6.76353751e-17,0.44771525 0.44771525,1.01453063e-16 1,0 L19,0 Z M19.0444832,0.504211426 L1.03848839,0.504211426 C0.762346013,0.504211426 0.538488388,0.728069051 0.538488388,1.00421143 L0.538488388,7.94127083 C0.538488388,8.2174132 0.762346013,8.44127083 1.03848839,8.44127083 L19.0444832,8.44127083 C19.3206256,8.44127083 19.5444832,8.2174132 19.5444832,7.94127083 L19.5444832,1.00421143 C19.5444832,0.728069051 19.3206256,0.504211426 19.0444832,0.504211426 Z" id="形状结合" fill="#0563B2"></path>
                <path d="M1.03848839,0.504211426 L19.0444832,0.504211426 C19.3206256,0.504211426 19.5444832,0.728069051 19.5444832,1.00421143 L19.5444832,7.94127083 C19.5444832,8.2174132 19.3206256,8.44127083 19.0444832,8.44127083 L1.03848839,8.44127083 C0.762346013,8.44127083 0.538488388,8.2174132 0.538488388,7.94127083 L0.538488388,1.00421143 C0.538488388,0.728069051 0.762346013,0.504211426 1.03848839,0.504211426 Z" id="矩形备份-25" fill="#FFFFFF"></path>
            </g>
            <g id="ppsm" transform="translate(1.189332, 8.752000)" fill="#0563B2" fill-rule="nonzero">
                <path d="M2.096,0 C1.552,0 1.136,0.184 0.848,0.552 L0.848,0.112 L0,0.112 L0,5.832 L0.912,5.832 L0.912,3.68 C1.248,4.128 1.664,4.36 2.144,4.36 C2.736,4.36 3.208,4.144 3.544,3.712 C3.856,3.312 4.016,2.808 4.016,2.2 C4.016,1.56 3.856,1.048 3.536,0.648 C3.184,0.216 2.704,0 2.096,0 Z M1.96,0.736 C2.36,0.736 2.656,0.88 2.848,1.168 C3,1.408 3.08,1.752 3.08,2.2 C3.08,2.648 2.992,2.992 2.824,3.232 C2.632,3.488 2.328,3.624 1.928,3.624 C1.632,3.624 1.392,3.504 1.2,3.264 C0.984,3 0.88,2.648 0.88,2.216 L0.88,2.152 C0.88,1.736 0.96,1.408 1.136,1.16 C1.328,0.872 1.6,0.736 1.96,0.736 Z" id="形状"></path>
                <path d="M6.258667,0 C5.714667,0 5.298667,0.184 5.010667,0.552 L5.010667,0.112 L4.162667,0.112 L4.162667,5.832 L5.074667,5.832 L5.074667,3.68 C5.410667,4.128 5.826667,4.36 6.306667,4.36 C6.898667,4.36 7.370667,4.144 7.706667,3.712 C8.018667,3.312 8.178667,2.808 8.178667,2.2 C8.178667,1.56 8.018667,1.048 7.698667,0.648 C7.346667,0.216 6.866667,0 6.258667,0 Z M6.122667,0.736 C6.522667,0.736 6.818667,0.88 7.010667,1.168 C7.162667,1.408 7.242667,1.752 7.242667,2.2 C7.242667,2.648 7.154667,2.992 6.986667,3.232 C6.794667,3.488 6.490667,3.624 6.090667,3.624 C5.794667,3.624 5.554667,3.504 5.362667,3.264 C5.146667,3 5.042667,2.648 5.042667,2.216 L5.042667,2.152 C5.042667,1.736 5.122667,1.408 5.298667,1.16 C5.490667,0.872 5.762667,0.736 6.122667,0.736 Z" id="形状"></path>
                <path d="M9.885334,0 C9.373334,0 8.965334,0.104 8.653334,0.328 C8.333334,0.536 8.181334,0.832 8.181334,1.216 C8.181334,1.576 8.341334,1.856 8.661334,2.056 C8.861334,2.184 9.205334,2.304 9.693334,2.416 C10.109334,2.512 10.381334,2.584 10.509334,2.648 C10.749334,2.76 10.869334,2.912 10.869334,3.104 C10.869334,3.44 10.549334,3.616 9.909334,3.616 C9.605334,3.616 9.389334,3.56 9.253334,3.464 C9.117334,3.352 9.021334,3.168 8.973334,2.904 L8.085334,2.904 C8.173334,3.872 8.789334,4.36 9.941334,4.36 C11.181334,4.36 11.805334,3.92 11.805334,3.04 C11.805334,2.672 11.637334,2.376 11.309334,2.168 C11.085334,2.016 10.733334,1.888 10.269334,1.776 C9.853334,1.672 9.581334,1.592 9.445334,1.536 C9.221334,1.44 9.117334,1.32 9.117334,1.192 C9.117334,1.032 9.181334,0.92 9.325334,0.848 C9.445334,0.776 9.629334,0.744 9.869334,0.744 C10.149334,0.744 10.357334,0.784 10.493334,0.872 C10.621334,0.952 10.717334,1.104 10.781334,1.312 L11.669334,1.312 C11.573334,0.432 10.973334,0 9.885334,0 Z" id="路径"></path>
                <path d="M13.904001,0 C13.504001,0 13.128001,0.176 12.784001,0.536 L12.784001,0.112 L11.872001,0.112 L11.872001,4.248 L12.784001,4.248 L12.784001,1.768 C12.784001,1.496 12.864001,1.256 13.024001,1.064 C13.184001,0.856 13.392001,0.76 13.656001,0.76 C14.200001,0.76 14.472001,1.072 14.472001,1.704 L14.472001,4.248 L15.384001,4.248 L15.384001,1.72 C15.384001,1.416 15.456001,1.184 15.616001,1.016 C15.768001,0.84 15.952001,0.76 16.176001,0.76 C16.496001,0.76 16.720001,0.832 16.864001,0.984 C17.000001,1.128 17.072001,1.368 17.072001,1.696 L17.072001,4.248 L17.984001,4.248 L17.984001,1.536 C17.984001,1.08 17.840001,0.712 17.568001,0.424 C17.280001,0.136 16.928001,0 16.504001,0 C16.224001,0 15.992001,0.048 15.808001,0.144 C15.600001,0.24 15.400001,0.416 15.208001,0.672 C14.944001,0.224 14.512001,0 13.904001,0 Z" id="路径"></path>
            </g>
        </g>
    </g>
</svg>