<?xml version="1.0" encoding="UTF-8"?>
<svg width="20px" height="20px" viewBox="0 0 20 20" version="1.1" xmlns="http://www.w3.org/2000/svg" xmlns:xlink="http://www.w3.org/1999/xlink">
    <title>ppsm</title>
    <g id="文件图标" stroke="none" stroke-width="1" fill="none" fill-rule="evenodd">
        <g id="编组-3">
            <g id="编组" transform="translate(4.444444, 0.000000)" fill-rule="nonzero">
                <path d="M0.729143889,19.5242862 L14.8264117,19.5242862 C14.960342,19.5235005 15.0684874,19.4169183 15.0684874,19.2857149 L15.0684874,5.23858516 L10.9371582,5.23858516 C10.5344632,5.23858516 10.2080143,4.91878886 10.2080143,4.52430012 L10.2080143,0.475732442 L0.729143889,0.475732442 C0.664554638,0.475732442 0.602610796,0.500867553 0.556939301,0.545608337 C0.511267806,0.590349121 0.485609836,0.651030645 0.485609836,0.714303666 L0.485609836,19.2857149 C0.485609836,19.4171434 0.594981412,19.5242862 0.729143889,19.5242862 Z" id="路径" fill="#FFFFFF"></path>
                <path d="M14.9678656,4.76144275 L10.6950824,0.575732349 L10.6950824,4.52430012 C10.6950824,4.65572857 10.8029957,4.76144275 10.9371582,4.76144275 L14.9678656,4.76144275 L14.9678656,4.76144275 Z" id="路径" fill="#FFFFFF"></path>
                <path d="M15.3411873,4.45430019 L11.0100726,0.210018412 C10.8733184,0.0747249558 10.6867371,-0.000961027697 10.4923805,9.2146362e-06 L0.729143889,9.2146362e-06 C0.326448839,9.2146362e-06 0,0.319814921 0,0.714303666 L0,19.2857149 C0,19.6802037 0.326448839,20.0000092 0.729143889,20.0000092 L14.8264117,20.0000092 C15.2291067,20.0000092 15.5555556,19.6802037 15.5555556,19.2857149 L15.5555556,4.95858542 C15.5555556,4.76924268 15.4782987,4.58775259 15.3411873,4.45430019 Z M10.6936242,0.574303796 L14.9678656,4.76144275 L10.9371582,4.76144275 C10.8032255,4.76144275 10.6944262,4.65550112 10.6936242,4.52430012 L10.6936242,0.574303796 Z M14.8264117,19.5242862 L0.729143889,19.5242862 C0.664554638,19.5242862 0.602610796,19.4991511 0.556939301,19.4544103 C0.511267806,19.4096695 0.485609836,19.348988 0.485609836,19.2857149 L0.485609836,0.714303666 C0.485609836,0.582875214 0.594981412,0.475732442 0.729143889,0.475732442 L10.2080143,0.475732442 L10.2080143,4.52430012 C10.2080143,4.91878886 10.5344632,5.23858516 10.9371582,5.23858516 L15.0684874,5.23858516 L15.0684874,19.2857149 C15.0684874,19.4169183 14.960342,19.5235005 14.8264117,19.5242862 L14.8264117,19.5242862 Z" id="形状" fill="#605E5C" opacity="0.64"></path>
            </g>
            <rect id="矩形" fill="#0563B2" x="0" y="6.66666667" width="20" height="8.88888889" rx="1"></rect>
            <g id="ppsm" transform="translate(0.489332, 8.752000)" fill="#FFFFFF" fill-rule="nonzero">
                <path d="M2.096,0 C1.552,0 1.136,0.184 0.848,0.552 L0.848,0.112 L0,0.112 L0,5.832 L0.912,5.832 L0.912,3.68 C1.248,4.128 1.664,4.36 2.144,4.36 C2.736,4.36 3.208,4.144 3.544,3.712 C3.856,3.312 4.016,2.808 4.016,2.2 C4.016,1.56 3.856,1.048 3.536,0.648 C3.184,0.216 2.704,0 2.096,0 Z M1.96,0.736 C2.36,0.736 2.656,0.88 2.848,1.168 C3,1.408 3.08,1.752 3.08,2.2 C3.08,2.648 2.992,2.992 2.824,3.232 C2.632,3.488 2.328,3.624 1.928,3.624 C1.632,3.624 1.392,3.504 1.2,3.264 C0.984,3 0.88,2.648 0.88,2.216 L0.88,2.152 C0.88,1.736 0.96,1.408 1.136,1.16 C1.328,0.872 1.6,0.736 1.96,0.736 Z" id="形状"></path>
                <path d="M6.558667,0 C6.014667,0 5.598667,0.184 5.310667,0.552 L5.310667,0.112 L4.462667,0.112 L4.462667,5.832 L5.374667,5.832 L5.374667,3.68 C5.710667,4.128 6.126667,4.36 6.606667,4.36 C7.198667,4.36 7.670667,4.144 8.006667,3.712 C8.318667,3.312 8.478667,2.808 8.478667,2.2 C8.478667,1.56 8.318667,1.048 7.998667,0.648 C7.646667,0.216 7.166667,0 6.558667,0 Z M6.422667,0.736 C6.822667,0.736 7.118667,0.88 7.310667,1.168 C7.462667,1.408 7.542667,1.752 7.542667,2.2 C7.542667,2.648 7.454667,2.992 7.286667,3.232 C7.094667,3.488 6.790667,3.624 6.390667,3.624 C6.094667,3.624 5.854667,3.504 5.662667,3.264 C5.446667,3 5.342667,2.648 5.342667,2.216 L5.342667,2.152 C5.342667,1.736 5.422667,1.408 5.598667,1.16 C5.790667,0.872 6.062667,0.736 6.422667,0.736 Z" id="形状"></path>
                <path d="M10.485334,0 C9.973334,0 9.565334,0.104 9.253334,0.328 C8.933334,0.536 8.781334,0.832 8.781334,1.216 C8.781334,1.576 8.941334,1.856 9.261334,2.056 C9.461334,2.184 9.805334,2.304 10.293334,2.416 C10.709334,2.512 10.981334,2.584 11.109334,2.648 C11.349334,2.76 11.469334,2.912 11.469334,3.104 C11.469334,3.44 11.149334,3.616 10.509334,3.616 C10.205334,3.616 9.989334,3.56 9.853334,3.464 C9.717334,3.352 9.621334,3.168 9.573334,2.904 L8.685334,2.904 C8.773334,3.872 9.389334,4.36 10.541334,4.36 C11.781334,4.36 12.405334,3.92 12.405334,3.04 C12.405334,2.672 12.237334,2.376 11.909334,2.168 C11.685334,2.016 11.333334,1.888 10.869334,1.776 C10.453334,1.672 10.181334,1.592 10.045334,1.536 C9.821334,1.44 9.717334,1.32 9.717334,1.192 C9.717334,1.032 9.781334,0.92 9.925334,0.848 C10.045334,0.776 10.229334,0.744 10.469334,0.744 C10.749334,0.744 10.957334,0.784 11.093334,0.872 C11.221334,0.952 11.317334,1.104 11.381334,1.312 L12.269334,1.312 C12.173334,0.432 11.573334,0 10.485334,0 Z" id="路径"></path>
                <path d="M14.804001,0 C14.404001,0 14.028001,0.176 13.684001,0.536 L13.684001,0.112 L12.772001,0.112 L12.772001,4.248 L13.684001,4.248 L13.684001,1.768 C13.684001,1.496 13.764001,1.256 13.924001,1.064 C14.084001,0.856 14.292001,0.76 14.556001,0.76 C15.100001,0.76 15.372001,1.072 15.372001,1.704 L15.372001,4.248 L16.284001,4.248 L16.284001,1.72 C16.284001,1.416 16.356001,1.184 16.516001,1.016 C16.668001,0.84 16.852001,0.76 17.076001,0.76 C17.396001,0.76 17.620001,0.832 17.764001,0.984 C17.900001,1.128 17.972001,1.368 17.972001,1.696 L17.972001,4.248 L18.884001,4.248 L18.884001,1.536 C18.884001,1.08 18.740001,0.712 18.468001,0.424 C18.180001,0.136 17.828001,0 17.404001,0 C17.124001,0 16.892001,0.048 16.708001,0.144 C16.500001,0.24 16.300001,0.416 16.108001,0.672 C15.844001,0.224 15.412001,0 14.804001,0 Z" id="路径"></path>
            </g>
        </g>
    </g>
</svg>