<?xml version="1.0" encoding="UTF-8"?>
<svg width="20px" height="20px" viewBox="0 0 20 20" version="1.1" xmlns="http://www.w3.org/2000/svg" xmlns:xlink="http://www.w3.org/1999/xlink">
    <title>ppsx2</title>
    <g id="文件图标" stroke="none" stroke-width="1" fill="none" fill-rule="evenodd">
        <g id="编组-3">
            <g id="编组" transform="translate(4.444444, 0.000000)" fill-rule="nonzero">
                <path d="M0.729143889,19.5242862 L14.8264117,19.5242862 C14.960342,19.5235005 15.0684874,19.4169183 15.0684874,19.2857149 L15.0684874,5.23858516 L10.9371582,5.23858516 C10.5344632,5.23858516 10.2080143,4.91878886 10.2080143,4.52430012 L10.2080143,0.475732442 L0.729143889,0.475732442 C0.664554638,0.475732442 0.602610796,0.500867553 0.556939301,0.545608337 C0.511267806,0.590349121 0.485609836,0.651030645 0.485609836,0.714303666 L0.485609836,19.2857149 C0.485609836,19.4171434 0.594981412,19.5242862 0.729143889,19.5242862 Z" id="路径" fill="#FFFFFF"></path>
                <path d="M14.9678656,4.76144275 L10.6950824,0.575732349 L10.6950824,4.52430012 C10.6950824,4.65572857 10.8029957,4.76144275 10.9371582,4.76144275 L14.9678656,4.76144275 L14.9678656,4.76144275 Z" id="路径" fill="#FFFFFF"></path>
                <path d="M15.3411873,4.45430019 L11.0100726,0.210018412 C10.8733184,0.0747249558 10.6867371,-0.000961027697 10.4923805,9.2146362e-06 L0.729143889,9.2146362e-06 C0.326448839,9.2146362e-06 0,0.319814921 0,0.714303666 L0,19.2857149 C0,19.6802037 0.326448839,20.0000092 0.729143889,20.0000092 L14.8264117,20.0000092 C15.2291067,20.0000092 15.5555556,19.6802037 15.5555556,19.2857149 L15.5555556,4.95858542 C15.5555556,4.76924268 15.4782987,4.58775259 15.3411873,4.45430019 Z M10.6936242,0.574303796 L14.9678656,4.76144275 L10.9371582,4.76144275 C10.8032255,4.76144275 10.6944262,4.65550112 10.6936242,4.52430012 L10.6936242,0.574303796 Z M14.8264117,19.5242862 L0.729143889,19.5242862 C0.664554638,19.5242862 0.602610796,19.4991511 0.556939301,19.4544103 C0.511267806,19.4096695 0.485609836,19.348988 0.485609836,19.2857149 L0.485609836,0.714303666 C0.485609836,0.582875214 0.594981412,0.475732442 0.729143889,0.475732442 L10.2080143,0.475732442 L10.2080143,4.52430012 C10.2080143,4.91878886 10.5344632,5.23858516 10.9371582,5.23858516 L15.0684874,5.23858516 L15.0684874,19.2857149 C15.0684874,19.4169183 14.960342,19.5235005 14.8264117,19.5242862 L14.8264117,19.5242862 Z" id="形状" fill="#605E5C" opacity="0.64"></path>
            </g>
            <g id="编组-4备份" transform="translate(0.000000, 7.000000)">
                <path d="M19,0 C19.5522847,-1.01453063e-16 20,0.44771525 20,1 L20,7.88888889 C20,8.44117364 19.5522847,8.88888889 19,8.88888889 L1,8.88888889 C0.44771525,8.88888889 6.76353751e-17,8.44117364 0,7.88888889 L0,1 C-6.76353751e-17,0.44771525 0.44771525,1.01453063e-16 1,0 L19,0 Z M19.0444832,0.504211426 L1.03848839,0.504211426 C0.762346013,0.504211426 0.538488388,0.728069051 0.538488388,1.00421143 L0.538488388,7.94127083 C0.538488388,8.2174132 0.762346013,8.44127083 1.03848839,8.44127083 L19.0444832,8.44127083 C19.3206256,8.44127083 19.5444832,8.2174132 19.5444832,7.94127083 L19.5444832,1.00421143 C19.5444832,0.728069051 19.3206256,0.504211426 19.0444832,0.504211426 Z" id="形状结合" fill="#0563B2"></path>
                <path d="M1.03848839,0.504211426 L19.0444832,0.504211426 C19.3206256,0.504211426 19.5444832,0.728069051 19.5444832,1.00421143 L19.5444832,7.94127083 C19.5444832,8.2174132 19.3206256,8.44127083 19.0444832,8.44127083 L1.03848839,8.44127083 C0.762346013,8.44127083 0.538488388,8.2174132 0.538488388,7.94127083 L0.538488388,1.00421143 C0.538488388,0.728069051 0.762346013,0.504211426 1.03848839,0.504211426 Z" id="矩形备份-25" fill="#FFFFFF"></path>
            </g>
            <g id="ppsx" transform="translate(1.565333, 8.752000)" fill="#0563B2" fill-rule="nonzero">
                <path d="M2.096,0 C1.552,0 1.136,0.184 0.848,0.552 L0.848,0.112 L0,0.112 L0,5.832 L0.912,5.832 L0.912,3.68 C1.248,4.128 1.664,4.36 2.144,4.36 C2.736,4.36 3.208,4.144 3.544,3.712 C3.856,3.312 4.016,2.808 4.016,2.2 C4.016,1.56 3.856,1.048 3.536,0.648 C3.184,0.216 2.704,0 2.096,0 Z M1.96,0.736 C2.36,0.736 2.656,0.88 2.848,1.168 C3,1.408 3.08,1.752 3.08,2.2 C3.08,2.648 2.992,2.992 2.824,3.232 C2.632,3.488 2.328,3.624 1.928,3.624 C1.632,3.624 1.392,3.504 1.2,3.264 C0.984,3 0.88,2.648 0.88,2.216 L0.88,2.152 C0.88,1.736 0.96,1.408 1.136,1.16 C1.328,0.872 1.6,0.736 1.96,0.736 Z" id="形状"></path>
                <path d="M6.85866667,0 C6.31466667,0 5.89866667,0.184 5.61066667,0.552 L5.61066667,0.112 L4.76266667,0.112 L4.76266667,5.832 L5.67466667,5.832 L5.67466667,3.68 C6.01066667,4.128 6.42666667,4.36 6.90666667,4.36 C7.49866667,4.36 7.97066667,4.144 8.30666667,3.712 C8.61866667,3.312 8.77866667,2.808 8.77866667,2.2 C8.77866667,1.56 8.61866667,1.048 8.29866667,0.648 C7.94666667,0.216 7.46666667,0 6.85866667,0 Z M6.72266667,0.736 C7.12266667,0.736 7.41866667,0.88 7.61066667,1.168 C7.76266667,1.408 7.84266667,1.752 7.84266667,2.2 C7.84266667,2.648 7.75466667,2.992 7.58666667,3.232 C7.39466667,3.488 7.09066667,3.624 6.69066667,3.624 C6.39466667,3.624 6.15466667,3.504 5.96266667,3.264 C5.74666667,3 5.64266667,2.648 5.64266667,2.216 L5.64266667,2.152 C5.64266667,1.736 5.72266667,1.408 5.89866667,1.16 C6.09066667,0.872 6.36266667,0.736 6.72266667,0.736 Z" id="形状"></path>
                <path d="M11.0853333,0 C10.5733333,0 10.1653333,0.104 9.85333333,0.328 C9.53333333,0.536 9.38133333,0.832 9.38133333,1.216 C9.38133333,1.576 9.54133333,1.856 9.86133333,2.056 C10.0613333,2.184 10.4053333,2.304 10.8933333,2.416 C11.3093333,2.512 11.5813333,2.584 11.7093333,2.648 C11.9493333,2.76 12.0693333,2.912 12.0693333,3.104 C12.0693333,3.44 11.7493333,3.616 11.1093333,3.616 C10.8053333,3.616 10.5893333,3.56 10.4533333,3.464 C10.3173333,3.352 10.2213333,3.168 10.1733333,2.904 L9.28533333,2.904 C9.37333333,3.872 9.98933333,4.36 11.1413333,4.36 C12.3813333,4.36 13.0053333,3.92 13.0053333,3.04 C13.0053333,2.672 12.8373333,2.376 12.5093333,2.168 C12.2853333,2.016 11.9333333,1.888 11.4693333,1.776 C11.0533333,1.672 10.7813333,1.592 10.6453333,1.536 C10.4213333,1.44 10.3173333,1.32 10.3173333,1.192 C10.3173333,1.032 10.3813333,0.92 10.5253333,0.848 C10.6453333,0.776 10.8293333,0.744 11.0693333,0.744 C11.3493333,0.744 11.5573333,0.784 11.6933333,0.872 C11.8213333,0.952 11.9173333,1.104 11.9813333,1.312 L12.8693333,1.312 C12.7733333,0.432 12.1733333,0 11.0853333,0 Z" id="路径"></path>
                <polygon id="路径" points="13.416 0.112 14.84 2.048 13.232 4.248 14.304 4.248 15.344 2.72 16.376 4.248 17.448 4.248 15.84 2.048 17.264 0.112 16.2 0.112 15.344 1.376 14.48 0.112"></polygon>
            </g>
        </g>
    </g>
</svg>