<?xml version="1.0" encoding="UTF-8"?>
<svg width="20px" height="20px" viewBox="0 0 20 20" version="1.1" xmlns="http://www.w3.org/2000/svg" xmlns:xlink="http://www.w3.org/1999/xlink">
    <title>ppt2</title>
    <g id="文件图标" stroke="none" stroke-width="1" fill="none" fill-rule="evenodd">
        <g id="编组-3">
            <g id="编组" transform="translate(4.444444, 0.000000)" fill-rule="nonzero">
                <path d="M0.729143889,19.5242862 L14.8264117,19.5242862 C14.960342,19.5235005 15.0684874,19.4169183 15.0684874,19.2857149 L15.0684874,5.23858516 L10.9371582,5.23858516 C10.5344632,5.23858516 10.2080143,4.91878886 10.2080143,4.52430012 L10.2080143,0.475732442 L0.729143889,0.475732442 C0.664554638,0.475732442 0.602610796,0.500867553 0.556939301,0.545608337 C0.511267806,0.590349121 0.485609836,0.651030645 0.485609836,0.714303666 L0.485609836,19.2857149 C0.485609836,19.4171434 0.594981412,19.5242862 0.729143889,19.5242862 Z" id="路径" fill="#FFFFFF"></path>
                <path d="M14.9678656,4.76144275 L10.6950824,0.575732349 L10.6950824,4.52430012 C10.6950824,4.65572857 10.8029957,4.76144275 10.9371582,4.76144275 L14.9678656,4.76144275 L14.9678656,4.76144275 Z" id="路径" fill="#FFFFFF"></path>
                <path d="M15.3411873,4.45430019 L11.0100726,0.210018412 C10.8733184,0.0747249558 10.6867371,-0.000961027697 10.4923805,9.2146362e-06 L0.729143889,9.2146362e-06 C0.326448839,9.2146362e-06 0,0.319814921 0,0.714303666 L0,19.2857149 C0,19.6802037 0.326448839,20.0000092 0.729143889,20.0000092 L14.8264117,20.0000092 C15.2291067,20.0000092 15.5555556,19.6802037 15.5555556,19.2857149 L15.5555556,4.95858542 C15.5555556,4.76924268 15.4782987,4.58775259 15.3411873,4.45430019 Z M10.6936242,0.574303796 L14.9678656,4.76144275 L10.9371582,4.76144275 C10.8032255,4.76144275 10.6944262,4.65550112 10.6936242,4.52430012 L10.6936242,0.574303796 Z M14.8264117,19.5242862 L0.729143889,19.5242862 C0.664554638,19.5242862 0.602610796,19.4991511 0.556939301,19.4544103 C0.511267806,19.4096695 0.485609836,19.348988 0.485609836,19.2857149 L0.485609836,0.714303666 C0.485609836,0.582875214 0.594981412,0.475732442 0.729143889,0.475732442 L10.2080143,0.475732442 L10.2080143,4.52430012 C10.2080143,4.91878886 10.5344632,5.23858516 10.9371582,5.23858516 L15.0684874,5.23858516 L15.0684874,19.2857149 C15.0684874,19.4169183 14.960342,19.5235005 14.8264117,19.5242862 L14.8264117,19.5242862 Z" id="形状" fill="#605E5C" opacity="0.64"></path>
            </g>
            <g id="编组-4备份" transform="translate(0.000000, 7.000000)">
                <path d="M19,0 C19.5522847,-1.01453063e-16 20,0.44771525 20,1 L20,7.88888889 C20,8.44117364 19.5522847,8.88888889 19,8.88888889 L1,8.88888889 C0.44771525,8.88888889 6.76353751e-17,8.44117364 0,7.88888889 L0,1 C-6.76353751e-17,0.44771525 0.44771525,1.01453063e-16 1,0 L19,0 Z M19.0444832,0.504211426 L1.03848839,0.504211426 C0.762346013,0.504211426 0.538488388,0.728069051 0.538488388,1.00421143 L0.538488388,7.94127083 C0.538488388,8.2174132 0.762346013,8.44127083 1.03848839,8.44127083 L19.0444832,8.44127083 C19.3206256,8.44127083 19.5444832,8.2174132 19.5444832,7.94127083 L19.5444832,1.00421143 C19.5444832,0.728069051 19.3206256,0.504211426 19.0444832,0.504211426 Z" id="形状结合" fill="#0563B2"></path>
                <path d="M1.03848839,0.504211426 L19.0444832,0.504211426 C19.3206256,0.504211426 19.5444832,0.728069051 19.5444832,1.00421143 L19.5444832,7.94127083 C19.5444832,8.2174132 19.3206256,8.44127083 19.0444832,8.44127083 L1.03848839,8.44127083 C0.762346013,8.44127083 0.538488388,8.2174132 0.538488388,7.94127083 L0.538488388,1.00421143 C0.538488388,0.728069051 0.762346013,0.504211426 1.03848839,0.504211426 Z" id="矩形备份-25" fill="#FFFFFF"></path>
            </g>
            <g id="ppt" transform="translate(3.626000, 7.844000)" fill="#0563B2" fill-rule="nonzero">
                <path d="M2.358,0.377 C1.746,0.377 1.278,0.584 0.954,0.998 L0.954,0.503 L0,0.503 L0,6.938 L1.026,6.938 L1.026,4.517 C1.404,5.021 1.872,5.282 2.412,5.282 C3.078,5.282 3.609,5.039 3.987,4.553 C4.338,4.103 4.518,3.536 4.518,2.852 C4.518,2.132 4.338,1.556 3.978,1.106 C3.582,0.62 3.042,0.377 2.358,0.377 Z M2.205,1.205 C2.655,1.205 2.988,1.367 3.204,1.691 C3.375,1.961 3.465,2.348 3.465,2.852 C3.465,3.356 3.366,3.743 3.177,4.013 C2.961,4.301 2.619,4.454 2.169,4.454 C1.836,4.454 1.566,4.319 1.35,4.049 C1.107,3.752 0.99,3.356 0.99,2.87 L0.99,2.798 C0.99,2.33 1.08,1.961 1.278,1.682 C1.494,1.358 1.8,1.205 2.205,1.205 Z" id="形状"></path>
                <path d="M7.716,0.377 C7.104,0.377 6.636,0.584 6.312,0.998 L6.312,0.503 L5.358,0.503 L5.358,6.938 L6.384,6.938 L6.384,4.517 C6.762,5.021 7.23,5.282 7.77,5.282 C8.436,5.282 8.967,5.039 9.345,4.553 C9.696,4.103 9.876,3.536 9.876,2.852 C9.876,2.132 9.696,1.556 9.336,1.106 C8.94,0.62 8.4,0.377 7.716,0.377 Z M7.563,1.205 C8.013,1.205 8.346,1.367 8.562,1.691 C8.733,1.961 8.823,2.348 8.823,2.852 C8.823,3.356 8.724,3.743 8.535,4.013 C8.319,4.301 7.977,4.454 7.527,4.454 C7.194,4.454 6.924,4.319 6.708,4.049 C6.465,3.752 6.348,3.356 6.348,2.87 L6.348,2.798 C6.348,2.33 6.438,1.961 6.636,1.682 C6.852,1.358 7.158,1.205 7.563,1.205 Z" id="形状"></path>
                <path d="M12.174,0 L11.148,0.423 L11.148,1.503 L10.311,1.503 L10.311,2.349 L11.148,2.349 L11.148,4.977 C11.148,5.355 11.238,5.634 11.418,5.832 C11.607,6.048 11.904,6.156 12.309,6.156 L13.092,6.156 L13.092,5.31 L12.48,5.31 C12.372,5.31 12.3,5.283 12.246,5.229 C12.192,5.166 12.174,5.085 12.174,4.977 L12.174,2.349 L13.209,2.349 L13.209,1.503 L12.174,1.503 L12.174,0 Z" id="路径"></path>
            </g>
        </g>
    </g>
</svg>