<?xml version="1.0" encoding="UTF-8"?>
<svg width="20px" height="20px" viewBox="0 0 20 20" version="1.1" xmlns="http://www.w3.org/2000/svg" xmlns:xlink="http://www.w3.org/1999/xlink">
    <title>pptm</title>
    <g id="文件图标" stroke="none" stroke-width="1" fill="none" fill-rule="evenodd">
        <g id="编组-3">
            <g id="编组" transform="translate(4.444444, 0.000000)" fill-rule="nonzero">
                <path d="M0.729143889,19.5242862 L14.8264117,19.5242862 C14.960342,19.5235005 15.0684874,19.4169183 15.0684874,19.2857149 L15.0684874,5.23858516 L10.9371582,5.23858516 C10.5344632,5.23858516 10.2080143,4.91878886 10.2080143,4.52430012 L10.2080143,0.475732442 L0.729143889,0.475732442 C0.664554638,0.475732442 0.602610796,0.500867553 0.556939301,0.545608337 C0.511267806,0.590349121 0.485609836,0.651030645 0.485609836,0.714303666 L0.485609836,19.2857149 C0.485609836,19.4171434 0.594981412,19.5242862 0.729143889,19.5242862 Z" id="路径" fill="#FFFFFF"></path>
                <path d="M14.9678656,4.76144275 L10.6950824,0.575732349 L10.6950824,4.52430012 C10.6950824,4.65572857 10.8029957,4.76144275 10.9371582,4.76144275 L14.9678656,4.76144275 L14.9678656,4.76144275 Z" id="路径" fill="#FFFFFF"></path>
                <path d="M15.3411873,4.45430019 L11.0100726,0.210018412 C10.8733184,0.0747249558 10.6867371,-0.000961027697 10.4923805,9.2146362e-06 L0.729143889,9.2146362e-06 C0.326448839,9.2146362e-06 0,0.319814921 0,0.714303666 L0,19.2857149 C0,19.6802037 0.326448839,20.0000092 0.729143889,20.0000092 L14.8264117,20.0000092 C15.2291067,20.0000092 15.5555556,19.6802037 15.5555556,19.2857149 L15.5555556,4.95858542 C15.5555556,4.76924268 15.4782987,4.58775259 15.3411873,4.45430019 Z M10.6936242,0.574303796 L14.9678656,4.76144275 L10.9371582,4.76144275 C10.8032255,4.76144275 10.6944262,4.65550112 10.6936242,4.52430012 L10.6936242,0.574303796 Z M14.8264117,19.5242862 L0.729143889,19.5242862 C0.664554638,19.5242862 0.602610796,19.4991511 0.556939301,19.4544103 C0.511267806,19.4096695 0.485609836,19.348988 0.485609836,19.2857149 L0.485609836,0.714303666 C0.485609836,0.582875214 0.594981412,0.475732442 0.729143889,0.475732442 L10.2080143,0.475732442 L10.2080143,4.52430012 C10.2080143,4.91878886 10.5344632,5.23858516 10.9371582,5.23858516 L15.0684874,5.23858516 L15.0684874,19.2857149 C15.0684874,19.4169183 14.960342,19.5235005 14.8264117,19.5242862 L14.8264117,19.5242862 Z" id="形状" fill="#605E5C" opacity="0.64"></path>
            </g>
            <rect id="矩形" fill="#0563B2" x="0" y="6.66666667" width="20" height="8.88888889" rx="1"></rect>
            <g id="pptm" transform="translate(1.093333, 8.528000)" fill="#FFFFFF" fill-rule="nonzero">
                <path d="M2.096,1.224 C1.552,1.224 1.136,1.408 0.848,1.776 L0.848,1.336 L0,1.336 L0,7.056 L0.912,7.056 L0.912,4.904 C1.248,5.352 1.664,5.584 2.144,5.584 C2.736,5.584 3.208,5.368 3.544,4.936 C3.856,4.536 4.016,4.032 4.016,3.424 C4.016,2.784 3.856,2.272 3.536,1.872 C3.184,1.44 2.704,1.224 2.096,1.224 Z M1.96,1.96 C2.36,1.96 2.656,2.104 2.848,2.392 C3,2.632 3.08,2.976 3.08,3.424 C3.08,3.872 2.992,4.216 2.824,4.456 C2.632,4.712 2.328,4.848 1.928,4.848 C1.632,4.848 1.392,4.728 1.2,4.488 C0.984,4.224 0.88,3.872 0.88,3.44 L0.88,3.376 C0.88,2.96 0.96,2.632 1.136,2.384 C1.328,2.096 1.6,1.96 1.96,1.96 Z" id="形状"></path>
                <path d="M6.85866667,1.224 C6.31466667,1.224 5.89866667,1.408 5.61066667,1.776 L5.61066667,1.336 L4.76266667,1.336 L4.76266667,7.056 L5.67466667,7.056 L5.67466667,4.904 C6.01066667,5.352 6.42666667,5.584 6.90666667,5.584 C7.49866667,5.584 7.97066667,5.368 8.30666667,4.936 C8.61866667,4.536 8.77866667,4.032 8.77866667,3.424 C8.77866667,2.784 8.61866667,2.272 8.29866667,1.872 C7.94666667,1.44 7.46666667,1.224 6.85866667,1.224 Z M6.72266667,1.96 C7.12266667,1.96 7.41866667,2.104 7.61066667,2.392 C7.76266667,2.632 7.84266667,2.976 7.84266667,3.424 C7.84266667,3.872 7.75466667,4.216 7.58666667,4.456 C7.39466667,4.712 7.09066667,4.848 6.69066667,4.848 C6.39466667,4.848 6.15466667,4.728 5.96266667,4.488 C5.74666667,4.224 5.64266667,3.872 5.64266667,3.44 L5.64266667,3.376 C5.64266667,2.96 5.72266667,2.632 5.89866667,2.384 C6.09066667,2.096 6.36266667,1.96 6.72266667,1.96 Z" id="形状"></path>
                <path d="M10.8213333,0 L9.90933333,0.376 L9.90933333,1.336 L9.16533333,1.336 L9.16533333,2.088 L9.90933333,2.088 L9.90933333,4.424 C9.90933333,4.76 9.98933333,5.008 10.1493333,5.184 C10.3173333,5.376 10.5813333,5.472 10.9413333,5.472 L11.6373333,5.472 L11.6373333,4.72 L11.0933333,4.72 C10.9973333,4.72 10.9333333,4.696 10.8853333,4.648 C10.8373333,4.592 10.8213333,4.52 10.8213333,4.424 L10.8213333,2.088 L11.7413333,2.088 L11.7413333,1.336 L10.8213333,1.336 L10.8213333,0 Z" id="路径"></path>
                <path d="M14.4,1.224 C14,1.224 13.624,1.4 13.28,1.76 L13.28,1.336 L12.368,1.336 L12.368,5.472 L13.28,5.472 L13.28,2.992 C13.28,2.72 13.36,2.48 13.52,2.288 C13.68,2.08 13.888,1.984 14.152,1.984 C14.696,1.984 14.968,2.296 14.968,2.928 L14.968,5.472 L15.88,5.472 L15.88,2.944 C15.88,2.64 15.952,2.408 16.112,2.24 C16.264,2.064 16.448,1.984 16.672,1.984 C16.992,1.984 17.216,2.056 17.36,2.208 C17.496,2.352 17.568,2.592 17.568,2.92 L17.568,5.472 L18.48,5.472 L18.48,2.76 C18.48,2.304 18.336,1.936 18.064,1.648 C17.776,1.36 17.424,1.224 17,1.224 C16.72,1.224 16.488,1.272 16.304,1.368 C16.096,1.464 15.896,1.64 15.704,1.896 C15.44,1.448 15.008,1.224 14.4,1.224 Z" id="路径"></path>
            </g>
        </g>
    </g>
</svg>