<?xml version="1.0" encoding="UTF-8"?>
<svg width="20px" height="20px" viewBox="0 0 20 20" version="1.1" xmlns="http://www.w3.org/2000/svg" xmlns:xlink="http://www.w3.org/1999/xlink">
    <title>psm</title>
    <g id="文件图标" stroke="none" stroke-width="1" fill="none" fill-rule="evenodd">
        <g id="编组-3">
            <g id="编组" transform="translate(4.444444, 0.000000)" fill-rule="nonzero">
                <path d="M0.729143889,19.5242862 L14.8264117,19.5242862 C14.960342,19.5235005 15.0684874,19.4169183 15.0684874,19.2857149 L15.0684874,5.23858516 L10.9371582,5.23858516 C10.5344632,5.23858516 10.2080143,4.91878886 10.2080143,4.52430012 L10.2080143,0.475732442 L0.729143889,0.475732442 C0.664554638,0.475732442 0.602610796,0.500867553 0.556939301,0.545608337 C0.511267806,0.590349121 0.485609836,0.651030645 0.485609836,0.714303666 L0.485609836,19.2857149 C0.485609836,19.4171434 0.594981412,19.5242862 0.729143889,19.5242862 Z" id="路径" fill="#FFFFFF"></path>
                <path d="M14.9678656,4.76144275 L10.6950824,0.575732349 L10.6950824,4.52430012 C10.6950824,4.65572857 10.8029957,4.76144275 10.9371582,4.76144275 L14.9678656,4.76144275 L14.9678656,4.76144275 Z" id="路径" fill="#FFFFFF"></path>
                <path d="M15.3411873,4.45430019 L11.0100726,0.210018412 C10.8733184,0.0747249558 10.6867371,-0.000961027697 10.4923805,9.2146362e-06 L0.729143889,9.2146362e-06 C0.326448839,9.2146362e-06 0,0.319814921 0,0.714303666 L0,19.2857149 C0,19.6802037 0.326448839,20.0000092 0.729143889,20.0000092 L14.8264117,20.0000092 C15.2291067,20.0000092 15.5555556,19.6802037 15.5555556,19.2857149 L15.5555556,4.95858542 C15.5555556,4.76924268 15.4782987,4.58775259 15.3411873,4.45430019 Z M10.6936242,0.574303796 L14.9678656,4.76144275 L10.9371582,4.76144275 C10.8032255,4.76144275 10.6944262,4.65550112 10.6936242,4.52430012 L10.6936242,0.574303796 Z M14.8264117,19.5242862 L0.729143889,19.5242862 C0.664554638,19.5242862 0.602610796,19.4991511 0.556939301,19.4544103 C0.511267806,19.4096695 0.485609836,19.348988 0.485609836,19.2857149 L0.485609836,0.714303666 C0.485609836,0.582875214 0.594981412,0.475732442 0.729143889,0.475732442 L10.2080143,0.475732442 L10.2080143,4.52430012 C10.2080143,4.91878886 10.5344632,5.23858516 10.9371582,5.23858516 L15.0684874,5.23858516 L15.0684874,19.2857149 C15.0684874,19.4169183 14.960342,19.5235005 14.8264117,19.5242862 L14.8264117,19.5242862 Z" id="形状" fill="#605E5C" opacity="0.64"></path>
            </g>
            <rect id="矩形" fill="#0563B2" x="0" y="6.66666667" width="20" height="8.88888889" rx="1"></rect>
            <g id="psm" transform="translate(1.621000, 9.221000)" fill="#FFFFFF" fill-rule="nonzero">
                <path d="M2.358,0 C1.746,0 1.278,0.207 0.954,0.621 L0.954,0.126 L0,0.126 L0,6.561 L1.026,6.561 L1.026,4.14 C1.404,4.644 1.872,4.905 2.412,4.905 C3.078,4.905 3.609,4.662 3.987,4.176 C4.338,3.726 4.518,3.159 4.518,2.475 C4.518,1.755 4.338,1.179 3.978,0.729 C3.582,0.243 3.042,0 2.358,0 Z M2.205,0.828 C2.655,0.828 2.988,0.99 3.204,1.314 C3.375,1.584 3.465,1.971 3.465,2.475 C3.465,2.979 3.366,3.366 3.177,3.636 C2.961,3.924 2.619,4.077 2.169,4.077 C1.836,4.077 1.566,3.942 1.35,3.672 C1.107,3.375 0.99,2.979 0.99,2.493 L0.99,2.421 C0.99,1.953 1.08,1.584 1.278,1.305 C1.494,0.981 1.8,0.828 2.205,0.828 Z" id="形状"></path>
                <path d="M7.113,0 C6.537,0 6.078,0.117 5.727,0.369 C5.367,0.603 5.196,0.936 5.196,1.368 C5.196,1.773 5.376,2.088 5.736,2.313 C5.961,2.457 6.348,2.592 6.897,2.718 C7.365,2.826 7.671,2.907 7.815,2.979 C8.085,3.105 8.22,3.276 8.22,3.492 C8.22,3.87 7.86,4.068 7.14,4.068 C6.798,4.068 6.555,4.005 6.402,3.897 C6.249,3.771 6.141,3.564 6.087,3.267 L5.088,3.267 C5.187,4.356 5.88,4.905 7.176,4.905 C8.571,4.905 9.273,4.41 9.273,3.42 C9.273,3.006 9.084,2.673 8.715,2.439 C8.463,2.268 8.067,2.124 7.545,1.998 C7.077,1.881 6.771,1.791 6.618,1.728 C6.366,1.62 6.249,1.485 6.249,1.341 C6.249,1.161 6.321,1.035 6.483,0.954 C6.618,0.873 6.825,0.837 7.095,0.837 C7.41,0.837 7.644,0.882 7.797,0.981 C7.941,1.071 8.049,1.242 8.121,1.476 L9.12,1.476 C9.012,0.486 8.337,0 7.113,0 Z" id="路径"></path>
                <path d="M12.309,0 C11.859,0 11.436,0.198 11.049,0.603 L11.049,0.126 L10.023,0.126 L10.023,4.779 L11.049,4.779 L11.049,1.989 C11.049,1.683 11.139,1.413 11.319,1.197 C11.499,0.963 11.733,0.855 12.03,0.855 C12.642,0.855 12.948,1.206 12.948,1.917 L12.948,4.779 L13.974,4.779 L13.974,1.935 C13.974,1.593 14.055,1.332 14.235,1.143 C14.406,0.945 14.613,0.855 14.865,0.855 C15.225,0.855 15.477,0.936 15.639,1.107 C15.792,1.269 15.873,1.539 15.873,1.908 L15.873,4.779 L16.899,4.779 L16.899,1.728 C16.899,1.215 16.737,0.801 16.431,0.477 C16.107,0.153 15.711,0 15.234,0 C14.919,0 14.658,0.054 14.451,0.162 C14.217,0.27 13.992,0.468 13.776,0.756 C13.479,0.252 12.993,0 12.309,0 Z" id="路径"></path>
            </g>
        </g>
    </g>
</svg>