<?xml version="1.0" encoding="UTF-8"?>
<svg width="20px" height="20px" viewBox="0 0 20 20" version="1.1" xmlns="http://www.w3.org/2000/svg" xmlns:xlink="http://www.w3.org/1999/xlink">
    <title>pvs2</title>
    <g id="文件图标" stroke="none" stroke-width="1" fill="none" fill-rule="evenodd">
        <g id="编组-3">
            <g id="编组" transform="translate(4.444444, 0.000000)" fill-rule="nonzero">
                <path d="M0.729143889,19.5242862 L14.8264117,19.5242862 C14.960342,19.5235005 15.0684874,19.4169183 15.0684874,19.2857149 L15.0684874,5.23858516 L10.9371582,5.23858516 C10.5344632,5.23858516 10.2080143,4.91878886 10.2080143,4.52430012 L10.2080143,0.475732442 L0.729143889,0.475732442 C0.664554638,0.475732442 0.602610796,0.500867553 0.556939301,0.545608337 C0.511267806,0.590349121 0.485609836,0.651030645 0.485609836,0.714303666 L0.485609836,19.2857149 C0.485609836,19.4171434 0.594981412,19.5242862 0.729143889,19.5242862 Z" id="路径" fill="#FFFFFF"></path>
                <path d="M14.9678656,4.76144275 L10.6950824,0.575732349 L10.6950824,4.52430012 C10.6950824,4.65572857 10.8029957,4.76144275 10.9371582,4.76144275 L14.9678656,4.76144275 L14.9678656,4.76144275 Z" id="路径" fill="#FFFFFF"></path>
                <path d="M15.3411873,4.45430019 L11.0100726,0.210018412 C10.8733184,0.0747249558 10.6867371,-0.000961027697 10.4923805,9.2146362e-06 L0.729143889,9.2146362e-06 C0.326448839,9.2146362e-06 0,0.319814921 0,0.714303666 L0,19.2857149 C0,19.6802037 0.326448839,20.0000092 0.729143889,20.0000092 L14.8264117,20.0000092 C15.2291067,20.0000092 15.5555556,19.6802037 15.5555556,19.2857149 L15.5555556,4.95858542 C15.5555556,4.76924268 15.4782987,4.58775259 15.3411873,4.45430019 Z M10.6936242,0.574303796 L14.9678656,4.76144275 L10.9371582,4.76144275 C10.8032255,4.76144275 10.6944262,4.65550112 10.6936242,4.52430012 L10.6936242,0.574303796 Z M14.8264117,19.5242862 L0.729143889,19.5242862 C0.664554638,19.5242862 0.602610796,19.4991511 0.556939301,19.4544103 C0.511267806,19.4096695 0.485609836,19.348988 0.485609836,19.2857149 L0.485609836,0.714303666 C0.485609836,0.582875214 0.594981412,0.475732442 0.729143889,0.475732442 L10.2080143,0.475732442 L10.2080143,4.52430012 C10.2080143,4.91878886 10.5344632,5.23858516 10.9371582,5.23858516 L15.0684874,5.23858516 L15.0684874,19.2857149 C15.0684874,19.4169183 14.960342,19.5235005 14.8264117,19.5242862 L14.8264117,19.5242862 Z" id="形状" fill="#605E5C" opacity="0.64"></path>
            </g>
            <g id="编组-4备份" transform="translate(0.000000, 7.000000)">
                <path d="M19,0 C19.5522847,-1.01453063e-16 20,0.44771525 20,1 L20,7.88888889 C20,8.44117364 19.5522847,8.88888889 19,8.88888889 L1,8.88888889 C0.44771525,8.88888889 6.76353751e-17,8.44117364 0,7.88888889 L0,1 C-6.76353751e-17,0.44771525 0.44771525,1.01453063e-16 1,0 L19,0 Z M19.0444832,0.504211426 L1.03848839,0.504211426 C0.762346013,0.504211426 0.538488388,0.728069051 0.538488388,1.00421143 L0.538488388,7.94127083 C0.538488388,8.2174132 0.762346013,8.44127083 1.03848839,8.44127083 L19.0444832,8.44127083 C19.3206256,8.44127083 19.5444832,8.2174132 19.5444832,7.94127083 L19.5444832,1.00421143 C19.5444832,0.728069051 19.3206256,0.504211426 19.0444832,0.504211426 Z" id="形状结合" fill="#0563B2"></path>
                <path d="M1.03848839,0.504211426 L19.0444832,0.504211426 C19.3206256,0.504211426 19.5444832,0.728069051 19.5444832,1.00421143 L19.5444832,7.94127083 C19.5444832,8.2174132 19.3206256,8.44127083 19.0444832,8.44127083 L1.03848839,8.44127083 C0.762346013,8.44127083 0.538488388,8.2174132 0.538488388,7.94127083 L0.538488388,1.00421143 C0.538488388,0.728069051 0.762346013,0.504211426 1.03848839,0.504211426 Z" id="矩形备份-25" fill="#FFFFFF"></path>
            </g>
            <g id="pvs" transform="translate(3.923000, 8.721000)" fill="#0563B2" fill-rule="nonzero">
                <path d="M2.358,0 C1.746,0 1.278,0.207 0.954,0.621 L0.954,0.126 L0,0.126 L0,6.561 L1.026,6.561 L1.026,4.14 C1.404,4.644 1.872,4.905 2.412,4.905 C3.078,4.905 3.609,4.662 3.987,4.176 C4.338,3.726 4.518,3.159 4.518,2.475 C4.518,1.755 4.338,1.179 3.978,0.729 C3.582,0.243 3.042,0 2.358,0 Z M2.205,0.828 C2.655,0.828 2.988,0.99 3.204,1.314 C3.375,1.584 3.465,1.971 3.465,2.475 C3.465,2.979 3.366,3.366 3.177,3.636 C2.961,3.924 2.619,4.077 2.169,4.077 C1.836,4.077 1.566,3.942 1.35,3.672 C1.107,3.375 0.99,2.979 0.99,2.493 L0.99,2.421 C0.99,1.953 1.08,1.584 1.278,1.305 C1.494,0.981 1.8,0.828 2.205,0.828 Z" id="形状"></path>
                <polygon id="路径" points="4.563 0.126 6.282 4.779 7.308 4.779 9.027 0.126 7.911 0.126 6.795 3.501 5.679 0.126"></polygon>
                <path d="M11.007,0 C10.431,0 9.972,0.117 9.621,0.369 C9.261,0.603 9.09,0.936 9.09,1.368 C9.09,1.773 9.27,2.088 9.63,2.313 C9.855,2.457 10.242,2.592 10.791,2.718 C11.259,2.826 11.565,2.907 11.709,2.979 C11.979,3.105 12.114,3.276 12.114,3.492 C12.114,3.87 11.754,4.068 11.034,4.068 C10.692,4.068 10.449,4.005 10.296,3.897 C10.143,3.771 10.035,3.564 9.981,3.267 L8.982,3.267 C9.081,4.356 9.774,4.905 11.07,4.905 C12.465,4.905 13.167,4.41 13.167,3.42 C13.167,3.006 12.978,2.673 12.609,2.439 C12.357,2.268 11.961,2.124 11.439,1.998 C10.971,1.881 10.665,1.791 10.512,1.728 C10.26,1.62 10.143,1.485 10.143,1.341 C10.143,1.161 10.215,1.035 10.377,0.954 C10.512,0.873 10.719,0.837 10.989,0.837 C11.304,0.837 11.538,0.882 11.691,0.981 C11.835,1.071 11.943,1.242 12.015,1.476 L13.014,1.476 C12.906,0.486 12.231,0 11.007,0 Z" id="路径"></path>
            </g>
        </g>
    </g>
</svg>