<?xml version="1.0" encoding="UTF-8"?>
<svg width="20px" height="20px" viewBox="0 0 20 20" version="1.1" xmlns="http://www.w3.org/2000/svg" xmlns:xlink="http://www.w3.org/1999/xlink">
    <title>rar</title>
    <g id="文件图标" stroke="none" stroke-width="1" fill="none" fill-rule="evenodd">
        <g id="编组-3">
            <g id="编组" transform="translate(4.444444, 0.000000)" fill-rule="nonzero">
                <path d="M0.729143889,19.5242862 L14.8264117,19.5242862 C14.960342,19.5235005 15.0684874,19.4169183 15.0684874,19.2857149 L15.0684874,5.23858516 L10.9371582,5.23858516 C10.5344632,5.23858516 10.2080143,4.91878886 10.2080143,4.52430012 L10.2080143,0.475732442 L0.729143889,0.475732442 C0.664554638,0.475732442 0.602610796,0.500867553 0.556939301,0.545608337 C0.511267806,0.590349121 0.485609836,0.651030645 0.485609836,0.714303666 L0.485609836,19.2857149 C0.485609836,19.4171434 0.594981412,19.5242862 0.729143889,19.5242862 Z" id="路径" fill="#FFFFFF"></path>
                <path d="M14.9678656,4.76144275 L10.6950824,0.575732349 L10.6950824,4.52430012 C10.6950824,4.65572857 10.8029957,4.76144275 10.9371582,4.76144275 L14.9678656,4.76144275 L14.9678656,4.76144275 Z" id="路径" fill="#FFFFFF"></path>
                <path d="M15.3411873,4.45430019 L11.0100726,0.210018412 C10.8733184,0.0747249558 10.6867371,-0.000961027697 10.4923805,9.2146362e-06 L0.729143889,9.2146362e-06 C0.326448839,9.2146362e-06 0,0.319814921 0,0.714303666 L0,19.2857149 C0,19.6802037 0.326448839,20.0000092 0.729143889,20.0000092 L14.8264117,20.0000092 C15.2291067,20.0000092 15.5555556,19.6802037 15.5555556,19.2857149 L15.5555556,4.95858542 C15.5555556,4.76924268 15.4782987,4.58775259 15.3411873,4.45430019 Z M10.6936242,0.574303796 L14.9678656,4.76144275 L10.9371582,4.76144275 C10.8032255,4.76144275 10.6944262,4.65550112 10.6936242,4.52430012 L10.6936242,0.574303796 Z M14.8264117,19.5242862 L0.729143889,19.5242862 C0.664554638,19.5242862 0.602610796,19.4991511 0.556939301,19.4544103 C0.511267806,19.4096695 0.485609836,19.348988 0.485609836,19.2857149 L0.485609836,0.714303666 C0.485609836,0.582875214 0.594981412,0.475732442 0.729143889,0.475732442 L10.2080143,0.475732442 L10.2080143,4.52430012 C10.2080143,4.91878886 10.5344632,5.23858516 10.9371582,5.23858516 L15.0684874,5.23858516 L15.0684874,19.2857149 C15.0684874,19.4169183 14.960342,19.5235005 14.8264117,19.5242862 L14.8264117,19.5242862 Z" id="形状" fill="#605E5C" opacity="0.64"></path>
            </g>
            <rect id="矩形" fill="#0563B2" x="0" y="6.66666667" width="20" height="8.88888889" rx="1"></rect>
            <g id="rar" transform="translate(5.840000, 9.221000)" fill="#FFFFFF" fill-rule="nonzero">
                <path d="M2.196,0 C1.908,0 1.665,0.081 1.458,0.252 C1.287,0.378 1.143,0.558 1.017,0.792 L1.017,0.126 L0,0.126 L0,4.779 L1.017,4.779 L1.017,2.313 C1.017,1.917 1.134,1.602 1.386,1.359 C1.602,1.143 1.845,1.044 2.115,1.044 C2.331,1.044 2.547,1.071 2.781,1.143 L2.781,0.117 C2.619,0.036 2.421,0 2.196,0 Z" id="路径"></path>
                <path d="M5.421,0 C4.827,0 4.359,0.099 4.017,0.315 C3.612,0.549 3.36,0.927 3.261,1.44 L4.278,1.521 C4.332,1.278 4.467,1.098 4.665,0.981 C4.836,0.873 5.061,0.828 5.349,0.828 C6.015,0.828 6.348,1.125 6.348,1.737 L6.348,1.917 L5.331,1.944 C4.647,1.962 4.116,2.106 3.738,2.376 C3.324,2.655 3.126,3.06 3.126,3.582 C3.126,3.969 3.27,4.284 3.558,4.536 C3.837,4.779 4.215,4.905 4.701,4.905 C5.106,4.905 5.457,4.833 5.754,4.698 C6.015,4.572 6.24,4.401 6.42,4.167 L6.42,4.779 L7.374,4.779 L7.374,1.809 C7.374,1.242 7.23,0.81 6.942,0.513 C6.618,0.171 6.105,0 5.421,0 Z M6.348,2.655 L6.348,2.889 C6.348,3.249 6.204,3.546 5.934,3.78 C5.664,4.005 5.331,4.122 4.935,4.122 C4.71,4.122 4.53,4.059 4.386,3.951 C4.242,3.843 4.179,3.708 4.179,3.546 C4.179,2.988 4.584,2.7 5.403,2.682 L6.348,2.655 Z" id="形状"></path>
                <path d="M10.59,0 C10.302,0 10.059,0.081 9.852,0.252 C9.681,0.378 9.537,0.558 9.411,0.792 L9.411,0.126 L8.394,0.126 L8.394,4.779 L9.411,4.779 L9.411,2.313 C9.411,1.917 9.528,1.602 9.78,1.359 C9.996,1.143 10.239,1.044 10.509,1.044 C10.725,1.044 10.941,1.071 11.175,1.143 L11.175,0.117 C11.013,0.036 10.815,0 10.59,0 Z" id="路径"></path>
            </g>
        </g>
    </g>
</svg>