<?xml version="1.0" encoding="UTF-8"?>
<svg width="20px" height="20px" viewBox="0 0 20 20" version="1.1" xmlns="http://www.w3.org/2000/svg" xmlns:xlink="http://www.w3.org/1999/xlink">
    <title>1/图标/清除</title>
    <g id="ai新版" stroke="none" stroke-width="1" fill="none" fill-rule="evenodd">
        <g id="1/图标/清除" transform="translate(1.5, 1)" fill="#333333" fill-rule="nonzero">
            <g id="清除数据库">
                <path d="M16.5845602,6.1493364 L13.5152771,4.56153859 L15.2342661,1.09303479 C15.4745721,0.842614536 15.4769776,0.443477068 15.2397081,0.190074331 C14.9947109,-0.0576115444 14.6012525,-0.0640320604 14.348582,0.175532794 L12.4452455,4.00965247 L9.79907719,2.64690234 C9.51541338,2.50148693 9.24875581,2.42808677 9.00726744,2.42808677 C8.56986738,2.42808677 8.28484308,2.66075142 8.16171803,2.88095191 L8.13926981,2.92526899 C6.19375788,7.29050115 0.578302966,9.69539508 0.519801562,9.72032344 C0.274911951,9.83042368 0.102128721,10.0256958 0.0327433385,10.2694397 C-0.0808582244,10.6689859 0.134100431,11.0262923 0.178316611,11.0941529 L0.247021749,11.1994059 L10.5017743,17.6641596 C10.8623063,17.8898998 11.1697788,18 11.4405178,18 C11.6990124,18 11.8588709,17.8989017 11.9330181,17.8358883 L11.9615885,17.8102675 C15.6696254,14.2150446 16.8634623,8.92954059 16.9804651,7.71082095 C17.0797815,6.66521488 16.7777509,6.28574992 16.5845602,6.1493364 Z M15.8505717,7.59656598 C15.8498914,7.60487543 15.7342491,8.48567735 15.3356232,9.8103425 C13.4833054,8.88383859 9.2528373,6.40000487 7.86512949,5.58013893 C8.33888243,4.96707902 8.74707142,4.30434747 9.08277507,3.60318179 C9.12903201,3.6149535 9.19773714,3.6391894 9.29093124,3.68627631 C9.87662557,3.98680149 14.2866794,6.26082155 15.6267698,6.95189098 L15.8471704,7.0654535 C15.8628161,7.15201029 15.8771014,7.31681443 15.8505717,7.59656598 L15.8505717,7.59656598 Z M10.6847613,13.4845053 C10.9333749,13.2352221 10.9397322,12.8290695 10.6990465,12.5718504 C10.4540493,12.3241645 10.0605909,12.317744 9.80792042,12.5573089 L7.83859977,14.5100301 C7.81627663,14.5320273 7.79579793,14.5558845 7.77737737,14.5813529 L4.77952035,12.691645 L6.79509793,11.2852703 C7.08244359,11.0831423 7.1564609,10.683256 6.96107867,10.3885419 C6.86712937,10.2478074 6.72208121,10.1508551 6.55787562,10.1190353 C6.39367004,10.0872154 6.22377312,10.1231373 6.0855983,10.2188906 L3.81968911,11.7997638 C3.75202131,11.8474219 3.69442588,11.9084054 3.65030712,11.9791095 L1.42929438,10.5796593 C2.54898412,10.0478543 5.07678914,8.6927212 7.11073343,6.47686731 C8.54197718,7.32443142 13.0459053,9.97445419 14.966248,10.9182695 C14.3635475,12.5607711 13.2520207,14.8888026 11.3439225,16.8055163 C11.2577334,16.7684412 11.1746892,16.7242055 11.0956316,16.6732575 L8.87802015,15.2751922 L10.6847613,13.4845053 L10.6847613,13.4845053 Z" id="形状"></path>
            </g>
        </g>
    </g>
</svg>