<?xml version="1.0" encoding="UTF-8"?>
<svg width="20px" height="20px" viewBox="0 0 20 20" version="1.1" xmlns="http://www.w3.org/2000/svg" xmlns:xlink="http://www.w3.org/1999/xlink">
    <title>rfa2</title>
    <g id="文件图标" stroke="none" stroke-width="1" fill="none" fill-rule="evenodd">
        <g id="编组-3">
            <g id="编组" transform="translate(4.444444, 0.000000)" fill-rule="nonzero">
                <path d="M0.729143889,19.5242862 L14.8264117,19.5242862 C14.960342,19.5235005 15.0684874,19.4169183 15.0684874,19.2857149 L15.0684874,5.23858516 L10.9371582,5.23858516 C10.5344632,5.23858516 10.2080143,4.91878886 10.2080143,4.52430012 L10.2080143,0.475732442 L0.729143889,0.475732442 C0.664554638,0.475732442 0.602610796,0.500867553 0.556939301,0.545608337 C0.511267806,0.590349121 0.485609836,0.651030645 0.485609836,0.714303666 L0.485609836,19.2857149 C0.485609836,19.4171434 0.594981412,19.5242862 0.729143889,19.5242862 Z" id="路径" fill="#FFFFFF"></path>
                <path d="M14.9678656,4.76144275 L10.6950824,0.575732349 L10.6950824,4.52430012 C10.6950824,4.65572857 10.8029957,4.76144275 10.9371582,4.76144275 L14.9678656,4.76144275 L14.9678656,4.76144275 Z" id="路径" fill="#FFFFFF"></path>
                <path d="M15.3411873,4.45430019 L11.0100726,0.210018412 C10.8733184,0.0747249558 10.6867371,-0.000961027697 10.4923805,9.2146362e-06 L0.729143889,9.2146362e-06 C0.326448839,9.2146362e-06 0,0.319814921 0,0.714303666 L0,19.2857149 C0,19.6802037 0.326448839,20.0000092 0.729143889,20.0000092 L14.8264117,20.0000092 C15.2291067,20.0000092 15.5555556,19.6802037 15.5555556,19.2857149 L15.5555556,4.95858542 C15.5555556,4.76924268 15.4782987,4.58775259 15.3411873,4.45430019 Z M10.6936242,0.574303796 L14.9678656,4.76144275 L10.9371582,4.76144275 C10.8032255,4.76144275 10.6944262,4.65550112 10.6936242,4.52430012 L10.6936242,0.574303796 Z M14.8264117,19.5242862 L0.729143889,19.5242862 C0.664554638,19.5242862 0.602610796,19.4991511 0.556939301,19.4544103 C0.511267806,19.4096695 0.485609836,19.348988 0.485609836,19.2857149 L0.485609836,0.714303666 C0.485609836,0.582875214 0.594981412,0.475732442 0.729143889,0.475732442 L10.2080143,0.475732442 L10.2080143,4.52430012 C10.2080143,4.91878886 10.5344632,5.23858516 10.9371582,5.23858516 L15.0684874,5.23858516 L15.0684874,19.2857149 C15.0684874,19.4169183 14.960342,19.5235005 14.8264117,19.5242862 L14.8264117,19.5242862 Z" id="形状" fill="#605E5C" opacity="0.64"></path>
            </g>
            <g id="编组-4备份" transform="translate(0.000000, 7.000000)">
                <path d="M19,0 C19.5522847,-1.01453063e-16 20,0.44771525 20,1 L20,7.88888889 C20,8.44117364 19.5522847,8.88888889 19,8.88888889 L1,8.88888889 C0.44771525,8.88888889 6.76353751e-17,8.44117364 0,7.88888889 L0,1 C-6.76353751e-17,0.44771525 0.44771525,1.01453063e-16 1,0 L19,0 Z M19.0444832,0.504211426 L1.03848839,0.504211426 C0.762346013,0.504211426 0.538488388,0.728069051 0.538488388,1.00421143 L0.538488388,7.94127083 C0.538488388,8.2174132 0.762346013,8.44127083 1.03848839,8.44127083 L19.0444832,8.44127083 C19.3206256,8.44127083 19.5444832,8.2174132 19.5444832,7.94127083 L19.5444832,1.00421143 C19.5444832,0.728069051 19.3206256,0.504211426 19.0444832,0.504211426 Z" id="形状结合" fill="#0563B2"></path>
                <path d="M1.03848839,0.504211426 L19.0444832,0.504211426 C19.3206256,0.504211426 19.5444832,0.728069051 19.5444832,1.00421143 L19.5444832,7.94127083 C19.5444832,8.2174132 19.3206256,8.44127083 19.0444832,8.44127083 L1.03848839,8.44127083 C0.762346013,8.44127083 0.538488388,8.2174132 0.538488388,7.94127083 L0.538488388,1.00421143 C0.538488388,0.728069051 0.762346013,0.504211426 1.03848839,0.504211426 Z" id="矩形备份-25" fill="#FFFFFF"></path>
            </g>
            <g id="rfa" transform="translate(5.624000, 8.574000)" fill="#0563B2" fill-rule="nonzero">
                <path d="M2.196,1.647 C1.908,1.647 1.665,1.728 1.458,1.899 C1.287,2.025 1.143,2.205 1.017,2.439 L1.017,1.773 L0,1.773 L0,6.426 L1.017,6.426 L1.017,3.96 C1.017,3.564 1.134,3.249 1.386,3.006 C1.602,2.79 1.845,2.691 2.115,2.691 C2.331,2.691 2.547,2.718 2.781,2.79 L2.781,1.764 C2.619,1.683 2.421,1.647 2.196,1.647 Z" id="路径"></path>
                <path d="M5.193,0 C4.779,0 4.455,0.108 4.239,0.342 C4.014,0.567 3.906,0.882 3.906,1.278 L3.906,1.773 L2.871,1.773 L2.871,2.61 L3.906,2.61 L3.906,6.426 L4.932,6.426 L4.932,2.61 L6.12,2.61 L6.12,1.773 L4.932,1.773 L4.932,1.305 C4.932,1.152 4.959,1.044 5.031,0.972 C5.103,0.9 5.202,0.864 5.337,0.864 L6.183,0.864 L6.183,0 L5.193,0 Z" id="路径"></path>
                <path d="M8.883,1.647 C8.289,1.647 7.821,1.746 7.479,1.962 C7.074,2.196 6.822,2.574 6.723,3.087 L7.74,3.168 C7.794,2.925 7.929,2.745 8.127,2.628 C8.298,2.52 8.523,2.475 8.811,2.475 C9.477,2.475 9.81,2.772 9.81,3.384 L9.81,3.564 L8.793,3.591 C8.109,3.609 7.578,3.753 7.2,4.023 C6.786,4.302 6.588,4.707 6.588,5.229 C6.588,5.616 6.732,5.931 7.02,6.183 C7.299,6.426 7.677,6.552 8.163,6.552 C8.568,6.552 8.919,6.48 9.216,6.345 C9.477,6.219 9.702,6.048 9.882,5.814 L9.882,6.426 L10.836,6.426 L10.836,3.456 C10.836,2.889 10.692,2.457 10.404,2.16 C10.08,1.818 9.567,1.647 8.883,1.647 Z M9.81,4.302 L9.81,4.536 C9.81,4.896 9.666,5.193 9.396,5.427 C9.126,5.652 8.793,5.769 8.397,5.769 C8.172,5.769 7.992,5.706 7.848,5.598 C7.704,5.49 7.641,5.355 7.641,5.193 C7.641,4.635 8.046,4.347 8.865,4.329 L9.81,4.302 Z" id="形状"></path>
            </g>
        </g>
    </g>
</svg>