<?xml version="1.0" encoding="UTF-8"?>
<svg width="20px" height="20px" viewBox="0 0 20 20" version="1.1" xmlns="http://www.w3.org/2000/svg" xmlns:xlink="http://www.w3.org/1999/xlink">
    <title>rvt</title>
    <g id="文件图标" stroke="none" stroke-width="1" fill="none" fill-rule="evenodd">
        <g id="编组-3">
            <g id="编组" transform="translate(4.444444, 0.000000)" fill-rule="nonzero">
                <path d="M0.729143889,19.5242862 L14.8264117,19.5242862 C14.960342,19.5235005 15.0684874,19.4169183 15.0684874,19.2857149 L15.0684874,5.23858516 L10.9371582,5.23858516 C10.5344632,5.23858516 10.2080143,4.91878886 10.2080143,4.52430012 L10.2080143,0.475732442 L0.729143889,0.475732442 C0.664554638,0.475732442 0.602610796,0.500867553 0.556939301,0.545608337 C0.511267806,0.590349121 0.485609836,0.651030645 0.485609836,0.714303666 L0.485609836,19.2857149 C0.485609836,19.4171434 0.594981412,19.5242862 0.729143889,19.5242862 Z" id="路径" fill="#FFFFFF"></path>
                <path d="M14.9678656,4.76144275 L10.6950824,0.575732349 L10.6950824,4.52430012 C10.6950824,4.65572857 10.8029957,4.76144275 10.9371582,4.76144275 L14.9678656,4.76144275 L14.9678656,4.76144275 Z" id="路径" fill="#FFFFFF"></path>
                <path d="M15.3411873,4.45430019 L11.0100726,0.210018412 C10.8733184,0.0747249558 10.6867371,-0.000961027697 10.4923805,9.2146362e-06 L0.729143889,9.2146362e-06 C0.326448839,9.2146362e-06 0,0.319814921 0,0.714303666 L0,19.2857149 C0,19.6802037 0.326448839,20.0000092 0.729143889,20.0000092 L14.8264117,20.0000092 C15.2291067,20.0000092 15.5555556,19.6802037 15.5555556,19.2857149 L15.5555556,4.95858542 C15.5555556,4.76924268 15.4782987,4.58775259 15.3411873,4.45430019 Z M10.6936242,0.574303796 L14.9678656,4.76144275 L10.9371582,4.76144275 C10.8032255,4.76144275 10.6944262,4.65550112 10.6936242,4.52430012 L10.6936242,0.574303796 Z M14.8264117,19.5242862 L0.729143889,19.5242862 C0.664554638,19.5242862 0.602610796,19.4991511 0.556939301,19.4544103 C0.511267806,19.4096695 0.485609836,19.348988 0.485609836,19.2857149 L0.485609836,0.714303666 C0.485609836,0.582875214 0.594981412,0.475732442 0.729143889,0.475732442 L10.2080143,0.475732442 L10.2080143,4.52430012 C10.2080143,4.91878886 10.5344632,5.23858516 10.9371582,5.23858516 L15.0684874,5.23858516 L15.0684874,19.2857149 C15.0684874,19.4169183 14.960342,19.5235005 14.8264117,19.5242862 L14.8264117,19.5242862 Z" id="形状" fill="#605E5C" opacity="0.64"></path>
            </g>
            <rect id="矩形" fill="#0563B2" x="0" y="6.66666667" width="20" height="8.88888889" rx="1"></rect>
            <g id="rvt" transform="translate(5.362000, 7.844000)" fill="#FFFFFF" fill-rule="nonzero">
                <path d="M2.196,1.377 C1.908,1.377 1.665,1.458 1.458,1.629 C1.287,1.755 1.143,1.935 1.017,2.169 L1.017,1.503 L0,1.503 L0,6.156 L1.017,6.156 L1.017,3.69 C1.017,3.294 1.134,2.979 1.386,2.736 C1.602,2.52 1.845,2.421 2.115,2.421 C2.331,2.421 2.547,2.448 2.781,2.52 L2.781,1.494 C2.619,1.413 2.421,1.377 2.196,1.377 Z" id="路径"></path>
                <polygon id="路径" points="2.871 1.503 4.59 6.156 5.616 6.156 7.335 1.503 6.219 1.503 5.103 4.878 3.987 1.503"></polygon>
                <path d="M9.378,0 L8.352,0.423 L8.352,1.503 L7.515,1.503 L7.515,2.349 L8.352,2.349 L8.352,4.977 C8.352,5.355 8.442,5.634 8.622,5.832 C8.811,6.048 9.108,6.156 9.513,6.156 L10.296,6.156 L10.296,5.31 L9.684,5.31 C9.576,5.31 9.504,5.283 9.45,5.229 C9.396,5.166 9.378,5.085 9.378,4.977 L9.378,2.349 L10.413,2.349 L10.413,1.503 L9.378,1.503 L9.378,0 Z" id="路径"></path>
            </g>
        </g>
    </g>
</svg>