<?xml version="1.0" encoding="UTF-8"?>
<svg width="20px" height="20px" viewBox="0 0 20 20" version="1.1" xmlns="http://www.w3.org/2000/svg" xmlns:xlink="http://www.w3.org/1999/xlink">
    <title>sab</title>
    <g id="文件图标" stroke="none" stroke-width="1" fill="none" fill-rule="evenodd">
        <g id="编组-3">
            <g id="编组" transform="translate(4.444444, 0.000000)" fill-rule="nonzero">
                <path d="M0.729143889,19.5242862 L14.8264117,19.5242862 C14.960342,19.5235005 15.0684874,19.4169183 15.0684874,19.2857149 L15.0684874,5.23858516 L10.9371582,5.23858516 C10.5344632,5.23858516 10.2080143,4.91878886 10.2080143,4.52430012 L10.2080143,0.475732442 L0.729143889,0.475732442 C0.664554638,0.475732442 0.602610796,0.500867553 0.556939301,0.545608337 C0.511267806,0.590349121 0.485609836,0.651030645 0.485609836,0.714303666 L0.485609836,19.2857149 C0.485609836,19.4171434 0.594981412,19.5242862 0.729143889,19.5242862 Z" id="路径" fill="#FFFFFF"></path>
                <path d="M14.9678656,4.76144275 L10.6950824,0.575732349 L10.6950824,4.52430012 C10.6950824,4.65572857 10.8029957,4.76144275 10.9371582,4.76144275 L14.9678656,4.76144275 L14.9678656,4.76144275 Z" id="路径" fill="#FFFFFF"></path>
                <path d="M15.3411873,4.45430019 L11.0100726,0.210018412 C10.8733184,0.0747249558 10.6867371,-0.000961027697 10.4923805,9.2146362e-06 L0.729143889,9.2146362e-06 C0.326448839,9.2146362e-06 0,0.319814921 0,0.714303666 L0,19.2857149 C0,19.6802037 0.326448839,20.0000092 0.729143889,20.0000092 L14.8264117,20.0000092 C15.2291067,20.0000092 15.5555556,19.6802037 15.5555556,19.2857149 L15.5555556,4.95858542 C15.5555556,4.76924268 15.4782987,4.58775259 15.3411873,4.45430019 Z M10.6936242,0.574303796 L14.9678656,4.76144275 L10.9371582,4.76144275 C10.8032255,4.76144275 10.6944262,4.65550112 10.6936242,4.52430012 L10.6936242,0.574303796 Z M14.8264117,19.5242862 L0.729143889,19.5242862 C0.664554638,19.5242862 0.602610796,19.4991511 0.556939301,19.4544103 C0.511267806,19.4096695 0.485609836,19.348988 0.485609836,19.2857149 L0.485609836,0.714303666 C0.485609836,0.582875214 0.594981412,0.475732442 0.729143889,0.475732442 L10.2080143,0.475732442 L10.2080143,4.52430012 C10.2080143,4.91878886 10.5344632,5.23858516 10.9371582,5.23858516 L15.0684874,5.23858516 L15.0684874,19.2857149 C15.0684874,19.4169183 14.960342,19.5235005 14.8264117,19.5242862 L14.8264117,19.5242862 Z" id="形状" fill="#605E5C" opacity="0.64"></path>
            </g>
            <rect id="矩形" fill="#0563B2" x="0" y="6.66666667" width="20" height="8.88888889" rx="1"></rect>
            <g id="sab" transform="translate(3.159000, 7.448000)" fill="#FFFFFF" fill-rule="nonzero">
                <path d="M2.025,1.773 C1.449,1.773 0.99,1.89 0.639,2.142 C0.279,2.376 0.108,2.709 0.108,3.141 C0.108,3.546 0.288,3.861 0.648,4.086 C0.873,4.23 1.26,4.365 1.809,4.491 C2.277,4.599 2.583,4.68 2.727,4.752 C2.997,4.878 3.132,5.049 3.132,5.265 C3.132,5.643 2.772,5.841 2.052,5.841 C1.71,5.841 1.467,5.778 1.314,5.67 C1.161,5.544 1.053,5.337 0.999,5.04 L0,5.04 C0.099,6.129 0.792,6.678 2.088,6.678 C3.483,6.678 4.185,6.183 4.185,5.193 C4.185,4.779 3.996,4.446 3.627,4.212 C3.375,4.041 2.979,3.897 2.457,3.771 C1.989,3.654 1.683,3.564 1.53,3.501 C1.278,3.393 1.161,3.258 1.161,3.114 C1.161,2.934 1.233,2.808 1.395,2.727 C1.53,2.646 1.737,2.61 2.007,2.61 C2.322,2.61 2.556,2.655 2.709,2.754 C2.853,2.844 2.961,3.015 3.033,3.249 L4.032,3.249 C3.924,2.259 3.249,1.773 2.025,1.773 Z" id="路径"></path>
                <path d="M7.05,1.773 C6.456,1.773 5.988,1.872 5.646,2.088 C5.241,2.322 4.989,2.7 4.89,3.213 L5.907,3.294 C5.961,3.051 6.096,2.871 6.294,2.754 C6.465,2.646 6.69,2.601 6.978,2.601 C7.644,2.601 7.977,2.898 7.977,3.51 L7.977,3.69 L6.96,3.717 C6.276,3.735 5.745,3.879 5.367,4.149 C4.953,4.428 4.755,4.833 4.755,5.355 C4.755,5.742 4.899,6.057 5.187,6.309 C5.466,6.552 5.844,6.678 6.33,6.678 C6.735,6.678 7.086,6.606 7.383,6.471 C7.644,6.345 7.869,6.174 8.049,5.94 L8.049,6.552 L9.003,6.552 L9.003,3.582 C9.003,3.015 8.859,2.583 8.571,2.286 C8.247,1.944 7.734,1.773 7.05,1.773 Z M7.977,4.428 L7.977,4.662 C7.977,5.022 7.833,5.319 7.563,5.553 C7.293,5.778 6.96,5.895 6.564,5.895 C6.339,5.895 6.159,5.832 6.015,5.724 C5.871,5.616 5.808,5.481 5.808,5.319 C5.808,4.761 6.213,4.473 7.032,4.455 L7.977,4.428 Z" id="形状"></path>
                <path d="M10.023,0 L10.023,6.552 L10.977,6.552 L10.977,6.057 C11.301,6.471 11.769,6.678 12.381,6.678 C13.065,6.678 13.605,6.435 14.001,5.949 C14.361,5.499 14.541,4.914 14.541,4.203 C14.541,3.519 14.361,2.952 14.01,2.502 C13.623,2.016 13.101,1.773 12.435,1.773 C11.895,1.773 11.427,2.025 11.049,2.538 L11.049,0 L10.023,0 Z M12.192,2.601 C12.651,2.601 12.993,2.754 13.209,3.06 C13.389,3.321 13.488,3.699 13.488,4.203 C13.488,4.707 13.398,5.094 13.227,5.364 C13.011,5.688 12.678,5.85 12.228,5.85 C11.823,5.85 11.517,5.688 11.301,5.373 C11.103,5.085 11.013,4.707 11.013,4.257 L11.013,4.185 C11.013,3.69 11.13,3.294 11.373,3.006 C11.589,2.736 11.859,2.601 12.192,2.601 Z" id="形状"></path>
            </g>
        </g>
    </g>
</svg>