<?xml version="1.0" encoding="UTF-8"?>
<svg width="20px" height="20px" viewBox="0 0 20 20" version="1.1" xmlns="http://www.w3.org/2000/svg" xmlns:xlink="http://www.w3.org/1999/xlink">
    <title>sam</title>
    <g id="文件图标" stroke="none" stroke-width="1" fill="none" fill-rule="evenodd">
        <g id="编组-3">
            <g id="编组" transform="translate(4.444444, 0.000000)" fill-rule="nonzero">
                <path d="M0.729143889,19.5242862 L14.8264117,19.5242862 C14.960342,19.5235005 15.0684874,19.4169183 15.0684874,19.2857149 L15.0684874,5.23858516 L10.9371582,5.23858516 C10.5344632,5.23858516 10.2080143,4.91878886 10.2080143,4.52430012 L10.2080143,0.475732442 L0.729143889,0.475732442 C0.664554638,0.475732442 0.602610796,0.500867553 0.556939301,0.545608337 C0.511267806,0.590349121 0.485609836,0.651030645 0.485609836,0.714303666 L0.485609836,19.2857149 C0.485609836,19.4171434 0.594981412,19.5242862 0.729143889,19.5242862 Z" id="路径" fill="#FFFFFF"></path>
                <path d="M14.9678656,4.76144275 L10.6950824,0.575732349 L10.6950824,4.52430012 C10.6950824,4.65572857 10.8029957,4.76144275 10.9371582,4.76144275 L14.9678656,4.76144275 L14.9678656,4.76144275 Z" id="路径" fill="#FFFFFF"></path>
                <path d="M15.3411873,4.45430019 L11.0100726,0.210018412 C10.8733184,0.0747249558 10.6867371,-0.000961027697 10.4923805,9.2146362e-06 L0.729143889,9.2146362e-06 C0.326448839,9.2146362e-06 0,0.319814921 0,0.714303666 L0,19.2857149 C0,19.6802037 0.326448839,20.0000092 0.729143889,20.0000092 L14.8264117,20.0000092 C15.2291067,20.0000092 15.5555556,19.6802037 15.5555556,19.2857149 L15.5555556,4.95858542 C15.5555556,4.76924268 15.4782987,4.58775259 15.3411873,4.45430019 Z M10.6936242,0.574303796 L14.9678656,4.76144275 L10.9371582,4.76144275 C10.8032255,4.76144275 10.6944262,4.65550112 10.6936242,4.52430012 L10.6936242,0.574303796 Z M14.8264117,19.5242862 L0.729143889,19.5242862 C0.664554638,19.5242862 0.602610796,19.4991511 0.556939301,19.4544103 C0.511267806,19.4096695 0.485609836,19.348988 0.485609836,19.2857149 L0.485609836,0.714303666 C0.485609836,0.582875214 0.594981412,0.475732442 0.729143889,0.475732442 L10.2080143,0.475732442 L10.2080143,4.52430012 C10.2080143,4.91878886 10.5344632,5.23858516 10.9371582,5.23858516 L15.0684874,5.23858516 L15.0684874,19.2857149 C15.0684874,19.4169183 14.960342,19.5235005 14.8264117,19.5242862 L14.8264117,19.5242862 Z" id="形状" fill="#605E5C" opacity="0.64"></path>
            </g>
            <rect id="矩形" fill="#0563B2" x="0" y="6.66666667" width="20" height="8.88888889" rx="1"></rect>
            <g id="sam" transform="translate(1.621000, 9.221000)" fill="#FFFFFF" fill-rule="nonzero">
                <path d="M2.025,0 C1.449,0 0.99,0.117 0.639,0.369 C0.279,0.603 0.108,0.936 0.108,1.368 C0.108,1.773 0.288,2.088 0.648,2.313 C0.873,2.457 1.26,2.592 1.809,2.718 C2.277,2.826 2.583,2.907 2.727,2.979 C2.997,3.105 3.132,3.276 3.132,3.492 C3.132,3.87 2.772,4.068 2.052,4.068 C1.71,4.068 1.467,4.005 1.314,3.897 C1.161,3.771 1.053,3.564 0.999,3.267 L0,3.267 C0.099,4.356 0.792,4.905 2.088,4.905 C3.483,4.905 4.185,4.41 4.185,3.42 C4.185,3.006 3.996,2.673 3.627,2.439 C3.375,2.268 2.979,2.124 2.457,1.998 C1.989,1.881 1.683,1.791 1.53,1.728 C1.278,1.62 1.161,1.485 1.161,1.341 C1.161,1.161 1.233,1.035 1.395,0.954 C1.53,0.873 1.737,0.837 2.007,0.837 C2.322,0.837 2.556,0.882 2.709,0.981 C2.853,1.071 2.961,1.242 3.033,1.476 L4.032,1.476 C3.924,0.486 3.249,0 2.025,0 Z" id="路径"></path>
                <path d="M7.05,0 C6.456,0 5.988,0.099 5.646,0.315 C5.241,0.549 4.989,0.927 4.89,1.44 L5.907,1.521 C5.961,1.278 6.096,1.098 6.294,0.981 C6.465,0.873 6.69,0.828 6.978,0.828 C7.644,0.828 7.977,1.125 7.977,1.737 L7.977,1.917 L6.96,1.944 C6.276,1.962 5.745,2.106 5.367,2.376 C4.953,2.655 4.755,3.06 4.755,3.582 C4.755,3.969 4.899,4.284 5.187,4.536 C5.466,4.779 5.844,4.905 6.33,4.905 C6.735,4.905 7.086,4.833 7.383,4.698 C7.644,4.572 7.869,4.401 8.049,4.167 L8.049,4.779 L9.003,4.779 L9.003,1.809 C9.003,1.242 8.859,0.81 8.571,0.513 C8.247,0.171 7.734,0 7.05,0 Z M7.977,2.655 L7.977,2.889 C7.977,3.249 7.833,3.546 7.563,3.78 C7.293,4.005 6.96,4.122 6.564,4.122 C6.339,4.122 6.159,4.059 6.015,3.951 C5.871,3.843 5.808,3.708 5.808,3.546 C5.808,2.988 6.213,2.7 7.032,2.682 L7.977,2.655 Z" id="形状"></path>
                <path d="M12.309,0 C11.859,0 11.436,0.198 11.049,0.603 L11.049,0.126 L10.023,0.126 L10.023,4.779 L11.049,4.779 L11.049,1.989 C11.049,1.683 11.139,1.413 11.319,1.197 C11.499,0.963 11.733,0.855 12.03,0.855 C12.642,0.855 12.948,1.206 12.948,1.917 L12.948,4.779 L13.974,4.779 L13.974,1.935 C13.974,1.593 14.055,1.332 14.235,1.143 C14.406,0.945 14.613,0.855 14.865,0.855 C15.225,0.855 15.477,0.936 15.639,1.107 C15.792,1.269 15.873,1.539 15.873,1.908 L15.873,4.779 L16.899,4.779 L16.899,1.728 C16.899,1.215 16.737,0.801 16.431,0.477 C16.107,0.153 15.711,0 15.234,0 C14.919,0 14.658,0.054 14.451,0.162 C14.217,0.27 13.992,0.468 13.776,0.756 C13.479,0.252 12.993,0 12.309,0 Z" id="路径"></path>
            </g>
        </g>
    </g>
</svg>