<?xml version="1.0" encoding="UTF-8"?>
<svg width="20px" height="20px" viewBox="0 0 20 20" version="1.1" xmlns="http://www.w3.org/2000/svg" xmlns:xlink="http://www.w3.org/1999/xlink">
    <title>sat</title>
    <g id="文件图标" stroke="none" stroke-width="1" fill="none" fill-rule="evenodd">
        <g id="编组-3">
            <g id="编组" transform="translate(4.444444, 0.000000)" fill-rule="nonzero">
                <path d="M0.729143889,19.5242862 L14.8264117,19.5242862 C14.960342,19.5235005 15.0684874,19.4169183 15.0684874,19.2857149 L15.0684874,5.23858516 L10.9371582,5.23858516 C10.5344632,5.23858516 10.2080143,4.91878886 10.2080143,4.52430012 L10.2080143,0.475732442 L0.729143889,0.475732442 C0.664554638,0.475732442 0.602610796,0.500867553 0.556939301,0.545608337 C0.511267806,0.590349121 0.485609836,0.651030645 0.485609836,0.714303666 L0.485609836,19.2857149 C0.485609836,19.4171434 0.594981412,19.5242862 0.729143889,19.5242862 Z" id="路径" fill="#FFFFFF"></path>
                <path d="M14.9678656,4.76144275 L10.6950824,0.575732349 L10.6950824,4.52430012 C10.6950824,4.65572857 10.8029957,4.76144275 10.9371582,4.76144275 L14.9678656,4.76144275 L14.9678656,4.76144275 Z" id="路径" fill="#FFFFFF"></path>
                <path d="M15.3411873,4.45430019 L11.0100726,0.210018412 C10.8733184,0.0747249558 10.6867371,-0.000961027697 10.4923805,9.2146362e-06 L0.729143889,9.2146362e-06 C0.326448839,9.2146362e-06 0,0.319814921 0,0.714303666 L0,19.2857149 C0,19.6802037 0.326448839,20.0000092 0.729143889,20.0000092 L14.8264117,20.0000092 C15.2291067,20.0000092 15.5555556,19.6802037 15.5555556,19.2857149 L15.5555556,4.95858542 C15.5555556,4.76924268 15.4782987,4.58775259 15.3411873,4.45430019 Z M10.6936242,0.574303796 L14.9678656,4.76144275 L10.9371582,4.76144275 C10.8032255,4.76144275 10.6944262,4.65550112 10.6936242,4.52430012 L10.6936242,0.574303796 Z M14.8264117,19.5242862 L0.729143889,19.5242862 C0.664554638,19.5242862 0.602610796,19.4991511 0.556939301,19.4544103 C0.511267806,19.4096695 0.485609836,19.348988 0.485609836,19.2857149 L0.485609836,0.714303666 C0.485609836,0.582875214 0.594981412,0.475732442 0.729143889,0.475732442 L10.2080143,0.475732442 L10.2080143,4.52430012 C10.2080143,4.91878886 10.5344632,5.23858516 10.9371582,5.23858516 L15.0684874,5.23858516 L15.0684874,19.2857149 C15.0684874,19.4169183 14.960342,19.5235005 14.8264117,19.5242862 L14.8264117,19.5242862 Z" id="形状" fill="#605E5C" opacity="0.64"></path>
            </g>
            <rect id="矩形" fill="#0563B2" x="0" y="6.66666667" width="20" height="8.88888889" rx="1"></rect>
            <g id="sat" transform="translate(3.319000, 7.844000)" fill="#FFFFFF" fill-rule="nonzero">
                <path d="M2.025,1.377 C1.449,1.377 0.99,1.494 0.639,1.746 C0.279,1.98 0.108,2.313 0.108,2.745 C0.108,3.15 0.288,3.465 0.648,3.69 C0.873,3.834 1.26,3.969 1.809,4.095 C2.277,4.203 2.583,4.284 2.727,4.356 C2.997,4.482 3.132,4.653 3.132,4.869 C3.132,5.247 2.772,5.445 2.052,5.445 C1.71,5.445 1.467,5.382 1.314,5.274 C1.161,5.148 1.053,4.941 0.999,4.644 L0,4.644 C0.099,5.733 0.792,6.282 2.088,6.282 C3.483,6.282 4.185,5.787 4.185,4.797 C4.185,4.383 3.996,4.05 3.627,3.816 C3.375,3.645 2.979,3.501 2.457,3.375 C1.989,3.258 1.683,3.168 1.53,3.105 C1.278,2.997 1.161,2.862 1.161,2.718 C1.161,2.538 1.233,2.412 1.395,2.331 C1.53,2.25 1.737,2.214 2.007,2.214 C2.322,2.214 2.556,2.259 2.709,2.358 C2.853,2.448 2.961,2.619 3.033,2.853 L4.032,2.853 C3.924,1.863 3.249,1.377 2.025,1.377 Z" id="路径"></path>
                <path d="M7.05,1.377 C6.456,1.377 5.988,1.476 5.646,1.692 C5.241,1.926 4.989,2.304 4.89,2.817 L5.907,2.898 C5.961,2.655 6.096,2.475 6.294,2.358 C6.465,2.25 6.69,2.205 6.978,2.205 C7.644,2.205 7.977,2.502 7.977,3.114 L7.977,3.294 L6.96,3.321 C6.276,3.339 5.745,3.483 5.367,3.753 C4.953,4.032 4.755,4.437 4.755,4.959 C4.755,5.346 4.899,5.661 5.187,5.913 C5.466,6.156 5.844,6.282 6.33,6.282 C6.735,6.282 7.086,6.21 7.383,6.075 C7.644,5.949 7.869,5.778 8.049,5.544 L8.049,6.156 L9.003,6.156 L9.003,3.186 C9.003,2.619 8.859,2.187 8.571,1.89 C8.247,1.548 7.734,1.377 7.05,1.377 Z M7.977,4.032 L7.977,4.266 C7.977,4.626 7.833,4.923 7.563,5.157 C7.293,5.382 6.96,5.499 6.564,5.499 C6.339,5.499 6.159,5.436 6.015,5.328 C5.871,5.22 5.808,5.085 5.808,4.923 C5.808,4.365 6.213,4.077 7.032,4.059 L7.977,4.032 Z" id="形状"></path>
                <path d="M11.481,0 L10.455,0.423 L10.455,1.503 L9.618,1.503 L9.618,2.349 L10.455,2.349 L10.455,4.977 C10.455,5.355 10.545,5.634 10.725,5.832 C10.914,6.048 11.211,6.156 11.616,6.156 L12.399,6.156 L12.399,5.31 L11.787,5.31 C11.679,5.31 11.607,5.283 11.553,5.229 C11.499,5.166 11.481,5.085 11.481,4.977 L11.481,2.349 L12.516,2.349 L12.516,1.503 L11.481,1.503 L11.481,0 Z" id="路径"></path>
            </g>
        </g>
    </g>
</svg>