<?xml version="1.0" encoding="UTF-8"?>
<svg width="20px" height="20px" viewBox="0 0 20 20" version="1.1" xmlns="http://www.w3.org/2000/svg" xmlns:xlink="http://www.w3.org/1999/xlink">
    <title>sch</title>
    <g id="文件图标" stroke="none" stroke-width="1" fill="none" fill-rule="evenodd">
        <g id="编组-3">
            <g id="编组" transform="translate(4.444444, 0.000000)" fill-rule="nonzero">
                <path d="M0.729143889,19.5242862 L14.8264117,19.5242862 C14.960342,19.5235005 15.0684874,19.4169183 15.0684874,19.2857149 L15.0684874,5.23858516 L10.9371582,5.23858516 C10.5344632,5.23858516 10.2080143,4.91878886 10.2080143,4.52430012 L10.2080143,0.475732442 L0.729143889,0.475732442 C0.664554638,0.475732442 0.602610796,0.500867553 0.556939301,0.545608337 C0.511267806,0.590349121 0.485609836,0.651030645 0.485609836,0.714303666 L0.485609836,19.2857149 C0.485609836,19.4171434 0.594981412,19.5242862 0.729143889,19.5242862 Z" id="路径" fill="#FFFFFF"></path>
                <path d="M14.9678656,4.76144275 L10.6950824,0.575732349 L10.6950824,4.52430012 C10.6950824,4.65572857 10.8029957,4.76144275 10.9371582,4.76144275 L14.9678656,4.76144275 L14.9678656,4.76144275 Z" id="路径" fill="#FFFFFF"></path>
                <path d="M15.3411873,4.45430019 L11.0100726,0.210018412 C10.8733184,0.0747249558 10.6867371,-0.000961027697 10.4923805,9.2146362e-06 L0.729143889,9.2146362e-06 C0.326448839,9.2146362e-06 0,0.319814921 0,0.714303666 L0,19.2857149 C0,19.6802037 0.326448839,20.0000092 0.729143889,20.0000092 L14.8264117,20.0000092 C15.2291067,20.0000092 15.5555556,19.6802037 15.5555556,19.2857149 L15.5555556,4.95858542 C15.5555556,4.76924268 15.4782987,4.58775259 15.3411873,4.45430019 Z M10.6936242,0.574303796 L14.9678656,4.76144275 L10.9371582,4.76144275 C10.8032255,4.76144275 10.6944262,4.65550112 10.6936242,4.52430012 L10.6936242,0.574303796 Z M14.8264117,19.5242862 L0.729143889,19.5242862 C0.664554638,19.5242862 0.602610796,19.4991511 0.556939301,19.4544103 C0.511267806,19.4096695 0.485609836,19.348988 0.485609836,19.2857149 L0.485609836,0.714303666 C0.485609836,0.582875214 0.594981412,0.475732442 0.729143889,0.475732442 L10.2080143,0.475732442 L10.2080143,4.52430012 C10.2080143,4.91878886 10.5344632,5.23858516 10.9371582,5.23858516 L15.0684874,5.23858516 L15.0684874,19.2857149 C15.0684874,19.4169183 14.960342,19.5235005 14.8264117,19.5242862 L14.8264117,19.5242862 Z" id="形状" fill="#605E5C" opacity="0.64"></path>
            </g>
            <rect id="矩形" fill="#0563B2" x="0" y="6.66666667" width="20" height="8.88888889" rx="1"></rect>
            <g id="sch" transform="translate(2.483000, 7.448000)" fill="#FFFFFF" fill-rule="nonzero">
                <path d="M2.025,1.773 C1.449,1.773 0.99,1.89 0.639,2.142 C0.279,2.376 0.108,2.709 0.108,3.141 C0.108,3.546 0.288,3.861 0.648,4.086 C0.873,4.23 1.26,4.365 1.809,4.491 C2.277,4.599 2.583,4.68 2.727,4.752 C2.997,4.878 3.132,5.049 3.132,5.265 C3.132,5.643 2.772,5.841 2.052,5.841 C1.71,5.841 1.467,5.778 1.314,5.67 C1.161,5.544 1.053,5.337 0.999,5.04 L0,5.04 C0.099,6.129 0.792,6.678 2.088,6.678 C3.483,6.678 4.185,6.183 4.185,5.193 C4.185,4.779 3.996,4.446 3.627,4.212 C3.375,4.041 2.979,3.897 2.457,3.771 C1.989,3.654 1.683,3.564 1.53,3.501 C1.278,3.393 1.161,3.258 1.161,3.114 C1.161,2.934 1.233,2.808 1.395,2.727 C1.53,2.646 1.737,2.61 2.007,2.61 C2.322,2.61 2.556,2.655 2.709,2.754 C2.853,2.844 2.961,3.015 3.033,3.249 L4.032,3.249 C3.924,2.259 3.249,1.773 2.025,1.773 Z" id="路径"></path>
                <path d="M7.023,1.773 C6.294,1.773 5.727,2.016 5.322,2.502 C4.944,2.943 4.755,3.519 4.755,4.221 C4.755,4.941 4.944,5.526 5.331,5.976 C5.727,6.444 6.285,6.678 7.005,6.678 C7.608,6.678 8.094,6.525 8.454,6.228 C8.823,5.922 9.066,5.454 9.174,4.824 L8.157,4.824 C8.076,5.499 7.698,5.841 7.014,5.841 C6.618,5.841 6.321,5.697 6.123,5.418 C5.907,5.13 5.808,4.725 5.808,4.212 C5.808,3.708 5.916,3.312 6.132,3.033 C6.348,2.745 6.645,2.61 7.023,2.61 C7.329,2.61 7.581,2.682 7.77,2.826 C7.95,2.97 8.076,3.186 8.139,3.483 L9.156,3.483 C9.066,2.898 8.832,2.466 8.463,2.178 C8.103,1.908 7.626,1.773 7.023,1.773 Z" id="路径"></path>
                <path d="M9.924,0 L9.924,6.552 L10.95,6.552 L10.95,3.951 C10.95,3.555 11.04,3.24 11.229,2.988 C11.409,2.736 11.661,2.61 11.985,2.61 C12.336,2.61 12.597,2.718 12.777,2.943 C12.93,3.15 13.011,3.456 13.011,3.852 L13.011,6.552 L14.037,6.552 L14.037,3.672 C14.037,3.051 13.902,2.583 13.641,2.268 C13.362,1.935 12.939,1.773 12.372,1.773 C12.075,1.773 11.814,1.827 11.589,1.944 C11.337,2.07 11.121,2.259 10.95,2.52 L10.95,0 L9.924,0 Z" id="路径"></path>
            </g>
        </g>
    </g>
</svg>