<?xml version="1.0" encoding="UTF-8"?>
<svg width="20px" height="20px" viewBox="0 0 20 20" version="1.1" xmlns="http://www.w3.org/2000/svg" xmlns:xlink="http://www.w3.org/1999/xlink">
    <title>schdoc2 2</title>
    <g id="文件图标" stroke="none" stroke-width="1" fill="none" fill-rule="evenodd">
        <g id="编组-3">
            <g id="编组" transform="translate(4.444444, 0.000000)" fill-rule="nonzero">
                <path d="M0.729143889,19.5242862 L14.8264117,19.5242862 C14.960342,19.5235005 15.0684874,19.4169183 15.0684874,19.2857149 L15.0684874,5.23858516 L10.9371582,5.23858516 C10.5344632,5.23858516 10.2080143,4.91878886 10.2080143,4.52430012 L10.2080143,0.475732442 L0.729143889,0.475732442 C0.664554638,0.475732442 0.602610796,0.500867553 0.556939301,0.545608337 C0.511267806,0.590349121 0.485609836,0.651030645 0.485609836,0.714303666 L0.485609836,19.2857149 C0.485609836,19.4171434 0.594981412,19.5242862 0.729143889,19.5242862 Z" id="路径" fill="#FFFFFF"></path>
                <path d="M14.9678656,4.76144275 L10.6950824,0.575732349 L10.6950824,4.52430012 C10.6950824,4.65572857 10.8029957,4.76144275 10.9371582,4.76144275 L14.9678656,4.76144275 L14.9678656,4.76144275 Z" id="路径" fill="#FFFFFF"></path>
                <path d="M15.3411873,4.45430019 L11.0100726,0.210018412 C10.8733184,0.0747249558 10.6867371,-0.000961027697 10.4923805,9.2146362e-06 L0.729143889,9.2146362e-06 C0.326448839,9.2146362e-06 0,0.319814921 0,0.714303666 L0,19.2857149 C0,19.6802037 0.326448839,20.0000092 0.729143889,20.0000092 L14.8264117,20.0000092 C15.2291067,20.0000092 15.5555556,19.6802037 15.5555556,19.2857149 L15.5555556,4.95858542 C15.5555556,4.76924268 15.4782987,4.58775259 15.3411873,4.45430019 Z M10.6936242,0.574303796 L14.9678656,4.76144275 L10.9371582,4.76144275 C10.8032255,4.76144275 10.6944262,4.65550112 10.6936242,4.52430012 L10.6936242,0.574303796 Z M14.8264117,19.5242862 L0.729143889,19.5242862 C0.664554638,19.5242862 0.602610796,19.4991511 0.556939301,19.4544103 C0.511267806,19.4096695 0.485609836,19.348988 0.485609836,19.2857149 L0.485609836,0.714303666 C0.485609836,0.582875214 0.594981412,0.475732442 0.729143889,0.475732442 L10.2080143,0.475732442 L10.2080143,4.52430012 C10.2080143,4.91878886 10.5344632,5.23858516 10.9371582,5.23858516 L15.0684874,5.23858516 L15.0684874,19.2857149 C15.0684874,19.4169183 14.960342,19.5235005 14.8264117,19.5242862 L14.8264117,19.5242862 Z" id="形状" fill="#605E5C" opacity="0.64"></path>
            </g>
            <g id="编组-4备份" transform="translate(0.000000, 7.000000)">
                <path d="M19,0 C19.5522847,-1.01453063e-16 20,0.44771525 20,1 L20,7.88888889 C20,8.44117364 19.5522847,8.88888889 19,8.88888889 L1,8.88888889 C0.44771525,8.88888889 6.76353751e-17,8.44117364 0,7.88888889 L0,1 C-6.76353751e-17,0.44771525 0.44771525,1.01453063e-16 1,0 L19,0 Z M19.0444832,0.504211426 L1.03848839,0.504211426 C0.762346013,0.504211426 0.538488388,0.728069051 0.538488388,1.00421143 L0.538488388,7.94127083 C0.538488388,8.2174132 0.762346013,8.44127083 1.03848839,8.44127083 L19.0444832,8.44127083 C19.3206256,8.44127083 19.5444832,8.2174132 19.5444832,7.94127083 L19.5444832,1.00421143 C19.5444832,0.728069051 19.3206256,0.504211426 19.0444832,0.504211426 Z" id="形状结合" fill="#0563B2"></path>
                <path d="M1.03848839,0.504211426 L19.0444832,0.504211426 C19.3206256,0.504211426 19.5444832,0.728069051 19.5444832,1.00421143 L19.5444832,7.94127083 C19.5444832,8.2174132 19.3206256,8.44127083 19.0444832,8.44127083 L1.03848839,8.44127083 C0.762346013,8.44127083 0.538488388,8.2174132 0.538488388,7.94127083 L0.538488388,1.00421143 C0.538488388,0.728069051 0.762346013,0.504211426 1.03848839,0.504211426 Z" id="矩形备份-25" fill="#FFFFFF"></path>
            </g>
            <g id="schdoc" transform="translate(1.520000, 9.360000)" fill="#0563B2" fill-rule="nonzero">
                <path d="M1.125,0.985 C0.805,0.985 0.55,1.05 0.355,1.19 C0.155,1.32 0.06,1.505 0.06,1.745 C0.06,1.97 0.16,2.145 0.36,2.27 C0.485,2.35 0.7,2.425 1.005,2.495 C1.265,2.555 1.435,2.6 1.515,2.64 C1.665,2.71 1.74,2.805 1.74,2.925 C1.74,3.135 1.54,3.245 1.14,3.245 C0.95,3.245 0.815,3.21 0.73,3.15 C0.645,3.08 0.585,2.965 0.555,2.8 L0,2.8 C0.055,3.405 0.44,3.71 1.16,3.71 C1.935,3.71 2.325,3.435 2.325,2.885 C2.325,2.655 2.22,2.47 2.015,2.34 C1.875,2.245 1.655,2.165 1.365,2.095 C1.105,2.03 0.935,1.98 0.85,1.945 C0.71,1.885 0.645,1.81 0.645,1.73 C0.645,1.63 0.685,1.56 0.775,1.515 C0.85,1.47 0.965,1.45 1.115,1.45 C1.29,1.45 1.42,1.475 1.505,1.53 C1.585,1.58 1.645,1.675 1.685,1.805 L2.24,1.805 C2.18,1.255 1.805,0.985 1.125,0.985 Z" id="路径"></path>
                <path d="M3.935,0.985 C3.53,0.985 3.215,1.12 2.99,1.39 C2.78,1.635 2.675,1.955 2.675,2.345 C2.675,2.745 2.78,3.07 2.995,3.32 C3.215,3.58 3.525,3.71 3.925,3.71 C4.26,3.71 4.53,3.625 4.73,3.46 C4.935,3.29 5.07,3.03 5.13,2.68 L4.565,2.68 C4.52,3.055 4.31,3.245 3.93,3.245 C3.71,3.245 3.545,3.165 3.435,3.01 C3.315,2.85 3.26,2.625 3.26,2.34 C3.26,2.06 3.32,1.84 3.44,1.685 C3.56,1.525 3.725,1.45 3.935,1.45 C4.105,1.45 4.245,1.49 4.35,1.57 C4.45,1.65 4.52,1.77 4.555,1.935 L5.12,1.935 C5.07,1.61 4.94,1.37 4.735,1.21 C4.535,1.06 4.27,0.985 3.935,0.985 Z" id="路径"></path>
                <path d="M5.58,0 L5.58,3.64 L6.15,3.64 L6.15,2.195 C6.15,1.975 6.2,1.8 6.305,1.66 C6.405,1.52 6.545,1.45 6.725,1.45 C6.92,1.45 7.065,1.51 7.165,1.635 C7.25,1.75 7.295,1.92 7.295,2.14 L7.295,3.64 L7.865,3.64 L7.865,2.04 C7.865,1.695 7.79,1.435 7.645,1.26 C7.49,1.075 7.255,0.985 6.94,0.985 C6.775,0.985 6.63,1.015 6.505,1.08 C6.365,1.15 6.245,1.255 6.15,1.4 L6.15,0 L5.58,0 Z" id="路径"></path>
                <path d="M10.305,0 L10.305,1.41 C10.09,1.125 9.835,0.985 9.535,0.985 C9.165,0.985 8.87,1.12 8.66,1.39 C8.46,1.64 8.365,1.955 8.365,2.335 C8.365,2.73 8.465,3.055 8.665,3.305 C8.88,3.575 9.18,3.71 9.565,3.71 C9.905,3.71 10.165,3.595 10.345,3.365 L10.345,3.64 L10.875,3.64 L10.875,0 L10.305,0 Z M9.67,1.445 C9.85,1.445 10.005,1.52 10.125,1.67 C10.255,1.83 10.325,2.05 10.325,2.325 L10.325,2.365 C10.325,2.615 10.27,2.825 10.165,2.985 C10.045,3.16 9.87,3.25 9.65,3.25 C9.395,3.25 9.21,3.16 9.095,2.98 C8.995,2.83 8.95,2.615 8.95,2.335 C8.95,2.055 9,1.845 9.105,1.7 C9.225,1.53 9.41,1.445 9.67,1.445 Z" id="形状"></path>
                <path d="M12.675,0.985 C12.28,0.985 11.965,1.11 11.73,1.37 C11.49,1.625 11.375,1.95 11.375,2.35 C11.375,2.745 11.49,3.07 11.725,3.32 C11.965,3.58 12.28,3.71 12.675,3.71 C13.065,3.71 13.385,3.58 13.625,3.32 C13.855,3.07 13.975,2.745 13.975,2.35 C13.975,1.95 13.855,1.625 13.62,1.37 C13.38,1.11 13.065,0.985 12.675,0.985 Z M12.675,1.45 C12.91,1.45 13.095,1.54 13.225,1.73 C13.335,1.89 13.395,2.1 13.395,2.35 C13.395,2.595 13.335,2.8 13.225,2.965 C13.095,3.15 12.91,3.245 12.675,3.245 C12.435,3.245 12.255,3.15 12.125,2.965 C12.015,2.805 11.96,2.6 11.96,2.35 C11.96,2.1 12.015,1.89 12.125,1.73 C12.255,1.54 12.435,1.45 12.675,1.45 Z" id="形状"></path>
                <path d="M15.635,0.985 C15.23,0.985 14.915,1.12 14.69,1.39 C14.48,1.635 14.375,1.955 14.375,2.345 C14.375,2.745 14.48,3.07 14.695,3.32 C14.915,3.58 15.225,3.71 15.625,3.71 C15.96,3.71 16.23,3.625 16.43,3.46 C16.635,3.29 16.77,3.03 16.83,2.68 L16.265,2.68 C16.22,3.055 16.01,3.245 15.63,3.245 C15.41,3.245 15.245,3.165 15.135,3.01 C15.015,2.85 14.96,2.625 14.96,2.34 C14.96,2.06 15.02,1.84 15.14,1.685 C15.26,1.525 15.425,1.45 15.635,1.45 C15.805,1.45 15.945,1.49 16.05,1.57 C16.15,1.65 16.22,1.77 16.255,1.935 L16.82,1.935 C16.77,1.61 16.64,1.37 16.435,1.21 C16.235,1.06 15.97,0.985 15.635,0.985 Z" id="路径"></path>
            </g>
        </g>
    </g>
</svg>