<?xml version="1.0" encoding="UTF-8"?>
<svg width="20px" height="20px" viewBox="0 0 20 20" version="1.1" xmlns="http://www.w3.org/2000/svg" xmlns:xlink="http://www.w3.org/1999/xlink">
    <title>session2</title>
    <g id="文件图标" stroke="none" stroke-width="1" fill="none" fill-rule="evenodd">
        <g id="编组-3">
            <g id="编组" transform="translate(4.444444, 0.000000)" fill-rule="nonzero">
                <path d="M0.729143889,19.5242862 L14.8264117,19.5242862 C14.960342,19.5235005 15.0684874,19.4169183 15.0684874,19.2857149 L15.0684874,5.23858516 L10.9371582,5.23858516 C10.5344632,5.23858516 10.2080143,4.91878886 10.2080143,4.52430012 L10.2080143,0.475732442 L0.729143889,0.475732442 C0.664554638,0.475732442 0.602610796,0.500867553 0.556939301,0.545608337 C0.511267806,0.590349121 0.485609836,0.651030645 0.485609836,0.714303666 L0.485609836,19.2857149 C0.485609836,19.4171434 0.594981412,19.5242862 0.729143889,19.5242862 Z" id="路径" fill="#FFFFFF"></path>
                <path d="M14.9678656,4.76144275 L10.6950824,0.575732349 L10.6950824,4.52430012 C10.6950824,4.65572857 10.8029957,4.76144275 10.9371582,4.76144275 L14.9678656,4.76144275 L14.9678656,4.76144275 Z" id="路径" fill="#FFFFFF"></path>
                <path d="M15.3411873,4.45430019 L11.0100726,0.210018412 C10.8733184,0.0747249558 10.6867371,-0.000961027697 10.4923805,9.2146362e-06 L0.729143889,9.2146362e-06 C0.326448839,9.2146362e-06 0,0.319814921 0,0.714303666 L0,19.2857149 C0,19.6802037 0.326448839,20.0000092 0.729143889,20.0000092 L14.8264117,20.0000092 C15.2291067,20.0000092 15.5555556,19.6802037 15.5555556,19.2857149 L15.5555556,4.95858542 C15.5555556,4.76924268 15.4782987,4.58775259 15.3411873,4.45430019 Z M10.6936242,0.574303796 L14.9678656,4.76144275 L10.9371582,4.76144275 C10.8032255,4.76144275 10.6944262,4.65550112 10.6936242,4.52430012 L10.6936242,0.574303796 Z M14.8264117,19.5242862 L0.729143889,19.5242862 C0.664554638,19.5242862 0.602610796,19.4991511 0.556939301,19.4544103 C0.511267806,19.4096695 0.485609836,19.348988 0.485609836,19.2857149 L0.485609836,0.714303666 C0.485609836,0.582875214 0.594981412,0.475732442 0.729143889,0.475732442 L10.2080143,0.475732442 L10.2080143,4.52430012 C10.2080143,4.91878886 10.5344632,5.23858516 10.9371582,5.23858516 L15.0684874,5.23858516 L15.0684874,19.2857149 C15.0684874,19.4169183 14.960342,19.5235005 14.8264117,19.5242862 L14.8264117,19.5242862 Z" id="形状" fill="#605E5C" opacity="0.64"></path>
            </g>
            <g id="编组-4备份" transform="translate(0.000000, 7.000000)">
                <path d="M19,0 C19.5522847,-1.01453063e-16 20,0.44771525 20,1 L20,7.88888889 C20,8.44117364 19.5522847,8.88888889 19,8.88888889 L1,8.88888889 C0.44771525,8.88888889 6.76353751e-17,8.44117364 0,7.88888889 L0,1 C-6.76353751e-17,0.44771525 0.44771525,1.01453063e-16 1,0 L19,0 Z M19.0444832,0.504211426 L1.03848839,0.504211426 C0.762346013,0.504211426 0.538488388,0.728069051 0.538488388,1.00421143 L0.538488388,7.94127083 C0.538488388,8.2174132 0.762346013,8.44127083 1.03848839,8.44127083 L19.0444832,8.44127083 C19.3206256,8.44127083 19.5444832,8.2174132 19.5444832,7.94127083 L19.5444832,1.00421143 C19.5444832,0.728069051 19.3206256,0.504211426 19.0444832,0.504211426 Z" id="形状结合" fill="#0563B2"></path>
                <path d="M1.03848839,0.504211426 L19.0444832,0.504211426 C19.3206256,0.504211426 19.5444832,0.728069051 19.5444832,1.00421143 L19.5444832,7.94127083 C19.5444832,8.2174132 19.3206256,8.44127083 19.0444832,8.44127083 L1.03848839,8.44127083 C0.762346013,8.44127083 0.538488388,8.2174132 0.538488388,7.94127083 L0.538488388,1.00421143 C0.538488388,0.728069051 0.762346013,0.504211426 1.03848839,0.504211426 Z" id="矩形备份-25" fill="#FFFFFF"></path>
            </g>
            <g id="session" transform="translate(1.360000, 9.360000)" fill="#0563B2" fill-rule="nonzero">
                <path d="M1.125,0.985 C0.805,0.985 0.55,1.05 0.355,1.19 C0.155,1.32 0.06,1.505 0.06,1.745 C0.06,1.97 0.16,2.145 0.36,2.27 C0.485,2.35 0.7,2.425 1.005,2.495 C1.265,2.555 1.435,2.6 1.515,2.64 C1.665,2.71 1.74,2.805 1.74,2.925 C1.74,3.135 1.54,3.245 1.14,3.245 C0.95,3.245 0.815,3.21 0.73,3.15 C0.645,3.08 0.585,2.965 0.555,2.8 L0,2.8 C0.055,3.405 0.44,3.71 1.16,3.71 C1.935,3.71 2.325,3.435 2.325,2.885 C2.325,2.655 2.22,2.47 2.015,2.34 C1.875,2.245 1.655,2.165 1.365,2.095 C1.105,2.03 0.935,1.98 0.85,1.945 C0.71,1.885 0.645,1.81 0.645,1.73 C0.645,1.63 0.685,1.56 0.775,1.515 C0.85,1.47 0.965,1.45 1.115,1.45 C1.29,1.45 1.42,1.475 1.505,1.53 C1.585,1.58 1.645,1.675 1.685,1.805 L2.24,1.805 C2.18,1.255 1.805,0.985 1.125,0.985 Z" id="路径"></path>
                <path d="M3.875,0.985 C3.49,0.985 3.185,1.115 2.965,1.38 C2.735,1.64 2.625,1.96 2.625,2.345 C2.625,2.775 2.745,3.11 2.985,3.355 C3.21,3.59 3.515,3.71 3.9,3.71 C4.245,3.71 4.53,3.61 4.76,3.415 C4.94,3.255 5.06,3.05 5.12,2.81 L4.55,2.81 C4.48,2.955 4.405,3.06 4.32,3.125 C4.21,3.205 4.07,3.245 3.895,3.245 C3.69,3.245 3.53,3.18 3.42,3.055 C3.31,2.93 3.245,2.745 3.225,2.505 L5.16,2.505 C5.16,2.04 5.055,1.675 4.85,1.415 C4.625,1.125 4.3,0.985 3.875,0.985 Z M3.89,1.45 C4.29,1.45 4.515,1.655 4.565,2.075 L3.235,2.075 C3.27,1.87 3.34,1.715 3.445,1.61 C3.555,1.5 3.7,1.45 3.89,1.45 Z" id="形状"></path>
                <path d="M6.585,0.985 C6.265,0.985 6.01,1.05 5.815,1.19 C5.615,1.32 5.52,1.505 5.52,1.745 C5.52,1.97 5.62,2.145 5.82,2.27 C5.945,2.35 6.16,2.425 6.465,2.495 C6.725,2.555 6.895,2.6 6.975,2.64 C7.125,2.71 7.2,2.805 7.2,2.925 C7.2,3.135 7,3.245 6.6,3.245 C6.41,3.245 6.275,3.21 6.19,3.15 C6.105,3.08 6.045,2.965 6.015,2.8 L5.46,2.8 C5.515,3.405 5.9,3.71 6.62,3.71 C7.395,3.71 7.785,3.435 7.785,2.885 C7.785,2.655 7.68,2.47 7.475,2.34 C7.335,2.245 7.115,2.165 6.825,2.095 C6.565,2.03 6.395,1.98 6.31,1.945 C6.17,1.885 6.105,1.81 6.105,1.73 C6.105,1.63 6.145,1.56 6.235,1.515 C6.31,1.47 6.425,1.45 6.575,1.45 C6.75,1.45 6.88,1.475 6.965,1.53 C7.045,1.58 7.105,1.675 7.145,1.805 L7.7,1.805 C7.64,1.255 7.265,0.985 6.585,0.985 Z" id="路径"></path>
                <path d="M9.21,0.985 C8.89,0.985 8.635,1.05 8.44,1.19 C8.24,1.32 8.145,1.505 8.145,1.745 C8.145,1.97 8.245,2.145 8.445,2.27 C8.57,2.35 8.785,2.425 9.09,2.495 C9.35,2.555 9.52,2.6 9.6,2.64 C9.75,2.71 9.825,2.805 9.825,2.925 C9.825,3.135 9.625,3.245 9.225,3.245 C9.035,3.245 8.9,3.21 8.815,3.15 C8.73,3.08 8.67,2.965 8.64,2.8 L8.085,2.8 C8.14,3.405 8.525,3.71 9.245,3.71 C10.02,3.71 10.41,3.435 10.41,2.885 C10.41,2.655 10.305,2.47 10.1,2.34 C9.96,2.245 9.74,2.165 9.45,2.095 C9.19,2.03 9.02,1.98 8.935,1.945 C8.795,1.885 8.73,1.81 8.73,1.73 C8.73,1.63 8.77,1.56 8.86,1.515 C8.935,1.47 9.05,1.45 9.2,1.45 C9.375,1.45 9.505,1.475 9.59,1.53 C9.67,1.58 9.73,1.675 9.77,1.805 L10.325,1.805 C10.265,1.255 9.89,0.985 9.21,0.985 Z" id="路径"></path>
                <path d="M11.245,0 C11.135,0 11.045,0.035 10.97,0.105 C10.895,0.175 10.86,0.265 10.86,0.375 C10.86,0.485 10.895,0.575 10.97,0.65 C11.045,0.72 11.135,0.755 11.245,0.755 C11.355,0.755 11.445,0.72 11.52,0.65 C11.595,0.58 11.635,0.485 11.635,0.375 C11.635,0.265 11.595,0.175 11.525,0.105 C11.45,0.035 11.355,0 11.245,0 Z M10.96,1.055 L10.96,3.64 L11.53,3.64 L11.53,1.055 L10.96,1.055 Z" id="形状"></path>
                <path d="M13.435,0.985 C13.04,0.985 12.725,1.11 12.49,1.37 C12.25,1.625 12.135,1.95 12.135,2.35 C12.135,2.745 12.25,3.07 12.485,3.32 C12.725,3.58 13.04,3.71 13.435,3.71 C13.825,3.71 14.145,3.58 14.385,3.32 C14.615,3.07 14.735,2.745 14.735,2.35 C14.735,1.95 14.615,1.625 14.38,1.37 C14.14,1.11 13.825,0.985 13.435,0.985 Z M13.435,1.45 C13.67,1.45 13.855,1.54 13.985,1.73 C14.095,1.89 14.155,2.1 14.155,2.35 C14.155,2.595 14.095,2.8 13.985,2.965 C13.855,3.15 13.67,3.245 13.435,3.245 C13.195,3.245 13.015,3.15 12.885,2.965 C12.775,2.805 12.72,2.6 12.72,2.35 C12.72,2.1 12.775,1.89 12.885,1.73 C13.015,1.54 13.195,1.45 13.435,1.45 Z" id="形状"></path>
                <path d="M16.57,0.985 C16.415,0.985 16.275,1.015 16.145,1.08 C16.02,1.14 15.905,1.235 15.805,1.355 L15.805,1.055 L15.235,1.055 L15.235,3.64 L15.805,3.64 L15.805,2.085 C15.825,1.88 15.895,1.72 16.015,1.61 C16.12,1.51 16.245,1.46 16.385,1.46 C16.775,1.46 16.97,1.67 16.97,2.095 L16.97,3.64 L17.54,3.64 L17.54,2.045 C17.54,1.335 17.215,0.985 16.57,0.985 Z" id="路径"></path>
            </g>
        </g>
    </g>
</svg>