<?xml version="1.0" encoding="UTF-8"?>
<svg width="20px" height="20px" viewBox="0 0 20 20" version="1.1" xmlns="http://www.w3.org/2000/svg" xmlns:xlink="http://www.w3.org/1999/xlink">
    <title>sldasm2</title>
    <g id="文件图标" stroke="none" stroke-width="1" fill="none" fill-rule="evenodd">
        <g id="编组-3">
            <g id="编组" transform="translate(4.444444, 0.000000)" fill-rule="nonzero">
                <path d="M0.729143889,19.5242862 L14.8264117,19.5242862 C14.960342,19.5235005 15.0684874,19.4169183 15.0684874,19.2857149 L15.0684874,5.23858516 L10.9371582,5.23858516 C10.5344632,5.23858516 10.2080143,4.91878886 10.2080143,4.52430012 L10.2080143,0.475732442 L0.729143889,0.475732442 C0.664554638,0.475732442 0.602610796,0.500867553 0.556939301,0.545608337 C0.511267806,0.590349121 0.485609836,0.651030645 0.485609836,0.714303666 L0.485609836,19.2857149 C0.485609836,19.4171434 0.594981412,19.5242862 0.729143889,19.5242862 Z" id="路径" fill="#FFFFFF"></path>
                <path d="M14.9678656,4.76144275 L10.6950824,0.575732349 L10.6950824,4.52430012 C10.6950824,4.65572857 10.8029957,4.76144275 10.9371582,4.76144275 L14.9678656,4.76144275 L14.9678656,4.76144275 Z" id="路径" fill="#FFFFFF"></path>
                <path d="M15.3411873,4.45430019 L11.0100726,0.210018412 C10.8733184,0.0747249558 10.6867371,-0.000961027697 10.4923805,9.2146362e-06 L0.729143889,9.2146362e-06 C0.326448839,9.2146362e-06 0,0.319814921 0,0.714303666 L0,19.2857149 C0,19.6802037 0.326448839,20.0000092 0.729143889,20.0000092 L14.8264117,20.0000092 C15.2291067,20.0000092 15.5555556,19.6802037 15.5555556,19.2857149 L15.5555556,4.95858542 C15.5555556,4.76924268 15.4782987,4.58775259 15.3411873,4.45430019 Z M10.6936242,0.574303796 L14.9678656,4.76144275 L10.9371582,4.76144275 C10.8032255,4.76144275 10.6944262,4.65550112 10.6936242,4.52430012 L10.6936242,0.574303796 Z M14.8264117,19.5242862 L0.729143889,19.5242862 C0.664554638,19.5242862 0.602610796,19.4991511 0.556939301,19.4544103 C0.511267806,19.4096695 0.485609836,19.348988 0.485609836,19.2857149 L0.485609836,0.714303666 C0.485609836,0.582875214 0.594981412,0.475732442 0.729143889,0.475732442 L10.2080143,0.475732442 L10.2080143,4.52430012 C10.2080143,4.91878886 10.5344632,5.23858516 10.9371582,5.23858516 L15.0684874,5.23858516 L15.0684874,19.2857149 C15.0684874,19.4169183 14.960342,19.5235005 14.8264117,19.5242862 L14.8264117,19.5242862 Z" id="形状" fill="#605E5C" opacity="0.64"></path>
            </g>
            <g id="编组-4备份" transform="translate(0.000000, 7.000000)">
                <path d="M19,0 C19.5522847,-1.01453063e-16 20,0.44771525 20,1 L20,7.88888889 C20,8.44117364 19.5522847,8.88888889 19,8.88888889 L1,8.88888889 C0.44771525,8.88888889 6.76353751e-17,8.44117364 0,7.88888889 L0,1 C-6.76353751e-17,0.44771525 0.44771525,1.01453063e-16 1,0 L19,0 Z M19.0444832,0.504211426 L1.03848839,0.504211426 C0.762346013,0.504211426 0.538488388,0.728069051 0.538488388,1.00421143 L0.538488388,7.94127083 C0.538488388,8.2174132 0.762346013,8.44127083 1.03848839,8.44127083 L19.0444832,8.44127083 C19.3206256,8.44127083 19.5444832,8.2174132 19.5444832,7.94127083 L19.5444832,1.00421143 C19.5444832,0.728069051 19.3206256,0.504211426 19.0444832,0.504211426 Z" id="形状结合" fill="#0563B2"></path>
                <path d="M1.03848839,0.504211426 L19.0444832,0.504211426 C19.3206256,0.504211426 19.5444832,0.728069051 19.5444832,1.00421143 L19.5444832,7.94127083 C19.5444832,8.2174132 19.3206256,8.44127083 19.0444832,8.44127083 L1.03848839,8.44127083 C0.762346013,8.44127083 0.538488388,8.2174132 0.538488388,7.94127083 L0.538488388,1.00421143 C0.538488388,0.728069051 0.762346013,0.504211426 1.03848839,0.504211426 Z" id="矩形备份-25" fill="#FFFFFF"></path>
            </g>
            <g id="sldasm" transform="translate(0.948000, 8.632000)" fill="#0563B2" fill-rule="nonzero">
                <path d="M1.35,1.182 C0.966,1.182 0.66,1.26 0.426,1.428 C0.186,1.584 0.072,1.806 0.072,2.094 C0.072,2.364 0.192,2.574 0.432,2.724 C0.582,2.82 0.84,2.91 1.206,2.994 C1.518,3.066 1.722,3.12 1.818,3.168 C1.998,3.252 2.088,3.366 2.088,3.51 C2.088,3.762 1.848,3.894 1.368,3.894 C1.14,3.894 0.978,3.852 0.876,3.78 C0.774,3.696 0.702,3.558 0.666,3.36 L0,3.36 C0.066,4.086 0.528,4.452 1.392,4.452 C2.322,4.452 2.79,4.122 2.79,3.462 C2.79,3.186 2.664,2.964 2.418,2.808 C2.25,2.694 1.986,2.598 1.638,2.514 C1.326,2.436 1.122,2.376 1.02,2.334 C0.852,2.262 0.774,2.172 0.774,2.076 C0.774,1.956 0.822,1.872 0.93,1.818 C1.02,1.764 1.158,1.74 1.338,1.74 C1.548,1.74 1.704,1.77 1.806,1.836 C1.902,1.896 1.974,2.01 2.022,2.166 L2.688,2.166 C2.616,1.506 2.166,1.182 1.35,1.182 Z" id="路径"></path>
                <polygon id="路径" points="3.15 0 3.15 4.368 3.834 4.368 3.834 0"></polygon>
                <path d="M6.582,0 L6.582,1.692 C6.324,1.35 6.018,1.182 5.658,1.182 C5.214,1.182 4.86,1.344 4.608,1.668 C4.368,1.968 4.254,2.346 4.254,2.802 C4.254,3.276 4.374,3.666 4.614,3.966 C4.872,4.29 5.232,4.452 5.694,4.452 C6.102,4.452 6.414,4.314 6.63,4.038 L6.63,4.368 L7.266,4.368 L7.266,0 L6.582,0 Z M5.82,1.734 C6.036,1.734 6.222,1.824 6.366,2.004 C6.522,2.196 6.606,2.46 6.606,2.79 L6.606,2.838 C6.606,3.138 6.54,3.39 6.414,3.582 C6.27,3.792 6.06,3.9 5.796,3.9 C5.49,3.9 5.268,3.792 5.13,3.576 C5.01,3.396 4.956,3.138 4.956,2.802 C4.956,2.466 5.016,2.214 5.142,2.04 C5.286,1.836 5.508,1.734 5.82,1.734 Z" id="形状"></path>
                <path d="M9.156,1.182 C8.76,1.182 8.448,1.248 8.22,1.392 C7.95,1.548 7.782,1.8 7.716,2.142 L8.394,2.196 C8.43,2.034 8.52,1.914 8.652,1.836 C8.766,1.764 8.916,1.734 9.108,1.734 C9.552,1.734 9.774,1.932 9.774,2.34 L9.774,2.46 L9.096,2.478 C8.64,2.49 8.286,2.586 8.034,2.766 C7.758,2.952 7.626,3.222 7.626,3.57 C7.626,3.828 7.722,4.038 7.914,4.206 C8.1,4.368 8.352,4.452 8.676,4.452 C8.946,4.452 9.18,4.404 9.378,4.314 C9.552,4.23 9.702,4.116 9.822,3.96 L9.822,4.368 L10.458,4.368 L10.458,2.388 C10.458,2.01 10.362,1.722 10.17,1.524 C9.954,1.296 9.612,1.182 9.156,1.182 Z M9.774,2.952 L9.774,3.108 C9.774,3.348 9.678,3.546 9.498,3.702 C9.318,3.852 9.096,3.93 8.832,3.93 C8.682,3.93 8.562,3.888 8.466,3.816 C8.37,3.744 8.328,3.654 8.328,3.546 C8.328,3.174 8.598,2.982 9.144,2.97 L9.774,2.952 Z" id="形状"></path>
                <path d="M12.108,1.182 C11.724,1.182 11.418,1.26 11.184,1.428 C10.944,1.584 10.83,1.806 10.83,2.094 C10.83,2.364 10.95,2.574 11.19,2.724 C11.34,2.82 11.598,2.91 11.964,2.994 C12.276,3.066 12.48,3.12 12.576,3.168 C12.756,3.252 12.846,3.366 12.846,3.51 C12.846,3.762 12.606,3.894 12.126,3.894 C11.898,3.894 11.736,3.852 11.634,3.78 C11.532,3.696 11.46,3.558 11.424,3.36 L10.758,3.36 C10.824,4.086 11.286,4.452 12.15,4.452 C13.08,4.452 13.548,4.122 13.548,3.462 C13.548,3.186 13.422,2.964 13.176,2.808 C13.008,2.694 12.744,2.598 12.396,2.514 C12.084,2.436 11.88,2.376 11.778,2.334 C11.61,2.262 11.532,2.172 11.532,2.076 C11.532,1.956 11.58,1.872 11.688,1.818 C11.778,1.764 11.916,1.74 12.096,1.74 C12.306,1.74 12.462,1.77 12.564,1.836 C12.66,1.896 12.732,2.01 12.78,2.166 L13.446,2.166 C13.374,1.506 12.924,1.182 12.108,1.182 Z" id="路径"></path>
                <path d="M15.372,1.182 C15.072,1.182 14.79,1.314 14.532,1.584 L14.532,1.266 L13.848,1.266 L13.848,4.368 L14.532,4.368 L14.532,2.508 C14.532,2.304 14.592,2.124 14.712,1.98 C14.832,1.824 14.988,1.752 15.186,1.752 C15.594,1.752 15.798,1.986 15.798,2.46 L15.798,4.368 L16.482,4.368 L16.482,2.472 C16.482,2.244 16.536,2.07 16.656,1.944 C16.77,1.812 16.908,1.752 17.076,1.752 C17.316,1.752 17.484,1.806 17.592,1.92 C17.694,2.028 17.748,2.208 17.748,2.454 L17.748,4.368 L18.432,4.368 L18.432,2.334 C18.432,1.992 18.324,1.716 18.12,1.5 C17.904,1.284 17.64,1.182 17.322,1.182 C17.112,1.182 16.938,1.218 16.8,1.29 C16.644,1.362 16.494,1.494 16.35,1.686 C16.152,1.35 15.828,1.182 15.372,1.182 Z" id="路径"></path>
            </g>
        </g>
    </g>
</svg>