<?xml version="1.0" encoding="UTF-8"?>
<svg width="20px" height="20px" viewBox="0 0 20 20" version="1.1" xmlns="http://www.w3.org/2000/svg" xmlns:xlink="http://www.w3.org/1999/xlink">
    <title>slddrw</title>
    <g id="文件图标" stroke="none" stroke-width="1" fill="none" fill-rule="evenodd">
        <g id="编组-3">
            <g id="编组" transform="translate(4.444444, 0.000000)" fill-rule="nonzero">
                <path d="M0.729143889,19.5242862 L14.8264117,19.5242862 C14.960342,19.5235005 15.0684874,19.4169183 15.0684874,19.2857149 L15.0684874,5.23858516 L10.9371582,5.23858516 C10.5344632,5.23858516 10.2080143,4.91878886 10.2080143,4.52430012 L10.2080143,0.475732442 L0.729143889,0.475732442 C0.664554638,0.475732442 0.602610796,0.500867553 0.556939301,0.545608337 C0.511267806,0.590349121 0.485609836,0.651030645 0.485609836,0.714303666 L0.485609836,19.2857149 C0.485609836,19.4171434 0.594981412,19.5242862 0.729143889,19.5242862 Z" id="路径" fill="#FFFFFF"></path>
                <path d="M14.9678656,4.76144275 L10.6950824,0.575732349 L10.6950824,4.52430012 C10.6950824,4.65572857 10.8029957,4.76144275 10.9371582,4.76144275 L14.9678656,4.76144275 L14.9678656,4.76144275 Z" id="路径" fill="#FFFFFF"></path>
                <path d="M15.3411873,4.45430019 L11.0100726,0.210018412 C10.8733184,0.0747249558 10.6867371,-0.000961027697 10.4923805,9.2146362e-06 L0.729143889,9.2146362e-06 C0.326448839,9.2146362e-06 0,0.319814921 0,0.714303666 L0,19.2857149 C0,19.6802037 0.326448839,20.0000092 0.729143889,20.0000092 L14.8264117,20.0000092 C15.2291067,20.0000092 15.5555556,19.6802037 15.5555556,19.2857149 L15.5555556,4.95858542 C15.5555556,4.76924268 15.4782987,4.58775259 15.3411873,4.45430019 Z M10.6936242,0.574303796 L14.9678656,4.76144275 L10.9371582,4.76144275 C10.8032255,4.76144275 10.6944262,4.65550112 10.6936242,4.52430012 L10.6936242,0.574303796 Z M14.8264117,19.5242862 L0.729143889,19.5242862 C0.664554638,19.5242862 0.602610796,19.4991511 0.556939301,19.4544103 C0.511267806,19.4096695 0.485609836,19.348988 0.485609836,19.2857149 L0.485609836,0.714303666 C0.485609836,0.582875214 0.594981412,0.475732442 0.729143889,0.475732442 L10.2080143,0.475732442 L10.2080143,4.52430012 C10.2080143,4.91878886 10.5344632,5.23858516 10.9371582,5.23858516 L15.0684874,5.23858516 L15.0684874,19.2857149 C15.0684874,19.4169183 14.960342,19.5235005 14.8264117,19.5242862 L14.8264117,19.5242862 Z" id="形状" fill="#605E5C" opacity="0.64"></path>
            </g>
            <rect id="矩形" fill="#0563B2" x="0" y="6.66666667" width="20" height="8.88888889" rx="1"></rect>
            <g id="slddrw" transform="translate(0.816000, 8.632000)" fill="#FFFFFF" fill-rule="nonzero">
                <path d="M1.35,1.182 C0.966,1.182 0.66,1.26 0.426,1.428 C0.186,1.584 0.072,1.806 0.072,2.094 C0.072,2.364 0.192,2.574 0.432,2.724 C0.582,2.82 0.84,2.91 1.206,2.994 C1.518,3.066 1.722,3.12 1.818,3.168 C1.998,3.252 2.088,3.366 2.088,3.51 C2.088,3.762 1.848,3.894 1.368,3.894 C1.14,3.894 0.978,3.852 0.876,3.78 C0.774,3.696 0.702,3.558 0.666,3.36 L0,3.36 C0.066,4.086 0.528,4.452 1.392,4.452 C2.322,4.452 2.79,4.122 2.79,3.462 C2.79,3.186 2.664,2.964 2.418,2.808 C2.25,2.694 1.986,2.598 1.638,2.514 C1.326,2.436 1.122,2.376 1.02,2.334 C0.852,2.262 0.774,2.172 0.774,2.076 C0.774,1.956 0.822,1.872 0.93,1.818 C1.02,1.764 1.158,1.74 1.338,1.74 C1.548,1.74 1.704,1.77 1.806,1.836 C1.902,1.896 1.974,2.01 2.022,2.166 L2.688,2.166 C2.616,1.506 2.166,1.182 1.35,1.182 Z" id="路径"></path>
                <polygon id="路径" points="3.35 0 3.35 4.368 4.034 4.368 4.034 0"></polygon>
                <path d="M6.982,0 L6.982,1.692 C6.724,1.35 6.418,1.182 6.058,1.182 C5.614,1.182 5.26,1.344 5.008,1.668 C4.768,1.968 4.654,2.346 4.654,2.802 C4.654,3.276 4.774,3.666 5.014,3.966 C5.272,4.29 5.632,4.452 6.094,4.452 C6.502,4.452 6.814,4.314 7.03,4.038 L7.03,4.368 L7.666,4.368 L7.666,0 L6.982,0 Z M6.22,1.734 C6.436,1.734 6.622,1.824 6.766,2.004 C6.922,2.196 7.006,2.46 7.006,2.79 L7.006,2.838 C7.006,3.138 6.94,3.39 6.814,3.582 C6.67,3.792 6.46,3.9 6.196,3.9 C5.89,3.9 5.668,3.792 5.53,3.576 C5.41,3.396 5.356,3.138 5.356,2.802 C5.356,2.466 5.416,2.214 5.542,2.04 C5.686,1.836 5.908,1.734 6.22,1.734 Z" id="形状"></path>
                <path d="M10.554,0 L10.554,1.692 C10.296,1.35 9.99,1.182 9.63,1.182 C9.186,1.182 8.832,1.344 8.58,1.668 C8.34,1.968 8.226,2.346 8.226,2.802 C8.226,3.276 8.346,3.666 8.586,3.966 C8.844,4.29 9.204,4.452 9.666,4.452 C10.074,4.452 10.386,4.314 10.602,4.038 L10.602,4.368 L11.238,4.368 L11.238,0 L10.554,0 Z M9.792,1.734 C10.008,1.734 10.194,1.824 10.338,2.004 C10.494,2.196 10.578,2.46 10.578,2.79 L10.578,2.838 C10.578,3.138 10.512,3.39 10.386,3.582 C10.242,3.792 10.032,3.9 9.768,3.9 C9.462,3.9 9.24,3.792 9.102,3.576 C8.982,3.396 8.928,3.138 8.928,2.802 C8.928,2.466 8.988,2.214 9.114,2.04 C9.258,1.836 9.48,1.734 9.792,1.734 Z" id="形状"></path>
                <path d="M13.382,1.182 C13.19,1.182 13.028,1.236 12.89,1.35 C12.776,1.434 12.68,1.554 12.596,1.71 L12.596,1.266 L11.918,1.266 L11.918,4.368 L12.596,4.368 L12.596,2.724 C12.596,2.46 12.674,2.25 12.842,2.088 C12.986,1.944 13.148,1.878 13.328,1.878 C13.472,1.878 13.616,1.896 13.772,1.944 L13.772,1.26 C13.664,1.206 13.532,1.182 13.382,1.182 Z" id="路径"></path>
                <polygon id="路径" points="13.792 1.266 14.836 4.368 15.472 4.368 16.096 2.1 16.714 4.368 17.35 4.368 18.394 1.266 17.638 1.266 17.02 3.558 16.408 1.266 15.778 1.266 15.166 3.558 14.548 1.266"></polygon>
            </g>
        </g>
    </g>
</svg>