<?xml version="1.0" encoding="UTF-8"?>
<svg width="20px" height="20px" viewBox="0 0 20 20" version="1.1" xmlns="http://www.w3.org/2000/svg" xmlns:xlink="http://www.w3.org/1999/xlink">
    <title>sldprt</title>
    <g id="文件图标" stroke="none" stroke-width="1" fill="none" fill-rule="evenodd">
        <g id="编组-3">
            <g id="编组" transform="translate(4.444444, 0.000000)" fill-rule="nonzero">
                <path d="M0.729143889,19.5242862 L14.8264117,19.5242862 C14.960342,19.5235005 15.0684874,19.4169183 15.0684874,19.2857149 L15.0684874,5.23858516 L10.9371582,5.23858516 C10.5344632,5.23858516 10.2080143,4.91878886 10.2080143,4.52430012 L10.2080143,0.475732442 L0.729143889,0.475732442 C0.664554638,0.475732442 0.602610796,0.500867553 0.556939301,0.545608337 C0.511267806,0.590349121 0.485609836,0.651030645 0.485609836,0.714303666 L0.485609836,19.2857149 C0.485609836,19.4171434 0.594981412,19.5242862 0.729143889,19.5242862 Z" id="路径" fill="#FFFFFF"></path>
                <path d="M14.9678656,4.76144275 L10.6950824,0.575732349 L10.6950824,4.52430012 C10.6950824,4.65572857 10.8029957,4.76144275 10.9371582,4.76144275 L14.9678656,4.76144275 L14.9678656,4.76144275 Z" id="路径" fill="#FFFFFF"></path>
                <path d="M15.3411873,4.45430019 L11.0100726,0.210018412 C10.8733184,0.0747249558 10.6867371,-0.000961027697 10.4923805,9.2146362e-06 L0.729143889,9.2146362e-06 C0.326448839,9.2146362e-06 0,0.319814921 0,0.714303666 L0,19.2857149 C0,19.6802037 0.326448839,20.0000092 0.729143889,20.0000092 L14.8264117,20.0000092 C15.2291067,20.0000092 15.5555556,19.6802037 15.5555556,19.2857149 L15.5555556,4.95858542 C15.5555556,4.76924268 15.4782987,4.58775259 15.3411873,4.45430019 Z M10.6936242,0.574303796 L14.9678656,4.76144275 L10.9371582,4.76144275 C10.8032255,4.76144275 10.6944262,4.65550112 10.6936242,4.52430012 L10.6936242,0.574303796 Z M14.8264117,19.5242862 L0.729143889,19.5242862 C0.664554638,19.5242862 0.602610796,19.4991511 0.556939301,19.4544103 C0.511267806,19.4096695 0.485609836,19.348988 0.485609836,19.2857149 L0.485609836,0.714303666 C0.485609836,0.582875214 0.594981412,0.475732442 0.729143889,0.475732442 L10.2080143,0.475732442 L10.2080143,4.52430012 C10.2080143,4.91878886 10.5344632,5.23858516 10.9371582,5.23858516 L15.0684874,5.23858516 L15.0684874,19.2857149 C15.0684874,19.4169183 14.960342,19.5235005 14.8264117,19.5242862 L14.8264117,19.5242862 Z" id="形状" fill="#605E5C" opacity="0.64"></path>
            </g>
            <rect id="矩形" fill="#0563B2" x="0" y="6.66666667" width="20" height="8.88888889" rx="1"></rect>
            <g id="sldprt" transform="translate(0.457000, 8.904000)" fill="#FFFFFF" fill-rule="nonzero">
                <path d="M1.575,1.379 C1.127,1.379 0.77,1.47 0.497,1.666 C0.217,1.848 0.084,2.107 0.084,2.443 C0.084,2.758 0.224,3.003 0.504,3.178 C0.679,3.29 0.98,3.395 1.407,3.493 C1.771,3.577 2.009,3.64 2.121,3.696 C2.331,3.794 2.436,3.927 2.436,4.095 C2.436,4.389 2.156,4.543 1.596,4.543 C1.33,4.543 1.141,4.494 1.022,4.41 C0.903,4.312 0.819,4.151 0.777,3.92 L0,3.92 C0.077,4.767 0.616,5.194 1.624,5.194 C2.709,5.194 3.255,4.809 3.255,4.039 C3.255,3.717 3.108,3.458 2.821,3.276 C2.625,3.143 2.317,3.031 1.911,2.933 C1.547,2.842 1.309,2.772 1.19,2.723 C0.994,2.639 0.903,2.534 0.903,2.422 C0.903,2.282 0.959,2.184 1.085,2.121 C1.19,2.058 1.351,2.03 1.561,2.03 C1.806,2.03 1.988,2.065 2.107,2.142 C2.219,2.212 2.303,2.345 2.359,2.527 L3.136,2.527 C3.052,1.757 2.527,1.379 1.575,1.379 Z" id="路径"></path>
                <polygon id="路径" points="3.90833333 0 3.90833333 5.096 4.70633333 5.096 4.70633333 0"></polygon>
                <path d="M8.14566667,0 L8.14566667,1.974 C7.84466667,1.575 7.48766667,1.379 7.06766667,1.379 C6.54966667,1.379 6.13666667,1.568 5.84266667,1.946 C5.56266667,2.296 5.42966667,2.737 5.42966667,3.269 C5.42966667,3.822 5.56966667,4.277 5.84966667,4.627 C6.15066667,5.005 6.57066667,5.194 7.10966667,5.194 C7.58566667,5.194 7.94966667,5.033 8.20166667,4.711 L8.20166667,5.096 L8.94366667,5.096 L8.94366667,0 L8.14566667,0 Z M7.25666667,2.023 C7.50866667,2.023 7.72566667,2.128 7.89366667,2.338 C8.07566667,2.562 8.17366667,2.87 8.17366667,3.255 L8.17366667,3.311 C8.17366667,3.661 8.09666667,3.955 7.94966667,4.179 C7.78166667,4.424 7.53666667,4.55 7.22866667,4.55 C6.87166667,4.55 6.61266667,4.424 6.45166667,4.172 C6.31166667,3.962 6.24866667,3.661 6.24866667,3.269 C6.24866667,2.877 6.31866667,2.583 6.46566667,2.38 C6.63366667,2.142 6.89266667,2.023 7.25666667,2.023 Z" id="形状"></path>
                <path d="M11.571,1.379 C11.095,1.379 10.731,1.54 10.479,1.862 L10.479,1.477 L9.737,1.477 L9.737,6.482 L10.535,6.482 L10.535,4.599 C10.829,4.991 11.193,5.194 11.613,5.194 C12.131,5.194 12.544,5.005 12.838,4.627 C13.111,4.277 13.251,3.836 13.251,3.304 C13.251,2.744 13.111,2.296 12.831,1.946 C12.523,1.568 12.103,1.379 11.571,1.379 Z M11.452,2.023 C11.802,2.023 12.061,2.149 12.229,2.401 C12.362,2.611 12.432,2.912 12.432,3.304 C12.432,3.696 12.355,3.997 12.208,4.207 C12.04,4.431 11.774,4.55 11.424,4.55 C11.165,4.55 10.955,4.445 10.787,4.235 C10.598,4.004 10.507,3.696 10.507,3.318 L10.507,3.262 C10.507,2.898 10.577,2.611 10.731,2.394 C10.899,2.142 11.137,2.023 11.452,2.023 Z" id="形状"></path>
                <path d="M15.6123333,1.379 C15.3883333,1.379 15.1993333,1.442 15.0383333,1.575 C14.9053333,1.673 14.7933333,1.813 14.6953333,1.995 L14.6953333,1.477 L13.9043333,1.477 L13.9043333,5.096 L14.6953333,5.096 L14.6953333,3.178 C14.6953333,2.87 14.7863333,2.625 14.9823333,2.436 C15.1503333,2.268 15.3393333,2.191 15.5493333,2.191 C15.7173333,2.191 15.8853333,2.212 16.0673333,2.268 L16.0673333,1.47 C15.9413333,1.407 15.7873333,1.379 15.6123333,1.379 Z" id="路径"></path>
                <path d="M17.6096667,0.308 L16.8116667,0.637 L16.8116667,1.477 L16.1606667,1.477 L16.1606667,2.135 L16.8116667,2.135 L16.8116667,4.179 C16.8116667,4.473 16.8816667,4.69 17.0216667,4.844 C17.1686667,5.012 17.3996667,5.096 17.7146667,5.096 L18.3236667,5.096 L18.3236667,4.438 L17.8476667,4.438 C17.7636667,4.438 17.7076667,4.417 17.6656667,4.375 C17.6236667,4.326 17.6096667,4.263 17.6096667,4.179 L17.6096667,2.135 L18.4146667,2.135 L18.4146667,1.477 L17.6096667,1.477 L17.6096667,0.308 Z" id="路径"></path>
            </g>
        </g>
    </g>
</svg>