<?xml version="1.0" encoding="UTF-8"?>
<svg width="20px" height="20px" viewBox="0 0 20 20" version="1.1" xmlns="http://www.w3.org/2000/svg" xmlns:xlink="http://www.w3.org/1999/xlink">
    <title>smg</title>
    <g id="文件图标" stroke="none" stroke-width="1" fill="none" fill-rule="evenodd">
        <g id="编组-3">
            <g id="编组" transform="translate(4.444444, 0.000000)" fill-rule="nonzero">
                <path d="M0.729143889,19.5242862 L14.8264117,19.5242862 C14.960342,19.5235005 15.0684874,19.4169183 15.0684874,19.2857149 L15.0684874,5.23858516 L10.9371582,5.23858516 C10.5344632,5.23858516 10.2080143,4.91878886 10.2080143,4.52430012 L10.2080143,0.475732442 L0.729143889,0.475732442 C0.664554638,0.475732442 0.602610796,0.500867553 0.556939301,0.545608337 C0.511267806,0.590349121 0.485609836,0.651030645 0.485609836,0.714303666 L0.485609836,19.2857149 C0.485609836,19.4171434 0.594981412,19.5242862 0.729143889,19.5242862 Z" id="路径" fill="#FFFFFF"></path>
                <path d="M14.9678656,4.76144275 L10.6950824,0.575732349 L10.6950824,4.52430012 C10.6950824,4.65572857 10.8029957,4.76144275 10.9371582,4.76144275 L14.9678656,4.76144275 L14.9678656,4.76144275 Z" id="路径" fill="#FFFFFF"></path>
                <path d="M15.3411873,4.45430019 L11.0100726,0.210018412 C10.8733184,0.0747249558 10.6867371,-0.000961027697 10.4923805,9.2146362e-06 L0.729143889,9.2146362e-06 C0.326448839,9.2146362e-06 0,0.319814921 0,0.714303666 L0,19.2857149 C0,19.6802037 0.326448839,20.0000092 0.729143889,20.0000092 L14.8264117,20.0000092 C15.2291067,20.0000092 15.5555556,19.6802037 15.5555556,19.2857149 L15.5555556,4.95858542 C15.5555556,4.76924268 15.4782987,4.58775259 15.3411873,4.45430019 Z M10.6936242,0.574303796 L14.9678656,4.76144275 L10.9371582,4.76144275 C10.8032255,4.76144275 10.6944262,4.65550112 10.6936242,4.52430012 L10.6936242,0.574303796 Z M14.8264117,19.5242862 L0.729143889,19.5242862 C0.664554638,19.5242862 0.602610796,19.4991511 0.556939301,19.4544103 C0.511267806,19.4096695 0.485609836,19.348988 0.485609836,19.2857149 L0.485609836,0.714303666 C0.485609836,0.582875214 0.594981412,0.475732442 0.729143889,0.475732442 L10.2080143,0.475732442 L10.2080143,4.52430012 C10.2080143,4.91878886 10.5344632,5.23858516 10.9371582,5.23858516 L15.0684874,5.23858516 L15.0684874,19.2857149 C15.0684874,19.4169183 14.960342,19.5235005 14.8264117,19.5242862 L14.8264117,19.5242862 Z" id="形状" fill="#605E5C" opacity="0.64"></path>
            </g>
            <rect id="矩形" fill="#0563B2" x="0" y="6.66666667" width="20" height="8.88888889" rx="1"></rect>
            <g id="smg" transform="translate(1.351000, 9.221000)" fill="#FFFFFF" fill-rule="nonzero">
                <path d="M2.025,0 C1.449,0 0.99,0.117 0.639,0.369 C0.279,0.603 0.108,0.936 0.108,1.368 C0.108,1.773 0.288,2.088 0.648,2.313 C0.873,2.457 1.26,2.592 1.809,2.718 C2.277,2.826 2.583,2.907 2.727,2.979 C2.997,3.105 3.132,3.276 3.132,3.492 C3.132,3.87 2.772,4.068 2.052,4.068 C1.71,4.068 1.467,4.005 1.314,3.897 C1.161,3.771 1.053,3.564 0.999,3.267 L0,3.267 C0.099,4.356 0.792,4.905 2.088,4.905 C3.483,4.905 4.185,4.41 4.185,3.42 C4.185,3.006 3.996,2.673 3.627,2.439 C3.375,2.268 2.979,2.124 2.457,1.998 C1.989,1.881 1.683,1.791 1.53,1.728 C1.278,1.62 1.161,1.485 1.161,1.341 C1.161,1.161 1.233,1.035 1.395,0.954 C1.53,0.873 1.737,0.837 2.007,0.837 C2.322,0.837 2.556,0.882 2.709,0.981 C2.853,1.071 2.961,1.242 3.033,1.476 L4.032,1.476 C3.924,0.486 3.249,0 2.025,0 Z" id="路径"></path>
                <path d="M7.221,0 C6.771,0 6.348,0.198 5.961,0.603 L5.961,0.126 L4.935,0.126 L4.935,4.779 L5.961,4.779 L5.961,1.989 C5.961,1.683 6.051,1.413 6.231,1.197 C6.411,0.963 6.645,0.855 6.942,0.855 C7.554,0.855 7.86,1.206 7.86,1.917 L7.86,4.779 L8.886,4.779 L8.886,1.935 C8.886,1.593 8.967,1.332 9.147,1.143 C9.318,0.945 9.525,0.855 9.777,0.855 C10.137,0.855 10.389,0.936 10.551,1.107 C10.704,1.269 10.785,1.539 10.785,1.908 L10.785,4.779 L11.811,4.779 L11.811,1.728 C11.811,1.215 11.649,0.801 11.343,0.477 C11.019,0.153 10.623,0 10.146,0 C9.831,0 9.57,0.054 9.363,0.162 C9.129,0.27 8.904,0.468 8.688,0.756 C8.391,0.252 7.905,0 7.221,0 Z" id="路径"></path>
                <path d="M14.766,0 C14.136,0 13.623,0.216 13.236,0.648 C12.84,1.08 12.651,1.647 12.651,2.349 C12.651,3.051 12.84,3.618 13.236,4.041 C13.623,4.455 14.136,4.671 14.766,4.671 C15.342,4.671 15.801,4.428 16.143,3.951 L16.143,4.635 C16.143,5.463 15.756,5.877 14.982,5.877 C14.622,5.877 14.361,5.823 14.199,5.724 C14.028,5.616 13.92,5.436 13.866,5.175 L12.84,5.175 C12.93,5.697 13.146,6.075 13.488,6.327 C13.83,6.561 14.325,6.687 14.982,6.687 C16.44,6.687 17.169,5.949 17.169,4.482 L17.169,0.126 L16.143,0.126 L16.143,0.693 C15.801,0.225 15.342,0 14.766,0 Z M14.928,0.828 C15.315,0.828 15.621,0.963 15.837,1.233 C16.044,1.503 16.152,1.872 16.152,2.349 C16.152,2.817 16.044,3.177 15.837,3.447 C15.621,3.699 15.315,3.834 14.919,3.834 C14.469,3.834 14.154,3.681 13.956,3.384 C13.785,3.132 13.704,2.79 13.704,2.349 C13.704,1.863 13.812,1.494 14.028,1.233 C14.244,0.963 14.541,0.828 14.928,0.828 Z" id="形状"></path>
            </g>
        </g>
    </g>
</svg>