<?xml version="1.0" encoding="UTF-8"?>
<svg width="20px" height="20px" viewBox="0 0 20 20" version="1.1" xmlns="http://www.w3.org/2000/svg" xmlns:xlink="http://www.w3.org/1999/xlink">
    <title>spo</title>
    <g id="文件图标" stroke="none" stroke-width="1" fill="none" fill-rule="evenodd">
        <g id="编组-3">
            <g id="编组" transform="translate(4.444444, 0.000000)" fill-rule="nonzero">
                <path d="M0.729143889,19.5242862 L14.8264117,19.5242862 C14.960342,19.5235005 15.0684874,19.4169183 15.0684874,19.2857149 L15.0684874,5.23858516 L10.9371582,5.23858516 C10.5344632,5.23858516 10.2080143,4.91878886 10.2080143,4.52430012 L10.2080143,0.475732442 L0.729143889,0.475732442 C0.664554638,0.475732442 0.602610796,0.500867553 0.556939301,0.545608337 C0.511267806,0.590349121 0.485609836,0.651030645 0.485609836,0.714303666 L0.485609836,19.2857149 C0.485609836,19.4171434 0.594981412,19.5242862 0.729143889,19.5242862 Z" id="路径" fill="#FFFFFF"></path>
                <path d="M14.9678656,4.76144275 L10.6950824,0.575732349 L10.6950824,4.52430012 C10.6950824,4.65572857 10.8029957,4.76144275 10.9371582,4.76144275 L14.9678656,4.76144275 L14.9678656,4.76144275 Z" id="路径" fill="#FFFFFF"></path>
                <path d="M15.3411873,4.45430019 L11.0100726,0.210018412 C10.8733184,0.0747249558 10.6867371,-0.000961027697 10.4923805,9.2146362e-06 L0.729143889,9.2146362e-06 C0.326448839,9.2146362e-06 0,0.319814921 0,0.714303666 L0,19.2857149 C0,19.6802037 0.326448839,20.0000092 0.729143889,20.0000092 L14.8264117,20.0000092 C15.2291067,20.0000092 15.5555556,19.6802037 15.5555556,19.2857149 L15.5555556,4.95858542 C15.5555556,4.76924268 15.4782987,4.58775259 15.3411873,4.45430019 Z M10.6936242,0.574303796 L14.9678656,4.76144275 L10.9371582,4.76144275 C10.8032255,4.76144275 10.6944262,4.65550112 10.6936242,4.52430012 L10.6936242,0.574303796 Z M14.8264117,19.5242862 L0.729143889,19.5242862 C0.664554638,19.5242862 0.602610796,19.4991511 0.556939301,19.4544103 C0.511267806,19.4096695 0.485609836,19.348988 0.485609836,19.2857149 L0.485609836,0.714303666 C0.485609836,0.582875214 0.594981412,0.475732442 0.729143889,0.475732442 L10.2080143,0.475732442 L10.2080143,4.52430012 C10.2080143,4.91878886 10.5344632,5.23858516 10.9371582,5.23858516 L15.0684874,5.23858516 L15.0684874,19.2857149 C15.0684874,19.4169183 14.960342,19.5235005 14.8264117,19.5242862 L14.8264117,19.5242862 Z" id="形状" fill="#605E5C" opacity="0.64"></path>
            </g>
            <rect id="矩形" fill="#0563B2" x="0" y="6.66666667" width="20" height="8.88888889" rx="1"></rect>
            <g id="spo" transform="translate(2.727000, 9.221000)" fill="#FFFFFF" fill-rule="nonzero">
                <path d="M2.025,0 C1.449,0 0.99,0.117 0.639,0.369 C0.279,0.603 0.108,0.936 0.108,1.368 C0.108,1.773 0.288,2.088 0.648,2.313 C0.873,2.457 1.26,2.592 1.809,2.718 C2.277,2.826 2.583,2.907 2.727,2.979 C2.997,3.105 3.132,3.276 3.132,3.492 C3.132,3.87 2.772,4.068 2.052,4.068 C1.71,4.068 1.467,4.005 1.314,3.897 C1.161,3.771 1.053,3.564 0.999,3.267 L0,3.267 C0.099,4.356 0.792,4.905 2.088,4.905 C3.483,4.905 4.185,4.41 4.185,3.42 C4.185,3.006 3.996,2.673 3.627,2.439 C3.375,2.268 2.979,2.124 2.457,1.998 C1.989,1.881 1.683,1.791 1.53,1.728 C1.278,1.62 1.161,1.485 1.161,1.341 C1.161,1.161 1.233,1.035 1.395,0.954 C1.53,0.873 1.737,0.837 2.007,0.837 C2.322,0.837 2.556,0.882 2.709,0.981 C2.853,1.071 2.961,1.242 3.033,1.476 L4.032,1.476 C3.924,0.486 3.249,0 2.025,0 Z" id="路径"></path>
                <path d="M7.353,0 C6.741,0 6.273,0.207 5.949,0.621 L5.949,0.126 L4.995,0.126 L4.995,6.561 L6.021,6.561 L6.021,4.14 C6.399,4.644 6.867,4.905 7.407,4.905 C8.073,4.905 8.604,4.662 8.982,4.176 C9.333,3.726 9.513,3.159 9.513,2.475 C9.513,1.755 9.333,1.179 8.973,0.729 C8.577,0.243 8.037,0 7.353,0 Z M7.2,0.828 C7.65,0.828 7.983,0.99 8.199,1.314 C8.37,1.584 8.46,1.971 8.46,2.475 C8.46,2.979 8.361,3.366 8.172,3.636 C7.956,3.924 7.614,4.077 7.164,4.077 C6.831,4.077 6.561,3.942 6.345,3.672 C6.102,3.375 5.985,2.979 5.985,2.493 L5.985,2.421 C5.985,1.953 6.075,1.584 6.273,1.305 C6.489,0.981 6.795,0.828 7.2,0.828 Z" id="形状"></path>
                <path d="M12.573,0 C11.862,0 11.295,0.225 10.872,0.693 C10.44,1.152 10.233,1.737 10.233,2.457 C10.233,3.168 10.44,3.753 10.863,4.203 C11.295,4.671 11.862,4.905 12.573,4.905 C13.275,4.905 13.851,4.671 14.283,4.203 C14.697,3.753 14.913,3.168 14.913,2.457 C14.913,1.737 14.697,1.152 14.274,0.693 C13.842,0.225 13.275,0 12.573,0 Z M12.573,0.837 C12.996,0.837 13.329,0.999 13.563,1.341 C13.761,1.629 13.869,2.007 13.869,2.457 C13.869,2.898 13.761,3.267 13.563,3.564 C13.329,3.897 12.996,4.068 12.573,4.068 C12.141,4.068 11.817,3.897 11.583,3.564 C11.385,3.276 11.286,2.907 11.286,2.457 C11.286,2.007 11.385,1.629 11.583,1.341 C11.817,0.999 12.141,0.837 12.573,0.837 Z" id="形状"></path>
            </g>
        </g>
    </g>
</svg>