<?xml version="1.0" encoding="UTF-8"?>
<svg width="20px" height="20px" viewBox="0 0 20 20" version="1.1" xmlns="http://www.w3.org/2000/svg" xmlns:xlink="http://www.w3.org/1999/xlink">
    <title>step</title>
    <g id="文件图标" stroke="none" stroke-width="1" fill="none" fill-rule="evenodd">
        <g id="编组-3">
            <g id="编组" transform="translate(4.444444, 0.000000)" fill-rule="nonzero">
                <path d="M0.729143889,19.5242862 L14.8264117,19.5242862 C14.960342,19.5235005 15.0684874,19.4169183 15.0684874,19.2857149 L15.0684874,5.23858516 L10.9371582,5.23858516 C10.5344632,5.23858516 10.2080143,4.91878886 10.2080143,4.52430012 L10.2080143,0.475732442 L0.729143889,0.475732442 C0.664554638,0.475732442 0.602610796,0.500867553 0.556939301,0.545608337 C0.511267806,0.590349121 0.485609836,0.651030645 0.485609836,0.714303666 L0.485609836,19.2857149 C0.485609836,19.4171434 0.594981412,19.5242862 0.729143889,19.5242862 Z" id="路径" fill="#FFFFFF"></path>
                <path d="M14.9678656,4.76144275 L10.6950824,0.575732349 L10.6950824,4.52430012 C10.6950824,4.65572857 10.8029957,4.76144275 10.9371582,4.76144275 L14.9678656,4.76144275 L14.9678656,4.76144275 Z" id="路径" fill="#FFFFFF"></path>
                <path d="M15.3411873,4.45430019 L11.0100726,0.210018412 C10.8733184,0.0747249558 10.6867371,-0.000961027697 10.4923805,9.2146362e-06 L0.729143889,9.2146362e-06 C0.326448839,9.2146362e-06 0,0.319814921 0,0.714303666 L0,19.2857149 C0,19.6802037 0.326448839,20.0000092 0.729143889,20.0000092 L14.8264117,20.0000092 C15.2291067,20.0000092 15.5555556,19.6802037 15.5555556,19.2857149 L15.5555556,4.95858542 C15.5555556,4.76924268 15.4782987,4.58775259 15.3411873,4.45430019 Z M10.6936242,0.574303796 L14.9678656,4.76144275 L10.9371582,4.76144275 C10.8032255,4.76144275 10.6944262,4.65550112 10.6936242,4.52430012 L10.6936242,0.574303796 Z M14.8264117,19.5242862 L0.729143889,19.5242862 C0.664554638,19.5242862 0.602610796,19.4991511 0.556939301,19.4544103 C0.511267806,19.4096695 0.485609836,19.348988 0.485609836,19.2857149 L0.485609836,0.714303666 C0.485609836,0.582875214 0.594981412,0.475732442 0.729143889,0.475732442 L10.2080143,0.475732442 L10.2080143,4.52430012 C10.2080143,4.91878886 10.5344632,5.23858516 10.9371582,5.23858516 L15.0684874,5.23858516 L15.0684874,19.2857149 C15.0684874,19.4169183 14.960342,19.5235005 14.8264117,19.5242862 L14.8264117,19.5242862 Z" id="形状" fill="#605E5C" opacity="0.64"></path>
            </g>
            <rect id="矩形" fill="#0563B2" x="0" y="6.66666667" width="20" height="8.88888889" rx="1"></rect>
            <g id="step" transform="translate(1.006000, 7.844000)" fill="#FFFFFF" fill-rule="nonzero">
                <path d="M2.025,1.377 C1.449,1.377 0.99,1.494 0.639,1.746 C0.279,1.98 0.108,2.313 0.108,2.745 C0.108,3.15 0.288,3.465 0.648,3.69 C0.873,3.834 1.26,3.969 1.809,4.095 C2.277,4.203 2.583,4.284 2.727,4.356 C2.997,4.482 3.132,4.653 3.132,4.869 C3.132,5.247 2.772,5.445 2.052,5.445 C1.71,5.445 1.467,5.382 1.314,5.274 C1.161,5.148 1.053,4.941 0.999,4.644 L0,4.644 C0.099,5.733 0.792,6.282 2.088,6.282 C3.483,6.282 4.185,5.787 4.185,4.797 C4.185,4.383 3.996,4.05 3.627,3.816 C3.375,3.645 2.979,3.501 2.457,3.375 C1.989,3.258 1.683,3.168 1.53,3.105 C1.278,2.997 1.161,2.862 1.161,2.718 C1.161,2.538 1.233,2.412 1.395,2.331 C1.53,2.25 1.737,2.214 2.007,2.214 C2.322,2.214 2.556,2.259 2.709,2.358 C2.853,2.448 2.961,2.619 3.033,2.853 L4.032,2.853 C3.924,1.863 3.249,1.377 2.025,1.377 Z" id="路径"></path>
                <path d="M6.393,0 L5.367,0.423 L5.367,1.503 L4.53,1.503 L4.53,2.349 L5.367,2.349 L5.367,4.977 C5.367,5.355 5.457,5.634 5.637,5.832 C5.826,6.048 6.123,6.156 6.528,6.156 L7.311,6.156 L7.311,5.31 L6.699,5.31 C6.591,5.31 6.519,5.283 6.465,5.229 C6.411,5.166 6.393,5.085 6.393,4.977 L6.393,2.349 L7.428,2.349 L7.428,1.503 L6.393,1.503 L6.393,0 Z" id="路径"></path>
                <path d="M10.113,1.377 C9.42,1.377 8.871,1.611 8.475,2.088 C8.061,2.556 7.863,3.132 7.863,3.825 C7.863,4.599 8.079,5.202 8.511,5.643 C8.916,6.066 9.465,6.282 10.158,6.282 C10.779,6.282 11.292,6.102 11.706,5.751 C12.03,5.463 12.246,5.094 12.354,4.662 L11.328,4.662 C11.202,4.923 11.067,5.112 10.914,5.229 C10.716,5.373 10.464,5.445 10.149,5.445 C9.78,5.445 9.492,5.328 9.294,5.103 C9.096,4.878 8.979,4.545 8.943,4.113 L12.426,4.113 C12.426,3.276 12.237,2.619 11.868,2.151 C11.463,1.629 10.878,1.377 10.113,1.377 Z M10.14,2.214 C10.86,2.214 11.265,2.583 11.355,3.339 L8.961,3.339 C9.024,2.97 9.15,2.691 9.339,2.502 C9.537,2.304 9.798,2.214 10.14,2.214 Z" id="形状"></path>
                <path d="M15.534,1.377 C14.922,1.377 14.454,1.584 14.13,1.998 L14.13,1.503 L13.176,1.503 L13.176,7.938 L14.202,7.938 L14.202,5.517 C14.58,6.021 15.048,6.282 15.588,6.282 C16.254,6.282 16.785,6.039 17.163,5.553 C17.514,5.103 17.694,4.536 17.694,3.852 C17.694,3.132 17.514,2.556 17.154,2.106 C16.758,1.62 16.218,1.377 15.534,1.377 Z M15.381,2.205 C15.831,2.205 16.164,2.367 16.38,2.691 C16.551,2.961 16.641,3.348 16.641,3.852 C16.641,4.356 16.542,4.743 16.353,5.013 C16.137,5.301 15.795,5.454 15.345,5.454 C15.012,5.454 14.742,5.319 14.526,5.049 C14.283,4.752 14.166,4.356 14.166,3.87 L14.166,3.798 C14.166,3.33 14.256,2.961 14.454,2.682 C14.67,2.358 14.976,2.205 15.381,2.205 Z" id="形状"></path>
            </g>
        </g>
    </g>
</svg>