<?xml version="1.0" encoding="UTF-8"?>
<svg width="20px" height="20px" viewBox="0 0 20 20" version="1.1" xmlns="http://www.w3.org/2000/svg" xmlns:xlink="http://www.w3.org/1999/xlink">
    <title>stl2</title>
    <g id="文件图标" stroke="none" stroke-width="1" fill="none" fill-rule="evenodd">
        <g id="编组-3">
            <g id="编组" transform="translate(4.444444, 0.000000)" fill-rule="nonzero">
                <path d="M0.729143889,19.5242862 L14.8264117,19.5242862 C14.960342,19.5235005 15.0684874,19.4169183 15.0684874,19.2857149 L15.0684874,5.23858516 L10.9371582,5.23858516 C10.5344632,5.23858516 10.2080143,4.91878886 10.2080143,4.52430012 L10.2080143,0.475732442 L0.729143889,0.475732442 C0.664554638,0.475732442 0.602610796,0.500867553 0.556939301,0.545608337 C0.511267806,0.590349121 0.485609836,0.651030645 0.485609836,0.714303666 L0.485609836,19.2857149 C0.485609836,19.4171434 0.594981412,19.5242862 0.729143889,19.5242862 Z" id="路径" fill="#FFFFFF"></path>
                <path d="M14.9678656,4.76144275 L10.6950824,0.575732349 L10.6950824,4.52430012 C10.6950824,4.65572857 10.8029957,4.76144275 10.9371582,4.76144275 L14.9678656,4.76144275 L14.9678656,4.76144275 Z" id="路径" fill="#FFFFFF"></path>
                <path d="M15.3411873,4.45430019 L11.0100726,0.210018412 C10.8733184,0.0747249558 10.6867371,-0.000961027697 10.4923805,9.2146362e-06 L0.729143889,9.2146362e-06 C0.326448839,9.2146362e-06 0,0.319814921 0,0.714303666 L0,19.2857149 C0,19.6802037 0.326448839,20.0000092 0.729143889,20.0000092 L14.8264117,20.0000092 C15.2291067,20.0000092 15.5555556,19.6802037 15.5555556,19.2857149 L15.5555556,4.95858542 C15.5555556,4.76924268 15.4782987,4.58775259 15.3411873,4.45430019 Z M10.6936242,0.574303796 L14.9678656,4.76144275 L10.9371582,4.76144275 C10.8032255,4.76144275 10.6944262,4.65550112 10.6936242,4.52430012 L10.6936242,0.574303796 Z M14.8264117,19.5242862 L0.729143889,19.5242862 C0.664554638,19.5242862 0.602610796,19.4991511 0.556939301,19.4544103 C0.511267806,19.4096695 0.485609836,19.348988 0.485609836,19.2857149 L0.485609836,0.714303666 C0.485609836,0.582875214 0.594981412,0.475732442 0.729143889,0.475732442 L10.2080143,0.475732442 L10.2080143,4.52430012 C10.2080143,4.91878886 10.5344632,5.23858516 10.9371582,5.23858516 L15.0684874,5.23858516 L15.0684874,19.2857149 C15.0684874,19.4169183 14.960342,19.5235005 14.8264117,19.5242862 L14.8264117,19.5242862 Z" id="形状" fill="#605E5C" opacity="0.64"></path>
            </g>
            <g id="编组-4备份" transform="translate(0.000000, 7.000000)">
                <path d="M19,0 C19.5522847,-1.01453063e-16 20,0.44771525 20,1 L20,7.88888889 C20,8.44117364 19.5522847,8.88888889 19,8.88888889 L1,8.88888889 C0.44771525,8.88888889 6.76353751e-17,8.44117364 0,7.88888889 L0,1 C-6.76353751e-17,0.44771525 0.44771525,1.01453063e-16 1,0 L19,0 Z M19.0444832,0.504211426 L1.03848839,0.504211426 C0.762346013,0.504211426 0.538488388,0.728069051 0.538488388,1.00421143 L0.538488388,7.94127083 C0.538488388,8.2174132 0.762346013,8.44127083 1.03848839,8.44127083 L19.0444832,8.44127083 C19.3206256,8.44127083 19.5444832,8.2174132 19.5444832,7.94127083 L19.5444832,1.00421143 C19.5444832,0.728069051 19.3206256,0.504211426 19.0444832,0.504211426 Z" id="形状结合" fill="#0563B2"></path>
                <path d="M1.03848839,0.504211426 L19.0444832,0.504211426 C19.3206256,0.504211426 19.5444832,0.728069051 19.5444832,1.00421143 L19.5444832,7.94127083 C19.5444832,8.2174132 19.3206256,8.44127083 19.0444832,8.44127083 L1.03848839,8.44127083 C0.762346013,8.44127083 0.538488388,8.2174132 0.538488388,7.94127083 L0.538488388,1.00421143 C0.538488388,0.728069051 0.762346013,0.504211426 1.03848839,0.504211426 Z" id="矩形备份-25" fill="#FFFFFF"></path>
            </g>
            <g id="stl" transform="translate(5.001000, 8.000000)" fill="#0563B2" fill-rule="nonzero">
                <path d="M2.025,1.773 C1.449,1.773 0.99,1.89 0.639,2.142 C0.279,2.376 0.108,2.709 0.108,3.141 C0.108,3.546 0.288,3.861 0.648,4.086 C0.873,4.23 1.26,4.365 1.809,4.491 C2.277,4.599 2.583,4.68 2.727,4.752 C2.997,4.878 3.132,5.049 3.132,5.265 C3.132,5.643 2.772,5.841 2.052,5.841 C1.71,5.841 1.467,5.778 1.314,5.67 C1.161,5.544 1.053,5.337 0.999,5.04 L0,5.04 C0.099,6.129 0.792,6.678 2.088,6.678 C3.483,6.678 4.185,6.183 4.185,5.193 C4.185,4.779 3.996,4.446 3.627,4.212 C3.375,4.041 2.979,3.897 2.457,3.771 C1.989,3.654 1.683,3.564 1.53,3.501 C1.278,3.393 1.161,3.258 1.161,3.114 C1.161,2.934 1.233,2.808 1.395,2.727 C1.53,2.646 1.737,2.61 2.007,2.61 C2.322,2.61 2.556,2.655 2.709,2.754 C2.853,2.844 2.961,3.015 3.033,3.249 L4.032,3.249 C3.924,2.259 3.249,1.773 2.025,1.773 Z" id="路径"></path>
                <path d="M6.453,0.396 L5.427,0.819 L5.427,1.899 L4.59,1.899 L4.59,2.745 L5.427,2.745 L5.427,5.373 C5.427,5.751 5.517,6.03 5.697,6.228 C5.886,6.444 6.183,6.552 6.588,6.552 L7.371,6.552 L7.371,5.706 L6.759,5.706 C6.651,5.706 6.579,5.679 6.525,5.625 C6.471,5.562 6.453,5.481 6.453,5.373 L6.453,2.745 L7.488,2.745 L7.488,1.899 L6.453,1.899 L6.453,0.396 Z" id="路径"></path>
                <polygon id="路径" points="8.343 0 8.343 6.552 9.369 6.552 9.369 0"></polygon>
            </g>
        </g>
    </g>
</svg>