<?xml version="1.0" encoding="UTF-8"?>
<svg width="20px" height="20px" viewBox="0 0 20 20" version="1.1" xmlns="http://www.w3.org/2000/svg" xmlns:xlink="http://www.w3.org/1999/xlink">
    <title>stpnc</title>
    <g id="文件图标" stroke="none" stroke-width="1" fill="none" fill-rule="evenodd">
        <g id="编组-3">
            <g id="编组" transform="translate(4.444444, 0.000000)" fill-rule="nonzero">
                <path d="M0.729143889,19.5242862 L14.8264117,19.5242862 C14.960342,19.5235005 15.0684874,19.4169183 15.0684874,19.2857149 L15.0684874,5.23858516 L10.9371582,5.23858516 C10.5344632,5.23858516 10.2080143,4.91878886 10.2080143,4.52430012 L10.2080143,0.475732442 L0.729143889,0.475732442 C0.664554638,0.475732442 0.602610796,0.500867553 0.556939301,0.545608337 C0.511267806,0.590349121 0.485609836,0.651030645 0.485609836,0.714303666 L0.485609836,19.2857149 C0.485609836,19.4171434 0.594981412,19.5242862 0.729143889,19.5242862 Z" id="路径" fill="#FFFFFF"></path>
                <path d="M14.9678656,4.76144275 L10.6950824,0.575732349 L10.6950824,4.52430012 C10.6950824,4.65572857 10.8029957,4.76144275 10.9371582,4.76144275 L14.9678656,4.76144275 L14.9678656,4.76144275 Z" id="路径" fill="#FFFFFF"></path>
                <path d="M15.3411873,4.45430019 L11.0100726,0.210018412 C10.8733184,0.0747249558 10.6867371,-0.000961027697 10.4923805,9.2146362e-06 L0.729143889,9.2146362e-06 C0.326448839,9.2146362e-06 0,0.319814921 0,0.714303666 L0,19.2857149 C0,19.6802037 0.326448839,20.0000092 0.729143889,20.0000092 L14.8264117,20.0000092 C15.2291067,20.0000092 15.5555556,19.6802037 15.5555556,19.2857149 L15.5555556,4.95858542 C15.5555556,4.76924268 15.4782987,4.58775259 15.3411873,4.45430019 Z M10.6936242,0.574303796 L14.9678656,4.76144275 L10.9371582,4.76144275 C10.8032255,4.76144275 10.6944262,4.65550112 10.6936242,4.52430012 L10.6936242,0.574303796 Z M14.8264117,19.5242862 L0.729143889,19.5242862 C0.664554638,19.5242862 0.602610796,19.4991511 0.556939301,19.4544103 C0.511267806,19.4096695 0.485609836,19.348988 0.485609836,19.2857149 L0.485609836,0.714303666 C0.485609836,0.582875214 0.594981412,0.475732442 0.729143889,0.475732442 L10.2080143,0.475732442 L10.2080143,4.52430012 C10.2080143,4.91878886 10.5344632,5.23858516 10.9371582,5.23858516 L15.0684874,5.23858516 L15.0684874,19.2857149 C15.0684874,19.4169183 14.960342,19.5235005 14.8264117,19.5242862 L14.8264117,19.5242862 Z" id="形状" fill="#605E5C" opacity="0.64"></path>
            </g>
            <rect id="矩形" fill="#0563B2" x="0" y="6.66666667" width="20" height="8.88888889" rx="1"></rect>
            <g id="stpnc" transform="translate(0.758665, 8.528000)" fill="#FFFFFF" fill-rule="nonzero">
                <path d="M1.8,1.224 C1.288,1.224 0.88,1.328 0.568,1.552 C0.248,1.76 0.096,2.056 0.096,2.44 C0.096,2.8 0.256,3.08 0.576,3.28 C0.776,3.408 1.12,3.528 1.608,3.64 C2.024,3.736 2.296,3.808 2.424,3.872 C2.664,3.984 2.784,4.136 2.784,4.328 C2.784,4.664 2.464,4.84 1.824,4.84 C1.52,4.84 1.304,4.784 1.168,4.688 C1.032,4.576 0.936,4.392 0.888,4.128 L0,4.128 C0.088,5.096 0.704,5.584 1.856,5.584 C3.096,5.584 3.72,5.144 3.72,4.264 C3.72,3.896 3.552,3.6 3.224,3.392 C3,3.24 2.648,3.112 2.184,3 C1.768,2.896 1.496,2.816 1.36,2.76 C1.136,2.664 1.032,2.544 1.032,2.416 C1.032,2.256 1.096,2.144 1.24,2.072 C1.36,2 1.544,1.968 1.784,1.968 C2.064,1.968 2.272,2.008 2.408,2.096 C2.536,2.176 2.632,2.328 2.696,2.536 L3.584,2.536 C3.488,1.656 2.888,1.224 1.8,1.224 Z" id="路径"></path>
                <path d="M5.382667,0 L4.470667,0.376 L4.470667,1.336 L3.726667,1.336 L3.726667,2.088 L4.470667,2.088 L4.470667,4.424 C4.470667,4.76 4.550667,5.008 4.710667,5.184 C4.878667,5.376 5.142667,5.472 5.502667,5.472 L6.198667,5.472 L6.198667,4.72 L5.654667,4.72 C5.558667,4.72 5.494667,4.696 5.446667,4.648 C5.398667,4.592 5.382667,4.52 5.382667,4.424 L5.382667,2.088 L6.302667,2.088 L6.302667,1.336 L5.382667,1.336 L5.382667,0 Z" id="路径"></path>
                <path d="M8.725334,1.224 C8.181334,1.224 7.765334,1.408 7.477334,1.776 L7.477334,1.336 L6.629334,1.336 L6.629334,7.056 L7.541334,7.056 L7.541334,4.904 C7.877334,5.352 8.293334,5.584 8.773334,5.584 C9.365334,5.584 9.837334,5.368 10.173334,4.936 C10.485334,4.536 10.645334,4.032 10.645334,3.424 C10.645334,2.784 10.485334,2.272 10.165334,1.872 C9.813334,1.44 9.333334,1.224 8.725334,1.224 Z M8.589334,1.96 C8.989334,1.96 9.285334,2.104 9.477334,2.392 C9.629334,2.632 9.709334,2.976 9.709334,3.424 C9.709334,3.872 9.621334,4.216 9.453334,4.456 C9.261334,4.712 8.957334,4.848 8.557334,4.848 C8.261334,4.848 8.021334,4.728 7.829334,4.488 C7.613334,4.224 7.509334,3.872 7.509334,3.44 L7.509334,3.376 C7.509334,2.96 7.589334,2.632 7.765334,2.384 C7.957334,2.096 8.229334,1.96 8.589334,1.96 Z" id="形状"></path>
                <path d="M13.228001,1.224 C12.980001,1.224 12.756001,1.272 12.548001,1.376 C12.348001,1.472 12.164001,1.624 12.004001,1.816 L12.004001,1.336 L11.092001,1.336 L11.092001,5.472 L12.004001,5.472 L12.004001,2.984 C12.036001,2.656 12.148001,2.4 12.340001,2.224 C12.508001,2.064 12.708001,1.984 12.932001,1.984 C13.556001,1.984 13.868001,2.32 13.868001,3 L13.868001,5.472 L14.780001,5.472 L14.780001,2.92 C14.780001,1.784 14.260001,1.224 13.228001,1.224 Z" id="路径"></path>
                <path d="M17.242668,1.224 C16.594668,1.224 16.090668,1.44 15.730668,1.872 C15.394668,2.264 15.226668,2.776 15.226668,3.4 C15.226668,4.04 15.394668,4.56 15.738668,4.96 C16.090668,5.376 16.586668,5.584 17.226668,5.584 C17.762668,5.584 18.194668,5.448 18.514668,5.184 C18.842668,4.912 19.058668,4.496 19.154668,3.936 L18.250668,3.936 C18.178668,4.536 17.842668,4.84 17.234668,4.84 C16.882668,4.84 16.618668,4.712 16.442668,4.464 C16.250668,4.208 16.162668,3.848 16.162668,3.392 C16.162668,2.944 16.258668,2.592 16.450668,2.344 C16.642668,2.088 16.906668,1.968 17.242668,1.968 C17.514668,1.968 17.738668,2.032 17.906668,2.16 C18.066668,2.288 18.178668,2.48 18.234668,2.744 L19.138668,2.744 C19.058668,2.224 18.850668,1.84 18.522668,1.584 C18.202668,1.344 17.778668,1.224 17.242668,1.224 Z" id="路径"></path>
            </g>
        </g>
    </g>
</svg>