<?xml version="1.0" encoding="UTF-8"?>
<svg width="20px" height="20px" viewBox="0 0 20 20" version="1.1" xmlns="http://www.w3.org/2000/svg" xmlns:xlink="http://www.w3.org/1999/xlink">
    <title>stpxz2</title>
    <g id="文件图标" stroke="none" stroke-width="1" fill="none" fill-rule="evenodd">
        <g id="编组-3">
            <g id="编组" transform="translate(4.444444, 0.000000)" fill-rule="nonzero">
                <path d="M0.729143889,19.5242862 L14.8264117,19.5242862 C14.960342,19.5235005 15.0684874,19.4169183 15.0684874,19.2857149 L15.0684874,5.23858516 L10.9371582,5.23858516 C10.5344632,5.23858516 10.2080143,4.91878886 10.2080143,4.52430012 L10.2080143,0.475732442 L0.729143889,0.475732442 C0.664554638,0.475732442 0.602610796,0.500867553 0.556939301,0.545608337 C0.511267806,0.590349121 0.485609836,0.651030645 0.485609836,0.714303666 L0.485609836,19.2857149 C0.485609836,19.4171434 0.594981412,19.5242862 0.729143889,19.5242862 Z" id="路径" fill="#FFFFFF"></path>
                <path d="M14.9678656,4.76144275 L10.6950824,0.575732349 L10.6950824,4.52430012 C10.6950824,4.65572857 10.8029957,4.76144275 10.9371582,4.76144275 L14.9678656,4.76144275 L14.9678656,4.76144275 Z" id="路径" fill="#FFFFFF"></path>
                <path d="M15.3411873,4.45430019 L11.0100726,0.210018412 C10.8733184,0.0747249558 10.6867371,-0.000961027697 10.4923805,9.2146362e-06 L0.729143889,9.2146362e-06 C0.326448839,9.2146362e-06 0,0.319814921 0,0.714303666 L0,19.2857149 C0,19.6802037 0.326448839,20.0000092 0.729143889,20.0000092 L14.8264117,20.0000092 C15.2291067,20.0000092 15.5555556,19.6802037 15.5555556,19.2857149 L15.5555556,4.95858542 C15.5555556,4.76924268 15.4782987,4.58775259 15.3411873,4.45430019 Z M10.6936242,0.574303796 L14.9678656,4.76144275 L10.9371582,4.76144275 C10.8032255,4.76144275 10.6944262,4.65550112 10.6936242,4.52430012 L10.6936242,0.574303796 Z M14.8264117,19.5242862 L0.729143889,19.5242862 C0.664554638,19.5242862 0.602610796,19.4991511 0.556939301,19.4544103 C0.511267806,19.4096695 0.485609836,19.348988 0.485609836,19.2857149 L0.485609836,0.714303666 C0.485609836,0.582875214 0.594981412,0.475732442 0.729143889,0.475732442 L10.2080143,0.475732442 L10.2080143,4.52430012 C10.2080143,4.91878886 10.5344632,5.23858516 10.9371582,5.23858516 L15.0684874,5.23858516 L15.0684874,19.2857149 C15.0684874,19.4169183 14.960342,19.5235005 14.8264117,19.5242862 L14.8264117,19.5242862 Z" id="形状" fill="#605E5C" opacity="0.64"></path>
            </g>
            <g id="编组-4备份" transform="translate(0.000000, 7.000000)">
                <path d="M19,0 C19.5522847,-1.01453063e-16 20,0.44771525 20,1 L20,7.88888889 C20,8.44117364 19.5522847,8.88888889 19,8.88888889 L1,8.88888889 C0.44771525,8.88888889 6.76353751e-17,8.44117364 0,7.88888889 L0,1 C-6.76353751e-17,0.44771525 0.44771525,1.01453063e-16 1,0 L19,0 Z M19.0444832,0.504211426 L1.03848839,0.504211426 C0.762346013,0.504211426 0.538488388,0.728069051 0.538488388,1.00421143 L0.538488388,7.94127083 C0.538488388,8.2174132 0.762346013,8.44127083 1.03848839,8.44127083 L19.0444832,8.44127083 C19.3206256,8.44127083 19.5444832,8.2174132 19.5444832,7.94127083 L19.5444832,1.00421143 C19.5444832,0.728069051 19.3206256,0.504211426 19.0444832,0.504211426 Z" id="形状结合" fill="#0563B2"></path>
                <path d="M1.03848839,0.504211426 L19.0444832,0.504211426 C19.3206256,0.504211426 19.5444832,0.728069051 19.5444832,1.00421143 L19.5444832,7.94127083 C19.5444832,8.2174132 19.3206256,8.44127083 19.0444832,8.44127083 L1.03848839,8.44127083 C0.762346013,8.44127083 0.538488388,8.2174132 0.538488388,7.94127083 L0.538488388,1.00421143 C0.538488388,0.728069051 0.762346013,0.504211426 1.03848839,0.504211426 Z" id="矩形备份-25" fill="#FFFFFF"></path>
            </g>
            <g id="stpxz" transform="translate(1.050665, 7.800000)" fill="#0563B2" fill-rule="nonzero">
                <path d="M1.8,1.224 C1.288,1.224 0.88,1.328 0.568,1.552 C0.248,1.76 0.096,2.056 0.096,2.44 C0.096,2.8 0.256,3.08 0.576,3.28 C0.776,3.408 1.12,3.528 1.608,3.64 C2.024,3.736 2.296,3.808 2.424,3.872 C2.664,3.984 2.784,4.136 2.784,4.328 C2.784,4.664 2.464,4.84 1.824,4.84 C1.52,4.84 1.304,4.784 1.168,4.688 C1.032,4.576 0.936,4.392 0.888,4.128 L0,4.128 C0.088,5.096 0.704,5.584 1.856,5.584 C3.096,5.584 3.72,5.144 3.72,4.264 C3.72,3.896 3.552,3.6 3.224,3.392 C3,3.24 2.648,3.112 2.184,3 C1.768,2.896 1.496,2.816 1.36,2.76 C1.136,2.664 1.032,2.544 1.032,2.416 C1.032,2.256 1.096,2.144 1.24,2.072 C1.36,2 1.544,1.968 1.784,1.968 C2.064,1.968 2.272,2.008 2.408,2.096 C2.536,2.176 2.632,2.328 2.696,2.536 L3.584,2.536 C3.488,1.656 2.888,1.224 1.8,1.224 Z" id="路径"></path>
                <path d="M5.382667,0 L4.470667,0.376 L4.470667,1.336 L3.726667,1.336 L3.726667,2.088 L4.470667,2.088 L4.470667,4.424 C4.470667,4.76 4.550667,5.008 4.710667,5.184 C4.878667,5.376 5.142667,5.472 5.502667,5.472 L6.198667,5.472 L6.198667,4.72 L5.654667,4.72 C5.558667,4.72 5.494667,4.696 5.446667,4.648 C5.398667,4.592 5.382667,4.52 5.382667,4.424 L5.382667,2.088 L6.302667,2.088 L6.302667,1.336 L5.382667,1.336 L5.382667,0 Z" id="路径"></path>
                <path d="M8.725334,1.224 C8.181334,1.224 7.765334,1.408 7.477334,1.776 L7.477334,1.336 L6.629334,1.336 L6.629334,7.056 L7.541334,7.056 L7.541334,4.904 C7.877334,5.352 8.293334,5.584 8.773334,5.584 C9.365334,5.584 9.837334,5.368 10.173334,4.936 C10.485334,4.536 10.645334,4.032 10.645334,3.424 C10.645334,2.784 10.485334,2.272 10.165334,1.872 C9.813334,1.44 9.333334,1.224 8.725334,1.224 Z M8.589334,1.96 C8.989334,1.96 9.285334,2.104 9.477334,2.392 C9.629334,2.632 9.709334,2.976 9.709334,3.424 C9.709334,3.872 9.621334,4.216 9.453334,4.456 C9.261334,4.712 8.957334,4.848 8.557334,4.848 C8.261334,4.848 8.021334,4.728 7.829334,4.488 C7.613334,4.224 7.509334,3.872 7.509334,3.44 L7.509334,3.376 C7.509334,2.96 7.589334,2.632 7.765334,2.384 C7.957334,2.096 8.229334,1.96 8.589334,1.96 Z" id="形状"></path>
                <polygon id="路径" points="10.836001 1.336 12.260001 3.272 10.652001 5.472 11.724001 5.472 12.764001 3.944 13.796001 5.472 14.868001 5.472 13.260001 3.272 14.684001 1.336 13.620001 1.336 12.764001 2.6 11.900001 1.336"></polygon>
                <polygon id="路径" points="14.834668 1.336 14.834668 2.08 17.042668 2.08 14.754668 4.856 14.754668 5.472 18.402668 5.472 18.402668 4.728 15.954668 4.728 18.274668 1.92 18.274668 1.336"></polygon>
            </g>
        </g>
    </g>
</svg>