<?xml version="1.0" encoding="UTF-8"?>
<svg width="20px" height="20px" viewBox="0 0 20 20" version="1.1" xmlns="http://www.w3.org/2000/svg" xmlns:xlink="http://www.w3.org/1999/xlink">
    <title>stpz</title>
    <g id="文件图标" stroke="none" stroke-width="1" fill="none" fill-rule="evenodd">
        <g id="编组-3">
            <g id="编组" transform="translate(4.444444, 0.000000)" fill-rule="nonzero">
                <path d="M0.729143889,19.5242862 L14.8264117,19.5242862 C14.960342,19.5235005 15.0684874,19.4169183 15.0684874,19.2857149 L15.0684874,5.23858516 L10.9371582,5.23858516 C10.5344632,5.23858516 10.2080143,4.91878886 10.2080143,4.52430012 L10.2080143,0.475732442 L0.729143889,0.475732442 C0.664554638,0.475732442 0.602610796,0.500867553 0.556939301,0.545608337 C0.511267806,0.590349121 0.485609836,0.651030645 0.485609836,0.714303666 L0.485609836,19.2857149 C0.485609836,19.4171434 0.594981412,19.5242862 0.729143889,19.5242862 Z" id="路径" fill="#FFFFFF"></path>
                <path d="M14.9678656,4.76144275 L10.6950824,0.575732349 L10.6950824,4.52430012 C10.6950824,4.65572857 10.8029957,4.76144275 10.9371582,4.76144275 L14.9678656,4.76144275 L14.9678656,4.76144275 Z" id="路径" fill="#FFFFFF"></path>
                <path d="M15.3411873,4.45430019 L11.0100726,0.210018412 C10.8733184,0.0747249558 10.6867371,-0.000961027697 10.4923805,9.2146362e-06 L0.729143889,9.2146362e-06 C0.326448839,9.2146362e-06 0,0.319814921 0,0.714303666 L0,19.2857149 C0,19.6802037 0.326448839,20.0000092 0.729143889,20.0000092 L14.8264117,20.0000092 C15.2291067,20.0000092 15.5555556,19.6802037 15.5555556,19.2857149 L15.5555556,4.95858542 C15.5555556,4.76924268 15.4782987,4.58775259 15.3411873,4.45430019 Z M10.6936242,0.574303796 L14.9678656,4.76144275 L10.9371582,4.76144275 C10.8032255,4.76144275 10.6944262,4.65550112 10.6936242,4.52430012 L10.6936242,0.574303796 Z M14.8264117,19.5242862 L0.729143889,19.5242862 C0.664554638,19.5242862 0.602610796,19.4991511 0.556939301,19.4544103 C0.511267806,19.4096695 0.485609836,19.348988 0.485609836,19.2857149 L0.485609836,0.714303666 C0.485609836,0.582875214 0.594981412,0.475732442 0.729143889,0.475732442 L10.2080143,0.475732442 L10.2080143,4.52430012 C10.2080143,4.91878886 10.5344632,5.23858516 10.9371582,5.23858516 L15.0684874,5.23858516 L15.0684874,19.2857149 C15.0684874,19.4169183 14.960342,19.5235005 14.8264117,19.5242862 L14.8264117,19.5242862 Z" id="形状" fill="#605E5C" opacity="0.64"></path>
            </g>
            <rect id="矩形" fill="#0563B2" x="0" y="6.66666667" width="20" height="8.88888889" rx="1"></rect>
            <g id="stpz" transform="translate(2.493333, 8.528000)" fill="#FFFFFF" fill-rule="nonzero">
                <path d="M1.8,1.224 C1.288,1.224 0.88,1.328 0.568,1.552 C0.248,1.76 0.096,2.056 0.096,2.44 C0.096,2.8 0.256,3.08 0.576,3.28 C0.776,3.408 1.12,3.528 1.608,3.64 C2.024,3.736 2.296,3.808 2.424,3.872 C2.664,3.984 2.784,4.136 2.784,4.328 C2.784,4.664 2.464,4.84 1.824,4.84 C1.52,4.84 1.304,4.784 1.168,4.688 C1.032,4.576 0.936,4.392 0.888,4.128 L0,4.128 C0.088,5.096 0.704,5.584 1.856,5.584 C3.096,5.584 3.72,5.144 3.72,4.264 C3.72,3.896 3.552,3.6 3.224,3.392 C3,3.24 2.648,3.112 2.184,3 C1.768,2.896 1.496,2.816 1.36,2.76 C1.136,2.664 1.032,2.544 1.032,2.416 C1.032,2.256 1.096,2.144 1.24,2.072 C1.36,2 1.544,1.968 1.784,1.968 C2.064,1.968 2.272,2.008 2.408,2.096 C2.536,2.176 2.632,2.328 2.696,2.536 L3.584,2.536 C3.488,1.656 2.888,1.224 1.8,1.224 Z" id="路径"></path>
                <path d="M5.68266667,0 L4.77066667,0.376 L4.77066667,1.336 L4.02666667,1.336 L4.02666667,2.088 L4.77066667,2.088 L4.77066667,4.424 C4.77066667,4.76 4.85066667,5.008 5.01066667,5.184 C5.17866667,5.376 5.44266667,5.472 5.80266667,5.472 L6.49866667,5.472 L6.49866667,4.72 L5.95466667,4.72 C5.85866667,4.72 5.79466667,4.696 5.74666667,4.648 C5.69866667,4.592 5.68266667,4.52 5.68266667,4.424 L5.68266667,2.088 L6.60266667,2.088 L6.60266667,1.336 L5.68266667,1.336 L5.68266667,0 Z" id="路径"></path>
                <path d="M9.32533333,1.224 C8.78133333,1.224 8.36533333,1.408 8.07733333,1.776 L8.07733333,1.336 L7.22933333,1.336 L7.22933333,7.056 L8.14133333,7.056 L8.14133333,4.904 C8.47733333,5.352 8.89333333,5.584 9.37333333,5.584 C9.96533333,5.584 10.4373333,5.368 10.7733333,4.936 C11.0853333,4.536 11.2453333,4.032 11.2453333,3.424 C11.2453333,2.784 11.0853333,2.272 10.7653333,1.872 C10.4133333,1.44 9.93333333,1.224 9.32533333,1.224 Z M9.18933333,1.96 C9.58933333,1.96 9.88533333,2.104 10.0773333,2.392 C10.2293333,2.632 10.3093333,2.976 10.3093333,3.424 C10.3093333,3.872 10.2213333,4.216 10.0533333,4.456 C9.86133333,4.712 9.55733333,4.848 9.15733333,4.848 C8.86133333,4.848 8.62133333,4.728 8.42933333,4.488 C8.21333333,4.224 8.10933333,3.872 8.10933333,3.44 L8.10933333,3.376 C8.10933333,2.96 8.18933333,2.632 8.36533333,2.384 C8.55733333,2.096 8.82933333,1.96 9.18933333,1.96 Z" id="形状"></path>
                <polygon id="路径" points="11.792 1.336 11.792 2.08 14 2.08 11.712 4.856 11.712 5.472 15.36 5.472 15.36 4.728 12.912 4.728 15.232 1.92 15.232 1.336"></polygon>
            </g>
        </g>
    </g>
</svg>