<?xml version="1.0" encoding="UTF-8"?>
<svg width="20px" height="20px" viewBox="0 0 20 20" version="1.1" xmlns="http://www.w3.org/2000/svg" xmlns:xlink="http://www.w3.org/1999/xlink">
    <title>tif</title>
    <g id="文件图标" stroke="none" stroke-width="1" fill="none" fill-rule="evenodd">
        <g id="编组-3">
            <g id="编组" transform="translate(4.444444, 0.000000)" fill-rule="nonzero">
                <path d="M0.729143889,19.5242862 L14.8264117,19.5242862 C14.960342,19.5235005 15.0684874,19.4169183 15.0684874,19.2857149 L15.0684874,5.23858516 L10.9371582,5.23858516 C10.5344632,5.23858516 10.2080143,4.91878886 10.2080143,4.52430012 L10.2080143,0.475732442 L0.729143889,0.475732442 C0.664554638,0.475732442 0.602610796,0.500867553 0.556939301,0.545608337 C0.511267806,0.590349121 0.485609836,0.651030645 0.485609836,0.714303666 L0.485609836,19.2857149 C0.485609836,19.4171434 0.594981412,19.5242862 0.729143889,19.5242862 Z" id="路径" fill="#FFFFFF"></path>
                <path d="M14.9678656,4.76144275 L10.6950824,0.575732349 L10.6950824,4.52430012 C10.6950824,4.65572857 10.8029957,4.76144275 10.9371582,4.76144275 L14.9678656,4.76144275 L14.9678656,4.76144275 Z" id="路径" fill="#FFFFFF"></path>
                <path d="M15.3411873,4.45430019 L11.0100726,0.210018412 C10.8733184,0.0747249558 10.6867371,-0.000961027697 10.4923805,9.2146362e-06 L0.729143889,9.2146362e-06 C0.326448839,9.2146362e-06 0,0.319814921 0,0.714303666 L0,19.2857149 C0,19.6802037 0.326448839,20.0000092 0.729143889,20.0000092 L14.8264117,20.0000092 C15.2291067,20.0000092 15.5555556,19.6802037 15.5555556,19.2857149 L15.5555556,4.95858542 C15.5555556,4.76924268 15.4782987,4.58775259 15.3411873,4.45430019 Z M10.6936242,0.574303796 L14.9678656,4.76144275 L10.9371582,4.76144275 C10.8032255,4.76144275 10.6944262,4.65550112 10.6936242,4.52430012 L10.6936242,0.574303796 Z M14.8264117,19.5242862 L0.729143889,19.5242862 C0.664554638,19.5242862 0.602610796,19.4991511 0.556939301,19.4544103 C0.511267806,19.4096695 0.485609836,19.348988 0.485609836,19.2857149 L0.485609836,0.714303666 C0.485609836,0.582875214 0.594981412,0.475732442 0.729143889,0.475732442 L10.2080143,0.475732442 L10.2080143,4.52430012 C10.2080143,4.91878886 10.5344632,5.23858516 10.9371582,5.23858516 L15.0684874,5.23858516 L15.0684874,19.2857149 C15.0684874,19.4169183 14.960342,19.5235005 14.8264117,19.5242862 L14.8264117,19.5242862 Z" id="形状" fill="#605E5C" opacity="0.64"></path>
            </g>
            <rect id="矩形" fill="#0563B2" x="0" y="6.66666667" width="20" height="8.88888889" rx="1"></rect>
            <g id="tif" transform="translate(6.180000, 8.448000)" fill="#FFFFFF" fill-rule="nonzero">
                <path d="M1.863,0.396 L0.837,0.819 L0.837,1.899 L0,1.899 L0,2.745 L0.837,2.745 L0.837,5.373 C0.837,5.751 0.927,6.03 1.107,6.228 C1.296,6.444 1.593,6.552 1.998,6.552 L2.781,6.552 L2.781,5.706 L2.169,5.706 C2.061,5.706 1.989,5.679 1.935,5.625 C1.881,5.562 1.863,5.481 1.863,5.373 L1.863,2.745 L2.898,2.745 L2.898,1.899 L1.863,1.899 L1.863,0.396 Z" id="路径"></path>
                <path d="M4.296,0 C4.098,0 3.936,0.063 3.801,0.189 C3.666,0.315 3.603,0.477 3.603,0.675 C3.603,0.873 3.666,1.035 3.801,1.17 C3.936,1.296 4.098,1.359 4.296,1.359 C4.494,1.359 4.656,1.296 4.791,1.17 C4.926,1.044 4.998,0.873 4.998,0.675 C4.998,0.477 4.926,0.315 4.8,0.189 C4.665,0.063 4.494,0 4.296,0 Z M3.783,1.899 L3.783,6.552 L4.809,6.552 L4.809,1.899 L3.783,1.899 Z" id="形状"></path>
                <path d="M7.845,0.126 C7.431,0.126 7.107,0.234 6.891,0.468 C6.666,0.693 6.558,1.008 6.558,1.404 L6.558,1.899 L5.523,1.899 L5.523,2.736 L6.558,2.736 L6.558,6.552 L7.584,6.552 L7.584,2.736 L8.772,2.736 L8.772,1.899 L7.584,1.899 L7.584,1.431 C7.584,1.278 7.611,1.17 7.683,1.098 C7.755,1.026 7.854,0.99 7.989,0.99 L8.835,0.99 L8.835,0.126 L7.845,0.126 Z" id="路径"></path>
            </g>
        </g>
    </g>
</svg>