<?xml version="1.0" encoding="UTF-8"?>
<svg width="20px" height="20px" viewBox="0 0 20 20" version="1.1" xmlns="http://www.w3.org/2000/svg" xmlns:xlink="http://www.w3.org/1999/xlink">
    <title>vda</title>
    <g id="文件图标" stroke="none" stroke-width="1" fill="none" fill-rule="evenodd">
        <g id="编组-3">
            <g id="编组" transform="translate(4.444444, 0.000000)" fill-rule="nonzero">
                <path d="M0.729143889,19.5242862 L14.8264117,19.5242862 C14.960342,19.5235005 15.0684874,19.4169183 15.0684874,19.2857149 L15.0684874,5.23858516 L10.9371582,5.23858516 C10.5344632,5.23858516 10.2080143,4.91878886 10.2080143,4.52430012 L10.2080143,0.475732442 L0.729143889,0.475732442 C0.664554638,0.475732442 0.602610796,0.500867553 0.556939301,0.545608337 C0.511267806,0.590349121 0.485609836,0.651030645 0.485609836,0.714303666 L0.485609836,19.2857149 C0.485609836,19.4171434 0.594981412,19.5242862 0.729143889,19.5242862 Z" id="路径" fill="#FFFFFF"></path>
                <path d="M14.9678656,4.76144275 L10.6950824,0.575732349 L10.6950824,4.52430012 C10.6950824,4.65572857 10.8029957,4.76144275 10.9371582,4.76144275 L14.9678656,4.76144275 L14.9678656,4.76144275 Z" id="路径" fill="#FFFFFF"></path>
                <path d="M15.3411873,4.45430019 L11.0100726,0.210018412 C10.8733184,0.0747249558 10.6867371,-0.000961027697 10.4923805,9.2146362e-06 L0.729143889,9.2146362e-06 C0.326448839,9.2146362e-06 0,0.319814921 0,0.714303666 L0,19.2857149 C0,19.6802037 0.326448839,20.0000092 0.729143889,20.0000092 L14.8264117,20.0000092 C15.2291067,20.0000092 15.5555556,19.6802037 15.5555556,19.2857149 L15.5555556,4.95858542 C15.5555556,4.76924268 15.4782987,4.58775259 15.3411873,4.45430019 Z M10.6936242,0.574303796 L14.9678656,4.76144275 L10.9371582,4.76144275 C10.8032255,4.76144275 10.6944262,4.65550112 10.6936242,4.52430012 L10.6936242,0.574303796 Z M14.8264117,19.5242862 L0.729143889,19.5242862 C0.664554638,19.5242862 0.602610796,19.4991511 0.556939301,19.4544103 C0.511267806,19.4096695 0.485609836,19.348988 0.485609836,19.2857149 L0.485609836,0.714303666 C0.485609836,0.582875214 0.594981412,0.475732442 0.729143889,0.475732442 L10.2080143,0.475732442 L10.2080143,4.52430012 C10.2080143,4.91878886 10.5344632,5.23858516 10.9371582,5.23858516 L15.0684874,5.23858516 L15.0684874,19.2857149 C15.0684874,19.4169183 14.960342,19.5235005 14.8264117,19.5242862 L14.8264117,19.5242862 Z" id="形状" fill="#605E5C" opacity="0.64"></path>
            </g>
            <rect id="矩形" fill="#0563B2" x="0" y="6.66666667" width="20" height="8.88888889" rx="1"></rect>
            <g id="vda" transform="translate(2.105000, 7.448000)" fill="#FFFFFF" fill-rule="nonzero">
                <polygon id="路径" points="0 1.899 1.719 6.552 2.745 6.552 4.464 1.899 3.348 1.899 2.232 5.274 1.116 1.899"></polygon>
                <path d="M8.301,0 L8.301,2.538 C7.914,2.025 7.455,1.773 6.915,1.773 C6.249,1.773 5.718,2.016 5.34,2.502 C4.98,2.952 4.809,3.519 4.809,4.203 C4.809,4.914 4.989,5.499 5.349,5.949 C5.736,6.435 6.276,6.678 6.969,6.678 C7.581,6.678 8.049,6.471 8.373,6.057 L8.373,6.552 L9.327,6.552 L9.327,0 L8.301,0 Z M7.158,2.601 C7.482,2.601 7.761,2.736 7.977,3.006 C8.211,3.294 8.337,3.69 8.337,4.185 L8.337,4.257 C8.337,4.707 8.238,5.085 8.049,5.373 C7.833,5.688 7.518,5.85 7.122,5.85 C6.663,5.85 6.33,5.688 6.123,5.364 C5.943,5.094 5.862,4.707 5.862,4.203 C5.862,3.699 5.952,3.321 6.141,3.06 C6.357,2.754 6.69,2.601 7.158,2.601 Z" id="形状"></path>
                <path d="M12.462,1.773 C11.868,1.773 11.4,1.872 11.058,2.088 C10.653,2.322 10.401,2.7 10.302,3.213 L11.319,3.294 C11.373,3.051 11.508,2.871 11.706,2.754 C11.877,2.646 12.102,2.601 12.39,2.601 C13.056,2.601 13.389,2.898 13.389,3.51 L13.389,3.69 L12.372,3.717 C11.688,3.735 11.157,3.879 10.779,4.149 C10.365,4.428 10.167,4.833 10.167,5.355 C10.167,5.742 10.311,6.057 10.599,6.309 C10.878,6.552 11.256,6.678 11.742,6.678 C12.147,6.678 12.498,6.606 12.795,6.471 C13.056,6.345 13.281,6.174 13.461,5.94 L13.461,6.552 L14.415,6.552 L14.415,3.582 C14.415,3.015 14.271,2.583 13.983,2.286 C13.659,1.944 13.146,1.773 12.462,1.773 Z M13.389,4.428 L13.389,4.662 C13.389,5.022 13.245,5.319 12.975,5.553 C12.705,5.778 12.372,5.895 11.976,5.895 C11.751,5.895 11.571,5.832 11.427,5.724 C11.283,5.616 11.22,5.481 11.22,5.319 C11.22,4.761 11.625,4.473 12.444,4.455 L13.389,4.428 Z" id="形状"></path>
            </g>
        </g>
    </g>
</svg>