<?xml version="1.0" encoding="UTF-8"?>
<svg width="20px" height="20px" viewBox="0 0 20 20" version="1.1" xmlns="http://www.w3.org/2000/svg" xmlns:xlink="http://www.w3.org/1999/xlink">
    <title>vsd</title>
    <g id="文件图标" stroke="none" stroke-width="1" fill="none" fill-rule="evenodd">
        <g id="编组-3">
            <g id="编组" transform="translate(4.444444, 0.000000)" fill-rule="nonzero">
                <path d="M0.729143889,19.5242862 L14.8264117,19.5242862 C14.960342,19.5235005 15.0684874,19.4169183 15.0684874,19.2857149 L15.0684874,5.23858516 L10.9371582,5.23858516 C10.5344632,5.23858516 10.2080143,4.91878886 10.2080143,4.52430012 L10.2080143,0.475732442 L0.729143889,0.475732442 C0.664554638,0.475732442 0.602610796,0.500867553 0.556939301,0.545608337 C0.511267806,0.590349121 0.485609836,0.651030645 0.485609836,0.714303666 L0.485609836,19.2857149 C0.485609836,19.4171434 0.594981412,19.5242862 0.729143889,19.5242862 Z" id="路径" fill="#FFFFFF"></path>
                <path d="M14.9678656,4.76144275 L10.6950824,0.575732349 L10.6950824,4.52430012 C10.6950824,4.65572857 10.8029957,4.76144275 10.9371582,4.76144275 L14.9678656,4.76144275 L14.9678656,4.76144275 Z" id="路径" fill="#FFFFFF"></path>
                <path d="M15.3411873,4.45430019 L11.0100726,0.210018412 C10.8733184,0.0747249558 10.6867371,-0.000961027697 10.4923805,9.2146362e-06 L0.729143889,9.2146362e-06 C0.326448839,9.2146362e-06 0,0.319814921 0,0.714303666 L0,19.2857149 C0,19.6802037 0.326448839,20.0000092 0.729143889,20.0000092 L14.8264117,20.0000092 C15.2291067,20.0000092 15.5555556,19.6802037 15.5555556,19.2857149 L15.5555556,4.95858542 C15.5555556,4.76924268 15.4782987,4.58775259 15.3411873,4.45430019 Z M10.6936242,0.574303796 L14.9678656,4.76144275 L10.9371582,4.76144275 C10.8032255,4.76144275 10.6944262,4.65550112 10.6936242,4.52430012 L10.6936242,0.574303796 Z M14.8264117,19.5242862 L0.729143889,19.5242862 C0.664554638,19.5242862 0.602610796,19.4991511 0.556939301,19.4544103 C0.511267806,19.4096695 0.485609836,19.348988 0.485609836,19.2857149 L0.485609836,0.714303666 C0.485609836,0.582875214 0.594981412,0.475732442 0.729143889,0.475732442 L10.2080143,0.475732442 L10.2080143,4.52430012 C10.2080143,4.91878886 10.5344632,5.23858516 10.9371582,5.23858516 L15.0684874,5.23858516 L15.0684874,19.2857149 C15.0684874,19.4169183 14.960342,19.5235005 14.8264117,19.5242862 L14.8264117,19.5242862 Z" id="形状" fill="#605E5C" opacity="0.64"></path>
            </g>
            <rect id="矩形" fill="#0563B2" x="0" y="6.66666667" width="20" height="8.88888889" rx="1"></rect>
            <g id="vsd" transform="translate(2.528000, 7.448000)" fill="#FFFFFF" fill-rule="nonzero">
                <polygon id="路径" points="0 1.899 1.719 6.552 2.745 6.552 4.464 1.899 3.348 1.899 2.232 5.274 1.116 1.899"></polygon>
                <path d="M6.744,1.773 C6.168,1.773 5.709,1.89 5.358,2.142 C4.998,2.376 4.827,2.709 4.827,3.141 C4.827,3.546 5.007,3.861 5.367,4.086 C5.592,4.23 5.979,4.365 6.528,4.491 C6.996,4.599 7.302,4.68 7.446,4.752 C7.716,4.878 7.851,5.049 7.851,5.265 C7.851,5.643 7.491,5.841 6.771,5.841 C6.429,5.841 6.186,5.778 6.033,5.67 C5.88,5.544 5.772,5.337 5.718,5.04 L4.719,5.04 C4.818,6.129 5.511,6.678 6.807,6.678 C8.202,6.678 8.904,6.183 8.904,5.193 C8.904,4.779 8.715,4.446 8.346,4.212 C8.094,4.041 7.698,3.897 7.176,3.771 C6.708,3.654 6.402,3.564 6.249,3.501 C5.997,3.393 5.88,3.258 5.88,3.114 C5.88,2.934 5.952,2.808 6.114,2.727 C6.249,2.646 6.456,2.61 6.726,2.61 C7.041,2.61 7.275,2.655 7.428,2.754 C7.572,2.844 7.68,3.015 7.752,3.249 L8.751,3.249 C8.643,2.259 7.968,1.773 6.744,1.773 Z" id="路径"></path>
                <path d="M12.966,0 L12.966,2.538 C12.579,2.025 12.12,1.773 11.58,1.773 C10.914,1.773 10.383,2.016 10.005,2.502 C9.645,2.952 9.474,3.519 9.474,4.203 C9.474,4.914 9.654,5.499 10.014,5.949 C10.401,6.435 10.941,6.678 11.634,6.678 C12.246,6.678 12.714,6.471 13.038,6.057 L13.038,6.552 L13.992,6.552 L13.992,0 L12.966,0 Z M11.823,2.601 C12.147,2.601 12.426,2.736 12.642,3.006 C12.876,3.294 13.002,3.69 13.002,4.185 L13.002,4.257 C13.002,4.707 12.903,5.085 12.714,5.373 C12.498,5.688 12.183,5.85 11.787,5.85 C11.328,5.85 10.995,5.688 10.788,5.364 C10.608,5.094 10.527,4.707 10.527,4.203 C10.527,3.699 10.617,3.321 10.806,3.06 C11.022,2.754 11.355,2.601 11.823,2.601 Z" id="形状"></path>
            </g>
        </g>
    </g>
</svg>