<?xml version="1.0" encoding="UTF-8"?>
<svg width="20px" height="20px" viewBox="0 0 20 20" version="1.1" xmlns="http://www.w3.org/2000/svg" xmlns:xlink="http://www.w3.org/1999/xlink">
    <title>vssx2</title>
    <g id="文件图标" stroke="none" stroke-width="1" fill="none" fill-rule="evenodd">
        <g id="编组-3">
            <g id="编组" transform="translate(4.444444, 0.000000)" fill-rule="nonzero">
                <path d="M0.729143889,19.5242862 L14.8264117,19.5242862 C14.960342,19.5235005 15.0684874,19.4169183 15.0684874,19.2857149 L15.0684874,5.23858516 L10.9371582,5.23858516 C10.5344632,5.23858516 10.2080143,4.91878886 10.2080143,4.52430012 L10.2080143,0.475732442 L0.729143889,0.475732442 C0.664554638,0.475732442 0.602610796,0.500867553 0.556939301,0.545608337 C0.511267806,0.590349121 0.485609836,0.651030645 0.485609836,0.714303666 L0.485609836,19.2857149 C0.485609836,19.4171434 0.594981412,19.5242862 0.729143889,19.5242862 Z" id="路径" fill="#FFFFFF"></path>
                <path d="M14.9678656,4.76144275 L10.6950824,0.575732349 L10.6950824,4.52430012 C10.6950824,4.65572857 10.8029957,4.76144275 10.9371582,4.76144275 L14.9678656,4.76144275 L14.9678656,4.76144275 Z" id="路径" fill="#FFFFFF"></path>
                <path d="M15.3411873,4.45430019 L11.0100726,0.210018412 C10.8733184,0.0747249558 10.6867371,-0.000961027697 10.4923805,9.2146362e-06 L0.729143889,9.2146362e-06 C0.326448839,9.2146362e-06 0,0.319814921 0,0.714303666 L0,19.2857149 C0,19.6802037 0.326448839,20.0000092 0.729143889,20.0000092 L14.8264117,20.0000092 C15.2291067,20.0000092 15.5555556,19.6802037 15.5555556,19.2857149 L15.5555556,4.95858542 C15.5555556,4.76924268 15.4782987,4.58775259 15.3411873,4.45430019 Z M10.6936242,0.574303796 L14.9678656,4.76144275 L10.9371582,4.76144275 C10.8032255,4.76144275 10.6944262,4.65550112 10.6936242,4.52430012 L10.6936242,0.574303796 Z M14.8264117,19.5242862 L0.729143889,19.5242862 C0.664554638,19.5242862 0.602610796,19.4991511 0.556939301,19.4544103 C0.511267806,19.4096695 0.485609836,19.348988 0.485609836,19.2857149 L0.485609836,0.714303666 C0.485609836,0.582875214 0.594981412,0.475732442 0.729143889,0.475732442 L10.2080143,0.475732442 L10.2080143,4.52430012 C10.2080143,4.91878886 10.5344632,5.23858516 10.9371582,5.23858516 L15.0684874,5.23858516 L15.0684874,19.2857149 C15.0684874,19.4169183 14.960342,19.5235005 14.8264117,19.5242862 L14.8264117,19.5242862 Z" id="形状" fill="#605E5C" opacity="0.64"></path>
            </g>
            <g id="编组-4备份" transform="translate(0.000000, 7.000000)">
                <path d="M19,0 C19.5522847,-1.01453063e-16 20,0.44771525 20,1 L20,7.88888889 C20,8.44117364 19.5522847,8.88888889 19,8.88888889 L1,8.88888889 C0.44771525,8.88888889 6.76353751e-17,8.44117364 0,7.88888889 L0,1 C-6.76353751e-17,0.44771525 0.44771525,1.01453063e-16 1,0 L19,0 Z M19.0444832,0.504211426 L1.03848839,0.504211426 C0.762346013,0.504211426 0.538488388,0.728069051 0.538488388,1.00421143 L0.538488388,7.94127083 C0.538488388,8.2174132 0.762346013,8.44127083 1.03848839,8.44127083 L19.0444832,8.44127083 C19.3206256,8.44127083 19.5444832,8.2174132 19.5444832,7.94127083 L19.5444832,1.00421143 C19.5444832,0.728069051 19.3206256,0.504211426 19.0444832,0.504211426 Z" id="形状结合" fill="#0563B2"></path>
                <path d="M1.03848839,0.504211426 L19.0444832,0.504211426 C19.3206256,0.504211426 19.5444832,0.728069051 19.5444832,1.00421143 L19.5444832,7.94127083 C19.5444832,8.2174132 19.3206256,8.44127083 19.0444832,8.44127083 L1.03848839,8.44127083 C0.762346013,8.44127083 0.538488388,8.2174132 0.538488388,7.94127083 L0.538488388,1.00421143 C0.538488388,0.728069051 0.762346013,0.504211426 1.03848839,0.504211426 Z" id="矩形备份-25" fill="#FFFFFF"></path>
            </g>
            <g id="vssx" transform="translate(0.448000, 9.221000)" fill="#0563B2" fill-rule="nonzero">
                <polygon id="路径" points="0 0.126 1.719 4.779 2.745 4.779 4.464 0.126 3.348 0.126 2.232 3.501 1.116 0.126"></polygon>
                <path d="M6.744,0 C6.168,0 5.709,0.117 5.358,0.369 C4.998,0.603 4.827,0.936 4.827,1.368 C4.827,1.773 5.007,2.088 5.367,2.313 C5.592,2.457 5.979,2.592 6.528,2.718 C6.996,2.826 7.302,2.907 7.446,2.979 C7.716,3.105 7.851,3.276 7.851,3.492 C7.851,3.87 7.491,4.068 6.771,4.068 C6.429,4.068 6.186,4.005 6.033,3.897 C5.88,3.771 5.772,3.564 5.718,3.267 L4.719,3.267 C4.818,4.356 5.511,4.905 6.807,4.905 C8.202,4.905 8.904,4.41 8.904,3.42 C8.904,3.006 8.715,2.673 8.346,2.439 C8.094,2.268 7.698,2.124 7.176,1.998 C6.708,1.881 6.402,1.791 6.249,1.728 C5.997,1.62 5.88,1.485 5.88,1.341 C5.88,1.161 5.952,1.035 6.114,0.954 C6.249,0.873 6.456,0.837 6.726,0.837 C7.041,0.837 7.275,0.882 7.428,0.981 C7.572,1.071 7.68,1.242 7.752,1.476 L8.751,1.476 C8.643,0.486 7.968,0 6.744,0 Z" id="路径"></path>
                <path d="M11.409,0 C10.833,0 10.374,0.117 10.023,0.369 C9.663,0.603 9.492,0.936 9.492,1.368 C9.492,1.773 9.672,2.088 10.032,2.313 C10.257,2.457 10.644,2.592 11.193,2.718 C11.661,2.826 11.967,2.907 12.111,2.979 C12.381,3.105 12.516,3.276 12.516,3.492 C12.516,3.87 12.156,4.068 11.436,4.068 C11.094,4.068 10.851,4.005 10.698,3.897 C10.545,3.771 10.437,3.564 10.383,3.267 L9.384,3.267 C9.483,4.356 10.176,4.905 11.472,4.905 C12.867,4.905 13.569,4.41 13.569,3.42 C13.569,3.006 13.38,2.673 13.011,2.439 C12.759,2.268 12.363,2.124 11.841,1.998 C11.373,1.881 11.067,1.791 10.914,1.728 C10.662,1.62 10.545,1.485 10.545,1.341 C10.545,1.161 10.617,1.035 10.779,0.954 C10.914,0.873 11.121,0.837 11.391,0.837 C11.706,0.837 11.94,0.882 12.093,0.981 C12.237,1.071 12.345,1.242 12.417,1.476 L13.416,1.476 C13.308,0.486 12.633,0 11.409,0 Z" id="路径"></path>
                <polygon id="路径" points="14.031 0.126 15.633 2.304 13.824 4.779 15.03 4.779 16.2 3.06 17.361 4.779 18.567 4.779 16.758 2.304 18.36 0.126 17.163 0.126 16.2 1.548 15.228 0.126"></polygon>
            </g>
        </g>
    </g>
</svg>