<?xml version="1.0" encoding="UTF-8"?>
<svg width="20px" height="20px" viewBox="0 0 20 20" version="1.1" xmlns="http://www.w3.org/2000/svg" xmlns:xlink="http://www.w3.org/1999/xlink">
    <title>cdt备份 4</title>
    <g id="文件图标" stroke="none" stroke-width="1" fill="none" fill-rule="evenodd">
        <g id="编组-3">
            <g id="编组" transform="translate(4.444444, 0.000000)" fill-rule="nonzero">
                <path d="M0.729143889,19.5242862 L14.8264117,19.5242862 C14.960342,19.5235005 15.0684874,19.4169183 15.0684874,19.2857149 L15.0684874,5.23858516 L10.9371582,5.23858516 C10.5344632,5.23858516 10.2080143,4.91878886 10.2080143,4.52430012 L10.2080143,0.475732442 L0.729143889,0.475732442 C0.664554638,0.475732442 0.602610796,0.500867553 0.556939301,0.545608337 C0.511267806,0.590349121 0.485609836,0.651030645 0.485609836,0.714303666 L0.485609836,19.2857149 C0.485609836,19.4171434 0.594981412,19.5242862 0.729143889,19.5242862 Z" id="路径" fill="#FFFFFF"></path>
                <path d="M14.9678656,4.76144275 L10.6950824,0.575732349 L10.6950824,4.52430012 C10.6950824,4.65572857 10.8029957,4.76144275 10.9371582,4.76144275 L14.9678656,4.76144275 L14.9678656,4.76144275 Z" id="路径" fill="#FFFFFF"></path>
                <path d="M15.3411873,4.45430019 L11.0100726,0.210018412 C10.8733184,0.0747249558 10.6867371,-0.000961027697 10.4923805,9.2146362e-06 L0.729143889,9.2146362e-06 C0.326448839,9.2146362e-06 0,0.319814921 0,0.714303666 L0,19.2857149 C0,19.6802037 0.326448839,20.0000092 0.729143889,20.0000092 L14.8264117,20.0000092 C15.2291067,20.0000092 15.5555556,19.6802037 15.5555556,19.2857149 L15.5555556,4.95858542 C15.5555556,4.76924268 15.4782987,4.58775259 15.3411873,4.45430019 Z M10.6936242,0.574303796 L14.9678656,4.76144275 L10.9371582,4.76144275 C10.8032255,4.76144275 10.6944262,4.65550112 10.6936242,4.52430012 L10.6936242,0.574303796 Z M14.8264117,19.5242862 L0.729143889,19.5242862 C0.664554638,19.5242862 0.602610796,19.4991511 0.556939301,19.4544103 C0.511267806,19.4096695 0.485609836,19.348988 0.485609836,19.2857149 L0.485609836,0.714303666 C0.485609836,0.582875214 0.594981412,0.475732442 0.729143889,0.475732442 L10.2080143,0.475732442 L10.2080143,4.52430012 C10.2080143,4.91878886 10.5344632,5.23858516 10.9371582,5.23858516 L15.0684874,5.23858516 L15.0684874,19.2857149 C15.0684874,19.4169183 14.960342,19.5235005 14.8264117,19.5242862 L14.8264117,19.5242862 Z" id="形状" fill="#605E5C" opacity="0.64"></path>
            </g>
            <rect id="矩形" fill="#0563B2" x="0" y="6.66666667" width="20" height="8.88888889" rx="1"></rect>
            <g id="wps" transform="translate(1.545000, 8.221000)" fill="#FFFFFF" fill-rule="nonzero">
                <polygon id="路径" points="0 0.126 1.575 4.779 2.457 4.779 3.429 1.296 4.401 4.779 5.283 4.779 6.858 0.126 5.805 0.126 4.824 3.645 3.87 0.126 2.988 0.126 2.034 3.645 1.053 0.126"></polygon>
                <path d="M9.774,0 C9.144,0 8.658,0.225 8.334,0.684 L8.334,0.126 L7.443,0.126 L7.443,6.561 L8.397,6.561 L8.397,4.095 C8.775,4.635 9.243,4.905 9.819,4.905 C10.485,4.905 11.016,4.662 11.394,4.176 C11.745,3.726 11.925,3.159 11.925,2.475 C11.925,1.755 11.745,1.179 11.385,0.729 C10.989,0.243 10.458,0 9.774,0 Z M9.63,0.774 C10.098,0.774 10.44,0.936 10.665,1.278 C10.845,1.566 10.944,1.962 10.944,2.475 C10.944,2.988 10.836,3.384 10.638,3.672 C10.413,3.978 10.071,4.131 9.603,4.131 C9.243,4.131 8.955,3.987 8.739,3.708 C8.487,3.402 8.37,2.997 8.37,2.502 L8.37,2.421 C8.37,1.944 8.469,1.557 8.667,1.269 C8.892,0.936 9.216,0.774 9.63,0.774 Z" id="形状"></path>
                <path d="M14.562,0 C14.004,0 13.545,0.117 13.194,0.36 C12.843,0.594 12.672,0.927 12.672,1.35 C12.672,1.746 12.852,2.061 13.212,2.286 C13.428,2.43 13.815,2.565 14.364,2.691 C14.841,2.799 15.156,2.889 15.3,2.961 C15.57,3.087 15.714,3.267 15.714,3.492 C15.714,3.906 15.336,4.122 14.598,4.122 C14.238,4.122 13.986,4.059 13.824,3.942 C13.662,3.816 13.545,3.591 13.491,3.276 L12.555,3.276 C12.663,4.356 13.347,4.905 14.625,4.905 C16.002,4.905 16.695,4.41 16.695,3.429 C16.695,3.015 16.506,2.691 16.137,2.457 C15.885,2.295 15.489,2.142 14.958,2.016 C14.49,1.899 14.184,1.809 14.022,1.737 C13.77,1.62 13.644,1.485 13.644,1.323 C13.644,1.143 13.725,0.999 13.896,0.909 C14.04,0.819 14.256,0.783 14.544,0.783 C14.868,0.783 15.12,0.837 15.282,0.945 C15.435,1.044 15.543,1.215 15.615,1.467 L16.542,1.467 C16.434,0.486 15.768,0 14.562,0 Z" id="路径"></path>
            </g>
        </g>
    </g>
</svg>