<?xml version="1.0" encoding="UTF-8"?>
<svg width="20px" height="20px" viewBox="0 0 20 20" version="1.1" xmlns="http://www.w3.org/2000/svg" xmlns:xlink="http://www.w3.org/1999/xlink">
    <title>x_b</title>
    <g id="文件图标" stroke="none" stroke-width="1" fill="none" fill-rule="evenodd">
        <g id="编组-3">
            <g id="编组" transform="translate(4.444444, 0.000000)" fill-rule="nonzero">
                <path d="M0.729143889,19.5242862 L14.8264117,19.5242862 C14.960342,19.5235005 15.0684874,19.4169183 15.0684874,19.2857149 L15.0684874,5.23858516 L10.9371582,5.23858516 C10.5344632,5.23858516 10.2080143,4.91878886 10.2080143,4.52430012 L10.2080143,0.475732442 L0.729143889,0.475732442 C0.664554638,0.475732442 0.602610796,0.500867553 0.556939301,0.545608337 C0.511267806,0.590349121 0.485609836,0.651030645 0.485609836,0.714303666 L0.485609836,19.2857149 C0.485609836,19.4171434 0.594981412,19.5242862 0.729143889,19.5242862 Z" id="路径" fill="#FFFFFF"></path>
                <path d="M14.9678656,4.76144275 L10.6950824,0.575732349 L10.6950824,4.52430012 C10.6950824,4.65572857 10.8029957,4.76144275 10.9371582,4.76144275 L14.9678656,4.76144275 L14.9678656,4.76144275 Z" id="路径" fill="#FFFFFF"></path>
                <path d="M15.3411873,4.45430019 L11.0100726,0.210018412 C10.8733184,0.0747249558 10.6867371,-0.000961027697 10.4923805,9.2146362e-06 L0.729143889,9.2146362e-06 C0.326448839,9.2146362e-06 0,0.319814921 0,0.714303666 L0,19.2857149 C0,19.6802037 0.326448839,20.0000092 0.729143889,20.0000092 L14.8264117,20.0000092 C15.2291067,20.0000092 15.5555556,19.6802037 15.5555556,19.2857149 L15.5555556,4.95858542 C15.5555556,4.76924268 15.4782987,4.58775259 15.3411873,4.45430019 Z M10.6936242,0.574303796 L14.9678656,4.76144275 L10.9371582,4.76144275 C10.8032255,4.76144275 10.6944262,4.65550112 10.6936242,4.52430012 L10.6936242,0.574303796 Z M14.8264117,19.5242862 L0.729143889,19.5242862 C0.664554638,19.5242862 0.602610796,19.4991511 0.556939301,19.4544103 C0.511267806,19.4096695 0.485609836,19.348988 0.485609836,19.2857149 L0.485609836,0.714303666 C0.485609836,0.582875214 0.594981412,0.475732442 0.729143889,0.475732442 L10.2080143,0.475732442 L10.2080143,4.52430012 C10.2080143,4.91878886 10.5344632,5.23858516 10.9371582,5.23858516 L15.0684874,5.23858516 L15.0684874,19.2857149 C15.0684874,19.4169183 14.960342,19.5235005 14.8264117,19.5242862 L14.8264117,19.5242862 Z" id="形状" fill="#605E5C" opacity="0.64"></path>
            </g>
            <rect id="矩形" fill="#0563B2" x="0" y="6.66666667" width="20" height="8.88888889" rx="1"></rect>
            <g id="x_b" transform="translate(3.474000, 7.448000)" fill="#FFFFFF" fill-rule="nonzero">
                <polygon id="路径" points="0.207 1.899 1.809 4.077 0 6.552 1.206 6.552 2.376 4.833 3.537 6.552 4.743 6.552 2.934 4.077 4.536 1.899 3.339 1.899 2.376 3.321 1.404 1.899"></polygon>
                <polygon id="路径" points="4.728 6.966 4.728 7.812 9.228 7.812 9.228 6.966"></polygon>
                <path d="M9.708,0 L9.708,6.552 L10.662,6.552 L10.662,6.057 C10.986,6.471 11.454,6.678 12.066,6.678 C12.75,6.678 13.29,6.435 13.686,5.949 C14.046,5.499 14.226,4.914 14.226,4.203 C14.226,3.519 14.046,2.952 13.695,2.502 C13.308,2.016 12.786,1.773 12.12,1.773 C11.58,1.773 11.112,2.025 10.734,2.538 L10.734,0 L9.708,0 Z M11.877,2.601 C12.336,2.601 12.678,2.754 12.894,3.06 C13.074,3.321 13.173,3.699 13.173,4.203 C13.173,4.707 13.083,5.094 12.912,5.364 C12.696,5.688 12.363,5.85 11.913,5.85 C11.508,5.85 11.202,5.688 10.986,5.373 C10.788,5.085 10.698,4.707 10.698,4.257 L10.698,4.185 C10.698,3.69 10.815,3.294 11.058,3.006 C11.274,2.736 11.544,2.601 11.877,2.601 Z" id="形状"></path>
            </g>
        </g>
    </g>
</svg>