<?xml version="1.0" standalone="no"?><!DOCTYPE svg PUBLIC "-//W3C//DTD SVG 1.1//EN" "http://www.w3.org/Graphics/SVG/1.1/DTD/svg11.dtd"><svg class="icon" width="200px" height="200.00px" viewBox="0 0 1024 1024" version="1.1" xmlns="http://www.w3.org/2000/svg"><path d="M264.90827 999.628849H986.622027a12.339175 12.339175 0 0 0 12.390375-12.185576V268.238312h-211.506777a36.966326 36.966326 0 0 1-37.375925-36.607927V24.373199H264.90827A12.595175 12.595175 0 0 0 255.999488 27.957192a12.083176 12.083176 0 0 0-3.583993 8.601583v950.884498c0 6.707187 5.529589 12.185576 12.441575 12.185576z" fill="#FFFFFF" /><path d="M993.892412 243.76476L775.16645 29.493189v202.137196a12.287975 12.287975 0 0 0 12.390375 12.134375h206.335587z" fill="#FFFFFF" /><path d="M1013.041174 228.046392L791.294417 10.754026a37.427125 37.427125 0 0 0-26.521547-10.751978H264.90827c-20.633559 0-37.375925 16.383967-37.375925 36.556727v950.884498c0 20.17276 16.742367 36.556727 37.375925 36.556727H986.622027c20.633559 0 37.324725-16.383967 37.324725-36.556727V253.90234c0-9.727981-3.942392-18.995162-10.956778-25.855948zM775.06405 29.390789l218.828362 214.373971h-206.335587a12.339175 12.339175 0 0 1-12.492775-12.134375V29.390789z m211.609177 970.23806H264.90827a12.595175 12.595175 0 0 1-8.857582-3.583993 12.083176 12.083176 0 0 1-3.583993-8.601583V36.558775c0-6.707187 5.529589-12.185576 12.441575-12.185576h485.27263v207.257186c0 20.22396 16.742367 36.607927 37.375925 36.607927h211.455577v719.204961a12.339175 12.339175 0 0 1-12.339175 12.185576z" fill="#605E5C" opacity=".64" /><path d="M0 341.351765m51.199898 0l921.598156 0q51.199898 0 51.199898 51.199898l0 352.716094q0 51.199898-51.199898 51.199898l-921.598156 0q-51.199898 0-51.199898-51.199898l0-352.716094q0-51.199898 51.199898-51.199898Z" fill="#0563B2" /><path d="M280.780238 506.778634l54.681491 74.342252L273.714653 665.600717h41.164717l39.93592-58.675083L394.444011 665.600717h41.164718l-61.747077-84.479831L428.543143 506.778634h-40.857518l-32.870335 48.537503-33.177533-48.537503zM525.720549 502.477843c-20.275159 0-36.249528 3.379193-47.923105 10.751979-13.823972 7.987184-22.425555 20.889558-25.804748 38.399923l34.713531 2.764794a27.596745 27.596745 0 0 1 13.209573-18.431963c5.836788-3.686393 13.516773-5.22239 23.347153-5.222389 22.732755 0 34.099132 10.13758 34.099132 31.027137v6.143988l-34.71353 0.921598c-23.347153 0.614399-41.471917 5.529589-54.374292 14.745571-14.131172 9.523181-20.889558 23.347153-20.889558 41.164718 0 13.209574 4.91519 23.961552 14.745571 32.563134 9.523181 8.294383 22.425555 12.595175 39.014322 12.595175 13.823972 0 25.804748-2.457595 35.942328-7.065586 8.908782-4.300791 16.588767-10.13758 22.732754-18.124763V665.600717h32.563135v-101.375797c0-19.353561-4.91519-34.099132-14.74557-44.236712-11.059178-11.673577-28.569543-17.510365-51.916696-17.510365z m31.641536 90.623819v7.987184c0 12.287975-4.91519 22.425555-14.131171 30.412739-9.215982 7.679985-20.582359 11.673577-34.099132 11.673577a30.310339 30.310339 0 0 1-18.739163-5.836789 16.383967 16.383967 0 0 1-7.065586-13.823972c0-19.046362 13.823972-28.876742 41.779117-29.491141l32.255935-0.921598zM687.102626 502.477843c-19.660761 0-35.327929 3.993592-47.308706 12.595175a38.092724 38.092724 0 0 0-18.124763 34.099132c0 13.823972 6.143988 24.575951 18.431963 32.255935 7.679985 4.91519 20.889558 9.523181 39.628721 13.823972 15.974368 3.686393 26.419147 6.451187 31.334337 8.908783 9.215982 4.300791 13.823972 10.13758 13.823972 17.510365 0 12.902374-12.287975 19.660761-36.863926 19.66076-11.673577 0-19.96796-2.150396-25.19035-5.836788-5.22239-4.300791-8.908782-11.366377-10.751978-21.503957h-34.099132c3.379193 37.171126 27.033546 55.910288 71.270257 55.910288 47.615905 0 71.577457-16.895966 71.577457-50.687898a37.990324 37.990324 0 0 0-19.046362-33.484733c-8.601583-5.836788-22.118356-10.751978-39.93592-15.05277a275.09705 275.09705 0 0 1-31.641536-9.215982c-8.601583-3.686393-12.595175-8.294383-12.595175-13.209574 0-6.143988 2.457595-10.444779 7.987184-13.209573 4.607991-2.764794 11.673577-3.993592 20.889558-3.993592 10.751978 0 18.739163 1.535997 23.961552 4.91519 4.91519 3.071994 8.601583 8.908782 11.059178 16.895966h34.099132c-3.686393-33.791932-26.726347-50.380699-68.505463-50.380699z" fill="#FFFFFF" /></svg>