<?xml version="1.0" encoding="UTF-8"?>
<svg width="20px" height="20px" viewBox="0 0 20 20" version="1.1" xmlns="http://www.w3.org/2000/svg" xmlns:xlink="http://www.w3.org/1999/xlink">
    <title>xas2</title>
    <g id="文件图标" stroke="none" stroke-width="1" fill="none" fill-rule="evenodd">
        <g id="编组-3">
            <g id="编组" transform="translate(4.444444, 0.000000)" fill-rule="nonzero">
                <path d="M0.729143889,19.5242862 L14.8264117,19.5242862 C14.960342,19.5235005 15.0684874,19.4169183 15.0684874,19.2857149 L15.0684874,5.23858516 L10.9371582,5.23858516 C10.5344632,5.23858516 10.2080143,4.91878886 10.2080143,4.52430012 L10.2080143,0.475732442 L0.729143889,0.475732442 C0.664554638,0.475732442 0.602610796,0.500867553 0.556939301,0.545608337 C0.511267806,0.590349121 0.485609836,0.651030645 0.485609836,0.714303666 L0.485609836,19.2857149 C0.485609836,19.4171434 0.594981412,19.5242862 0.729143889,19.5242862 Z" id="路径" fill="#FFFFFF"></path>
                <path d="M14.9678656,4.76144275 L10.6950824,0.575732349 L10.6950824,4.52430012 C10.6950824,4.65572857 10.8029957,4.76144275 10.9371582,4.76144275 L14.9678656,4.76144275 L14.9678656,4.76144275 Z" id="路径" fill="#FFFFFF"></path>
                <path d="M15.3411873,4.45430019 L11.0100726,0.210018412 C10.8733184,0.0747249558 10.6867371,-0.000961027697 10.4923805,9.2146362e-06 L0.729143889,9.2146362e-06 C0.326448839,9.2146362e-06 0,0.319814921 0,0.714303666 L0,19.2857149 C0,19.6802037 0.326448839,20.0000092 0.729143889,20.0000092 L14.8264117,20.0000092 C15.2291067,20.0000092 15.5555556,19.6802037 15.5555556,19.2857149 L15.5555556,4.95858542 C15.5555556,4.76924268 15.4782987,4.58775259 15.3411873,4.45430019 Z M10.6936242,0.574303796 L14.9678656,4.76144275 L10.9371582,4.76144275 C10.8032255,4.76144275 10.6944262,4.65550112 10.6936242,4.52430012 L10.6936242,0.574303796 Z M14.8264117,19.5242862 L0.729143889,19.5242862 C0.664554638,19.5242862 0.602610796,19.4991511 0.556939301,19.4544103 C0.511267806,19.4096695 0.485609836,19.348988 0.485609836,19.2857149 L0.485609836,0.714303666 C0.485609836,0.582875214 0.594981412,0.475732442 0.729143889,0.475732442 L10.2080143,0.475732442 L10.2080143,4.52430012 C10.2080143,4.91878886 10.5344632,5.23858516 10.9371582,5.23858516 L15.0684874,5.23858516 L15.0684874,19.2857149 C15.0684874,19.4169183 14.960342,19.5235005 14.8264117,19.5242862 L14.8264117,19.5242862 Z" id="形状" fill="#605E5C" opacity="0.64"></path>
            </g>
            <g id="编组-4备份" transform="translate(0.000000, 7.000000)">
                <path d="M19,0 C19.5522847,-1.01453063e-16 20,0.44771525 20,1 L20,7.88888889 C20,8.44117364 19.5522847,8.88888889 19,8.88888889 L1,8.88888889 C0.44771525,8.88888889 6.76353751e-17,8.44117364 0,7.88888889 L0,1 C-6.76353751e-17,0.44771525 0.44771525,1.01453063e-16 1,0 L19,0 Z M19.0444832,0.504211426 L1.03848839,0.504211426 C0.762346013,0.504211426 0.538488388,0.728069051 0.538488388,1.00421143 L0.538488388,7.94127083 C0.538488388,8.2174132 0.762346013,8.44127083 1.03848839,8.44127083 L19.0444832,8.44127083 C19.3206256,8.44127083 19.5444832,8.2174132 19.5444832,7.94127083 L19.5444832,1.00421143 C19.5444832,0.728069051 19.3206256,0.504211426 19.0444832,0.504211426 Z" id="形状结合" fill="#0563B2"></path>
                <path d="M1.03848839,0.504211426 L19.0444832,0.504211426 C19.3206256,0.504211426 19.5444832,0.728069051 19.5444832,1.00421143 L19.5444832,7.94127083 C19.5444832,8.2174132 19.3206256,8.44127083 19.0444832,8.44127083 L1.03848839,8.44127083 C0.762346013,8.44127083 0.538488388,8.2174132 0.538488388,7.94127083 L0.538488388,1.00421143 C0.538488388,0.728069051 0.762346013,0.504211426 1.03848839,0.504211426 Z" id="矩形备份-25" fill="#FFFFFF"></path>
            </g>
            <g id="xas" transform="translate(2.519000, 9.221000)" fill="#0563B2" fill-rule="nonzero">
                <polygon id="路径" points="0.207 0.126 1.809 2.304 0 4.779 1.206 4.779 2.376 3.06 3.537 4.779 4.743 4.779 2.934 2.304 4.536 0.126 3.339 0.126 2.376 1.548 1.404 0.126"></polygon>
                <path d="M7.383,0 C6.789,0 6.321,0.099 5.979,0.315 C5.574,0.549 5.322,0.927 5.223,1.44 L6.24,1.521 C6.294,1.278 6.429,1.098 6.627,0.981 C6.798,0.873 7.023,0.828 7.311,0.828 C7.977,0.828 8.31,1.125 8.31,1.737 L8.31,1.917 L7.293,1.944 C6.609,1.962 6.078,2.106 5.7,2.376 C5.286,2.655 5.088,3.06 5.088,3.582 C5.088,3.969 5.232,4.284 5.52,4.536 C5.799,4.779 6.177,4.905 6.663,4.905 C7.068,4.905 7.419,4.833 7.716,4.698 C7.977,4.572 8.202,4.401 8.382,4.167 L8.382,4.779 L9.336,4.779 L9.336,1.809 C9.336,1.242 9.192,0.81 8.904,0.513 C8.58,0.171 8.067,0 7.383,0 Z M8.31,2.655 L8.31,2.889 C8.31,3.249 8.166,3.546 7.896,3.78 C7.626,4.005 7.293,4.122 6.897,4.122 C6.672,4.122 6.492,4.059 6.348,3.951 C6.204,3.843 6.141,3.708 6.141,3.546 C6.141,2.988 6.546,2.7 7.365,2.682 L8.31,2.655 Z" id="形状"></path>
                <path d="M12.111,0 C11.535,0 11.076,0.117 10.725,0.369 C10.365,0.603 10.194,0.936 10.194,1.368 C10.194,1.773 10.374,2.088 10.734,2.313 C10.959,2.457 11.346,2.592 11.895,2.718 C12.363,2.826 12.669,2.907 12.813,2.979 C13.083,3.105 13.218,3.276 13.218,3.492 C13.218,3.87 12.858,4.068 12.138,4.068 C11.796,4.068 11.553,4.005 11.4,3.897 C11.247,3.771 11.139,3.564 11.085,3.267 L10.086,3.267 C10.185,4.356 10.878,4.905 12.174,4.905 C13.569,4.905 14.271,4.41 14.271,3.42 C14.271,3.006 14.082,2.673 13.713,2.439 C13.461,2.268 13.065,2.124 12.543,1.998 C12.075,1.881 11.769,1.791 11.616,1.728 C11.364,1.62 11.247,1.485 11.247,1.341 C11.247,1.161 11.319,1.035 11.481,0.954 C11.616,0.873 11.823,0.837 12.093,0.837 C12.408,0.837 12.642,0.882 12.795,0.981 C12.939,1.071 13.047,1.242 13.119,1.476 L14.118,1.476 C14.01,0.486 13.335,0 12.111,0 Z" id="路径"></path>
            </g>
        </g>
    </g>
</svg>