<?xml version="1.0" encoding="UTF-8"?>
<svg width="20px" height="20px" viewBox="0 0 20 20" version="1.1" xmlns="http://www.w3.org/2000/svg" xmlns:xlink="http://www.w3.org/1999/xlink">
    <title>xlsm2</title>
    <g id="文件图标" stroke="none" stroke-width="1" fill="none" fill-rule="evenodd">
        <g id="编组-3">
            <g id="编组" transform="translate(4.444444, 0.000000)" fill-rule="nonzero">
                <path d="M0.729143889,19.5242862 L14.8264117,19.5242862 C14.960342,19.5235005 15.0684874,19.4169183 15.0684874,19.2857149 L15.0684874,5.23858516 L10.9371582,5.23858516 C10.5344632,5.23858516 10.2080143,4.91878886 10.2080143,4.52430012 L10.2080143,0.475732442 L0.729143889,0.475732442 C0.664554638,0.475732442 0.602610796,0.500867553 0.556939301,0.545608337 C0.511267806,0.590349121 0.485609836,0.651030645 0.485609836,0.714303666 L0.485609836,19.2857149 C0.485609836,19.4171434 0.594981412,19.5242862 0.729143889,19.5242862 Z" id="路径" fill="#FFFFFF"></path>
                <path d="M14.9678656,4.76144275 L10.6950824,0.575732349 L10.6950824,4.52430012 C10.6950824,4.65572857 10.8029957,4.76144275 10.9371582,4.76144275 L14.9678656,4.76144275 L14.9678656,4.76144275 Z" id="路径" fill="#FFFFFF"></path>
                <path d="M15.3411873,4.45430019 L11.0100726,0.210018412 C10.8733184,0.0747249558 10.6867371,-0.000961027697 10.4923805,9.2146362e-06 L0.729143889,9.2146362e-06 C0.326448839,9.2146362e-06 0,0.319814921 0,0.714303666 L0,19.2857149 C0,19.6802037 0.326448839,20.0000092 0.729143889,20.0000092 L14.8264117,20.0000092 C15.2291067,20.0000092 15.5555556,19.6802037 15.5555556,19.2857149 L15.5555556,4.95858542 C15.5555556,4.76924268 15.4782987,4.58775259 15.3411873,4.45430019 Z M10.6936242,0.574303796 L14.9678656,4.76144275 L10.9371582,4.76144275 C10.8032255,4.76144275 10.6944262,4.65550112 10.6936242,4.52430012 L10.6936242,0.574303796 Z M14.8264117,19.5242862 L0.729143889,19.5242862 C0.664554638,19.5242862 0.602610796,19.4991511 0.556939301,19.4544103 C0.511267806,19.4096695 0.485609836,19.348988 0.485609836,19.2857149 L0.485609836,0.714303666 C0.485609836,0.582875214 0.594981412,0.475732442 0.729143889,0.475732442 L10.2080143,0.475732442 L10.2080143,4.52430012 C10.2080143,4.91878886 10.5344632,5.23858516 10.9371582,5.23858516 L15.0684874,5.23858516 L15.0684874,19.2857149 C15.0684874,19.4169183 14.960342,19.5235005 14.8264117,19.5242862 L14.8264117,19.5242862 Z" id="形状" fill="#605E5C" opacity="0.64"></path>
            </g>
            <g id="编组-4备份" transform="translate(0.000000, 7.000000)">
                <path d="M19,0 C19.5522847,-1.01453063e-16 20,0.44771525 20,1 L20,7.88888889 C20,8.44117364 19.5522847,8.88888889 19,8.88888889 L1,8.88888889 C0.44771525,8.88888889 6.76353751e-17,8.44117364 0,7.88888889 L0,1 C-6.76353751e-17,0.44771525 0.44771525,1.01453063e-16 1,0 L19,0 Z M19.0444832,0.504211426 L1.03848839,0.504211426 C0.762346013,0.504211426 0.538488388,0.728069051 0.538488388,1.00421143 L0.538488388,7.94127083 C0.538488388,8.2174132 0.762346013,8.44127083 1.03848839,8.44127083 L19.0444832,8.44127083 C19.3206256,8.44127083 19.5444832,8.2174132 19.5444832,7.94127083 L19.5444832,1.00421143 C19.5444832,0.728069051 19.3206256,0.504211426 19.0444832,0.504211426 Z" id="形状结合" fill="#0563B2"></path>
                <path d="M1.03848839,0.504211426 L19.0444832,0.504211426 C19.3206256,0.504211426 19.5444832,0.728069051 19.5444832,1.00421143 L19.5444832,7.94127083 C19.5444832,8.2174132 19.3206256,8.44127083 19.0444832,8.44127083 L1.03848839,8.44127083 C0.762346013,8.44127083 0.538488388,8.2174132 0.538488388,7.94127083 L0.538488388,1.00421143 C0.538488388,0.728069051 0.762346013,0.504211426 1.03848839,0.504211426 Z" id="矩形备份-25" fill="#FFFFFF"></path>
            </g>
            <g id="xlsm" transform="translate(0.485000, 7.900000)" fill="#0563B2" fill-rule="nonzero">
                <polygon id="路径" points="0.207 1.899 1.809 4.077 0 6.552 1.206 6.552 2.376 4.833 3.537 6.552 4.743 6.552 2.934 4.077 4.536 1.899 3.339 1.899 2.376 3.321 1.404 1.899"></polygon>
                <polygon id="路径" points="5.358 0 5.358 6.552 6.384 6.552 6.384 0"></polygon>
                <path d="M9.249,1.773 C8.673,1.773 8.214,1.89 7.863,2.142 C7.503,2.376 7.332,2.709 7.332,3.141 C7.332,3.546 7.512,3.861 7.872,4.086 C8.097,4.23 8.484,4.365 9.033,4.491 C9.501,4.599 9.807,4.68 9.951,4.752 C10.221,4.878 10.356,5.049 10.356,5.265 C10.356,5.643 9.996,5.841 9.276,5.841 C8.934,5.841 8.691,5.778 8.538,5.67 C8.385,5.544 8.277,5.337 8.223,5.04 L7.224,5.04 C7.323,6.129 8.016,6.678 9.312,6.678 C10.707,6.678 11.409,6.183 11.409,5.193 C11.409,4.779 11.22,4.446 10.851,4.212 C10.599,4.041 10.203,3.897 9.681,3.771 C9.213,3.654 8.907,3.564 8.754,3.501 C8.502,3.393 8.385,3.258 8.385,3.114 C8.385,2.934 8.457,2.808 8.619,2.727 C8.754,2.646 8.961,2.61 9.231,2.61 C9.546,2.61 9.78,2.655 9.933,2.754 C10.077,2.844 10.185,3.015 10.257,3.249 L11.256,3.249 C11.148,2.259 10.473,1.773 9.249,1.773 Z" id="路径"></path>
                <path d="M14.445,1.773 C13.995,1.773 13.572,1.971 13.185,2.376 L13.185,1.899 L12.159,1.899 L12.159,6.552 L13.185,6.552 L13.185,3.762 C13.185,3.456 13.275,3.186 13.455,2.97 C13.635,2.736 13.869,2.628 14.166,2.628 C14.778,2.628 15.084,2.979 15.084,3.69 L15.084,6.552 L16.11,6.552 L16.11,3.708 C16.11,3.366 16.191,3.105 16.371,2.916 C16.542,2.718 16.749,2.628 17.001,2.628 C17.361,2.628 17.613,2.709 17.775,2.88 C17.928,3.042 18.009,3.312 18.009,3.681 L18.009,6.552 L19.035,6.552 L19.035,3.501 C19.035,2.988 18.873,2.574 18.567,2.25 C18.243,1.926 17.847,1.773 17.37,1.773 C17.055,1.773 16.794,1.827 16.587,1.935 C16.353,2.043 16.128,2.241 15.912,2.529 C15.615,2.025 15.129,1.773 14.445,1.773 Z" id="路径"></path>
            </g>
        </g>
    </g>
</svg>