<?xml version="1.0" encoding="UTF-8"?>
<svg width="20px" height="20px" viewBox="0 0 20 20" version="1.1" xmlns="http://www.w3.org/2000/svg" xmlns:xlink="http://www.w3.org/1999/xlink">
    <title>xltm</title>
    <g id="文件图标" stroke="none" stroke-width="1" fill="none" fill-rule="evenodd">
        <g id="编组-3">
            <g id="编组" transform="translate(4.444444, 0.000000)" fill-rule="nonzero">
                <path d="M0.729143889,19.5242862 L14.8264117,19.5242862 C14.960342,19.5235005 15.0684874,19.4169183 15.0684874,19.2857149 L15.0684874,5.23858516 L10.9371582,5.23858516 C10.5344632,5.23858516 10.2080143,4.91878886 10.2080143,4.52430012 L10.2080143,0.475732442 L0.729143889,0.475732442 C0.664554638,0.475732442 0.602610796,0.500867553 0.556939301,0.545608337 C0.511267806,0.590349121 0.485609836,0.651030645 0.485609836,0.714303666 L0.485609836,19.2857149 C0.485609836,19.4171434 0.594981412,19.5242862 0.729143889,19.5242862 Z" id="路径" fill="#FFFFFF"></path>
                <path d="M14.9678656,4.76144275 L10.6950824,0.575732349 L10.6950824,4.52430012 C10.6950824,4.65572857 10.8029957,4.76144275 10.9371582,4.76144275 L14.9678656,4.76144275 L14.9678656,4.76144275 Z" id="路径" fill="#FFFFFF"></path>
                <path d="M15.3411873,4.45430019 L11.0100726,0.210018412 C10.8733184,0.0747249558 10.6867371,-0.000961027697 10.4923805,9.2146362e-06 L0.729143889,9.2146362e-06 C0.326448839,9.2146362e-06 0,0.319814921 0,0.714303666 L0,19.2857149 C0,19.6802037 0.326448839,20.0000092 0.729143889,20.0000092 L14.8264117,20.0000092 C15.2291067,20.0000092 15.5555556,19.6802037 15.5555556,19.2857149 L15.5555556,4.95858542 C15.5555556,4.76924268 15.4782987,4.58775259 15.3411873,4.45430019 Z M10.6936242,0.574303796 L14.9678656,4.76144275 L10.9371582,4.76144275 C10.8032255,4.76144275 10.6944262,4.65550112 10.6936242,4.52430012 L10.6936242,0.574303796 Z M14.8264117,19.5242862 L0.729143889,19.5242862 C0.664554638,19.5242862 0.602610796,19.4991511 0.556939301,19.4544103 C0.511267806,19.4096695 0.485609836,19.348988 0.485609836,19.2857149 L0.485609836,0.714303666 C0.485609836,0.582875214 0.594981412,0.475732442 0.729143889,0.475732442 L10.2080143,0.475732442 L10.2080143,4.52430012 C10.2080143,4.91878886 10.5344632,5.23858516 10.9371582,5.23858516 L15.0684874,5.23858516 L15.0684874,19.2857149 C15.0684874,19.4169183 14.960342,19.5235005 14.8264117,19.5242862 L14.8264117,19.5242862 Z" id="形状" fill="#605E5C" opacity="0.64"></path>
            </g>
            <rect id="矩形" fill="#0563B2" x="0" y="6.66666667" width="20" height="8.88888889" rx="1"></rect>
            <g id="xltm" transform="translate(0.952000, 7.448000)" fill="#FFFFFF" fill-rule="nonzero">
                <polygon id="路径" points="0.207 1.899 1.809 4.077 0 6.552 1.206 6.552 2.376 4.833 3.537 6.552 4.743 6.552 2.934 4.077 4.536 1.899 3.339 1.899 2.376 3.321 1.404 1.899"></polygon>
                <polygon id="路径" points="5.358 0 5.358 6.552 6.384 6.552 6.384 0"></polygon>
                <path d="M8.952,0.396 L7.926,0.819 L7.926,1.899 L7.089,1.899 L7.089,2.745 L7.926,2.745 L7.926,5.373 C7.926,5.751 8.016,6.03 8.196,6.228 C8.385,6.444 8.682,6.552 9.087,6.552 L9.87,6.552 L9.87,5.706 L9.258,5.706 C9.15,5.706 9.078,5.679 9.024,5.625 C8.97,5.562 8.952,5.481 8.952,5.373 L8.952,2.745 L9.987,2.745 L9.987,1.899 L8.952,1.899 L8.952,0.396 Z" id="路径"></path>
                <path d="M12.978,1.773 C12.528,1.773 12.105,1.971 11.718,2.376 L11.718,1.899 L10.692,1.899 L10.692,6.552 L11.718,6.552 L11.718,3.762 C11.718,3.456 11.808,3.186 11.988,2.97 C12.168,2.736 12.402,2.628 12.699,2.628 C13.311,2.628 13.617,2.979 13.617,3.69 L13.617,6.552 L14.643,6.552 L14.643,3.708 C14.643,3.366 14.724,3.105 14.904,2.916 C15.075,2.718 15.282,2.628 15.534,2.628 C15.894,2.628 16.146,2.709 16.308,2.88 C16.461,3.042 16.542,3.312 16.542,3.681 L16.542,6.552 L17.568,6.552 L17.568,3.501 C17.568,2.988 17.406,2.574 17.1,2.25 C16.776,1.926 16.38,1.773 15.903,1.773 C15.588,1.773 15.327,1.827 15.12,1.935 C14.886,2.043 14.661,2.241 14.445,2.529 C14.148,2.025 13.662,1.773 12.978,1.773 Z" id="路径"></path>
            </g>
        </g>
    </g>
</svg>