<?xml version="1.0" standalone="no"?><!DOCTYPE svg PUBLIC "-//W3C//DTD SVG 1.1//EN" "http://www.w3.org/Graphics/SVG/1.1/DTD/svg11.dtd"><svg class="icon" width="200px" height="200.00px" viewBox="0 0 1024 1024" version="1.1" xmlns="http://www.w3.org/2000/svg"><path d="M264.90827 999.628849H986.622027a12.339175 12.339175 0 0 0 12.390375-12.185576V268.238312h-211.506777a36.966326 36.966326 0 0 1-37.375925-36.607927V24.373199H264.90827A12.595175 12.595175 0 0 0 255.999488 27.957192a12.083176 12.083176 0 0 0-3.583993 8.601583v950.884498c0 6.707187 5.529589 12.185576 12.441575 12.185576z" fill="#FFFFFF" /><path d="M993.892412 243.76476L775.16645 29.493189v202.137196a12.287975 12.287975 0 0 0 12.390375 12.134375h206.335587z" fill="#FFFFFF" /><path d="M1013.041174 228.046392L791.294417 10.754026a37.427125 37.427125 0 0 0-26.521547-10.751978H264.90827c-20.633559 0-37.375925 16.383967-37.375925 36.556727v950.884498c0 20.17276 16.742367 36.556727 37.375925 36.556727H986.622027c20.633559 0 37.324725-16.383967 37.324725-36.556727V253.90234c0-9.727981-3.942392-18.995162-10.956778-25.855948zM775.06405 29.390789l218.828362 214.373971h-206.335587a12.339175 12.339175 0 0 1-12.492775-12.134375V29.390789z m211.609177 970.23806H264.90827a12.595175 12.595175 0 0 1-8.857582-3.583993 12.083176 12.083176 0 0 1-3.583993-8.601583V36.558775c0-6.707187 5.529589-12.185576 12.441575-12.185576h485.27263v207.257186c0 20.22396 16.742367 36.607927 37.375925 36.607927h211.455577v719.204961a12.339175 12.339175 0 0 1-12.339175 12.185576z" fill="#605E5C" opacity=".64" /><path d="M0 341.351765m51.199898 0l921.598156 0q51.199898 0 51.199898 51.199898l0 352.716094q0 51.199898-51.199898 51.199898l-921.598156 0q-51.199898 0-51.199898-51.199898l0-352.716094q0-51.199898 51.199898-51.199898Z" fill="#0563B2" /><path d="M268.185064 506.778634l54.68149 74.342252L261.119478 665.600717h41.164717l39.935921-58.675083L381.848836 665.600717h41.164718l-61.747077-84.479831 54.681491-74.342252h-40.857518l-32.870334 48.537503-33.177534-48.537503zM518.962162 502.477843c-15.359969 0-29.79834 6.758386-43.007914 20.582359v-16.281568h-35.02073V665.600717h35.02073v-95.23181c0-10.444779 3.071994-19.660761 9.215982-27.033546a28.723143 28.723143 0 0 1 24.268751-11.673576c20.889558 0 31.334337 11.980776 31.334337 36.249527V665.600717h35.02073v-97.075006c0-11.673577 2.764794-20.582359 8.908783-27.033546a26.931146 26.931146 0 0 1 21.503957-9.83038c12.287975 0 20.889558 2.764794 26.419147 8.601582 5.22239 5.529589 7.987184 14.745571 7.987184 27.340746V665.600717h35.02073v-104.140592c0-17.510365-5.529589-31.641537-15.974368-42.700715a55.09109 55.09109 0 0 0-40.857519-16.281567c-10.751978 0-19.660761 1.843196-26.726346 5.529589-7.987184 3.686393-15.667169 10.444779-23.039954 20.275159-10.13758-17.203166-26.726347-25.804748-50.0735-25.804748zM713.521773 441.959564V665.600717h35.02073V441.959564z" fill="#FFFFFF" /></svg>