<?xml version="1.0" encoding="UTF-8"?>
<svg width="20px" height="20px" viewBox="0 0 20 20" version="1.1" xmlns="http://www.w3.org/2000/svg" xmlns:xlink="http://www.w3.org/1999/xlink">
    <title>xmt-txt</title>
    <g id="文件图标" stroke="none" stroke-width="1" fill="none" fill-rule="evenodd">
        <g id="编组-3">
            <g id="编组" transform="translate(4.444444, 0.000000)" fill-rule="nonzero">
                <path d="M0.729143889,19.5242862 L14.8264117,19.5242862 C14.960342,19.5235005 15.0684874,19.4169183 15.0684874,19.2857149 L15.0684874,5.23858516 L10.9371582,5.23858516 C10.5344632,5.23858516 10.2080143,4.91878886 10.2080143,4.52430012 L10.2080143,0.475732442 L0.729143889,0.475732442 C0.664554638,0.475732442 0.602610796,0.500867553 0.556939301,0.545608337 C0.511267806,0.590349121 0.485609836,0.651030645 0.485609836,0.714303666 L0.485609836,19.2857149 C0.485609836,19.4171434 0.594981412,19.5242862 0.729143889,19.5242862 Z" id="路径" fill="#FFFFFF"></path>
                <path d="M14.9678656,4.76144275 L10.6950824,0.575732349 L10.6950824,4.52430012 C10.6950824,4.65572857 10.8029957,4.76144275 10.9371582,4.76144275 L14.9678656,4.76144275 L14.9678656,4.76144275 Z" id="路径" fill="#FFFFFF"></path>
                <path d="M15.3411873,4.45430019 L11.0100726,0.210018412 C10.8733184,0.0747249558 10.6867371,-0.000961027697 10.4923805,9.2146362e-06 L0.729143889,9.2146362e-06 C0.326448839,9.2146362e-06 0,0.319814921 0,0.714303666 L0,19.2857149 C0,19.6802037 0.326448839,20.0000092 0.729143889,20.0000092 L14.8264117,20.0000092 C15.2291067,20.0000092 15.5555556,19.6802037 15.5555556,19.2857149 L15.5555556,4.95858542 C15.5555556,4.76924268 15.4782987,4.58775259 15.3411873,4.45430019 Z M10.6936242,0.574303796 L14.9678656,4.76144275 L10.9371582,4.76144275 C10.8032255,4.76144275 10.6944262,4.65550112 10.6936242,4.52430012 L10.6936242,0.574303796 Z M14.8264117,19.5242862 L0.729143889,19.5242862 C0.664554638,19.5242862 0.602610796,19.4991511 0.556939301,19.4544103 C0.511267806,19.4096695 0.485609836,19.348988 0.485609836,19.2857149 L0.485609836,0.714303666 C0.485609836,0.582875214 0.594981412,0.475732442 0.729143889,0.475732442 L10.2080143,0.475732442 L10.2080143,4.52430012 C10.2080143,4.91878886 10.5344632,5.23858516 10.9371582,5.23858516 L15.0684874,5.23858516 L15.0684874,19.2857149 C15.0684874,19.4169183 14.960342,19.5235005 14.8264117,19.5242862 L14.8264117,19.5242862 Z" id="形状" fill="#605E5C" opacity="0.64"></path>
            </g>
            <rect id="矩形" fill="#0563B2" x="0" y="6.66666667" width="20" height="8.88888889" rx="1"></rect>
            <g id="xmt_txt" transform="translate(1.105000, 9.580000)" fill="#FFFFFF" fill-rule="nonzero">
                <polygon id="路径" points="0.115 0.835 1.005 2.045 0 3.42 0.67 3.42 1.32 2.465 1.965 3.42 2.635 3.42 1.63 2.045 2.52 0.835 1.855 0.835 1.32 1.625 0.78 0.835"></polygon>
                <path d="M4.23,0.765 C3.98,0.765 3.745,0.875 3.53,1.1 L3.53,0.835 L2.96,0.835 L2.96,3.42 L3.53,3.42 L3.53,1.87 C3.53,1.7 3.58,1.55 3.68,1.43 C3.78,1.3 3.91,1.24 4.075,1.24 C4.415,1.24 4.585,1.435 4.585,1.83 L4.585,3.42 L5.155,3.42 L5.155,1.84 C5.155,1.65 5.2,1.505 5.3,1.4 C5.395,1.29 5.51,1.24 5.65,1.24 C5.85,1.24 5.99,1.285 6.08,1.38 C6.165,1.47 6.21,1.62 6.21,1.825 L6.21,3.42 L6.78,3.42 L6.78,1.725 C6.78,1.44 6.69,1.21 6.52,1.03 C6.34,0.85 6.12,0.765 5.855,0.765 C5.68,0.765 5.535,0.795 5.42,0.855 C5.29,0.915 5.165,1.025 5.045,1.185 C4.88,0.905 4.61,0.765 4.23,0.765 Z" id="路径"></path>
                <path d="M8.19,0 L7.62,0.235 L7.62,0.835 L7.155,0.835 L7.155,1.305 L7.62,1.305 L7.62,2.765 C7.62,2.975 7.67,3.13 7.77,3.24 C7.875,3.36 8.04,3.42 8.265,3.42 L8.7,3.42 L8.7,2.95 L8.36,2.95 C8.3,2.95 8.26,2.935 8.23,2.905 C8.2,2.87 8.19,2.825 8.19,2.765 L8.19,1.305 L8.765,1.305 L8.765,0.835 L8.19,0.835 L8.19,0 Z" id="路径"></path>
                <polygon id="路径" points="8.89 3.65 8.89 4.12 11.39 4.12 11.39 3.65"></polygon>
                <path d="M12.5,0 L11.93,0.235 L11.93,0.835 L11.465,0.835 L11.465,1.305 L11.93,1.305 L11.93,2.765 C11.93,2.975 11.98,3.13 12.08,3.24 C12.185,3.36 12.35,3.42 12.575,3.42 L13.01,3.42 L13.01,2.95 L12.67,2.95 C12.61,2.95 12.57,2.935 12.54,2.905 C12.51,2.87 12.5,2.825 12.5,2.765 L12.5,1.305 L13.075,1.305 L13.075,0.835 L12.5,0.835 L12.5,0 Z" id="路径"></path>
                <polygon id="路径" points="13.34 0.835 14.23 2.045 13.225 3.42 13.895 3.42 14.545 2.465 15.19 3.42 15.86 3.42 14.855 2.045 15.745 0.835 15.08 0.835 14.545 1.625 14.005 0.835"></polygon>
                <path d="M16.995,0 L16.425,0.235 L16.425,0.835 L15.96,0.835 L15.96,1.305 L16.425,1.305 L16.425,2.765 C16.425,2.975 16.475,3.13 16.575,3.24 C16.68,3.36 16.845,3.42 17.07,3.42 L17.505,3.42 L17.505,2.95 L17.165,2.95 C17.105,2.95 17.065,2.935 17.035,2.905 C17.005,2.87 16.995,2.825 16.995,2.765 L16.995,1.305 L17.57,1.305 L17.57,0.835 L16.995,0.835 L16.995,0 Z" id="路径"></path>
            </g>
        </g>
    </g>
</svg>