<?xml version="1.0" encoding="UTF-8"?>
<svg width="20px" height="20px" viewBox="0 0 20 20" version="1.1" xmlns="http://www.w3.org/2000/svg" xmlns:xlink="http://www.w3.org/1999/xlink">
    <title>xmt</title>
    <g id="文件图标" stroke="none" stroke-width="1" fill="none" fill-rule="evenodd">
        <g id="编组-3">
            <g id="编组" transform="translate(4.444444, 0.000000)" fill-rule="nonzero">
                <path d="M0.729143889,19.5242862 L14.8264117,19.5242862 C14.960342,19.5235005 15.0684874,19.4169183 15.0684874,19.2857149 L15.0684874,5.23858516 L10.9371582,5.23858516 C10.5344632,5.23858516 10.2080143,4.91878886 10.2080143,4.52430012 L10.2080143,0.475732442 L0.729143889,0.475732442 C0.664554638,0.475732442 0.602610796,0.500867553 0.556939301,0.545608337 C0.511267806,0.590349121 0.485609836,0.651030645 0.485609836,0.714303666 L0.485609836,19.2857149 C0.485609836,19.4171434 0.594981412,19.5242862 0.729143889,19.5242862 Z" id="路径" fill="#FFFFFF"></path>
                <path d="M14.9678656,4.76144275 L10.6950824,0.575732349 L10.6950824,4.52430012 C10.6950824,4.65572857 10.8029957,4.76144275 10.9371582,4.76144275 L14.9678656,4.76144275 L14.9678656,4.76144275 Z" id="路径" fill="#FFFFFF"></path>
                <path d="M15.3411873,4.45430019 L11.0100726,0.210018412 C10.8733184,0.0747249558 10.6867371,-0.000961027697 10.4923805,9.2146362e-06 L0.729143889,9.2146362e-06 C0.326448839,9.2146362e-06 0,0.319814921 0,0.714303666 L0,19.2857149 C0,19.6802037 0.326448839,20.0000092 0.729143889,20.0000092 L14.8264117,20.0000092 C15.2291067,20.0000092 15.5555556,19.6802037 15.5555556,19.2857149 L15.5555556,4.95858542 C15.5555556,4.76924268 15.4782987,4.58775259 15.3411873,4.45430019 Z M10.6936242,0.574303796 L14.9678656,4.76144275 L10.9371582,4.76144275 C10.8032255,4.76144275 10.6944262,4.65550112 10.6936242,4.52430012 L10.6936242,0.574303796 Z M14.8264117,19.5242862 L0.729143889,19.5242862 C0.664554638,19.5242862 0.602610796,19.4991511 0.556939301,19.4544103 C0.511267806,19.4096695 0.485609836,19.348988 0.485609836,19.2857149 L0.485609836,0.714303666 C0.485609836,0.582875214 0.594981412,0.475732442 0.729143889,0.475732442 L10.2080143,0.475732442 L10.2080143,4.52430012 C10.2080143,4.91878886 10.5344632,5.23858516 10.9371582,5.23858516 L15.0684874,5.23858516 L15.0684874,19.2857149 C15.0684874,19.4169183 14.960342,19.5235005 14.8264117,19.5242862 L14.8264117,19.5242862 Z" id="形状" fill="#605E5C" opacity="0.64"></path>
            </g>
            <rect id="矩形" fill="#0563B2" x="0" y="6.66666667" width="20" height="8.88888889" rx="1"></rect>
            <g id="xmt" transform="translate(2.178000, 7.844000)" fill="#FFFFFF" fill-rule="nonzero">
                <polygon id="路径" points="0.207 1.503 1.809 3.681 0 6.156 1.206 6.156 2.376 4.437 3.537 6.156 4.743 6.156 2.934 3.681 4.536 1.503 3.339 1.503 2.376 2.925 1.404 1.503"></polygon>
                <path d="M7.554,1.377 C7.104,1.377 6.681,1.575 6.294,1.98 L6.294,1.503 L5.268,1.503 L5.268,6.156 L6.294,6.156 L6.294,3.366 C6.294,3.06 6.384,2.79 6.564,2.574 C6.744,2.34 6.978,2.232 7.275,2.232 C7.887,2.232 8.193,2.583 8.193,3.294 L8.193,6.156 L9.219,6.156 L9.219,3.312 C9.219,2.97 9.3,2.709 9.48,2.52 C9.651,2.322 9.858,2.232 10.11,2.232 C10.47,2.232 10.722,2.313 10.884,2.484 C11.037,2.646 11.118,2.916 11.118,3.285 L11.118,6.156 L12.144,6.156 L12.144,3.105 C12.144,2.592 11.982,2.178 11.676,1.854 C11.352,1.53 10.956,1.377 10.479,1.377 C10.164,1.377 9.903,1.431 9.696,1.539 C9.462,1.647 9.237,1.845 9.021,2.133 C8.724,1.629 8.238,1.377 7.554,1.377 Z" id="路径"></path>
                <path d="M14.622,0 L13.596,0.423 L13.596,1.503 L12.759,1.503 L12.759,2.349 L13.596,2.349 L13.596,4.977 C13.596,5.355 13.686,5.634 13.866,5.832 C14.055,6.048 14.352,6.156 14.757,6.156 L15.54,6.156 L15.54,5.31 L14.928,5.31 C14.82,5.31 14.748,5.283 14.694,5.229 C14.64,5.166 14.622,5.085 14.622,4.977 L14.622,2.349 L15.657,2.349 L15.657,1.503 L14.622,1.503 L14.622,0 Z" id="路径"></path>
            </g>
        </g>
    </g>
</svg>