<?xml version="1.0" encoding="UTF-8"?>
<svg width="20px" height="20px" viewBox="0 0 20 20" version="1.1" xmlns="http://www.w3.org/2000/svg" xmlns:xlink="http://www.w3.org/1999/xlink">
    <title>xmt_bin2</title>
    <g id="文件图标" stroke="none" stroke-width="1" fill="none" fill-rule="evenodd">
        <g id="编组-3">
            <g id="编组" transform="translate(4.444444, 0.000000)" fill-rule="nonzero">
                <path d="M0.729143889,19.5242862 L14.8264117,19.5242862 C14.960342,19.5235005 15.0684874,19.4169183 15.0684874,19.2857149 L15.0684874,5.23858516 L10.9371582,5.23858516 C10.5344632,5.23858516 10.2080143,4.91878886 10.2080143,4.52430012 L10.2080143,0.475732442 L0.729143889,0.475732442 C0.664554638,0.475732442 0.602610796,0.500867553 0.556939301,0.545608337 C0.511267806,0.590349121 0.485609836,0.651030645 0.485609836,0.714303666 L0.485609836,19.2857149 C0.485609836,19.4171434 0.594981412,19.5242862 0.729143889,19.5242862 Z" id="路径" fill="#FFFFFF"></path>
                <path d="M14.9678656,4.76144275 L10.6950824,0.575732349 L10.6950824,4.52430012 C10.6950824,4.65572857 10.8029957,4.76144275 10.9371582,4.76144275 L14.9678656,4.76144275 L14.9678656,4.76144275 Z" id="路径" fill="#FFFFFF"></path>
                <path d="M15.3411873,4.45430019 L11.0100726,0.210018412 C10.8733184,0.0747249558 10.6867371,-0.000961027697 10.4923805,9.2146362e-06 L0.729143889,9.2146362e-06 C0.326448839,9.2146362e-06 0,0.319814921 0,0.714303666 L0,19.2857149 C0,19.6802037 0.326448839,20.0000092 0.729143889,20.0000092 L14.8264117,20.0000092 C15.2291067,20.0000092 15.5555556,19.6802037 15.5555556,19.2857149 L15.5555556,4.95858542 C15.5555556,4.76924268 15.4782987,4.58775259 15.3411873,4.45430019 Z M10.6936242,0.574303796 L14.9678656,4.76144275 L10.9371582,4.76144275 C10.8032255,4.76144275 10.6944262,4.65550112 10.6936242,4.52430012 L10.6936242,0.574303796 Z M14.8264117,19.5242862 L0.729143889,19.5242862 C0.664554638,19.5242862 0.602610796,19.4991511 0.556939301,19.4544103 C0.511267806,19.4096695 0.485609836,19.348988 0.485609836,19.2857149 L0.485609836,0.714303666 C0.485609836,0.582875214 0.594981412,0.475732442 0.729143889,0.475732442 L10.2080143,0.475732442 L10.2080143,4.52430012 C10.2080143,4.91878886 10.5344632,5.23858516 10.9371582,5.23858516 L15.0684874,5.23858516 L15.0684874,19.2857149 C15.0684874,19.4169183 14.960342,19.5235005 14.8264117,19.5242862 L14.8264117,19.5242862 Z" id="形状" fill="#605E5C" opacity="0.64"></path>
            </g>
            <g id="编组-4备份" transform="translate(0.000000, 7.000000)">
                <path d="M19,0 C19.5522847,-1.01453063e-16 20,0.44771525 20,1 L20,7.88888889 C20,8.44117364 19.5522847,8.88888889 19,8.88888889 L1,8.88888889 C0.44771525,8.88888889 6.76353751e-17,8.44117364 0,7.88888889 L0,1 C-6.76353751e-17,0.44771525 0.44771525,1.01453063e-16 1,0 L19,0 Z M19.0444832,0.504211426 L1.03848839,0.504211426 C0.762346013,0.504211426 0.538488388,0.728069051 0.538488388,1.00421143 L0.538488388,7.94127083 C0.538488388,8.2174132 0.762346013,8.44127083 1.03848839,8.44127083 L19.0444832,8.44127083 C19.3206256,8.44127083 19.5444832,8.2174132 19.5444832,7.94127083 L19.5444832,1.00421143 C19.5444832,0.728069051 19.3206256,0.504211426 19.0444832,0.504211426 Z" id="形状结合" fill="#0563B2"></path>
                <path d="M1.03848839,0.504211426 L19.0444832,0.504211426 C19.3206256,0.504211426 19.5444832,0.728069051 19.5444832,1.00421143 L19.5444832,7.94127083 C19.5444832,8.2174132 19.3206256,8.44127083 19.0444832,8.44127083 L1.03848839,8.44127083 C0.762346013,8.44127083 0.538488388,8.2174132 0.538488388,7.94127083 L0.538488388,1.00421143 C0.538488388,0.728069051 0.762346013,0.504211426 1.03848839,0.504211426 Z" id="矩形备份-25" fill="#FFFFFF"></path>
            </g>
            <g id="xmt_bin" transform="translate(0.820000, 9.360000)" fill="#0563B2" fill-rule="nonzero">
                <polygon id="路径" points="0.115 1.055 1.005 2.265 0 3.64 0.67 3.64 1.32 2.685 1.965 3.64 2.635 3.64 1.63 2.265 2.52 1.055 1.855 1.055 1.32 1.845 0.78 1.055"></polygon>
                <path d="M4.23,0.985 C3.98,0.985 3.745,1.095 3.53,1.32 L3.53,1.055 L2.96,1.055 L2.96,3.64 L3.53,3.64 L3.53,2.09 C3.53,1.92 3.58,1.77 3.68,1.65 C3.78,1.52 3.91,1.46 4.075,1.46 C4.415,1.46 4.585,1.655 4.585,2.05 L4.585,3.64 L5.155,3.64 L5.155,2.06 C5.155,1.87 5.2,1.725 5.3,1.62 C5.395,1.51 5.51,1.46 5.65,1.46 C5.85,1.46 5.99,1.505 6.08,1.6 C6.165,1.69 6.21,1.84 6.21,2.045 L6.21,3.64 L6.78,3.64 L6.78,1.945 C6.78,1.66 6.69,1.43 6.52,1.25 C6.34,1.07 6.12,0.985 5.855,0.985 C5.68,0.985 5.535,1.015 5.42,1.075 C5.29,1.135 5.165,1.245 5.045,1.405 C4.88,1.125 4.61,0.985 4.23,0.985 Z" id="路径"></path>
                <path d="M8.19,0.22 L7.62,0.455 L7.62,1.055 L7.155,1.055 L7.155,1.525 L7.62,1.525 L7.62,2.985 C7.62,3.195 7.67,3.35 7.77,3.46 C7.875,3.58 8.04,3.64 8.265,3.64 L8.7,3.64 L8.7,3.17 L8.36,3.17 C8.3,3.17 8.26,3.155 8.23,3.125 C8.2,3.09 8.19,3.045 8.19,2.985 L8.19,1.525 L8.765,1.525 L8.765,1.055 L8.19,1.055 L8.19,0.22 Z" id="路径"></path>
                <polygon id="路径" points="8.89 3.87 8.89 4.34 11.39 4.34 11.39 3.87"></polygon>
                <path d="M11.69,0 L11.69,3.64 L12.22,3.64 L12.22,3.365 C12.4,3.595 12.66,3.71 13,3.71 C13.38,3.71 13.68,3.575 13.9,3.305 C14.1,3.055 14.2,2.73 14.2,2.335 C14.2,1.955 14.1,1.64 13.905,1.39 C13.69,1.12 13.4,0.985 13.03,0.985 C12.73,0.985 12.47,1.125 12.26,1.41 L12.26,0 L11.69,0 Z M12.895,1.445 C13.15,1.445 13.34,1.53 13.46,1.7 C13.56,1.845 13.615,2.055 13.615,2.335 C13.615,2.615 13.565,2.83 13.47,2.98 C13.35,3.16 13.165,3.25 12.915,3.25 C12.69,3.25 12.52,3.16 12.4,2.985 C12.29,2.825 12.24,2.615 12.24,2.365 L12.24,2.325 C12.24,2.05 12.305,1.83 12.44,1.67 C12.56,1.52 12.71,1.445 12.895,1.445 Z" id="形状"></path>
                <path d="M15.085,0 C14.975,0 14.885,0.035 14.81,0.105 C14.735,0.175 14.7,0.265 14.7,0.375 C14.7,0.485 14.735,0.575 14.81,0.65 C14.885,0.72 14.975,0.755 15.085,0.755 C15.195,0.755 15.285,0.72 15.36,0.65 C15.435,0.58 15.475,0.485 15.475,0.375 C15.475,0.265 15.435,0.175 15.365,0.105 C15.29,0.035 15.195,0 15.085,0 Z M14.8,1.055 L14.8,3.64 L15.37,3.64 L15.37,1.055 L14.8,1.055 Z" id="形状"></path>
                <path d="M17.41,0.985 C17.255,0.985 17.115,1.015 16.985,1.08 C16.86,1.14 16.745,1.235 16.645,1.355 L16.645,1.055 L16.075,1.055 L16.075,3.64 L16.645,3.64 L16.645,2.085 C16.665,1.88 16.735,1.72 16.855,1.61 C16.96,1.51 17.085,1.46 17.225,1.46 C17.615,1.46 17.81,1.67 17.81,2.095 L17.81,3.64 L18.38,3.64 L18.38,2.045 C18.38,1.335 18.055,0.985 17.41,0.985 Z" id="路径"></path>
            </g>
        </g>
    </g>
</svg>