<?xml version="1.0" standalone="no"?><!DOCTYPE svg PUBLIC "-//W3C//DTD SVG 1.1//EN" "http://www.w3.org/Graphics/SVG/1.1/DTD/svg11.dtd"><svg class="icon" width="200px" height="200.00px" viewBox="0 0 1024 1024" version="1.1" xmlns="http://www.w3.org/2000/svg"><path d="M264.90827 999.628849H986.622027a12.339175 12.339175 0 0 0 12.390375-12.185576V268.238312h-211.506777a36.966326 36.966326 0 0 1-37.375925-36.607927V24.373199H264.90827A12.595175 12.595175 0 0 0 255.999488 27.957192a12.083176 12.083176 0 0 0-3.583993 8.601583v950.884498c0 6.707187 5.529589 12.185576 12.441575 12.185576z" fill="#FFFFFF" /><path d="M993.892412 243.76476L775.16645 29.493189v202.137196a12.287975 12.287975 0 0 0 12.390375 12.134375h206.335587z" fill="#FFFFFF" /><path d="M1013.041174 228.046392L791.294417 10.754026a37.427125 37.427125 0 0 0-26.521547-10.751978H264.90827c-20.633559 0-37.375925 16.383967-37.375925 36.556727v950.884498c0 20.17276 16.742367 36.556727 37.375925 36.556727H986.622027c20.633559 0 37.324725-16.383967 37.324725-36.556727V253.90234c0-9.727981-3.942392-18.995162-10.956778-25.855948zM775.06405 29.390789l218.828362 214.373971h-206.335587a12.339175 12.339175 0 0 1-12.492775-12.134375V29.390789z m211.609177 970.23806H264.90827a12.595175 12.595175 0 0 1-8.857582-3.583993 12.083176 12.083176 0 0 1-3.583993-8.601583V36.558775c0-6.707187 5.529589-12.185576 12.441575-12.185576h485.27263v207.257186c0 20.22396 16.742367 36.607927 37.375925 36.607927h211.455577v719.204961a12.339175 12.339175 0 0 1-12.339175 12.185576z" fill="#605E5C" opacity=".64" /><path d="M0 341.351765m51.199898 0l921.598156 0q51.199898 0 51.199898 51.199898l0 352.716094q0 51.199898-51.199898 51.199898l-921.598156 0q-51.199898 0-51.199898-51.199898l0-352.716094q0-51.199898 51.199898-51.199898Z" fill="#0563B2" /><path d="M62.463875 533.248982l45.567909 61.951876L56.575887 665.600717h34.303931l33.279934-48.895902 33.023934 48.895902h34.303931l-51.455897-70.399859 45.567909-61.951876H151.551697l-27.391945 40.447919-27.647945-40.447919zM273.151454 529.664989c-12.799974 0-24.83195 5.631989-35.839929 17.151965v-13.567972h-29.183941V665.600717h29.183941v-79.359841c0-8.703983 2.559995-16.383967 7.679985-22.527955 5.11999-6.655987 11.775976-9.727981 20.22396-9.727981 17.407965 0 26.111948 9.98398 26.111947 30.20794V665.600717h29.183942v-80.895838c0-9.727981 2.303995-17.151966 7.423985-22.527955 4.86399-5.631989 10.751978-8.191984 17.919964-8.191984 10.23998 0 17.407965 2.303995 22.015956 7.167986 4.351991 4.607991 6.655987 12.287975 6.655987 22.783954V665.600717h29.183942v-86.783827a49.7663 49.7663 0 0 0-13.311974-35.583928 45.926308 45.926308 0 0 0-34.047932-13.567973c-8.959982 0-16.383967 1.535997-22.271955 4.60799-6.655987 3.071994-13.055974 8.703983-19.199962 16.895967-8.447983-14.335971-22.271955-21.503957-41.727916-21.503957zM475.903048 490.497067l-29.183941 12.031976v30.719939H422.911154v24.063951h23.807953v74.751851c0 10.751978 2.559995 18.687963 7.679984 24.319951 5.375989 6.143988 13.823972 9.215982 25.34395 9.215982h22.271955v-24.063952h-17.407965c-3.071994 0-5.11999-0.767998-6.655987-2.303995-1.535997-1.791996-2.047996-4.095992-2.047996-7.167986v-74.751851h29.439941v-24.063951h-29.439941V490.497067zM511.742977 677.376693v24.063952h127.999744v-24.063952zM696.574607 490.497067l-29.183942 12.031976v30.719939h-23.807952v24.063951h23.807952v74.751851c0 10.751978 2.559995 18.687963 7.679985 24.319951 5.375989 6.143988 13.823972 9.215982 25.343949 9.215982h22.271956v-24.063952h-17.407966c-3.071994 0-5.11999-0.767998-6.655986-2.303995-1.535997-1.791996-2.047996-4.095992-2.047996-7.167986v-74.751851h29.439941v-24.063951h-29.439941V490.497067zM739.582521 533.248982l45.567909 61.951876L733.694533 665.600717H767.998464l33.279933-48.895902 33.023934 48.895902h34.303932l-51.455897-70.399859 45.567909-61.951876h-34.047932l-27.391946 40.447919-27.647944-40.447919zM926.718147 490.497067l-29.183942 12.031976v30.719939h-23.807952v24.063951h23.807952v74.751851c0 10.751978 2.559995 18.687963 7.679985 24.319951 5.375989 6.143988 13.823972 9.215982 25.343949 9.215982h22.271955v-24.063952h-17.407965c-3.071994 0-5.11999-0.767998-6.655987-2.303995-1.535997-1.791996-2.047996-4.095992-2.047995-7.167986v-74.751851h29.439941v-24.063951H926.718147V490.497067z" fill="#FFFFFF" /></svg>