<?xml version="1.0" encoding="UTF-8"?>
<svg width="20px" height="20px" viewBox="0 0 20 20" version="1.1" xmlns="http://www.w3.org/2000/svg" xmlns:xlink="http://www.w3.org/1999/xlink">
    <title>zip</title>
    <g id="文件图标" stroke="none" stroke-width="1" fill="none" fill-rule="evenodd">
        <g id="编组-3">
            <g id="编组" transform="translate(4.444444, 0.000000)" fill-rule="nonzero">
                <path d="M0.729143889,19.5242862 L14.8264117,19.5242862 C14.960342,19.5235005 15.0684874,19.4169183 15.0684874,19.2857149 L15.0684874,5.23858516 L10.9371582,5.23858516 C10.5344632,5.23858516 10.2080143,4.91878886 10.2080143,4.52430012 L10.2080143,0.475732442 L0.729143889,0.475732442 C0.664554638,0.475732442 0.602610796,0.500867553 0.556939301,0.545608337 C0.511267806,0.590349121 0.485609836,0.651030645 0.485609836,0.714303666 L0.485609836,19.2857149 C0.485609836,19.4171434 0.594981412,19.5242862 0.729143889,19.5242862 Z" id="路径" fill="#FFFFFF"></path>
                <path d="M14.9678656,4.76144275 L10.6950824,0.575732349 L10.6950824,4.52430012 C10.6950824,4.65572857 10.8029957,4.76144275 10.9371582,4.76144275 L14.9678656,4.76144275 L14.9678656,4.76144275 Z" id="路径" fill="#FFFFFF"></path>
                <path d="M15.3411873,4.45430019 L11.0100726,0.210018412 C10.8733184,0.0747249558 10.6867371,-0.000961027697 10.4923805,9.2146362e-06 L0.729143889,9.2146362e-06 C0.326448839,9.2146362e-06 0,0.319814921 0,0.714303666 L0,19.2857149 C0,19.6802037 0.326448839,20.0000092 0.729143889,20.0000092 L14.8264117,20.0000092 C15.2291067,20.0000092 15.5555556,19.6802037 15.5555556,19.2857149 L15.5555556,4.95858542 C15.5555556,4.76924268 15.4782987,4.58775259 15.3411873,4.45430019 Z M10.6936242,0.574303796 L14.9678656,4.76144275 L10.9371582,4.76144275 C10.8032255,4.76144275 10.6944262,4.65550112 10.6936242,4.52430012 L10.6936242,0.574303796 Z M14.8264117,19.5242862 L0.729143889,19.5242862 C0.664554638,19.5242862 0.602610796,19.4991511 0.556939301,19.4544103 C0.511267806,19.4096695 0.485609836,19.348988 0.485609836,19.2857149 L0.485609836,0.714303666 C0.485609836,0.582875214 0.594981412,0.475732442 0.729143889,0.475732442 L10.2080143,0.475732442 L10.2080143,4.52430012 C10.2080143,4.91878886 10.5344632,5.23858516 10.9371582,5.23858516 L15.0684874,5.23858516 L15.0684874,19.2857149 C15.0684874,19.4169183 14.960342,19.5235005 14.8264117,19.5242862 L14.8264117,19.5242862 Z" id="形状" fill="#605E5C" opacity="0.64"></path>
            </g>
            <rect id="矩形" fill="#0563B2" x="0" y="6.66666667" width="20" height="8.88888889" rx="1"></rect>
            <g id="zip" transform="translate(4.958000, 7.448000)" fill="#FFFFFF" fill-rule="nonzero">
                <polygon id="路径" points="0.09 1.899 0.09 2.736 2.574 2.736 0 5.859 0 6.552 4.104 6.552 4.104 5.715 1.35 5.715 3.96 2.556 3.96 1.899"></polygon>
                <path d="M5.502,0 C5.304,0 5.142,0.063 5.007,0.189 C4.872,0.315 4.809,0.477 4.809,0.675 C4.809,0.873 4.872,1.035 5.007,1.17 C5.142,1.296 5.304,1.359 5.502,1.359 C5.7,1.359 5.862,1.296 5.997,1.17 C6.132,1.044 6.204,0.873 6.204,0.675 C6.204,0.477 6.132,0.315 6.006,0.189 C5.871,0.063 5.7,0 5.502,0 Z M4.989,1.899 L4.989,6.552 L6.015,6.552 L6.015,1.899 L4.989,1.899 Z" id="形状"></path>
                <path d="M9.582,1.773 C8.97,1.773 8.502,1.98 8.178,2.394 L8.178,1.899 L7.224,1.899 L7.224,8.334 L8.25,8.334 L8.25,5.913 C8.628,6.417 9.096,6.678 9.636,6.678 C10.302,6.678 10.833,6.435 11.211,5.949 C11.562,5.499 11.742,4.932 11.742,4.248 C11.742,3.528 11.562,2.952 11.202,2.502 C10.806,2.016 10.266,1.773 9.582,1.773 Z M9.429,2.601 C9.879,2.601 10.212,2.763 10.428,3.087 C10.599,3.357 10.689,3.744 10.689,4.248 C10.689,4.752 10.59,5.139 10.401,5.409 C10.185,5.697 9.843,5.85 9.393,5.85 C9.06,5.85 8.79,5.715 8.574,5.445 C8.331,5.148 8.214,4.752 8.214,4.266 L8.214,4.194 C8.214,3.726 8.304,3.357 8.502,3.078 C8.718,2.754 9.024,2.601 9.429,2.601 Z" id="形状"></path>
            </g>
        </g>
    </g>
</svg>