<?xml version="1.0" encoding="UTF-8"?>
<svg width="78px" height="78px" viewBox="0 0 78 78" version="1.1" xmlns="http://www.w3.org/2000/svg" xmlns:xlink="http://www.w3.org/1999/xlink">
    <title>编组 6</title>
    <defs>
        <polygon id="path-1" points="0 0 38.8230289 0 38.8230289 21.9001702 0 21.9001702"></polygon>
        <polygon id="path-3" points="0 0 38.8230289 0 38.8230289 21.9001702 0 21.9001702"></polygon>
    </defs>
    <g id="ai新版" stroke="none" stroke-width="1" fill="none" fill-rule="evenodd">
        <g id="编组-6">
            <rect id="矩形" fill="#DDEFFE" x="0" y="0" width="78" height="78" rx="5"></rect>
            <g id="编组" opacity="0.3" transform="translate(18.1395, 19.0465)">
                <g transform="translate(0, 18.9138)">
                    <mask id="mask-2" fill="white">
                        <use xlink:href="#path-1"></use>
                    </mask>
                    <g id="Clip-2"></g>
                    <path d="M36.6735561,9.49220559 C36.6735561,10.1609968 36.3003162,10.7542596 35.7082386,11.1245921 L21.3962511,19.3730166 C20.806605,19.7445673 20.0576936,19.7445673 19.4692633,19.3730166 L5.15606005,11.1245921 C4.56033512,10.8005512 4.19074251,10.1731788 4.19438981,9.49220559 L4.19438981,5.82542699 C5.2837154,5.36738422 6.04843168,4.28927822 6.04843168,3.03087879 C6.04843168,1.35707354 4.69406929,0 3.02482372,0 C1.35436239,0 0,1.35707354 0,3.03087879 C0,4.33191518 0.82185725,5.43194876 1.96953956,5.86197296 L1.96953956,9.48976919 C1.96953956,10.9747536 2.78410222,12.312336 4.04363493,13.0566555 L18.3568382,21.3757356 L18.3568382,21.3818265 C19.0242933,21.752159 19.6917483,21.9007793 20.4333651,21.9007793 C21.1008202,21.9007793 21.8412211,21.6766307 22.5086762,21.3062982 L36.7452863,13.0590919 C38.0206239,12.3232998 38.812087,10.9662262 38.8230289,9.49220559 L38.8230289,6.37118008 L36.6735561,6.37118008 L36.6735561,9.49220559 Z" id="Fill-1" fill="#0563B2" mask="url(#mask-2)"></path>
                </g>
                <path d="M10.9235577,21.289509 C10.9235577,18.0157275 13.6716302,15.3054074 16.9707063,15.3054074 C20.378594,15.3054074 23.0166972,18.0157275 23.0166972,21.289509 L23.0166972,21.8541591 L25.219554,21.8921986 L25.219554,21.3275486 C25.219554,19.9735772 24.9996156,18.7313472 24.4497696,17.6020471 C24.119862,16.811537 23.5584403,16.1351457 23.0097518,15.4575657 C23.4496286,15.3446357 24.4462969,15.3054074 24.8861737,15.3054074 C27.6342461,15.3054074 30.0535686,17.2252175 30.7133838,19.8214189 C31.4820106,23.0963891 30.0581989,26.7969272 26.4419485,27.5196792 C25.9974414,27.6076457 25.4522257,27.7455392 24.9023797,27.7455392 C23.693876,27.7455392 22.011926,27.5291891 21.2375113,26.7767186 L20.904131,26.490233 C20.3554426,25.9243943 19.5277796,24.493155 19.4560102,23.5314668 L17.3665954,23.5861487 C17.3909044,25.2622678 18.3632636,26.7588876 19.0219213,27.4364676 C18.583202,27.5493976 18.130592,27.8014099 17.2716746,27.7336518 C13.726036,27.4554874 10.9235577,25.2682115 10.9235577,21.289509 M20.9261248,29.0020341 C22.0802227,29.540532 23.3396594,29.8638684 24.6002537,29.8638684 C25.2299721,29.8638684 25.9650294,29.7568821 26.6989291,29.540532 C27.7488456,29.2171955 28.7987621,28.7868728 29.6380008,28.0320248 C30.478397,27.3841632 31.2134543,26.5223289 31.7378337,25.5523196 C32.8930891,23.612301 33.1026094,21.3489459 32.5782299,19.1925771 C32.1580318,17.3595448 31.1081154,15.7428626 29.6380008,14.6646782 C28.2743827,13.5876825 26.4894089,12.9410096 24.7044351,12.9410096 C23.9705354,12.9410096 22.1311558,13.088413 20.9261248,13.9098302 C19.7708694,13.3713324 18.5114327,13.047996 17.2519959,13.047996 C15.0479816,13.047996 12.9481486,13.9098302 11.3738527,15.5277012 C9.79955674,17.1443834 8.95916052,19.1925771 8.95916052,21.4559322 C8.95916052,23.7192873 9.79955674,25.7686697 11.3738527,27.3841632 C12.9481486,29.0020341 15.0479816,29.8638684 17.2519959,29.8638684 C18.5114327,29.8638684 19.7708694,29.540532 20.9261248,29.0020341" id="Fill-3" fill="#0563B2"></path>
                <g transform="translate(1.9909, 0)">
                    <mask id="mask-4" fill="white">
                        <use xlink:href="#path-3"></use>
                    </mask>
                    <g id="Clip-6"></g>
                    <path d="M37.0192907,15.8894137 L37.0192907,12.8253047 C37.0192907,11.285672 36.200296,9.8988658 34.9364604,9.1271549 L20.5894287,0.57644657 C19.3012183,-0.19273827 17.7156349,-0.19273827 16.4274245,0.57644657 L2.08039273,9.1271549 C0.816557193,9.8988658 0,11.285672 0,12.8253047 L0,15.7542696 L2.230298,15.7542696 L2.230298,12.8253047 C2.24492291,12.1255864 2.61054553,11.4839676 3.19554173,11.1328454 L17.5425735,2.58213709 C18.1324447,2.19565013 18.8844085,2.19565013 19.4742797,2.58213709 L33.7469682,11.2073641 C34.342933,11.5168063 34.7146494,12.2102094 34.7146494,12.9036125 L34.7146494,15.8300514 C33.5739068,16.2809528 32.7597871,17.4176792 32.7597871,18.7577533 C32.7597871,20.4931555 34.1174658,21.9001702 35.7920174,21.9001702 C37.466569,21.9001702 38.8230289,20.4931555 38.8230289,18.7577533 C38.8230289,17.4757785 38.080815,16.3782061 37.0192907,15.8894137" id="Fill-5" fill="#0563B2" mask="url(#mask-4)"></path>
                </g>
            </g>
        </g>
    </g>
</svg>