<?xml version="1.0" standalone="no"?><!DOCTYPE svg PUBLIC "-//W3C//DTD SVG 1.1//EN" "http://www.w3.org/Graphics/SVG/1.1/DTD/svg11.dtd"><svg t="1761637554932" class="icon" viewBox="0 0 1024 1024" version="1.1" xmlns="http://www.w3.org/2000/svg" p-id="31222" xmlns:xlink="http://www.w3.org/1999/xlink" width="200" height="200"><path d="M729.6 0l230.336 230.336L960 230.4l25.6 25.6v768H166.4v-192H0V384h896v448H217.536l0.064 140.8h716.8V281.6h-256V51.136L217.6 51.2V384h-51.2V0h563.2z m116.672 431.744H51.84v352.448h794.432V431.744zM527.232 551.296c52.224 0 81.024 20.736 85.632 62.976H570.24c-3.072-9.984-7.68-17.28-13.824-21.12-6.528-4.224-16.512-6.144-29.952-6.144-11.52 0-20.352 1.536-26.112 4.992-6.912 3.456-9.984 8.832-9.984 16.512 0 6.144 4.992 11.904 15.744 16.512 6.528 2.688 19.584 6.528 39.552 11.52 22.272 5.376 39.168 11.52 49.92 18.816a47.488 47.488 0 0 1 23.808 41.856c0 42.24-29.952 63.36-89.472 63.36-55.296 0-84.864-23.424-89.088-69.888h42.624c2.304 12.672 6.912 21.504 13.44 26.88 6.528 4.608 16.896 7.296 31.488 7.296 30.72 0 46.08-8.448 46.08-24.576 0-9.216-5.76-16.512-17.28-21.888-6.144-3.072-19.2-6.528-39.168-11.136-23.424-5.376-39.936-11.136-49.536-17.28a45.12 45.12 0 0 1-23.04-40.32c0-18.432 7.296-32.64 22.656-42.624 14.976-10.752 34.56-15.744 59.136-15.744z m-124.8-75.648V755.2h-43.776V475.648h43.776z m290.304 81.024l41.472 60.672 41.088-60.672h51.072l-68.352 92.928 77.184 105.6h-51.456l-49.536-73.344-49.92 73.344h-51.456l77.184-105.6-68.352-92.928h51.072z m-552.96-75.648l64.512 96.768L268.8 481.024h54.912l-92.544 132.48L329.856 755.2h-54.912l-70.656-105.984L133.632 755.2H78.72l97.92-141.696-91.776-132.48h54.912z m747.776-250.688L729.6 72.384V230.4l157.952-0.064z" p-id="31223"></path></svg>