<?xml version="1.0" standalone="no"?><!DOCTYPE svg PUBLIC "-//W3C//DTD SVG 1.1//EN" "http://www.w3.org/Graphics/SVG/1.1/DTD/svg11.dtd"><svg t="1761637762124" class="icon" viewBox="0 0 1024 1024" version="1.1" xmlns="http://www.w3.org/2000/svg" p-id="31672" xmlns:xlink="http://www.w3.org/1999/xlink" width="200" height="200"><path d="M729.6 0l230.336 230.336L960 230.4l25.6 25.6v768H166.4v-192H0V384h896v448H217.536l0.064 140.8h716.8V281.6h-256V51.136L217.6 51.2V384h-51.2V0h563.2z m116.672 431.744H51.84v352.448h794.432V431.744zM447.616 566.08c24.96 0 45.12 8 60.48 24.64 15.04 16.32 22.72 37.12 22.72 62.72 0 25.28-7.68 46.08-22.4 62.08-15.36 16.64-35.84 24.96-60.8 24.96-25.28 0-45.44-8.32-60.8-24.96-15.04-16-22.4-36.8-22.4-62.08 0-25.6 7.36-46.4 22.72-62.72 15.04-16.64 35.2-24.64 60.48-24.64z m354.496-63.04v232.96h-33.92v-17.6c-11.52 14.72-28.16 22.08-49.92 22.08-24.704 0-43.904-8.64-57.6-25.92-12.8-16-19.2-36.8-19.2-62.08 0-24.32 6.08-44.48 18.88-60.48 13.44-17.28 32.32-25.92 56-25.92 19.2 0 35.52 8.96 49.28 27.2V503.04h36.48z m-694.272 4.48l42.88 173.76h1.28L197.12 507.52h38.72l45.12 173.76h1.28l42.88-173.76h42.24L301.44 736h-39.68l-44.48-171.84h-1.28l-44.8 171.84H131.2L65.6 507.52h42.24z m515.712 58.56c8 0 15.04 1.28 20.8 4.16v36.48a78.72 78.72 0 0 0-23.68-3.52 35.456 35.456 0 0 0-25.92 11.2c-8.96 8.64-13.12 19.84-13.12 33.92v87.68h-36.16V570.56h36.16v23.68a56.32 56.32 0 0 1 15.68-19.2 39.552 39.552 0 0 1 26.24-8.96z m101.44 29.44c-16.64 0-28.48 5.44-36.224 16.32-6.656 9.28-9.92 22.72-9.92 40.64s2.944 31.68 9.344 41.28c7.296 11.52 19.2 17.28 35.456 17.28 14.08 0 25.344-5.76 32.96-16.96 6.784-10.24 10.24-23.68 10.24-39.68v-2.56c0-17.6-4.48-31.68-12.8-41.92a36.032 36.032 0 0 0-29.056-14.4z m-277.376 0.32a39.68 39.68 0 0 0-35.2 17.92c-7.04 10.24-10.56 23.68-10.56 39.68s3.52 29.12 10.56 39.36c8.32 11.84 19.84 17.92 35.2 17.92 15.04 0 26.88-6.08 35.2-17.92 7.04-10.56 10.88-23.68 10.88-39.36 0-16-3.84-29.44-10.88-39.68a40.064 40.064 0 0 0-35.2-17.92z m439.936-365.504L729.6 72.384V230.4l157.952-0.064z" p-id="31673"></path></svg>