<?xml version="1.0" encoding="UTF-8"?>
<svg width="20px" height="20px" viewBox="0 0 20 20" version="1.1" xmlns="http://www.w3.org/2000/svg" xmlns:xlink="http://www.w3.org/1999/xlink">
    <title>1/图标/编辑</title>
    <g id="控件" stroke="none" stroke-width="1" fill="none" fill-rule="evenodd">
        <g id="1/图标/编辑" fill="#000000" fill-rule="nonzero">
            <g id="LineAnnotation-(1)" transform="translate(1.5, 1)">
                <path d="M0,10.8847737 L10.3286688,0.611111111 L10.9482234,0 L15.3057922,4.32304527 L14.5745315,5.05041152 L5.08262351,14.4855967 L4.35136286,13.7582305 L11.3029934,6.84259259 L8.4379411,3.94753086 L1.46148698,10.8858025 L1.06120711,11.2839506 L1.16256997,14.1399177 L3.93970552,14.1687243 L4.35343149,13.7623457 L5.08469214,14.4897119 L4.35032855,15.2201646 L0.176867851,15.1203704 L0,10.8847737 Z M13.8391336,4.32098765 L10.9471891,1.4526749 L9.16816744,3.22119342 L12.0342541,6.11625514 L13.8391336,4.32098765 Z M0.450961304,16.9711934 L17,16.9711934 L17,18 L0.450961304,18 L0.450961304,16.9711934 Z" id="形状"></path>
            </g>
        </g>
    </g>
</svg>