<?xml version="1.0" standalone="no"?><!DOCTYPE svg PUBLIC "-//W3C//DTD SVG 1.1//EN" "http://www.w3.org/Graphics/SVG/1.1/DTD/svg11.dtd"><svg t="1762244100652" class="icon" viewBox="0 0 1024 1024" version="1.1" xmlns="http://www.w3.org/2000/svg" p-id="33366" xmlns:xlink="http://www.w3.org/1999/xlink" width="200" height="200"><path d="M264.90827 999.628849H986.622027a12.339175 12.339175 0 0 0 12.390375-12.185576V268.238312h-211.506777a36.966326 36.966326 0 0 1-37.375925-36.607927V24.373199H264.90827A12.595175 12.595175 0 0 0 255.999488 27.957192a12.083176 12.083176 0 0 0-3.583993 8.601583v950.884498c0 6.707187 5.529589 12.185576 12.441575 12.185576z" fill="#FFFFFF" p-id="33367"></path><path d="M993.892412 243.76476L775.16645 29.493189v202.137196a12.287975 12.287975 0 0 0 12.390375 12.134375h206.335587z" fill="#FFFFFF" p-id="33368"></path><path d="M1013.041174 228.046392L791.294417 10.754026a37.427125 37.427125 0 0 0-26.521547-10.751978H264.90827c-20.633559 0-37.375925 16.383967-37.375925 36.556727v950.884498c0 20.17276 16.742367 36.556727 37.375925 36.556727H986.622027c20.633559 0 37.324725-16.383967 37.324725-36.556727V253.90234c0-9.727981-3.942392-18.995162-10.956778-25.855948zM775.06405 29.390789l218.828362 214.373971h-206.335587a12.339175 12.339175 0 0 1-12.492775-12.134375V29.390789z m211.609177 970.23806H264.90827a12.595175 12.595175 0 0 1-8.857582-3.583993 12.083176 12.083176 0 0 1-3.583993-8.601583V36.558775c0-6.707187 5.529589-12.185576 12.441575-12.185576h485.27263v207.257186c0 20.22396 16.742367 36.607927 37.375925 36.607927h211.455577v719.204961a12.339175 12.339175 0 0 1-12.339175 12.185576z" fill="#605E5C" opacity=".64" p-id="33369"></path><path d="M0 341.351765m51.199898 0l921.598156 0q51.199898 0 51.199898 51.199898l0 352.716094q0 51.199898-51.199898 51.199898l-921.598156 0q-51.199898 0-51.199898-51.199898l0-352.716094q0-51.199898 51.199898-51.199898Z" fill="#0563B2" p-id="33370"></path><path d="M274.021852 446.260355V665.600717h35.942328v-97.075006h107.212586v-30.719939H309.96418V476.980294h113.663773v-30.719939zM473.394253 441.959564a23.654353 23.654353 0 0 0-16.895966 6.451187 21.555157 21.555157 0 0 0-6.758386 16.588767c0 6.758386 2.150396 12.287975 6.758386 16.895966 4.607991 4.300791 10.13758 6.451187 16.895966 6.451187s12.287975-2.150396 16.895966-6.451187a22.476755 22.476755 0 0 0 7.065586-16.895966 22.681555 22.681555 0 0 0-6.758386-16.588767 24.422351 24.422351 0 0 0-17.203166-6.451187z m-17.510365 64.81907V665.600717h35.02073V506.778634h-35.02073zM537.291725 441.959564V665.600717h35.02073V441.959564zM679.83224 502.477843c-23.654353 0-42.393515 7.987184-55.910288 24.268752-14.131172 15.974368-20.889558 35.635129-20.889558 59.289481 0 26.419147 7.372785 47.001506 22.118356 62.054276 13.823972 14.438371 32.563135 21.811156 56.217487 21.811156 21.196758 0 38.707123-6.143988 52.838295-18.124764 11.059178-9.83038 18.431963-22.425555 22.118355-37.171125h-35.02073c-4.300791 8.908782-8.908782 15.359969-14.131171 19.353561a43.110314 43.110314 0 0 1-26.111948 7.372785c-12.595175 0-22.425555-3.993592-29.183942-11.673576-6.758386-7.679985-10.751978-19.046362-11.980776-33.791933h118.886162c0-28.569543-6.451187-50.995098-19.046361-66.969466-13.823972-17.817564-33.791932-26.419147-59.903881-26.419147z m0.921598 28.569543c24.575951 0 38.399923 12.595175 41.471918 38.399923H640.510719c2.150396-12.595175 6.451187-22.118356 12.902374-28.569543 6.758386-6.758386 15.667169-9.83038 27.340745-9.83038z" fill="#FFFFFF" p-id="33371"></path></svg>