<?xml version="1.0" encoding="UTF-8"?>
<svg width="16px" height="16px" viewBox="0 0 16 16" version="1.1" xmlns="http://www.w3.org/2000/svg" xmlns:xlink="http://www.w3.org/1999/xlink">
    <title>front-build</title>
    <g id="切图" stroke="none" stroke-width="1" fill="none" fill-rule="evenodd">
        <g id="front-build" transform="translate(0.56, 1.6)" fill="#232527" fill-rule="nonzero">
            <g id="搭建">
                <path d="M14.8478539,3.75953192 C14.9594362,3.70385303 14.9596607,3.61427288 14.8478539,3.55926753 L7.69715763,0.041169868 C7.58579984,-0.013610982 7.40506796,-0.013835482 7.29303664,0.041169868 L0.133359913,3.55926753 C0.0215531125,3.61427288 0.0211040875,3.70362853 0.133359913,3.75953192 L7.29303664,7.32432801 C7.40461893,7.38000689 7.58535081,7.38023141 7.69715763,7.32432801 L14.8478539,3.75953192 L14.8478539,3.75953192 Z M2.0841417,3.66411447 L7.49509714,1.00544743 L12.8990927,3.66411447 L7.49509714,6.35825434 L2.0841417,3.66411447 Z" id="形状"></path>
                <path d="M0.200264387,5.47951572 C0.0895801375,5.42563292 0,5.48176083 0,5.60748737 L0,6.19570791 C0,6.32031188 0.0893556375,6.46467287 0.200264387,6.51900469 L7.29124055,9.97423908 C7.4019248,10.0283464 7.58086059,10.0285709 7.69199385,9.97446359 L14.7818474,6.52304591 C14.8923072,6.46916311 14.9821119,6.32570016 14.9821119,6.19974912 L14.9821119,5.61040602 C14.9821119,5.48580204 14.8927562,5.42810256 14.7818474,5.48220987 L7.6928919,8.93519914 C7.58220765,8.98908194 7.40327186,8.98908194 7.2921386,8.93497463 L0.200264387,5.47974023 L0.200264387,5.47951572 Z" id="路径"></path>
                <path d="M0.200264387,8.15861332 C0.0895801375,8.10473052 0,8.16175648 0,8.28366632 L0,8.88827621 C0,9.01130859 0.0893556375,9.15454703 0.200264387,9.20865433 L7.29124055,12.6641132 C7.4019248,12.717996 7.58086059,12.7182206 7.69199385,12.6641132 L14.7818474,9.21292006 C14.8923072,9.15903726 14.9821119,9.01445176 14.9821119,8.89231742 L14.9821119,8.28680948 C14.9821119,8.16355258 14.8927562,8.10720016 14.7818474,8.16130746 L7.6928919,11.6142967 C7.58220765,11.6681795 7.40327186,11.6681795 7.2921386,11.6142967 L0.200264387,8.15838881 L0.200264387,8.15861332 Z" id="路径"></path>
            </g>
        </g>
    </g>
</svg>