<?xml version="1.0" encoding="UTF-8"?>
<svg width="16px" height="16px" viewBox="0 0 16 16" version="1.1" xmlns="http://www.w3.org/2000/svg" xmlns:xlink="http://www.w3.org/1999/xlink">
    <title>front-lightupcollect</title>
    <g id="切图" stroke="none" stroke-width="1" fill="none" fill-rule="evenodd">
        <g id="front-lightupcollect">
            <g id="front-leftbar-collect" transform="translate(0.8722, 1.1841)" fill="#FFE036" fill-rule="nonzero">
                <path d="M7.36166423,0.0377126938 C7.43270987,0.0731465662 7.49080745,0.131244146 7.52624132,0.203018007 L9.46912492,4.1397604 C9.52214931,4.24746164 9.62485298,4.32210568 9.74366281,4.33929192 L14.0882069,4.96992805 C14.2253965,4.98985039 14.3393706,5.08594812 14.3821873,5.21779888 C14.425004,5.34964963 14.3892338,5.49437476 14.289923,5.59109735 L11.1462092,8.65543549 C11.0602395,8.73912454 11.0210154,8.85979311 11.0413459,8.97803573 L11.7841275,13.3051026 C11.8076325,13.4418024 11.7514277,13.5799831 11.6391778,13.6614648 C11.5269278,13.7429466 11.3781328,13.7535742 11.2554418,13.688873 L7.36967462,11.6462237 C7.26347292,11.5902892 7.13652708,11.5902892 7.03032538,11.6462237 L3.1445582,13.688873 C3.02191936,13.7531579 2.87343195,13.742318 2.76142947,13.6609038 C2.649427,13.5794896 2.59329638,13.4415934 2.6166007,13.3051026 L3.35865407,8.97803573 C3.37898459,8.85979311 3.3397605,8.73912454 3.25379078,8.65543549 L0.110076966,5.59109735 C0.0107661738,5.49437476 -0.0250040174,5.34964963 0.0178126995,5.21779888 C0.0606294164,5.08594812 0.174603515,4.98985039 0.311793141,4.96992805 L4.65633719,4.33929192 C4.77514702,4.32210568 4.87785069,4.24746164 4.93087508,4.1397604 L6.87375868,0.203018007 C6.91650659,0.116367118 6.99194275,0.0502603294 7.08345483,0.019255491 C7.17496691,-0.0117493473 7.27505005,-0.00510954704 7.36166423,0.0377126938 Z" id="形状"></path>
            </g>
            <rect id="矩形备份-30" x="0" y="0" width="16" height="16"></rect>
        </g>
    </g>
</svg>