<?xml version="1.0" encoding="UTF-8"?>
<svg width="16px" height="16px" viewBox="0 0 16 16" version="1.1" xmlns="http://www.w3.org/2000/svg" xmlns:xlink="http://www.w3.org/1999/xlink">
    <title>front-share</title>
    <g id="切图" stroke="none" stroke-width="1" fill="none" fill-rule="evenodd">
        <g id="front-share" transform="translate(1.6, 3.2)" fill="#231815" fill-rule="nonzero">
            <g id="分享">
                <path d="M13.513442,5.01887257 L7.63378172,0.0599674373 C7.47085138,-0.0769614355 7.22114292,0.0357015611 7.22114292,0.245428063 L7.22114292,3.15386665 C7.22114292,3.28386242 7.11665498,3.39305886 6.98383133,3.39825869 C3.58000392,3.5178548 0.718097006,5.93577603 0.115963126,9.25153469 L0.00439125984,9.86684798 C-0.0398832902,10.1060402 0.26118365,10.255102 0.432968904,10.0783078 L0.872172441,9.62418921 C2.4607433,7.97930946 4.66738687,7.05547289 6.97143445,7.06413928 C7.10957105,7.06413928 7.2229139,7.17333572 7.2229139,7.30853131 L7.2229139,10.1545719 C7.2229139,10.3642984 7.47439334,10.4769614 7.6355527,10.3400326 L13.5152129,5.38979382 C13.6285558,5.29099704 13.6285558,5.11593607 13.513442,5.01887257 L13.513442,5.01887257 Z M1.4176349,7.99317568 C2.40938482,5.75898179 4.66915785,4.25449747 7.25124961,4.25449747 L7.85338349,4.25449747 C7.99152009,4.25449747 8.10309195,4.14530102 8.10309195,4.01010543 L8.10309195,1.59565075 L12.3800135,5.20433319 L8.10309195,8.80434925 L8.10309195,6.45055926 C8.10309195,6.31536367 7.99152009,6.20616722 7.85338349,6.20616722 L7.30615005,6.20616722 C5.1756587,6.12296993 3.1000678,6.76428238 1.4176349,7.99317568 Z" id="形状"></path>
            </g>
        </g>
    </g>
</svg>