<?xml version="1.0" encoding="UTF-8"?>
<svg width="16px" height="16px" viewBox="0 0 16 16" version="1.1" xmlns="http://www.w3.org/2000/svg" xmlns:xlink="http://www.w3.org/1999/xlink">
    <title>front-dislike</title>
    <g id="切图" stroke="none" stroke-width="1" fill="none" fill-rule="evenodd">
        <g id="编组-9">
            <g id="赞备份" transform="translate(8.0096, 8.5) scale(-1, -1) translate(-8.0096, -8.5)translate(1.5, 2)" fill="#000000" fill-rule="nonzero">
                <path d="M11.1428571,4.36428571 L9.00714286,4.36428571 C9.00714286,4.36428571 9.28571429,3.43571429 9.47142857,1.76428571 C9.56428571,0.928571429 8.91428571,0.0928571429 7.98571429,0 L7.8,0 C7.05714286,0 6.59285714,0.464285714 6.31428571,1.11428571 L5.75714286,2.50714286 C5.29285714,3.43571429 4.92142857,3.99285714 4.64285714,4.17857143 C4.27142857,4.36428571 2.87857143,4.36428571 2.78571429,4.36428571 L0.928571429,4.36428571 C0.371428571,4.36428571 0,4.73571429 0,5.2 L0,12.1642857 C0,12.6285714 0.371428571,13 0.928571429,13 L10.3071429,13 C11.7,13 12.0714286,12.0714286 12.2571429,10.7714286 L13,6.31428571 C13.0928571,5.29285714 12.9071429,4.36428571 11.1428571,4.36428571 Z M2.78571429,12.1642857 L0.928571429,12.1642857 L0.928571429,5.2 L2.78571429,5.2 L2.78571429,12.1642857 L2.78571429,12.1642857 Z M12.0714286,6.22142857 L11.3285714,10.6785714 C11.1428571,11.5142857 11.1428571,12.1642857 10.2142857,12.1642857 L3.71428571,12.1642857 L3.71428571,5.2 C4.36428571,5.2 4.73571429,5.10714286 5.01428571,4.92142857 C5.47857143,4.73571429 5.94285714,3.99285714 6.59285714,2.78571429 C6.96428571,1.85714286 7.15,1.39285714 7.24285714,1.3 C7.33571429,1.02142857 7.52142857,0.835714286 7.89285714,0.835714286 L7.98571429,0.835714286 C8.45,0.835714286 8.63571429,1.3 8.63571429,1.57857143 C8.45,3.06428571 8.17142857,3.99285714 8.17142857,3.99285714 L7.8,5.2 L11.3285714,5.2 C11.6071429,5.2 11.7928571,5.2 11.9785714,5.38571429 C12.1642857,5.57142857 12.0714286,5.94285714 12.0714286,6.22142857 L12.0714286,6.22142857 Z" id="形状"></path>
            </g>
            <rect id="矩形备份-5" x="0" y="0" width="16" height="16"></rect>
        </g>
    </g>
</svg>