<?xml version="1.0" encoding="UTF-8"?>
<svg width="16px" height="16px" viewBox="0 0 16 16" version="1.1" xmlns="http://www.w3.org/2000/svg" xmlns:xlink="http://www.w3.org/1999/xlink">
    <title>front-ai</title>
    <defs>
        <polygon id="path-1" points="0 0 14.4 0 14.4 8 0 8"></polygon>
        <polygon id="path-3" points="0 0 14.4 0 14.4 8 0 8"></polygon>
    </defs>
    <g id="切图" stroke="none" stroke-width="1" fill="none" fill-rule="evenodd">
        <g id="编组" transform="translate(0.4, 0.4)">
            <g transform="translate(0, 7.2)">
                <mask id="mask-2" fill="white">
                    <use xlink:href="#path-1"></use>
                </mask>
                <g id="Clip-2"></g>
                <path d="M13.6027307,3.46744542 C13.6027307,3.7117508 13.4642909,3.92846614 13.2446811,4.06374635 L7.93616635,7.07684606 C7.71745843,7.21257127 7.43967682,7.21257127 7.22141985,7.07684606 L1.9124542,4.06374635 C1.69149156,3.94537616 1.55440453,3.71620081 1.55575737,3.46744542 L1.55575737,2.12799332 C1.95980334,1.96067306 2.24344722,1.56684745 2.24344722,1.10716173 C2.24344722,0.495730775 1.74109542,0 1.12194908,0 C0.502351799,0 0,0.495730775 0,1.10716173 C0,1.58242247 0.304838255,1.9842581 0.730529546,2.14134335 L0.730529546,3.46655542 C0.730529546,4.00901126 1.03266214,4.49762203 1.49984029,4.76951745 L6.80880594,7.8084272 L6.80880594,7.8106522 C7.05637428,7.94593242 7.30394263,8.0002225 7.57901857,8.0002225 C7.82658692,8.0002225 8.10121191,7.91834237 8.34878026,7.78306216 L13.6293364,4.77040745 C14.1023769,4.50162703 14.3959415,4.00589626 14.4,3.46744542 L14.4,2.32735364 L13.6027307,2.32735364 L13.6027307,3.46744542 Z" id="Fill-1" fill="#ffffff" mask="url(#mask-2)"></path>
            </g>
            <path d="M3.9235623,7.95729137 C3.9235623,6.71919078 4.93578205,5.69418376 6.15095739,5.69418376 C7.40621221,5.69418376 8.37792611,6.71919078 8.37792611,7.95729137 L8.37792611,8.1708345 L9.18932214,8.18522057 L9.18932214,7.97167744 C9.18932214,7.45962349 9.10831045,6.9898286 8.90578122,6.56274234 C8.78426369,6.26378196 8.57747069,6.00797977 8.37536784,5.75172801 C8.53739122,5.70901939 8.90450209,5.69418376 9.06652547,5.69418376 C10.0787452,5.69418376 10.9698738,6.4202304 11.2129089,7.40207924 C11.4960234,8.64062939 10.9715793,10.0401236 9.63957658,10.3134588 C9.47584769,10.3467266 9.27502398,10.3988761 9.07249475,10.3988761 C8.62735684,10.3988761 8.0078306,10.3170554 7.72258417,10.032481 L7.59978751,9.92413599 C7.39768466,9.7101433 7.09282488,9.16886766 7.06638949,8.80516999 L6.29677843,8.82584996 C6.30573236,9.45973588 6.6638893,10.0257376 6.90649799,10.2819893 C6.74490099,10.3246979 6.57818746,10.4200056 6.26181549,10.3943804 C4.95582178,10.2891824 3.9235623,9.4619837 3.9235623,7.95729137 M7.60788868,10.8740657 C8.03298686,11.0777185 8.49688538,11.2 8.96121027,11.2 C9.19315953,11.2 9.46390913,11.1595392 9.73423234,11.0777185 C10.1209566,10.9554369 10.5076808,10.7926946 10.8168043,10.5072211 C11.1263543,10.2622085 11.3971039,9.93627423 11.5902528,9.56942962 C12.0157774,8.83574038 12.0929516,7.9797696 11.8998027,7.16425962 C11.7450278,6.47103119 11.3583035,5.85962349 10.8168043,5.4518685 C10.3145319,5.04456308 9.65705805,4.8 8.99958423,4.8 C8.72926101,4.8 8.05174746,4.855746 7.60788868,5.16639505 C7.18236412,4.96274234 6.7184656,4.8404608 6.25456708,4.8404608 C5.44274467,4.8404608 4.66929623,5.16639505 4.08942308,5.77825232 C3.50954993,6.38966002 3.2,7.16425962 3.2,8.0202304 C3.2,8.87620118 3.50954993,9.65125035 4.08942308,10.2622085 C4.66929623,10.8740657 5.44274467,11.2 6.25456708,11.2 C6.7184656,11.2 7.18236412,11.0777185 7.60788868,10.8740657" id="Fill-3" fill="#ffffff"></path>
            <g transform="translate(0.8, 0)">
                <mask id="mask-4" fill="white">
                    <use xlink:href="#path-3"></use>
                </mask>
                <g id="Clip-6"></g>
                <path d="M13.7309685,5.80430695 L13.7309685,4.6850064 C13.7309685,4.12258786 13.427192,3.61599594 12.9584178,3.33409461 L7.63690472,0.210572453 C7.15908962,-0.0704061271 6.57097473,-0.0704061271 6.09315963,0.210572453 L0.771646523,3.33409461 C0.302872391,3.61599594 0,4.12258786 0,4.6850064 L0,5.75493962 L0.82724847,5.75493962 L0.82724847,4.6850064 C0.83267305,4.42940355 0.968287553,4.19502405 1.18527076,4.06676125 L6.50678386,0.943239097 C6.72557526,0.802057741 7.00448909,0.802057741 7.22328049,0.943239097 L12.5172186,4.09398249 C12.7382703,4.20701985 12.876145,4.46031581 12.876145,4.71361177 L12.876145,5.78262224 C12.4530278,5.94733382 12.1510595,6.3625731 12.1510595,6.85209407 C12.1510595,7.48602604 12.6546413,8 13.2757558,8 C13.8968702,8 14.4,7.48602604 14.4,6.85209407 C14.4,6.38379644 14.1247026,5.98285985 13.7309685,5.80430695" id="Fill-5" fill="#ffffff" mask="url(#mask-4)"></path>
            </g>
        </g>
    </g>
</svg>