<?xml version="1.0" encoding="UTF-8"?>
<svg width="16px" height="16px" viewBox="0 0 16 16" version="1.1" xmlns="http://www.w3.org/2000/svg" xmlns:xlink="http://www.w3.org/1999/xlink">
    <title>front-code</title>
    <g id="切图" stroke="none" stroke-width="1" fill="none" fill-rule="evenodd">
        <g id="front-code" transform="translate(0.8, 3.936)" fill="#000000" fill-rule="nonzero">
            <g id="代码">
                <path d="M4.07983035,0.00647067425 L0.154266523,3.82577205 C-0.0514221743,4.03146075 -0.0514221743,4.33999381 0.154266523,4.54568251 L3.89428055,8.56405858 L4.61419101,7.84414812 L1.28555439,4.23714946 L4.79051699,0.826316295 L4.07983035,0.00647067425 Z M8.2789703,0.22621974 C8.0732816,0.22621974 7.76474854,0.329064095 7.66190419,0.637597148 L5.81070586,7.63101307 C5.70786151,7.93954612 5.91355022,8.14523483 6.22208327,8.24807917 C6.53061632,8.35092352 6.73630503,8.14523482 6.83914938,7.83670177 L8.69034771,0.843285846 C8.79319206,0.637597148 8.58750335,0.329064081 8.2789703,0.22621974 L8.2789703,0.22621974 Z M14.346787,3.82577205 L10.4709343,0 L9.75102386,0.719910462 L13.2154992,4.23714946 L9.64924887,7.79272595 L10.3104532,8.56405858 L14.2439427,4.64852687 C14.4496314,4.44283817 14.4496314,4.03146076 14.346787,3.82577205 Z" id="形状"></path>
            </g>
        </g>
    </g>
</svg>