<?xml version="1.0" encoding="UTF-8"?>
<svg width="16px" height="16px" viewBox="0 0 16 16" version="1.1" xmlns="http://www.w3.org/2000/svg" xmlns:xlink="http://www.w3.org/1999/xlink">
    <title>front-document</title>
    <g id="切图" stroke="none" stroke-width="1" fill="none" fill-rule="evenodd">
        <g id="front-document" transform="translate(1.6, 0.8)" fill="#000000" fill-rule="nonzero">
            <g id="front-annex">
                <path d="M10.0598266,3.47788335 L9.38196074,2.78846996 L2.55027496,9.74740511 C2.28010423,10.0219417 2.12827466,10.3946507 2.12827466,10.7833252 C2.12827466,11.1719997 2.28010423,11.5447087 2.55027496,11.8192453 C3.11295438,12.3910665 4.02375465,12.3918713 4.58740765,11.8210454 L12.0960755,4.17089681 C12.5467213,3.71328764 12.8,3.09184858 12.8,2.44376327 C12.8,1.79567796 12.5467213,1.1742389 12.0960755,0.716629726 C11.6467592,0.258289352 11.0370425,0.00050711474 10.4010762,0 C9.76511005,-0.000505619934 9.15499821,0.256305368 8.70497868,0.713929676 L0.989504307,8.57198227 C0.985969156,8.5737823 0.98420158,8.57738237 0.980666415,8.58098245 C0.352789316,9.21976421 0,10.0865134 0,10.9903292 C0,11.8941451 0.352789316,12.7608943 0.980666415,13.399676 C1.60777012,14.0400766 2.45935588,14.4 3.34745226,14.4 C4.23554864,14.4 5.08713439,14.0400766 5.7142381,13.399676 L5.72307598,13.3906758 L5.72307598,13.3915759 L12.0801673,6.91775015 L11.4005339,6.22653673 L5.04609393,12.6976624 C4.44587519,13.324662 3.56091184,13.5744824 2.72936707,13.3516621 C1.8978223,13.1288418 1.24820612,12.4678163 1.0287506,11.6211772 C0.809295085,10.7745382 1.0539157,9.87312842 1.66913773,9.26139566 L1.66825395,9.2631957 L9.38372832,1.4060431 C9.95091171,0.864098916 10.8381126,0.878482131 11.388069,1.43853728 C11.9380254,1.99859243 11.9521492,2.90208488 11.4199772,3.47968338 L3.90865801,11.1298319 C3.71955012,11.3098727 3.42430042,11.304717 3.24136504,11.1181795 C3.05842966,10.931642 3.0537516,10.6309642 3.23079216,10.4386185 L10.0607104,3.47788335 L10.0598266,3.47788335 Z" id="路径"></path>
            </g>
        </g>
    </g>
</svg>