<?xml version="1.0" encoding="UTF-8"?>
<svg width="16px" height="16px" viewBox="0 0 16 16" version="1.1" xmlns="http://www.w3.org/2000/svg" xmlns:xlink="http://www.w3.org/1999/xlink">
    <title>front-volume</title>
    <g id="切图" stroke="none" stroke-width="1" fill="none" fill-rule="evenodd">
        <g id="编组-4">
            <rect id="矩形" x="0" y="0" width="16" height="16"></rect>
            <g id="音量" transform="translate(0.5, 0.5)" fill="#231F20" fill-rule="nonzero">
                <path d="M0,3.43328698 L0,11.5367874 L3.7524938,11.5367874 L9.24974306,15 L9.24974306,0 L3.85405961,3.43328698 L0,3.43328698 Z M8.161538,1.9823469 L8.161538,13.0285352 L4.0662596,10.4485823 L1.08820507,10.4485823 L1.08820507,4.52149205 L4.17145275,4.52149205 L8.161538,1.9823469 Z M11.058884,4.55595188 L10.2898857,5.32495012 C11.5447929,6.58117302 11.5447929,8.61651757 10.2898857,9.87274046 L11.058884,10.6426455 C11.8660521,9.83551166 12.3195174,8.74078263 12.3195174,7.59929871 C12.3195174,6.4578148 11.8660521,5.36308576 11.058884,4.55595188 Z" id="形状"></path>
                <path d="M12.180642,4.02545191 C14.1510278,6.00028421 14.1510278,9.19740638 12.180642,11.1722387 L12.9496403,11.9421438 C15.3444624,9.54213976 15.3444624,5.65645767 12.9496403,3.25645366 L12.180642,4.02545191 Z" id="路径"></path>
            </g>
        </g>
    </g>
</svg>