<?xml version="1.0" encoding="UTF-8"?>
<svg width="16px" height="16px" viewBox="0 0 16 16" version="1.1" xmlns="http://www.w3.org/2000/svg" xmlns:xlink="http://www.w3.org/1999/xlink">
    <title>front-llama</title>
    <g id="切图" stroke="none" stroke-width="1" fill="none" fill-rule="evenodd">
        <g id="front-llama" transform="translate(2.8, 1.6)" fill="#000000" fill-rule="nonzero">
            <g id="ollama" transform="translate(0, 0)">
                <path d="M8.27352517,0.016795716 C8.68671884,0.21089856 8.92509981,0.584151325 9.08813638,0.997754184 C9.25849017,1.51448667 9.31142561,2.02962113 9.31325491,2.57078055 L9.31365506,2.69736688 C9.31171143,2.91595373 9.29033145,3.11176875 9.23819634,3.32344987 C9.21441541,3.43947782 9.21441541,3.43947782 9.24534205,3.5552775 C9.37470803,3.71644964 9.51659329,3.85045537 9.66962587,3.98931225 C10.1665673,4.45011389 10.3548139,5.14605336 10.3975739,5.80449634 C10.4152952,6.31723376 10.3382931,6.83624915 10.0885361,7.28997382 C9.95333925,7.56466273 10.0101048,7.72201102 10.0992833,8.00691589 L10.1599932,8.17813274 C10.4284434,8.93491128 10.4183822,9.81508007 10.1599932,10.5751688 C10.1053278,10.6852251 10.0493394,10.7946216 9.99204042,10.9033345 C9.88759869,11.1117054 9.88759869,11.1117054 9.9027476,11.3360565 C9.94386013,11.4221434 9.98770941,11.5069007 10.0342287,11.5901994 C10.233051,11.9567176 10.2277918,12.3796804 10.2314504,12.7867199 L10.233051,12.9114799 C10.2314504,13.1778934 10.1905197,13.3372392 10.1028275,13.6 L9.24534205,13.6 L9.30250775,13.200494 C9.33594968,12.5706442 9.31051094,12.0383881 9.00238783,11.4775958 C8.88451216,11.2509618 8.88359751,11.1101644 8.95951356,10.8605302 C9.00281256,10.7867924 9.04808502,10.7142274 9.0952821,10.6429136 C9.4497666,10.1033522 9.48480918,9.49176557 9.41683914,8.86300019 C9.34360988,8.52884195 9.22047497,8.23263678 9.05955353,7.93197997 C8.94865206,7.71721695 8.91583896,7.56620368 8.95951356,7.32204844 C9.03783057,7.20299565 9.12506543,7.09501489 9.2147584,6.98429465 C9.51144839,6.58256282 9.52516815,6.09117044 9.47400486,5.60987983 C9.34063728,5.0396706 9.05229349,4.52699026 8.56181179,4.1953432 C8.20761312,3.98508889 7.96334409,3.95278598 7.55535249,3.95118796 C7.17079883,3.93406627 7.17079883,3.93406627 6.99598612,3.77757406 C6.89754679,3.63118365 6.81294155,3.48256741 6.73005128,3.32698836 C6.32286,2.85791124 5.8052246,2.62899428 5.19372312,2.56005096 C4.68214727,2.58390717 4.17926062,2.79986871 3.81460062,3.15577149 C3.64979191,3.34656414 3.50521986,3.53644364 3.40283608,3.76752933 C3.30010932,3.89771123 3.30010932,3.89771123 3.10740376,3.92601908 C3.02991596,3.9257003 2.9524334,3.92459684 2.87496803,3.92270889 C2.29725147,3.93520772 1.8557036,4.11344447 1.44582553,4.53264041 C1.07996506,4.98602266 0.870567107,5.53876777 0.899149948,6.12353042 C0.969578084,6.58353304 1.0932275,6.91569376 1.39934982,7.26497616 C1.50041878,7.42649073 1.48567002,7.53258812 1.47080694,7.72155444 C1.39980714,7.9032726 1.39980714,7.9032726 1.30645556,8.08898583 C0.973522536,8.75616087 0.883829544,9.48931147 1.10991988,10.2077945 C1.18755091,10.4117708 1.27981634,10.5843574 1.4028941,10.7642493 C1.50716434,10.9214264 1.52768682,10.9666847 1.53511836,11.1637553 C1.46137461,11.4049999 1.36264945,11.6247852 1.251062,11.8508486 C1.12335383,12.1428874 1.11889491,12.4219139 1.12066704,12.7367817 L1.11998106,12.854693 L1.12020971,12.9717483 L1.12043837,13.0758481 C1.13084252,13.2515737 1.1600542,13.4257012 1.18497845,13.6 L0.327492968,13.6 C0.23185475,13.3134971 0.191095607,13.1014736 0.19172443,12.808122 L0.19172443,12.6813645 C0.201042446,12.2241013 0.267468985,11.64984 0.516425593,11.2562695 C0.572733811,11.1368172 0.572733811,11.1368172 0.496303273,10.9813523 L0.398950079,10.7963239 C-0.0473425289,9.87871568 0.0175977067,8.90175227 0.327492968,7.9498436 L0.441824364,7.72155444 C0.428962079,7.4905829 0.326349657,7.31188956 0.215162363,7.11401996 C-0.0826709324,6.43754214 -0.0539737554,5.54795641 0.194868532,4.86348846 C0.385516146,4.44218084 0.611892315,4.11412933 0.956315661,3.80496876 C1.12706961,3.6500175 1.12706961,3.6500175 1.20487212,3.44335875 C1.18989471,3.32436303 1.18989471,3.32436303 1.15931106,3.19880399 C0.99804662,2.39374232 1.12266783,1.30446064 1.52797264,0.587518572 C1.88440078,0.0952700991 2.24608816,-0.124743563 2.85353088,0.0774064794 C3.39260343,0.448205128 3.61166238,1.04797778 3.74245751,1.66989451 C3.75983588,1.80464218 3.76000738,1.93568014 3.75743492,2.07139804 L3.90149249,2.01095848 L4.08973913,1.9322558 L4.2766138,1.85406677 C4.89617565,1.60146483 5.69649544,1.65499864 6.31205569,1.89618611 C6.43358996,1.95234524 6.55375227,2.01033069 6.67288558,2.07139804 L6.6773445,1.97060839 C6.72490637,1.28431414 6.9420217,0.636258326 7.45536967,0.159476422 C7.71558794,-0.00905803511 7.97237626,-0.0188744721 8.27352517,0.016795716 Z M6.05931859,4.95466493 C6.50322032,5.1968248 6.84646555,5.53713423 7.02791809,6.03841541 C7.13333911,6.4311217 7.09753006,6.78153237 6.9432603,7.15360402 C6.72529657,7.57493951 6.38741769,7.77037435 5.97471095,7.92902336 C5.74095672,7.9996885 5.50078886,7.99579651 5.25985669,7.99635816 C5.24367688,7.9971681 5.22382621,7.99847709 5.20073126,8 L5.16,7.997 L5.07697726,7.99994817 C4.55177797,8.00318922 4.0721675,7.85474948 3.6815781,7.46463603 C3.43924016,7.18304348 3.31275499,6.88600196 3.29780948,6.50096615 C3.3184724,6.01961737 3.47660393,5.70150909 3.7838395,5.35266491 C4.38266299,4.79877081 5.32071948,4.65168151 6.05931859,4.95466493 Z M3.96860212,5.98439805 C3.83018062,6.19906307 3.78664805,6.42328918 3.8298797,6.68365291 C3.9184494,6.9395872 4.0971937,7.14593356 4.31184735,7.28799923 C4.51412206,7.38641153 4.74773774,7.44504193 4.98760804,7.46618956 L4.98935368,7.20860075 L4.8014625,7.03514339 C4.79944268,6.86168602 4.79958359,6.68822866 4.8014625,6.51477127 C4.89226091,6.34712473 5.05394127,6.41295178 5.17433254,6.41173761 L5.35470807,6.408095 C5.50605441,6.42804259 5.50605441,6.42804259 5.6,6.60149995 C5.58388833,7.06714626 5.58388833,7.06714626 5.47960872,7.25196508 C5.42279921,7.34192187 5.40450212,7.37089496 5.40185796,7.46385668 C5.59967734,7.44849416 5.79146958,7.40631058 5.96352689,7.34072018 C6.2225657,7.20151742 6.4206188,7.01769631 6.55457671,6.74064122 C6.5911882,6.47055438 6.56395527,6.27674005 6.44489272,6.03501233 C6.21027829,5.72252185 5.95138995,5.46728977 5.57348919,5.39020698 C4.90680908,5.32581827 4.42449036,5.43936279 3.96860212,5.98439805 Z M3.17869677,4.94796677 C3.26646404,5.0120854 3.26646404,5.0120854 3.36676948,5.1741375 C3.40052226,5.44692522 3.39530637,5.60044259 3.23822806,5.82234594 C3.11073984,5.96484376 3.07473018,5.98293959 2.88404954,6.01480982 C2.7340929,5.98785516 2.63729815,5.9696513 2.51417321,5.87636331 C2.39009539,5.67595887 2.38648439,5.51450094 2.41386778,5.28217224 C2.47731096,5.12498169 2.52696216,5.04125477 2.65525282,4.94116058 C2.83841055,4.87914865 2.99774574,4.87752812 3.17869677,4.94796677 Z M7.7394849,4.9412146 C7.89144764,5.05972871 7.9662755,5.18737175 7.99706927,5.38831638 C8.0067989,5.58207668 7.9975708,5.69081365 7.88678344,5.84595153 C7.69479882,5.99801043 7.56831367,6.01880711 7.32883442,5.98439805 C7.16333044,5.85702508 7.05068744,5.70728894 7.00223989,5.4925699 C6.99266072,5.30226671 7.01407594,5.19352974 7.12195445,5.04244315 C7.32266564,4.88352405 7.49799955,4.85943229 7.7394849,4.9412146 Z M2.38545814,0.872880016 L2.2496896,1.12616683 L2.17331622,1.26861925 C1.99038599,1.70293936 1.969692,2.12207824 1.97815253,2.58864417 L1.979696,2.75483868 C1.98106799,2.88850198 1.98289728,3.02210821 1.98529824,3.15577149 C2.13661585,3.13979124 2.28781912,3.123012 2.43907957,3.10583324 L2.56981752,3.09225004 C2.68037598,3.07935171 2.79030562,3.06086029 2.89994944,3.04162692 C3.13055588,2.58116771 2.93230522,1.8519551 2.78561803,1.3865306 C2.72079213,1.21862394 2.65213613,1.08438991 2.55695523,0.929952301 L2.38545814,0.872880016 Z M8.04486236,0.872880016 L7.93053097,0.872880016 C7.60325733,1.40245377 7.46474485,1.91804481 7.46605967,2.5422444 L7.46560234,2.75358309 C7.46114342,2.92280242 7.46114342,2.92280242 7.53037108,3.04162692 C7.68506147,3.06879332 7.83540725,3.08956764 7.99129811,3.10583324 L8.12266488,3.12078618 C8.23007924,3.1328855 8.33755075,3.14441411 8.44502226,3.15577149 C8.4881252,1.96084902 8.4881252,1.96084902 8.04486236,0.872880016 Z" id="形状结合"></path>
            </g>
        </g>
    </g>
</svg>