<?xml version="1.0" encoding="UTF-8"?>
<svg width="16px" height="16px" viewBox="0 0 16 16" version="1.1" xmlns="http://www.w3.org/2000/svg" xmlns:xlink="http://www.w3.org/1999/xlink">
    <title>front-more</title>
    <g id="切图" stroke="none" stroke-width="1" fill="none" fill-rule="evenodd">
        <g id="front-more" transform="translate(2.4, 7.2)" fill="#000000" fill-rule="nonzero">
            <g id="操作-(2)">
                <path d="M1.12,0 C1.73855892,0 2.24,0.50144108 2.24,1.12 C2.24,1.73855892 1.73855892,2.24 1.12,2.24 C0.50144108,2.24 0,1.73855892 0,1.12 C0,0.50144108 0.50144108,0 1.12,0 Z M5.6,0 C6.21855892,0 6.72,0.50144108 6.72,1.12 C6.72,1.73855892 6.21855892,2.24 5.6,2.24 C4.98144108,2.24 4.48,1.73855892 4.48,1.12 C4.48,0.50144108 4.98144108,0 5.6,0 Z M10.08,0 C10.6985589,0 11.2,0.50144108 11.2,1.12 C11.2,1.73855892 10.6985589,2.24 10.08,2.24 C9.46144108,2.24 8.96,1.73855892 8.96,1.12 C8.96,0.50144108 9.46144108,0 10.08,0 Z" id="形状"></path>
            </g>
        </g>
    </g>
</svg>