<?xml version="1.0" encoding="UTF-8"?>
<svg width="16px" height="16px" viewBox="0 0 16 16" version="1.1" xmlns="http://www.w3.org/2000/svg" xmlns:xlink="http://www.w3.org/1999/xlink">
    <title>front-match</title>
    <g id="切图" stroke="none" stroke-width="1" fill="none" fill-rule="evenodd">
        <g id="front-match" transform="translate(0.8, 0.8)" fill="#333333" fill-rule="nonzero">
            <g id="匹配">
                <path d="M10.0363636,4.36363636 C9.30909091,3.63636364 8.29090909,3.2 7.2,3.2 C6.10909091,3.2 5.16363636,3.63636364 4.36363636,4.36363636 C3.63636364,5.09090909 3.2,6.10909091 3.2,7.2 C3.2,8.29090909 3.63636364,9.23636364 4.36363636,10.0363636 C5.09090909,10.7636364 6.10909091,11.2 7.2,11.2 C8.29090909,11.2 9.23636364,10.7636364 10.0363636,10.0363636 C10.7636364,9.30909091 11.2,8.29090909 11.2,7.2 C11.2,6.10909091 10.7636364,5.16363636 10.0363636,4.36363636 Z M7.2,10.4 C5.45454545,10.4 4,8.94545455 4,7.2 C4,5.45454545 5.45454545,4 7.2,4 C8.94545455,4 10.4,5.45454545 10.4,7.2 C10.4,8.94545455 8.94545455,10.4 7.2,10.4 Z" id="形状"></path>
                <path d="M7.2,0 C3.24,0 0,3.24 0,7.2 C0,8.856 0.576,10.368 1.512,11.592 L2.088,11.016 C1.368,10.08 0.936,8.928 0.864,7.704 L3.96,7.704 L3.96,6.912 L0.792,6.912 C0.936,3.6 3.6,0.936 6.912,0.792 L6.912,3.744 L7.704,3.744 L7.704,0.792 C10.944,1.08 13.464,3.672 13.608,6.912 L10.584,6.912 L10.584,7.704 L13.608,7.704 C13.392,10.872 10.872,13.32 7.704,13.608 L7.704,10.584 L6.912,10.584 L6.912,13.608 C5.76,13.536 4.608,13.176 3.672,12.6 L3.168,13.176 C4.392,13.968 5.76,14.4 7.2,14.4 C11.16,14.4 14.4,11.16 14.4,7.2 C14.4,3.24 11.16,0 7.2,0 Z" id="路径"></path>
                <path d="M7.2,6 C6.53333333,6 6,6.53333333 6,7.2 C6,7.86666667 6.53333333,8.4 7.2,8.4 C7.86666667,8.4 8.4,7.86666667 8.4,7.2 C8.4,6.53333333 7.86666667,6 7.2,6 Z" id="路径"></path>
            </g>
        </g>
    </g>
</svg>