<?xml version="1.0" encoding="UTF-8"?>
<svg width="16px" height="16px" viewBox="0 0 16 16" version="1.1" xmlns="http://www.w3.org/2000/svg" xmlns:xlink="http://www.w3.org/1999/xlink">
    <title>front-refresh</title>
    <g id="切图" stroke="none" stroke-width="1" fill="none" fill-rule="evenodd">
        <g id="front-refresh" transform="translate(0.8, 0.8)" fill="#000000" fill-rule="nonzero">
            <g id="front-reset">
                <path d="M10.7780485,0.965346768 C13.5773844,2.57165777 14.9669717,5.82828675 14.1834028,8.94611605 C13.3998339,12.0639454 10.6329041,14.2877772 7.40270164,14.3958892 C4.17249914,14.5040011 1.26144056,12.4702064 0.268795056,9.41182537 L0.18372187,9.1292562 L1.11319166,8.87278418 C1.90384454,11.6979076 4.56647299,13.5942314 7.51099915,13.4293023 C10.4555253,13.2643731 12.8871245,11.0827109 13.3536856,8.1871683 C13.8202468,5.2916257 12.1958298,2.46380518 9.45050959,1.39243459 C6.70518943,0.321063992 3.58001861,1.29534157 1.94129767,3.73344481 L4.72337182,3.39418182 L4.84102622,4.34627796 L0.528539777,4.87362043 L0,0.584688292 L0.95933591,0.467701048 L1.27247763,3.00632412 C3.44165293,-0.00341778654 7.5531456,-0.886212051 10.7780485,0.965346768 L10.7780485,0.965346768 Z" id="路径"></path>
            </g>
        </g>
    </g>
</svg>