<?xml version="1.0" encoding="UTF-8"?>
<svg width="16px" height="16px" viewBox="0 0 16 16" version="1.1" xmlns="http://www.w3.org/2000/svg" xmlns:xlink="http://www.w3.org/1999/xlink">
    <title>front-loading</title>
    <g id="切图" stroke="none" stroke-width="1" fill="none" fill-rule="evenodd">
        <g id="front-loading" transform="translate(1.6, 1.6)" fill="#ffffff" fill-rule="nonzero">
            <g id="front-loading-(4)">
                <path d="M9.7792,11.2689778 C9.84567606,11.3810087 9.8641385,11.5151223 9.83040646,11.6409481 C9.79667443,11.766774 9.71360159,11.8736674 9.6,11.9374222 C9.48837204,12.0031454 9.3549926,12.0211843 9.22991678,11.987474 C9.10484097,11.9537637 8.99859185,11.8711405 8.93511111,11.7582222 C8.86805275,11.6470619 8.84850792,11.5136064 8.88087447,11.3878851 C8.91324102,11.2621638 8.99480018,11.1547372 9.1072,11.0897778 C9.34244115,10.9551289 9.64223926,11.0350751 9.7792,11.2689778 L9.7792,11.2689778 Z M6.89422223,12.3107555 C6.87712613,12.5705468 6.6614198,12.7725247 6.40106667,12.7725247 C6.14071353,12.7725247 5.92500721,12.5705468 5.90791111,12.3107555 L5.90791111,11.968 C5.91797885,11.7029203 6.13579588,11.493219 6.40106667,11.493219 C6.66633746,11.493219 6.88415449,11.7029203 6.89422223,11.968 L6.89422223,12.3107555 L6.89422223,12.3107555 Z" id="形状"></path>
                <path d="M3.87484445,11.7582222 C3.81047762,11.8721266 3.70311253,11.9554532 3.57679745,11.9895383 C3.45048238,12.0236233 3.31577377,12.0056181 3.20284445,11.9395556 C3.08827259,11.8760128 3.00428302,11.7688193 2.96999261,11.6423734 C2.9357022,11.5159275 2.9540284,11.3809873 3.0208,11.2682667 L3.38488889,10.6311111 C3.52459521,10.3969156 3.82536426,10.3165213 4.06328889,10.4497778 C4.29368889,10.5863111 4.37902223,10.8906667 4.23893334,11.1217778 L3.87484445,11.7582222 L3.87484445,11.7582222 Z M1.53031111,9.78133334 C1.29451419,9.91562049 0.994546335,9.83467679 0.858311112,9.6 C0.791780701,9.48776443 0.772909839,9.35357941 0.805903808,9.22734742 C0.838897778,9.10111542 0.921014821,8.99332618 1.03395555,8.928 L2.01244445,8.36124445 C2.24834637,8.22778387 2.54770266,8.30856255 2.68444445,8.54257778 C2.81668069,8.77863304 2.73614534,9.07708756 2.50311111,9.21457778 L1.53031111,9.78133334 L1.53031111,9.78133334 Z M0.48924445,6.89066718 C0.35955419,6.89085544 0.235111062,6.83946846 0.143339431,6.74783022 C0.0515678001,6.65619199 0,6.53182373 0,6.40213334 C0,6.12906667 0.216177775,5.90933334 0.48924445,5.90933334 L2.01386666,5.90933334 C2.28622221,5.90933334 2.50312405,6.12977779 2.50312405,6.39786666 C2.5040586,6.52823731 2.45293193,6.65359393 2.3610779,6.7461155 C2.26922387,6.83863707 2.14424075,6.89066718 2.01386666,6.89066718 L0.48924445,6.89066718 Z" id="形状"></path>
                <path d="M1.03466666,3.86844445 C0.920878107,3.8048168 0.837918613,3.69758176 0.804912091,3.57145927 C0.771905569,3.44533678 0.791700356,3.31121073 0.859733338,3.2 C0.923960908,3.08594812 1.03132833,3.00249218 1.15770141,2.9683915 C1.2840745,2.93429083 1.41885016,2.95240658 1.53173334,3.01866666 L3.18862223,3.9808 C3.42328889,4.11448889 3.50008889,4.41315555 3.36995555,4.64497778 C3.23401952,4.879141 2.93480058,4.96005387 2.69937778,4.82631111 L1.03537778,3.86844445 L1.03466666,3.86844445 Z M3.0208,1.52675555 L4.17493334,3.52924445 C4.31502223,3.7632 4.61582223,3.84711111 4.84906666,3.70773334 C4.96151956,3.64213809 5.04324321,3.53448539 5.07619733,3.4085393 C5.10915145,3.28259321 5.09062624,3.14871015 5.02471111,3.03644445 L3.8656,1.03822223 C3.7782049,0.887313237 3.61693951,0.794492313 3.44255094,0.794723764 C3.26816238,0.794956082 3.1071444,0.888205546 3.02015094,1.03934642 C2.93315748,1.19048729 2.9334049,1.37655768 3.0208,1.52746666 L3.0208,1.52675555 Z M5.90933334,0.4928 C5.91199084,0.223122287 6.12892638,0.00461017959 6.39857778,0 C6.67164444,0 6.89564445,0.22115555 6.89564445,0.4928 L6.89564445,2.79893334 C6.89564445,3.07128889 6.6752,3.29173334 6.39857778,3.29528889 C6.26775941,3.29472765 6.1425651,3.2420247 6.0507315,3.14885631 C5.9588979,3.05568792 5.9080069,2.92974618 5.90933334,2.79893334 L5.90933334,0.4928 L5.90933334,0.4928 Z" id="形状"></path>
                <path d="M8.92942223,1.03822223 C9.06514466,0.802877734 9.36573259,0.721766706 9.60142223,0.856888888 C9.71602363,0.920410706 9.79999342,1.02766043 9.8341631,1.15415524 C9.86833277,1.28065004 9.84978562,1.41559237 9.78275555,1.52817778 L8.62577778,3.53066666 C8.48979816,3.76567653 8.18952135,3.8467036 7.95377777,3.712 C7.72040281,3.57291714 7.64082285,3.27291334 7.77457778,3.03644445 L8.92871111,1.03822223 L8.92942223,1.03822223 Z M11.2796444,3.01866666 L9.27288889,4.17422223 C9.03728593,4.3097009 8.95584119,4.61034653 9.09084445,4.84622223 C9.23166676,5.0750506 9.52703518,5.15350295 9.76284445,5.02471111 L11.7703111,3.86915555 C11.88267,3.80438183 11.964456,3.69736101 11.9974487,3.5719352 C12.0304414,3.44650939 12.0119002,3.31309793 11.9459555,3.20142223 C11.88309,3.08731133 11.7767199,3.00349921 11.651069,2.96907245 C11.525418,2.93464569 11.391183,2.95253508 11.2789333,3.01866666 L11.2796444,3.01866666 Z M12.3107556,5.90933334 C12.5859556,5.90933334 12.8035556,6.12977779 12.8,6.40213334 C12.8,6.67093334 12.5866667,6.89066666 12.3107556,6.89066666 L10.0003556,6.89066666 C9.72934733,6.88871801 9.51046178,6.66888078 9.50968889,6.39786666 C9.50968889,6.12906666 9.73368889,5.90933334 10.0003556,5.90933334 L12.3107556,5.90933334 Z" id="形状"></path>
            </g>
        </g>
    </g>
</svg>