<?xml version="1.0" encoding="UTF-8"?>
<svg width="16px" height="16px" viewBox="0 0 16 16" version="1.1" xmlns="http://www.w3.org/2000/svg" xmlns:xlink="http://www.w3.org/1999/xlink">
    <title>front-trash</title>
    <g id="切图" stroke="none" stroke-width="1" fill="none" fill-rule="evenodd">
        <g id="front-recycle">
            <path d="M11,0 L11,2.4 L14.8,2.4 L14.8,3.2 L13.7528,3.2 L13,16 L2.6,16 L1.8472,3.2 L0.8,3.2 L0.8,2.4 L4.6,2.4 L4.6,0 L11,0 Z M12.9512,3.2 L2.648,3.2 L3.3544,15.2 L12.2448,15.2 L12.9512,3.2 Z M5.4,0.8 L5.4,2.4 L10.2,2.4 L10.2,0.8 L5.4,0.8 Z" id="形状" fill="#333333" fill-rule="nonzero"></path>
            <path d="M9.765,8.916 L11.1408492,11.2 L8.662,11.2 L8.66279153,11.5452629 L7.77042458,10.8823645 L8.66279153,10.1641968 L8.662,10.563 L10.0162781,10.563549 L9.206,9.234 L9.765,8.916 Z M6.21512184,8.73405724 L6.35955696,9.82879257 L6.099,9.681 L5.58921051,10.563549 L7.403,10.563 L7.4,11.2 L4.4,11.2 L5.513,9.35 L5.17026672,9.15635959 L6.21512184,8.73405724 Z M7.77042458,5.6 L9.109,7.824 L9.45345306,7.62846909 L9.25703201,8.70046997 L8.21734924,8.33113365 L8.543,8.146 L7.74584846,6.8373909 L6.736,8.582 L6.17,8.259 L7.77042458,5.6 Z" id="形状结合" fill="#333333"></path>
            <rect id="矩形" x="0" y="0" width="16" height="16"></rect>
        </g>
    </g>
</svg>