<?xml version="1.0" encoding="UTF-8"?>
<svg width="16px" height="16px" viewBox="0 0 16 16" version="1.1" xmlns="http://www.w3.org/2000/svg" xmlns:xlink="http://www.w3.org/1999/xlink">
    <title>front-setting</title>
    <g id="切图" stroke="none" stroke-width="1" fill="none" fill-rule="evenodd">
        <g id="front-setting" transform="translate(0.8, 0.8)" fill="#000000" fill-rule="nonzero">
            <g id="front-advanced-setting-(2)">
                <path d="M7.2,4.37184 C5.74153372,4.37263351 4.55918853,5.55433437 4.5576,7.0128 C4.55918853,8.47126563 5.74153372,9.65296649 7.2,9.65376 C8.65790396,9.65217273 9.83937273,8.47070396 9.84096,7.0128 C9.83937273,5.55489604 8.65790396,4.37342727 7.2,4.37184 Z M9.45288,-1.49880108e-16 L9.45288,2.15712 C9.74232,2.29032 10.0188,2.44944 10.27872,2.63304 L12.14496,1.5552 L14.4,5.45688 L12.53304,6.53616 C12.5676,6.87384 12.56544,7.2144 12.52656,7.55136 L14.38128,8.6508 L12.08448,12.52728 L10.22832,11.42712 C9.98352,11.59632 9.72432,11.74392 9.45432,11.86992 L9.45432,14.02632 L4.94712,14.02632 L4.94712,11.86992 C4.65773724,11.7363931 4.38108071,11.5768577 4.12056,11.39328 L2.2536,12.47256 L0,8.57016 L1.86696,7.49016 C1.8327234,7.15250604 1.83489589,6.8121494 1.87344,6.47496 L0.018,5.37552 L2.31552,1.49904 L4.17168,2.5992 C4.41702242,2.43030615 4.67618226,2.28242126 4.9464,2.15712 L4.9464,-1.49880108e-16 L9.45288,-1.49880108e-16 Z M8.54352,0.90936 L5.85648,0.90936 L5.85648,2.76552 L5.56848,2.87928 C5.17707861,3.03418943 4.80977838,3.24414455 4.47768,3.5028 L4.23288,3.6936 L2.63448,2.74608 L1.26504,5.05728 L2.862,6.00336 L2.81448,6.30792 C2.77272,6.57432 2.75256,6.79896 2.75256,7.01352 C2.75472,7.2324 2.77272,7.45056 2.80728,7.66656 L2.85264,7.97256 L1.24272,8.9028 L2.58624,11.2284 L4.194,10.2996 L4.43664,10.494 C4.77926684,10.7664836 5.16046619,10.986565 5.56776,11.14704 L5.85576,11.26152 L5.85576,13.11624 L8.54352,13.11624 L8.54352,11.2608 L8.83152,11.14704 C9.22307578,10.9924519 9.59042019,10.7824716 9.92232,10.52352 L10.1664,10.33344 L11.7648,11.28024 L13.13496,8.96904 L11.53656,8.02224 L11.58552,7.71696 C11.6248313,7.48425735 11.6455368,7.24879212 11.64744,7.0128 C11.64744,6.8148 11.62944,6.60744 11.59272,6.35904 L11.54736,6.05376 L13.15728,5.12352 L11.81376,2.7972 L10.206,3.726 L9.96336,3.53232 C9.62035051,3.26001239 9.2389413,3.03994994 8.83152,2.87928 L8.54352,2.7648 L8.54352,0.90936 Z M7.2,5.28192 C8.15528111,5.28350553 8.92929447,6.05751889 8.93088,7.0128 C8.92969083,7.96836227 8.1555617,8.74281343 7.2,8.7444 C6.24415711,8.74320991 5.46959009,7.96864289 5.4684,7.0128 C5.46959085,6.05707401 6.24427359,5.28271338 7.2,5.28192 Z" id="形状"></path>
            </g>
        </g>
    </g>
</svg>