<?xml version="1.0" encoding="UTF-8"?>
<svg width="16px" height="16px" viewBox="0 0 16 16" version="1.1" xmlns="http://www.w3.org/2000/svg" xmlns:xlink="http://www.w3.org/1999/xlink">
    <title>front-deepseek</title>
    <g id="切图" stroke="none" stroke-width="1" fill="none" fill-rule="evenodd">
        <g id="front-deepseek" transform="translate(0.8, 2.8)" fill="#000000" fill-rule="nonzero">
            <g id="deepseek" transform="translate(0, 0)">
                <path d="M14.2580117,0.883010872 C14.1067692,0.812485671 14.0347489,0.946483553 13.9483246,1.01700875 C13.9195166,1.04521883 13.8907085,1.0663764 13.8691024,1.09458648 C13.6458397,1.33437216 13.3865668,1.48247508 13.0408697,1.46131752 C12.5439301,1.43310744 12.1190107,1.58826288 11.7445055,1.96204645 C11.6652832,1.50363264 11.3988084,1.22858436 10.9954951,1.04521883 C10.7794344,0.953536074 10.5705757,0.861853312 10.4265352,0.657330229 C10.3185049,0.516279827 10.2896968,0.361124385 10.2392826,0.205968943 C10.2104745,0.114286181 10.1744644,0.0155508999 10.0664341,0.00144585973 C9.95120169,-0.0126591805 9.90078752,0.0790235809 9.85037336,0.163653822 C9.66312075,0.495122267 9.59110052,0.868905832 9.59830254,1.2426894 C9.61270659,2.08193929 9.98000978,2.75898122 10.7002121,3.23855259 C10.7794344,3.29497275 10.8010404,3.35139291 10.7794344,3.42897063 C10.7290202,3.59823111 10.671404,3.75338655 10.6209899,3.92264704 C10.5921818,4.02843484 10.5417676,4.05664492 10.4193332,4.00727728 C10.0304239,3.84506932 9.6775248,3.60528363 9.37503982,3.30907779 C8.86369616,2.8224539 8.39556464,2.28646237 7.81940277,1.86331117 C7.68256433,1.76457589 7.54572588,1.67289312 7.40168542,1.58121036 C6.8111195,1.01700875 7.48090767,0.558594948 7.63935219,0.502174787 C7.7977967,0.445754626 7.69696837,0.248284063 7.17122067,0.255336583 C6.64547296,0.255336583 6.17013942,0.431649586 5.55796744,0.657330229 C5.46434113,0.69259283 5.37791685,0.72080291 5.27708853,0.73490795 C4.70812868,0.629120149 4.12476479,0.607962589 3.54860292,0.67848779 C2.41788525,0.812485671 1.51043031,1.34142468 0.84784416,2.23004221 C0.0484195669,3.30907779 -0.13883304,4.52916377 0.0916317071,5.8056699 C0.336500501,7.14564872 1.02789474,8.2599469 2.10819825,9.12740687 C3.22451187,10.0301294 4.50647203,10.4744382 5.97568479,10.389808 C6.86873569,10.3404403 7.85541289,10.2205475 8.97172651,9.29666735 C9.25260542,9.43066524 9.54788838,9.4870854 10.037626,9.52940052 C10.4121312,9.56466312 10.7794344,9.50824296 11.0603133,9.45887532 C11.4996367,9.36719256 11.4708286,8.96519891 11.3123841,8.88762119 C10.0232219,8.2952095 10.3041008,8.5420477 10.044828,8.34457714 C10.7074141,7.58290497 11.6940913,6.79302272 12.0757986,4.2259054 C12.1046067,4.02138232 12.0830006,3.89443696 12.0757986,3.73222899 C12.0757986,3.63349371 12.0974046,3.59117859 12.212637,3.58412607 C12.5367281,3.55591599 12.8536171,3.45718071 13.141698,3.30202527 C13.9843348,2.8577165 14.3156278,2.11720189 14.3948501,1.23563688 C14.4092541,1.09458648 14.4020521,0.953536074 14.2580117,0.883010872 Z M6.95515997,8.83120103 C5.7020079,7.86500577 5.09703794,7.54764237 4.8377651,7.56174741 C4.60730035,7.57585245 4.64331047,7.83679569 4.70092666,8.00605618 C4.75134082,8.17531666 4.83056308,8.28815698 4.92418938,8.4362599 C4.98900759,8.53499518 5.03942175,8.68309811 4.85216915,8.79593843 C4.44885584,9.04277663 3.75025957,8.71130819 3.71424946,8.69720315 C2.89321879,8.2246843 2.2162286,7.60406253 1.73369303,6.7507076 C1.26556151,5.94672031 0.99908665,5.04399773 0.95587451,4.11306508 C0.948672487,3.88033192 1.0134907,3.80275419 1.24395544,3.76043907 C1.54644043,3.70401891 1.85612743,3.69696639 2.15861241,3.73928151 C3.43337055,3.92264704 4.5280781,4.47979612 5.43553304,5.36841366 C5.95407872,5.8761951 6.35019001,6.47565931 6.75350331,7.07512352 C7.18562472,7.70279781 7.64655421,8.30226202 8.23712013,8.78888591 C8.4459788,8.96519891 8.61162534,9.09214427 8.77006985,9.19087955 C8.29473631,9.24729971 7.49531172,9.25435223 6.95515997,8.83120103 C6.94795794,8.83120103 6.95515997,8.83120103 6.95515997,8.83120103 Z M7.55292791,5.04399773 C7.55292791,4.94526245 7.63215016,4.86768473 7.73297849,4.86768473 C7.83380682,4.86768473 7.91302907,4.95231497 7.91302907,5.04399773 C7.91302907,5.14273301 7.82660479,5.22736326 7.72577647,5.22031074 C7.63215016,5.22736326 7.55292791,5.14978553 7.55292791,5.04399773 C7.55292791,5.05105025 7.55292791,5.05105025 7.55292791,5.04399773 L7.55292791,5.04399773 Z M9.41825196,5.98198291 C9.30301958,6.03135055 9.18778721,6.06661315 9.06535281,6.07366567 C8.89250425,6.08071819 8.72685771,6.02429803 8.58281725,5.92556275 C8.42437273,5.79156486 8.30193834,5.71398714 8.25152417,5.48125398 C8.2299181,5.36841366 8.23712013,5.24852082 8.2587262,5.13568049 C8.30193834,4.94526245 8.2587262,4.82536961 8.11468573,4.70547677 C7.99945336,4.61379401 7.85541289,4.59263645 7.69696837,4.59263645 C7.64655421,4.59263645 7.58893802,4.57853141 7.54572588,4.55032133 C7.50971577,4.52916377 7.48090767,4.50095368 7.46650363,4.45863856 C7.4593016,4.437481 7.4593016,4.41632344 7.4593016,4.39516588 C7.4593016,4.37400832 7.46650363,4.35285076 7.48090767,4.33874572 C7.50251374,4.31053564 7.57453398,4.2259054 7.59614005,4.21180036 C7.80499872,4.09190752 8.05706954,4.13422264 8.28033227,4.21885288 C8.48919094,4.30348312 8.64763546,4.45863856 8.88530223,4.67726669 C9.11576698,4.93820993 9.15897912,5.01578765 9.29581756,5.21325822 C9.39664589,5.36841366 9.49747421,5.53062162 9.56229242,5.71398714 C9.60550456,5.8409325 9.56229242,5.93261527 9.41825196,5.98198291 Z" id="形状"></path>
            </g>
        </g>
    </g>
</svg>