<?xml version="1.0" encoding="UTF-8"?>
<svg width="16px" height="16px" viewBox="0 0 16 16" version="1.1" xmlns="http://www.w3.org/2000/svg" xmlns:xlink="http://www.w3.org/1999/xlink">
    <title>front-background</title>
    <g id="切图" stroke="none" stroke-width="1" fill="none" fill-rule="evenodd">
        <g id="front-background" transform="translate(1.2, 1.6)" fill="#000000" fill-rule="nonzero">
            <g id="terminal-box-line">
                <path d="M0.693333325,0 L13.1733331,0 C13.5562505,0 13.8666664,0.310415911 13.8666664,0.693333343 L13.8666664,11.7866667 C13.8666664,12.1695842 13.5562505,12.4800001 13.1733331,12.4800001 L0.693333325,12.4800001 C0.310415903,12.4800001 0,12.1695842 0,11.7866667 L0,0.693333343 C0,0.310415911 0.310415903,0 0.693333325,0 Z M1.11626112,1.08239764 L1.11626112,11.39562 L12.7016936,11.39562 L12.7016936,1.08239764 L1.11626112,1.08239764 Z M6.9333332,8.32000005 L11.0933331,8.32000005 L11.0933331,9.49768667 L6.9333332,9.49768667 L6.9333332,8.32000005 Z M4.62245325,6.24000004 L2.66101329,4.27925336 L3.64207993,3.29818668 L6.58319987,6.24000004 L3.64207993,9.18181339 L2.66101329,8.20074671 L4.62245325,6.24000004 Z" id="形状"></path>
            </g>
        </g>
    </g>
</svg>