<?xml version="1.0" encoding="UTF-8"?>
<svg width="16px" height="16px" viewBox="0 0 16 16" version="1.1" xmlns="http://www.w3.org/2000/svg" xmlns:xlink="http://www.w3.org/1999/xlink">
    <title>front-branch</title>
    <g id="切图" stroke="none" stroke-width="1" fill="none" fill-rule="evenodd">
        <g id="编组-7">
            <g id="分支" transform="translate(3.5, 1)" fill="#000000" fill-rule="nonzero">
                <path d="M8.1875,2 C6.98125,2 6,2.98125 6,4.1875 C6,5.23125 6.740625,6.121875 7.746875,6.328125 C7.709375,6.925 7.425,7.24375 6.903125,7.646875 C6.265625,8.1375 5.44375,8.271875 4.8625,8.378125 C3.590625,8.609375 2.896875,9.221875 2.596875,9.628125 L2.596875,4.3375 C3.065625,4.25 3.49375,4.009375 3.815625,3.653125 C4.178125,3.25 4.378125,2.73125 4.378125,2.1875 C4.378125,0.98125 3.396875,0 2.190625,0 C0.984375,0 0.003125,0.98125 0.003125,2.1875 C0.003125,2.71875 0.196875,3.228125 0.54375,3.628125 C0.853125,3.98125 1.265625,4.225 1.721875,4.325 L1.721875,9.6796875 C1.26875,9.7796875 0.853125,10.0234375 0.54375,10.3765625 C0.19375,10.7734375 0,11.2828125 0,11.8140625 C0,13.0203125 0.98125,14.0015625 2.1875,14.0015625 C3.39375,14.0015625 4.375,13.0203125 4.375,11.8140625 C4.375,11.0828125 4.0125,10.4109375 3.415625,10.0046875 C3.684375,9.7015625 4.18125,9.3921875 5.0125,9.2421875 C5.6875,9.1203125 6.65625,8.9421875 7.43125,8.3421875 C8.16875,7.7734375 8.578125,7.2015625 8.61875,6.3328125 C9.628125,6.1296875 10.3718824,5.2359375 10.3718824,4.1875 C10.375,2.98125 9.39375,2 8.1875,2 Z M0.871875,2.1875 C0.871875,1.4625 1.459375,0.875 2.184375,0.875 C2.909375,0.875 3.496875,1.4625 3.496875,2.1875 C3.496875,2.9125 2.909375,3.5 2.184375,3.5 C1.459375,3.5 0.871875,2.9125 0.871875,2.1875 L0.871875,2.1875 Z M3.4984375,11.815625 C3.4984375,12.540625 2.9109375,13.128125 2.1859375,13.128125 C1.4609375,13.128125 0.8734375,12.540625 0.8734375,11.815625 C0.8734375,11.090625 1.4609375,10.503125 2.1859375,10.503125 C2.9109375,10.503125 3.4984375,11.090625 3.4984375,11.815625 Z M8.1875,5.5015625 C7.4625,5.5015625 6.875,4.9140625 6.875,4.1890625 C6.875,3.4640625 7.4625,2.8765625 8.1875,2.8765625 C8.9125,2.8765625 9.5,3.4640625 9.5,4.1890625 C9.5,4.9140625 8.9125,5.5015625 8.1875,5.5015625 Z" id="形状"></path>
            </g>
            <rect id="矩形备份-3" x="0" y="0" width="16" height="16"></rect>
        </g>
    </g>
</svg>