<?xml version="1.0" encoding="UTF-8"?>
<svg width="16px" height="16px" viewBox="0 0 16 16" version="1.1" xmlns="http://www.w3.org/2000/svg" xmlns:xlink="http://www.w3.org/1999/xlink">
    <title>front-record</title>
    <g id="切图" stroke="none" stroke-width="1" fill="none" fill-rule="evenodd">
        <g id="1/图标/录音" transform="translate(3.2, 0.8)" fill="#000000" fill-rule="nonzero">
            <g id="front-record" transform="translate(0, 0)">
                <path d="M2.87129997,2.7956509 L2.87129997,7.09665086 C2.87129997,7.62365086 3.11779997,8.09710085 3.48924997,8.46940085 C3.68559996,8.66575085 4.10634996,8.88590085 4.36049996,8.98450084 C4.58744996,9.07205084 4.85179995,9.08225084 5.09999995,9.08225084 C6.19564994,9.08225084 7.3695056,8.19315085 7.3695056,7.09665086 L7.3695056,2.7965009 C7.37119993,2.26950091 6.99039993,1.73400091 6.61894994,1.36170092 C6.24664994,0.987700922 5.62614995,0.809200923 5.09999995,0.810047902 C4.00434996,0.810047902 2.87129997,1.69830091 2.87129997,2.7956509 Z M5.66694995,12.7015508 L7.64999993,12.7015508 L7.64999993,13.6000008 L2.54999998,13.6000008 L2.54999998,12.7015508 L4.53304996,12.7015508 L4.53304996,11.8719508 C1.90144998,11.6025008 0,9.47750084 0,6.80000087 L0.867849992,6.80000087 C0.867849992,9.04655084 2.81094997,11.0500008 5.09999995,11.0500008 C7.39074993,11.0500008 9.33724991,9.04995084 9.33724991,6.80085087 L10.1999999,6.80085087 C10.1999999,9.48090084 8.29939992,11.6033508 5.66694995,11.8711008 L5.66694995,12.7015508 L5.66694995,12.7015508 Z M5.09999995,4.6514685e-07 C5.92724702,-0.00045126969 6.72070487,0.328145709 7.30541775,0.913336942 C7.89013062,1.49852818 8.21807862,2.29225447 8.21694992,3.1195009 L8.21694992,6.79745087 C8.24336342,7.92838366 7.6551207,8.984898 6.67986936,9.558127 C5.70461802,10.131356 4.49538188,10.131356 3.52013054,9.558127 C2.5448792,8.984898 1.95663648,7.92838366 1.98304998,6.79745087 L1.98304998,3.1195009 C1.982599,2.29246169 2.31076478,1.4991291 2.89533073,0.914084907 C3.47989669,0.329040713 4.27296064,0.000226282488 5.09999995,4.6514685e-07 L5.09999995,4.6514685e-07 Z" id="形状"></path>
            </g>
        </g>
    </g>
</svg>