<?xml version="1.0" encoding="UTF-8"?>
<svg width="16px" height="16px" viewBox="0 0 16 16" version="1.1" xmlns="http://www.w3.org/2000/svg" xmlns:xlink="http://www.w3.org/1999/xlink">
    <title>front-photo</title>
    <g id="切图" stroke="none" stroke-width="1" fill="none" fill-rule="evenodd">
        <g id="front-photo" transform="translate(1.2, 2.4)" fill="#333333" fill-rule="nonzero">
            <g id="图片-(1)">
                <path d="M5.24316197,7.98788798 L4.16769942,6.49989915 C4.02521651,6.3027626 3.7942099,6.30276463 3.65172844,6.49989915 L1.66907723,9.24305635 C1.52659433,9.44019291 1.61160994,9.6 1.85896168,9.6 L5.45982043,9.6 L10.9427298,9.6 C11.1902204,9.6 11.2733429,9.4405424 11.129476,9.24384148 L7.98751132,4.94801443 C7.84269198,4.75001127 7.61039008,4.75131352 7.46652319,4.94801443 L5.24316197,7.98788798 L5.24316197,7.98788798 Z" id="路径"></path>
                <path d="M3.2,3.2 C3.2,3.6418278 3.5581722,4 4,4 C4.4418278,4 4.8,3.6418278 4.8,3.2 C4.8,2.7581722 4.4418278,2.4 4,2.4 C3.5581722,2.4 3.2,2.7581722 3.2,3.2 Z" id="路径"></path>
                <path d="M0.679037119,0.895999992 L12.9209629,0.895999992 C12.7935683,0.895999992 12.6933333,0.795757667 12.6933333,0.672796362 L12.6933333,10.5272036 C12.6933333,10.4039842 12.7940663,10.304 12.9209629,10.304 L0.679037119,10.304 C0.806431654,10.304 0.90666666,10.4042423 0.90666666,10.5272036 L0.90666666,0.672796362 C0.90666666,0.796015752 0.805933735,0.895999992 0.679037119,0.895999992 Z M0,11.2 L13.6,11.2 L13.6,0.672796362 C13.6,0.426454153 13.6,0.202188699 13.6,0 L0,0 L0,11.2 Z" id="形状"></path>
            </g>
        </g>
    </g>
</svg>