<?xml version="1.0" encoding="UTF-8"?>
<svg width="16px" height="16px" viewBox="0 0 16 16" version="1.1" xmlns="http://www.w3.org/2000/svg" xmlns:xlink="http://www.w3.org/1999/xlink">
    <title>front-refresh</title>
    <g id="切图" stroke="none" stroke-width="1" fill="none" fill-rule="evenodd">
        <g id="编组-10">
            <g id="front-refresh备份" transform="translate(1.25, 1.25)" fill="#000000" fill-rule="nonzero">
                <g id="front-reset">
                    <path d="M10.1044205,0.905012595 C12.7287979,2.41092916 14.0315359,5.46401882 13.2969401,8.3869838 C12.5623443,11.3099488 9.96834763,13.3947911 6.94003279,13.4961461 C3.91171795,13.5975011 1.18260052,11.6908185 0.251995365,8.82358628 L0.172239253,8.55867768 L1.04361719,8.31823517 C1.78485426,10.9667883 4.28106843,12.7445919 7.0415617,12.5899709 C9.80205497,12.4353498 12.0816792,10.3900415 12.5190803,7.67547028 C12.9564814,4.96089909 11.4335904,2.30981736 8.85985274,1.30540743 C6.28611509,0.300997492 3.35626745,1.21438273 1.81996656,3.50010451 L4.42816108,3.18204546 L4.53846208,4.07463558 L0.495506041,4.56901916 L0,0.548145274 L0.899377416,0.438469733 L1.19294778,2.81842886 C3.22654962,-0.00320417488 7.081074,-0.830823798 10.1044205,0.905012595 L10.1044205,0.905012595 Z" id="路径"></path>
                </g>
            </g>
            <rect id="矩形备份-6" x="0" y="0" width="16" height="16"></rect>
        </g>
    </g>
</svg>