<?xml version="1.0" encoding="UTF-8"?>
<svg width="16px" height="16px" viewBox="0 0 16 16" version="1.1" xmlns="http://www.w3.org/2000/svg" xmlns:xlink="http://www.w3.org/1999/xlink">
    <title>front-edit</title>
    <g id="切图" stroke="none" stroke-width="1" fill="none" fill-rule="evenodd">
        <g id="front-edit" transform="translate(1.2, 0.8)" fill="#000000" fill-rule="nonzero">
            <g id="LineAnnotation-(1)">
                <path d="M0,8.70781893 L8.26293502,0.488888889 L8.75857873,0 L12.2446337,3.45843621 L11.6596252,4.04032922 L4.06609881,11.5884774 L3.48109029,11.0065844 L9.04239474,5.47407407 L6.75035288,3.15802469 L1.16918958,8.70864198 L0.848965685,9.02716049 L0.930055975,11.3119342 L3.15176442,11.3349794 L3.48274519,11.0098765 L4.06775371,11.5917695 L3.48026284,12.1761317 L0.141494281,12.0962963 L0,8.70781893 Z M11.0713069,3.45679012 L8.75775128,1.16213992 L7.33453395,2.57695473 L9.62740326,4.89300412 L11.0713069,3.45679012 Z M0.360769044,13.5769547 L13.6,13.5769547 L13.6,14.4 L0.360769044,14.4 L0.360769044,13.5769547 Z" id="形状"></path>
            </g>
        </g>
    </g>
</svg>