<?xml version="1.0" standalone="no"?><!DOCTYPE svg PUBLIC "-//W3C//DTD SVG 1.1//EN" "http://www.w3.org/Graphics/SVG/1.1/DTD/svg11.dtd"><svg t="1761637776003" class="icon" viewBox="0 0 1024 1024" version="1.1" xmlns="http://www.w3.org/2000/svg" p-id="31822" xmlns:xlink="http://www.w3.org/1999/xlink" width="200" height="200"><path d="M729.6 0l230.336 230.336L960 230.4l25.6 25.6v768H166.4v-192H0V384h896v448H217.536l0.064 140.8h716.8V281.6h-256V51.136L217.6 51.2V384h-51.2V0h563.2z m116.672 431.744H51.84v352.448h794.432V431.744z m-251.968 48V736h-37.312v-19.392c-12.672 16.256-30.976 24.32-54.912 24.32-27.136 0-48.256-9.536-63.36-28.48-14.08-17.6-21.12-40.512-21.12-68.288 0-26.752 6.656-48.96 20.736-66.56 14.784-19.008 35.584-28.544 61.632-28.544 21.12 0 39.04 9.856 54.208 29.952V479.744h40.128z m-273.472 4.928c60.544 0 91.2 25.664 91.2 77.056 0 51.776-30.656 77.824-91.904 77.824h-62.272V736h-41.216V484.672h104.192z m406.784 0v33.792h-33.088c-5.248 0-9.152 1.408-11.968 4.224-2.816 2.816-3.84 7.04-3.84 13.056v18.24h46.464v32.768h-46.464V736h-40.128V586.752h-40.512v-32.704h40.512v-19.392c0-15.488 4.224-27.776 12.992-36.608 8.448-9.152 21.12-13.376 37.312-13.376h38.72zM509.44 581.44c-18.304 0-31.36 6.016-39.744 17.984-7.424 10.24-10.88 24.96-10.88 44.736 0 19.712 3.136 34.816 10.176 45.376 8.064 12.672 21.12 19.008 39.04 19.008a41.728 41.728 0 0 0 36.288-18.624c7.36-11.264 11.264-26.048 11.264-43.648v-2.88c0-19.328-4.928-34.816-14.08-46.08a39.68 39.68 0 0 0-32-15.872z m-191.808-61.568H257.92v84.48h59.776c18.368 0 31.68-3.52 40.128-9.856 8.512-6.656 12.736-17.6 12.736-32.704 0-15.168-4.608-25.728-13.056-32.064-8.448-6.656-21.824-9.856-39.808-9.856z m569.92-289.536L729.6 72.384V230.4l157.952-0.064z" p-id="31823"></path></svg>