<?xml version="1.0" encoding="UTF-8"?>
<svg width="16px" height="16px" viewBox="0 0 16 16" version="1.1" xmlns="http://www.w3.org/2000/svg" xmlns:xlink="http://www.w3.org/1999/xlink">
    <title>front-adjust</title>
    <g id="切图" stroke="none" stroke-width="1" fill="none" fill-rule="evenodd">
        <g id="编组-12">
            <g id="调节4" transform="translate(1, 1.5)" fill="#000000" fill-rule="nonzero">
                <path d="M3,2.50031254 C3,3.32873966 3.67157288,4.00031254 4.5,4.00031254 C5.32842712,4.00031254 6,3.32873966 6,2.50031254 C6,1.67188541 5.32842712,1.00031254 4.5,1.00031254 C3.67157288,1.00031254 3,1.67188541 3,2.50031254 Z M3.24984374,0.334978364 C4.02344312,-0.111659455 4.97655688,-0.111659455 5.75015626,0.334978364 C6.52375565,0.781616182 7.0003125,1.60703691 7.0003125,2.50031254 C7.0003125,3.881197 5.88088446,5.00062504 4.5,5.00062504 C3.11911554,5.00062504 1.9996875,3.881197 1.9996875,2.50031254 C1.9996875,1.60703691 2.47624435,0.781616182 3.24984374,0.334978364 Z M8.01176763,10.5009375 C8.01176763,11.3293647 8.6833405,12.0009375 9.51176763,12.0009375 C10.3401948,12.0009375 11.0117676,11.3293647 11.0117676,10.5009375 C11.0117676,9.67251041 10.3401948,9.00093754 9.51176763,9.00093754 C8.6833405,9.00093754 8.01176763,9.67251041 8.01176763,10.5009375 Z M9.5,8.00062504 C10.8808845,8.00062504 12.0003125,9.12005307 12.0003125,10.5009375 C12.0003125,11.881822 10.8808845,13.00125 9.5,13.00125 C8.11911554,13.00125 6.9996875,11.881822 6.9996875,10.5009375 C6.9996875,9.12005307 8.11911554,8.00062504 9.5,8.00062504 Z" id="形状"></path>
                <path d="M11.4996875,10.0003125 L14,10.0003125 L14,11.000625 L11.4996875,11.000625 L11.4996875,10.0003125 Z M0,10.0003125 L7.5003125,10.0003125 L7.5003125,11.000625 L0,11.000625 L0,10.0003125 Z M0,2.00062504 L2.5003125,2.00062504 L2.5003125,3.00093754 L0,3.00093754 L0,2.00062504 Z M6.4996875,2.00062504 L14,2.00062504 L14,3.00093754 L6.4996875,3.00093754 L6.4996875,2.00062504 Z" id="形状"></path>
            </g>
            <rect id="矩形" x="0" y="0" width="16" height="16"></rect>
        </g>
    </g>
</svg>