<?xml version="1.0" encoding="UTF-8"?>
<svg width="16px" height="16px" viewBox="0 0 16 16" version="1.1" xmlns="http://www.w3.org/2000/svg" xmlns:xlink="http://www.w3.org/1999/xlink">
    <title>front-search</title>
    <g id="切图" stroke="none" stroke-width="1" fill="none" fill-rule="evenodd">
        <g id="front-search" transform="translate(1.6, 1.2)" fill="#000000" fill-rule="nonzero">
            <g id="front-homesearch" transform="translate(6.4, 6.8) scale(-1, 1) translate(-6.4, -6.8)translate(-0, 0)">
                <path d="M9.45588579,1.64023901 C11.368271,3.5723606 11.6217463,6.61712764 10.055678,8.84499411 L12.3942909,11.2103141 C12.9352364,11.7569878 12.9352364,12.643321 12.3942909,13.1899947 C11.8533455,13.7366684 10.9762996,13.7366684 10.4353542,13.1899947 L7.92660789,10.6546825 C5.49125056,11.8266703 2.57463928,11.0569324 1.01729551,8.83121021 C-0.540048264,6.60548805 -0.285977241,3.56998081 1.61917759,1.64023901 C2.65838451,0.590012425 4.06786056,0 5.53753169,0 C7.00720281,0 8.41667887,0.590012425 9.45588579,1.64023901 L9.45588579,1.64023901 Z M9.45588579,9.55896135 L9.45588579,9.55993273 L9.43570048,9.57936041 L8.80322728,10.2195025 L11.0889739,12.5294536 C11.2574415,12.7013686 11.528039,12.7144943 11.7120249,12.5596756 C11.8960109,12.4048569 11.9322475,12.1335394 11.7954599,11.9349666 L11.7416324,11.8698839 L9.45588579,9.55896135 L9.45588579,9.55896135 Z M2.27279731,2.30078013 C0.469468867,4.12320461 0.469468867,7.07793851 2.27279731,8.900363 C4.07612575,10.7227875 6.99989884,10.7227875 8.80322728,8.900363 C10.6065557,7.07793851 10.6065557,4.12320461 8.80322728,2.30078013 C6.99989884,0.478355638 4.07612575,0.478355638 2.27279731,2.30078013 L2.27279731,2.30078013 Z" id="形状"></path>
            </g>
        </g>
    </g>
</svg>