<?xml version="1.0" encoding="UTF-8"?>
<svg width="16px" height="16px" viewBox="0 0 16 16" version="1.1" xmlns="http://www.w3.org/2000/svg" xmlns:xlink="http://www.w3.org/1999/xlink">
    <title>front-console</title>
    <g id="切图" stroke="none" stroke-width="1" fill="none" fill-rule="evenodd">
        <g id="front-console" transform="translate(1.2, 2)" fill="#333333" fill-rule="nonzero">
            <g id="电脑">
                <path d="M13.6,9.41538462 L13.6,0 L0,0 L0,9.41538462 L5.23076923,9.41538462 L5.23076923,10.9846154 L4.18461538,10.9846154 L4.18461538,12.0307692 L9.41538462,12.0307692 L9.41538462,10.9846154 L8.36923077,10.9846154 L8.36923077,9.41538462 L13.6,9.41538462 Z M12.5538462,1.04615385 L12.5538462,6.27692308 L1.04615385,6.27692308 L1.04615385,1.04615385 L12.5538462,1.04615385 Z M1.04615385,8.36923077 L1.04615385,7.32307692 L12.5538462,7.32307692 L12.5538462,8.36923077 L1.04615385,8.36923077 Z M7.32307692,10.9846154 L6.27692308,10.9846154 L6.27692308,9.41538462 L7.32307692,9.41538462 L7.32307692,10.9846154 Z" id="形状"></path>
            </g>
        </g>
    </g>
</svg>