<?xml version="1.0" encoding="UTF-8"?>
<svg width="16px" height="16px" viewBox="0 0 16 16" version="1.1" xmlns="http://www.w3.org/2000/svg" xmlns:xlink="http://www.w3.org/1999/xlink">
    <title>front-app</title>
    <g id="切图" stroke="none" stroke-width="1" fill="none" fill-rule="evenodd">
        <g id="1/图标/箭头备份" transform="translate(1.2, 0)" fill="#333333" fill-rule="nonzero">
            <g id="应用-(1)">
                <path d="M13.3422071,3.80468495 L7.0578283,0.0713326319 C6.89885424,-0.023777544 6.70118116,-0.023777544 6.54218941,0.0713326319 L0.257810592,3.80468495 C0.0988365403,3.89979512 0,4.074507 0,4.26472735 L0,11.7336188 C0,11.923821 0.0988365403,12.0985511 0.257810592,12.1936612 L6.54218941,15.9292186 C6.62169414,15.975653 6.71192696,16 6.8,16 C6.88807304,16 6.97832357,15.9756894 7.05781059,15.9292186 L13.3421894,12.1936612 C13.5011635,12.0985511 13.6,11.9238392 13.6,11.7336188 L13.6,4.26472735 C13.6,4.07452522 13.5011635,3.89979512 13.3421894,3.80468495 L13.3422071,3.80468495 Z M12.5687399,11.4284061 L6.8000177,14.8565275 L1.03129548,11.4284061 L1.03129548,4.57214516 L6.8000177,1.14402379 L12.5687399,4.57214516 L12.5687399,11.4284061 L12.5687399,11.4284061 Z" id="形状"></path>
                <path d="M2.46942552,5.07207854 C2.32658741,5.33050482 2.4109885,5.6608283 2.65989416,5.80914057 L6.27410845,7.97538861 L6.27410845,12.2606877 C6.27410845,12.5595712 6.50568094,12.8 6.79351489,12.8 C7.08134883,12.8 7.31292133,12.5595527 7.31292133,12.2606877 L7.31292133,7.98212839 L10.9401177,5.80690015 C11.1890055,5.65858787 11.2734066,5.32824588 11.1305863,5.06983812 C10.987766,4.81143036 10.669599,4.72377613 10.420729,4.8720699 L6.80002374,7.04279878 L3.17931843,4.8720699 C2.93043061,4.72375762 2.61445702,4.81365226 2.46946118,5.07206002 L2.46942552,5.07207854 Z" id="路径"></path>
            </g>
        </g>
    </g>
</svg>