<?xml version="1.0" encoding="UTF-8"?>
<svg width="16px" height="16px" viewBox="0 0 16 16" version="1.1" xmlns="http://www.w3.org/2000/svg" xmlns:xlink="http://www.w3.org/1999/xlink">
    <title>front-cancelcollect</title>
    <g id="切图" stroke="none" stroke-width="1" fill="none" fill-rule="evenodd">
        <g id="front-cancelcollect">
            <path d="M8.23388214,1.22184857 C8.30492778,1.25728244 8.36302536,1.31538002 8.39845923,1.38715388 L10.3382179,5.31813587 L12.9459287,2.71891317 L13.6,3.36836692 L11.3342179,5.62713587 L14.9604248,6.15406392 C15.0976144,6.17398626 15.2115885,6.270084 15.2544052,6.40193475 C15.2972219,6.53378551 15.2614517,6.67851064 15.1621409,6.77523323 L12.0184271,9.83957137 C11.9324574,9.92326041 11.8932333,10.043929 11.9135638,10.1621716 L12.6563454,14.4892384 C12.6798504,14.6259383 12.6236457,14.764119 12.5113957,14.8456007 C12.3991457,14.9270824 12.2503508,14.9377101 12.1276597,14.8730089 L8.24189253,12.8303596 C8.13569082,12.7744251 8.00874499,12.7744251 7.90254329,12.8303596 L4.01677611,14.8730089 C3.89413727,14.9372938 3.74564986,14.9264539 3.63364738,14.8450397 C3.5216449,14.7636255 3.46551429,14.6257292 3.48881861,14.4892384 L3.70221791,13.2401359 L2.15831909,14.7809982 L1.50287074,14.1315445 L3.97221791,11.6681359 L4.23087198,10.1621716 C4.2512025,10.043929 4.21197841,9.92326041 4.12600869,9.83957137 L0.982294875,6.77523323 C0.882984083,6.67851064 0.847213891,6.53378551 0.890030608,6.40193475 C0.932847325,6.270084 1.04682142,6.17398626 1.18401105,6.15406392 L5.52855509,5.5234278 C5.64736493,5.50624156 5.7500686,5.43159751 5.80309299,5.32389627 L7.74597659,1.38715388 C7.7887245,1.30050299 7.86416066,1.2343962 7.95567274,1.20339136 C8.04718481,1.17238653 8.14726796,1.17902633 8.23388214,1.22184857 Z M10.6902179,6.26913587 L4.59321791,12.3521359 L4.33063774,13.8840899 L7.56392228,12.1858873 C7.84492213,12.0379304 8.17640099,12.0195888 8.47200917,12.1356403 L8.58051354,12.1858873 L11.8130699,13.8840899 L11.1962699,10.2852403 C11.1425082,9.97231095 11.2275682,9.65147517 11.4292994,9.40628211 L11.5101315,9.31889604 L14.1258878,6.76795106 L10.6902179,6.26913587 Z M8.07221791,2.37097537 L6.45557564,5.64649651 C6.31309804,5.93501217 6.0506581,6.14602986 5.73828166,6.22324456 L5.63341838,6.24363464 L2.01781979,6.76795106 L4.63430433,9.31816782 C4.86186431,9.54004888 4.98150053,9.85003962 4.96200208,10.1672691 L4.94816596,10.2852403 L4.86221791,10.7801359 L9.81320122,5.84270259 C9.78717157,5.80997997 9.76290215,5.77561134 9.7405636,5.73970832 L9.68886018,5.64649651 L8.07221791,2.37097537 Z" id="形状结合" fill="#2C2C2C" fill-rule="nonzero"></path>
            <rect id="矩形备份-30" x="0" y="0" width="16" height="16"></rect>
        </g>
    </g>
</svg>