<?xml version="1.0" encoding="UTF-8"?>
<svg width="16px" height="16px" viewBox="0 0 16 16" version="1.1" xmlns="http://www.w3.org/2000/svg" xmlns:xlink="http://www.w3.org/1999/xlink">
    <title>front-quote</title>
    <g id="切图" stroke="none" stroke-width="1" fill="none" fill-rule="evenodd">
        <g id="front-quote" transform="translate(0.8, 0.8)" fill="#000000" fill-rule="nonzero">
            <g id="front-restore">
                <path d="M12.41453,4.83716498 L9.47302407,7.85229303 C9.76754629,8.14865992 9.81028453,8.19058964 10.2097942,8.60893389 L14.037654,4.68183443 L14.4,4.30732579 L14.037654,3.92614652 L10.2107233,0 C9.69879347,0.525074449 9.85395187,0.375461584 9.47581134,0.754734961 L12.4163882,3.76986301 L12.4163882,3.79368672 L5.5745532,3.79463967 C2.50390348,3.79463967 0,6.15890411 0,9.09684336 C0,11.9623585 2.38126331,14.2808815 5.34599652,14.3952353 L5.5745532,14.4 L8.70745209,14.3961882 L8.70745209,13.3603335 L5.5736241,13.3603335 C3.04556423,13.3603335 1.01178141,11.4420488 1.01178141,9.09684336 C1.01178141,6.82215605 2.92756952,4.94770697 5.35157107,4.83907088 L5.5745532,4.83430613 L12.4154591,4.83430613 L12.41453,4.83716498 Z" id="路径"></path>
            </g>
        </g>
    </g>
</svg>