<?xml version="1.0" encoding="UTF-8"?>
<svg width="16px" height="16px" viewBox="0 0 16 16" version="1.1" xmlns="http://www.w3.org/2000/svg" xmlns:xlink="http://www.w3.org/1999/xlink">
    <title>front-library</title>
    <g id="切图" stroke="none" stroke-width="1" fill="none" fill-rule="evenodd">
        <g id="front-library" fill="#EBEBEC">
            <rect id="矩形" opacity="0" x="0" y="0" width="16" height="16"></rect>
            <path d="M12.8775438,0.560962283 L15.7883075,14.2550287 L10.8975695,15.2945871 L9.21,7.35796228 L9.21,15.25 L0.21,15.25 L0.21,1.25 L9.21,1.25 L9.21,1.33996228 L12.8775438,0.560962283 Z M4.21,2.25 L1.21,2.25 L1.21,14.25 L4.21,14.25 L4.21,2.25 Z M8.124,2.24996228 L5.21,2.24996228 L5.21,14.2499623 L8.21,14.25 L8.209,2.64896228 L8.124,2.24996228 Z M12.1066023,1.74637952 L9.21,2.36196228 L9.21,2.54896228 L11.6670998,14.1078858 L14.6015426,13.4841507 L12.1066023,1.74637952 Z M2.71,11.75 C3.12421356,11.75 3.46,12.0857864 3.46,12.5 C3.46,12.9142136 3.12421356,13.25 2.71,13.25 C2.29578644,13.25 1.96,12.9142136 1.96,12.5 C1.96,12.0857864 2.29578644,11.75 2.71,11.75 Z M6.71,11.75 C7.12421356,11.75 7.46,12.0857864 7.46,12.5 C7.46,12.9142136 7.12421356,13.25 6.71,13.25 C6.29578644,13.25 5.96,12.9142136 5.96,12.5 C5.96,12.0857864 6.29578644,11.75 6.71,11.75 Z M13.504792,11.9289683 C13.5909119,12.3341303 13.3322771,12.7323929 12.9271151,12.8185127 C12.5219531,12.9046326 12.1236905,12.6459978 12.0375706,12.2408358 C11.9514508,11.8356738 12.2100855,11.4374112 12.6152475,11.3512913 C13.0204095,11.2651715 13.4186722,11.5238062 13.504792,11.9289683 Z M3.71,5.35 L3.71,6.15 L1.71,6.15 L1.71,5.35 L3.71,5.35 Z M7.71,5.35 L7.71,6.15 L5.71,6.15 L5.71,5.35 L7.71,5.35 Z M12.2419692,4.88542022 L12.4082985,5.6679383 L10.4520033,6.08376168 L10.285674,5.3012436 L12.2419692,4.88542022 Z M3.71,3.35 L3.71,4.15 L1.71,4.15 L1.71,3.35 L3.71,3.35 Z M7.71,3.35 L7.71,4.15 L5.71,4.15 L5.71,3.35 L7.71,3.35 Z M11.8261458,2.92912502 L11.9924751,3.7116431 L10.0361799,4.12746648 L9.86985057,3.3449484 L11.8261458,2.92912502 Z" id="形状结合"></path>
        </g>
    </g>
</svg>