<?xml version="1.0" encoding="UTF-8"?>
<svg width="16px" height="16px" viewBox="0 0 16 16" version="1.1" xmlns="http://www.w3.org/2000/svg" xmlns:xlink="http://www.w3.org/1999/xlink">
    <title>front-target</title>
    <g id="切图" stroke="none" stroke-width="1" fill="none" fill-rule="evenodd">
        <g id="front-target" transform="translate(1.6, 1.6)" fill="#000000" fill-rule="nonzero">
            <g id="靶子" transform="translate(0, 0)">
                <path d="M6.6301574,0.0152557694 C7.7682378,0.0152557694 8.83919281,0.302064235 9.77437148,0.807030203 L9.20838243,1.37301925 C9.11227108,1.32572636 9.01310858,1.28148463 8.91394608,1.23876848 C8.19082261,0.933653089 7.42193183,0.778044241 6.6301574,0.778044241 C5.83685739,0.778044241 5.06949218,0.933653089 4.34636871,1.23876848 C3.64918005,1.53320483 3.02064235,1.95731522 2.48211369,2.49584388 C1.94358503,3.03437254 1.52100021,3.66138466 1.22503829,4.3600989 C0.919922897,5.08322238 0.764314049,5.85058758 0.764314049,6.64388759 C0.764314049,7.4371876 0.919922897,8.2045528 1.22503829,8.92767627 C1.51947464,9.62486494 1.94358503,10.2534026 2.48211369,10.7919313 C3.02064235,11.33046 3.64765447,11.7530448 4.34636871,12.0490067 C5.06949218,12.3541221 5.83838296,12.5097309 6.6301574,12.5097309 C7.42345741,12.5097309 8.19082261,12.3541221 8.91394608,12.0490067 C9.61113474,11.7545703 10.2396724,11.33046 10.7782011,10.7919313 C11.3167298,10.2534026 11.7393146,9.62639051 12.0352765,8.92767627 C12.3403919,8.2045528 12.4960007,7.4371876 12.4960007,6.64388759 C12.4960007,5.85058758 12.3403919,5.08322238 12.0352765,4.3600989 C12.0001882,4.27619217 11.9620488,4.19381102 11.9223838,4.11142986 L12.4898984,3.54391524 C12.9811342,4.46841487 13.2587892,5.52411411 13.2587892,6.64388759 C13.2587892,10.3052723 10.2900165,13.2725194 6.62863182,13.2725194 C2.96724715,13.2725194 0,10.3052723 0,6.64388759 C0,2.98250292 2.96877273,0.0152557694 6.6301574,0.0152557694 Z M6.62252951,2.23954695 C7.42498298,2.23954695 8.17556684,2.4546533 8.82393704,2.82841965 L8.26099915,3.39135755 C8.18929703,3.3547437 8.11454376,3.32118101 8.03979049,3.28914389 C7.59127087,3.09997235 7.11376529,3.003861 6.62252951,3.003861 C6.13129374,3.003861 5.65378815,3.09997235 5.20526853,3.28914389 C4.77200468,3.47221312 4.38145698,3.73613793 4.04735563,4.07023928 C3.7117287,4.40434064 3.44932947,4.79488833 3.26626024,5.22815219 C3.07708869,5.67667181 2.98097735,6.15417739 2.98097735,6.64541317 C2.98097735,7.13664894 3.07708869,7.61415452 3.26626024,8.06267415 C3.44932947,8.495938 3.71325428,8.8864857 4.04735563,9.22058705 C4.38145698,9.55621397 4.77200468,9.81861321 5.20526853,10.0016824 C5.65378815,10.190854 6.13129374,10.2869653 6.62252951,10.2869653 C7.11376529,10.2869653 7.59127087,10.190854 8.03979049,10.0016824 C8.47305434,9.81861321 8.86360204,9.5546884 9.19770339,9.22058705 C9.53333032,8.8864857 9.79572955,8.495938 9.97879879,8.06267415 C10.1679703,7.61415452 10.2640817,7.13664894 10.2640817,6.64541317 C10.2640817,6.15417739 10.1679703,5.67667181 9.97879879,5.22815219 C9.94828725,5.15492449 9.91472456,5.0816968 9.87811071,5.01152026 L10.4410486,4.44858237 C10.8132894,5.09542699 11.0268701,5.84601085 11.0268701,6.64541317 C11.0268701,9.07718281 9.05429916,11.0482282 6.62252951,11.0482282 C4.19075986,11.0482282 2.21818888,9.07565724 2.21818888,6.64388759 C2.21818888,4.21211794 4.18923429,2.23954695 6.62252951,2.23954695 Z M6.61490163,4.4531591 C6.79491971,4.4531591 6.96883548,4.47451717 7.13664894,4.51570775 L6.42420451,5.22815219 C5.72701585,5.32121238 5.18696161,5.91923854 5.18696161,6.64236201 C5.18696161,7.42955971 5.82770392,8.07030203 6.61490163,8.07030203 C7.32582048,8.07030203 7.91774434,7.54702914 8.02453472,6.86662182 L8.74765819,6.14349835 C8.78579762,6.30368393 8.80563012,6.47149739 8.80563012,6.64388759 C8.80563012,7.85214453 7.82468414,8.83461608 6.61490163,8.83461608 C5.40511911,8.83461608 4.42417314,7.8536701 4.42417314,6.64388759 C4.42417314,5.43410507 5.40511911,4.4531591 6.61490163,4.4531591 Z M11.6538823,0 L12.0474811,1.25554982 L13.2862496,1.6476231 L11.1504419,3.78343082 L10.313,3.521 L6.93374721,6.90018451 C6.86051951,6.97493779 6.76288259,7.01155163 6.66524567,7.01155163 C6.56760874,7.01155163 6.46997182,6.97493779 6.39521855,6.90018451 C6.24571201,6.75067797 6.24571201,6.50963682 6.39521855,6.36013028 L9.78,2.974 L9.51807455,2.13580772 L11.6538823,0 Z" id="形状结合"></path>
            </g>
        </g>
    </g>
</svg>